ply
format ascii 1.0
comment Created by CloudCompare v2.10.1 (Zephyrus)
comment Created 2020-05-06 7:45 PM
obj_info Generated by CloudCompare!
element vertex 203
property float x
property float y
property float z
property uchar red
property uchar green
property uchar blue
end_header
-28 107 410 174 103 81 
-26 106 407 187 128 94 
-26 106 407 181 122 88 
-19 106 406 206 151 121 
-18 106 406 217 187 185 
-18 106 406 221 191 189 
-28 107 410 156 103 87 
-28 107 408 173 114 84 
-27 107 407 186 127 97 
-26 106 406 167 114 82 
-26 106 406 132 79 47 
-25 106 405 209 155 129 
-24 106 404 221 167 141 
-23 106 404 226 171 141 
-23 106 405 228 173 143 
-22 106 405 237 176 145 
-21 106 404 239 178 147 
-21 106 405 234 178 151 
-20 106 405 228 172 145 
-20 106 405 219 164 134 
-19 106 405 209 154 124 
-18 106 406 201 170 167 
-18 106 406 226 195 192 
-28 108 410 174 130 121 
-28 107 408 198 141 111 
-27 107 407 220 163 133 
-26 107 406 190 139 110 
-26 107 406 137 86 57 
-25 107 405 226 174 152 
-24 106 404 241 189 167 
-23 106 404 244 188 161 
-23 106 404 242 186 159 
-22 107 405 246 185 157 
-21 106 404 246 185 157 
-21 107 405 240 186 158 
-20 107 405 234 180 152 
-20 107 405 227 172 141 
-19 107 406 201 146 115 
-18 107 406 165 130 128 
-28 109 410 195 146 141 
-28 108 408 210 151 121 
-27 108 406 227 168 138 
-26 108 406 203 149 121 
-26 108 406 147 93 65 
-25 107 405 231 176 155 
-24 107 404 247 192 171 
-23 107 404 243 190 159 
-23 107 404 243 190 159 
-22 107 404 242 185 156 
-21 107 404 237 180 151 
-21 107 405 232 183 150 
-20 107 405 229 180 147 
-20 107 405 221 168 134 
-19 108 406 193 140 106 
-18 108 406 135 97 96 
-18 108 406 208 170 169 
-28 109 410 191 144 138 
-28 109 408 205 152 121 
-27 109 407 216 163 132 
-26 108 406 207 156 127 
-26 108 406 145 94 65 
-25 108 405 213 159 135 
-24 108 405 240 186 162 
-23 108 404 241 188 156 
-23 108 404 241 188 156 
-22 108 404 239 182 153 
-21 108 404 235 178 149 
-21 108 405 231 183 143 
-20 108 405 230 182 142 
-20 108 405 220 170 135 
-19 108 406 190 140 105 
-18 108 406 132 92 92 
-18 108 406 201 161 161 
-17 109 407 201 198 205 
-28 110 410 171 134 125 
-28 109 408 189 144 111 
-27 109 407 200 155 122 
-26 109 407 211 164 136 
-26 109 407 145 98 70 
-25 109 406 198 144 120 
-24 109 405 238 184 160 
-23 109 405 241 188 156 
-23 109 405 238 185 153 
-22 108 404 236 176 150 
-21 108 404 234 174 148 
-21 109 405 232 180 140 
-20 109 405 228 176 136 
-20 109 405 214 164 129 
-19 109 406 194 144 109 
-18 109 406 160 116 117 
-18 109 406 216 172 173 
-17 109 407 203 198 205 
-28 111 411 153 132 127 
-28 110 409 199 136 103 
-27 110 408 210 147 114 
-26 110 407 213 152 124 
-26 110 407 160 99 71 
-25 110 406 186 129 102 
-24 110 406 233 176 149 
-23 109 405 237 180 151 
-23 109 405 233 176 147 
-22 109 405 235 179 144 
-21 109 404 232 176 141 
-21 109 405 223 175 139 
-20 109 405 229 181 145 
-20 110 406 223 166 139 
-19 110 406 202 145 118 
-18 110 406 160 113 93 
-18 110 406 220 173 153 
-28 112 411 148 129 125 
-28 111 409 192 131 100 
-27 111 408 198 137 106 
-26 111 408 205 145 117 
-26 111 408 166 106 78 
-25 110 407 166 109 82 
-24 110 406 230 173 146 
-24 110 406 234 177 148 
-23 110 406 230 173 144 
-22 110 406 229 173 138 
-22 110 405 227 171 136 
-21 110 405 224 176 140 
-20 110 406 229 181 145 
-20 110 406 222 168 140 
-19 110 406 208 154 126 
-18 110 406 139 92 72 
-18 110 407 207 160 140 
-28 112 410 143 125 123 
-28 112 409 190 131 101 
-27 112 409 191 132 102 
-26 111 407 199 139 113 
-26 111 407 175 115 89 
-25 111 407 147 89 65 
-24 111 407 219 161 137 
-24 111 406 222 167 137 
-23 111 406 220 165 135 
-22 111 406 222 166 131 
-22 111 406 221 165 130 
-21 111 406 224 175 142 
-20 111 406 228 179 146 
-20 111 406 223 172 143 
-19 111 406 213 162 133 
-18 111 406 151 106 83 
-18 111 406 206 161 138 
-28 113 410 140 125 122 
-28 112 409 181 124 95 
-27 112 408 185 128 99 
-26 112 407 194 134 108 
-26 111 406 185 125 99 
-25 111 406 140 82 58 
-24 111 406 202 144 120 
-24 111 406 214 158 131 
-23 111 405 220 164 137 
-22 111 406 227 171 136 
-22 111 406 221 165 130 
-21 111 405 222 172 137 
-20 111 405 228 178 143 
-20 111 405 215 168 140 
-19 111 405 191 144 116 
-18 111 405 168 126 102 
-18 111 405 196 154 130 
-28 113 410 142 128 125 
-28 113 409 174 117 88 
-27 113 408 180 123 94 
-26 112 407 190 130 104 
-25 112 406 192 132 106 
-25 112 406 128 70 46 
-24 112 406 184 126 102 
-24 112 406 216 160 133 
-23 112 405 220 164 137 
-22 112 405 223 169 135 
-22 112 405 220 166 132 
-21 112 405 214 164 129 
-20 112 405 216 166 131 
-20 112 405 207 162 133 
-19 112 405 198 153 124 
-28 114 410 135 121 118 
-28 113 408 165 108 79 
-27 113 408 174 117 88 
-26 113 406 185 125 99 
-25 113 406 194 134 108 
-25 113 405 141 83 59 
-24 113 405 171 113 89 
-23 113 405 218 164 136 
-23 113 405 216 162 134 
-22 113 405 211 158 124 
-22 113 405 204 151 117 
-28 114 409 141 127 126 
-28 114 408 184 129 99 
-27 114 407 188 133 103 
-26 113 406 187 127 101 
-25 113 405 188 128 102 
-25 113 405 157 99 75 
-24 113 405 144 86 62 
-23 113 405 191 140 113 
-23 113 404 202 151 124 
-22 113 405 202 152 119 
-27 114 406 220 164 137 
-26 114 405 206 148 124 
-25 114 405 198 140 116 
-25 114 404 184 128 105 
-26 114 405 228 177 148 
-25 114 405 229 178 149 
-25 114 404 211 162 130 
