ply
format ascii 1.0
comment Created by CloudCompare v2.10.1 (Zephyrus)
comment Created 2020-05-06 7:45 PM
obj_info Generated by CloudCompare!
element vertex 340
property float x
property float y
property float z
property uchar red
property uchar green
property uchar blue
end_header
-29 38 410 158 105 74 
-29 38 410 161 108 77 
-28 38 410 171 119 98 
-27 38 411 171 119 98 
-27 38 411 140 110 100 
-26 38 411 111 81 71 
-34 39 411 137 73 45 
-33 39 411 140 75 45 
-32 39 411 150 86 58 
-31 39 411 161 97 69 
-31 39 411 169 106 75 
-30 39 411 164 101 70 
-29 39 411 164 110 82 
-29 39 411 168 114 86 
-28 39 411 180 131 116 
-27 39 412 200 151 136 
-27 39 412 175 147 143 
-26 39 412 124 96 92 
-25 39 412 91 79 83 
-36 39 412 125 59 33 
-35 39 412 135 69 43 
-35 39 412 146 79 52 
-34 39 412 149 82 55 
-33 39 412 155 90 62 
-33 39 411 164 99 71 
-32 39 411 169 108 80 
-31 39 411 179 118 90 
-31 39 411 178 115 84 
-30 39 411 177 114 83 
-29 39 411 191 141 116 
-29 39 411 193 143 118 
-28 39 412 203 157 144 
-27 39 412 225 179 166 
-27 39 412 208 183 179 
-26 39 412 165 140 136 
-37 40 413 126 68 48 
-36 40 412 146 76 51 
-35 40 412 157 87 62 
-35 40 412 165 95 69 
-34 40 412 169 99 73 
-33 40 411 173 109 82 
-33 40 411 183 119 92 
-32 40 411 186 126 100 
-31 40 411 192 132 106 
-31 40 411 171 111 83 
-30 40 411 165 105 77 
-29 40 411 208 162 139 
-29 40 411 213 167 144 
-28 40 411 223 181 169 
-27 40 412 230 188 176 
-27 40 412 221 193 189 
-26 40 412 211 183 179 
-25 40 412 121 103 103 
-25 40 413 112 94 94 
-38 41 413 107 61 48 
-38 41 413 132 71 52 
-37 41 413 145 84 65 
-36 41 412 160 93 67 
-35 41 411 170 103 77 
-35 41 411 178 113 85 
-34 41 411 183 118 90 
-33 41 411 189 130 100 
-33 40 410 198 139 109 
-32 40 410 202 147 117 
-31 40 410 210 155 125 
-31 41 411 178 122 97 
-30 41 411 144 88 63 
-29 41 411 220 178 156 
-29 41 411 228 186 164 
-28 41 411 226 186 174 
-27 41 411 235 195 183 
-27 41 411 229 200 192 
-26 41 411 224 195 187 
-25 41 412 171 147 145 
-25 41 413 119 95 93 
-38 41 413 127 78 61 
-37 41 412 142 80 59 
-37 41 412 157 95 74 
-36 41 412 173 107 83 
-35 41 411 184 118 94 
-35 41 411 194 133 105 
-34 41 411 202 141 113 
-33 41 410 207 150 120 
-33 41 410 212 155 125 
-32 41 410 216 163 131 
-31 41 410 227 174 142 
-31 41 410 204 152 128 
-30 41 410 135 83 59 
-29 41 410 224 186 165 
-29 41 411 235 197 176 
-28 41 411 234 195 180 
-27 41 411 243 204 189 
-27 41 411 231 201 190 
-26 41 411 229 199 188 
-25 41 411 209 184 179 
-25 41 412 130 105 100 
-39 42 413 135 77 57 
-38 42 413 150 92 72 
-37 42 412 168 101 74 
-37 42 412 183 116 89 
-36 42 412 187 124 91 
-35 42 411 202 139 106 
-35 42 411 207 151 116 
-34 42 410 215 159 124 
-33 42 410 219 163 130 
-33 42 410 229 173 140 
-32 42 410 238 178 150 
-31 42 410 244 184 156 
-31 42 410 224 176 156 
-30 42 410 135 87 67 
-29 42 410 221 176 155 
-29 42 411 248 203 182 
-28 42 411 236 198 177 
-27 42 411 244 206 185 
-27 42 411 246 208 195 
-26 42 411 238 200 187 
-25 42 411 222 189 180 
-25 42 412 163 130 121 
-24 42 412 131 108 102 
-39 43 413 149 91 69 
-38 43 412 159 101 79 
-37 43 412 180 113 84 
-37 43 411 198 131 102 
-36 43 411 197 137 103 
-35 43 411 211 151 117 
-35 42 410 218 162 127 
-34 42 410 226 170 135 
-33 42 410 230 174 141 
-33 42 410 239 183 150 
-32 42 409 244 187 158 
-31 42 409 250 193 164 
-31 42 410 238 187 166 
-30 42 410 149 98 77 
-29 42 410 208 161 141 
-29 43 411 244 197 177 
-28 43 411 238 195 176 
-27 43 411 242 199 180 
-27 43 411 243 204 187 
-26 43 411 235 196 179 
-25 43 411 221 189 178 
-25 43 411 180 148 137 
-24 43 412 128 104 100 
-39 43 413 159 99 75 
-38 43 413 171 111 87 
-37 43 412 192 125 96 
-37 43 411 206 139 110 
-36 43 411 207 147 113 
-35 43 410 217 157 123 
-35 43 410 221 165 128 
-34 43 409 229 173 136 
-33 43 409 233 179 145 
-33 43 409 241 187 153 
-32 43 409 244 188 161 
-31 43 409 248 192 165 
-31 43 409 244 192 168 
-30 43 409 156 104 80 
-29 43 410 187 139 119 
-29 43 410 236 188 168 
-28 43 410 237 190 172 
-27 43 410 238 191 173 
-27 43 410 240 197 178 
-26 43 410 234 191 172 
-25 43 410 224 188 174 
-25 43 411 185 149 135 
-24 43 411 120 96 92 
-23 43 412 130 106 102 
-38 44 413 184 122 97 
-37 44 412 202 135 106 
-37 44 411 211 144 115 
-36 44 411 215 155 119 
-35 44 410 222 162 126 
-35 44 409 222 166 129 
-34 44 409 229 173 136 
-33 44 409 236 180 147 
-33 44 409 243 187 154 
-32 44 409 242 186 159 
-31 44 408 243 187 160 
-31 44 409 240 187 156 
-30 44 409 159 106 75 
-29 44 410 173 122 101 
-29 44 410 235 184 163 
-28 44 410 236 185 166 
-27 44 410 234 183 164 
-27 44 410 231 183 160 
-26 44 410 230 182 159 
-25 44 410 214 177 159 
-25 44 411 186 149 131 
-24 44 411 115 94 91 
-23 44 412 123 102 99 
-23 44 413 122 110 114 
-38 45 413 193 129 102 
-37 45 412 209 140 109 
-37 45 411 215 146 115 
-36 45 411 216 153 118 
-35 44 410 224 161 126 
-35 44 409 224 166 128 
-34 44 409 230 172 134 
-33 44 409 235 176 142 
-33 44 409 241 182 148 
-32 44 408 237 180 151 
-31 44 408 238 181 152 
-31 44 409 234 179 148 
-30 44 409 156 101 70 
-29 44 410 166 114 92 
-29 44 410 231 179 157 
-28 44 410 235 183 161 
-27 44 410 231 179 157 
-27 44 410 224 173 146 
-26 44 410 224 173 146 
-25 44 410 210 169 147 
-25 44 410 189 148 126 
-24 45 411 105 81 77 
-23 45 412 121 97 93 
-23 45 413 122 111 117 
-38 45 413 196 130 104 
-37 45 412 208 139 108 
-37 45 411 217 148 117 
-36 45 411 212 149 114 
-35 45 410 223 160 125 
-35 45 409 225 166 126 
-34 45 409 227 168 128 
-33 45 409 229 169 132 
-33 45 409 235 175 138 
-32 45 408 231 174 144 
-31 45 408 233 176 146 
-31 45 409 229 172 142 
-30 45 409 155 98 68 
-29 45 410 162 108 82 
-29 45 410 224 170 144 
-28 45 410 230 176 150 
-27 45 410 228 174 148 
-27 45 410 219 166 135 
-26 45 410 219 166 135 
-25 45 410 204 159 136 
-25 45 410 194 149 126 
-24 45 411 116 93 87 
-23 45 411 112 89 83 
-23 45 413 114 103 107 
-38 46 413 195 130 102 
-37 46 412 210 144 112 
-37 46 411 218 152 120 
-36 46 411 214 152 115 
-35 46 410 226 164 127 
-35 46 409 228 166 125 
-34 46 409 228 166 125 
-33 46 409 230 168 129 
-33 46 409 236 174 135 
-32 46 408 232 173 143 
-31 46 408 232 173 143 
-30 46 408 226 167 137 
-30 46 409 158 99 69 
-29 46 409 163 109 81 
-29 46 410 218 164 136 
-28 46 410 225 172 141 
-27 46 410 222 169 138 
-27 46 410 220 163 134 
-26 46 410 217 160 131 
-25 46 410 206 158 136 
-25 46 410 192 144 122 
-24 46 410 132 105 96 
-23 46 411 110 83 74 
-23 46 412 107 97 98 
-38 47 413 191 127 99 
-37 47 412 213 147 115 
-37 47 411 218 152 120 
-36 47 411 215 153 116 
-35 46 410 226 164 127 
-35 46 409 228 167 123 
-34 46 409 227 166 122 
-33 46 409 230 168 127 
-33 46 409 236 174 133 
-32 46 409 230 171 139 
-31 46 408 227 168 136 
-30 46 408 219 158 130 
-30 46 409 160 99 71 
-29 46 409 167 112 82 
-29 46 409 221 166 136 
-28 46 409 227 172 141 
-27 46 410 222 167 136 
-27 46 409 227 168 138 
-26 46 409 223 164 134 
-25 46 409 210 159 138 
-25 46 410 176 125 104 
-24 46 410 128 100 89 
-23 46 410 130 102 91 
-38 48 414 193 123 97 
-37 47 412 214 151 110 
-37 47 411 216 153 112 
-36 47 411 215 154 123 
-35 47 410 223 162 131 
-35 47 410 223 167 132 
-34 47 409 221 165 130 
-33 47 409 226 166 138 
-33 47 409 228 168 140 
-32 47 409 223 167 134 
-31 47 409 219 163 130 
-31 47 409 213 160 128 
-30 47 409 148 95 63 
-29 47 409 167 111 84 
-29 47 409 215 159 132 
-28 47 409 223 165 141 
-27 47 409 221 163 139 
-27 47 409 221 161 137 
-26 47 409 219 159 135 
-25 47 409 214 159 138 
-25 47 409 194 139 118 
-24 47 410 167 133 124 
-23 47 410 162 128 119 
-39 48 413 149 85 58 
-38 48 413 188 124 97 
-37 48 412 208 144 108 
-37 48 411 214 150 114 
-36 48 411 210 149 118 
-35 48 410 217 156 125 
-35 48 410 217 163 127 
-34 48 409 218 164 128 
-33 48 409 220 163 134 
-33 48 409 221 164 135 
-32 48 409 219 162 132 
-31 48 409 217 160 130 
-31 48 409 213 158 128 
-30 48 408 176 121 91 
-29 48 408 191 139 115 
-28 48 408 224 172 148 
-28 48 408 232 178 152 
-27 48 409 233 179 153 
-36 48 410 210 149 118 
-35 48 410 217 156 125 
-35 48 409 220 168 131 
-34 48 409 227 175 138 
-33 48 409 231 176 146 
-33 48 409 232 177 147 
-32 48 409 233 176 149 
-31 48 408 233 176 149 
-30 48 408 237 180 153 
-30 48 408 231 174 147 
-29 48 408 240 189 168 
-28 48 408 251 200 179 
-28 48 408 252 201 174 
-27 48 408 251 200 173 
