ply
format ascii 1.0
comment Created by CloudCompare v2.10.1 (Zephyrus)
comment Created 2020-05-06 7:44 PM
obj_info Generated by CloudCompare!
element vertex 1420
property float x
property float y
property float z
property uchar red
property uchar green
property uchar blue
end_header
16 -91 418 210 169 151 
14 -91 421 210 174 152 
14 -91 420 224 188 166 
15 -91 419 223 180 161 
16 -91 418 241 198 179 
12 -91 423 164 133 115 
12 -91 422 184 146 125 
13 -91 421 211 173 152 
14 -91 420 236 194 172 
14 -90 419 249 207 185 
15 -90 418 251 206 185 
16 -90 418 251 206 185 
16 -90 417 251 208 189 
17 -90 417 250 207 188 
10 -90 423 158 125 106 
10 -91 424 159 126 107 
11 -90 423 172 135 116 
12 -90 421 186 149 130 
12 -90 420 221 177 152 
13 -90 420 236 192 167 
14 -90 419 248 202 178 
14 -89 418 251 205 181 
15 -89 418 253 207 184 
16 -89 418 255 219 196 
16 -89 418 255 212 193 
17 -89 417 255 213 194 
18 -89 417 254 211 194 
18 -89 417 250 207 190 
9 -90 423 158 130 109 
10 -90 423 164 127 108 
10 -90 423 173 136 117 
11 -90 422 201 160 140 
12 -89 420 228 187 167 
12 -89 419 247 200 174 
13 -89 419 244 197 171 
14 -89 418 252 205 177 
14 -89 417 254 207 179 
15 -89 417 255 215 191 
16 -89 417 255 215 191 
16 -89 417 255 218 197 
17 -89 417 255 220 199 
18 -89 417 253 208 189 
18 -89 417 247 202 183 
8 -89 423 159 127 104 
9 -89 422 160 128 105 
10 -89 422 182 141 113 
10 -89 421 205 164 136 
11 -88 420 230 184 151 
12 -88 419 243 197 164 
12 -88 418 251 200 173 
13 -88 418 254 203 176 
14 -88 418 252 208 181 
14 -88 417 255 211 184 
15 -88 417 253 216 190 
16 -88 417 253 216 190 
16 -88 417 251 215 189 
17 -88 417 252 216 190 
18 -88 417 255 218 191 
18 -88 417 244 207 180 
19 -88 417 237 195 170 
8 -88 423 166 130 104 
9 -88 422 183 147 121 
10 -88 421 212 168 139 
10 -88 420 229 185 156 
11 -87 418 244 195 163 
12 -87 417 251 202 170 
12 -87 417 252 202 175 
13 -87 417 255 205 178 
14 -87 417 255 211 184 
14 -87 417 255 215 188 
15 -87 417 255 218 191 
16 -87 417 253 216 189 
16 -87 417 250 215 187 
17 -87 417 250 215 187 
18 -87 417 255 216 187 
18 -87 417 255 218 189 
19 -87 417 240 196 169 
20 -87 417 220 176 149 
20 -87 417 157 112 93 
7 -88 423 161 125 103 
8 -88 422 173 137 115 
8 -87 421 199 155 128 
9 -87 420 220 176 149 
10 -87 419 236 189 159 
10 -87 418 242 195 165 
11 -86 417 249 200 168 
12 -86 417 255 207 175 
12 -86 417 254 208 182 
13 -86 417 255 210 184 
14 -86 416 255 214 189 
14 -86 417 255 216 191 
15 -86 417 255 218 191 
16 -86 417 253 216 189 
16 -86 417 251 214 185 
17 -86 417 250 213 184 
18 -86 417 255 215 186 
18 -86 417 255 214 185 
19 -86 417 248 201 175 
20 -86 417 214 167 141 
20 -86 417 162 114 94 
5 -87 423 160 133 116 
6 -87 423 163 131 110 
6 -87 422 163 131 110 
7 -87 422 181 139 114 
8 -86 420 206 164 139 
8 -86 420 232 185 155 
9 -86 419 240 193 163 
10 -86 418 243 197 164 
10 -86 417 246 200 167 
11 -86 416 252 206 173 
12 -86 416 255 212 179 
12 -86 416 254 212 187 
13 -86 416 254 212 187 
14 -86 416 252 215 188 
14 -86 416 254 217 190 
15 -86 417 254 217 190 
16 -86 417 253 216 189 
16 -86 417 252 213 184 
17 -86 417 251 212 183 
18 -86 417 255 209 179 
18 -86 417 250 203 173 
19 -86 417 255 206 179 
20 -86 417 234 183 156 
20 -86 417 184 132 110 
21 -86 418 151 99 77 
22 -86 418 147 96 77 
4 -86 421 159 128 110 
5 -86 422 155 124 106 
6 -86 421 173 135 112 
6 -86 421 197 159 136 
7 -86 420 220 174 148 
8 -86 419 235 189 163 
8 -85 418 245 198 168 
9 -85 418 244 197 167 
10 -85 417 248 203 172 
10 -85 417 255 210 179 
11 -85 416 255 214 182 
12 -85 416 255 214 182 
12 -85 416 253 216 190 
13 -85 416 252 215 189 
14 -85 416 251 215 189 
14 -85 416 252 216 190 
15 -85 416 254 217 191 
16 -85 416 253 216 190 
16 -85 416 253 212 184 
17 -85 417 250 209 181 
18 -85 417 255 209 179 
18 -85 417 254 205 175 
19 -85 417 250 196 168 
20 -85 417 246 192 164 
20 -85 417 213 161 137 
21 -85 418 167 115 91 
22 -85 418 164 113 92 
4 -85 421 158 132 109 
4 -85 421 169 133 111 
5 -85 421 181 145 123 
6 -85 420 211 167 142 
6 -85 420 236 192 167 
7 -85 419 243 193 166 
8 -85 419 249 199 172 
8 -85 418 248 201 173 
9 -84 417 250 203 175 
10 -84 417 254 213 183 
10 -84 417 255 217 187 
11 -84 416 254 218 186 
12 -84 416 253 217 185 
12 -84 416 255 218 191 
13 -84 416 253 216 189 
14 -84 416 253 216 190 
14 -84 416 253 216 190 
15 -84 416 255 215 190 
16 -84 416 254 214 189 
16 -84 416 255 210 181 
17 -84 417 252 207 178 
18 -84 417 252 201 170 
18 -84 417 249 198 167 
19 -84 417 239 184 154 
20 -84 417 232 177 147 
21 -85 418 217 163 137 
21 -85 418 174 120 94 
22 -85 419 153 103 80 
23 -85 420 158 108 85 
23 -85 421 160 121 104 
3 -84 420 162 130 105 
4 -84 420 166 134 109 
4 -84 420 194 150 123 
5 -84 420 219 175 148 
6 -84 419 240 189 160 
6 -84 419 247 196 167 
7 -84 418 246 192 164 
8 -84 418 252 198 170 
8 -84 417 253 206 180 
9 -84 417 255 211 185 
10 -84 417 255 218 192 
10 -84 417 255 219 193 
11 -84 416 255 219 190 
12 -84 416 255 222 193 
12 -84 416 255 219 190 
13 -84 416 255 217 188 
14 -84 416 253 216 190 
14 -84 416 253 216 190 
15 -84 416 255 213 189 
16 -84 417 253 211 187 
16 -84 417 252 205 177 
17 -84 417 247 200 172 
18 -84 417 252 197 166 
18 -84 417 240 185 154 
19 -84 417 235 178 148 
20 -84 418 226 169 139 
21 -84 418 214 160 134 
21 -84 419 177 123 97 
22 -84 419 142 94 71 
23 -85 422 159 126 109 
2 -84 421 160 133 106 
2 -84 420 157 130 103 
3 -84 420 173 138 110 
4 -84 419 197 162 134 
4 -84 419 232 183 153 
5 -84 419 246 197 167 
6 -83 418 252 195 165 
6 -83 418 252 195 165 
7 -83 417 252 196 169 
8 -83 417 255 203 176 
8 -83 416 255 211 187 
9 -83 416 255 215 191 
10 -83 416 255 220 194 
10 -83 416 255 221 195 
11 -83 416 255 222 194 
12 -83 415 255 222 194 
12 -83 415 255 219 188 
13 -83 416 255 216 185 
14 -83 416 255 215 189 
14 -83 416 255 215 189 
15 -83 416 255 213 188 
16 -83 416 253 209 184 
16 -83 416 249 200 170 
17 -83 417 241 192 162 
18 -83 417 243 189 155 
18 -83 417 235 181 147 
19 -83 418 230 174 141 
20 -83 418 218 162 129 
21 -84 419 202 148 120 
21 -84 419 180 126 98 
22 -84 420 161 113 90 
1 -83 421 152 126 109 
2 -83 420 172 128 101 
2 -83 419 189 145 118 
3 -83 419 210 163 133 
4 -83 418 227 180 150 
4 -83 418 244 195 163 
5 -83 418 248 199 167 
6 -82 417 245 198 168 
6 -82 417 247 200 170 
7 -82 416 251 206 177 
8 -82 416 255 210 181 
8 -82 416 255 214 185 
9 -82 415 255 214 185 
10 -82 415 255 215 190 
10 -82 415 255 215 190 
11 -82 415 252 217 198 
12 -82 415 254 219 200 
12 -82 415 255 220 195 
13 -82 415 255 217 192 
14 -82 416 255 217 190 
14 -82 416 255 216 189 
15 -82 416 255 209 181 
16 -82 416 249 202 174 
16 -82 416 244 193 162 
17 -82 417 235 184 153 
18 -82 417 233 177 142 
18 -82 417 224 168 133 
19 -82 417 219 163 126 
20 -83 418 208 152 115 
21 -83 419 180 135 104 
21 -83 419 170 125 94 
1 -82 420 165 136 118 
2 -82 419 197 151 125 
2 -82 417 215 169 143 
3 -82 417 230 184 151 
4 -82 417 238 192 159 
4 -82 417 248 199 166 
5 -82 417 252 203 170 
6 -82 416 249 203 170 
6 -82 416 252 206 173 
7 -82 416 254 209 180 
8 -81 415 255 212 183 
8 -81 415 255 213 186 
9 -81 415 255 214 187 
10 -81 415 255 215 190 
10 -81 415 255 215 190 
11 -81 415 252 217 195 
12 -81 415 253 218 196 
12 -81 415 255 217 192 
13 -81 415 255 217 192 
14 -82 416 255 215 190 
14 -82 416 252 208 183 
15 -82 416 248 198 171 
16 -82 416 244 194 167 
16 -82 417 240 185 154 
17 -82 417 228 173 142 
18 -82 417 225 166 132 
19 -82 418 219 160 126 
19 -82 418 207 153 117 
20 -82 418 190 136 100 
-1 -82 420 151 124 113 
-1 -82 420 153 126 115 
0 -82 419 179 143 121 
1 -82 419 201 165 143 
2 -81 417 224 177 149 
2 -81 417 237 190 162 
3 -81 416 245 196 164 
4 -81 416 245 196 164 
4 -81 416 250 201 168 
5 -81 416 255 206 173 
6 -81 415 254 207 177 
6 -81 415 255 209 179 
7 -81 415 255 211 185 
8 -81 415 255 212 186 
8 -81 415 255 213 188 
9 -81 415 255 213 188 
10 -81 415 255 215 190 
10 -81 415 255 215 190 
11 -81 415 252 216 192 
12 -81 415 253 217 193 
12 -81 415 255 214 192 
13 -81 415 255 214 192 
14 -81 416 255 209 183 
14 -81 416 247 200 174 
15 -81 416 245 192 161 
16 -81 417 240 187 156 
16 -81 417 235 176 144 
17 -81 417 224 165 133 
18 -81 418 216 157 123 
19 -81 418 209 150 116 
19 -81 419 192 139 107 
-1 -81 419 186 156 145 
-1 -81 420 187 157 146 
0 -81 419 219 175 150 
1 -80 417 229 185 160 
2 -80 416 238 189 159 
2 -80 416 245 196 166 
3 -80 415 246 197 167 
4 -80 415 246 197 167 
4 -80 415 253 204 174 
5 -80 415 255 209 179 
6 -80 415 255 211 182 
6 -80 415 255 211 182 
7 -80 415 255 213 186 
8 -80 414 255 213 186 
8 -80 414 255 213 188 
9 -80 414 255 213 188 
10 -80 415 254 214 189 
10 -80 415 253 213 188 
11 -80 415 251 213 190 
12 -80 415 253 215 192 
12 -80 415 254 212 188 
13 -80 415 248 206 182 
14 -80 415 249 199 172 
14 -80 416 245 195 168 
15 -80 416 243 186 156 
16 -80 417 234 177 147 
16 -80 417 228 168 134 
17 -80 417 220 160 126 
18 -81 418 210 151 119 
19 -81 419 196 137 105 
19 -81 419 175 128 100 
-2 -80 418 223 199 197 
-1 -80 418 228 192 178 
-1 -80 418 227 191 177 
0 -80 417 247 200 174 
1 -80 416 246 199 173 
2 -80 416 244 195 165 
2 -80 416 246 197 167 
3 -79 415 247 200 174 
4 -79 415 252 205 179 
4 -79 415 255 211 187 
5 -79 414 255 213 189 
6 -79 414 255 213 188 
6 -79 414 255 213 188 
7 -79 414 255 213 188 
8 -79 414 254 212 187 
8 -79 414 254 213 185 
9 -79 414 255 214 186 
10 -79 414 253 213 188 
10 -79 415 252 212 187 
11 -79 415 253 211 189 
12 -79 415 253 211 189 
12 -79 415 251 205 179 
13 -79 415 243 197 171 
14 -79 415 243 192 161 
14 -80 416 240 189 158 
15 -80 417 238 179 147 
16 -80 417 229 170 138 
16 -80 418 219 159 125 
17 -80 418 209 149 115 
18 -80 419 195 140 109 
-2 -79 416 211 180 175 
-1 -79 416 234 191 174 
-1 -79 416 239 196 179 
0 -79 415 247 201 177 
1 -79 415 248 202 178 
1 -79 415 248 201 171 
2 -79 415 250 203 173 
3 -79 415 254 208 184 
4 -79 414 255 212 188 
4 -79 415 255 215 193 
5 -79 414 255 214 192 
6 -79 414 255 213 191 
6 -79 414 255 214 192 
7 -79 414 254 212 187 
8 -79 414 253 211 186 
8 -79 414 254 213 185 
9 -79 414 254 213 185 
10 -79 414 255 212 187 
10 -79 414 254 210 185 
11 -79 415 253 207 183 
12 -79 415 251 205 181 
12 -79 415 246 197 165 
13 -79 415 242 193 161 
14 -79 415 240 187 155 
14 -79 416 233 180 148 
15 -79 417 227 171 136 
16 -79 417 221 165 130 
16 -79 418 208 152 119 
17 -79 419 192 136 103 
18 -80 420 176 129 101 
-4 -78 417 209 189 188 
-3 -78 416 202 182 181 
-3 -78 415 224 184 172 
-2 -78 415 233 193 181 
-1 -78 415 245 199 176 
-1 -78 415 246 200 177 
0 -78 415 248 206 182 
1 -78 415 252 210 186 
1 -78 414 254 207 181 
2 -78 414 255 209 183 
3 -78 414 255 213 189 
4 -78 414 255 214 190 
4 -78 414 255 214 192 
5 -78 414 255 214 192 
6 -78 414 255 214 192 
6 -78 414 255 214 192 
7 -78 414 253 211 187 
8 -78 414 252 210 186 
8 -78 414 255 210 187 
9 -78 414 255 210 187 
10 -78 414 255 209 183 
10 -78 414 253 207 181 
11 -78 415 252 201 170 
12 -78 415 247 196 165 
12 -78 415 241 188 154 
13 -78 415 237 184 150 
14 -78 416 231 178 144 
14 -78 416 223 170 136 
15 -78 417 215 161 127 
16 -78 417 208 154 120 
16 -79 418 192 141 110 
17 -79 419 177 126 95 
-4 -78 416 255 242 237 
-3 -77 415 232 211 206 
-3 -77 414 248 203 182 
-2 -77 414 252 207 186 
-1 -77 414 254 204 177 
-1 -77 414 255 206 179 
0 -77 414 255 218 191 
1 -77 414 254 217 190 
1 -77 414 255 210 186 
2 -77 414 255 213 189 
3 -77 413 255 214 190 
4 -77 413 254 212 188 
4 -77 414 255 216 191 
5 -77 414 255 218 193 
6 -77 414 255 216 192 
6 -77 414 255 213 189 
7 -77 414 252 210 188 
8 -77 414 252 210 188 
8 -77 414 254 209 188 
9 -77 414 254 209 188 
10 -77 414 255 206 179 
10 -77 414 253 203 176 
11 -77 415 251 197 161 
12 -77 415 245 191 155 
12 -77 415 234 182 143 
13 -77 415 226 174 135 
14 -78 416 218 168 131 
14 -78 417 213 163 126 
15 -78 417 205 155 122 
16 -78 418 193 143 110 
-5 -77 417 255 250 252 
-5 -77 416 255 249 251 
-4 -77 415 250 221 217 
-3 -77 414 238 209 205 
-3 -77 414 248 203 184 
-2 -76 413 248 203 184 
-1 -77 414 253 205 182 
-1 -76 413 255 209 186 
0 -76 413 255 210 189 
1 -77 414 255 211 190 
1 -76 413 255 214 191 
2 -76 413 255 212 189 
3 -76 413 254 212 188 
4 -76 413 253 211 187 
4 -77 414 252 212 187 
5 -76 413 252 212 187 
6 -77 414 252 212 187 
6 -77 414 253 213 188 
7 -77 414 255 210 191 
8 -77 414 255 214 195 
8 -77 414 251 204 184 
9 -77 414 255 209 189 
10 -77 414 255 205 176 
10 -77 414 249 198 169 
11 -77 415 245 192 150 
12 -77 415 236 183 141 
12 -77 416 232 173 141 
13 -77 416 223 164 132 
14 -77 416 219 155 120 
14 -77 417 212 148 113 
15 -77 418 199 145 107 
-6 -76 416 255 255 250 
-5 -76 416 255 241 234 
-5 -76 415 233 218 211 
-4 -76 415 238 204 192 
-3 -76 414 236 202 190 
-3 -76 413 250 205 184 
-2 -76 413 254 209 188 
-1 -76 413 255 212 188 
-1 -76 413 255 213 189 
0 -76 413 255 214 190 
1 -76 413 255 215 191 
1 -76 413 255 213 192 
2 -76 413 255 212 191 
3 -76 413 254 212 188 
4 -76 413 254 212 188 
4 -76 414 253 213 187 
5 -76 413 252 212 186 
6 -76 413 252 211 183 
6 -76 414 252 211 183 
7 -76 414 255 211 186 
8 -76 414 255 212 187 
8 -76 414 255 208 185 
9 -76 414 252 204 181 
10 -76 414 246 193 162 
10 -76 414 241 188 157 
11 -76 415 239 184 145 
12 -76 415 231 176 137 
12 -76 416 222 166 131 
13 -76 416 215 159 124 
14 -76 417 215 151 115 
14 -77 418 202 138 102 
15 -77 418 182 133 100 
-6 -76 416 247 232 225 
-5 -75 415 241 214 197 
-5 -75 414 236 209 192 
-4 -75 414 242 206 184 
-3 -75 413 245 209 187 
-3 -75 413 255 210 187 
-2 -75 413 255 212 189 
-1 -75 413 255 212 189 
-1 -75 412 255 211 188 
0 -75 413 253 213 187 
1 -75 413 253 213 187 
1 -75 413 255 214 195 
2 -75 413 254 211 192 
3 -75 413 253 211 189 
4 -75 413 253 211 189 
4 -75 413 254 212 187 
5 -75 413 253 211 186 
6 -75 413 254 210 181 
6 -75 414 253 209 180 
7 -75 414 255 209 179 
8 -75 414 252 205 175 
8 -75 414 255 206 177 
9 -75 414 252 201 172 
10 -75 414 250 195 164 
10 -75 415 243 188 157 
11 -75 415 236 178 141 
12 -76 416 227 169 132 
12 -76 416 219 163 126 
13 -76 416 208 152 115 
14 -76 417 200 137 104 
14 -76 418 193 130 97 
-7 -75 416 244 232 234 
-7 -75 415 240 213 206 
-6 -75 414 233 206 199 
-5 -75 414 242 207 187 
-5 -75 414 244 209 189 
-4 -74 413 248 211 185 
-3 -74 413 251 214 188 
-3 -74 413 254 213 191 
-2 -74 413 254 213 191 
-1 -74 413 254 213 191 
-1 -74 412 254 213 191 
0 -74 412 254 214 188 
1 -74 413 253 213 187 
1 -74 413 255 212 193 
2 -74 413 254 211 192 
3 -74 413 252 210 188 
4 -74 413 252 210 188 
4 -74 413 255 211 186 
5 -74 413 255 211 186 
6 -74 413 255 208 180 
6 -75 414 254 207 179 
7 -75 414 255 209 179 
8 -75 414 254 205 175 
8 -75 414 251 198 167 
9 -75 415 242 189 158 
10 -75 415 244 188 155 
10 -75 415 232 176 143 
11 -75 415 225 166 132 
12 -75 416 220 161 127 
12 -75 416 214 154 118 
13 -75 417 207 147 111 
-9 -74 417 204 189 186 
-9 -74 416 251 236 233 
-8 -74 416 255 234 233 
-7 -74 415 240 214 213 
-7 -74 414 239 202 193 
-6 -74 414 243 206 197 
-5 -74 413 253 212 190 
-5 -74 413 248 207 185 
-4 -74 413 250 210 185 
-3 -73 412 253 213 188 
-3 -73 412 252 214 193 
-2 -73 412 252 214 193 
-1 -73 412 255 214 192 
-1 -73 412 255 215 193 
0 -73 412 255 216 189 
1 -73 412 255 213 186 
1 -73 412 252 212 187 
2 -73 412 252 212 187 
3 -73 412 255 210 187 
4 -74 413 255 210 187 
4 -74 413 255 210 186 
5 -74 413 255 209 185 
6 -74 413 255 206 181 
6 -74 414 254 204 179 
7 -74 414 253 199 171 
8 -74 415 252 198 170 
8 -74 415 249 192 162 
9 -74 415 239 182 152 
10 -74 415 236 177 145 
10 -74 415 225 166 134 
11 -74 416 220 161 129 
12 -74 416 210 151 119 
12 -74 416 205 146 116 
-9 -74 416 217 185 172 
-9 -73 415 236 204 191 
-8 -73 415 239 201 190 
-7 -73 414 237 199 188 
-7 -73 413 248 202 187 
-6 -73 413 247 201 186 
-5 -73 413 250 205 184 
-5 -73 412 255 211 190 
-4 -73 412 252 210 186 
-3 -73 412 254 212 188 
-3 -73 412 255 215 193 
-2 -73 412 255 215 193 
-1 -73 412 255 214 190 
-1 -73 412 255 214 190 
0 -73 412 255 212 186 
1 -73 412 255 211 185 
1 -73 412 253 214 183 
2 -73 412 252 213 182 
3 -73 412 255 211 182 
4 -73 413 255 211 182 
4 -73 413 255 209 183 
5 -73 413 255 208 182 
6 -73 413 255 203 179 
6 -73 413 252 200 176 
7 -73 414 253 198 168 
8 -73 414 249 194 164 
8 -73 414 244 188 155 
9 -73 414 235 179 146 
10 -73 415 227 170 140 
10 -73 415 221 164 134 
11 -74 416 212 156 129 
12 -74 416 195 139 112 
12 -74 417 187 136 119 
-10 -73 417 211 187 185 
-9 -73 416 238 193 172 
-9 -73 415 238 193 172 
-8 -73 415 246 199 179 
-7 -72 414 253 206 186 
-7 -72 413 253 205 185 
-6 -72 412 252 204 184 
-5 -72 412 255 207 185 
-5 -72 412 255 209 187 
-4 -72 412 254 210 185 
-3 -72 412 255 212 187 
-3 -72 412 255 216 190 
-2 -72 412 255 215 189 
-1 -72 412 254 214 189 
-1 -72 411 254 214 189 
0 -72 412 255 211 190 
1 -72 412 255 213 192 
1 -72 412 253 214 183 
2 -72 412 253 214 183 
3 -72 413 255 211 182 
4 -72 413 254 210 181 
4 -72 413 255 208 180 
5 -72 413 253 206 178 
6 -72 413 253 202 175 
6 -72 414 250 199 172 
7 -72 414 251 198 167 
8 -72 414 242 189 158 
8 -73 415 237 182 151 
9 -73 415 229 174 143 
10 -73 415 222 166 141 
10 -73 416 213 157 132 
11 -73 416 195 142 124 
-11 -72 416 197 181 181 
-11 -72 415 222 191 186 
-10 -72 415 232 201 196 
-9 -72 415 247 197 172 
-9 -72 414 247 197 172 
-8 -72 414 249 202 176 
-7 -72 413 250 203 177 
-7 -72 413 253 205 182 
-6 -71 412 255 207 184 
-5 -71 412 255 207 185 
-5 -71 412 255 207 185 
-4 -71 412 254 210 185 
-3 -71 412 255 212 187 
-3 -71 412 255 216 190 
-2 -71 412 255 215 189 
-1 -71 412 254 216 193 
-1 -71 412 254 216 193 
0 -71 411 251 212 195 
1 -71 412 254 215 198 
1 -71 412 251 214 187 
2 -71 412 251 214 187 
3 -71 412 253 212 184 
4 -72 413 252 211 183 
4 -72 413 254 207 181 
5 -72 413 251 204 178 
6 -72 413 250 199 172 
6 -72 414 246 195 168 
7 -72 414 243 190 159 
8 -72 414 237 184 153 
8 -72 415 230 177 146 
9 -72 415 221 168 137 
10 -72 416 214 162 141 
10 -72 416 202 150 129 
-12 -71 415 210 173 157 
-11 -71 415 219 182 166 
-11 -71 414 244 192 178 
-10 -71 414 254 202 188 
-9 -71 414 242 204 181 
-9 -71 413 243 205 182 
-8 -71 413 247 206 184 
-7 -71 413 249 208 186 
-7 -71 412 251 211 186 
-6 -71 412 252 212 187 
-5 -71 411 254 213 191 
-5 -71 411 254 213 191 
-4 -71 411 255 215 190 
-3 -71 411 255 215 190 
-3 -71 411 255 214 189 
-2 -71 411 255 214 189 
-1 -71 412 255 213 188 
-1 -71 412 255 213 188 
0 -71 411 254 212 188 
1 -71 411 254 212 188 
1 -71 412 255 215 186 
2 -71 412 255 211 182 
3 -71 412 255 213 191 
4 -71 413 252 210 188 
4 -71 413 248 208 172 
5 -71 413 246 206 170 
6 -71 413 249 192 165 
6 -71 414 246 189 162 
7 -71 414 235 179 152 
8 -71 414 224 168 141 
8 -71 415 217 170 128 
-12 -70 414 223 179 166 
-11 -70 414 234 190 177 
-11 -70 414 249 201 181 
-10 -70 414 255 208 188 
-9 -70 413 249 208 186 
-9 -70 413 249 208 186 
-8 -70 413 251 209 185 
-7 -70 412 252 210 186 
-7 -70 412 253 211 187 
-6 -70 411 254 212 188 
-5 -70 411 254 214 189 
-5 -70 411 255 215 190 
-4 -70 411 255 214 190 
-3 -70 411 255 213 189 
-3 -70 411 255 213 188 
-2 -70 411 255 213 188 
-1 -70 412 255 213 188 
-1 -70 412 255 213 188 
0 -70 412 254 212 188 
1 -70 411 253 211 187 
1 -70 412 255 213 186 
2 -70 412 255 212 185 
3 -70 412 254 210 183 
4 -70 413 248 204 177 
4 -70 413 250 200 173 
5 -70 413 249 199 172 
6 -70 414 243 191 167 
6 -70 414 237 185 161 
7 -70 414 222 168 140 
8 -71 415 220 166 138 
8 -71 415 215 161 137 
-13 -70 415 204 171 152 
-13 -70 415 210 177 158 
-12 -70 414 238 186 172 
-11 -70 414 250 198 184 
-11 -70 413 252 207 184 
-10 -70 413 255 211 188 
-9 -70 413 254 212 188 
-9 -69 412 254 212 188 
-8 -69 412 254 212 187 
-7 -69 412 254 212 187 
-7 -69 412 255 213 188 
-6 -69 411 255 213 188 
-5 -69 411 255 213 189 
-5 -69 411 255 213 189 
-4 -69 411 255 212 187 
-3 -69 411 255 212 187 
-3 -69 411 255 212 187 
-2 -69 411 255 213 188 
-1 -69 411 255 213 188 
-1 -69 412 255 212 187 
0 -69 412 255 211 186 
1 -69 412 253 209 184 
1 -69 412 255 209 186 
2 -69 412 255 210 187 
3 -70 413 253 207 174 
4 -70 413 247 201 168 
4 -70 413 251 193 171 
5 -70 413 248 190 168 
6 -70 414 235 185 158 
6 -70 415 228 178 151 
7 -70 415 223 167 142 
-14 -69 416 201 174 163 
-13 -69 415 224 178 152 
-13 -69 414 231 185 159 
-12 -69 414 244 196 176 
-11 -69 414 252 204 184 
-11 -69 413 253 209 184 
-10 -69 413 255 212 187 
-9 -69 413 253 211 186 
-9 -69 412 254 212 187 
-8 -69 412 254 212 187 
-7 -69 412 254 212 187 
-7 -69 412 255 212 187 
-6 -69 411 255 212 187 
-5 -68 410 255 212 187 
-5 -69 411 255 212 187 
-4 -69 411 254 210 185 
-3 -69 411 255 211 186 
-3 -69 411 255 213 188 
-2 -69 411 255 213 188 
-1 -69 411 255 210 186 
-1 -69 412 255 209 185 
0 -69 412 254 208 184 
1 -69 412 253 207 183 
1 -69 412 255 210 184 
2 -69 412 252 206 180 
3 -69 413 252 202 169 
4 -69 413 249 199 166 
4 -69 413 245 187 163 
5 -69 414 237 179 155 
6 -69 414 230 176 142 
6 -69 415 223 169 135 
-15 -69 417 185 179 179 
-15 -69 416 209 168 146 
-14 -69 415 220 179 157 
-13 -68 414 240 189 162 
-13 -68 413 247 196 169 
-12 -68 413 248 204 177 
-11 -68 413 253 209 182 
-11 -68 413 254 209 186 
-10 -68 413 255 212 189 
-9 -68 412 255 211 186 
-9 -68 412 255 211 186 
-8 -68 412 253 211 186 
-7 -68 412 253 211 186 
-7 -68 411 255 211 186 
-6 -68 411 255 211 186 
-5 -68 410 255 212 187 
-5 -68 410 255 212 187 
-4 -68 411 255 211 186 
-3 -68 411 255 211 186 
-3 -68 411 255 212 187 
-2 -68 411 255 211 186 
-1 -68 412 254 208 184 
-1 -68 412 253 207 183 
0 -68 412 253 207 183 
1 -68 412 254 208 184 
1 -68 412 253 208 179 
2 -68 412 245 200 171 
3 -68 413 247 192 162 
4 -68 413 244 189 159 
4 -68 413 232 182 149 
5 -68 414 228 178 145 
6 -69 415 218 160 122 
-16 -68 417 194 175 169 
-15 -68 416 194 175 169 
-15 -68 415 225 178 148 
-14 -68 414 235 188 158 
-13 -68 413 248 194 168 
-13 -68 413 252 198 172 
-12 -68 413 248 207 177 
-11 -68 413 252 211 181 
-11 -67 412 255 210 190 
-10 -67 412 255 212 192 
-9 -67 412 255 212 187 
-9 -67 412 255 212 187 
-8 -67 411 255 210 187 
-7 -67 411 255 210 187 
-7 -67 411 255 211 186 
-6 -67 411 255 211 186 
-5 -67 410 255 209 185 
-5 -67 410 255 209 185 
-4 -67 410 255 209 185 
-3 -67 410 255 209 185 
-3 -67 411 254 208 184 
-2 -67 411 254 208 184 
-1 -67 411 253 207 183 
-1 -67 412 252 206 182 
0 -67 412 252 206 182 
1 -67 412 252 206 182 
1 -67 412 249 200 170 
2 -68 413 243 194 164 
3 -68 413 243 188 158 
4 -68 413 236 181 151 
4 -68 413 225 177 139 
5 -68 414 223 175 137 
-17 -67 415 187 177 176 
-17 -67 415 187 177 176 
-16 -67 415 207 172 153 
-15 -67 414 213 178 159 
-15 -67 414 238 189 159 
-14 -67 413 245 196 166 
-13 -67 413 248 198 171 
-13 -67 412 252 202 175 
-12 -67 412 253 207 183 
-11 -67 412 255 210 186 
-11 -67 412 255 213 192 
-10 -67 412 255 213 192 
-9 -67 412 255 211 187 
-9 -67 411 255 211 187 
-8 -67 411 255 212 187 
-7 -67 411 255 211 186 
-7 -67 411 255 211 186 
-6 -67 411 254 210 185 
-5 -66 410 254 208 184 
-5 -66 410 254 208 184 
-4 -66 410 254 207 181 
-3 -66 410 253 206 180 
-3 -67 411 252 206 182 
-2 -67 411 252 206 182 
-1 -67 411 251 205 181 
-1 -67 411 249 203 179 
0 -67 412 248 201 175 
1 -67 412 247 200 174 
1 -67 413 248 194 166 
2 -67 413 244 190 162 
3 -67 413 238 185 153 
4 -67 414 230 177 145 
4 -67 414 221 171 136 
-17 -67 415 192 173 175 
-17 -67 416 194 175 177 
-16 -67 415 224 174 147 
-15 -66 413 238 188 161 
-15 -66 413 240 193 167 
-14 -66 413 248 201 175 
-13 -66 413 249 204 173 
-13 -66 412 254 209 178 
-12 -66 412 255 211 190 
-11 -66 412 255 211 190 
-11 -66 411 255 216 194 
-10 -66 411 255 213 191 
-9 -66 411 255 211 187 
-9 -66 411 255 211 187 
-8 -66 411 255 210 186 
-7 -66 410 255 209 185 
-7 -66 410 254 208 184 
-6 -66 411 254 208 184 
-5 -66 410 254 207 181 
-5 -66 410 254 207 181 
-4 -66 410 252 205 179 
-3 -66 410 252 205 179 
-3 -66 411 251 204 178 
-2 -66 411 250 203 177 
-1 -66 411 248 201 175 
-1 -66 411 246 199 173 
0 -66 412 246 196 169 
1 -66 412 245 195 168 
1 -66 413 245 185 161 
2 -66 413 241 181 157 
3 -66 413 230 177 143 
4 -67 415 220 165 135 
-18 -66 416 154 159 165 
-17 -66 416 211 167 154 
-17 -66 415 216 172 159 
-16 -66 415 235 184 157 
-15 -66 413 245 194 167 
-15 -66 413 241 199 175 
-14 -66 413 246 204 180 
-13 -65 412 255 206 181 
-13 -65 412 255 210 185 
-12 -65 412 252 215 189 
-11 -65 412 252 215 189 
-11 -65 411 255 212 189 
-10 -65 411 255 211 188 
-9 -65 411 251 212 183 
-9 -65 411 250 211 182 
-8 -65 411 252 210 185 
-7 -65 410 253 211 186 
-7 -65 410 255 209 183 
-6 -65 410 254 208 182 
-5 -65 410 255 206 179 
-5 -65 410 255 204 177 
-4 -65 410 255 204 178 
-3 -65 411 255 204 178 
-3 -65 411 253 201 177 
-2 -65 411 252 200 176 
-1 -65 411 251 200 171 
-1 -65 412 247 196 167 
0 -65 412 243 193 158 
1 -65 412 242 192 157 
1 -66 413 230 179 148 
2 -66 413 228 177 146 
3 -66 414 227 168 138 
-18 -65 416 171 161 162 
-17 -65 415 219 170 153 
-17 -65 414 231 182 165 
-16 -65 414 245 194 167 
-15 -65 413 251 200 173 
-15 -65 413 246 202 177 
-14 -65 413 251 207 182 
-13 -65 412 255 210 181 
-13 -65 412 255 213 184 
-12 -65 411 252 216 190 
-11 -65 411 251 215 189 
-11 -65 411 255 213 188 
-10 -65 411 253 211 186 
-9 -65 411 255 211 184 
-9 -65 411 254 210 183 
-8 -65 411 254 208 184 
-7 -64 410 254 208 184 
-7 -64 410 255 206 181 
-6 -65 411 254 204 179 
-5 -64 410 255 203 177 
-5 -64 410 255 202 176 
-4 -64 410 255 206 179 
-3 -64 410 255 204 177 
-3 -65 411 255 200 175 
-2 -65 411 251 195 170 
-1 -65 411 244 190 162 
-1 -65 411 244 190 162 
0 -65 412 243 190 158 
1 -65 412 235 182 150 
1 -65 413 227 174 142 
2 -65 414 221 168 136 
-18 -65 416 198 165 156 
-17 -65 415 229 177 153 
-17 -64 414 243 191 167 
-16 -64 413 252 198 174 
-15 -64 412 255 202 178 
-15 -64 412 252 205 177 
-14 -64 412 255 209 181 
-13 -64 412 254 213 183 
-13 -64 411 255 214 184 
-12 -64 411 251 215 189 
-11 -64 410 251 215 189 
-11 -64 410 254 215 184 
-10 -64 410 252 213 182 
-9 -64 410 254 208 182 
-9 -64 410 253 207 181 
-8 -64 410 254 206 183 
-7 -64 410 254 206 183 
-7 -64 410 255 203 179 
-6 -64 410 253 201 177 
-5 -64 410 255 200 173 
-5 -64 410 255 199 172 
-4 -64 410 255 199 170 
-3 -64 411 255 201 172 
-3 -64 411 250 195 165 
-2 -64 411 245 190 160 
-1 -64 411 244 189 159 
-1 -64 411 241 186 156 
0 -64 412 236 183 152 
1 -64 413 232 179 148 
1 -64 413 229 172 145 
-18 -64 415 222 175 155 
-17 -64 414 241 188 157 
-17 -64 413 250 197 166 
-16 -64 413 254 202 180 
-15 -63 412 255 204 182 
-15 -63 412 253 203 176 
-14 -63 412 255 208 181 
-13 -63 411 253 214 183 
-13 -63 411 253 214 183 
-12 -63 411 251 213 190 
-11 -63 410 251 213 190 
-11 -63 410 254 213 183 
-10 -63 410 252 211 181 
-9 -63 410 250 204 178 
-9 -63 410 251 205 179 
-8 -63 410 253 206 180 
-7 -63 410 252 205 179 
-7 -63 410 254 202 178 
-6 -63 410 252 200 176 
-5 -63 410 255 199 172 
-5 -63 410 255 199 172 
-4 -63 410 255 199 169 
-3 -63 411 248 191 161 
-3 -63 411 244 190 156 
-2 -63 411 243 189 155 
-1 -63 411 236 183 152 
-1 -63 412 234 181 150 
0 -63 412 233 179 151 
1 -64 413 226 172 144 
1 -64 413 221 162 144 
-18 -63 414 236 182 156 
-17 -63 414 247 194 163 
-17 -63 413 251 198 167 
-16 -63 412 255 206 185 
-15 -63 412 255 206 185 
-15 -63 412 254 203 176 
-14 -63 412 255 208 181 
-13 -63 411 254 214 188 
-13 -63 411 253 213 187 
-12 -63 411 252 209 190 
-11 -62 410 252 209 190 
-11 -62 410 255 210 184 
-10 -62 410 254 208 182 
-9 -62 410 251 204 176 
-9 -62 410 251 204 176 
-8 -62 410 254 203 176 
-7 -62 410 253 202 175 
-7 -62 410 255 201 175 
-6 -62 410 254 200 174 
-5 -62 410 254 199 169 
-5 -63 411 254 199 169 
-4 -63 411 252 198 162 
-3 -63 411 241 187 151 
-3 -63 411 238 184 148 
-2 -63 411 235 181 145 
-1 -63 412 230 177 146 
-1 -63 412 232 179 148 
0 -63 413 228 176 154 
-19 -62 414 188 177 173 
-19 -62 414 233 180 149 
-18 -62 413 244 191 160 
-17 -62 413 251 195 168 
-17 -62 413 254 198 171 
-16 -62 412 255 208 187 
-15 -62 412 255 204 183 
-15 -62 412 255 203 177 
-14 -62 412 255 208 182 
-13 -62 411 254 212 188 
-13 -62 411 253 211 187 
-12 -62 411 253 208 187 
-11 -62 410 253 208 187 
-11 -62 410 255 208 185 
-10 -62 410 254 206 183 
-9 -62 410 254 203 174 
-9 -62 410 254 203 174 
-8 -62 410 255 201 175 
-7 -62 410 254 200 174 
-7 -62 411 255 198 174 
-6 -62 411 255 197 173 
-5 -62 411 252 195 166 
-5 -62 411 250 193 164 
-4 -62 412 243 187 152 
-3 -62 412 240 184 149 
-3 -62 412 236 182 146 
-2 -62 412 228 174 138 
-1 -62 412 227 176 149 
-1 -62 413 230 179 152 
-19 -62 414 189 164 157 
-19 -62 414 232 177 147 
-18 -62 413 249 194 164 
-17 -62 413 255 198 174 
-17 -61 412 255 199 175 
-16 -61 412 255 204 183 
-15 -61 412 255 203 182 
-15 -61 412 255 204 176 
-14 -61 412 255 208 180 
-13 -61 411 255 210 187 
-13 -61 411 255 209 186 
-12 -61 411 252 207 184 
-11 -61 411 252 207 184 
-11 -61 410 255 207 185 
-10 -61 410 253 205 183 
-9 -61 410 255 201 173 
-9 -61 410 255 201 173 
-8 -61 410 254 198 173 
-7 -61 410 252 196 171 
-7 -61 410 252 194 170 
-6 -61 411 249 191 167 
-5 -61 411 246 189 162 
-5 -61 412 244 187 160 
-4 -61 412 239 185 149 
-3 -61 412 233 179 143 
-3 -62 413 236 184 147 
-2 -62 413 228 176 139 
-1 -62 413 220 170 147 
-1 -62 413 219 169 146 
-19 -61 414 168 131 122 
-19 -61 414 209 154 124 
-18 -61 413 240 185 155 
-17 -61 412 255 194 174 
-17 -61 412 255 196 176 
-16 -61 412 255 201 177 
-15 -61 412 255 206 182 
-15 -61 411 255 204 177 
-14 -61 412 255 206 179 
-13 -61 411 255 207 185 
-13 -61 411 254 206 184 
-12 -61 411 250 209 181 
-11 -61 411 250 209 181 
-11 -60 410 253 207 184 
-10 -60 410 251 205 182 
-9 -60 410 251 200 171 
-9 -60 410 252 201 172 
-8 -60 410 252 198 172 
-7 -61 411 248 194 168 
-7 -61 411 246 190 167 
-6 -61 411 242 186 163 
-5 -61 412 239 185 157 
-5 -61 412 239 185 157 
-4 -61 412 235 182 148 
-3 -61 412 230 177 143 
-3 -61 413 228 178 143 
-2 -61 413 220 170 135 
-18 -60 413 206 150 127 
-17 -60 412 235 179 152 
-17 -60 412 249 193 166 
-16 -60 412 252 201 170 
-15 -60 412 251 200 169 
-15 -60 411 255 206 176 
-14 -60 411 253 204 174 
-13 -60 411 255 206 182 
-13 -60 411 255 205 181 
-12 -60 411 255 206 182 
-11 -60 411 255 203 179 
-11 -60 411 255 203 182 
-10 -60 410 255 200 179 
-9 -60 411 249 196 165 
-9 -60 411 251 198 167 
-8 -60 411 252 196 163 
-7 -60 411 248 192 159 
-7 -60 411 242 185 155 
-6 -60 411 239 182 152 
-5 -60 412 237 181 154 
-5 -60 412 237 181 154 
-4 -60 413 230 170 144 
-3 -60 413 228 168 142 
-3 -60 413 226 166 142 
-2 -60 414 225 165 141 
-18 -60 413 196 140 117 
-16 -59 412 250 196 168 
-15 -59 412 252 198 170 
-15 -59 411 253 202 173 
-14 -59 411 251 200 171 
-13 -59 411 255 204 178 
-13 -59 411 255 203 177 
-12 -59 411 254 200 176 
-11 -59 411 254 200 176 
-11 -59 411 254 200 176 
-10 -59 411 254 200 176 
-9 -59 411 249 195 161 
-9 -59 411 245 191 157 
-8 -59 411 242 188 154 
-7 -59 411 239 185 151 
-7 -59 412 234 179 149 
-6 -59 412 233 178 148 
-5 -59 412 233 177 152 
-5 -60 413 231 175 150 
-4 -60 413 228 168 144 
-3 -60 413 220 160 136 
-3 -60 414 217 162 142 
-2 -60 414 214 159 139 
-16 -59 412 231 177 149 
-15 -59 411 248 194 166 
-15 -59 411 254 199 169 
-14 -59 411 250 195 165 
-13 -59 411 254 197 168 
-13 -59 411 255 198 169 
-12 -59 411 251 195 168 
-11 -59 411 251 195 168 
-11 -59 411 248 192 167 
-10 -59 411 250 194 169 
-9 -59 411 247 189 152 
-9 -59 411 244 186 149 
-8 -59 411 239 186 154 
-7 -59 411 234 181 149 
-7 -59 412 227 173 147 
-6 -59 412 226 172 146 
-5 -59 412 229 173 150 
-5 -59 413 227 171 148 
-4 -59 414 221 164 147 
-3 -59 414 218 161 144 
-3 -59 414 202 155 145 
-15 -58 411 227 171 144 
-15 -58 411 249 192 162 
-14 -58 411 252 195 165 
-13 -58 411 247 188 156 
-13 -58 411 249 190 158 
-12 -58 411 247 190 160 
-11 -58 411 246 189 159 
-11 -58 411 242 187 157 
-10 -58 411 245 190 160 
-9 -58 412 237 182 143 
-9 -58 412 239 184 145 
-8 -58 412 229 176 144 
-7 -58 412 221 168 136 
-7 -58 412 225 171 145 
-6 -58 413 225 171 145 
-5 -58 413 221 164 144 
-5 -58 413 219 162 142 
-4 -58 414 207 155 144 
-3 -59 415 194 163 161 
-15 -57 411 195 139 112 
-15 -57 411 229 168 139 
-14 -57 411 250 189 160 
-13 -57 412 245 185 151 
-13 -57 412 243 183 149 
-12 -57 412 241 182 150 
-11 -57 412 242 183 151 
-11 -57 412 240 184 151 
-10 -57 412 241 185 152 
-9 -57 412 231 175 138 
-9 -57 412 223 167 130 
-8 -57 412 222 167 136 
-7 -57 412 225 170 139 
-7 -58 413 221 165 140 
-6 -58 413 216 160 135 
-5 -58 414 214 158 143 
-5 -58 414 216 160 145 
-4 -58 414 194 155 150 
-15 -57 411 186 130 105 
-15 -57 411 197 136 107 
-14 -57 412 230 169 140 
-13 -57 412 241 181 147 
-13 -57 412 241 181 147 
-12 -57 412 236 177 143 
-11 -57 412 235 176 142 
-11 -57 413 238 179 145 
-10 -57 413 231 172 138 
-9 -57 413 223 170 136 
-9 -57 413 221 168 134 
-8 -57 413 222 167 137 
-7 -57 413 219 164 134 
-7 -57 413 214 157 137 
-6 -57 414 214 157 137 
-5 -57 414 205 157 147 
-5 -57 415 196 148 138 
-14 -56 412 195 134 106 
-13 -56 412 223 162 131 
-13 -56 412 236 175 144 
-12 -56 412 230 171 137 
-11 -56 412 228 169 135 
-11 -56 413 228 170 133 
-10 -56 413 220 162 125 
-9 -56 413 216 163 132 
-9 -56 413 217 164 133 
-8 -56 413 212 158 132 
-7 -56 413 212 158 132 
-7 -56 413 207 155 141 
-6 -56 414 197 145 131 
-5 -57 415 195 157 154 
-5 -57 415 224 186 183 
-13 -55 412 199 140 110 
-13 -55 412 224 165 135 
-12 -56 413 223 164 130 
-11 -56 413 220 161 127 
-11 -56 413 222 162 126 
-10 -56 413 218 158 122 
-9 -56 413 206 155 124 
-9 -56 413 204 153 122 
-8 -56 414 207 153 129 
-7 -56 414 204 150 126 
-7 -56 414 192 144 134 
-6 -56 415 208 160 150 
-13 -55 413 169 105 80 
-13 -55 413 208 144 119 
-12 -55 413 213 148 118 
-11 -55 413 217 152 122 
-11 -55 413 207 154 123 
-10 -55 413 206 153 122 
-9 -55 414 209 142 116 
-9 -55 414 208 141 115 
-8 -55 414 197 147 138 
-7 -55 414 192 142 133 
-7 -55 415 206 184 187 
-13 -54 413 142 86 61 
-13 -54 413 178 122 97 
-12 -54 414 197 136 105 
-11 -54 414 203 142 111 
-11 -54 414 199 146 115 
-10 -54 414 199 146 115 
-9 -54 414 196 137 131 
-9 -54 415 190 131 125 
-8 -54 415 185 145 146 
-13 -54 413 136 84 60 
-13 -54 414 142 90 66 
-12 -54 414 179 118 89 
-11 -54 414 191 130 101 
-11 -54 414 195 133 108 
-10 -54 414 193 131 106 
-9 -54 415 172 128 141 
-9 -54 415 223 179 192 
-12 -53 415 163 102 84 
-11 -53 415 178 117 99 
-11 -53 415 186 123 116 
-10 -53 415 185 122 115 
-12 -52 415 134 91 85 
-11 -53 416 150 107 101 
-11 -53 417 174 133 141 
-10 -53 416 201 160 168 
-12 -52 415 164 148 151 
