ply
format ascii 1.0
comment Created by CloudCompare v2.10.1 (Zephyrus)
comment Created 2020-05-06 7:44 PM
obj_info Generated by CloudCompare!
element vertex 410
property float x
property float y
property float z
property uchar red
property uchar green
property uchar blue
end_header
-22 -61 412 156 156 154 
-21 -61 414 156 153 144 
-21 -61 414 155 152 143 
-25 -60 411 165 152 144 
-25 -60 411 179 166 158 
-24 -60 411 211 174 165 
-23 -60 411 216 179 170 
-23 -60 411 229 183 168 
-22 -60 411 227 181 166 
-21 -60 412 231 185 169 
-21 -60 412 227 181 165 
-20 -60 412 215 160 139 
-19 -60 413 186 131 110 
-19 -60 413 179 123 100 
-26 -59 412 178 173 169 
-25 -59 411 214 190 180 
-25 -59 411 230 206 196 
-24 -59 410 244 202 188 
-23 -59 410 243 201 187 
-23 -59 410 253 207 191 
-22 -59 410 248 202 186 
-21 -59 410 246 200 184 
-21 -59 411 250 204 188 
-20 -59 411 253 198 177 
-19 -59 412 245 190 169 
-19 -60 413 221 165 142 
-27 -58 410 175 161 158 
-26 -59 411 228 203 198 
-25 -58 410 248 208 196 
-25 -58 410 252 212 200 
-24 -58 410 252 207 188 
-23 -58 409 251 206 187 
-23 -58 409 250 205 186 
-22 -58 409 249 204 185 
-21 -58 410 250 204 188 
-21 -58 410 251 205 189 
-20 -58 410 249 197 176 
-19 -59 411 255 205 184 
-19 -59 412 252 197 176 
-18 -59 412 237 182 161 
-27 -58 409 209 184 179 
-27 -58 410 237 200 192 
-26 -58 410 249 212 204 
-25 -58 410 255 209 195 
-25 -58 410 254 206 192 
-24 -58 409 252 206 183 
-23 -58 408 255 210 187 
-22 -58 408 248 206 184 
-22 -58 409 251 209 187 
-21 -58 409 252 209 192 
-21 -58 410 249 206 189 
-20 -58 410 254 206 186 
-19 -58 411 249 201 181 
-19 -58 412 252 201 180 
-18 -58 412 255 206 185 
-17 -58 412 232 180 158 
-17 -58 412 200 148 126 
-27 -57 409 227 192 186 
-27 -57 410 241 200 194 
-26 -57 410 241 200 194 
-25 -57 409 252 204 190 
-25 -57 409 254 206 192 
-24 -57 409 252 207 184 
-23 -57 408 255 210 187 
-22 -57 408 250 209 187 
-22 -57 408 251 210 188 
-21 -57 409 249 208 190 
-21 -57 409 251 210 192 
-20 -57 409 255 212 195 
-19 -57 410 255 212 195 
-19 -57 411 252 207 188 
-18 -57 411 250 205 186 
-17 -57 411 254 203 182 
-17 -57 411 235 184 163 
-16 -57 411 200 144 117 
-27 -56 409 231 191 183 
-27 -56 410 240 200 192 
-26 -56 409 240 200 192 
-25 -56 409 249 206 190 
-24 -56 408 250 207 191 
-24 -56 408 254 212 190 
-23 -56 408 252 210 188 
-22 -56 408 247 209 188 
-22 -56 408 255 217 196 
-21 -56 408 253 220 205 
-21 -56 409 255 226 211 
-20 -56 409 251 213 200 
-19 -56 409 247 209 196 
-19 -56 410 247 208 191 
-18 -57 411 247 208 191 
-17 -57 411 254 207 187 
-17 -57 411 249 202 182 
-16 -57 411 229 173 148 
-27 -56 409 234 190 179 
-27 -56 409 242 202 190 
-26 -56 409 247 207 195 
-25 -56 408 247 209 190 
-24 -56 408 244 206 187 
-24 -56 408 252 210 188 
-23 -56 408 244 202 180 
-22 -56 408 240 204 188 
-22 -56 408 247 211 195 
-21 -56 408 240 213 204 
-20 -56 408 243 216 207 
-20 -56 409 239 209 199 
-19 -56 409 229 199 189 
-19 -56 410 245 209 195 
-18 -56 410 243 207 193 
-17 -56 410 249 204 185 
-17 -56 411 247 202 183 
-16 -56 411 242 186 163 
-27 -55 409 238 190 178 
-27 -55 409 239 200 185 
-26 -55 409 245 206 191 
-25 -55 408 247 209 188 
-24 -55 408 251 213 192 
-24 -55 407 252 210 188 
-23 -55 407 233 191 169 
-22 -55 407 235 199 187 
-22 -55 407 228 192 180 
-21 -55 407 194 173 168 
-20 -55 408 195 174 169 
-20 -55 408 201 174 167 
-19 -55 409 219 192 185 
-19 -55 410 234 202 191 
-18 -55 410 236 204 193 
-17 -55 410 250 204 188 
-17 -55 410 242 196 180 
-16 -55 411 255 201 180 
-15 -55 411 235 180 159 
-15 -55 412 194 134 108 
-27 -54 409 233 188 167 
-27 -54 409 243 197 174 
-26 -54 409 248 202 179 
-25 -54 408 249 202 184 
-24 -54 408 255 213 195 
-24 -54 407 244 202 188 
-23 -54 407 223 181 167 
-22 -54 408 232 199 190 
-22 -54 408 207 174 165 
-21 -54 408 165 142 136 
-20 -54 408 148 125 119 
-20 -54 409 189 169 160 
-19 -54 409 222 202 193 
-19 -54 409 235 205 195 
-18 -54 409 231 201 191 
-17 -54 410 254 204 181 
-17 -54 410 254 204 181 
-16 -54 410 255 196 167 
-15 -55 411 255 194 165 
-15 -55 412 223 165 141 
-27 -54 409 228 183 162 
-27 -54 409 237 191 168 
-26 -54 409 242 196 173 
-25 -54 408 248 201 183 
-24 -53 407 250 203 185 
-24 -53 407 247 205 191 
-23 -53 407 221 179 165 
-22 -54 408 224 191 182 
-22 -54 408 207 174 165 
-21 -54 408 168 145 139 
-20 -54 408 174 151 145 
-20 -54 409 190 162 158 
-19 -54 409 223 195 191 
-19 -54 409 241 207 198 
-18 -54 409 230 196 187 
-17 -54 410 255 204 183 
-17 -54 410 249 198 177 
-16 -54 410 253 197 170 
-15 -54 411 247 191 164 
-15 -54 412 229 179 156 
-27 -53 409 223 177 154 
-27 -53 409 230 184 161 
-26 -53 409 235 189 166 
-25 -53 408 244 197 179 
-24 -53 408 247 200 182 
-24 -53 407 244 202 188 
-23 -53 407 215 173 159 
-22 -53 407 222 190 179 
-22 -53 408 226 194 183 
-21 -53 408 210 185 178 
-20 -53 408 232 207 200 
-20 -53 409 237 206 203 
-19 -53 409 235 204 201 
-19 -53 409 221 185 173 
-18 -53 409 225 189 177 
-17 -53 410 250 202 180 
-17 -53 410 247 199 177 
-16 -53 410 242 190 166 
-15 -53 410 247 195 171 
-15 -53 411 233 185 165 
-14 -53 412 205 157 137 
-27 -52 409 219 171 149 
-27 -52 409 227 176 155 
-26 -52 409 233 182 161 
-25 -52 409 233 185 165 
-24 -52 408 242 194 174 
-24 -52 408 245 202 186 
-23 -52 408 220 177 161 
-22 -52 408 210 177 162 
-22 -52 408 230 197 182 
-21 -52 408 244 218 205 
-20 -52 408 238 212 199 
-20 -52 409 237 205 194 
-19 -52 409 214 182 171 
-19 -52 409 205 168 150 
-18 -52 410 236 199 181 
-17 -52 410 245 201 176 
-17 -52 410 246 202 177 
-16 -52 410 241 191 168 
-15 -53 411 239 189 166 
-15 -53 411 233 181 160 
-14 -53 412 218 166 145 
-27 -52 409 216 164 142 
-27 -52 409 223 168 147 
-26 -52 409 231 176 155 
-25 -52 409 234 183 162 
-24 -52 408 231 180 159 
-24 -52 408 235 190 171 
-23 -52 408 234 189 170 
-22 -52 408 212 173 156 
-22 -52 408 200 161 144 
-21 -52 408 206 173 154 
-20 -52 408 198 165 146 
-20 -52 409 203 164 147 
-19 -52 409 207 168 151 
-19 -52 409 227 186 164 
-18 -52 409 241 200 178 
-17 -52 410 243 199 174 
-17 -52 410 236 192 167 
-16 -52 410 244 194 171 
-15 -52 410 235 185 162 
-15 -52 411 233 179 155 
-14 -52 412 220 166 142 
-13 -52 413 182 131 112 
-13 -52 414 140 89 70 
-27 -51 409 207 150 130 
-27 -51 409 215 157 137 
-26 -51 409 225 167 147 
-25 -51 409 231 176 155 
-24 -51 408 228 173 152 
-24 -51 408 225 177 155 
-23 -51 408 226 178 156 
-22 -51 408 228 186 164 
-22 -51 408 223 181 159 
-21 -51 408 212 171 149 
-20 -51 408 202 161 139 
-20 -51 409 218 171 151 
-19 -51 409 234 187 167 
-19 -51 409 240 192 169 
-18 -51 409 238 190 167 
-17 -51 409 236 190 167 
-17 -51 409 233 187 164 
-16 -51 410 235 185 160 
-15 -51 410 232 182 157 
-15 -51 411 226 175 148 
-14 -51 412 210 159 132 
-13 -52 413 184 147 131 
-13 -52 414 192 155 139 
-26 -50 410 218 155 137 
-25 -50 409 222 165 145 
-24 -50 408 220 163 143 
-24 -50 408 222 172 149 
-23 -50 408 222 172 149 
-22 -50 408 221 173 150 
-22 -50 408 223 175 152 
-21 -50 408 228 178 153 
-21 -50 409 230 180 155 
-20 -50 409 235 185 160 
-19 -50 409 236 186 161 
-19 -50 409 231 180 153 
-18 -50 409 237 186 159 
-17 -50 409 232 182 159 
-17 -50 409 234 184 161 
-16 -50 410 228 178 153 
-15 -50 410 217 167 142 
-15 -51 411 215 163 139 
-14 -51 412 198 146 122 
-26 -50 410 214 147 130 
-25 -50 410 218 160 140 
-25 -50 409 219 161 141 
-24 -50 409 214 162 140 
-23 -50 408 215 163 141 
-22 -50 408 219 167 143 
-22 -50 408 220 168 144 
-21 -50 408 226 172 146 
-21 -50 409 226 172 146 
-20 -50 409 224 179 148 
-19 -50 409 224 179 148 
-19 -50 410 231 180 151 
-18 -50 410 226 175 146 
-17 -50 409 228 178 155 
-17 -50 410 222 172 149 
-16 -50 410 229 175 149 
-15 -50 410 215 161 135 
-15 -50 411 208 154 130 
-14 -50 412 195 141 117 
-26 -49 410 197 136 118 
-25 -49 410 215 152 135 
-25 -49 410 216 153 136 
-24 -49 409 217 154 136 
-23 -49 409 218 155 137 
-23 -49 409 219 161 137 
-22 -49 409 222 164 140 
-21 -49 409 218 169 137 
-21 -49 409 223 174 142 
-20 -49 409 233 172 144 
-19 -49 410 229 168 140 
-19 -49 410 231 168 151 
-18 -49 410 231 168 151 
-17 -49 410 222 166 129 
-17 -49 410 215 159 122 
-16 -49 411 213 164 134 
-15 -49 411 199 150 120 
-15 -49 411 187 141 117 
-14 -49 412 170 124 100 
-26 -49 411 190 131 113 
-25 -48 410 202 144 124 
-25 -48 410 203 145 125 
-24 -48 410 208 147 126 
-23 -48 409 213 152 131 
-23 -48 409 217 157 129 
-22 -48 410 217 157 129 
-21 -48 410 218 162 129 
-21 -48 410 222 166 133 
-20 -48 410 219 162 133 
-19 -48 410 222 165 136 
-19 -48 410 216 159 140 
-18 -48 410 210 153 134 
-17 -48 410 210 158 121 
-17 -49 411 204 152 115 
-16 -49 411 202 146 121 
-15 -49 411 192 136 111 
-15 -49 412 168 118 95 
-14 -49 412 183 133 110 
-26 -48 411 189 133 116 
-25 -48 411 195 138 119 
-25 -48 410 197 140 121 
-24 -48 410 200 144 121 
-23 -48 410 208 152 129 
-23 -48 410 214 154 126 
-22 -48 410 211 151 123 
-21 -48 410 215 152 121 
-21 -48 410 216 153 122 
-20 -48 410 212 155 125 
-19 -48 410 211 154 124 
-19 -48 410 206 154 132 
-18 -48 411 202 150 128 
-17 -48 411 201 148 114 
-17 -48 411 195 142 108 
-16 -48 412 192 134 112 
-15 -48 412 181 123 101 
-15 -48 413 164 111 95 
-26 -47 412 180 124 109 
-25 -47 412 184 127 108 
-25 -47 411 190 133 114 
-24 -47 411 190 136 112 
-23 -47 411 197 143 119 
-23 -47 411 203 147 120 
-22 -47 411 201 145 118 
-21 -47 411 210 146 119 
-21 -47 411 210 146 119 
-20 -47 411 207 148 118 
-19 -47 411 205 146 116 
-19 -47 411 202 144 120 
-18 -47 411 198 140 116 
-17 -47 412 193 136 107 
-17 -47 412 188 131 102 
-16 -47 412 179 123 108 
-15 -48 413 169 113 98 
-15 -48 413 185 142 135 
-26 -47 413 162 106 93 
-25 -47 413 174 113 94 
-25 -47 412 185 124 105 
-24 -47 412 186 128 104 
-23 -47 412 188 130 106 
-23 -47 412 191 133 109 
-22 -47 412 191 133 109 
-21 -47 412 196 136 112 
-21 -47 412 197 137 113 
-20 -47 412 199 138 109 
-19 -47 412 200 139 110 
-19 -47 412 199 133 111 
-18 -47 413 195 129 107 
-17 -47 413 181 120 101 
-17 -47 413 169 108 89 
-16 -47 413 161 118 111 
-15 -47 414 197 172 175 
-25 -46 413 156 99 82 
-25 -46 413 173 116 99 
-24 -46 413 183 123 99 
-23 -46 413 185 125 101 
-23 -46 413 187 127 101 
-22 -46 413 186 126 100 
-21 -46 413 185 127 105 
-21 -46 413 185 127 105 
-20 -46 413 185 125 99 
-19 -46 413 184 124 98 
-19 -46 413 182 117 99 
-18 -46 413 178 113 95 
-17 -46 413 160 108 97 
-17 -46 414 165 113 102 
-25 -46 414 140 104 92 
-24 -46 414 156 103 85 
-23 -46 414 158 105 87 
-23 -46 414 167 109 87 
-22 -46 414 167 109 87 
-17 -46 414 153 123 121 
-17 -46 414 184 154 152 
-22 -45 415 155 99 84 
