ply
format ascii 1.0
comment Created by CloudCompare v2.10.1 (Zephyrus)
comment Created 2020-05-06 7:46 PM
obj_info Generated by CloudCompare!
element vertex 640
property float x
property float y
property float z
property uchar red
property uchar green
property uchar blue
end_header
-10 183 403 193 148 119 
-9 183 403 204 163 141 
-8 183 403 190 149 127 
-8 183 403 169 140 126 
-7 183 403 163 134 120 
-13 185 406 174 125 92 
-12 185 406 181 132 99 
-11 183 403 204 155 122 
-10 183 403 205 160 131 
-10 183 403 213 168 139 
-9 183 402 220 178 156 
-8 183 402 216 174 152 
-8 183 402 186 154 139 
-7 183 402 169 137 122 
-14 186 408 193 150 118 
-13 185 406 201 155 121 
-12 185 405 207 161 127 
-11 184 403 216 167 134 
-11 183 402 218 169 136 
-10 183 402 213 168 139 
-10 183 402 216 171 142 
-9 183 401 223 178 155 
-8 183 401 228 183 160 
-8 183 401 204 171 152 
-7 183 401 189 156 137 
-6 183 401 169 143 128 
-6 183 401 164 138 123 
-14 187 409 207 168 135 
-14 186 407 211 172 139 
-13 185 405 213 169 134 
-12 185 404 209 165 130 
-11 184 402 209 160 127 
-11 184 402 207 158 125 
-10 184 401 206 161 132 
-9 184 401 206 161 132 
-9 183 400 208 164 139 
-8 183 399 220 176 151 
-8 183 399 211 179 158 
-7 183 399 211 179 158 
-6 183 399 186 159 140 
-6 183 399 168 141 122 
-5 183 399 165 138 121 
-4 183 399 164 137 120 
-14 188 409 204 163 133 
-14 186 406 206 165 135 
-13 186 404 201 161 125 
-12 185 403 192 152 116 
-11 185 402 197 157 121 
-11 184 401 197 157 121 
-10 184 400 198 157 125 
-9 184 400 199 158 126 
-9 183 399 198 161 135 
-8 183 399 206 169 143 
-8 183 398 206 174 151 
-7 183 398 210 178 155 
-6 183 398 199 167 146 
-6 183 398 186 154 133 
-5 183 398 178 143 121 
-4 183 398 174 139 117 
-4 183 399 163 137 124 
-14 188 409 202 158 129 
-14 187 406 203 159 130 
-13 186 403 200 158 120 
-12 185 402 194 152 114 
-11 185 401 199 155 116 
-11 184 400 199 155 116 
-10 184 399 200 156 121 
-9 184 399 201 157 122 
-9 184 399 198 159 128 
-8 183 398 205 166 135 
-7 183 397 206 170 144 
-7 183 397 208 172 146 
-6 183 397 204 170 145 
-6 183 397 199 165 140 
-5 183 397 193 157 133 
-4 183 397 188 152 128 
-4 183 397 171 145 128 
-14 189 408 200 155 124 
-13 187 405 200 155 124 
-13 186 402 201 157 118 
-12 185 401 197 153 114 
-11 185 400 203 156 114 
-11 184 399 201 154 112 
-10 184 398 203 154 114 
-9 184 398 205 156 116 
-9 184 398 203 159 124 
-8 184 397 207 163 128 
-7 184 397 209 168 138 
-7 184 397 207 166 136 
-6 183 396 209 170 141 
-6 183 396 211 172 143 
-5 183 396 207 170 144 
-4 183 396 203 166 140 
-4 183 396 190 161 143 
-3 183 396 164 135 117 
-2 183 396 88 73 68 
-2 183 396 73 58 53 
-14 189 408 197 152 119 
-13 187 404 197 152 119 
-13 186 401 200 155 116 
-12 186 400 198 153 114 
-11 185 399 204 156 110 
-11 185 398 199 151 105 
-10 185 398 204 152 105 
-9 184 397 208 156 109 
-9 184 397 212 160 121 
-8 184 396 215 163 124 
-7 184 396 219 171 135 
-7 184 396 217 169 133 
-6 183 395 213 170 138 
-6 183 395 215 172 140 
-5 183 395 214 172 147 
-4 183 395 214 172 147 
-4 183 394 208 176 155 
-3 183 394 191 159 138 
-2 183 394 137 117 108 
-2 183 394 91 71 62 
-1 183 394 67 58 61 
-14 190 408 196 150 117 
-13 188 403 194 148 115 
-13 186 400 194 149 108 
-12 186 399 195 150 109 
-11 185 398 205 154 107 
-11 185 397 201 150 103 
-10 184 396 204 148 101 
-9 184 396 208 152 105 
-9 184 396 209 156 114 
-8 184 395 210 157 115 
-7 184 395 216 167 127 
-7 183 394 217 168 128 
-6 183 394 209 163 129 
-6 183 394 209 163 129 
-5 183 394 208 167 139 
-4 183 394 210 169 141 
-4 183 393 212 176 152 
-3 183 393 210 174 150 
-2 183 394 184 156 142 
-2 183 394 145 117 103 
-1 183 394 75 64 62 
-14 191 408 193 147 113 
-13 188 403 190 144 110 
-13 187 400 193 146 104 
-12 186 399 197 150 108 
-11 185 397 209 157 109 
-11 185 396 204 152 104 
-10 184 395 206 148 100 
-9 184 395 208 150 102 
-9 184 395 204 150 104 
-8 184 394 202 148 102 
-7 184 394 208 157 112 
-7 184 393 216 165 120 
-6 184 393 204 159 120 
-6 184 393 205 160 121 
-5 184 393 201 162 129 
-4 184 393 203 164 131 
-4 184 393 210 173 146 
-3 184 393 209 172 145 
-2 184 393 200 170 146 
-2 184 393 189 159 135 
-1 184 393 125 108 100 
0 184 393 80 63 55 
-14 191 408 190 142 106 
-13 189 403 188 140 104 
-13 187 400 193 146 102 
-12 187 398 200 153 109 
-11 186 396 210 158 110 
-11 185 395 204 152 104 
-10 185 394 208 148 98 
-9 185 394 209 149 99 
-9 185 394 208 152 103 
-8 184 393 209 153 104 
-7 184 393 210 156 109 
-7 184 393 222 168 121 
-6 184 392 208 161 119 
-6 184 392 212 165 123 
-5 184 392 206 166 130 
-4 184 392 206 166 130 
-4 184 392 218 178 143 
-3 184 392 211 171 136 
-2 183 391 208 172 140 
-2 183 391 208 172 140 
-1 184 392 181 160 143 
0 184 392 113 92 75 
0 184 393 68 64 61 
1 185 394 71 67 64 
-14 192 408 182 134 98 
-13 189 402 184 136 100 
-13 188 399 194 147 103 
-12 187 397 201 154 110 
-11 186 396 208 155 105 
-11 185 394 200 147 97 
-10 185 394 205 143 94 
-9 185 393 209 147 98 
-9 185 393 210 152 102 
-8 184 392 214 156 106 
-7 184 392 214 156 106 
-7 184 392 226 168 118 
-6 184 391 210 159 114 
-5 184 391 216 165 120 
-5 184 391 209 165 128 
-4 184 391 208 164 127 
-4 184 391 222 178 141 
-3 184 391 220 176 139 
-2 184 391 220 176 141 
-2 184 391 217 173 138 
-1 184 391 205 177 155 
0 184 391 171 143 121 
0 184 392 87 80 74 
1 185 393 68 61 55 
-14 192 407 181 130 87 
-13 189 401 188 137 94 
-13 188 398 200 146 102 
-12 187 397 204 150 106 
-11 187 396 202 145 100 
-11 186 394 202 145 100 
-10 185 393 204 150 104 
-9 185 393 207 153 107 
-9 185 392 210 149 102 
-8 185 392 212 151 104 
-7 184 391 211 153 105 
-7 184 391 223 165 117 
-6 184 391 216 164 117 
-5 184 391 211 159 112 
-5 184 390 210 166 121 
-4 184 391 209 165 120 
-4 184 390 207 168 127 
-3 184 390 212 173 132 
-2 184 390 211 177 140 
-2 184 390 209 175 138 
-1 184 390 206 176 148 
0 184 390 193 163 135 
0 184 391 147 123 99 
1 185 392 83 59 35 
1 186 394 67 70 63 
-14 192 406 185 134 91 
-13 190 401 195 144 101 
-13 188 398 205 151 105 
-12 188 397 202 148 102 
-11 187 395 198 144 97 
-11 186 394 203 149 102 
-10 186 393 207 153 106 
-9 186 392 204 150 103 
-9 186 392 209 148 101 
-8 185 391 211 150 103 
-7 185 391 210 152 104 
-7 185 390 222 164 116 
-6 185 390 219 167 119 
-5 185 390 217 165 117 
-5 184 389 215 168 122 
-4 184 389 216 169 123 
-4 184 389 212 170 128 
-3 184 389 215 173 131 
-2 184 389 215 180 142 
-2 184 389 212 177 139 
-1 184 389 206 173 142 
0 184 389 206 173 142 
0 185 390 172 145 118 
1 185 391 113 86 59 
1 186 393 64 63 58 
-14 193 406 190 139 94 
-13 190 401 199 148 103 
-13 189 398 206 152 106 
-12 188 396 201 147 101 
-11 188 395 198 144 97 
-11 187 393 203 149 102 
-10 187 393 206 152 105 
-9 186 392 202 148 101 
-9 186 392 208 147 100 
-8 186 391 211 150 103 
-7 185 390 211 153 105 
-7 185 390 223 165 117 
-6 185 389 225 172 122 
-5 185 389 224 171 121 
-5 185 389 218 170 122 
-4 184 388 221 173 125 
-4 184 388 214 171 128 
-3 184 388 217 174 131 
-2 184 388 218 179 140 
-2 184 388 215 176 137 
-1 184 388 208 172 138 
0 185 389 214 178 144 
0 185 389 192 157 127 
1 185 390 152 117 87 
1 186 392 73 68 64 
-14 193 406 194 141 97 
-13 191 401 198 145 101 
-13 189 397 204 150 103 
-12 188 395 204 150 103 
-11 188 394 202 148 101 
-11 187 393 202 148 101 
-10 187 392 203 150 100 
-9 187 392 204 151 101 
-9 187 392 206 148 102 
-8 186 391 210 152 106 
-7 186 390 215 157 109 
-7 186 390 223 165 117 
-6 185 389 229 173 122 
-5 185 389 230 174 123 
-5 185 389 219 169 120 
-4 185 388 225 175 126 
-4 185 388 213 169 122 
-3 185 388 220 176 129 
-2 185 388 217 175 133 
-2 185 388 218 176 134 
-1 185 388 217 177 141 
0 185 388 217 177 141 
0 185 389 194 156 120 
1 186 390 177 139 103 
1 186 391 98 87 81 
2 187 393 64 53 47 
-13 192 401 199 146 102 
-13 190 398 204 150 103 
-12 189 395 208 154 107 
-11 188 394 207 153 106 
-11 188 393 203 149 102 
-10 187 392 205 152 102 
-9 187 391 210 157 107 
-9 187 391 208 152 105 
-8 187 391 210 154 107 
-7 186 390 215 159 110 
-7 186 389 221 165 116 
-6 186 389 226 173 123 
-5 185 388 229 176 126 
-5 185 388 221 171 120 
-4 185 387 227 177 126 
-4 185 387 218 171 125 
-3 185 387 224 177 131 
-2 185 387 219 177 135 
-2 185 387 221 179 137 
-1 185 388 221 179 141 
0 185 388 219 177 139 
0 185 388 201 159 121 
1 186 389 193 151 113 
1 186 390 145 127 113 
2 187 392 77 59 45 
-13 193 402 202 149 105 
-13 191 398 204 150 103 
-12 189 395 203 149 102 
-11 189 394 204 151 101 
-11 188 393 206 153 103 
-10 188 392 208 155 105 
-9 187 391 211 158 108 
-9 187 390 210 154 107 
-8 187 390 209 153 106 
-7 187 389 213 159 112 
-7 187 389 218 164 117 
-6 186 388 223 171 121 
-5 186 387 230 178 128 
-5 186 387 223 173 122 
-4 185 386 226 176 125 
-4 185 386 220 174 125 
-3 185 386 222 176 127 
-2 185 386 222 179 136 
-2 185 386 222 179 136 
-1 186 387 217 175 135 
0 186 387 220 178 138 
0 186 387 214 172 134 
1 186 388 200 158 120 
1 187 390 181 155 130 
2 187 391 101 75 50 
-13 194 403 203 151 104 
-13 191 398 202 149 99 
-12 190 395 201 148 98 
-11 189 393 205 152 102 
-11 189 393 209 156 106 
-10 189 392 212 156 107 
-9 188 391 211 155 106 
-9 188 390 211 153 107 
-8 187 389 208 150 104 
-7 187 389 212 158 111 
-7 187 388 217 163 116 
-6 186 387 220 168 120 
-5 186 387 231 179 131 
-5 186 387 227 177 128 
-4 186 386 226 176 127 
-4 186 386 222 176 127 
-3 186 386 220 174 125 
-2 186 386 221 178 135 
-2 186 386 222 179 136 
-1 186 386 217 175 135 
0 186 387 219 177 137 
0 186 387 219 179 143 
1 186 387 204 164 128 
1 187 389 193 162 131 
2 188 390 130 99 68 
3 189 392 110 91 85 
-13 195 404 202 148 102 
-13 193 399 202 149 99 
-12 191 396 205 152 102 
-11 190 393 213 157 106 
-11 189 392 215 159 108 
-10 189 391 211 155 104 
-9 188 390 209 153 102 
-9 188 389 211 153 105 
-8 188 389 207 149 101 
-7 188 389 211 157 110 
-7 187 388 216 162 115 
-6 187 387 216 166 117 
-5 186 386 229 179 130 
-5 186 386 229 179 130 
-4 186 386 227 177 128 
-4 186 385 225 177 129 
-3 186 385 222 174 126 
-2 186 385 221 177 132 
-2 186 385 224 180 135 
-1 186 386 224 182 142 
0 186 386 218 176 136 
0 186 386 219 179 143 
1 187 387 211 171 135 
1 187 388 198 168 134 
2 188 389 155 125 91 
3 189 391 86 68 66 
-13 194 400 207 151 104 
-12 192 397 212 156 109 
-11 190 393 213 161 113 
-11 190 392 210 158 110 
-10 189 391 207 157 106 
-9 188 389 209 159 108 
-9 188 389 210 152 102 
-8 188 388 208 150 100 
-7 188 388 213 155 107 
-7 187 387 215 157 109 
-6 187 387 219 165 118 
-5 187 386 227 173 126 
-5 187 386 232 184 138 
-4 186 385 224 176 130 
-4 186 385 218 173 131 
-3 186 384 214 169 127 
-2 186 384 219 176 134 
-2 186 384 223 180 138 
-1 186 385 220 181 142 
0 186 385 221 182 143 
0 187 386 215 180 140 
1 187 386 210 175 135 
1 187 387 198 163 125 
2 188 389 179 144 106 
3 189 391 84 64 66 
3 190 393 79 59 61 
-13 195 402 206 150 103 
-12 193 398 212 156 109 
-11 191 394 212 160 112 
-11 190 392 210 158 110 
-10 190 391 207 157 106 
-9 189 389 206 156 105 
-9 188 388 210 150 100 
-8 188 388 208 148 98 
-7 188 388 209 151 101 
-7 188 387 212 154 104 
-6 187 386 220 164 117 
-5 187 386 229 173 126 
-5 187 385 234 183 136 
-4 187 385 230 179 132 
-4 187 385 222 178 133 
-3 187 384 218 174 129 
-2 187 384 220 177 135 
-2 187 384 225 182 140 
-1 187 384 221 182 141 
0 187 385 223 184 143 
0 187 385 219 181 142 
1 187 386 215 177 138 
1 188 387 201 167 130 
2 188 388 192 158 121 
3 189 390 95 75 77 
3 190 392 72 52 54 
-12 195 400 212 158 112 
-11 192 395 212 160 112 
-11 191 392 211 159 111 
-10 191 391 208 158 107 
-9 190 389 204 154 103 
-9 189 388 210 150 100 
-8 189 387 207 147 97 
-7 189 387 209 149 99 
-7 189 387 214 154 104 
-6 188 386 221 165 118 
-5 188 385 229 173 126 
-5 188 385 234 183 136 
-4 188 385 234 183 136 
-4 187 384 228 181 137 
-3 187 384 225 178 134 
-2 187 383 221 178 136 
-2 187 383 228 185 143 
-1 187 384 224 185 144 
0 187 384 225 186 145 
0 187 384 221 183 144 
1 188 386 218 180 141 
1 189 387 202 168 133 
2 189 388 195 161 126 
3 190 389 113 92 89 
3 191 392 81 60 57 
-11 194 397 211 157 110 
-11 193 394 211 157 110 
-10 192 392 211 159 109 
-9 191 390 204 152 102 
-9 190 388 209 149 99 
-8 190 388 207 147 97 
-7 189 387 206 148 100 
-7 189 387 213 155 107 
-6 189 386 220 164 117 
-5 188 385 227 171 124 
-5 188 384 233 182 137 
-4 188 384 237 186 141 
-4 187 383 227 182 140 
-3 187 383 227 182 140 
-2 187 383 221 179 137 
-2 187 383 230 188 146 
-1 187 383 224 186 147 
0 187 383 225 187 148 
0 188 384 220 185 145 
1 188 385 220 185 145 
1 189 386 211 177 142 
2 189 387 203 169 134 
3 190 389 157 133 121 
3 192 392 140 116 104 
-11 194 395 213 155 107 
-10 193 393 214 158 107 
-9 192 391 205 149 98 
-9 191 389 207 146 99 
-8 190 388 205 144 97 
-7 190 387 203 145 97 
-7 190 387 210 152 104 
-6 189 386 214 160 114 
-5 189 385 222 168 122 
-5 188 384 230 179 134 
-4 188 384 238 187 142 
-4 188 383 230 185 143 
-3 188 383 228 183 141 
-2 188 383 219 180 139 
-2 188 383 226 187 146 
-1 188 383 226 188 149 
0 188 383 225 187 148 
0 188 383 222 187 149 
1 189 385 222 187 149 
1 189 386 214 179 149 
2 190 387 202 167 137 
3 191 389 175 148 131 
3 192 392 167 140 123 
-10 194 395 216 156 106 
-9 193 392 206 146 96 
-9 192 390 205 144 97 
-8 191 389 205 144 97 
-7 191 388 200 144 97 
-7 190 387 207 151 104 
-6 190 386 212 160 113 
-5 189 385 221 169 122 
-5 189 384 227 178 135 
-4 188 383 236 187 144 
-4 188 383 231 186 145 
-3 188 383 227 182 141 
-2 188 382 220 181 140 
-2 188 382 223 184 143 
-1 188 382 227 192 154 
0 188 383 225 190 152 
0 188 383 222 186 150 
1 189 384 222 186 150 
1 189 385 217 183 158 
2 190 387 206 172 147 
3 191 389 179 152 133 
3 193 392 168 141 122 
-9 194 394 207 145 96 
-9 193 391 204 143 96 
-8 192 390 207 146 99 
-7 192 389 200 144 97 
-7 191 387 206 150 103 
-6 190 386 211 159 112 
-5 190 385 222 170 123 
-5 190 384 230 179 136 
-4 189 383 239 188 145 
-4 189 383 231 186 145 
-3 189 382 226 181 140 
-2 189 382 221 182 141 
-2 189 382 221 182 141 
-1 189 382 231 193 156 
0 189 382 228 190 153 
0 189 383 223 185 149 
1 190 384 222 184 148 
1 190 385 221 187 162 
2 191 387 207 173 148 
3 192 390 175 148 127 
3 193 392 166 139 118 
-7 193 389 198 142 93 
-7 192 388 202 146 97 
-6 192 387 208 156 109 
-5 191 385 220 168 121 
-5 190 384 228 177 132 
-4 190 383 240 189 144 
-4 190 383 234 187 145 
-3 189 382 228 181 139 
-2 189 382 224 182 142 
-2 189 382 220 178 138 
-1 189 382 231 193 156 
0 190 383 226 188 151 
0 190 384 223 185 148 
1 191 385 221 183 146 
1 191 386 225 189 163 
2 192 388 206 170 144 
3 194 391 174 148 123 
-7 193 389 206 144 93 
-6 193 388 206 154 106 
-5 192 387 218 166 118 
-5 191 385 223 179 134 
-4 191 384 231 187 142 
-4 190 383 233 194 155 
-3 190 383 226 187 148 
-2 190 383 220 184 148 
-2 190 382 220 184 148 
-1 190 383 225 187 151 
0 191 384 229 191 155 
0 191 385 225 182 147 
1 192 386 222 179 144 
1 193 388 212 180 155 
2 193 389 196 164 139 
3 195 392 176 145 125 
-5 193 388 217 164 114 
-5 192 386 225 177 129 
-4 192 385 234 186 138 
-4 192 385 237 194 152 
-3 191 384 229 186 144 
-2 191 383 221 181 145 
-2 191 383 222 182 146 
-1 191 384 223 184 151 
0 192 385 226 187 154 
0 192 386 220 179 147 
1 193 387 216 175 143 
1 194 389 209 177 152 
2 195 391 193 161 136 
-4 193 387 235 181 135 
-4 193 386 240 193 149 
-3 192 385 235 188 144 
-2 192 385 227 185 147 
-2 192 385 229 187 149 
-1 193 386 223 184 153 
0 193 387 226 187 156 
0 194 388 218 181 154 
1 195 390 212 175 148 
1 196 392 204 169 147 
-2 194 387 234 190 153 
-2 194 387 235 191 154 
-1 194 388 222 183 152 
0 195 389 225 186 155 
1 196 392 210 173 147 
