ply
format ascii 1.0
comment Created by CloudCompare v2.10.1 (Zephyrus)
comment Created 2020-05-06 7:44 PM
obj_info Generated by CloudCompare!
element vertex 130
property float x
property float y
property float z
property uchar red
property uchar green
property uchar blue
end_header
57 -131 422 181 170 174 
57 -131 422 191 168 162 
56 -131 422 210 185 180 
57 -131 423 209 184 179 
55 -130 422 218 194 182 
55 -130 422 225 201 189 
56 -130 422 240 204 190 
57 -130 422 242 206 192 
57 -130 422 237 200 184 
58 -130 422 236 199 183 
59 -130 422 245 207 186 
54 -129 421 217 191 178 
55 -129 422 239 204 182 
55 -129 422 247 212 190 
56 -129 422 253 212 194 
57 -129 422 255 215 197 
57 -129 422 252 214 195 
58 -129 422 251 213 194 
59 -129 422 254 216 195 
53 -128 421 201 182 175 
53 -129 422 219 188 168 
54 -129 422 231 200 180 
55 -129 422 254 217 191 
55 -129 422 255 221 195 
56 -129 422 255 219 197 
57 -129 423 255 217 195 
58 -129 423 252 216 194 
58 -129 423 251 215 193 
59 -129 423 249 213 191 
60 -129 423 247 211 189 
60 -129 423 244 202 177 
53 -128 422 204 172 159 
53 -128 422 224 186 165 
54 -128 422 248 210 189 
55 -128 422 255 219 193 
55 -128 422 255 221 195 
56 -128 422 255 223 198 
57 -128 422 255 222 197 
58 -128 423 255 224 201 
58 -128 423 255 223 200 
59 -128 423 248 213 191 
60 -128 423 243 208 186 
60 -128 423 242 198 173 
52 -127 422 202 159 142 
53 -127 422 200 157 140 
53 -127 422 231 189 165 
54 -127 422 249 207 183 
55 -127 422 254 216 193 
55 -127 422 255 221 198 
56 -127 422 252 222 194 
57 -127 422 251 221 193 
57 -127 422 253 225 201 
58 -127 422 248 220 196 
59 -128 423 237 203 178 
60 -128 423 232 198 173 
60 -128 423 238 192 168 
52 -127 422 221 174 158 
53 -127 422 218 171 155 
53 -127 422 224 182 158 
54 -127 422 237 195 171 
55 -127 422 255 212 177 
55 -127 422 253 210 175 
56 -127 422 255 217 187 
57 -127 422 255 221 191 
57 -127 422 255 223 201 
58 -127 423 250 215 193 
59 -127 423 192 159 142 
60 -127 423 206 173 156 
60 -127 423 228 185 168 
61 -127 423 203 160 143 
53 -126 422 242 194 174 
53 -126 422 234 190 165 
54 -126 422 231 187 162 
55 -126 422 239 194 161 
55 -126 422 246 201 168 
56 -126 422 255 212 178 
57 -126 422 255 218 184 
57 -126 422 255 220 194 
58 -126 423 226 190 164 
59 -126 423 161 126 107 
60 -126 423 172 137 118 
60 -126 423 219 174 155 
61 -126 423 188 143 124 
55 -125 421 223 176 150 
55 -125 421 234 187 161 
56 -125 422 245 200 167 
57 -125 422 251 206 173 
57 -125 422 237 200 174 
58 -126 423 188 151 125 
59 -126 423 143 106 87 
60 -126 423 154 117 98 
60 -126 423 211 166 147 
61 -126 423 171 126 107 
56 -125 422 230 185 156 
57 -125 422 240 195 166 
57 -125 422 220 178 154 
58 -125 423 175 133 109 
59 -125 423 160 122 103 
60 -125 423 168 130 111 
60 -125 424 187 148 133 
61 -125 424 143 104 89 
56 -124 422 210 160 135 
57 -124 422 221 171 146 
57 -124 422 204 158 135 
58 -124 423 172 126 103 
59 -125 424 165 123 107 
60 -125 424 174 132 116 
61 -125 425 166 132 123 
61 -125 425 140 106 97 
57 -123 422 215 161 135 
57 -123 422 218 168 145 
58 -124 423 205 155 132 
59 -124 423 175 131 118 
60 -124 424 172 128 115 
61 -124 425 146 117 113 
61 -124 425 137 108 104 
62 -124 425 130 111 113 
57 -123 422 198 144 116 
57 -123 422 198 148 125 
58 -123 423 196 146 123 
59 -123 423 166 126 114 
60 -123 425 166 126 114 
62 -124 426 149 134 139 
58 -122 423 161 115 92 
59 -122 423 158 121 112 
60 -123 425 169 132 123 
58 -122 423 148 107 89 
58 -122 423 167 126 108 
59 -122 424 168 143 139 
58 -121 424 173 143 132 
