ply
format ascii 1.0
comment Created by CloudCompare v2.10.1 (Zephyrus)
comment Created 2020-05-06 7:44 PM
obj_info Generated by CloudCompare!
element vertex 478
property float x
property float y
property float z
property uchar red
property uchar green
property uchar blue
end_header
73 -143 420 188 161 154 
70 -142 421 158 150 147 
71 -142 421 181 161 152 
72 -143 422 196 176 167 
72 -142 421 221 188 171 
73 -142 421 231 198 181 
74 -143 422 235 197 174 
74 -142 421 241 203 180 
70 -142 423 199 171 159 
70 -142 423 216 188 176 
71 -142 423 232 199 180 
72 -142 422 241 208 189 
72 -142 422 244 214 190 
73 -142 422 248 218 194 
74 -142 422 246 216 188 
74 -142 422 245 215 187 
75 -142 421 246 215 194 
75 -142 421 241 210 189 
76 -142 422 206 177 163 
68 -141 422 196 170 155 
69 -141 422 214 188 173 
70 -142 423 241 199 175 
70 -142 423 247 205 181 
71 -142 423 248 208 182 
72 -141 422 251 211 185 
72 -141 422 250 219 191 
73 -141 422 249 218 190 
74 -141 422 246 220 193 
74 -141 421 243 217 190 
75 -141 421 249 221 200 
75 -141 421 247 219 198 
76 -141 422 223 194 180 
68 -141 423 214 187 176 
68 -141 423 234 199 179 
69 -141 423 240 205 185 
70 -141 423 245 208 179 
70 -141 423 247 210 181 
71 -141 423 250 216 188 
72 -141 423 255 223 195 
72 -141 422 254 223 195 
73 -141 422 252 221 193 
74 -141 422 255 223 198 
74 -141 422 255 223 198 
75 -140 421 253 225 204 
76 -141 422 251 223 202 
76 -141 422 215 192 178 
66 -140 423 193 170 156 
66 -140 423 212 189 175 
68 -140 423 235 198 182 
68 -140 423 241 205 181 
69 -140 423 244 208 184 
70 -140 422 246 215 187 
70 -140 422 250 219 191 
71 -140 422 248 222 197 
72 -140 422 252 226 201 
72 -140 422 254 226 204 
73 -140 422 254 226 204 
74 -140 422 255 223 200 
74 -140 422 255 223 200 
75 -140 422 254 223 203 
76 -140 422 254 223 203 
77 -140 423 198 176 162 
66 -140 423 223 190 171 
66 -140 423 231 198 179 
67 -140 423 235 200 178 
68 -140 423 241 206 184 
68 -140 423 248 211 185 
69 -140 423 253 216 190 
70 -139 422 255 223 198 
70 -139 422 255 225 200 
71 -139 422 253 226 205 
72 -139 422 255 228 207 
72 -139 422 255 230 209 
73 -139 422 255 232 211 
74 -139 422 255 227 203 
74 -139 422 255 225 201 
75 -139 422 254 226 205 
76 -139 422 250 222 201 
77 -140 423 183 159 147 
77 -140 424 152 128 116 
64 -139 423 175 166 151 
64 -139 423 211 175 159 
65 -139 423 224 188 172 
66 -139 423 235 196 179 
66 -139 423 239 200 183 
67 -139 423 241 209 184 
68 -139 422 247 215 190 
68 -139 422 255 220 192 
69 -139 422 255 222 194 
70 -139 422 255 224 198 
70 -139 422 255 225 199 
71 -139 422 255 228 208 
72 -139 422 255 233 213 
72 -139 422 255 231 213 
73 -139 422 255 231 213 
74 -139 422 255 227 207 
74 -139 422 254 223 203 
75 -139 422 249 223 208 
76 -139 422 225 199 184 
77 -139 423 157 143 134 
64 -138 423 217 186 168 
64 -138 423 232 196 172 
65 -138 423 231 195 171 
66 -138 423 243 200 184 
66 -138 423 252 209 193 
67 -138 423 250 215 193 
68 -138 422 254 219 197 
68 -138 422 255 224 193 
69 -138 422 255 227 196 
70 -138 422 255 232 200 
70 -138 422 255 232 200 
71 -138 422 255 230 206 
72 -138 422 255 232 208 
72 -138 422 255 226 213 
73 -138 422 255 222 209 
74 -138 422 255 223 210 
74 -138 422 255 217 204 
75 -138 422 241 219 208 
76 -138 422 198 176 165 
77 -138 423 136 137 129 
63 -138 424 216 180 154 
64 -138 424 231 195 169 
64 -138 423 232 191 169 
65 -138 423 240 199 177 
66 -138 423 247 205 183 
66 -138 423 255 213 191 
67 -137 422 251 219 196 
68 -137 422 253 221 198 
68 -137 422 255 223 198 
69 -137 422 255 223 198 
70 -137 422 254 226 205 
70 -137 422 255 228 207 
71 -137 422 255 226 203 
72 -137 422 255 226 203 
72 -137 422 254 227 208 
73 -137 422 253 226 207 
74 -138 423 250 223 204 
75 -138 423 247 220 201 
75 -138 423 232 203 185 
76 -138 423 204 175 157 
62 -137 423 196 170 155 
62 -137 424 208 182 167 
63 -137 424 228 188 162 
64 -137 424 237 197 171 
64 -137 423 235 195 170 
65 -137 423 247 207 182 
66 -137 423 253 211 187 
66 -137 423 255 215 191 
67 -137 422 250 218 195 
68 -137 422 251 219 196 
68 -137 422 255 220 198 
69 -137 422 255 221 199 
70 -137 422 255 224 203 
70 -137 422 255 225 204 
71 -137 422 255 224 203 
72 -137 422 255 223 202 
72 -137 422 255 225 204 
73 -137 422 253 222 201 
74 -137 423 250 219 199 
75 -137 423 242 211 191 
75 -137 423 215 193 180 
76 -137 423 195 173 160 
62 -137 424 209 174 155 
62 -137 424 223 188 169 
63 -136 423 240 196 171 
64 -136 423 247 203 178 
64 -136 423 243 203 178 
65 -136 422 253 213 188 
66 -136 422 255 215 190 
66 -136 422 255 217 192 
67 -136 422 252 219 200 
68 -136 422 251 218 199 
68 -136 422 252 220 199 
69 -136 422 253 221 200 
70 -136 422 255 220 200 
70 -136 422 255 221 201 
71 -136 422 254 223 203 
72 -136 422 253 222 202 
72 -136 422 255 223 199 
73 -136 422 254 218 194 
74 -136 423 249 217 196 
75 -136 423 234 202 181 
75 -136 423 193 182 178 
76 -136 423 183 172 168 
61 -136 425 203 178 171 
62 -136 424 224 182 160 
62 -136 424 233 191 169 
63 -136 423 245 199 175 
64 -136 423 254 208 184 
64 -136 423 250 210 185 
65 -135 422 254 214 189 
66 -135 422 251 215 191 
66 -135 422 254 218 194 
67 -135 422 252 219 200 
68 -135 422 251 218 199 
68 -135 422 251 219 198 
69 -135 422 252 220 199 
70 -135 422 254 218 194 
70 -135 422 254 218 194 
71 -135 422 251 220 200 
72 -135 422 251 220 200 
72 -135 422 255 216 191 
73 -135 422 253 213 188 
74 -136 423 242 210 189 
75 -136 423 223 191 170 
75 -136 423 179 178 183 
60 -135 423 184 175 176 
60 -135 424 210 178 165 
61 -136 425 218 186 173 
62 -135 424 234 189 166 
62 -135 424 241 196 173 
63 -135 423 249 205 180 
64 -135 423 254 210 185 
64 -135 423 250 212 189 
65 -135 422 253 215 192 
66 -135 422 250 218 195 
66 -135 422 251 219 196 
67 -135 422 251 216 194 
68 -135 422 251 216 194 
68 -135 422 251 216 196 
69 -135 422 252 217 197 
70 -135 422 254 217 191 
70 -135 422 252 215 189 
71 -135 422 250 215 195 
72 -135 422 251 216 196 
72 -135 422 254 217 191 
73 -135 422 248 211 185 
74 -135 423 224 197 180 
75 -135 423 204 177 160 
60 -134 423 192 177 170 
60 -135 424 219 184 164 
61 -135 424 228 193 173 
62 -135 424 236 194 170 
62 -134 423 246 204 180 
63 -134 423 252 210 186 
64 -134 423 252 210 186 
64 -134 422 252 211 189 
65 -134 422 255 215 193 
66 -134 422 251 218 199 
66 -134 422 249 216 197 
67 -134 422 251 214 188 
68 -134 422 252 215 189 
68 -134 422 251 215 191 
69 -134 422 251 215 191 
70 -134 422 252 215 189 
70 -134 422 250 213 187 
71 -134 422 248 212 188 
72 -134 422 249 213 189 
72 -134 422 245 213 192 
73 -134 422 235 203 182 
74 -134 423 202 185 177 
60 -134 423 206 183 169 
60 -134 424 228 188 162 
61 -134 424 234 194 168 
62 -134 424 240 200 175 
62 -134 423 248 208 183 
63 -134 423 254 212 188 
64 -134 423 252 210 186 
64 -133 422 255 211 188 
65 -133 422 255 212 189 
66 -133 422 251 214 196 
66 -133 422 249 212 194 
67 -133 422 253 212 184 
68 -133 422 253 212 184 
68 -133 422 249 212 186 
69 -133 422 248 211 185 
70 -133 422 247 209 186 
70 -133 422 245 207 184 
71 -133 422 246 206 181 
72 -133 422 245 205 180 
72 -133 422 224 198 185 
73 -133 422 212 186 173 
74 -134 423 182 176 178 
59 -133 423 210 179 161 
60 -133 423 223 192 174 
60 -133 424 237 196 166 
61 -133 424 241 200 170 
62 -133 423 243 206 180 
62 -133 423 247 210 184 
63 -133 423 252 210 185 
64 -133 423 252 210 185 
64 -133 422 255 211 188 
65 -133 422 255 207 184 
66 -133 423 248 206 190 
66 -133 422 251 209 193 
67 -133 422 252 207 178 
68 -133 422 251 206 177 
68 -133 422 247 207 182 
69 -133 422 246 206 181 
70 -133 422 240 204 182 
70 -133 422 238 202 180 
71 -133 422 239 197 172 
72 -133 422 236 194 169 
72 -133 422 210 187 179 
73 -133 423 198 175 167 
74 -133 423 173 173 183 
58 -132 423 193 175 173 
59 -132 423 217 181 167 
60 -132 423 227 191 177 
60 -132 423 241 198 179 
61 -133 424 245 202 183 
62 -132 423 250 207 188 
62 -132 423 252 209 190 
63 -132 423 250 208 186 
64 -132 423 250 208 186 
64 -132 423 249 208 180 
65 -132 422 243 202 174 
66 -132 423 243 204 171 
66 -132 422 249 210 177 
67 -132 422 249 208 190 
68 -132 423 247 206 188 
68 -132 422 246 205 177 
69 -132 422 243 202 174 
70 -132 423 242 199 167 
70 -132 422 238 195 163 
71 -132 422 223 191 166 
72 -132 423 217 185 160 
73 -132 423 190 177 168 
73 -132 423 188 175 166 
58 -132 423 201 178 172 
59 -132 423 229 192 174 
60 -132 423 238 201 183 
60 -132 423 245 203 179 
61 -132 423 246 204 180 
62 -132 423 251 207 182 
62 -132 423 251 207 182 
63 -132 423 249 205 178 
64 -132 423 246 202 175 
64 -132 423 244 200 171 
65 -132 423 241 197 168 
66 -132 423 242 199 165 
66 -132 423 247 204 170 
67 -132 423 245 205 180 
68 -132 423 244 204 179 
68 -132 423 245 200 171 
69 -132 423 240 195 166 
70 -132 423 232 189 157 
71 -132 423 226 183 151 
71 -131 422 207 179 158 
72 -131 422 201 173 152 
72 -131 422 184 173 167 
73 -132 423 183 172 166 
58 -131 423 207 175 164 
58 -131 423 210 178 167 
59 -131 423 230 192 173 
60 -131 423 240 202 183 
60 -131 423 245 203 178 
61 -131 424 248 206 181 
62 -131 423 250 205 174 
62 -131 423 246 201 170 
63 -131 423 245 199 166 
64 -131 423 241 195 162 
64 -131 423 241 192 159 
65 -131 423 242 193 160 
66 -131 423 241 192 159 
66 -131 423 245 196 163 
67 -131 423 245 202 170 
68 -131 423 240 197 165 
68 -131 423 235 189 155 
69 -131 423 228 182 148 
70 -131 423 219 178 150 
71 -131 423 215 174 146 
71 -131 423 198 172 159 
72 -131 422 194 168 155 
60 -130 423 245 207 186 
60 -130 423 242 201 173 
61 -130 423 240 199 171 
62 -130 423 244 200 165 
62 -130 423 238 194 159 
63 -130 423 241 191 154 
64 -130 423 237 187 150 
64 -130 423 239 186 152 
65 -130 423 240 187 153 
66 -130 423 236 183 151 
66 -130 423 237 184 152 
67 -130 423 227 181 145 
68 -130 423 225 179 143 
68 -130 423 221 172 139 
69 -130 422 212 163 130 
70 -130 422 198 157 135 
71 -130 423 197 156 134 
71 -130 423 183 162 157 
72 -130 423 186 165 160 
60 -130 423 249 211 190 
60 -130 423 243 202 174 
61 -130 423 234 193 165 
62 -130 423 236 190 156 
62 -130 423 232 186 152 
63 -130 423 237 185 148 
64 -130 423 232 180 143 
64 -130 423 230 176 140 
65 -130 423 229 175 139 
66 -130 423 224 167 137 
66 -130 423 223 166 136 
67 -130 423 221 169 130 
68 -130 423 217 165 126 
68 -130 423 206 159 129 
69 -130 423 202 155 125 
70 -130 423 191 159 144 
71 -130 423 195 163 148 
71 -130 423 183 169 169 
72 -130 423 183 169 169 
61 -129 423 231 189 164 
62 -129 423 230 180 147 
62 -129 423 227 177 144 
63 -129 423 229 175 139 
64 -129 423 224 170 134 
64 -129 423 219 163 128 
65 -129 423 213 157 122 
66 -129 424 207 151 118 
67 -129 424 208 152 119 
67 -129 424 206 152 114 
68 -129 424 204 150 112 
69 -129 424 186 146 121 
69 -129 423 177 137 112 
70 -129 424 156 136 129 
71 -129 423 154 134 127 
61 -128 423 226 182 157 
62 -128 423 222 169 138 
62 -128 423 215 162 131 
63 -128 423 212 156 123 
64 -128 423 209 153 120 
65 -129 424 202 146 111 
65 -129 424 195 139 104 
66 -129 424 194 135 101 
67 -129 424 194 135 101 
67 -129 424 193 139 105 
68 -129 424 196 142 108 
69 -129 424 179 146 129 
69 -128 423 177 144 127 
70 -128 424 161 151 150 
61 -128 423 225 179 155 
62 -128 423 212 157 127 
63 -128 424 201 146 116 
63 -128 424 196 137 105 
64 -128 424 194 135 103 
65 -128 424 189 130 96 
65 -128 424 184 125 91 
66 -128 424 183 125 88 
67 -128 424 181 123 86 
67 -128 424 179 124 94 
68 -128 424 191 136 106 
69 -128 424 178 151 140 
69 -128 424 179 152 141 
70 -128 424 159 157 160 
62 -127 423 193 139 111 
63 -127 424 183 129 101 
63 -127 424 181 123 86 
64 -127 424 179 121 84 
65 -127 424 174 116 79 
65 -127 424 170 112 75 
66 -127 425 169 111 74 
67 -127 425 167 109 72 
67 -127 425 139 118 113 
68 -127 425 145 124 119 
62 -127 424 182 126 101 
63 -127 424 168 112 87 
63 -127 424 160 103 74 
64 -127 425 158 101 72 
65 -127 425 151 101 76 
65 -127 425 152 102 77 
66 -127 425 152 107 88 
67 -127 425 152 107 88 
67 -127 425 124 112 112 
68 -127 425 127 115 115 
62 -126 424 158 106 85 
63 -126 425 147 95 74 
63 -126 425 138 89 74 
64 -126 426 142 93 78 
65 -126 426 134 100 91 
62 -125 425 131 91 81 
63 -125 425 127 87 77 
63 -125 425 125 91 89 
64 -126 426 134 100 98 
65 -126 426 128 109 113 
62 -125 425 138 110 109 
63 -125 425 135 107 106 
64 -125 426 129 110 114 
