ply
format ascii 1.0
comment Created by CloudCompare v2.10.1 (Zephyrus)
comment Created 2020-05-06 7:44 PM
obj_info Generated by CloudCompare!
element vertex 1266
property float x
property float y
property float z
property uchar red
property uchar green
property uchar blue
end_header
51 -126 421 228 174 162 
51 -127 422 236 182 170 
51 -126 421 242 186 169 
51 -126 422 246 190 173 
52 -126 421 243 195 175 
48 -125 422 207 165 151 
49 -125 421 225 183 169 
49 -125 421 239 187 166 
50 -125 421 241 189 168 
51 -125 421 244 192 170 
51 -125 422 251 199 177 
52 -125 421 255 208 185 
53 -125 422 254 206 183 
53 -125 421 248 202 178 
54 -125 421 234 188 164 
47 -125 422 173 140 131 
47 -125 422 206 173 164 
48 -125 422 230 182 160 
49 -124 421 234 186 164 
49 -124 421 245 195 170 
50 -124 421 244 194 169 
51 -124 421 244 196 173 
51 -124 421 252 204 181 
52 -124 421 254 208 184 
53 -125 422 251 205 181 
53 -124 421 255 209 183 
54 -124 421 249 202 176 
55 -124 421 227 179 156 
55 -124 421 219 171 148 
46 -124 423 174 143 138 
47 -124 422 213 172 154 
47 -124 422 229 188 170 
48 -124 421 232 185 159 
49 -124 421 236 189 163 
49 -124 421 247 201 175 
50 -124 421 247 201 175 
51 -124 421 253 208 185 
51 -124 421 253 208 185 
52 -124 421 255 208 185 
53 -124 421 254 206 183 
53 -124 421 255 205 180 
54 -124 421 255 209 184 
55 -124 421 248 198 173 
55 -124 421 219 169 144 
45 -123 422 196 150 134 
46 -123 422 221 175 159 
47 -123 422 232 185 159 
47 -123 421 234 187 161 
48 -123 421 245 196 166 
49 -123 421 248 199 169 
49 -123 421 249 203 177 
50 -123 421 255 213 187 
51 -123 421 253 208 185 
51 -123 421 255 210 187 
52 -123 421 255 208 185 
53 -123 421 255 209 186 
53 -123 421 255 206 179 
54 -123 421 255 208 181 
55 -123 421 255 206 177 
55 -123 421 235 184 155 
56 -123 422 208 154 128 
45 -123 422 223 173 146 
46 -122 421 232 182 155 
46 -122 421 237 186 157 
47 -122 421 239 188 159 
48 -122 421 248 197 170 
49 -122 421 255 205 178 
49 -122 421 255 211 185 
50 -122 421 255 211 185 
51 -122 421 250 204 181 
51 -122 421 255 210 187 
52 -122 421 255 209 186 
53 -122 421 255 209 186 
53 -122 421 255 207 182 
54 -122 421 254 204 179 
55 -122 421 251 200 171 
55 -123 422 243 192 163 
56 -123 422 218 164 136 
43 -122 422 178 151 142 
43 -122 422 183 156 147 
44 -122 422 205 163 149 
45 -122 422 219 177 163 
45 -122 422 228 179 147 
46 -122 421 231 182 150 
46 -122 421 240 189 160 
47 -122 421 248 197 168 
48 -122 421 255 203 179 
49 -122 421 255 209 185 
49 -122 421 255 212 190 
50 -122 421 255 212 190 
51 -122 421 255 209 187 
51 -122 421 255 209 187 
52 -122 421 255 212 191 
53 -122 421 254 209 188 
53 -122 421 251 205 181 
54 -122 421 249 203 179 
55 -122 421 245 195 168 
55 -122 422 236 186 159 
56 -122 422 221 170 139 
57 -122 422 173 122 91 
57 -122 422 155 109 86 
42 -121 422 165 147 147 
43 -121 422 191 155 139 
43 -121 422 204 168 152 
44 -121 422 226 173 141 
45 -121 422 231 178 146 
45 -121 421 230 179 148 
46 -121 421 237 186 155 
46 -121 420 246 192 164 
47 -121 420 252 198 170 
48 -121 420 255 202 178 
48 -121 420 255 206 182 
49 -121 420 255 207 184 
50 -121 420 255 206 183 
50 -121 420 255 212 189 
51 -121 420 255 212 189 
52 -121 421 255 210 187 
53 -121 421 253 208 185 
53 -121 420 252 202 177 
54 -121 421 245 195 170 
55 -121 421 244 184 156 
55 -121 422 228 168 140 
56 -121 422 221 167 139 
57 -122 423 177 123 95 
42 -121 422 186 161 156 
43 -121 422 209 168 148 
43 -121 422 215 174 154 
44 -121 422 230 177 145 
45 -121 422 236 183 151 
45 -120 421 236 185 154 
46 -120 421 243 192 161 
46 -120 420 252 198 170 
47 -120 420 255 201 173 
48 -120 420 255 204 180 
48 -120 420 255 206 182 
49 -120 420 255 207 182 
50 -120 420 255 208 183 
50 -120 420 255 213 186 
51 -120 420 254 210 183 
52 -120 421 249 208 180 
53 -120 421 248 207 179 
53 -120 421 243 196 166 
54 -120 421 232 185 155 
55 -121 422 230 175 144 
55 -121 422 219 164 133 
56 -121 423 215 164 135 
57 -121 423 191 140 111 
58 -121 423 164 134 123 
41 -120 422 198 161 145 
42 -120 422 210 173 157 
42 -120 421 223 176 150 
43 -120 421 225 178 152 
44 -120 421 235 182 150 
44 -120 421 241 188 156 
45 -120 421 245 194 165 
46 -119 420 251 200 171 
46 -119 420 255 204 177 
47 -119 420 255 204 177 
48 -119 420 255 205 181 
48 -119 420 255 206 182 
49 -119 420 255 208 182 
50 -119 420 255 208 182 
50 -119 420 255 214 185 
51 -119 420 252 208 179 
52 -120 421 248 207 175 
53 -120 421 243 202 170 
53 -120 421 234 189 156 
54 -120 421 224 179 146 
55 -120 422 218 169 136 
55 -120 422 207 158 125 
56 -120 423 195 145 118 
57 -120 424 193 143 116 
58 -120 424 168 150 146 
40 -119 421 186 152 143 
40 -119 421 196 162 153 
41 -119 421 219 168 147 
42 -119 421 224 173 152 
42 -119 421 230 175 145 
43 -119 421 235 180 150 
44 -119 421 243 190 159 
44 -119 420 249 196 165 
45 -119 420 249 202 174 
46 -119 420 253 206 178 
46 -118 419 254 207 181 
47 -118 419 253 206 180 
48 -118 419 254 206 183 
48 -119 420 255 208 185 
49 -119 420 255 208 182 
50 -119 420 254 207 181 
50 -119 420 255 210 179 
51 -119 420 252 207 176 
52 -119 421 247 202 169 
53 -119 421 236 191 158 
53 -119 421 227 181 148 
54 -119 422 222 176 143 
55 -119 422 211 162 130 
55 -119 422 196 147 115 
56 -120 423 175 133 109 
57 -120 424 183 141 117 
39 -118 421 185 157 153 
40 -119 422 205 163 149 
40 -118 421 211 169 155 
41 -118 421 228 172 147 
42 -118 421 231 175 150 
42 -118 421 237 180 150 
43 -118 420 246 189 159 
44 -118 420 250 199 170 
44 -118 420 255 204 175 
45 -118 420 251 207 180 
46 -118 420 252 208 181 
46 -118 420 252 208 183 
47 -118 419 252 208 183 
48 -118 419 253 207 184 
48 -118 420 255 210 187 
49 -118 420 255 210 184 
50 -118 420 254 207 181 
50 -118 420 254 205 173 
51 -118 420 249 200 168 
52 -118 421 243 193 158 
53 -119 422 232 182 147 
53 -119 422 224 173 142 
54 -119 422 216 165 134 
55 -119 423 199 149 122 
56 -119 423 183 133 106 
56 -119 424 175 142 125 
38 -118 422 173 152 149 
38 -118 422 192 158 149 
39 -118 422 204 170 161 
40 -118 422 218 171 153 
40 -118 421 217 170 152 
41 -118 421 228 172 147 
42 -118 421 237 181 156 
42 -118 421 246 193 162 
43 -117 420 252 199 168 
44 -117 420 254 204 177 
44 -117 419 255 208 181 
45 -117 420 250 206 177 
46 -117 420 251 207 178 
46 -117 419 251 209 184 
47 -117 419 251 209 184 
48 -117 419 253 208 185 
48 -117 420 254 209 186 
49 -117 420 255 209 183 
50 -117 420 252 205 179 
50 -117 420 249 199 166 
51 -118 421 241 191 158 
52 -118 422 235 182 148 
53 -118 422 230 177 143 
53 -118 422 217 168 138 
54 -118 423 201 152 122 
55 -118 423 183 137 114 
56 -118 424 175 129 106 
38 -117 422 187 162 158 
38 -117 421 210 168 154 
39 -117 421 217 175 161 
40 -117 421 223 173 150 
40 -117 421 224 174 151 
41 -117 420 230 179 152 
42 -117 420 240 189 162 
42 -117 420 247 197 172 
43 -117 420 253 203 178 
44 -117 420 255 206 179 
44 -116 419 255 207 180 
45 -116 419 251 206 177 
46 -116 419 252 207 178 
46 -116 419 254 208 184 
47 -116 419 255 209 185 
48 -116 419 254 207 187 
48 -117 420 254 207 187 
49 -117 420 251 204 178 
50 -117 420 245 198 172 
51 -117 421 242 192 159 
51 -117 421 234 184 151 
52 -117 422 225 175 140 
53 -117 422 219 169 134 
54 -117 423 200 155 126 
54 -117 423 183 138 109 
55 -117 423 175 137 118 
56 -118 424 177 139 120 
37 -117 424 177 159 159 
37 -117 424 195 166 160 
38 -117 423 208 179 173 
38 -117 422 225 179 163 
39 -116 421 222 176 160 
40 -116 421 226 172 148 
40 -116 421 233 179 155 
41 -116 420 240 190 165 
42 -116 420 243 193 168 
42 -116 420 243 197 173 
43 -116 420 250 204 180 
44 -116 419 255 209 182 
44 -116 419 255 207 180 
45 -116 419 255 205 180 
46 -116 419 255 206 181 
46 -116 419 255 207 185 
47 -116 419 255 207 185 
48 -116 419 254 207 189 
48 -116 420 252 205 187 
49 -116 420 246 198 175 
50 -116 420 239 191 168 
51 -116 421 234 185 153 
51 -117 422 230 181 149 
52 -117 422 218 169 136 
53 -117 422 205 156 123 
54 -117 424 179 139 113 
54 -117 424 170 130 104 
55 -117 424 174 142 127 
37 -117 425 194 174 165 
37 -117 424 219 187 174 
38 -116 423 227 195 182 
38 -116 422 230 188 166 
39 -116 421 220 178 156 
40 -116 421 232 182 157 
40 -116 421 237 187 162 
41 -115 420 245 191 165 
42 -115 420 250 196 170 
42 -115 420 250 198 176 
43 -115 419 251 199 177 
44 -115 419 252 201 182 
44 -115 419 255 205 186 
45 -115 419 255 209 182 
46 -115 419 255 207 180 
46 -115 419 255 212 184 
47 -115 419 255 210 182 
48 -115 419 253 202 181 
48 -115 420 249 198 177 
49 -115 420 239 192 164 
50 -115 420 233 186 158 
51 -116 421 233 179 153 
51 -116 422 227 173 147 
52 -116 422 207 162 131 
53 -116 422 188 143 112 
54 -116 424 178 132 109 
54 -116 424 189 143 120 
35 -116 425 173 154 147 
35 -116 425 180 161 154 
36 -116 424 198 174 164 
37 -116 424 213 189 179 
37 -116 423 231 198 181 
38 -115 422 234 201 184 
38 -115 422 239 194 173 
39 -115 421 232 187 166 
40 -115 421 242 192 167 
40 -115 421 245 195 170 
41 -115 420 250 198 174 
42 -115 420 254 202 178 
42 -115 420 255 203 181 
43 -115 420 254 202 180 
44 -114 419 253 202 183 
44 -114 419 255 204 185 
45 -114 419 255 210 183 
46 -114 419 255 208 181 
46 -114 419 254 206 183 
47 -114 419 251 203 180 
48 -115 420 247 197 170 
48 -115 420 240 190 163 
49 -115 421 235 184 157 
50 -115 421 232 181 154 
51 -115 422 222 173 143 
51 -115 422 212 163 133 
52 -115 422 194 143 114 
53 -115 423 183 132 103 
54 -116 424 176 144 131 
34 -115 424 175 157 157 
35 -115 424 187 160 151 
35 -115 424 201 174 165 
36 -115 423 220 191 177 
36 -115 423 231 202 188 
37 -115 422 244 206 187 
38 -114 421 244 206 187 
38 -114 421 247 202 179 
39 -114 421 245 200 177 
40 -114 421 253 203 180 
40 -114 421 254 204 181 
41 -114 420 255 205 180 
42 -114 420 255 206 181 
42 -114 420 255 207 184 
43 -114 420 254 206 183 
44 -114 419 254 206 184 
44 -114 419 254 206 184 
45 -114 419 255 210 184 
46 -114 419 255 208 182 
46 -114 419 250 202 179 
47 -114 419 245 197 174 
48 -114 420 241 192 160 
48 -114 420 231 182 150 
49 -114 421 228 174 146 
50 -114 421 227 173 145 
51 -115 422 216 169 139 
51 -115 422 197 150 120 
52 -115 423 182 132 109 
53 -115 424 185 135 112 
33 -114 423 180 160 159 
34 -114 423 181 161 160 
34 -114 423 207 175 164 
35 -114 422 219 187 176 
36 -114 422 234 198 182 
36 -114 421 240 204 188 
37 -114 421 248 205 186 
38 -114 421 250 207 188 
38 -114 421 254 208 185 
39 -114 421 252 206 183 
40 -114 421 255 207 184 
40 -113 420 254 206 183 
41 -113 420 253 207 183 
42 -113 420 254 208 184 
42 -113 420 254 208 185 
43 -113 420 254 208 185 
44 -113 419 254 208 185 
44 -113 419 255 209 186 
45 -113 419 253 209 184 
46 -113 419 252 208 183 
46 -113 419 248 198 171 
47 -113 420 241 191 164 
48 -113 420 235 186 153 
48 -113 420 226 177 144 
49 -114 421 224 169 139 
50 -114 421 218 163 133 
51 -114 422 205 156 124 
51 -114 422 183 134 102 
52 -114 423 173 134 119 
33 -114 423 189 164 160 
34 -113 422 198 173 169 
34 -113 421 224 187 171 
35 -113 421 232 195 179 
36 -113 421 243 202 184 
36 -113 420 245 204 186 
37 -113 420 250 205 184 
38 -113 420 254 209 188 
38 -113 421 255 209 186 
39 -113 420 253 207 184 
40 -113 420 252 207 184 
40 -113 420 252 207 184 
41 -113 420 252 207 184 
42 -113 420 253 208 185 
42 -113 420 254 209 186 
43 -113 420 254 209 186 
44 -112 419 255 211 186 
44 -112 419 254 210 185 
45 -113 420 255 209 186 
46 -113 420 250 204 181 
46 -113 420 246 193 159 
47 -113 420 237 184 150 
48 -113 420 231 178 147 
48 -113 420 225 172 141 
49 -113 421 213 164 131 
50 -113 422 199 150 117 
51 -113 422 187 136 109 
51 -113 422 183 132 105 
52 -113 423 171 152 145 
32 -113 424 186 163 157 
32 -113 423 187 164 158 
33 -113 422 204 174 166 
34 -112 421 218 188 180 
34 -112 420 237 194 177 
35 -112 420 243 200 183 
36 -112 420 248 205 186 
36 -112 420 249 206 187 
37 -112 420 252 207 186 
38 -112 420 255 210 189 
38 -112 420 255 210 187 
39 -112 420 253 208 185 
40 -112 420 252 207 184 
40 -112 420 252 207 184 
41 -112 420 253 209 184 
42 -112 420 253 209 184 
42 -112 420 254 210 185 
43 -112 420 254 210 185 
44 -112 420 254 210 183 
44 -112 419 253 209 182 
45 -112 420 251 204 178 
46 -112 420 244 197 171 
46 -112 420 241 187 151 
47 -112 420 234 180 144 
48 -112 420 227 174 143 
49 -112 421 218 165 134 
49 -112 421 196 150 116 
50 -113 422 178 132 98 
51 -113 423 171 126 107 
52 -113 423 188 143 124 
30 -112 424 181 163 159 
31 -112 424 184 166 162 
32 -112 423 196 168 157 
32 -112 422 203 175 164 
33 -112 421 221 185 171 
34 -111 420 233 197 183 
34 -111 420 246 199 179 
35 -111 420 251 204 184 
35 -111 419 255 208 188 
36 -111 419 255 208 188 
37 -111 419 255 210 189 
38 -111 419 255 211 190 
38 -111 419 255 211 188 
39 -111 419 255 210 187 
40 -111 420 254 208 184 
40 -111 420 254 208 184 
41 -111 419 254 208 182 
42 -111 420 254 208 182 
42 -111 420 254 208 182 
43 -111 419 254 208 182 
44 -111 419 252 207 178 
44 -111 420 249 204 175 
45 -111 420 245 194 163 
46 -111 420 238 187 156 
46 -111 420 234 181 149 
47 -112 421 227 174 142 
48 -112 421 221 165 132 
49 -112 421 206 150 117 
49 -112 422 181 136 107 
50 -112 422 171 126 97 
51 -112 423 173 145 134 
30 -112 423 185 165 158 
31 -112 423 189 169 162 
32 -111 422 207 175 162 
32 -111 421 217 185 172 
33 -111 421 233 191 175 
34 -111 420 239 197 181 
34 -110 419 249 201 179 
35 -110 419 255 207 185 
35 -110 419 255 210 190 
36 -110 419 255 210 190 
37 -110 419 255 212 191 
38 -110 419 255 212 191 
38 -110 419 255 210 187 
39 -110 419 255 211 188 
40 -110 419 253 207 183 
40 -110 419 253 207 183 
41 -110 419 255 208 180 
42 -110 419 255 209 181 
42 -110 419 255 208 180 
43 -110 419 254 207 179 
44 -110 419 250 203 175 
44 -111 420 244 197 169 
45 -111 420 243 190 156 
46 -111 420 235 182 148 
47 -111 421 225 175 148 
47 -111 421 215 165 138 
48 -111 421 209 153 116 
49 -111 422 194 138 101 
49 -111 422 176 128 105 
50 -111 423 180 132 109 
28 -110 420 177 165 167 
29 -111 422 179 161 159 
30 -111 422 180 162 160 
30 -111 422 193 165 154 
31 -111 422 201 173 162 
32 -110 421 217 180 162 
32 -110 420 225 188 170 
33 -110 420 237 194 175 
34 -110 420 242 199 180 
34 -110 419 249 207 183 
35 -110 419 252 210 186 
35 -110 419 253 211 189 
36 -110 419 252 210 188 
37 -110 419 253 210 191 
38 -110 419 254 211 192 
38 -110 419 255 209 189 
39 -110 419 253 206 186 
40 -110 419 254 206 184 
40 -110 419 255 207 185 
41 -110 419 255 207 184 
42 -110 419 254 206 183 
42 -110 419 255 210 182 
43 -110 419 251 204 176 
44 -110 419 246 197 165 
44 -110 420 237 188 156 
45 -110 420 234 184 149 
46 -110 420 225 175 140 
47 -110 421 216 167 135 
47 -110 421 207 158 126 
48 -110 421 200 142 105 
49 -110 422 187 129 92 
50 -111 423 171 135 121 
50 -111 423 182 146 132 
27 -109 420 180 166 165 
28 -109 420 181 167 166 
29 -110 421 183 162 157 
30 -110 421 188 167 162 
30 -110 421 205 173 160 
31 -110 421 213 181 168 
31 -109 420 225 187 168 
32 -109 420 232 194 175 
33 -109 419 243 201 179 
33 -109 419 248 206 184 
34 -109 419 250 210 185 
35 -109 419 251 211 186 
35 -109 419 252 211 189 
36 -109 419 252 211 189 
37 -109 419 254 211 192 
38 -109 419 255 213 194 
38 -109 419 255 210 189 
39 -109 419 250 205 184 
40 -109 419 249 203 180 
40 -109 419 252 206 183 
41 -109 419 251 205 181 
42 -109 419 248 202 178 
42 -109 419 250 203 173 
43 -109 419 242 195 165 
44 -109 419 238 189 156 
44 -109 420 232 183 150 
45 -109 420 225 172 138 
46 -109 420 222 169 135 
47 -110 421 204 151 119 
47 -110 421 192 139 107 
48 -110 421 178 127 98 
49 -110 422 173 122 93 
27 -109 420 184 165 161 
28 -109 420 185 166 162 
29 -109 420 192 165 156 
29 -109 420 201 174 165 
30 -109 420 218 183 164 
31 -109 420 224 189 170 
31 -108 419 234 192 170 
32 -108 419 240 198 176 
33 -108 419 249 204 181 
33 -108 419 252 207 184 
34 -108 419 251 210 188 
35 -108 419 252 211 189 
35 -108 419 253 212 190 
36 -108 419 253 212 190 
37 -108 418 255 212 193 
38 -108 419 255 213 194 
38 -108 419 255 210 189 
39 -108 419 249 204 183 
40 -108 419 253 207 184 
40 -108 419 254 208 185 
41 -108 419 253 206 180 
42 -108 419 247 200 174 
42 -108 419 245 196 164 
43 -109 420 233 184 152 
44 -109 420 228 178 145 
44 -109 420 224 174 141 
45 -109 421 220 166 132 
46 -109 421 217 163 129 
47 -109 421 203 147 112 
47 -109 422 184 128 93 
48 -109 422 170 131 114 
27 -108 421 190 165 158 
28 -108 420 193 168 161 
29 -108 420 204 171 156 
29 -108 419 215 182 167 
30 -108 419 231 190 170 
31 -108 419 234 193 173 
31 -108 419 240 195 172 
32 -108 419 246 201 178 
33 -108 419 252 207 184 
33 -108 419 253 208 185 
34 -108 419 251 210 188 
35 -108 419 253 212 190 
35 -108 419 255 213 191 
36 -107 418 254 212 190 
37 -107 418 255 211 190 
38 -108 419 255 211 190 
38 -108 419 255 208 188 
39 -107 418 251 204 184 
40 -108 419 255 207 184 
40 -108 419 255 206 183 
41 -108 419 254 203 176 
42 -108 419 246 195 168 
42 -108 419 242 189 158 
43 -108 420 230 177 146 
44 -108 420 224 171 137 
44 -108 420 219 166 132 
45 -108 421 215 156 122 
46 -108 421 202 143 109 
47 -108 422 185 129 96 
47 -108 422 178 122 89 
48 -109 423 176 149 142 
27 -108 421 186 167 163 
27 -108 421 199 169 158 
28 -107 420 205 175 164 
29 -107 419 221 183 164 
29 -107 419 230 192 173 
30 -107 419 241 196 173 
31 -107 419 242 197 174 
31 -107 419 245 200 177 
32 -107 419 252 207 184 
33 -107 419 255 211 188 
33 -107 419 255 211 188 
34 -107 419 251 210 188 
35 -107 419 253 212 190 
35 -107 419 255 213 191 
36 -107 419 254 212 190 
37 -107 418 255 211 190 
38 -107 419 255 210 189 
38 -107 419 254 207 187 
39 -107 418 252 205 185 
40 -107 419 255 207 184 
40 -107 419 252 202 179 
41 -107 419 248 197 168 
42 -107 419 242 191 162 
42 -107 419 237 184 152 
43 -107 420 225 172 140 
44 -107 420 219 165 131 
44 -107 420 211 157 123 
45 -108 421 204 145 113 
46 -108 422 191 132 100 
47 -108 422 176 124 100 
47 -108 422 193 141 117 
26 -107 421 190 167 159 
27 -107 421 191 168 160 
27 -107 421 210 173 155 
28 -107 420 220 183 165 
29 -106 419 235 190 167 
29 -106 419 241 196 173 
30 -106 419 247 201 177 
31 -106 419 248 202 178 
31 -106 419 250 205 182 
32 -106 419 255 210 187 
33 -106 419 255 214 191 
33 -106 419 255 213 190 
34 -106 419 252 212 187 
35 -106 419 253 213 188 
35 -106 419 254 212 188 
36 -106 419 253 211 187 
37 -106 418 255 210 187 
37 -106 418 255 210 187 
38 -106 419 253 207 184 
39 -106 418 250 204 181 
40 -106 419 253 205 182 
40 -106 419 245 197 174 
41 -106 419 243 192 163 
42 -106 419 237 186 157 
42 -106 419 233 180 148 
43 -107 420 220 167 135 
44 -107 420 211 158 124 
45 -107 421 199 146 112 
45 -107 422 192 135 108 
46 -107 422 179 122 95 
25 -106 421 185 169 169 
26 -106 421 197 169 157 
27 -106 421 201 173 161 
27 -106 420 221 179 157 
28 -106 420 231 189 167 
29 -106 419 242 192 165 
29 -106 419 247 197 170 
30 -106 419 250 202 179 
31 -105 418 252 204 181 
31 -105 418 252 207 184 
32 -105 418 255 211 188 
33 -106 419 255 212 191 
33 -106 419 255 212 191 
34 -106 419 253 211 186 
35 -106 419 253 211 186 
35 -106 419 255 211 186 
36 -106 419 254 210 185 
37 -105 418 255 209 185 
37 -105 418 255 209 185 
38 -106 419 251 205 182 
39 -105 418 247 201 178 
40 -106 419 244 196 173 
40 -106 419 237 189 166 
41 -106 419 235 184 155 
42 -106 419 230 179 150 
42 -106 419 224 174 141 
43 -106 420 212 162 129 
44 -106 420 201 151 116 
45 -106 421 188 138 103 
45 -106 422 178 128 105 
46 -107 423 184 134 111 
24 -105 419 181 171 172 
25 -105 420 187 169 165 
25 -106 421 189 171 167 
26 -106 421 206 174 159 
27 -106 421 212 180 165 
27 -105 420 231 185 161 
28 -105 419 239 193 169 
29 -105 419 245 194 165 
29 -105 419 250 199 170 
30 -105 418 253 206 180 
31 -105 418 255 209 183 
31 -105 418 255 210 187 
32 -105 418 255 211 188 
33 -105 418 255 211 190 
33 -105 418 255 212 191 
34 -105 418 255 209 183 
35 -105 418 255 209 183 
35 -105 418 255 210 184 
36 -105 418 255 209 183 
37 -105 418 255 207 184 
37 -105 418 254 206 183 
38 -105 418 251 203 181 
39 -105 418 246 198 176 
40 -105 419 241 191 168 
40 -105 419 235 185 162 
41 -105 419 231 180 151 
42 -105 420 223 172 143 
42 -105 420 218 165 133 
43 -105 420 204 151 119 
44 -106 421 190 140 107 
45 -106 421 176 126 93 
45 -106 422 173 126 106 
24 -105 422 183 167 167 
25 -105 422 195 165 155 
25 -105 422 202 172 162 
26 -105 421 218 177 159 
27 -105 421 224 183 165 
27 -105 420 232 190 166 
28 -104 419 238 196 172 
29 -104 419 245 200 177 
29 -104 419 250 205 182 
30 -104 418 255 208 185 
31 -104 418 255 208 185 
31 -104 418 255 207 184 
32 -104 418 255 206 183 
33 -104 418 253 209 184 
33 -104 418 255 211 186 
34 -104 418 255 213 191 
35 -104 418 254 212 190 
35 -104 418 253 209 184 
36 -104 418 253 209 184 
37 -104 418 254 207 177 
37 -104 418 250 203 173 
38 -104 419 251 201 168 
39 -104 418 246 196 163 
40 -104 419 239 186 155 
40 -104 419 233 180 149 
41 -105 420 222 168 140 
42 -105 420 216 162 134 
42 -105 420 207 155 131 
43 -105 421 194 142 118 
44 -105 421 181 131 108 
23 -104 422 188 169 163 
24 -104 422 186 167 161 
25 -104 422 201 167 155 
25 -104 422 208 174 162 
26 -104 421 224 179 158 
27 -104 420 230 185 164 
27 -104 420 238 194 169 
28 -104 419 243 199 174 
29 -104 419 250 204 180 
29 -104 419 252 206 182 
30 -104 419 255 207 182 
31 -104 419 255 207 182 
31 -103 418 255 206 181 
32 -103 418 255 206 181 
33 -103 418 254 208 182 
33 -103 418 254 208 182 
34 -103 418 253 207 183 
35 -103 418 252 206 182 
35 -103 418 250 203 175 
36 -103 418 249 202 174 
37 -103 418 249 198 167 
37 -103 418 246 195 164 
38 -104 419 244 194 159 
39 -104 419 240 190 155 
40 -104 419 234 181 147 
40 -104 419 223 170 136 
41 -104 420 215 162 131 
42 -104 420 204 151 120 
42 -104 420 194 142 120 
43 -104 421 181 129 107 
23 -104 423 181 172 173 
23 -104 423 195 168 157 
24 -104 422 195 168 157 
25 -104 421 209 170 153 
25 -104 421 216 177 160 
26 -104 421 229 181 158 
27 -103 420 238 190 167 
27 -103 420 246 199 171 
28 -103 419 250 203 175 
29 -103 419 254 207 179 
29 -103 419 253 206 178 
30 -103 418 255 206 179 
31 -103 418 255 206 179 
31 -103 418 255 205 178 
32 -103 418 255 205 178 
33 -103 418 253 206 178 
33 -103 418 252 205 177 
34 -103 418 250 203 177 
35 -103 418 248 201 175 
35 -103 418 250 199 170 
36 -103 418 246 195 166 
37 -103 418 243 190 158 
38 -103 419 241 188 156 
38 -103 419 233 183 148 
39 -103 419 227 177 142 
40 -103 420 220 168 131 
40 -103 420 215 163 126 
41 -103 420 204 149 118 
42 -104 421 196 141 110 
42 -104 421 175 128 108 
43 -104 421 171 124 104 
23 -103 423 184 173 171 
23 -103 423 201 168 151 
24 -103 421 204 171 154 
25 -103 421 220 175 154 
25 -103 420 227 182 161 
26 -103 420 238 187 160 
27 -103 420 246 195 168 
27 -103 420 252 203 173 
28 -102 419 255 206 176 
29 -102 419 252 205 177 
29 -102 418 252 205 177 
30 -102 417 255 205 178 
31 -102 417 255 205 178 
31 -102 417 255 203 177 
32 -102 417 255 201 175 
33 -102 417 250 201 171 
33 -102 417 250 201 171 
34 -102 417 250 200 173 
35 -102 418 246 196 169 
35 -102 418 247 194 163 
36 -102 418 240 187 156 
37 -102 418 236 183 151 
38 -102 419 232 179 147 
38 -103 420 221 168 136 
39 -103 420 212 159 127 
40 -103 420 206 150 115 
40 -103 421 202 146 111 
41 -103 421 195 140 110 
42 -103 421 178 123 93 
23 -103 423 190 173 166 
23 -102 422 209 171 150 
24 -102 421 216 178 157 
25 -102 420 230 182 159 
25 -102 420 236 188 165 
26 -102 419 246 192 164 
27 -102 419 251 197 169 
27 -102 419 252 201 170 
28 -102 419 254 203 172 
29 -101 418 253 203 176 
29 -101 418 253 203 176 
30 -101 418 254 203 176 
31 -101 417 254 203 176 
31 -101 417 255 201 173 
32 -101 418 252 198 170 
33 -101 418 248 197 166 
33 -101 418 248 197 166 
34 -101 418 247 194 162 
35 -101 418 242 189 157 
35 -101 418 236 183 151 
36 -102 419 228 175 143 
37 -102 419 225 172 140 
38 -102 419 222 169 137 
38 -102 420 213 156 126 
39 -102 420 204 147 117 
40 -102 420 204 143 112 
40 -102 421 198 137 106 
41 -102 421 181 127 103 
22 -102 423 196 170 157 
23 -102 423 199 173 160 
23 -102 421 218 176 152 
24 -102 421 227 185 161 
25 -101 420 240 190 165 
25 -101 419 244 194 169 
26 -101 419 252 196 169 
27 -101 419 254 198 171 
27 -101 419 251 200 169 
28 -101 419 253 202 171 
29 -101 418 248 201 171 
29 -101 418 249 202 172 
30 -101 418 252 200 176 
31 -101 418 252 200 176 
31 -101 417 255 200 173 
32 -101 418 252 196 169 
33 -101 418 246 193 159 
33 -101 418 244 191 157 
34 -101 418 243 184 150 
35 -101 418 237 178 144 
36 -101 419 226 170 137 
36 -101 419 216 160 127 
37 -101 419 215 158 128 
38 -101 420 214 157 127 
38 -101 420 209 148 117 
39 -101 421 203 142 111 
40 -101 421 195 135 107 
41 -102 422 183 123 95 
41 -102 422 166 121 102 
21 -101 422 192 172 171 
21 -101 422 189 169 168 
22 -101 422 205 170 151 
23 -101 421 212 177 158 
23 -101 420 227 183 156 
24 -101 420 235 191 164 
25 -101 420 246 194 170 
25 -100 419 249 197 173 
26 -100 419 254 198 171 
27 -100 419 255 200 173 
27 -100 418 254 203 172 
28 -100 418 254 203 172 
29 -100 418 248 201 171 
29 -100 418 248 201 171 
30 -100 418 251 200 173 
31 -100 418 250 199 172 
31 -100 418 253 196 167 
32 -100 418 249 192 163 
33 -100 418 242 186 151 
33 -100 418 237 181 146 
34 -100 418 235 172 137 
35 -100 418 231 168 133 
36 -100 419 215 158 128 
36 -101 420 208 151 121 
37 -101 420 208 148 120 
38 -101 420 205 145 117 
38 -101 421 200 140 112 
39 -101 421 193 133 105 
40 -101 422 171 121 98 
20 -100 421 185 175 184 
21 -100 421 193 169 165 
21 -100 421 191 167 163 
22 -100 421 211 170 148 
23 -100 420 222 181 159 
23 -100 419 231 185 159 
24 -100 419 238 192 166 
25 -100 419 251 197 171 
25 -100 419 255 201 175 
26 -99 418 255 201 174 
27 -99 418 255 202 175 
27 -99 418 255 205 174 
28 -99 418 255 205 174 
29 -99 418 251 202 172 
29 -99 418 249 200 170 
30 -99 418 251 197 171 
31 -99 418 249 195 169 
31 -99 418 248 191 162 
32 -99 418 243 186 157 
33 -99 418 239 181 144 
33 -99 418 232 174 137 
34 -100 419 225 162 127 
35 -100 419 222 159 124 
36 -100 419 208 151 124 
36 -100 420 203 146 119 
37 -100 420 200 142 118 
38 -100 421 194 136 112 
38 -100 421 187 130 103 
20 -99 420 185 172 179 
21 -99 420 194 167 160 
21 -99 420 198 171 164 
22 -99 420 223 179 154 
23 -99 419 230 186 161 
23 -99 419 242 192 159 
24 -99 419 248 198 165 
25 -99 419 251 200 171 
25 -99 418 254 203 174 
26 -99 418 255 203 179 
27 -99 418 255 202 178 
27 -99 418 255 204 178 
28 -99 418 255 201 175 
29 -99 418 255 202 177 
29 -99 418 255 200 175 
30 -99 418 254 197 168 
31 -99 418 248 191 162 
31 -99 418 242 186 153 
32 -99 419 238 182 149 
33 -99 419 232 176 139 
33 -99 419 224 168 131 
34 -99 419 219 160 126 
35 -99 419 217 158 124 
36 -99 419 207 147 113 
36 -99 420 203 143 109 
37 -99 421 200 139 110 
19 -98 419 186 175 179 
20 -99 420 189 175 175 
21 -99 420 198 168 157 
21 -99 420 205 175 164 
22 -98 419 231 185 159 
23 -98 419 238 192 166 
23 -98 418 250 201 169 
24 -98 418 252 203 171 
25 -98 418 253 202 173 
25 -98 418 255 205 176 
26 -98 418 255 207 180 
27 -98 418 254 203 176 
27 -98 418 255 201 175 
28 -98 418 255 201 175 
29 -98 418 255 201 174 
29 -98 418 252 196 169 
30 -98 418 248 191 161 
31 -98 418 241 184 154 
31 -98 418 236 177 143 
32 -98 418 232 173 139 
33 -98 419 225 167 129 
33 -98 419 216 158 120 
34 -99 420 212 153 119 
35 -99 420 208 149 115 
36 -99 420 207 147 113 
36 -99 421 199 139 105 
37 -99 421 190 130 102 
19 -98 420 188 178 177 
19 -98 421 195 176 170 
20 -98 420 192 173 167 
21 -98 420 210 173 157 
21 -98 420 224 187 171 
22 -98 419 243 193 170 
23 -98 419 245 195 172 
23 -97 418 250 201 169 
24 -97 418 253 204 172 
25 -97 418 252 203 173 
25 -97 418 252 203 173 
26 -97 418 255 205 176 
27 -97 418 254 203 174 
27 -97 418 253 200 169 
28 -97 418 255 202 171 
29 -97 418 252 197 166 
29 -97 418 246 191 160 
30 -97 418 243 184 150 
31 -97 418 236 177 143 
31 -98 419 228 170 133 
32 -98 419 224 166 129 
33 -98 419 217 158 118 
33 -98 419 208 149 109 
34 -98 420 205 145 109 
35 -98 420 209 149 113 
36 -98 420 201 138 107 
36 -98 421 191 128 97 
19 -98 422 194 183 181 
19 -97 421 201 174 165 
20 -97 420 196 169 160 
21 -97 420 222 179 162 
21 -97 419 238 195 178 
22 -97 419 244 192 170 
23 -97 418 245 193 171 
23 -97 418 250 201 171 
24 -97 418 255 206 176 
25 -97 417 255 207 175 
25 -97 418 252 203 171 
26 -97 418 254 203 172 
27 -97 418 253 202 171 
27 -97 418 250 197 165 
28 -97 418 249 196 164 
29 -97 418 245 189 154 
29 -97 418 240 184 149 
30 -97 418 237 179 142 
31 -97 419 229 171 134 
31 -97 419 222 163 123 
32 -97 419 217 158 118 
33 -97 419 214 152 111 
33 -97 419 206 144 103 
34 -97 420 203 140 105 
35 -97 420 201 138 103 
19 -97 423 200 183 176 
19 -97 422 191 159 146 
20 -97 420 166 134 121 
21 -96 419 198 153 134 
21 -96 419 232 187 168 
22 -96 418 245 194 173 
23 -96 418 251 200 179 
23 -96 418 251 202 172 
24 -96 418 253 204 174 
25 -96 417 255 206 174 
25 -96 417 253 204 172 
26 -96 418 253 203 170 
27 -96 418 249 199 166 
27 -96 418 244 190 154 
28 -96 418 240 186 150 
29 -96 418 238 182 145 
29 -96 418 233 177 140 
30 -96 418 229 171 133 
31 -96 419 221 163 125 
31 -96 419 214 155 115 
32 -96 419 210 151 111 
33 -97 420 209 147 108 
34 -97 420 203 141 102 
34 -97 420 197 132 100 
35 -97 420 190 125 93 
18 -97 423 156 132 120 
20 -96 420 183 148 129 
21 -96 419 170 125 102 
21 -96 419 190 145 122 
22 -95 418 228 180 157 
23 -95 418 250 202 179 
23 -95 418 255 205 176 
24 -95 418 253 202 173 
25 -95 418 251 200 169 
25 -95 418 251 200 169 
26 -95 418 252 199 165 
27 -95 418 245 192 158 
27 -95 418 239 185 147 
28 -95 418 236 182 144 
29 -95 418 232 177 138 
29 -95 418 227 172 133 
30 -96 419 223 165 125 
31 -96 419 216 158 118 
31 -96 419 208 148 111 
32 -96 419 204 144 107 
33 -96 420 201 139 102 
34 -96 420 193 131 94 
34 -96 420 182 121 92 
22 -95 418 205 159 135 
23 -95 418 222 176 152 
23 -95 418 251 200 173 
24 -95 418 255 206 179 
25 -95 418 255 203 172 
25 -95 418 251 198 167 
26 -95 418 247 193 157 
27 -95 418 240 186 150 
27 -95 419 236 182 144 
28 -95 419 233 179 141 
29 -95 419 225 170 131 
29 -95 419 220 165 126 
30 -95 419 216 158 120 
31 -95 420 209 151 113 
32 -95 420 201 141 105 
32 -95 420 194 134 98 
33 -95 420 185 125 91 
23 -94 418 205 163 138 
23 -94 418 228 174 148 
24 -94 418 252 198 172 
25 -94 418 255 203 172 
25 -94 418 244 191 160 
26 -94 418 239 185 149 
27 -94 418 235 181 145 
27 -94 419 233 177 140 
28 -94 419 227 171 134 
29 -94 419 218 163 124 
29 -95 420 213 158 119 
30 -95 420 208 150 112 
31 -95 420 200 142 104 
32 -95 420 191 131 95 
32 -95 421 183 123 87 
33 -95 421 173 112 81 
23 -94 419 234 196 177 
25 -94 419 250 193 166 
25 -94 419 246 189 162 
26 -94 419 241 177 149 
27 -94 419 238 174 146 
27 -94 419 228 169 135 
28 -94 419 222 163 129 
29 -94 419 212 154 114 
29 -94 420 207 149 109 
30 -94 420 206 144 103 
31 -94 420 198 136 95 
32 -94 420 181 125 90 
32 -94 421 170 114 79 
24 -93 419 198 152 126 
25 -93 419 215 159 134 
25 -93 419 234 178 153 
26 -93 419 239 178 150 
27 -93 420 227 166 138 
27 -93 420 218 160 123 
28 -93 420 213 155 118 
29 -93 420 204 146 106 
29 -93 420 200 142 102 
30 -93 421 193 135 97 
31 -93 421 181 123 85 
26 -92 419 228 168 140 
27 -93 420 218 158 130 
27 -93 420 207 147 110 
28 -93 420 201 141 104 
29 -93 421 196 138 98 
30 -93 421 188 130 90 
30 -93 421 174 121 87 
31 -93 421 164 111 77 
26 -92 419 213 153 127 
27 -92 420 209 149 123 
28 -92 421 202 142 105 
28 -92 421 191 131 94 
29 -92 421 182 127 88 
30 -92 422 172 117 78 
30 -92 422 157 112 81 
27 -91 420 199 137 112 
28 -91 421 189 130 96 
28 -91 421 181 122 88 
29 -92 422 162 116 82 
30 -92 422 158 112 78 
30 -92 423 151 115 89 
27 -91 421 175 115 91 
28 -91 421 161 110 83 
28 -91 422 160 109 82 
29 -91 422 150 114 88 
28 -90 422 147 109 88 
28 -90 422 150 112 91 
27 -90 422 164 118 95 
28 -90 423 151 122 106 
28 -90 423 149 120 104 
