ply
format ascii 1.0
comment Created by CloudCompare v2.10.1 (Zephyrus)
comment Created 2020-05-06 7:46 PM
obj_info Generated by CloudCompare!
element vertex 95
property float x
property float y
property float z
property uchar red
property uchar green
property uchar blue
end_header
-7 181 410 211 170 152 
-14 182 411 208 150 104 
-8 181 409 173 134 117 
-7 181 410 183 144 127 
-14 182 410 199 141 93 
-13 181 408 206 153 113 
-12 180 406 207 154 114 
-12 180 406 181 128 96 
-11 180 406 115 62 30 
-10 180 406 185 129 94 
-10 180 406 214 158 123 
-9 180 406 202 150 113 
-8 181 407 197 145 108 
-8 181 409 175 136 119 
-7 182 410 173 134 117 
-14 183 410 209 151 101 
-14 182 409 209 151 101 
-13 182 408 218 165 125 
-12 181 406 218 165 125 
-12 181 406 184 134 101 
-11 181 406 106 56 23 
-10 181 406 190 136 102 
-10 181 406 213 159 125 
-9 181 406 205 153 114 
-8 181 407 197 145 106 
-8 182 408 177 139 120 
-7 182 409 170 132 113 
-15 184 412 199 145 107 
-14 184 411 211 158 118 
-14 183 410 209 156 116 
-13 182 408 221 170 127 
-12 182 407 220 169 126 
-12 181 406 191 139 99 
-11 181 406 104 52 12 
-10 181 406 186 138 98 
-10 181 406 211 163 123 
-9 181 406 206 156 119 
-8 182 407 187 137 100 
-8 182 408 174 136 113 
-7 183 409 170 132 109 
-15 185 412 195 139 102 
-14 184 410 207 152 113 
-14 183 409 211 156 117 
-13 183 408 222 169 129 
-12 182 407 227 174 134 
-12 182 406 196 144 105 
-11 182 406 106 54 15 
-10 182 406 180 130 93 
-10 182 406 213 163 126 
-9 182 406 199 153 117 
-8 182 406 182 136 100 
-8 182 407 174 138 116 
-7 183 408 171 135 113 
-15 185 412 186 127 93 
-14 184 410 197 143 107 
-14 184 409 206 152 116 
-13 184 408 216 162 126 
-12 183 407 222 168 132 
-12 183 406 196 143 109 
-11 182 405 121 68 34 
-10 182 405 179 130 97 
-10 182 405 211 162 129 
-9 182 405 196 153 121 
-8 182 405 177 134 102 
-8 183 406 171 138 119 
-7 183 406 170 137 118 
-15 186 411 174 120 84 
-14 185 410 182 132 97 
-14 185 409 194 144 109 
-13 184 407 205 155 120 
-12 183 406 210 160 125 
-12 183 405 201 151 118 
-11 183 405 155 105 72 
-10 182 404 183 136 106 
-10 182 404 199 152 122 
-9 182 404 195 153 128 
-8 182 404 177 135 110 
-8 182 404 168 136 121 
-7 182 404 169 137 122 
-6 182 404 161 136 129 
-15 186 411 174 122 85 
-14 186 410 160 114 80 
-14 185 408 167 121 87 
-13 184 407 181 133 97 
-12 184 406 191 143 107 
-12 183 405 199 150 117 
-11 183 404 185 136 103 
-10 183 404 189 144 115 
-15 187 412 185 135 100 
-14 186 410 167 122 89 
-14 185 408 164 119 86 
-12 184 405 198 149 116 
-15 188 413 196 150 114 
-14 187 410 192 149 117 
-15 189 413 203 159 124 
