ply
format ascii 1.0
comment Created by CloudCompare v2.10.1 (Zephyrus)
comment Created 2020-05-06 7:44 PM
obj_info Generated by CloudCompare!
element vertex 373
property float x
property float y
property float z
property uchar red
property uchar green
property uchar blue
end_header
-49 -79 406 206 146 112 
-48 -79 405 208 145 114 
-47 -78 404 207 140 113 
-46 -78 404 206 139 112 
-46 -78 404 208 136 112 
-45 -78 404 209 137 113 
-45 -78 404 207 135 111 
-44 -78 404 202 130 106 
-43 -78 404 191 125 99 
-53 -78 407 199 137 112 
-53 -78 407 222 157 129 
-52 -78 407 232 167 139 
-51 -78 407 228 172 137 
-51 -78 407 236 180 145 
-50 -78 406 237 181 148 
-49 -78 406 235 179 146 
-49 -78 406 239 180 150 
-48 -78 405 238 179 149 
-47 -78 405 239 177 152 
-47 -78 405 239 177 152 
-46 -78 405 242 178 153 
-45 -78 405 243 179 154 
-45 -78 405 239 175 150 
-44 -78 405 233 169 144 
-43 -78 405 226 164 139 
-43 -78 405 218 156 131 
-42 -78 406 203 146 119 
-41 -78 406 192 135 108 
-41 -78 406 169 108 89 
-55 -78 409 136 116 107 
-54 -78 408 198 134 106 
-53 -78 407 220 156 128 
-53 -78 407 235 168 139 
-52 -78 407 239 172 143 
-51 -78 407 242 179 146 
-51 -78 407 249 186 153 
-50 -78 407 253 192 163 
-49 -78 406 255 196 167 
-49 -78 406 255 197 172 
-48 -77 405 255 197 172 
-47 -77 405 255 199 177 
-47 -77 405 255 200 178 
-46 -77 405 255 201 178 
-45 -77 405 255 202 179 
-45 -77 405 255 200 177 
-44 -77 405 252 196 173 
-43 -77 405 248 191 164 
-43 -77 405 244 187 160 
-42 -78 406 237 176 148 
-41 -78 406 227 166 138 
-41 -78 406 208 149 131 
-55 -78 410 162 153 146 
-54 -77 409 220 157 126 
-54 -77 408 228 165 134 
-53 -77 408 238 177 146 
-52 -77 407 242 181 150 
-51 -77 406 245 187 150 
-51 -77 406 250 192 155 
-50 -77 406 253 196 166 
-49 -77 406 255 203 173 
-49 -77 405 255 207 181 
-48 -77 405 255 206 180 
-47 -77 405 255 209 183 
-47 -77 405 255 210 184 
-46 -77 405 255 212 187 
-45 -77 405 255 214 189 
-45 -77 405 255 214 189 
-44 -77 405 254 210 185 
-43 -77 405 253 206 178 
-43 -77 406 251 204 176 
-42 -77 406 251 198 167 
-42 -77 407 244 191 160 
-41 -77 407 230 175 155 
-40 -77 407 207 152 132 
-40 -77 408 163 117 104 
-54 -77 410 221 158 123 
-54 -77 408 231 168 133 
-53 -77 408 232 178 144 
-52 -76 407 237 183 149 
-51 -76 406 249 191 154 
-51 -76 406 254 196 159 
-50 -76 405 254 199 168 
-49 -76 405 255 205 174 
-49 -76 405 255 210 183 
-48 -76 405 255 211 184 
-47 -76 404 255 211 188 
-46 -76 404 255 212 189 
-46 -76 405 255 213 191 
-45 -76 405 255 213 191 
-45 -76 405 255 212 189 
-44 -76 405 255 208 185 
-43 -76 405 255 205 178 
-43 -76 405 255 204 177 
-42 -76 406 255 202 171 
-41 -76 406 253 198 167 
-41 -76 407 238 186 164 
-40 -77 408 222 170 148 
-40 -77 409 189 147 133 
-39 -77 410 178 136 122 
-39 -77 410 144 146 141 
-38 -77 411 146 148 143 
-54 -76 410 219 157 120 
-54 -76 408 230 168 131 
-53 -76 407 226 178 140 
-52 -76 406 235 187 149 
-51 -76 406 243 191 152 
-51 -76 406 251 199 160 
-50 -75 405 251 205 171 
-49 -75 404 255 209 175 
-48 -75 404 255 213 187 
-48 -75 404 255 213 187 
-47 -75 404 255 213 190 
-46 -75 403 255 212 189 
-46 -75 404 255 209 190 
-45 -75 404 255 208 189 
-45 -75 404 255 208 187 
-44 -75 404 255 206 185 
-43 -75 405 255 205 178 
-43 -75 405 254 204 177 
-42 -75 405 252 201 170 
-41 -76 406 248 197 166 
-41 -76 406 243 193 170 
-40 -76 407 227 177 154 
-40 -76 408 192 153 138 
-39 -76 409 176 137 122 
-39 -76 410 141 150 147 
-38 -77 411 139 148 145 
-54 -76 410 222 162 126 
-54 -75 408 230 170 134 
-53 -75 407 231 177 141 
-52 -75 406 239 185 149 
-51 -75 406 239 189 156 
-51 -75 405 248 198 165 
-50 -75 405 251 200 171 
-49 -75 404 253 202 173 
-48 -75 404 255 204 180 
-48 -75 404 255 207 183 
-47 -75 404 250 200 175 
-46 -74 403 248 198 173 
-46 -75 404 247 197 174 
-45 -75 404 255 206 183 
-45 -75 404 254 204 181 
-44 -75 404 254 204 181 
-43 -75 404 252 205 179 
-43 -75 404 252 205 179 
-42 -75 405 246 199 171 
-41 -75 405 245 198 170 
-41 -75 406 237 195 173 
-40 -75 407 229 187 165 
-40 -75 408 205 165 140 
-39 -76 409 181 141 116 
-39 -76 410 138 148 150 
-54 -75 409 221 163 126 
-53 -74 407 229 171 134 
-53 -74 407 232 178 144 
-52 -74 406 239 185 151 
-51 -74 405 238 187 156 
-51 -74 405 246 195 164 
-50 -74 405 248 197 168 
-49 -74 404 249 198 169 
-48 -74 404 251 201 176 
-48 -74 404 250 200 175 
-47 -74 404 237 187 164 
-46 -74 404 233 183 160 
-46 -74 404 245 195 172 
-45 -74 404 255 206 183 
-45 -74 404 253 203 180 
-44 -74 404 252 202 179 
-43 -74 404 253 203 178 
-43 -74 404 253 203 178 
-42 -74 405 248 199 169 
-41 -74 405 248 199 169 
-41 -74 406 241 196 173 
-40 -74 407 235 190 167 
-40 -75 408 211 170 148 
-39 -75 408 183 142 120 
-54 -74 409 218 159 125 
-53 -74 407 228 169 135 
-53 -74 406 231 177 143 
-52 -73 405 236 182 148 
-51 -73 405 236 185 154 
-51 -73 405 245 194 163 
-50 -73 404 246 195 166 
-49 -73 404 248 197 168 
-48 -73 404 248 196 172 
-48 -73 404 243 191 167 
-47 -73 404 227 175 153 
-46 -73 404 221 169 147 
-46 -73 404 247 195 173 
-45 -73 404 255 204 182 
-45 -73 404 252 202 177 
-44 -73 404 250 200 175 
-43 -73 404 250 200 173 
-43 -73 404 249 199 172 
-42 -73 405 245 196 166 
-41 -73 405 246 197 167 
-41 -74 406 243 195 172 
-40 -74 407 238 190 167 
-40 -74 407 213 176 157 
-39 -74 408 180 143 124 
-54 -73 408 214 155 121 
-53 -73 407 225 166 132 
-53 -73 406 228 174 140 
-52 -73 405 232 178 144 
-51 -73 405 234 181 150 
-51 -73 405 241 188 157 
-50 -73 404 245 191 163 
-49 -73 404 247 193 165 
-48 -73 404 248 194 168 
-48 -73 404 246 192 166 
-47 -73 404 235 181 157 
-46 -73 404 232 178 154 
-46 -73 404 250 196 172 
-45 -73 404 255 203 179 
-45 -73 404 252 198 172 
-44 -73 404 249 195 169 
-43 -73 404 247 193 165 
-43 -73 404 247 193 165 
-42 -73 404 243 190 159 
-41 -73 405 242 189 158 
-41 -73 405 240 190 165 
-40 -73 406 235 185 160 
-40 -73 407 210 177 160 
-39 -73 407 175 142 125 
-54 -73 408 208 152 117 
-53 -72 407 219 163 128 
-53 -72 406 225 171 137 
-52 -72 405 229 175 141 
-51 -72 405 233 178 147 
-51 -72 405 238 183 152 
-50 -72 405 242 187 156 
-49 -72 404 245 190 159 
-48 -72 404 246 190 163 
-48 -72 404 250 194 167 
-47 -72 404 246 190 165 
-46 -72 404 246 190 165 
-46 -72 404 249 193 168 
-45 -72 404 254 198 173 
-45 -72 404 250 194 167 
-44 -72 404 248 192 165 
-43 -72 404 243 188 158 
-43 -72 404 242 187 157 
-42 -72 404 240 185 154 
-41 -72 405 239 184 153 
-41 -72 406 238 184 158 
-40 -72 406 233 179 153 
-40 -73 407 204 175 161 
-39 -73 407 171 142 128 
-54 -72 408 202 146 111 
-53 -72 407 214 158 123 
-53 -72 406 221 168 134 
-52 -72 406 226 173 139 
-51 -71 405 230 174 141 
-51 -71 405 235 179 146 
-50 -71 405 239 183 150 
-49 -71 405 244 188 155 
-48 -71 404 244 187 158 
-48 -71 404 248 191 162 
-47 -71 404 244 187 160 
-46 -71 404 244 187 160 
-46 -71 404 245 187 163 
-45 -71 404 248 190 166 
-45 -71 404 246 189 160 
-44 -71 404 245 188 159 
-43 -71 404 239 182 152 
-43 -71 404 239 182 152 
-42 -71 404 238 181 151 
-41 -72 405 238 181 151 
-41 -72 406 232 178 150 
-40 -72 406 228 174 146 
-39 -72 406 195 171 161 
-39 -72 407 167 143 133 
-54 -71 408 194 138 105 
-53 -71 407 207 151 118 
-53 -71 407 215 162 128 
-52 -71 406 220 167 133 
-51 -71 405 222 163 129 
-51 -71 405 228 169 135 
-50 -71 405 234 175 143 
-49 -71 405 239 180 148 
-49 -71 405 239 180 150 
-48 -71 404 243 184 154 
-47 -71 404 238 181 154 
-47 -71 404 239 182 155 
-46 -71 404 239 181 157 
-45 -71 404 240 182 158 
-45 -71 404 239 182 153 
-44 -71 404 240 183 154 
-43 -71 404 235 178 148 
-43 -71 404 234 177 147 
-42 -71 405 233 176 146 
-41 -71 405 233 176 146 
-41 -71 406 227 173 145 
-40 -71 407 222 168 140 
-40 -71 407 182 163 156 
-39 -71 407 162 143 136 
-54 -71 408 190 134 101 
-53 -70 407 201 145 112 
-53 -70 407 209 156 124 
-52 -70 406 212 159 127 
-51 -70 406 219 160 126 
-51 -70 405 224 165 131 
-50 -70 405 228 169 137 
-49 -70 405 230 171 139 
-49 -70 405 230 171 141 
-48 -70 404 234 175 145 
-47 -70 404 234 174 148 
-47 -70 404 238 178 152 
-46 -70 404 235 177 153 
-45 -70 404 235 177 153 
-45 -70 404 232 175 148 
-44 -70 404 234 177 150 
-43 -70 404 231 174 145 
-43 -70 404 230 173 144 
-42 -70 405 228 171 141 
-41 -70 406 227 170 140 
-41 -70 406 223 170 139 
-40 -71 407 217 164 133 
-40 -71 407 174 157 150 
-39 -71 407 158 141 134 
-54 -70 408 185 134 115 
-53 -70 407 190 139 120 
-53 -70 407 206 153 121 
-52 -70 406 210 157 125 
-51 -70 406 217 157 131 
-51 -70 406 222 162 136 
-50 -70 406 226 166 140 
-49 -70 405 229 169 143 
-49 -70 405 231 171 143 
-48 -69 404 233 173 145 
-47 -69 404 234 177 148 
-47 -69 404 233 176 147 
-46 -69 404 232 175 146 
-45 -69 404 229 172 143 
-45 -69 404 228 171 144 
-44 -69 404 230 173 146 
-43 -69 404 230 173 144 
-43 -69 404 227 170 141 
-42 -70 405 224 168 135 
-41 -70 405 222 166 133 
-41 -70 406 214 163 136 
-40 -70 406 204 153 126 
-40 -70 407 161 151 142 
-39 -70 407 152 142 133 
-54 -70 409 193 146 130 
-54 -69 408 189 142 126 
-53 -69 407 200 146 118 
-52 -69 406 207 153 125 
-51 -69 406 213 156 129 
-51 -69 406 219 162 135 
-50 -69 406 223 165 141 
-49 -69 405 226 168 144 
-49 -69 405 230 173 146 
-48 -69 405 232 175 148 
-47 -69 405 234 178 151 
-47 -69 404 235 179 152 
-46 -69 404 233 177 150 
-45 -69 404 230 174 147 
-45 -69 404 226 172 144 
-44 -69 404 226 172 144 
-43 -69 404 225 171 143 
-43 -69 405 222 168 140 
-42 -69 405 217 164 133 
-41 -69 406 213 160 129 
-41 -69 406 201 155 132 
-40 -69 406 192 146 123 
-40 -69 407 154 145 138 
-39 -69 408 150 141 134 
-54 -69 408 190 148 136 
-54 -69 408 189 147 135 
-53 -69 407 205 153 131 
-40 -69 407 158 143 140 
-39 -69 407 154 139 136 
