ply
format ascii 1.0
comment Created by CloudCompare v2.10.1 (Zephyrus)
comment Created 2020-05-06 7:45 PM
obj_info Generated by CloudCompare!
element vertex 100
property float x
property float y
property float z
property uchar red
property uchar green
property uchar blue
end_header
-64 183 407 219 162 119 
-57 184 409 175 132 100 
-64 183 407 230 175 136 
-63 183 405 243 188 149 
-62 183 405 236 183 141 
-61 183 405 234 181 139 
-61 183 405 229 181 141 
-60 183 405 227 179 139 
-59 183 406 222 174 134 
-58 183 406 215 169 133 
-58 184 407 197 151 115 
-57 184 409 171 130 100 
-57 185 410 172 131 101 
-65 186 411 209 153 116 
-64 184 407 219 165 127 
-63 183 405 211 157 119 
-62 183 405 211 159 119 
-61 183 405 228 176 136 
-61 183 405 221 175 139 
-60 184 406 217 171 135 
-60 184 406 215 170 131 
-59 184 407 211 166 127 
-59 184 407 208 164 129 
-58 185 408 193 149 114 
-57 185 409 167 128 99 
-65 186 410 209 155 119 
-64 185 407 200 148 111 
-63 184 405 143 91 54 
-62 184 405 165 116 76 
-61 184 405 227 178 138 
-61 184 405 221 177 140 
-60 184 406 217 173 136 
-60 184 406 214 168 132 
-59 185 407 212 166 130 
-59 185 408 211 165 131 
-58 185 408 200 154 120 
-58 186 410 176 136 110 
-57 187 411 169 129 103 
-64 185 407 213 159 125 
-64 185 406 215 162 128 
-63 184 405 136 83 49 
-62 184 405 169 121 83 
-61 184 405 228 180 142 
-61 184 405 224 181 146 
-60 184 405 221 178 143 
-60 185 406 217 171 135 
-59 185 407 213 167 131 
-59 186 408 207 161 127 
-58 186 409 200 154 120 
-58 187 410 186 146 120 
-57 187 411 173 133 107 
-65 187 409 201 146 115 
-64 186 406 213 158 127 
-63 185 405 209 156 124 
-63 185 405 126 73 41 
-62 185 405 185 137 101 
-61 185 405 234 186 150 
-61 186 406 224 182 144 
-60 186 406 221 179 141 
-60 186 406 217 172 133 
-59 186 408 212 167 128 
-59 186 408 206 157 124 
-58 187 409 206 157 124 
-58 187 410 203 161 136 
-64 186 405 211 163 127 
-63 185 404 178 126 89 
-63 185 404 111 59 22 
-62 185 404 216 160 123 
-61 185 404 230 174 137 
-61 186 405 225 173 134 
-60 186 406 224 172 133 
-60 186 406 216 168 128 
-59 187 407 206 158 118 
-59 187 408 204 165 126 
-58 188 409 205 166 127 
-58 188 410 202 167 135 
-65 186 405 196 150 116 
-64 186 404 203 157 123 
-63 185 403 155 103 66 
-62 185 403 117 65 28 
-62 186 404 219 164 125 
-61 186 404 226 171 132 
-61 186 404 221 169 130 
-60 186 405 216 164 125 
-60 187 406 202 157 116 
-59 187 407 201 156 115 
-59 188 408 214 175 136 
-58 188 409 214 175 136 
-58 189 410 207 172 140 
-63 186 403 167 117 82 
-62 186 403 151 101 66 
-62 186 403 215 162 120 
-60 187 405 205 156 116 
-60 187 406 194 149 110 
-59 188 407 199 154 115 
-59 188 408 218 179 140 
-58 189 410 208 173 141 
-62 186 402 202 152 115 
-60 187 404 198 150 112 
-61 186 401 194 148 115 
