ply
format ascii 1.0
comment Created by CloudCompare v2.10.1 (Zephyrus)
comment Created 2020-05-06 7:42 PM
obj_info Generated by CloudCompare!
element vertex 625
property float x
property float y
property float z
property uchar red
property uchar green
property uchar blue
end_header
-170 -143 411 213 169 144 
-169 -143 410 202 160 144 
-168 -143 410 183 141 125 
-167 -143 410 155 117 106 
-166 -143 409 138 100 89 
-165 -142 408 107 95 95 
-164 -142 407 108 96 96 
-164 -142 407 109 99 98 
-171 -142 410 241 201 165 
-171 -142 410 245 205 169 
-170 -142 409 245 204 174 
-169 -142 409 246 205 175 
-168 -142 409 246 207 176 
-168 -142 409 244 205 174 
-167 -142 409 235 198 179 
-166 -141 407 219 182 163 
-165 -141 407 172 146 131 
-164 -142 407 135 109 94 
-163 -141 406 108 90 80 
-172 -141 409 255 208 178 
-171 -141 409 250 210 174 
-170 -141 408 254 214 178 
-169 -141 408 255 217 186 
-169 -141 408 255 219 188 
-168 -141 408 255 221 186 
-167 -141 408 255 222 187 
-166 -141 407 254 223 195 
-166 -141 407 249 218 190 
-165 -141 406 243 215 193 
-164 -141 407 222 194 172 
-163 -141 406 177 158 143 
-163 -141 407 127 108 93 
-172 -141 409 247 201 165 
-172 -141 409 252 206 170 
-170 -140 408 252 212 176 
-170 -140 408 253 213 177 
-169 -140 407 255 218 191 
-168 -140 407 255 222 195 
-168 -140 407 255 224 189 
-167 -140 407 255 224 189 
-166 -140 407 255 232 198 
-166 -140 407 255 235 201 
-165 -140 406 255 228 198 
-164 -140 406 255 229 199 
-164 -140 407 247 225 201 
-163 -140 407 225 203 179 
-162 -140 407 163 147 132 
-172 -140 408 247 202 161 
-171 -140 408 252 207 166 
-170 -140 408 252 212 177 
-169 -139 407 253 213 178 
-169 -140 407 254 220 192 
-168 -140 407 255 224 196 
-168 -140 407 255 229 195 
-167 -140 407 255 231 197 
-166 -140 407 255 237 201 
-166 -140 407 255 239 203 
-165 -139 406 255 233 199 
-164 -139 406 255 233 199 
-163 -139 406 249 228 197 
-163 -140 407 244 223 192 
-162 -140 407 241 221 197 
-162 -140 407 204 184 160 
-162 -140 408 134 120 107 
-173 -139 409 241 192 149 
-172 -139 408 244 201 159 
-171 -139 408 251 208 166 
-170 -139 407 250 207 172 
-169 -139 407 255 213 178 
-169 -139 407 255 222 191 
-168 -139 407 255 223 192 
-168 -139 407 255 226 192 
-167 -139 407 255 229 195 
-166 -139 407 250 234 200 
-166 -139 407 252 236 202 
-165 -139 406 255 240 204 
-164 -139 406 255 242 206 
-163 -139 406 255 235 200 
-163 -139 406 254 234 199 
-162 -139 407 255 231 203 
-162 -139 407 255 234 206 
-162 -139 408 235 214 195 
-161 -139 408 175 154 135 
-173 -139 409 236 189 147 
-172 -139 408 234 193 149 
-171 -139 408 244 203 159 
-170 -138 407 250 208 170 
-169 -138 407 255 217 179 
-169 -138 407 255 224 189 
-168 -138 407 255 222 187 
-168 -138 407 253 223 187 
-167 -138 406 255 227 191 
-166 -138 406 252 236 200 
-166 -138 407 255 239 203 
-165 -138 406 255 248 209 
-164 -138 406 255 243 204 
-163 -138 406 255 244 206 
-163 -138 406 254 236 198 
-162 -138 407 253 228 197 
-162 -138 407 255 233 202 
-161 -138 407 255 229 206 
-161 -139 408 249 223 200 
-161 -139 409 190 167 153 
-173 -138 409 224 179 137 
-172 -138 408 228 190 143 
-171 -138 408 242 204 157 
-170 -138 407 250 206 169 
-169 -138 407 255 214 177 
-169 -138 407 252 220 182 
-168 -138 407 251 219 181 
-168 -138 407 254 222 184 
-167 -138 407 255 226 188 
-166 -137 406 255 237 199 
-165 -137 406 255 240 202 
-165 -137 406 255 248 205 
-164 -137 406 255 244 201 
-163 -137 406 253 231 192 
-163 -137 406 249 227 188 
-162 -138 407 253 226 196 
-162 -138 407 251 224 194 
-161 -138 407 253 225 201 
-161 -138 408 255 227 203 
-160 -138 408 253 226 209 
-160 -138 409 208 181 164 
-172 -137 408 212 169 126 
-172 -137 408 226 188 141 
-171 -137 407 241 203 156 
-170 -137 407 255 211 176 
-169 -137 406 255 215 180 
-168 -137 406 249 215 180 
-168 -137 406 252 218 183 
-168 -137 407 255 224 187 
-167 -137 407 255 227 190 
-166 -137 406 254 235 195 
-165 -137 406 253 234 194 
-165 -137 406 255 239 192 
-164 -136 405 254 233 186 
-163 -136 405 255 233 192 
-163 -137 406 253 230 189 
-162 -137 407 251 224 194 
-162 -137 407 253 226 196 
-161 -137 407 254 223 202 
-161 -137 408 255 224 203 
-160 -137 408 254 223 205 
-160 -137 408 254 223 205 
-172 -137 408 208 166 128 
-171 -136 407 228 180 134 
-171 -136 407 245 197 151 
-170 -136 407 244 209 169 
-169 -136 406 246 211 171 
-168 -136 406 245 213 175 
-168 -136 406 250 218 180 
-167 -136 406 255 228 183 
-167 -136 406 255 233 188 
-166 -136 406 255 233 195 
-165 -136 406 255 232 194 
-165 -136 406 254 225 183 
-164 -136 405 254 225 183 
-163 -136 405 249 222 179 
-163 -136 406 249 222 179 
-162 -136 406 250 224 187 
-161 -136 406 253 227 190 
-161 -136 406 252 226 199 
-161 -136 407 253 227 200 
-160 -137 408 249 218 198 
-160 -137 408 249 218 198 
-159 -137 408 245 213 198 
-159 -137 409 220 188 173 
-172 -136 408 205 161 122 
-171 -136 407 221 178 135 
-171 -136 407 238 195 152 
-170 -136 407 234 199 157 
-170 -136 407 235 200 158 
-169 -136 407 238 206 167 
-168 -136 407 248 216 177 
-167 -135 406 255 224 182 
-167 -135 406 255 228 186 
-166 -135 406 255 226 188 
-165 -135 406 254 222 184 
-165 -135 406 253 221 180 
-164 -135 405 252 220 179 
-163 -135 405 251 219 180 
-163 -135 406 252 220 181 
-162 -135 406 253 225 188 
-161 -135 406 255 229 192 
-161 -135 406 255 231 201 
-161 -136 407 255 230 200 
-160 -136 407 255 230 208 
-159 -136 407 254 226 204 
-159 -136 407 253 222 204 
-158 -136 408 247 216 198 
-158 -136 409 216 193 177 
-172 -135 408 198 150 112 
-172 -135 408 208 170 131 
-171 -135 408 223 185 146 
-170 -135 407 229 192 150 
-170 -135 407 227 190 148 
-169 -135 407 235 200 160 
-168 -135 407 248 213 173 
-168 -135 407 255 217 176 
-167 -135 406 255 219 178 
-166 -135 406 255 219 180 
-165 -135 406 254 215 176 
-165 -135 406 255 217 180 
-164 -135 406 253 215 178 
-163 -135 406 252 217 179 
-163 -135 406 253 218 180 
-162 -135 406 252 222 186 
-161 -135 406 255 227 191 
-161 -135 406 255 232 202 
-161 -135 407 255 231 201 
-160 -135 407 255 229 204 
-159 -135 407 255 229 204 
-159 -135 407 255 229 208 
-158 -135 407 247 220 199 
-158 -136 408 237 211 194 
-158 -136 409 215 189 172 
-172 -135 408 191 142 102 
-172 -135 408 193 157 123 
-171 -135 408 202 166 132 
-171 -135 408 217 175 133 
-170 -134 407 216 174 132 
-169 -134 407 227 188 145 
-168 -134 407 242 203 160 
-168 -134 407 247 205 165 
-167 -134 407 248 206 166 
-166 -134 406 255 210 169 
-165 -134 406 255 211 170 
-165 -134 406 255 212 177 
-164 -134 406 255 212 177 
-163 -134 406 252 214 178 
-163 -134 406 252 214 178 
-162 -134 406 251 218 185 
-161 -134 406 255 223 190 
-161 -134 406 254 229 198 
-160 -134 406 254 229 198 
-160 -135 407 255 235 208 
-159 -135 407 255 239 212 
-159 -135 407 255 239 215 
-158 -135 407 252 232 208 
-157 -135 407 248 226 205 
-157 -135 408 242 220 199 
-157 -135 409 208 185 169 
-173 -134 409 183 137 101 
-172 -134 408 187 148 115 
-171 -134 408 193 154 121 
-171 -134 408 201 156 115 
-170 -134 407 202 157 116 
-169 -134 407 214 169 127 
-168 -134 407 227 182 140 
-168 -134 407 230 187 145 
-167 -134 407 232 189 147 
-166 -133 406 241 194 152 
-165 -133 406 245 198 156 
-165 -133 406 247 203 168 
-164 -133 406 252 208 173 
-163 -133 406 253 210 176 
-163 -133 406 254 211 177 
-162 -133 406 252 216 184 
-161 -133 406 255 220 188 
-161 -134 406 253 224 194 
-160 -134 406 254 225 195 
-160 -134 407 255 239 209 
-159 -134 407 255 242 212 
-159 -134 407 255 241 216 
-158 -134 407 255 243 218 
-157 -134 407 251 234 214 
-157 -134 408 238 221 201 
-157 -134 408 235 214 195 
-173 -134 409 169 132 103 
-172 -133 408 185 142 107 
-171 -133 407 192 149 114 
-171 -133 408 194 149 110 
-170 -133 407 194 149 110 
-169 -133 407 201 152 109 
-168 -133 407 208 159 116 
-168 -133 407 214 167 125 
-167 -133 407 219 172 130 
-166 -133 406 228 179 138 
-165 -133 406 236 187 146 
-165 -133 406 237 189 153 
-164 -133 406 245 197 161 
-163 -133 406 248 204 169 
-163 -133 406 251 207 172 
-162 -133 406 254 213 181 
-161 -133 406 255 217 185 
-161 -133 406 253 220 189 
-160 -133 406 254 221 190 
-160 -133 407 255 234 205 
-159 -133 407 255 242 213 
-159 -133 407 255 249 223 
-158 -133 407 255 250 224 
-157 -133 407 255 243 221 
-157 -133 407 253 241 219 
-157 -134 408 238 223 204 
-156 -134 408 236 221 202 
-156 -134 409 182 168 159 
-173 -133 410 149 121 97 
-172 -133 409 177 132 93 
-171 -133 408 186 141 102 
-170 -132 407 185 141 104 
-170 -132 407 186 142 105 
-169 -132 407 191 138 96 
-168 -132 407 192 139 97 
-167 -132 406 201 148 108 
-167 -132 407 211 158 118 
-166 -132 406 223 170 130 
-165 -132 406 235 182 142 
-165 -132 406 228 179 139 
-164 -132 406 235 186 146 
-163 -132 406 241 193 157 
-163 -132 406 245 197 161 
-162 -132 406 248 202 169 
-161 -132 406 255 209 176 
-161 -132 406 255 214 184 
-160 -132 406 255 215 185 
-160 -133 407 255 233 206 
-159 -133 407 255 238 211 
-159 -133 407 255 246 223 
-158 -133 407 255 245 222 
-157 -133 407 255 251 230 
-157 -133 407 252 244 223 
-157 -133 408 251 240 220 
-156 -133 408 238 227 207 
-155 -133 408 232 218 205 
-155 -133 409 161 147 134 
-173 -133 411 168 121 79 
-172 -132 409 175 128 86 
-171 -132 408 172 132 96 
-170 -132 408 177 137 101 
-169 -132 408 185 130 89 
-168 -132 407 181 126 85 
-168 -132 407 191 133 95 
-167 -132 407 202 144 106 
-166 -132 407 215 157 120 
-165 -132 406 230 172 135 
-165 -132 406 227 176 133 
-164 -132 406 231 180 137 
-163 -132 406 234 184 147 
-163 -132 406 236 186 149 
-162 -132 406 240 189 158 
-162 -132 407 250 199 168 
-161 -132 407 255 210 181 
-160 -132 406 255 211 182 
-160 -132 407 255 226 198 
-159 -132 407 255 230 202 
-159 -132 407 255 243 220 
-158 -132 407 255 252 229 
-157 -132 407 255 252 230 
-157 -132 407 255 253 231 
-157 -132 408 253 245 224 
-156 -132 408 246 238 217 
-155 -132 408 244 230 217 
-155 -133 409 220 206 193 
-172 -132 410 155 119 95 
-171 -132 409 174 125 92 
-170 -131 408 177 128 95 
-169 -131 408 176 126 91 
-169 -131 408 173 123 88 
-168 -131 407 178 124 86 
-167 -131 407 185 131 93 
-166 -131 407 201 142 98 
-166 -131 407 214 155 111 
-165 -131 407 217 162 121 
-164 -131 406 226 171 130 
-163 -131 406 230 181 141 
-163 -131 406 232 183 143 
-162 -131 406 230 181 141 
-162 -131 406 241 192 152 
-161 -131 407 250 201 160 
-161 -131 407 255 207 166 
-160 -131 407 253 212 180 
-159 -131 407 255 215 183 
-159 -131 407 250 228 207 
-158 -131 407 255 239 218 
-157 -131 407 255 249 235 
-157 -131 407 255 253 239 
-157 -132 408 255 254 238 
-156 -132 408 255 250 234 
-155 -132 408 250 234 219 
-155 -132 409 245 229 214 
-154 -132 409 190 176 165 
-154 -132 409 104 90 79 
-173 -132 411 141 108 89 
-171 -131 409 161 115 82 
-170 -131 408 164 118 85 
-169 -131 408 169 117 78 
-169 -131 408 169 117 78 
-168 -131 407 176 121 82 
-167 -131 407 179 124 85 
-166 -131 407 186 127 85 
-166 -131 407 192 133 91 
-165 -131 407 198 140 100 
-164 -131 407 209 151 111 
-164 -131 407 218 165 125 
-163 -130 406 225 172 132 
-162 -130 406 227 174 134 
-162 -130 406 236 183 143 
-161 -131 407 240 187 147 
-161 -131 407 244 191 151 
-160 -131 407 246 197 164 
-159 -131 407 255 208 175 
-159 -131 407 253 218 196 
-158 -131 408 255 224 202 
-157 -131 407 255 240 222 
-157 -131 407 255 247 229 
-157 -131 408 255 252 233 
-156 -131 408 255 253 234 
-155 -131 408 251 234 216 
-155 -131 409 249 232 214 
-154 -131 409 230 217 201 
-154 -131 409 138 125 109 
-171 -130 409 149 109 83 
-170 -130 408 151 111 85 
-169 -130 408 158 106 67 
-169 -131 409 159 107 68 
-168 -130 408 172 113 73 
-167 -130 408 177 118 78 
-167 -130 408 182 120 81 
-166 -130 407 188 126 87 
-165 -130 407 187 125 84 
-164 -130 407 196 134 93 
-164 -130 407 207 148 104 
-163 -130 407 217 158 114 
-162 -130 406 220 163 118 
-162 -130 406 228 171 126 
-161 -130 407 232 174 134 
-161 -130 407 236 178 138 
-160 -130 407 237 178 146 
-159 -130 407 251 192 160 
-159 -130 407 252 205 177 
-158 -130 407 255 212 184 
-158 -130 408 255 230 207 
-157 -130 407 255 242 219 
-157 -130 408 255 252 230 
-156 -130 408 255 255 233 
-155 -130 408 255 244 228 
-155 -130 408 253 237 221 
-154 -131 409 246 233 217 
-154 -131 409 197 184 168 
-153 -131 409 104 94 84 
-153 -131 410 104 94 84 
-171 -130 410 131 102 86 
-170 -130 409 145 94 63 
-169 -130 409 144 93 62 
-168 -130 408 160 96 58 
-167 -130 408 165 101 63 
-167 -130 408 172 109 68 
-166 -130 408 181 118 77 
-166 -130 408 183 120 79 
-164 -129 407 189 126 85 
-164 -129 407 197 135 88 
-163 -129 407 204 142 95 
-163 -129 407 206 143 99 
-162 -129 407 215 152 108 
-161 -129 407 222 160 119 
-161 -129 407 231 169 128 
-160 -129 407 230 170 134 
-159 -129 407 239 179 143 
-159 -129 407 246 192 158 
-158 -129 407 255 202 168 
-158 -130 408 252 217 189 
-157 -129 407 255 228 200 
-157 -130 408 255 242 219 
-156 -130 408 255 247 224 
-155 -130 408 255 249 233 
-155 -130 408 252 246 230 
-154 -130 408 248 239 222 
-153 -130 408 239 230 213 
-153 -130 409 153 141 129 
-171 -130 411 115 96 90 
-170 -130 410 133 91 69 
-170 -130 410 131 89 67 
-169 -129 409 145 85 49 
-168 -129 409 147 87 51 
-167 -129 409 158 91 49 
-167 -129 409 164 97 55 
-166 -129 409 172 109 68 
-165 -129 408 178 115 74 
-164 -129 408 186 119 76 
-163 -129 407 189 122 79 
-163 -129 407 187 120 75 
-162 -129 407 194 127 82 
-161 -129 407 201 139 98 
-161 -129 407 215 153 112 
-160 -129 407 219 160 120 
-160 -129 408 229 170 130 
-159 -129 408 232 176 139 
-159 -129 408 241 185 148 
-158 -129 408 243 200 168 
-157 -129 408 251 208 176 
-157 -129 408 253 225 201 
-156 -129 408 255 238 214 
-155 -129 408 254 253 233 
-155 -129 408 255 255 237 
-171 -130 412 123 91 80 
-170 -129 411 122 90 79 
-169 -129 410 138 84 58 
-168 -129 410 138 84 58 
-167 -129 409 149 85 49 
-167 -129 409 152 88 52 
-166 -129 409 154 92 55 
-165 -128 408 162 100 63 
-164 -128 408 172 107 65 
-164 -128 408 177 112 70 
-163 -128 408 176 109 66 
-162 -128 407 179 112 69 
-162 -128 408 184 119 77 
-161 -128 407 196 131 89 
-160 -128 407 203 141 100 
-160 -128 408 222 160 119 
-159 -128 408 220 165 126 
-159 -128 408 227 172 133 
-158 -128 408 232 186 152 
-157 -128 408 240 194 160 
-157 -128 408 251 214 185 
-171 -129 412 110 89 84 
-170 -129 412 108 87 82 
-169 -129 411 124 83 65 
-168 -128 410 124 83 65 
-168 -128 410 138 82 55 
-167 -128 409 142 86 59 
-166 -128 409 143 80 47 
-165 -128 409 148 85 52 
-164 -128 408 156 94 57 
-164 -128 408 165 103 66 
-163 -128 408 167 104 63 
-162 -128 408 170 107 66 
-162 -128 408 174 107 64 
-161 -128 408 181 114 71 
-160 -127 407 188 120 81 
-160 -128 408 206 138 99 
-159 -128 408 210 150 114 
-159 -128 408 220 160 124 
-158 -128 408 218 169 136 
-157 -128 408 234 185 152 
-157 -128 408 246 205 173 
-169 -128 411 114 82 71 
-168 -128 410 125 76 59 
-167 -128 410 128 79 62 
-166 -128 410 137 76 45 
-166 -128 410 137 76 45 
-165 -127 409 139 80 46 
-164 -127 408 149 90 56 
-163 -127 408 160 98 59 
-162 -127 408 166 104 65 
-162 -127 408 171 100 58 
-161 -127 408 174 103 61 
-160 -127 408 173 99 62 
-160 -127 408 182 108 71 
-159 -127 408 195 130 98 
-159 -127 409 212 147 115 
-158 -127 409 201 152 119 
-169 -128 412 104 86 82 
-167 -127 410 102 78 74 
-166 -127 410 131 77 51 
-166 -127 410 133 79 53 
-165 -127 409 141 80 49 
-164 -127 409 145 84 53 
-163 -127 409 152 88 52 
-163 -127 409 155 91 55 
-162 -127 409 160 97 62 
-161 -126 408 165 102 67 
-161 -127 409 164 104 68 
-160 -127 409 165 105 69 
-160 -127 409 169 111 73 
-159 -127 409 189 131 93 
-158 -126 408 197 143 105 
-167 -127 411 97 86 82 
-167 -127 411 110 78 65 
-166 -127 411 110 78 65 
-165 -126 410 124 76 53 
-164 -126 410 128 80 57 
-164 -126 410 145 81 46 
-163 -126 410 150 86 51 
-163 -126 410 157 89 54 
-162 -126 409 159 91 56 
-160 -126 408 156 95 64 
-160 -126 409 156 95 64 
-160 -126 409 153 97 64 
-159 -126 409 166 110 77 
-158 -126 409 177 124 90 
-158 -126 409 213 160 126 
-166 -126 411 111 77 65 
-164 -126 410 113 79 67 
-164 -126 410 132 78 54 
-163 -126 410 137 83 59 
-163 -126 410 147 83 55 
-162 -126 410 147 83 55 
-161 -125 409 147 83 55 
-160 -125 409 151 87 59 
-160 -125 409 153 94 64 
-159 -125 409 161 102 72 
-158 -125 409 171 117 83 
-158 -125 409 199 145 111 
-164 -125 411 108 75 66 
-164 -125 411 110 77 68 
-163 -125 411 122 76 60 
-162 -125 411 122 76 60 
-161 -125 410 130 74 51 
-161 -125 410 139 83 60 
-160 -125 410 148 89 59 
-159 -125 410 153 94 64 
-158 -125 409 159 102 72 
-158 -125 409 184 127 97 
-164 -125 412 99 85 85 
-163 -125 412 102 78 74 
-163 -125 412 100 76 72 
-162 -125 411 101 67 57 
-161 -124 410 107 73 63 
-160 -124 410 119 76 57 
-159 -124 410 125 82 63 
-159 -124 410 138 87 60 
-158 -125 410 168 117 90 
-164 -125 413 104 94 93 
-162 -124 411 102 90 92 
-161 -124 411 100 88 90 
-161 -124 412 102 83 79 
-160 -124 411 103 84 80 
-159 -124 411 118 81 65 
-162 -124 412 103 94 99 
-161 -124 412 101 92 97 
-161 -124 413 103 92 96 
-160 -124 412 105 94 98 
-159 -124 412 116 93 85 
