ply
format ascii 1.0
comment Created by CloudCompare v2.10.1 (Zephyrus)
comment Created 2020-05-06 7:44 PM
obj_info Generated by CloudCompare!
element vertex 367
property float x
property float y
property float z
property uchar red
property uchar green
property uchar blue
end_header
-61 40 405 153 92 64 
-61 40 405 151 90 61 
-60 40 405 150 89 60 
-59 40 405 153 93 65 
-59 40 405 155 95 67 
-58 40 404 155 97 73 
-57 40 404 148 90 66 
-57 40 405 145 89 64 
-56 40 404 157 101 76 
-55 40 404 158 102 77 
-55 40 405 158 102 77 
-54 40 405 158 104 78 
-53 40 405 160 106 80 
-53 40 405 154 102 78 
-52 40 405 149 97 73 
-51 40 406 138 92 76 
-51 40 406 137 91 75 
-61 41 405 186 126 98 
-60 41 405 182 122 94 
-60 41 405 176 116 88 
-59 40 404 177 117 91 
-58 40 404 178 118 92 
-58 40 404 173 117 92 
-57 40 404 148 92 67 
-57 41 405 152 98 74 
-56 41 405 176 122 98 
-55 41 405 183 129 105 
-55 41 405 182 128 104 
-54 41 405 181 127 103 
-53 41 405 182 128 104 
-53 41 405 174 122 98 
-52 41 405 168 116 92 
-51 41 405 156 108 88 
-51 41 406 149 101 81 
-50 41 406 131 98 81 
-50 41 407 126 93 76 
-61 41 405 205 145 108 
-60 41 405 204 146 109 
-60 41 404 204 146 109 
-59 41 404 201 146 116 
-58 41 404 201 146 116 
-58 41 404 194 142 120 
-57 41 404 149 97 75 
-56 41 404 149 101 81 
-56 41 404 197 149 129 
-55 41 404 198 147 126 
-55 41 405 200 149 128 
-54 41 405 197 147 122 
-53 41 405 196 146 121 
-53 41 405 195 145 120 
-52 41 405 187 137 112 
-51 41 405 184 133 114 
-51 41 406 174 123 104 
-50 41 406 150 110 98 
-50 41 407 134 94 82 
-62 42 405 197 138 98 
-61 42 404 209 150 110 
-60 42 404 216 158 121 
-60 42 404 219 161 124 
-59 42 403 219 166 135 
-58 42 403 222 169 138 
-58 42 403 214 164 141 
-57 42 403 156 106 83 
-56 42 403 156 109 89 
-56 42 403 212 165 145 
-55 42 403 212 164 142 
-54 42 404 216 168 146 
-54 42 404 214 167 141 
-53 42 404 211 164 138 
-52 42 404 208 161 135 
-52 42 404 204 157 131 
-51 42 404 197 150 124 
-51 42 405 189 142 116 
-50 42 406 162 123 106 
-50 42 407 138 99 82 
-63 43 407 191 134 104 
-62 43 405 195 138 108 
-62 43 405 205 146 106 
-61 42 404 214 155 115 
-60 42 404 223 165 128 
-60 42 403 228 170 133 
-59 42 403 233 180 149 
-58 42 403 240 187 156 
-57 42 402 232 182 159 
-57 42 403 157 107 84 
-56 42 403 155 108 88 
-56 42 403 230 183 163 
-55 42 403 232 186 163 
-54 42 403 233 187 164 
-54 42 404 228 182 158 
-53 42 404 226 180 156 
-52 42 403 221 175 149 
-52 42 404 219 173 147 
-51 42 404 211 166 137 
-51 43 405 203 158 129 
-50 43 406 180 139 119 
-50 43 407 164 123 103 
-49 43 407 121 88 79 
-64 43 408 165 138 121 
-63 43 406 194 138 101 
-62 43 405 203 147 110 
-62 43 404 212 153 113 
-61 43 404 217 158 118 
-60 43 403 227 169 132 
-60 43 403 234 176 139 
-59 43 403 244 191 160 
-58 43 402 252 199 168 
-57 43 402 244 194 171 
-57 43 402 159 109 86 
-56 43 403 154 107 87 
-56 43 403 246 199 179 
-55 43 403 252 205 185 
-54 43 403 249 202 182 
-54 43 403 239 193 170 
-53 43 403 239 193 170 
-52 43 403 231 185 161 
-52 43 404 228 182 158 
-51 43 404 221 177 148 
-51 43 405 212 168 139 
-50 43 406 195 153 131 
-50 43 407 172 130 108 
-49 43 407 109 71 58 
-64 44 407 176 141 119 
-63 44 406 197 139 99 
-62 44 405 208 150 110 
-62 44 404 214 155 115 
-61 44 403 220 161 121 
-60 44 403 230 174 137 
-60 44 403 239 183 146 
-59 44 403 250 197 166 
-58 44 402 255 202 171 
-57 44 402 246 196 173 
-57 44 402 163 113 90 
-56 44 403 159 112 92 
-56 44 403 250 203 183 
-55 44 403 255 210 189 
-54 44 403 255 210 189 
-54 44 403 249 203 180 
-53 44 403 248 202 179 
-52 44 403 239 193 167 
-52 44 404 235 189 163 
-51 44 404 229 188 160 
-51 44 405 212 171 143 
-50 44 406 212 167 144 
-50 44 407 181 136 113 
-49 44 407 132 89 72 
-64 45 407 181 139 114 
-63 45 406 198 141 96 
-62 44 405 209 152 107 
-62 44 404 215 158 115 
-61 44 403 223 166 123 
-60 44 403 235 179 142 
-60 44 403 242 186 149 
-59 44 402 245 194 163 
-58 44 402 249 198 167 
-57 44 401 243 196 170 
-57 44 402 170 123 97 
-56 44 403 171 125 102 
-56 44 403 250 204 181 
-55 44 402 252 207 184 
-54 44 402 255 210 187 
-54 44 403 254 210 185 
-53 44 403 251 207 182 
-52 44 403 242 197 168 
-52 44 404 238 193 164 
-51 44 404 232 188 159 
-51 45 405 221 177 148 
-50 45 406 215 171 146 
-49 45 406 191 147 122 
-49 45 407 135 97 78 
-64 45 407 183 136 108 
-63 45 406 201 144 99 
-62 45 405 210 153 108 
-62 45 404 218 159 115 
-61 45 403 227 168 124 
-60 45 403 236 181 142 
-60 45 403 242 187 148 
-59 45 402 243 190 158 
-58 45 402 252 199 167 
-57 45 401 245 195 168 
-57 45 402 179 129 102 
-56 45 403 176 128 105 
-56 45 403 252 204 181 
-55 45 403 255 211 187 
-54 45 402 255 211 187 
-54 45 403 255 210 182 
-53 45 403 254 207 179 
-52 45 403 246 197 167 
-52 45 403 241 192 162 
-51 45 404 235 187 151 
-51 45 405 233 185 149 
-50 45 406 211 169 144 
-49 45 406 179 137 112 
-49 45 407 118 86 75 
-64 46 406 185 135 110 
-63 46 406 203 145 105 
-62 46 405 211 153 113 
-62 46 404 218 157 112 
-61 46 403 228 167 122 
-60 46 403 235 177 137 
-60 46 403 240 182 142 
-59 45 402 240 186 152 
-58 45 402 250 196 162 
-57 45 401 239 185 157 
-57 45 402 171 117 89 
-56 45 402 157 105 81 
-55 45 402 244 192 168 
-55 45 402 255 209 184 
-54 45 402 255 205 180 
-54 46 403 255 206 176 
-53 46 403 255 206 176 
-52 46 403 250 200 167 
-52 46 403 242 192 159 
-51 46 404 241 189 149 
-51 46 405 231 179 139 
-50 46 406 214 174 149 
-49 46 406 183 143 118 
-49 46 407 137 111 110 
-64 47 406 188 136 115 
-63 47 406 204 140 92 
-62 46 405 208 144 96 
-62 46 404 215 151 105 
-61 46 403 226 162 116 
-60 46 403 231 173 127 
-60 46 403 235 177 131 
-59 46 403 234 178 141 
-58 46 402 244 188 151 
-57 46 401 238 183 142 
-57 46 402 147 92 51 
-56 46 403 134 75 71 
-56 46 403 248 189 185 
-55 46 403 248 198 163 
-54 46 402 248 198 163 
-54 46 403 251 202 162 
-53 46 403 252 203 163 
-52 46 403 248 195 164 
-52 46 403 242 189 158 
-51 46 404 231 185 152 
-51 47 405 225 179 146 
-50 47 406 219 169 134 
-49 47 406 196 146 111 
-49 47 407 143 122 131 
-64 47 405 183 132 115 
-63 47 405 199 136 92 
-62 47 405 205 142 98 
-62 47 404 211 148 104 
-61 47 404 220 157 113 
-60 47 403 230 169 124 
-60 47 403 233 172 127 
-59 47 403 236 176 139 
-58 47 402 242 182 145 
-57 47 402 238 176 137 
-57 47 403 161 99 60 
-56 47 403 134 71 66 
-56 47 403 246 183 178 
-55 47 403 252 198 164 
-54 47 403 252 198 164 
-54 47 404 248 196 157 
-53 47 403 251 199 160 
-52 47 403 246 193 162 
-52 47 403 244 191 160 
-51 47 404 231 185 151 
-51 47 405 227 181 147 
-50 47 406 221 171 136 
-49 47 406 200 150 115 
-49 47 407 144 128 138 
-63 48 404 201 139 98 
-62 48 404 206 144 103 
-62 48 404 216 153 110 
-61 48 403 220 157 114 
-60 48 403 231 170 125 
-60 48 403 229 168 123 
-59 48 403 235 171 133 
-58 47 402 238 174 136 
-57 47 402 236 172 134 
-57 48 403 175 111 73 
-56 48 403 143 76 68 
-56 48 403 236 169 161 
-55 48 403 241 182 152 
-54 48 403 249 190 160 
-54 48 403 248 194 158 
-53 48 403 254 200 164 
-52 48 403 243 188 158 
-52 48 403 238 183 153 
-51 48 404 230 182 146 
-51 48 405 226 178 142 
-50 48 405 219 169 134 
-49 48 406 192 142 107 
-49 48 407 132 122 133 
-63 48 403 184 138 123 
-63 48 403 202 140 99 
-62 48 403 207 145 104 
-61 48 403 211 150 106 
-61 48 403 216 155 111 
-60 48 403 229 168 123 
-60 48 403 228 167 122 
-59 48 402 232 171 127 
-58 48 402 233 172 128 
-57 48 402 235 173 134 
-57 48 402 174 112 73 
-56 48 402 161 98 83 
-55 48 402 237 174 159 
-55 48 402 229 172 142 
-54 48 402 239 182 152 
-54 48 402 244 190 154 
-53 48 403 250 196 160 
-52 48 403 240 187 155 
-52 48 403 237 184 152 
-51 48 404 233 185 149 
-50 48 404 221 173 137 
-50 48 405 218 168 133 
-49 49 406 199 149 114 
-49 49 407 136 129 137 
-62 49 403 212 149 106 
-61 49 403 211 148 107 
-61 49 403 216 153 112 
-60 49 403 227 166 121 
-60 49 403 230 169 124 
-59 49 402 230 172 126 
-58 49 402 229 171 125 
-57 49 402 225 170 129 
-57 49 402 155 100 59 
-56 49 402 144 86 64 
-55 49 402 226 168 146 
-55 49 402 229 174 143 
-54 49 402 239 184 153 
-54 49 402 243 189 155 
-53 49 402 243 189 155 
-52 49 403 239 184 153 
-52 49 403 238 183 152 
-51 49 403 229 179 144 
-50 49 404 223 173 138 
-50 49 404 217 168 136 
-49 49 405 186 137 105 
-49 49 406 122 110 112 
-62 49 402 219 156 113 
-61 49 402 216 152 114 
-61 49 402 219 155 117 
-59 49 402 229 166 122 
-59 49 402 227 168 124 
-58 49 402 225 166 122 
-57 49 402 219 164 125 
-57 49 402 158 103 64 
-56 49 402 144 89 59 
-55 49 402 218 163 133 
-55 49 402 231 176 146 
-54 49 402 238 183 153 
-54 49 402 242 185 156 
-53 49 402 240 183 154 
-52 49 402 236 181 151 
-52 50 403 231 176 146 
-51 50 403 223 173 140 
-50 50 404 223 173 140 
-50 50 404 207 160 132 
-57 50 401 237 181 146 
-57 50 401 212 156 121 
-56 50 401 209 154 123 
-55 50 401 238 183 152 
-55 50 401 243 187 160 
-54 50 401 241 185 158 
-54 50 402 242 186 159 
-53 50 402 244 188 161 
-52 50 402 240 189 162 
-52 50 402 237 186 159 
-51 50 403 234 185 153 
-50 50 403 231 182 150 
-50 50 404 221 176 153 
