ply
format ascii 1.0
comment Created by CloudCompare v2.10.1 (Zephyrus)
comment Created 2020-05-06 7:45 PM
obj_info Generated by CloudCompare!
element vertex 634
property float x
property float y
property float z
property uchar red
property uchar green
property uchar blue
end_header
-64 186 400 190 151 118 
-63 186 400 193 154 121 
-63 186 400 197 152 119 
-65 187 400 204 170 142 
-64 186 399 205 171 143 
-64 186 399 208 169 136 
-63 186 399 212 173 140 
-62 186 399 214 171 137 
-62 187 400 210 167 133 
-61 187 401 207 163 134 
-61 187 401 207 163 134 
-60 188 403 208 165 131 
-66 187 400 196 166 142 
-65 186 398 197 162 134 
-64 186 397 208 173 145 
-63 186 397 215 174 142 
-63 186 398 213 172 140 
-62 186 398 222 179 145 
-62 187 399 224 181 147 
-61 187 399 220 176 147 
-61 187 400 217 173 144 
-60 188 401 216 173 141 
-60 188 402 217 174 142 
-59 189 403 218 178 142 
-59 189 404 207 167 131 
-58 190 405 199 163 127 
-58 190 406 199 163 127 
-67 188 401 199 169 143 
-65 187 398 190 160 134 
-64 186 396 200 165 137 
-64 186 396 204 169 141 
-63 186 396 218 175 143 
-63 186 397 215 172 140 
-62 186 397 219 174 141 
-62 187 398 220 175 142 
-61 187 399 221 178 144 
-60 187 399 219 176 142 
-60 188 400 215 174 142 
-60 188 401 214 173 141 
-59 189 402 207 169 132 
-59 189 403 205 167 130 
-58 190 404 201 167 129 
-58 190 405 192 158 120 
-57 191 407 194 163 132 
-67 189 402 204 171 154 
-66 187 398 200 163 137 
-65 187 397 193 156 130 
-64 186 396 202 163 130 
-64 187 396 210 171 138 
-63 187 396 207 169 133 
-63 187 396 209 171 135 
-62 187 397 212 174 137 
-61 187 397 212 174 137 
-61 187 398 214 176 137 
-60 188 399 213 175 136 
-60 188 399 215 176 133 
-59 188 400 212 173 130 
-59 189 401 207 168 129 
-58 189 402 201 162 123 
-58 190 403 200 161 128 
-57 190 404 197 158 125 
-68 191 404 207 172 152 
-67 188 398 199 164 144 
-66 187 396 199 160 131 
-65 187 396 199 160 131 
-64 187 395 204 161 127 
-64 187 395 210 167 133 
-63 187 395 208 166 128 
-62 187 395 209 167 129 
-62 187 395 212 173 132 
-61 187 396 212 173 132 
-61 188 397 214 172 130 
-60 188 397 211 169 127 
-60 188 398 211 173 128 
-59 189 399 210 172 127 
-59 189 399 204 162 122 
-58 190 401 197 155 115 
-58 190 402 194 154 119 
-57 190 403 191 151 116 
-67 188 397 203 166 140 
-66 187 395 195 158 132 
-66 187 395 201 158 126 
-65 187 394 203 160 128 
-64 187 394 207 162 123 
-63 186 393 209 164 125 
-63 187 394 210 165 123 
-62 187 394 210 165 123 
-62 187 394 213 169 124 
-61 187 395 216 172 127 
-61 188 396 215 171 124 
-60 188 396 213 169 122 
-60 188 397 213 172 126 
-59 188 397 212 171 125 
-58 189 398 201 159 117 
-58 190 400 192 150 108 
-58 190 401 188 148 112 
-57 191 402 186 146 110 
-57 192 405 183 144 113 
-68 189 398 200 164 140 
-67 188 395 197 156 126 
-66 187 394 195 154 124 
-65 187 393 203 157 121 
-65 187 393 202 156 120 
-64 187 393 207 158 115 
-63 187 393 209 160 117 
-63 187 393 215 164 119 
-62 187 393 214 163 118 
-62 187 394 214 163 116 
-61 187 394 219 168 121 
-60 187 394 220 170 121 
-60 188 395 219 169 120 
-59 188 396 215 173 125 
-59 188 396 213 171 123 
-58 189 397 202 159 116 
-58 190 399 192 149 106 
-57 190 400 188 146 108 
-57 191 401 185 143 105 
-57 192 404 183 144 111 
-69 191 401 200 159 129 
-67 188 395 197 156 126 
-66 188 393 198 154 119 
-66 188 393 200 156 121 
-65 187 392 205 156 115 
-64 187 392 202 153 112 
-64 187 392 206 153 109 
-63 187 392 210 157 113 
-63 187 392 216 162 115 
-62 187 392 214 160 113 
-61 188 393 214 161 111 
-61 188 393 218 165 115 
-60 188 394 221 168 118 
-60 188 394 219 166 116 
-59 189 395 214 172 124 
-59 189 396 213 171 123 
-58 189 396 203 160 117 
-58 190 398 195 152 109 
-57 190 399 187 145 105 
-57 191 401 182 140 100 
-57 192 403 181 141 106 
-68 189 395 199 156 121 
-67 188 393 200 157 122 
-66 188 392 204 156 116 
-65 187 391 203 155 115 
-65 187 391 207 156 113 
-64 187 390 210 159 116 
-64 187 391 211 157 110 
-63 187 391 216 162 115 
-62 187 391 217 161 112 
-62 187 391 214 158 109 
-61 188 392 215 159 108 
-61 188 392 219 163 112 
-60 188 393 221 165 116 
-60 189 394 220 164 115 
-59 189 394 214 170 121 
-59 189 395 214 170 121 
-58 190 396 208 165 120 
-58 190 397 200 157 112 
-57 191 398 189 147 107 
-57 192 400 182 140 100 
-69 190 396 198 158 122 
-67 188 392 202 158 119 
-67 188 391 204 160 121 
-66 187 390 207 158 115 
-65 187 390 204 155 112 
-65 187 390 211 159 112 
-64 187 390 215 163 116 
-63 187 390 218 162 113 
-63 187 390 225 169 120 
-62 188 391 218 160 110 
-62 188 391 210 152 102 
-61 188 391 215 157 107 
-60 188 391 219 161 111 
-60 188 392 220 164 115 
-59 188 392 219 163 114 
-59 189 393 216 170 120 
-58 189 394 216 170 120 
-58 190 395 212 168 121 
-57 190 396 205 161 114 
-57 191 397 194 151 109 
-57 192 399 184 141 99 
-70 192 399 199 157 117 
-68 189 393 203 161 121 
-67 188 391 209 164 122 
-67 188 390 208 163 121 
-66 187 389 209 158 113 
-65 187 389 209 158 113 
-64 187 389 213 161 113 
-64 187 389 213 161 113 
-63 187 389 218 162 113 
-63 187 389 227 171 122 
-62 188 390 216 159 106 
-62 188 390 206 149 96 
-61 188 390 214 156 106 
-60 188 390 217 159 109 
-60 188 391 216 160 111 
-59 189 392 217 161 112 
-59 189 392 214 168 116 
-58 189 393 214 168 116 
-58 190 394 212 168 119 
-57 190 395 205 161 112 
-57 191 396 194 151 109 
-56 192 398 184 141 99 
-56 193 400 177 133 98 
-69 191 395 200 151 108 
-68 189 391 204 155 112 
-67 188 389 215 164 119 
-66 188 388 215 164 119 
-66 188 388 211 160 113 
-65 188 388 214 163 116 
-64 188 388 216 165 118 
-64 188 388 212 161 114 
-63 188 388 217 166 119 
-62 188 388 217 166 119 
-62 188 389 215 161 114 
-61 188 389 210 156 109 
-61 188 389 208 155 105 
-60 189 390 212 159 109 
-60 189 390 214 162 114 
-59 189 391 214 162 114 
-59 190 392 216 166 117 
-58 190 392 214 164 115 
-58 191 394 214 167 121 
-57 191 395 209 162 116 
-57 191 396 197 154 112 
-56 192 397 186 143 101 
-56 193 399 176 136 100 
-69 190 391 207 156 111 
-68 189 390 209 158 113 
-67 188 388 216 164 117 
-66 188 388 217 165 118 
-66 188 388 214 162 115 
-65 188 388 219 167 120 
-64 188 388 222 170 123 
-64 188 388 218 166 119 
-63 188 388 218 166 118 
-62 188 388 217 165 117 
-62 188 388 217 164 114 
-61 188 388 215 162 112 
-61 189 389 212 159 109 
-60 189 389 214 161 111 
-60 189 390 215 162 112 
-59 189 390 214 161 111 
-59 190 391 215 163 115 
-58 190 392 213 161 113 
-58 191 393 214 166 120 
-57 191 394 212 164 118 
-57 192 395 202 159 117 
-56 193 397 190 147 105 
-70 191 393 205 165 130 
-68 189 389 214 162 115 
-67 189 388 213 161 114 
-67 188 387 217 165 117 
-66 188 387 217 165 117 
-65 188 387 217 163 116 
-65 188 387 223 169 122 
-64 188 387 225 171 124 
-64 188 387 222 168 121 
-63 188 387 223 169 122 
-62 188 387 219 165 118 
-62 188 387 222 166 117 
-61 188 387 223 167 118 
-61 189 388 220 164 115 
-60 189 389 220 164 115 
-60 189 389 221 165 116 
-59 190 390 218 162 113 
-59 190 391 217 163 116 
-58 190 391 215 161 114 
-57 191 392 216 165 120 
-57 191 393 215 164 119 
-57 192 395 209 161 121 
-56 193 396 196 148 108 
-69 190 390 210 170 134 
-68 189 388 215 163 115 
-67 189 387 215 163 115 
-67 189 387 218 166 118 
-66 188 386 218 166 118 
-65 188 386 219 166 116 
-65 188 386 223 170 120 
-64 188 386 225 172 122 
-63 188 386 222 169 119 
-63 188 386 223 170 120 
-62 188 386 221 168 118 
-62 188 386 224 168 119 
-61 189 387 228 172 123 
-60 189 387 227 171 122 
-60 189 388 227 171 122 
-60 190 389 227 171 122 
-59 190 389 224 168 119 
-58 190 390 223 167 118 
-58 191 391 220 164 115 
-57 191 391 218 166 119 
-57 192 393 216 164 117 
-57 192 394 209 161 121 
-56 193 396 197 149 109 
-70 193 394 207 168 127 
-69 190 388 211 172 131 
-68 189 387 217 165 117 
-67 189 387 217 165 117 
-66 189 386 222 170 122 
-66 189 386 222 170 122 
-65 189 386 223 171 123 
-65 189 386 226 174 126 
-64 189 386 226 174 124 
-63 189 386 223 171 121 
-63 189 386 222 169 119 
-62 189 386 220 167 117 
-62 189 386 225 172 122 
-61 189 386 230 177 127 
-60 189 387 230 177 127 
-60 190 387 229 176 126 
-59 190 388 231 175 126 
-59 190 389 230 174 125 
-58 190 389 224 171 121 
-58 191 390 222 169 119 
-57 191 391 221 170 123 
-57 192 392 217 166 119 
-57 193 394 208 163 121 
-56 193 395 196 151 109 
-70 192 391 209 170 127 
-68 190 387 211 172 129 
-68 190 386 221 171 122 
-67 190 386 222 172 123 
-66 189 385 226 175 128 
-66 189 385 228 177 130 
-65 189 385 230 180 131 
-64 189 385 232 182 133 
-64 189 385 231 179 131 
-63 189 385 228 176 128 
-63 189 385 222 170 120 
-62 189 385 222 170 120 
-61 189 385 227 175 125 
-61 190 386 231 179 129 
-60 190 386 230 178 128 
-60 190 387 230 178 128 
-59 190 387 232 179 129 
-59 191 388 232 179 129 
-58 191 389 225 173 123 
-58 192 390 225 173 123 
-57 192 391 222 174 125 
-57 193 392 217 169 120 
-56 193 393 210 165 123 
-56 194 395 199 154 112 
-70 192 390 213 175 130 
-68 191 387 216 178 133 
-68 190 386 226 178 130 
-67 190 385 226 178 130 
-66 189 384 229 181 135 
-65 189 384 231 183 137 
-65 189 384 234 186 138 
-64 189 384 236 188 140 
-64 189 384 236 186 137 
-63 189 384 234 184 135 
-62 189 384 231 179 131 
-62 189 384 230 178 130 
-61 189 384 233 183 134 
-61 190 385 235 185 136 
-60 190 386 234 182 134 
-60 190 386 234 182 134 
-59 191 387 235 183 133 
-59 191 388 232 180 130 
-58 191 388 227 177 128 
-58 192 389 229 179 130 
-57 193 391 224 178 129 
-57 193 392 214 168 119 
-56 194 393 207 164 121 
-56 194 394 198 155 112 
-69 192 389 220 179 135 
-68 191 386 225 184 140 
-67 190 385 231 183 137 
-67 190 384 230 182 136 
-66 190 384 232 184 138 
-65 190 384 233 185 139 
-65 190 384 236 188 142 
-64 190 384 238 190 144 
-64 190 384 239 188 141 
-63 190 384 238 187 140 
-62 190 384 238 188 139 
-62 190 384 236 186 137 
-61 190 384 240 190 141 
-61 190 384 242 192 143 
-60 190 385 239 189 140 
-60 191 386 239 189 140 
-59 191 386 239 187 137 
-59 191 387 232 180 130 
-58 192 388 228 180 131 
-58 192 389 231 183 134 
-57 193 390 224 178 129 
-57 193 391 210 164 115 
-56 194 393 201 160 116 
-69 192 387 218 183 141 
-68 191 385 225 190 148 
-67 190 384 230 182 136 
-67 190 384 228 180 134 
-66 190 383 236 185 140 
-65 190 383 240 189 144 
-65 190 383 242 191 146 
-64 190 383 242 191 146 
-63 190 383 237 189 143 
-63 190 383 237 189 143 
-62 190 383 241 193 147 
-62 190 383 244 196 150 
-61 190 384 243 195 149 
-61 190 384 241 193 147 
-60 190 384 240 192 146 
-59 191 385 239 191 145 
-59 191 386 234 186 140 
-59 192 387 231 183 137 
-58 192 387 229 182 136 
-57 192 388 225 178 132 
-57 193 390 222 178 133 
-57 194 391 210 166 121 
-69 192 387 224 186 147 
-68 191 385 230 192 153 
-67 191 384 226 182 137 
-66 190 383 228 184 139 
-66 190 383 236 189 145 
-65 190 382 240 193 149 
-64 190 382 242 195 151 
-64 190 382 242 195 151 
-63 190 382 240 196 151 
-63 190 382 241 197 152 
-62 190 382 243 198 156 
-62 190 383 244 199 157 
-61 190 383 245 198 156 
-61 191 384 243 196 154 
-60 191 384 243 196 154 
-59 191 384 242 195 153 
-59 192 385 235 190 148 
-58 192 386 232 187 145 
-58 193 387 229 185 138 
-57 193 388 224 180 133 
-57 194 389 220 176 131 
-70 195 391 217 178 145 
-69 193 387 226 188 151 
-68 192 385 232 194 157 
-67 191 383 228 184 145 
-66 191 383 233 189 150 
-66 191 382 238 195 153 
-65 191 382 243 200 158 
-64 191 382 244 201 159 
-64 191 382 244 201 159 
-63 191 382 246 203 161 
-63 191 382 246 203 161 
-62 191 382 247 204 162 
-61 191 382 246 203 161 
-61 191 383 246 201 160 
-61 192 384 245 200 159 
-60 192 384 247 202 161 
-59 192 384 246 201 160 
-59 192 385 240 195 154 
-58 193 386 235 190 149 
-58 193 387 231 187 140 
-57 194 388 224 180 133 
-57 194 389 217 173 128 
-69 194 387 227 189 152 
-68 192 384 232 194 157 
-67 192 383 234 190 153 
-66 191 382 241 197 160 
-66 191 382 246 201 162 
-65 191 381 249 204 165 
-64 191 381 249 204 165 
-64 191 381 247 202 163 
-63 191 381 250 205 166 
-62 191 381 250 205 166 
-62 191 382 249 204 165 
-61 191 382 248 203 164 
-61 191 382 249 201 163 
-60 192 383 250 202 164 
-60 192 384 253 205 167 
-59 192 384 252 204 166 
-59 193 385 246 198 160 
-58 193 386 239 191 153 
-58 194 387 230 188 140 
-57 194 388 222 180 132 
-57 195 389 214 171 128 
-69 194 386 230 192 156 
-68 193 384 234 196 160 
-67 192 382 242 196 160 
-66 192 382 248 202 166 
-66 191 381 249 205 168 
-65 191 381 250 206 169 
-64 191 381 250 204 168 
-64 191 381 249 203 167 
-63 191 381 250 205 166 
-62 191 381 249 204 165 
-62 191 381 253 205 167 
-61 192 382 252 204 166 
-61 192 382 252 204 166 
-60 192 382 253 205 167 
-60 193 384 255 207 169 
-59 193 384 255 207 169 
-59 193 384 249 201 163 
-58 194 386 243 195 157 
-58 194 387 232 189 144 
-57 195 388 223 180 135 
-57 195 389 214 172 130 
-69 194 386 232 192 157 
-68 193 383 238 198 163 
-67 192 382 244 202 164 
-66 192 382 247 205 167 
-66 192 381 249 207 169 
-65 192 381 249 207 169 
-64 192 381 249 207 169 
-64 192 381 249 207 169 
-63 192 381 250 208 170 
-62 192 381 250 208 170 
-62 192 381 252 208 171 
-61 192 381 254 210 173 
-61 192 382 254 212 174 
-60 192 382 255 213 175 
-60 193 383 255 211 174 
-59 193 384 254 210 173 
-59 193 384 249 205 168 
-58 194 385 243 199 162 
-58 195 387 233 192 146 
-57 195 388 224 183 137 
-69 195 386 232 189 154 
-68 193 383 241 198 163 
-67 193 382 244 206 170 
-66 192 381 244 206 170 
-66 192 381 245 207 171 
-65 192 381 244 206 170 
-64 192 380 246 208 172 
-64 192 380 249 211 175 
-63 192 380 251 213 177 
-62 192 380 253 215 179 
-62 192 381 254 214 179 
-61 192 381 255 216 181 
-61 192 381 255 219 183 
-60 193 382 255 218 182 
-60 193 383 254 216 180 
-59 193 383 252 214 178 
-59 194 384 247 207 172 
-58 195 385 239 199 164 
-69 196 386 231 187 150 
-68 194 384 241 197 160 
-67 193 382 243 207 173 
-66 193 381 242 206 172 
-65 192 380 242 206 172 
-65 192 380 241 205 171 
-64 193 380 245 209 175 
-63 192 379 250 214 180 
-63 193 380 252 216 182 
-62 193 380 255 221 187 
-62 193 380 255 219 187 
-61 193 381 255 221 189 
-61 193 381 255 221 189 
-60 194 382 255 219 187 
-60 194 383 253 217 185 
-59 194 383 250 214 182 
-59 195 384 244 208 176 
-68 195 384 240 197 162 
-67 195 383 240 200 165 
-66 194 381 242 202 167 
-65 193 380 243 204 171 
-65 193 380 246 207 174 
-64 193 380 250 214 182 
-63 193 379 254 218 186 
-63 193 380 255 220 192 
-62 193 380 255 221 193 
-62 193 380 255 224 196 
-61 194 381 255 225 197 
-61 194 381 255 226 196 
-60 194 382 255 222 192 
-60 195 383 255 220 188 
-59 195 383 250 215 183 
-59 195 384 241 205 171 
-68 196 384 240 197 162 
-67 195 382 238 200 164 
-66 194 381 241 203 167 
-65 194 380 243 207 173 
-65 193 379 248 212 178 
-64 193 379 253 218 188 
-63 193 379 255 222 192 
-63 193 379 255 223 195 
-62 194 380 255 224 196 
-62 194 380 255 226 198 
-61 194 381 255 227 199 
-61 194 381 255 225 196 
-60 195 382 252 221 192 
-60 195 383 252 219 188 
-59 196 384 249 216 185 
-59 196 385 239 204 172 
-68 196 384 240 197 163 
-67 196 383 236 197 164 
-66 195 381 240 201 168 
-65 194 380 244 208 176 
-65 194 379 251 215 183 
-64 194 379 252 221 192 
-63 194 379 254 223 194 
-63 194 379 254 224 196 
-62 194 379 255 226 198 
-62 194 380 255 229 202 
-61 195 381 255 229 202 
-61 195 382 255 226 198 
-60 195 382 254 224 196 
-60 196 383 250 219 190 
-59 196 384 244 213 184 
-67 196 383 236 197 164 
-66 195 381 240 201 168 
-65 195 380 245 210 178 
-65 194 379 252 217 185 
-64 194 379 252 223 193 
-63 194 379 253 224 194 
-63 194 379 252 226 199 
-62 194 379 254 228 201 
-62 195 380 255 232 204 
-61 195 381 254 230 202 
-61 196 382 254 228 201 
-60 196 383 252 226 199 
-66 196 381 244 203 171 
-65 195 380 248 213 183 
-65 195 379 255 220 190 
-64 195 379 255 226 196 
-63 195 379 255 227 197 
-63 195 379 254 230 202 
-62 195 379 255 233 205 
-62 195 380 255 234 207 
-61 196 381 253 232 205 
-66 197 382 248 204 175 
-65 196 380 250 213 184 
-65 196 379 255 220 191 
-64 196 379 255 226 198 
-63 196 379 255 229 201 
-63 196 379 255 234 207 
-62 196 380 255 236 209 
-62 196 380 254 233 206 
-65 197 381 251 214 187 
-65 197 380 255 220 193 
-64 197 380 253 226 199 
-63 197 380 255 230 203 
-63 197 380 255 234 210 
-62 197 381 255 234 210 
-62 197 381 253 233 208 
