ply
format ascii 1.0
comment Created by CloudCompare v2.10.1 (Zephyrus)
comment Created 2020-05-06 7:42 PM
obj_info Generated by CloudCompare!
element vertex 1489
property float x
property float y
property float z
property uchar red
property uchar green
property uchar blue
end_header
-146 -126 408 111 94 86 
-146 -126 409 103 86 78 
-147 -125 407 248 234 221 
-147 -125 407 229 215 202 
-146 -125 407 205 188 178 
-146 -125 408 148 131 121 
-145 -125 408 109 98 92 
-148 -124 407 252 244 221 
-147 -124 407 255 252 234 
-147 -124 407 253 246 228 
-146 -124 407 255 243 230 
-145 -124 407 237 223 210 
-145 -125 408 186 173 164 
-144 -125 408 118 105 96 
-148 -124 407 254 246 223 
-147 -124 407 255 254 233 
-147 -124 407 255 253 232 
-146 -124 407 255 246 229 
-145 -124 407 252 243 226 
-145 -124 407 253 241 229 
-144 -124 407 213 201 189 
-144 -124 408 139 126 118 
-143 -124 408 108 95 87 
-143 -124 408 112 98 97 
-150 -123 407 253 221 196 
-149 -123 407 255 236 211 
-149 -123 408 255 250 223 
-148 -123 407 255 254 227 
-147 -123 407 250 248 225 
-147 -123 407 255 253 230 
-146 -123 406 255 251 231 
-145 -123 407 255 251 231 
-145 -123 407 255 254 239 
-144 -123 407 255 251 236 
-144 -123 408 227 217 205 
-143 -123 408 155 145 133 
-142 -123 407 108 97 91 
-142 -123 408 109 98 92 
-151 -122 407 225 176 146 
-151 -122 407 255 208 178 
-150 -122 407 255 225 199 
-149 -122 407 255 231 205 
-149 -123 408 255 242 216 
-148 -122 407 255 246 220 
-147 -122 407 254 250 223 
-147 -122 407 255 255 228 
-146 -122 407 255 253 228 
-145 -122 407 255 254 229 
-145 -122 407 255 255 237 
-144 -122 406 255 255 237 
-143 -122 407 255 253 237 
-143 -122 407 245 238 222 
-142 -123 407 178 170 159 
-142 -123 408 114 106 95 
-151 -122 407 228 177 146 
-151 -122 407 253 202 171 
-150 -122 407 255 218 189 
-149 -122 407 255 225 196 
-149 -122 407 255 238 211 
-148 -121 406 255 238 211 
-147 -122 407 255 252 224 
-147 -122 407 255 254 226 
-146 -122 406 255 254 226 
-145 -122 406 254 253 225 
-144 -122 406 255 255 236 
-144 -122 406 255 255 235 
-143 -122 407 255 255 237 
-143 -122 407 255 255 237 
-142 -122 407 251 245 231 
-142 -122 407 203 197 183 
-141 -122 407 134 125 120 
-141 -122 408 107 98 93 
-152 -121 407 151 91 55 
-152 -121 407 198 138 102 
-151 -121 407 230 175 145 
-151 -121 407 249 194 164 
-150 -121 407 235 201 156 
-149 -121 407 249 215 170 
-149 -121 407 255 229 187 
-148 -121 406 255 235 193 
-147 -121 406 255 239 210 
-147 -121 407 255 247 218 
-146 -121 406 255 255 225 
-145 -121 406 255 255 228 
-144 -121 406 254 251 232 
-144 -121 406 253 250 231 
-143 -121 407 255 254 235 
-143 -121 407 255 252 233 
-142 -121 407 255 252 236 
-142 -121 407 255 249 233 
-141 -121 407 221 215 201 
-140 -121 407 152 146 132 
-152 -120 407 162 102 68 
-152 -120 407 204 144 110 
-151 -120 407 218 159 127 
-151 -120 407 234 175 143 
-150 -120 407 234 193 149 
-149 -120 407 247 206 162 
-149 -120 407 251 218 175 
-148 -120 406 255 226 183 
-147 -120 406 255 231 200 
-147 -121 407 255 239 208 
-146 -120 406 255 251 221 
-145 -120 406 255 255 226 
-144 -120 406 255 252 230 
-144 -120 406 255 250 228 
-143 -121 407 255 254 233 
-143 -121 407 254 252 231 
-142 -121 407 251 250 230 
-142 -121 407 255 254 234 
-141 -121 407 255 254 239 
-140 -121 407 238 235 220 
-140 -121 407 177 167 158 
-153 -120 408 163 106 76 
-152 -120 407 190 133 103 
-151 -120 407 206 143 108 
-151 -120 407 222 159 124 
-150 -120 407 224 177 131 
-149 -120 407 239 192 146 
-149 -120 407 245 207 162 
-148 -120 406 255 219 174 
-147 -120 406 255 225 191 
-146 -120 406 255 231 197 
-146 -120 406 255 242 209 
-145 -120 406 255 250 217 
-144 -120 406 255 250 224 
-144 -120 407 255 250 224 
-143 -120 407 255 255 233 
-143 -120 407 255 255 234 
-142 -120 407 254 255 235 
-142 -120 407 250 252 231 
-141 -120 407 254 252 237 
-140 -120 407 255 254 239 
-140 -120 407 251 241 231 
-139 -120 407 202 192 182 
-139 -120 408 140 122 118 
-138 -120 408 106 88 84 
-153 -120 409 157 106 77 
-152 -119 408 175 124 95 
-152 -119 408 199 137 100 
-151 -119 408 210 148 111 
-150 -119 407 209 157 110 
-149 -119 407 227 175 128 
-149 -119 407 236 192 147 
-148 -119 406 254 210 165 
-147 -119 406 254 219 181 
-146 -119 406 255 223 185 
-146 -119 406 255 235 198 
-145 -119 406 255 243 206 
-144 -119 406 254 247 219 
-144 -119 407 255 248 220 
-144 -119 407 253 251 226 
-143 -119 407 253 251 226 
-142 -119 407 254 255 235 
-142 -119 407 253 255 234 
-141 -119 407 254 252 237 
-140 -119 407 255 253 238 
-140 -119 407 255 251 242 
-139 -119 407 254 245 236 
-138 -119 407 231 216 211 
-138 -119 407 156 141 136 
-153 -119 410 160 118 94 
-152 -119 409 185 125 88 
-151 -119 408 194 134 97 
-150 -119 407 196 142 96 
-149 -119 407 212 158 112 
-149 -119 407 222 173 130 
-148 -119 407 243 194 151 
-147 -118 406 249 207 165 
-146 -118 406 255 213 171 
-146 -118 406 255 226 186 
-145 -119 407 255 235 195 
-145 -119 407 253 244 213 
-144 -118 406 255 251 220 
-144 -119 407 255 255 226 
-143 -119 407 255 254 225 
-142 -119 407 255 254 234 
-142 -119 407 255 255 236 
-141 -119 407 255 253 240 
-140 -119 407 255 253 240 
-140 -119 407 255 255 246 
-139 -119 407 255 252 243 
-138 -119 407 255 247 242 
-138 -119 407 240 231 226 
-137 -119 407 182 171 167 
-153 -119 410 144 111 92 
-152 -118 409 172 118 80 
-151 -118 409 180 126 88 
-150 -118 408 189 132 89 
-149 -118 407 200 143 100 
-149 -118 407 208 155 113 
-148 -118 407 228 175 133 
-147 -118 407 240 193 149 
-147 -118 407 252 205 161 
-146 -118 407 255 218 174 
-145 -118 407 255 228 184 
-145 -118 407 250 237 203 
-144 -118 406 255 243 209 
-143 -118 406 255 249 217 
-143 -118 407 255 253 221 
-142 -118 407 254 252 229 
-142 -118 407 255 255 232 
-141 -118 407 255 253 240 
-140 -118 407 255 254 241 
-140 -118 407 255 255 248 
-139 -118 407 255 255 248 
-138 -118 407 255 254 248 
-138 -118 407 255 254 248 
-137 -118 407 255 248 243 
-136 -118 407 203 194 189 
-136 -118 407 136 125 123 
-153 -118 411 125 99 82 
-152 -118 410 157 107 72 
-151 -118 409 167 117 82 
-151 -118 409 178 118 81 
-150 -118 408 187 127 90 
-149 -118 408 196 138 98 
-148 -117 407 214 156 116 
-147 -117 407 228 176 129 
-147 -117 407 244 192 145 
-146 -117 407 248 205 160 
-145 -117 407 255 217 172 
-145 -117 407 253 233 196 
-144 -117 406 255 237 200 
-143 -117 406 251 241 205 
-143 -117 406 255 249 213 
-142 -117 406 253 252 224 
-141 -117 406 255 254 226 
-141 -117 406 253 254 238 
-140 -117 406 254 255 239 
-139 -117 406 255 255 248 
-139 -117 406 255 255 248 
-138 -117 407 255 254 250 
-138 -117 407 255 254 250 
-137 -117 407 255 251 245 
-136 -117 407 255 250 244 
-136 -117 407 226 219 213 
-135 -117 407 147 140 134 
-134 -117 407 106 92 91 
-153 -118 411 146 97 64 
-152 -117 410 153 104 71 
-151 -117 410 164 104 68 
-150 -117 409 175 115 79 
-149 -117 408 189 127 88 
-148 -117 408 204 142 103 
-147 -117 407 217 161 114 
-147 -117 407 234 178 131 
-146 -117 407 239 193 144 
-145 -116 406 254 208 159 
-144 -116 406 247 222 182 
-144 -116 406 255 232 192 
-143 -116 406 252 238 199 
-143 -116 406 255 247 208 
-142 -116 405 251 250 219 
-141 -116 405 254 253 222 
-140 -116 405 253 254 236 
-140 -116 405 255 255 238 
-139 -116 405 255 255 248 
-139 -116 406 255 255 248 
-138 -116 406 255 254 250 
-138 -117 407 255 254 250 
-137 -117 407 255 254 248 
-136 -117 407 255 254 248 
-136 -117 407 255 255 246 
-135 -117 407 238 234 225 
-135 -117 407 181 167 166 
-134 -117 407 112 98 97 
-153 -118 413 125 93 80 
-152 -117 411 130 98 85 
-151 -117 410 160 102 64 
-150 -117 409 168 110 72 
-149 -117 409 183 121 72 
-148 -116 408 196 134 85 
-147 -116 407 202 150 103 
-147 -116 407 216 164 117 
-146 -116 407 234 182 135 
-145 -116 406 250 198 151 
-144 -116 406 249 208 162 
-144 -116 406 255 217 171 
-143 -116 406 255 230 190 
-143 -116 406 255 237 197 
-142 -115 405 255 247 215 
-141 -115 405 255 251 219 
-140 -115 405 255 255 236 
-140 -115 405 255 255 236 
-139 -115 405 251 255 241 
-138 -116 405 250 254 240 
-138 -116 406 251 255 247 
-137 -116 406 252 255 248 
-137 -116 406 253 254 246 
-136 -116 406 253 254 246 
-135 -116 406 254 254 242 
-135 -116 406 253 253 241 
-134 -116 406 249 238 234 
-134 -116 406 196 185 181 
-133 -116 407 121 106 103 
-133 -116 407 101 86 83 
-152 -117 412 120 93 82 
-151 -116 410 142 93 63 
-150 -116 409 150 101 71 
-149 -116 409 170 111 67 
-149 -116 409 182 123 79 
-148 -116 408 191 135 88 
-147 -116 408 204 148 101 
-146 -115 407 218 166 119 
-145 -115 407 233 181 134 
-144 -115 406 238 194 147 
-144 -115 406 252 208 161 
-143 -115 406 254 221 180 
-143 -115 406 255 228 187 
-142 -115 405 255 238 206 
-141 -115 405 255 245 213 
-140 -115 405 255 253 229 
-140 -115 405 255 255 231 
-139 -115 405 251 254 237 
-138 -115 405 252 255 238 
-138 -115 406 253 255 245 
-137 -115 406 254 255 246 
-137 -115 406 253 254 246 
-136 -115 406 252 253 245 
-135 -115 406 254 254 244 
-135 -115 406 255 255 245 
-134 -115 406 255 245 243 
-134 -115 406 255 249 247 
-133 -115 406 218 207 203 
-133 -116 407 135 124 120 
-152 -116 412 112 91 86 
-151 -116 411 127 92 73 
-150 -115 410 133 98 79 
-149 -115 409 157 105 68 
-149 -115 409 168 116 79 
-148 -115 408 183 122 75 
-147 -115 408 195 134 87 
-146 -115 408 205 151 104 
-145 -115 407 217 163 116 
-145 -115 407 226 176 127 
-144 -114 406 244 194 145 
-143 -114 406 250 209 165 
-143 -114 406 255 217 173 
-142 -114 405 255 228 191 
-141 -114 405 255 236 199 
-140 -114 405 255 246 217 
-140 -114 405 255 250 221 
-139 -114 405 253 251 230 
-138 -114 405 255 253 232 
-138 -115 406 253 255 241 
-137 -115 406 253 255 241 
-137 -115 406 253 255 244 
-136 -115 406 252 254 243 
-136 -115 406 254 254 246 
-135 -115 406 255 255 247 
-134 -115 406 255 246 244 
-134 -115 406 255 249 247 
-133 -115 406 255 249 246 
-132 -115 406 231 223 220 
-132 -115 407 157 150 144 
-131 -115 407 98 91 85 
-152 -115 412 115 92 84 
-151 -115 412 117 94 86 
-150 -115 411 142 97 68 
-149 -115 410 151 106 77 
-148 -115 409 174 112 65 
-148 -115 409 185 123 76 
-147 -115 409 194 136 88 
-146 -114 408 204 146 98 
-145 -114 407 209 158 105 
-144 -114 407 229 178 125 
-143 -114 406 242 196 147 
-143 -114 406 253 207 158 
-142 -114 405 253 218 176 
-141 -114 405 255 224 182 
-140 -114 405 255 237 202 
-140 -114 405 255 244 209 
-139 -114 405 254 247 219 
-138 -114 405 255 249 221 
-138 -114 405 252 253 235 
-137 -114 406 253 254 236 
-137 -114 406 253 255 242 
-136 -114 406 253 255 242 
-136 -114 406 253 254 246 
-135 -114 406 254 255 247 
-134 -114 406 255 253 251 
-134 -114 406 255 250 248 
-133 -114 406 255 254 249 
-132 -114 406 255 253 248 
-132 -114 406 239 236 229 
-131 -114 407 176 173 166 
-131 -114 407 110 99 95 
-152 -115 413 107 91 91 
-151 -115 412 127 90 71 
-150 -114 411 134 97 78 
-149 -114 410 162 103 61 
-148 -114 409 172 113 71 
-147 -114 409 187 125 78 
-146 -114 408 196 134 87 
-145 -113 407 197 144 92 
-144 -113 407 213 160 108 
-144 -113 407 229 179 130 
-143 -113 406 245 195 146 
-142 -113 406 250 209 165 
-141 -113 405 255 215 171 
-140 -113 405 255 227 188 
-140 -113 405 255 235 196 
-139 -113 405 255 242 211 
-139 -113 406 255 245 214 
-138 -113 406 255 251 229 
-137 -113 406 255 253 231 
-137 -113 406 253 255 241 
-136 -113 406 253 255 241 
-136 -113 406 250 255 246 
-135 -113 406 249 255 245 
-134 -113 406 255 255 250 
-134 -113 406 255 255 250 
-133 -113 406 253 252 247 
-132 -113 406 253 252 247 
-132 -113 406 255 252 245 
-131 -113 406 246 243 236 
-131 -114 407 203 194 189 
-130 -114 407 122 113 108 
-130 -114 408 107 96 94 
-151 -114 413 118 88 77 
-150 -114 412 123 93 82 
-149 -114 410 148 98 65 
-148 -113 409 157 107 74 
-147 -113 409 178 116 69 
-146 -113 408 189 127 80 
-145 -113 407 190 134 87 
-144 -113 407 201 145 98 
-144 -113 407 212 160 112 
-143 -113 407 231 179 131 
-142 -113 406 244 197 151 
-141 -113 406 254 207 161 
-141 -113 406 253 220 179 
-140 -113 406 255 226 185 
-139 -112 405 255 235 201 
-139 -113 406 255 239 205 
-138 -113 406 255 248 223 
-137 -113 406 255 251 226 
-137 -113 406 255 253 238 
-136 -113 406 255 253 238 
-136 -113 406 251 254 245 
-135 -112 405 251 254 245 
-134 -112 405 255 255 250 
-133 -112 405 255 255 250 
-133 -112 405 255 255 250 
-132 -112 405 255 255 250 
-131 -112 405 252 252 244 
-131 -113 406 255 255 248 
-130 -113 406 255 253 247 
-130 -113 407 217 210 204 
-129 -113 407 144 135 130 
-129 -113 408 99 90 85 
-151 -114 414 110 89 84 
-149 -113 412 128 90 69 
-148 -113 410 135 97 76 
-147 -113 409 166 103 62 
-146 -113 409 175 112 71 
-145 -112 408 180 121 77 
-145 -112 408 190 131 87 
-144 -112 407 199 143 96 
-143 -112 407 214 158 111 
-142 -112 406 230 180 131 
-141 -112 406 245 195 146 
-141 -112 406 250 209 163 
-140 -112 406 255 216 170 
-139 -112 406 255 226 188 
-139 -112 406 255 231 193 
-138 -112 406 255 240 210 
-137 -112 406 255 244 214 
-137 -112 406 255 249 230 
-136 -112 406 255 251 232 
-135 -112 405 251 253 240 
-135 -112 405 252 254 241 
-134 -112 405 254 255 248 
-133 -112 405 254 255 248 
-133 -112 405 255 255 248 
-132 -112 405 255 255 248 
-131 -112 405 255 255 250 
-131 -112 406 255 254 249 
-130 -112 406 253 250 243 
-130 -112 406 253 250 243 
-129 -112 407 234 227 221 
-129 -112 407 161 154 148 
-150 -113 413 119 87 74 
-148 -113 411 123 91 78 
-147 -112 410 157 95 56 
-146 -112 409 165 103 64 
-146 -112 409 169 111 65 
-145 -112 408 181 123 77 
-144 -112 408 187 131 82 
-143 -111 407 196 140 91 
-142 -111 406 213 162 109 
-141 -111 406 233 182 129 
-141 -111 406 241 197 148 
-140 -111 406 250 206 157 
-139 -111 406 252 219 174 
-139 -111 406 255 225 180 
-138 -111 406 255 233 199 
-137 -111 406 255 238 204 
-137 -111 406 255 247 222 
-136 -111 406 255 250 225 
-135 -111 405 251 252 234 
-135 -111 405 253 254 236 
-134 -111 405 251 255 246 
-133 -111 405 251 255 246 
-133 -111 405 255 255 248 
-132 -111 405 255 255 248 
-131 -111 405 255 255 250 
-131 -111 405 255 254 249 
-130 -111 406 255 255 247 
-130 -111 406 255 255 247 
-129 -112 407 255 254 247 
-129 -112 407 242 239 232 
-128 -112 408 179 168 164 
-128 -112 409 114 103 99 
-149 -112 412 117 91 78 
-147 -112 410 132 94 75 
-146 -111 409 139 101 82 
-146 -111 409 168 104 60 
-145 -111 409 179 115 71 
-144 -111 408 189 127 80 
-143 -111 408 196 134 87 
-142 -111 407 204 146 98 
-142 -111 407 221 163 115 
-141 -111 406 232 184 138 
-140 -111 406 248 200 154 
-139 -111 406 246 209 165 
-139 -111 406 255 219 175 
-138 -111 406 254 231 190 
-137 -111 406 255 238 197 
-137 -111 406 255 244 206 
-136 -111 406 255 250 212 
-136 -111 406 255 254 220 
-135 -110 405 255 255 223 
-134 -110 405 254 252 240 
-133 -110 405 255 253 241 
-133 -110 405 255 254 245 
-132 -110 405 255 254 245 
-131 -110 405 252 254 243 
-131 -110 405 253 255 244 
-130 -110 405 253 255 245 
-130 -111 406 254 255 246 
-129 -111 407 249 251 240 
-129 -111 407 249 251 240 
-128 -111 407 252 244 241 
-128 -111 408 194 186 183 
-147 -111 410 126 90 76 
-146 -111 409 129 93 79 
-146 -111 409 157 99 62 
-145 -111 409 163 105 68 
-144 -110 408 176 113 70 
-143 -110 408 186 123 80 
-142 -110 407 199 135 89 
-142 -110 407 209 145 99 
-141 -110 407 216 162 116 
-140 -110 406 236 182 136 
-139 -110 406 235 193 151 
-139 -110 406 250 208 166 
-138 -110 406 250 221 179 
-137 -110 406 255 228 186 
-137 -110 406 255 236 199 
-136 -110 406 255 244 207 
-136 -110 406 255 249 217 
-135 -110 405 255 252 220 
-134 -110 405 254 251 234 
-133 -110 405 254 251 234 
-133 -110 405 255 253 238 
-132 -110 405 255 254 239 
-131 -110 405 253 255 242 
-131 -110 405 253 255 242 
-130 -110 405 251 255 245 
-129 -110 405 252 255 246 
-129 -110 406 254 255 248 
-128 -110 406 249 252 243 
-128 -110 407 255 250 246 
-128 -110 407 255 250 246 
-127 -111 408 213 199 198 
-127 -111 408 125 111 110 
-126 -111 409 103 87 87 
-126 -111 409 110 94 94 
-148 -111 411 116 87 79 
-147 -110 410 117 88 80 
-146 -110 409 140 92 70 
-145 -110 409 145 97 75 
-144 -110 408 166 104 67 
-143 -110 408 176 114 77 
-143 -110 408 191 123 76 
-142 -110 407 198 130 83 
-141 -110 407 204 143 98 
-140 -110 407 222 161 116 
-140 -110 407 223 176 134 
-139 -110 407 242 195 153 
-138 -109 406 248 209 166 
-137 -109 406 255 217 174 
-137 -109 406 254 226 187 
-136 -109 406 255 235 196 
-136 -109 406 255 240 210 
-135 -109 405 255 244 214 
-134 -109 405 253 247 221 
-133 -109 405 254 248 222 
-133 -109 405 254 252 231 
-132 -109 405 255 254 233 
-131 -109 405 253 254 238 
-131 -109 405 253 254 238 
-130 -109 405 253 255 245 
-129 -109 405 254 255 246 
-129 -109 405 253 254 248 
-128 -109 406 253 254 248 
-128 -109 406 252 248 245 
-128 -110 407 254 250 247 
-127 -110 407 255 246 244 
-126 -110 407 215 205 203 
-126 -110 408 133 119 116 
-125 -110 408 99 85 82 
-125 -110 409 106 95 91 
-147 -110 410 110 89 84 
-146 -110 410 119 87 76 
-145 -110 410 128 96 85 
-144 -109 409 155 100 69 
-144 -109 409 162 107 76 
-143 -109 408 181 114 69 
-142 -109 408 190 123 78 
-141 -109 408 195 134 89 
-140 -109 407 207 146 101 
-140 -109 407 208 157 112 
-139 -109 407 226 175 130 
-138 -109 406 237 193 148 
-138 -109 406 250 206 161 
-137 -109 406 250 217 176 
-136 -109 406 255 226 185 
-136 -109 406 253 233 200 
-135 -108 405 255 240 207 
-134 -108 405 253 243 208 
-133 -108 405 255 245 210 
-133 -108 405 255 249 221 
-132 -108 405 255 251 223 
-131 -109 405 255 252 233 
-131 -109 405 255 252 233 
-130 -109 405 252 254 243 
-129 -109 405 255 255 246 
-129 -109 405 254 255 249 
-129 -109 406 255 255 250 
-128 -109 406 255 251 248 
-128 -109 407 255 252 249 
-127 -109 407 255 249 246 
-126 -109 407 255 249 246 
-126 -109 407 225 214 210 
-125 -109 408 132 121 117 
-125 -109 408 104 90 87 
-124 -109 408 108 94 91 
-146 -109 409 108 84 80 
-146 -109 411 114 90 86 
-145 -109 410 141 95 71 
-144 -109 409 148 102 78 
-143 -109 408 172 109 66 
-142 -109 408 181 118 75 
-141 -109 408 187 126 81 
-141 -109 408 196 135 90 
-140 -108 407 197 143 97 
-139 -108 407 211 157 111 
-138 -108 407 225 174 127 
-138 -108 407 243 192 145 
-137 -108 406 246 204 162 
-136 -108 406 255 213 171 
-136 -108 406 251 222 188 
-135 -108 406 255 230 196 
-134 -108 405 254 236 200 
-133 -108 405 255 239 203 
-133 -108 405 255 244 212 
-132 -108 405 255 247 215 
-131 -108 405 255 250 228 
-131 -108 405 255 251 229 
-130 -108 405 255 253 240 
-129 -108 405 255 255 242 
-129 -108 405 255 255 250 
-129 -108 406 253 254 248 
-128 -108 406 255 255 251 
-127 -108 406 252 253 248 
-127 -108 406 253 250 245 
-126 -108 407 254 251 246 
-126 -108 407 246 241 237 
-125 -108 407 222 217 213 
-125 -109 408 146 132 129 
-124 -109 408 109 95 92 
-146 -109 411 106 86 85 
-145 -109 411 127 89 70 
-144 -108 410 137 99 80 
-143 -108 410 162 104 67 
-142 -108 409 168 110 73 
-141 -108 408 178 117 73 
-141 -108 408 188 127 83 
-140 -108 408 194 136 90 
-139 -108 408 203 145 99 
-139 -108 407 215 159 112 
-138 -108 407 233 177 130 
-137 -107 406 240 191 148 
-136 -107 406 251 202 159 
-136 -107 406 249 211 174 
-135 -107 406 255 220 183 
-134 -107 405 253 229 191 
-133 -107 405 255 231 193 
-133 -107 405 253 237 203 
-132 -107 405 255 241 207 
-131 -107 405 255 246 219 
-131 -107 405 255 248 221 
-130 -107 405 254 251 234 
-129 -107 405 255 253 236 
-129 -108 406 255 255 246 
-129 -108 406 255 255 246 
-128 -108 406 254 255 250 
-127 -108 406 254 255 250 
-127 -108 406 253 254 248 
-126 -108 406 253 254 248 
-125 -108 406 252 251 247 
-125 -108 407 251 250 246 
-124 -108 407 237 223 220 
-124 -108 408 157 143 140 
-124 -108 409 104 90 87 
-145 -108 411 118 85 70 
-144 -108 411 125 92 77 
-144 -108 411 147 98 68 
-143 -108 410 153 104 74 
-142 -108 409 168 110 70 
-141 -107 408 178 120 80 
-140 -107 408 185 124 79 
-139 -107 408 194 133 88 
-139 -107 408 201 143 97 
-138 -107 407 216 158 112 
-137 -107 407 227 174 130 
-136 -107 406 244 191 147 
-135 -107 405 247 202 161 
-135 -107 405 255 211 170 
-134 -107 405 251 218 183 
-133 -106 404 255 222 187 
-133 -107 405 253 229 195 
-132 -107 405 255 232 198 
-131 -107 405 254 239 208 
-131 -107 405 255 244 213 
-130 -107 405 255 249 227 
-130 -107 406 255 251 229 
-129 -107 406 255 255 241 
-129 -107 406 255 255 241 
-128 -107 406 254 255 246 
-127 -107 406 253 255 245 
-127 -107 406 254 255 250 
-126 -107 406 250 253 246 
-125 -107 406 255 255 253 
-125 -107 406 249 249 247 
-124 -107 407 255 251 247 
-124 -107 407 238 227 223 
-123 -107 408 164 150 147 
-145 -108 412 113 84 70 
-145 -108 413 113 84 70 
-144 -108 412 133 89 62 
-143 -107 411 144 100 73 
-142 -107 410 162 107 68 
-141 -107 409 169 114 75 
-140 -107 408 176 115 70 
-140 -107 408 187 126 81 
-139 -106 407 191 133 87 
-138 -106 407 201 143 97 
-137 -106 407 212 159 115 
-136 -106 406 232 179 135 
-136 -106 406 240 191 148 
-135 -106 405 248 199 156 
-134 -106 405 248 209 176 
-133 -106 405 254 215 182 
-133 -106 405 252 222 188 
-132 -106 405 255 226 192 
-131 -106 405 253 234 202 
-131 -106 405 255 239 207 
-130 -106 405 255 245 218 
-130 -106 405 255 249 222 
-129 -106 405 255 255 237 
-128 -106 405 255 255 237 
-128 -106 405 255 255 243 
-127 -106 405 255 255 243 
-126 -106 405 255 255 250 
-126 -106 405 255 255 250 
-125 -106 405 252 250 251 
-125 -106 406 252 250 251 
-124 -106 406 255 252 250 
-124 -107 407 255 252 250 
-123 -107 407 246 235 233 
-123 -107 408 188 177 175 
-144 -107 413 116 91 71 
-143 -107 412 122 97 77 
-142 -107 411 150 102 62 
-141 -106 410 159 111 71 
-140 -106 409 176 113 72 
-140 -106 409 181 118 77 
-139 -106 408 190 127 86 
-138 -106 407 201 138 97 
-137 -106 407 209 152 107 
-136 -105 406 220 163 118 
-136 -105 406 233 176 133 
-135 -105 406 250 193 150 
-134 -105 405 241 202 161 
-133 -105 405 249 210 169 
-133 -105 405 252 218 183 
-132 -105 405 255 224 189 
-131 -105 405 255 234 203 
-131 -105 405 255 237 206 
-130 -105 405 255 243 216 
-130 -105 405 255 249 222 
-129 -105 405 255 250 228 
-128 -105 405 255 253 231 
-128 -105 405 255 255 242 
-127 -105 405 255 255 242 
-126 -105 405 253 254 248 
-126 -105 405 253 254 248 
-125 -105 405 253 253 251 
-125 -106 406 253 253 251 
-124 -106 406 254 253 248 
-123 -106 406 254 253 248 
-123 -106 407 252 251 246 
-122 -106 407 245 244 239 
-122 -106 408 232 227 223 
-122 -106 409 159 154 150 
-143 -106 412 114 92 78 
-142 -106 411 135 96 67 
-142 -106 411 144 105 76 
-141 -106 410 164 106 68 
-140 -106 409 171 113 75 
-139 -106 409 182 120 79 
-138 -105 408 189 127 86 
-137 -105 407 198 139 97 
-136 -105 406 209 150 108 
-136 -105 406 220 163 118 
-135 -105 406 234 177 132 
-134 -105 406 232 189 147 
-133 -105 405 244 201 159 
-133 -105 405 251 213 177 
-132 -105 405 255 220 184 
-131 -105 405 255 228 200 
-131 -105 405 255 234 206 
-130 -105 405 255 240 213 
-130 -105 405 255 243 216 
-129 -105 405 252 245 219 
-128 -105 405 255 249 223 
-128 -105 405 255 254 236 
-127 -105 405 255 255 238 
-126 -105 405 254 254 246 
-126 -105 405 254 254 246 
-125 -105 405 255 255 251 
-125 -105 406 254 255 250 
-124 -105 406 252 253 248 
-123 -105 406 249 250 245 
-123 -105 406 251 252 247 
-122 -105 407 254 255 250 
-122 -105 407 244 240 237 
-143 -106 412 121 92 78 
-142 -105 411 126 97 83 
-141 -105 410 149 103 70 
-140 -105 410 157 111 78 
-139 -105 409 174 114 77 
-138 -105 408 179 119 82 
-137 -104 407 190 128 91 
-137 -104 407 200 138 101 
-136 -104 406 208 150 104 
-135 -104 406 220 162 116 
-134 -104 406 221 172 129 
-134 -104 406 236 187 144 
-133 -104 405 246 202 167 
-132 -104 405 255 211 176 
-131 -104 405 255 220 192 
-131 -104 405 255 225 197 
-130 -104 405 255 231 204 
-130 -104 405 255 232 205 
-129 -104 405 252 238 211 
-128 -104 405 255 241 214 
-128 -104 405 255 250 228 
-127 -104 405 255 254 232 
-126 -104 405 255 254 241 
-126 -104 405 255 254 241 
-125 -104 405 255 255 248 
-125 -104 406 254 254 246 
-124 -104 406 255 255 251 
-123 -104 406 250 249 245 
-123 -104 406 253 254 249 
-122 -105 407 247 248 243 
-122 -105 407 254 253 248 
-121 -105 407 229 228 223 
-121 -105 408 153 144 139 
-142 -105 412 112 93 86 
-141 -105 411 131 93 70 
-140 -105 410 139 101 78 
-139 -104 409 162 106 71 
-139 -104 409 168 112 77 
-138 -104 408 181 118 77 
-137 -104 407 187 124 83 
-136 -104 407 193 135 89 
-135 -104 407 206 148 102 
-134 -104 406 209 156 112 
-134 -104 406 225 172 128 
-133 -104 406 238 190 152 
-132 -103 405 251 203 165 
-131 -103 405 254 213 183 
-131 -103 405 255 219 189 
-130 -103 405 255 226 198 
-130 -103 405 255 230 202 
-129 -103 405 252 232 205 
-128 -103 405 255 235 208 
-128 -103 405 252 245 219 
-127 -103 405 255 250 224 
-126 -103 405 255 252 235 
-126 -103 405 255 254 237 
-125 -103 405 254 254 244 
-124 -103 405 253 253 243 
-124 -104 406 253 252 247 
-123 -104 406 255 255 250 
-123 -104 406 251 254 247 
-122 -104 406 250 253 246 
-122 -104 407 252 253 245 
-121 -104 407 254 255 247 
-120 -104 407 227 223 214 
-120 -104 408 135 131 122 
-142 -104 412 118 88 77 
-141 -104 411 123 93 82 
-140 -104 410 149 98 69 
-139 -104 409 159 108 79 
-138 -103 408 175 113 72 
-137 -103 408 180 118 77 
-136 -103 407 187 125 84 
-135 -103 407 200 138 97 
-135 -103 407 198 146 99 
-134 -103 406 211 159 112 
-133 -103 406 226 174 135 
-132 -103 406 243 191 152 
-132 -103 406 251 206 175 
-131 -103 406 255 212 181 
-130 -103 405 253 218 190 
-130 -103 405 255 223 195 
-129 -103 405 254 231 200 
-128 -103 405 255 232 201 
-128 -103 405 250 236 207 
-127 -103 405 255 241 212 
-126 -103 405 254 249 227 
-126 -103 405 255 252 230 
-125 -103 405 255 253 238 
-124 -103 405 255 254 239 
-124 -103 405 255 255 250 
-123 -103 405 255 253 248 
-123 -103 406 254 255 247 
-122 -103 406 253 254 246 
-121 -103 406 251 252 244 
-121 -103 406 251 252 244 
-120 -103 407 249 246 237 
-120 -104 408 221 218 209 
-142 -104 413 111 83 79 
-141 -104 412 113 85 81 
-140 -103 411 132 90 68 
-139 -103 410 142 100 78 
-138 -103 409 160 107 67 
-137 -103 408 165 112 72 
-136 -103 408 176 116 79 
-136 -103 408 188 128 91 
-135 -103 408 189 135 89 
-134 -103 407 201 147 101 
-133 -103 407 215 162 122 
-133 -103 407 232 179 139 
-132 -103 407 246 197 164 
-131 -102 406 253 204 171 
-131 -102 406 248 209 178 
-130 -102 406 252 213 182 
-129 -102 405 253 224 192 
-128 -102 405 254 225 193 
-128 -102 405 249 230 198 
-127 -102 405 253 234 202 
-126 -102 405 254 244 217 
-126 -102 405 255 249 222 
-125 -102 405 255 251 231 
-124 -102 405 255 253 233 
-124 -102 405 255 254 250 
-123 -102 405 255 254 250 
-123 -102 406 255 255 248 
-122 -102 406 255 255 248 
-121 -102 406 255 255 246 
-121 -103 407 247 249 238 
-120 -103 407 255 253 244 
-120 -103 408 255 252 243 
-141 -103 413 122 89 72 
-140 -103 412 127 94 77 
-138 -103 410 146 101 70 
-137 -102 409 154 109 78 
-137 -102 409 168 115 75 
-136 -102 409 176 123 83 
-135 -102 408 178 124 78 
-134 -102 408 192 138 92 
-133 -102 407 207 152 111 
-133 -102 407 220 165 124 
-132 -102 407 233 181 144 
-131 -102 406 247 195 158 
-131 -102 406 249 204 173 
-130 -102 406 255 210 179 
-129 -102 406 251 216 184 
-129 -102 406 252 217 185 
-128 -102 406 248 224 190 
-127 -101 405 253 229 195 
-126 -101 405 254 239 208 
-126 -101 405 255 243 212 
-125 -101 405 254 247 221 
-124 -101 405 255 249 223 
-124 -101 405 255 254 248 
-123 -101 405 255 253 247 
-123 -102 406 255 255 246 
-122 -102 406 255 255 246 
-121 -102 406 255 255 244 
-121 -102 407 255 255 243 
-120 -102 407 249 249 237 
-120 -102 407 245 245 233 
-119 -102 408 255 248 239 
-119 -102 408 205 196 187 
-141 -103 415 113 87 74 
-140 -103 414 114 88 75 
-139 -102 412 132 91 69 
-138 -102 410 142 101 79 
-137 -102 409 158 109 68 
-136 -102 409 165 116 75 
-135 -101 408 172 115 70 
-134 -101 408 188 131 86 
-134 -101 408 200 143 100 
-133 -101 407 204 147 104 
-132 -101 407 211 157 119 
-131 -101 407 230 176 138 
-131 -101 406 244 195 162 
-130 -101 406 254 205 172 
-129 -101 406 251 212 179 
-129 -101 406 251 212 179 
-128 -101 406 247 218 184 
-127 -101 406 253 224 190 
-127 -101 406 252 233 201 
-126 -101 406 255 238 206 
-125 -101 405 254 243 215 
-124 -101 405 255 245 217 
-124 -101 405 255 252 241 
-123 -101 405 255 255 244 
-123 -101 406 255 255 243 
-122 -101 406 255 255 243 
-122 -101 406 255 255 241 
-121 -101 406 253 254 238 
-121 -101 407 255 255 243 
-120 -101 407 250 251 237 
-119 -101 407 255 250 236 
-119 -102 408 255 252 238 
-140 -103 415 121 90 69 
-138 -102 412 125 94 73 
-137 -101 410 149 99 76 
-136 -101 410 157 107 84 
-135 -101 409 167 113 75 
-135 -101 409 177 123 85 
-134 -101 409 190 137 97 
-133 -101 408 197 144 104 
-132 -101 408 203 151 112 
-131 -101 407 215 163 124 
-131 -101 407 228 178 141 
-130 -100 406 243 193 156 
-129 -100 406 245 201 164 
-129 -100 406 251 207 170 
-128 -100 406 252 214 177 
-127 -100 406 255 218 181 
-127 -100 406 255 228 194 
-126 -100 406 255 234 200 
-125 -100 406 255 240 207 
-124 -100 405 255 244 211 
-124 -100 405 253 243 216 
-123 -100 405 255 245 218 
-123 -100 406 255 250 228 
-122 -100 406 255 254 232 
-122 -100 406 255 255 241 
-121 -100 406 255 255 241 
-121 -101 407 254 255 244 
-120 -101 407 253 255 243 
-119 -101 407 249 251 238 
-119 -101 408 249 251 238 
-118 -101 408 243 236 226 
-118 -101 408 175 168 158 
-139 -102 414 121 94 75 
-138 -101 412 140 95 74 
-137 -101 412 146 101 80 
-136 -101 410 157 103 67 
-135 -101 410 167 113 77 
-134 -100 409 182 126 89 
-133 -100 409 189 133 96 
-132 -100 408 192 137 98 
-132 -100 408 199 144 105 
-131 -100 407 209 156 116 
-130 -100 407 221 168 128 
-129 -100 406 228 180 140 
-129 -100 406 238 190 150 
-128 -100 406 242 200 160 
-127 -100 406 250 208 168 
-127 -100 406 254 222 184 
-126 -100 406 255 227 189 
-125 -100 406 255 232 198 
-125 -100 406 255 237 203 
-124 -100 406 250 236 209 
-123 -100 406 252 238 211 
-123 -100 406 255 244 222 
-122 -100 406 255 249 227 
-122 -100 406 255 254 237 
-121 -100 406 255 255 239 
-120 -100 406 255 255 243 
-120 -100 407 253 255 241 
-119 -100 407 252 252 240 
-119 -100 407 255 255 243 
-118 -100 408 253 247 235 
-118 -100 408 244 238 226 
-139 -101 415 118 95 79 
-138 -101 414 129 94 75 
-137 -101 413 131 96 77 
-136 -100 412 147 96 67 
-135 -100 411 156 105 76 
-134 -100 410 175 121 87 
-133 -100 409 184 130 96 
-133 -100 409 189 131 91 
-132 -100 409 192 134 94 
-131 -100 408 200 143 100 
-131 -100 408 209 152 109 
-130 -99 407 215 162 118 
-129 -99 407 227 174 130 
-128 -99 407 232 187 146 
-128 -99 407 242 197 156 
-127 -99 407 248 210 173 
-126 -99 406 255 217 180 
-125 -99 406 255 224 191 
-125 -99 406 255 231 198 
-124 -99 406 250 231 201 
-123 -99 406 252 233 203 
-123 -99 406 254 240 213 
-122 -99 406 255 246 219 
-122 -99 406 255 251 229 
-121 -99 406 255 255 234 
-120 -99 406 255 255 239 
-120 -99 406 254 255 237 
-119 -99 407 253 254 240 
-119 -99 407 251 252 238 
-118 -99 407 255 252 240 
-118 -100 408 254 248 236 
-117 -100 409 233 219 206 
-117 -100 410 140 126 113 
-139 -101 415 122 96 81 
-138 -100 414 121 95 80 
-137 -100 413 135 90 67 
-136 -100 412 141 96 73 
-135 -100 411 158 109 79 
-134 -99 410 167 118 88 
-133 -99 409 175 120 81 
-132 -99 409 178 123 84 
-131 -99 408 187 128 84 
-131 -99 408 195 136 92 
-130 -99 408 202 145 100 
-129 -99 408 214 157 112 
-128 -99 407 220 171 128 
-128 -99 407 230 181 138 
-127 -99 407 237 193 156 
-126 -99 407 245 201 164 
-125 -98 406 250 210 175 
-125 -98 406 255 219 184 
-124 -98 406 250 225 194 
-123 -98 406 253 228 197 
-123 -99 406 252 235 205 
-122 -99 406 255 238 208 
-122 -99 406 255 245 220 
-121 -99 406 255 250 225 
-120 -99 406 255 254 235 
-120 -99 407 255 253 234 
-119 -99 407 255 255 241 
-119 -99 408 253 254 238 
-118 -99 408 255 253 241 
-118 -99 408 252 248 236 
-117 -99 409 254 242 228 
-117 -100 410 224 212 198 
-138 -100 416 117 98 84 
-137 -100 415 130 93 74 
-136 -100 414 131 94 75 
-135 -99 412 143 99 74 
-134 -99 411 150 106 81 
-133 -99 410 165 111 75 
-132 -98 409 170 116 80 
-132 -98 409 182 123 79 
-131 -98 408 191 132 88 
-130 -98 408 194 133 88 
-129 -98 408 204 143 98 
-129 -98 408 212 158 114 
-128 -98 407 224 170 126 
-127 -98 407 231 182 142 
-126 -98 407 240 191 151 
-126 -98 407 245 200 161 
-125 -98 407 253 208 169 
-124 -98 406 248 218 184 
-123 -98 406 253 223 189 
-123 -98 406 252 229 197 
-122 -98 406 253 230 198 
-122 -98 407 250 236 209 
-121 -98 406 255 243 216 
-120 -98 406 255 250 228 
-120 -98 407 255 252 230 
-119 -98 407 255 255 241 
-119 -98 408 255 255 241 
-118 -98 408 255 255 240 
-118 -98 408 255 255 241 
-117 -99 409 250 244 228 
-117 -99 409 252 246 230 
-136 -99 414 120 91 73 
-135 -99 413 128 92 68 
-134 -99 412 132 96 72 
-133 -98 411 150 101 71 
-133 -98 410 157 108 78 
-132 -98 409 172 112 75 
-131 -98 409 181 121 84 
-130 -98 408 185 120 78 
-129 -98 408 192 127 85 
-129 -98 408 200 138 97 
-128 -98 408 212 150 109 
-127 -98 408 218 163 122 
-126 -97 407 229 174 133 
-126 -97 407 238 187 144 
-125 -97 407 247 196 153 
-124 -97 407 247 207 172 
-124 -97 407 254 214 179 
-123 -97 407 251 221 187 
-122 -97 406 252 222 188 
-122 -97 407 249 229 202 
-121 -97 407 255 236 209 
-120 -97 406 254 246 223 
-120 -97 407 255 250 227 
-119 -97 407 255 255 237 
-119 -97 407 255 255 237 
-118 -98 408 255 255 239 
-118 -98 408 255 254 236 
-117 -98 409 255 255 237 
-117 -98 409 249 246 227 
-116 -98 409 247 240 221 
-116 -98 410 178 171 152 
-137 -99 415 113 94 77 
-135 -98 413 121 92 74 
-135 -98 413 123 94 76 
-134 -98 412 137 92 69 
-133 -98 411 142 97 74 
-132 -97 410 159 99 71 
-131 -97 409 166 106 78 
-130 -97 409 177 111 77 
-129 -97 408 183 117 83 
-129 -97 408 191 127 89 
-128 -97 408 199 135 97 
-127 -97 408 205 148 105 
-127 -97 408 216 159 116 
-126 -97 407 227 174 130 
-125 -97 407 238 185 141 
-124 -97 407 241 193 157 
-124 -97 407 250 202 166 
-123 -97 407 249 210 177 
-122 -97 407 253 214 181 
-122 -97 407 248 222 195 
-121 -97 407 255 230 203 
-121 -97 407 254 239 218 
-120 -97 407 255 242 221 
-119 -97 407 255 255 236 
-119 -97 407 255 255 236 
-118 -97 408 255 255 236 
-118 -97 408 255 254 233 
-117 -97 409 255 255 233 
-117 -97 409 255 255 233 
-116 -97 409 253 246 227 
-115 -97 409 240 233 214 
-135 -98 414 118 95 79 
-134 -97 412 127 88 71 
-133 -97 411 130 91 74 
-132 -97 411 151 94 74 
-131 -97 410 159 102 82 
-130 -97 409 166 99 72 
-129 -96 408 175 108 81 
-129 -96 408 182 118 83 
-128 -96 408 189 125 90 
-127 -96 408 191 133 93 
-127 -96 408 200 142 102 
-126 -96 407 209 158 113 
-125 -96 407 223 172 127 
-124 -96 407 235 179 144 
-124 -96 407 244 188 153 
-123 -96 407 245 200 167 
-123 -96 407 251 206 173 
-122 -96 407 247 216 188 
-121 -96 407 254 223 195 
-121 -96 407 249 231 209 
-120 -96 407 251 233 211 
-119 -96 407 255 251 230 
-119 -96 407 255 254 233 
-118 -96 407 255 255 234 
-118 -96 408 255 255 234 
-117 -96 408 255 255 230 
-117 -97 409 255 254 229 
-116 -97 409 253 245 224 
-115 -97 409 251 243 222 
-115 -97 409 223 205 195 
-134 -97 414 126 94 79 
-133 -97 412 127 95 80 
-132 -96 410 138 91 73 
-131 -96 410 140 93 75 
-130 -96 409 158 101 72 
-130 -96 409 165 108 79 
-129 -96 408 177 115 76 
-128 -96 408 185 123 84 
-127 -96 408 193 131 90 
-127 -96 408 197 135 94 
-126 -96 408 202 142 105 
-125 -96 408 218 158 121 
-124 -95 407 224 170 132 
-124 -95 407 237 183 145 
-123 -95 407 241 195 159 
-123 -95 407 248 202 166 
-122 -96 407 254 215 182 
-121 -96 407 255 222 189 
-121 -96 407 255 228 199 
-120 -96 407 255 231 202 
-119 -96 407 252 232 205 
-119 -96 407 255 238 211 
-118 -96 407 253 246 220 
-118 -96 408 255 251 225 
-117 -96 408 255 252 227 
-116 -96 408 255 255 230 
-116 -96 408 255 254 232 
-115 -96 408 250 245 223 
-114 -96 408 224 204 195 
-114 -96 409 134 114 105 
-133 -96 412 132 95 79 
-132 -96 411 133 96 80 
-131 -95 410 144 92 68 
-130 -95 409 149 97 73 
-129 -95 409 165 105 69 
-128 -95 409 173 113 77 
-128 -95 409 184 122 85 
-127 -95 408 189 127 90 
-126 -95 408 193 133 97 
-125 -95 408 204 144 108 
-125 -95 408 205 150 109 
-124 -95 407 219 164 123 
-123 -95 407 229 180 140 
-123 -95 407 241 192 152 
-122 -95 407 248 205 170 
-121 -95 407 255 213 178 
-121 -95 407 255 219 185 
-120 -95 407 255 222 188 
-119 -95 407 253 228 198 
-119 -95 407 249 224 194 
-118 -95 407 255 240 214 
-118 -95 408 255 245 219 
-117 -95 408 255 245 220 
-116 -95 408 255 249 224 
-116 -95 408 241 230 208 
-115 -95 409 227 216 194 
-115 -95 409 215 195 184 
-114 -95 409 185 165 154 
-131 -95 411 135 93 71 
-130 -95 411 137 95 73 
-129 -95 410 155 96 66 
-128 -95 409 161 102 72 
-128 -95 409 172 109 74 
-127 -95 409 178 115 80 
-126 -94 408 183 123 87 
-125 -94 408 193 133 97 
-125 -94 408 195 136 94 
-124 -94 408 206 147 105 
-123 -94 408 217 162 123 
-123 -94 407 232 177 138 
-122 -94 407 243 193 156 
-121 -94 407 254 204 167 
-121 -94 407 255 212 177 
-120 -94 407 255 215 180 
-119 -94 407 250 213 184 
-119 -94 407 254 217 188 
-118 -94 407 255 229 204 
-117 -94 407 255 240 215 
-117 -94 408 248 230 208 
-116 -94 408 238 220 198 
-116 -95 408 239 222 202 
-115 -95 409 251 234 214 
-115 -95 409 255 240 227 
-114 -95 409 252 236 223 
-131 -95 412 132 99 82 
-131 -95 412 132 99 82 
-130 -94 411 146 96 71 
-129 -94 411 146 96 71 
-128 -94 410 160 99 68 
-127 -94 410 166 105 74 
-126 -94 409 173 113 76 
-126 -94 409 183 123 86 
-125 -94 408 187 124 83 
-124 -94 408 194 131 90 
-123 -94 408 201 142 102 
-123 -94 408 214 155 115 
-122 -94 408 226 170 133 
-122 -94 408 239 183 146 
-121 -94 408 246 196 163 
-120 -94 407 254 204 171 
-119 -94 407 248 204 175 
-119 -94 407 255 212 183 
-118 -94 407 251 219 196 
-117 -94 407 246 214 191 
-117 -94 408 233 212 191 
-116 -94 408 249 228 207 
-116 -94 408 254 241 222 
-130 -94 413 135 96 79 
-129 -94 412 134 95 78 
-128 -94 411 146 95 68 
-128 -94 411 150 99 72 
-127 -94 410 161 103 66 
-126 -94 410 171 113 76 
-125 -93 409 178 114 76 
-124 -93 408 185 121 83 
-123 -93 408 192 130 91 
-123 -93 408 201 139 100 
-122 -93 408 210 150 113 
-122 -93 408 222 162 125 
-121 -93 408 232 178 144 
-120 -93 408 246 192 158 
-120 -93 408 242 197 166 
-119 -93 408 251 206 175 
-118 -93 408 232 200 175 
-118 -93 408 232 200 175 
-130 -94 413 125 97 85 
-129 -93 412 137 96 76 
-128 -93 411 138 97 77 
-127 -93 410 148 97 68 
-126 -93 410 155 104 75 
-125 -93 410 161 101 64 
-124 -93 409 171 111 74 
-124 -93 409 182 120 81 
-123 -93 409 189 127 88 
-122 -92 408 198 134 96 
-122 -92 408 206 142 104 
-121 -92 408 216 158 121 
-120 -92 408 232 174 137 
-120 -93 408 235 189 156 
-119 -93 408 229 183 150 
-118 -93 408 218 187 159 
-118 -93 408 252 221 193 
-129 -93 412 126 97 83 
-127 -92 411 138 95 78 
-126 -92 411 143 100 83 
-126 -92 411 148 96 59 
-125 -92 410 156 104 67 
-124 -92 410 171 111 74 
-123 -92 409 179 119 82 
-123 -92 409 190 125 87 
-122 -92 409 197 132 94 
-121 -92 409 206 143 108 
-121 -92 409 220 157 122 
-120 -92 409 217 167 134 
-119 -92 409 207 157 124 
-127 -92 412 132 98 86 
-126 -92 411 136 88 52 
-125 -92 411 141 93 57 
-124 -92 411 155 97 60 
-123 -92 410 164 106 69 
-123 -91 409 179 113 78 
-122 -91 409 187 121 86 
-121 -91 409 195 131 96 
-121 -91 409 203 139 104 
-120 -91 409 178 123 93 
-127 -92 413 119 100 86 
-126 -91 412 129 97 76 
-125 -91 412 125 93 72 
-124 -91 411 144 94 67 
-124 -91 411 155 105 78 
-123 -91 410 168 104 69 
-122 -91 410 173 109 74 
-122 -91 410 181 117 82 
-121 -91 410 177 113 78 
-120 -91 410 178 125 94 
-120 -91 410 234 181 150 
-126 -91 413 125 96 78 
-126 -91 413 124 95 77 
-125 -91 412 133 88 65 
-124 -91 411 132 87 64 
-123 -91 411 150 93 64 
-122 -91 411 164 107 78 
-122 -90 410 166 105 74 
-121 -90 410 149 88 57 
-126 -91 414 121 98 84 
-124 -90 412 126 93 76 
-123 -90 412 135 90 67 
-123 -90 412 136 91 68 
-122 -90 411 142 91 64 
-121 -90 410 144 93 66 
-124 -90 413 127 96 78 
-122 -89 411 118 77 55 
-122 -89 412 116 83 64 
