ply
format ascii 1.0
comment Created by CloudCompare v2.10.1 (Zephyrus)
comment Created 2020-05-06 7:42 PM
obj_info Generated by CloudCompare!
element vertex 173
property float x
property float y
property float z
property uchar red
property uchar green
property uchar blue
end_header
-152 -130 409 103 91 79 
-152 -130 410 106 93 87 
-152 -130 410 114 101 95 
-154 -129 408 255 250 231 
-153 -129 408 254 246 227 
-153 -129 408 222 205 189 
-152 -129 408 144 127 111 
-152 -129 409 126 106 95 
-151 -129 409 114 94 83 
-151 -130 410 113 98 93 
-156 -128 408 255 227 198 
-155 -128 408 255 249 227 
-155 -128 408 255 251 229 
-154 -128 408 255 241 218 
-153 -128 408 252 236 213 
-153 -128 408 248 226 203 
-152 -128 408 235 213 190 
-151 -129 408 221 199 178 
-151 -129 409 193 171 150 
-151 -129 409 159 140 126 
-150 -129 410 121 102 88 
-150 -129 411 109 96 90 
-156 -128 408 231 190 158 
-155 -128 408 241 205 179 
-155 -128 408 248 212 186 
-154 -128 408 255 224 199 
-153 -128 408 253 221 196 
-153 -128 408 251 223 199 
-152 -128 408 255 229 205 
-151 -128 408 255 233 209 
-151 -128 408 253 229 205 
-150 -128 408 246 225 206 
-150 -128 408 205 184 165 
-149 -128 409 139 122 112 
-157 -127 408 229 180 147 
-157 -127 408 242 204 167 
-156 -127 408 192 154 117 
-155 -127 408 175 118 91 
-155 -127 408 204 147 120 
-154 -127 408 235 191 166 
-153 -127 408 255 213 188 
-153 -127 408 255 226 202 
-152 -127 408 255 225 201 
-151 -127 408 250 228 204 
-151 -127 408 255 236 212 
-150 -127 408 254 233 214 
-150 -127 408 255 235 216 
-149 -127 408 221 201 190 
-148 -127 408 148 128 117 
-148 -128 409 114 96 94 
-157 -126 408 233 179 141 
-157 -126 408 239 191 155 
-156 -127 408 227 179 143 
-155 -126 407 183 138 109 
-154 -126 407 138 93 64 
-154 -126 407 175 125 100 
-153 -126 407 221 171 146 
-152 -126 407 253 213 188 
-152 -126 407 255 223 198 
-151 -126 407 255 239 215 
-150 -126 407 255 240 216 
-150 -126 407 245 237 216 
-149 -126 407 244 236 215 
-149 -126 407 244 226 212 
-148 -126 407 223 205 191 
-148 -127 408 143 120 112 
-147 -127 409 112 89 81 
-147 -127 409 119 102 95 
-157 -126 409 222 172 135 
-156 -126 409 228 178 141 
-155 -126 408 234 185 155 
-155 -126 408 202 153 123 
-154 -126 407 142 91 64 
-153 -126 407 154 103 76 
-152 -126 407 206 164 139 
-152 -126 407 249 207 182 
-151 -126 407 255 237 213 
-150 -126 407 255 248 224 
-150 -126 407 255 247 225 
-149 -126 407 245 233 211 
-149 -126 407 241 225 209 
-148 -126 407 244 228 212 
-147 -126 407 202 182 171 
-147 -126 408 138 118 107 
-157 -126 409 201 151 116 
-156 -126 409 217 167 132 
-156 -126 409 226 171 140 
-155 -125 408 237 182 151 
-154 -125 408 220 167 136 
-153 -125 407 165 112 81 
-152 -125 407 146 100 74 
-152 -125 408 196 150 124 
-151 -125 408 245 213 188 
-151 -125 408 255 238 213 
-150 -125 407 255 238 216 
-149 -125 407 242 224 202 
-149 -125 407 240 227 208 
-148 -125 407 243 230 211 
-157 -125 409 190 137 105 
-156 -125 409 201 148 116 
-156 -125 409 210 154 121 
-155 -125 408 222 166 133 
-154 -125 408 236 183 151 
-153 -124 407 239 186 154 
-152 -124 407 188 141 111 
-152 -124 407 143 96 66 
-152 -125 408 186 146 121 
-151 -125 408 246 206 181 
-150 -125 408 244 222 198 
-149 -124 407 247 225 201 
-149 -124 407 248 240 217 
-157 -124 409 189 132 102 
-156 -124 409 189 132 102 
-156 -124 409 195 139 104 
-155 -124 408 210 154 119 
-154 -124 408 203 153 118 
-153 -124 407 219 169 134 
-152 -124 407 233 184 154 
-152 -124 407 204 155 125 
-151 -124 407 151 107 82 
-150 -124 407 199 155 130 
-150 -124 407 248 220 196 
-149 -124 407 255 237 213 
-149 -124 407 253 245 222 
-158 -124 410 144 107 91 
-157 -124 410 178 124 96 
-157 -124 410 175 121 93 
-156 -124 409 181 129 90 
-155 -124 409 182 130 91 
-154 -123 408 190 140 103 
-153 -123 407 193 143 106 
-152 -123 407 206 155 124 
-152 -123 407 230 179 148 
-151 -123 407 217 170 144 
-151 -123 407 223 176 150 
-158 -124 411 127 104 96 
-157 -123 410 150 112 93 
-157 -123 410 160 122 103 
-156 -123 410 168 116 76 
-155 -123 409 163 111 71 
-154 -123 409 175 123 86 
-153 -123 408 179 127 90 
-152 -122 407 179 126 94 
-152 -122 407 187 134 102 
-158 -123 412 114 94 85 
-157 -123 411 141 121 112 
-156 -123 410 154 105 62 
-156 -123 410 156 107 64 
-154 -122 409 154 100 62 
-153 -122 408 160 106 68 
-152 -122 407 155 101 67 
-152 -122 407 181 127 93 
-158 -123 412 89 73 73 
-158 -123 412 144 128 128 
-157 -122 411 164 118 94 
-156 -122 410 145 99 75 
-154 -122 409 151 102 61 
-153 -121 408 149 100 59 
-158 -122 412 94 80 79 
-157 -122 412 125 87 66 
-156 -121 410 137 99 78 
-155 -121 409 145 99 63 
-153 -121 408 136 90 54 
-158 -122 413 89 79 78 
-157 -121 412 92 64 52 
-156 -121 410 104 76 64 
-155 -121 410 123 86 59 
-154 -120 409 126 89 62 
-157 -121 413 104 86 82 
-155 -120 410 106 79 62 
-154 -120 410 117 90 73 
-155 -120 411 112 95 87 
-155 -120 411 112 95 87 
