ply
format ascii 1.0
comment Created by CloudCompare v2.10.1 (Zephyrus)
comment Created 2020-05-06 7:45 PM
obj_info Generated by CloudCompare!
element vertex 198
property float x
property float y
property float z
property uchar red
property uchar green
property uchar blue
end_header
-61 107 401 219 167 127 
-58 107 401 200 153 123 
-56 107 401 218 168 131 
-55 107 401 218 168 131 
-54 107 401 221 172 131 
-54 107 401 219 170 129 
-53 107 401 193 144 112 
-53 107 402 188 139 107 
-61 107 401 228 175 133 
-61 107 400 233 186 158 
-60 107 399 243 196 168 
-59 107 399 254 203 172 
-59 107 399 237 186 155 
-58 107 400 136 90 64 
-57 107 400 191 145 119 
-57 107 400 245 196 164 
-56 107 400 233 184 152 
-56 107 401 224 176 140 
-55 107 401 218 170 134 
-54 107 401 207 158 118 
-54 107 401 191 142 102 
-53 107 401 149 104 73 
-53 108 402 127 82 51 
-61 108 400 246 194 155 
-61 108 400 250 200 167 
-60 107 399 254 204 171 
-59 107 399 255 205 174 
-59 107 399 241 190 159 
-58 108 400 142 87 67 
-57 108 400 195 140 120 
-57 108 400 254 200 172 
-56 108 400 248 194 166 
-56 108 400 251 198 164 
-55 108 401 250 197 163 
-54 108 401 236 180 145 
-54 108 401 204 148 113 
-53 108 401 143 104 73 
-53 108 402 79 40 9 
-62 109 401 241 189 149 
-61 108 400 254 202 162 
-61 108 400 250 200 167 
-60 108 399 251 201 168 
-59 108 399 251 200 171 
-59 108 399 246 195 166 
-58 108 400 145 90 70 
-57 108 400 195 140 120 
-57 108 400 254 200 172 
-56 108 400 251 197 169 
-56 108 400 255 206 172 
-55 109 401 255 204 170 
-54 109 401 251 195 160 
-54 109 401 230 174 139 
-53 109 401 165 128 99 
-53 109 402 78 41 12 
-61 109 400 247 196 153 
-61 109 400 248 195 163 
-60 109 399 249 196 164 
-59 109 399 246 195 166 
-59 109 399 244 193 164 
-58 109 399 149 94 74 
-57 109 400 189 134 114 
-57 109 400 254 200 172 
-56 109 400 250 196 168 
-55 109 400 252 199 165 
-55 109 401 251 198 164 
-54 109 401 251 195 162 
-54 109 401 238 182 149 
-53 109 401 177 140 111 
-53 110 402 77 40 11 
-61 110 400 242 191 148 
-61 110 400 243 191 154 
-60 109 399 247 195 158 
-59 109 399 247 196 165 
-59 109 399 242 191 160 
-58 109 399 161 106 85 
-57 109 399 184 129 108 
-57 110 400 254 201 170 
-56 110 400 249 196 165 
-55 110 400 246 194 157 
-55 110 401 247 195 158 
-54 110 401 246 192 156 
-54 110 401 228 174 138 
-53 110 402 172 135 106 
-53 110 402 80 43 14 
-61 111 401 239 188 145 
-61 110 400 237 185 145 
-60 110 399 239 187 147 
-59 110 398 245 195 160 
-59 110 399 238 188 153 
-58 110 399 179 125 101 
-57 110 399 177 123 99 
-57 110 399 245 192 158 
-56 110 400 241 188 154 
-55 110 400 242 190 151 
-55 111 401 242 190 151 
-54 111 401 239 185 149 
-54 111 401 218 164 128 
-53 111 402 163 126 97 
-53 111 402 82 45 16 
-61 111 401 232 181 138 
-61 111 400 233 182 135 
-60 111 400 230 179 132 
-59 111 399 238 188 151 
-59 111 399 240 190 153 
-58 111 400 191 137 111 
-57 111 400 175 121 95 
-57 111 400 234 182 145 
-56 111 400 235 183 146 
-56 111 401 236 184 144 
-55 111 401 229 177 137 
-54 111 401 228 172 137 
-54 112 402 209 153 118 
-53 112 402 153 116 89 
-53 112 403 82 45 18 
-61 112 401 230 177 135 
-61 112 400 229 181 132 
-60 112 400 228 180 131 
-59 112 400 235 186 146 
-59 111 399 240 191 151 
-58 112 400 188 134 106 
-57 112 400 179 125 97 
-57 112 400 231 179 142 
-56 112 400 235 183 146 
-56 112 401 236 184 144 
-55 112 401 224 172 132 
-54 112 401 220 164 131 
-54 112 402 202 146 113 
-53 112 403 140 103 77 
-53 112 403 78 41 15 
-61 112 401 227 173 129 
-61 112 400 222 174 125 
-60 112 400 227 179 130 
-59 112 400 229 180 140 
-59 112 399 233 184 144 
-58 112 400 170 116 90 
-57 112 400 177 123 97 
-57 112 400 227 175 138 
-56 112 400 233 181 144 
-56 113 401 234 182 143 
-55 113 401 221 169 130 
-54 113 401 216 159 129 
-54 113 402 194 137 107 
-53 113 403 130 89 67 
-61 113 401 216 157 115 
-61 113 400 217 168 125 
-60 113 399 219 170 127 
-59 113 399 221 171 134 
-59 113 399 227 177 140 
-58 113 399 157 94 61 
-57 113 400 185 122 89 
-57 113 400 227 174 140 
-56 113 400 227 174 140 
-55 113 400 232 172 138 
-55 113 401 220 160 126 
-54 113 401 204 150 106 
-54 113 402 180 126 82 
-53 114 403 86 71 68 
-61 113 400 217 160 117 
-61 113 400 212 163 120 
-60 113 399 213 164 121 
-59 113 399 217 167 130 
-59 113 399 223 173 136 
-58 113 399 144 81 48 
-57 113 399 186 123 90 
-57 113 399 219 169 134 
-56 113 399 222 172 137 
-55 114 400 224 165 131 
-55 114 400 212 153 119 
-54 114 401 180 127 85 
-54 114 402 150 97 55 
-53 114 403 56 43 37 
-61 114 400 210 153 110 
-60 114 399 209 158 115 
-60 114 399 209 158 115 
-59 114 399 211 161 124 
-59 114 399 210 160 123 
-58 114 399 129 69 35 
-57 114 399 182 122 88 
-56 114 398 207 157 122 
-56 114 399 212 162 127 
-55 114 399 211 157 121 
-55 114 400 193 139 103 
-54 114 401 173 124 83 
-61 114 399 189 130 86 
-60 114 399 189 136 94 
-60 114 399 193 140 98 
-59 114 399 193 141 104 
-58 114 398 188 136 99 
-58 114 398 126 68 31 
-57 114 398 173 115 78 
-56 114 398 189 139 104 
-56 114 398 188 138 103 
-55 115 399 185 135 98 
-55 115 399 163 113 76 
-55 115 398 185 137 97 
-55 115 399 169 121 81 
-55 115 398 205 158 116 
-55 115 398 204 157 115 
