ply
format ascii 1.0
comment Created by CloudCompare v2.10.1 (Zephyrus)
comment Created 2020-05-06 7:44 PM
obj_info Generated by CloudCompare!
element vertex 509
property float x
property float y
property float z
property uchar red
property uchar green
property uchar blue
end_header
-74 -61 409 158 133 113 
-73 -61 408 174 140 115 
-73 -61 409 155 144 142 
-74 -60 408 194 155 126 
-73 -60 408 193 154 125 
-73 -60 409 181 154 147 
-72 -60 409 177 150 143 
-72 -60 409 154 151 144 
-71 -60 409 148 145 138 
-70 -60 409 145 140 144 
-70 -60 409 144 139 143 
-75 -59 407 222 185 156 
-75 -59 407 230 193 164 
-74 -59 408 232 205 175 
-73 -59 408 237 210 180 
-73 -59 408 248 206 181 
-72 -59 408 241 199 174 
-71 -59 408 226 188 167 
-71 -59 408 211 173 152 
-70 -59 408 192 160 147 
-69 -59 408 178 146 133 
-69 -59 408 155 141 132 
-76 -58 406 224 188 156 
-76 -58 406 232 196 164 
-75 -58 406 247 211 179 
-75 -59 407 250 214 182 
-74 -59 407 253 224 194 
-73 -59 407 255 226 196 
-73 -59 407 254 219 191 
-72 -59 407 253 218 190 
-71 -59 407 251 213 190 
-71 -59 407 246 208 185 
-70 -59 407 238 201 182 
-69 -59 408 224 187 168 
-69 -59 408 195 169 156 
-68 -59 408 178 152 139 
-68 -59 409 151 143 140 
-67 -59 410 145 137 134 
-76 -58 406 238 199 166 
-76 -58 406 255 219 186 
-75 -58 406 255 222 190 
-74 -58 406 255 220 188 
-74 -58 407 252 221 192 
-73 -58 407 252 221 192 
-73 -58 407 254 223 194 
-72 -58 407 252 221 192 
-71 -58 407 251 216 188 
-71 -58 407 248 213 185 
-70 -58 407 252 210 185 
-69 -58 407 250 208 183 
-69 -58 408 234 196 177 
-68 -58 408 218 180 161 
-68 -58 409 187 162 155 
-67 -58 410 171 146 139 
-67 -58 411 157 139 137 
-66 -58 411 169 151 149 
-77 -57 406 240 197 165 
-76 -57 406 254 218 184 
-76 -57 406 254 218 184 
-75 -57 407 250 217 186 
-75 -57 407 255 225 194 
-74 -57 407 255 221 194 
-73 -57 407 251 217 190 
-73 -57 407 254 221 190 
-72 -57 407 254 221 190 
-71 -57 407 252 217 189 
-70 -57 406 248 213 185 
-70 -57 406 250 208 184 
-69 -57 407 248 206 182 
-69 -57 407 244 199 178 
-68 -57 408 236 191 170 
-68 -57 408 221 183 172 
-67 -58 409 201 163 152 
-67 -58 410 177 147 139 
-66 -58 411 188 158 150 
-77 -56 405 240 195 166 
-77 -56 405 254 209 180 
-76 -56 406 255 220 190 
-76 -56 406 255 220 190 
-75 -56 406 249 218 189 
-75 -57 407 250 219 190 
-74 -57 407 255 222 198 
-73 -57 407 255 219 195 
-72 -56 406 255 217 188 
-72 -56 406 255 218 189 
-71 -56 406 254 217 191 
-70 -56 406 252 215 189 
-70 -56 406 250 209 189 
-69 -56 406 245 204 184 
-69 -57 407 243 196 178 
-68 -57 407 240 193 175 
-68 -57 408 236 188 174 
-67 -57 408 217 169 155 
-66 -57 409 196 154 142 
-66 -57 410 206 164 152 
-78 -56 406 228 177 148 
-77 -56 405 251 204 174 
-77 -56 406 253 206 176 
-76 -56 406 251 214 185 
-76 -56 406 255 219 190 
-75 -56 406 253 222 194 
-74 -56 406 253 222 194 
-74 -56 406 253 221 198 
-73 -56 406 250 218 195 
-72 -56 406 255 217 192 
-72 -56 405 255 217 192 
-71 -56 405 253 216 197 
-70 -56 405 252 215 196 
-70 -56 405 252 214 195 
-69 -56 406 247 209 190 
-68 -56 406 246 199 181 
-68 -56 407 243 196 178 
-67 -56 407 240 189 172 
-67 -56 407 218 167 150 
-66 -56 408 201 154 138 
-66 -56 409 215 168 152 
-79 -55 407 213 158 127 
-78 -55 406 250 195 164 
-78 -55 406 254 203 172 
-77 -55 406 255 210 179 
-76 -55 406 255 215 187 
-76 -55 406 254 213 185 
-75 -55 405 255 225 204 
-74 -55 406 255 224 203 
-74 -55 406 235 208 191 
-73 -55 406 235 208 191 
-72 -55 405 239 210 196 
-72 -55 405 242 213 199 
-71 -55 405 245 216 202 
-70 -55 405 246 217 203 
-70 -55 405 253 216 198 
-69 -55 405 251 214 196 
-68 -55 406 253 205 185 
-68 -55 406 247 199 179 
-67 -55 407 242 189 171 
-67 -55 407 212 159 141 
-66 -55 408 198 149 132 
-66 -55 408 216 167 150 
-79 -55 407 234 173 142 
-79 -55 407 248 187 156 
-78 -54 406 253 198 167 
-77 -54 406 255 202 171 
-76 -54 406 253 207 181 
-76 -54 406 255 218 192 
-75 -54 405 250 217 200 
-74 -54 405 232 199 182 
-74 -54 405 237 213 203 
-73 -54 405 255 235 225 
-72 -54 405 255 241 237 
-72 -54 405 255 241 237 
-71 -54 405 255 234 224 
-70 -54 405 248 224 214 
-70 -54 405 249 213 197 
-69 -54 405 248 212 196 
-68 -54 405 255 207 185 
-68 -54 406 250 202 180 
-67 -55 407 245 192 174 
-67 -55 407 209 156 138 
-66 -55 408 196 147 133 
-66 -55 408 217 168 154 
-80 -54 407 207 142 112 
-79 -54 407 234 168 134 
-79 -54 407 248 182 148 
-78 -54 407 246 190 163 
-77 -54 406 252 196 169 
-76 -54 406 251 206 185 
-76 -54 406 255 215 194 
-75 -54 405 236 204 181 
-74 -54 405 233 201 178 
-74 -54 405 252 241 235 
-73 -54 405 247 236 230 
-72 -54 405 230 221 224 
-72 -54 405 246 237 240 
-71 -54 405 255 236 240 
-70 -54 404 254 235 239 
-69 -54 404 235 202 197 
-69 -54 405 247 214 209 
-68 -54 405 250 203 183 
-68 -54 405 245 198 178 
-67 -54 406 234 180 154 
-67 -54 407 209 155 129 
-66 -54 407 197 142 121 
-81 -53 408 158 110 72 
-81 -53 408 173 114 84 
-80 -53 408 206 147 117 
-79 -53 408 216 156 122 
-79 -53 407 228 168 134 
-78 -53 407 239 183 156 
-77 -53 407 249 193 166 
-76 -53 406 251 199 177 
-76 -53 406 255 209 187 
-75 -53 405 220 182 159 
-74 -53 405 248 210 187 
-74 -53 405 247 231 231 
-73 -53 405 227 211 211 
-72 -53 405 186 176 174 
-71 -53 404 199 189 187 
-71 -53 404 225 207 207 
-70 -53 404 250 232 232 
-69 -53 404 230 197 192 
-69 -53 404 228 195 190 
-68 -53 405 242 195 175 
-68 -53 405 236 189 169 
-67 -53 406 225 171 145 
-67 -53 407 202 148 122 
-66 -53 407 190 134 111 
-81 -53 409 186 125 94 
-80 -53 409 208 147 116 
-79 -53 408 204 145 111 
-79 -53 407 220 161 127 
-78 -53 407 233 178 148 
-77 -53 407 246 191 161 
-76 -52 406 245 188 161 
-76 -52 405 253 196 169 
-75 -52 405 210 169 147 
-74 -52 405 245 204 182 
-74 -52 405 228 213 216 
-73 -52 405 192 177 180 
-72 -52 404 153 142 140 
-71 -52 404 177 166 164 
-71 -52 404 224 204 205 
-70 -52 404 241 221 222 
-69 -52 404 217 184 177 
-69 -52 404 219 186 179 
-68 -52 405 236 189 169 
-68 -52 405 223 176 156 
-67 -53 406 212 156 129 
-67 -53 407 196 140 113 
-66 -53 407 186 128 104 
-82 -52 410 143 89 63 
-82 -52 410 134 80 54 
-81 -52 410 191 125 93 
-80 -52 410 208 142 110 
-80 -52 409 208 148 111 
-79 -52 408 217 157 120 
-78 -52 407 222 168 134 
-77 -52 407 232 178 144 
-76 -52 406 239 182 152 
-76 -52 405 243 186 156 
-75 -52 405 199 163 139 
-74 -52 405 222 186 162 
-73 -52 404 236 226 225 
-73 -52 404 205 195 194 
-72 -52 404 187 181 181 
-71 -52 404 191 185 185 
-71 -52 404 241 223 223 
-70 -52 404 234 216 216 
-69 -52 404 207 173 164 
-69 -52 404 223 189 180 
-68 -52 405 238 190 168 
-68 -52 405 210 162 140 
-67 -52 406 193 136 109 
-67 -52 407 185 128 101 
-66 -52 407 178 120 96 
-82 -52 411 131 94 78 
-81 -52 411 195 132 99 
-81 -52 411 205 142 109 
-80 -52 409 210 148 109 
-79 -51 408 214 152 113 
-78 -51 407 214 160 124 
-77 -51 407 220 166 130 
-76 -51 406 233 177 144 
-76 -51 405 236 180 147 
-75 -51 405 199 165 140 
-74 -51 405 190 156 131 
-74 -51 405 222 209 203 
-73 -51 404 238 225 219 
-72 -51 404 228 223 227 
-71 -51 404 220 215 219 
-71 -51 404 240 220 221 
-70 -51 404 214 194 195 
-69 -51 404 205 167 156 
-69 -51 404 226 188 177 
-68 -51 405 240 188 164 
-68 -51 405 218 166 142 
-67 -51 406 197 140 113 
-67 -51 406 186 129 102 
-66 -51 407 175 117 95 
-81 -51 412 179 130 98 
-81 -51 412 194 145 113 
-80 -51 410 207 152 113 
-79 -51 408 209 154 115 
-78 -51 407 207 154 120 
-77 -50 406 222 169 135 
-76 -50 406 232 176 143 
-76 -50 405 233 177 144 
-75 -50 405 207 170 144 
-74 -50 405 186 149 123 
-74 -50 405 184 155 139 
-73 -50 404 218 189 173 
-72 -50 404 222 207 202 
-71 -50 404 217 202 197 
-71 -50 405 206 177 171 
-70 -50 404 193 164 158 
-69 -50 404 221 175 160 
-69 -50 405 234 188 173 
-68 -50 405 237 183 157 
-68 -51 406 225 171 145 
-67 -51 406 212 155 128 
-67 -51 406 194 137 110 
-66 -51 407 176 120 97 
-66 -51 408 201 145 122 
-81 -51 412 179 137 113 
-80 -50 411 199 145 109 
-79 -50 409 209 155 119 
-78 -50 407 210 156 122 
-77 -50 406 217 163 129 
-76 -50 405 223 163 129 
-76 -50 405 226 166 132 
-75 -50 405 217 174 142 
-74 -50 405 220 177 145 
-74 -50 405 199 154 123 
-73 -50 404 185 140 109 
-72 -50 404 177 136 114 
-72 -50 405 180 139 117 
-71 -50 405 190 145 126 
-70 -50 405 213 168 149 
-70 -50 405 231 180 161 
-69 -50 405 228 177 158 
-69 -50 406 226 172 146 
-68 -50 406 216 162 136 
-67 -50 407 207 151 124 
-67 -50 407 187 131 104 
-66 -50 408 172 116 93 
-66 -50 408 195 139 116 
-81 -50 413 174 131 114 
-80 -50 411 200 141 111 
-79 -50 409 206 147 117 
-78 -49 408 208 149 117 
-77 -49 407 212 153 121 
-76 -49 406 219 155 117 
-76 -49 405 227 163 125 
-75 -49 405 210 165 124 
-74 -49 405 211 166 125 
-74 -49 405 220 167 125 
-73 -49 405 214 161 119 
-72 -49 404 211 151 114 
-72 -49 405 217 157 120 
-71 -49 405 229 172 143 
-70 -49 405 235 178 149 
-70 -49 405 227 172 151 
-69 -49 405 225 170 149 
-69 -49 406 217 165 141 
-68 -49 406 206 154 130 
-67 -49 406 199 145 119 
-67 -49 407 180 126 100 
-66 -49 408 172 116 91 
-66 -49 408 193 137 112 
-80 -49 411 178 129 97 
-79 -49 409 186 137 105 
-78 -49 408 202 142 106 
-77 -49 407 211 151 115 
-76 -49 406 215 159 122 
-76 -49 406 214 158 121 
-75 -48 405 220 160 124 
-74 -48 405 226 166 130 
-74 -48 405 230 163 134 
-73 -48 405 228 161 132 
-72 -48 405 226 164 127 
-72 -48 405 229 167 130 
-71 -48 405 227 176 149 
-70 -48 405 226 175 148 
-70 -48 405 225 172 141 
-69 -49 406 223 170 139 
-69 -49 406 215 158 138 
-68 -49 407 204 147 127 
-67 -49 407 190 140 115 
-67 -49 407 166 116 91 
-66 -49 408 166 116 83 
-66 -49 408 196 146 113 
-80 -49 412 166 112 86 
-79 -48 410 182 128 102 
-78 -48 409 191 142 102 
-77 -48 408 196 147 107 
-77 -48 407 206 150 115 
-76 -48 406 208 152 117 
-75 -48 406 215 152 119 
-74 -48 406 218 155 122 
-74 -48 406 223 154 121 
-73 -48 406 226 157 124 
-72 -48 406 219 164 123 
-72 -48 406 219 164 123 
-71 -48 406 220 165 134 
-70 -48 406 220 165 134 
-70 -48 406 221 162 130 
-69 -48 406 218 159 127 
-69 -48 407 210 148 125 
-68 -48 407 200 138 115 
-67 -48 407 183 125 103 
-67 -48 407 166 108 86 
-80 -48 413 153 100 82 
-79 -48 411 172 119 101 
-78 -48 410 179 131 93 
-78 -48 409 185 137 99 
-77 -47 408 196 139 109 
-76 -47 407 198 141 111 
-75 -47 407 207 142 114 
-75 -47 407 210 145 117 
-74 -47 406 215 147 108 
-73 -47 406 220 152 113 
-72 -47 406 209 153 116 
-72 -47 406 210 154 117 
-71 -47 406 214 153 122 
-71 -47 407 216 155 124 
-70 -47 407 213 153 119 
-69 -47 407 207 147 113 
-69 -47 407 197 137 113 
-68 -47 407 187 127 103 
-68 -47 408 174 113 94 
-67 -47 408 159 98 79 
-80 -47 412 149 107 95 
-78 -47 410 170 114 81 
-78 -47 409 180 124 91 
-77 -47 409 190 131 99 
-76 -47 408 189 130 98 
-75 -47 407 195 131 104 
-75 -47 407 201 137 110 
-74 -47 407 207 140 98 
-73 -47 406 207 140 98 
-72 -47 406 206 143 112 
-72 -47 406 207 144 113 
-71 -47 406 208 141 112 
-71 -47 407 207 140 111 
-70 -47 407 195 138 108 
-69 -47 407 191 134 104 
-69 -47 407 183 132 103 
-68 -47 408 174 123 94 
-68 -47 408 164 107 87 
-67 -47 409 146 89 69 
-79 -46 411 165 97 74 
-78 -46 410 172 104 81 
-77 -46 408 175 116 86 
-76 -46 408 177 118 88 
-75 -46 408 182 121 93 
-75 -46 407 190 129 101 
-74 -46 407 194 129 91 
-73 -46 407 191 126 88 
-73 -46 407 192 125 96 
-72 -46 407 195 128 99 
-71 -46 407 198 127 99 
-71 -46 407 196 125 97 
-70 -46 407 184 125 95 
-70 -46 408 182 123 93 
-69 -46 408 171 120 91 
-68 -46 409 159 108 79 
-68 -46 409 156 100 77 
-67 -46 409 129 73 50 
-67 -46 410 128 71 51 
-78 -46 411 146 90 75 
-77 -46 409 153 97 70 
-76 -46 409 161 105 78 
-75 -45 408 169 112 83 
-75 -45 408 175 118 89 
-74 -45 408 181 118 85 
-73 -45 408 181 118 85 
-73 -45 408 183 116 89 
-72 -45 408 182 115 88 
-72 -45 408 184 113 81 
-71 -45 408 180 109 77 
-70 -45 408 171 105 79 
-70 -46 409 169 103 77 
-69 -46 409 157 99 75 
-68 -46 409 144 86 62 
-68 -46 410 133 78 57 
-67 -46 410 129 74 53 
-67 -46 411 151 98 80 
-77 -45 411 143 95 75 
-76 -45 410 145 97 77 
-76 -45 409 156 101 71 
-75 -45 409 161 106 76 
-74 -45 409 167 105 80 
-74 -45 409 169 107 82 
-73 -45 409 172 104 81 
-72 -45 409 169 101 78 
-72 -45 409 168 103 71 
-71 -45 410 164 99 67 
-71 -45 410 154 92 71 
-70 -45 410 149 87 66 
-69 -45 410 133 84 67 
-69 -45 410 127 78 61 
-68 -45 411 120 86 74 
-67 -45 411 143 109 97 
-77 -44 411 138 94 83 
-76 -44 410 145 91 63 
-75 -44 410 149 95 67 
-75 -44 411 155 93 72 
-74 -44 410 154 92 71 
-73 -44 410 163 90 75 
-73 -44 410 158 85 70 
-72 -44 410 152 91 63 
-71 -44 410 148 87 59 
-71 -44 410 136 80 65 
-70 -44 410 135 79 64 
-69 -44 410 124 90 80 
-69 -44 411 132 98 88 
-68 -45 412 137 130 124 
-76 -44 412 129 115 115 
-75 -44 411 119 105 105 
-75 -44 411 126 98 95 
-74 -44 411 124 96 93 
-73 -44 411 136 89 81 
-73 -44 411 136 89 81 
-72 -44 411 127 92 90 
-71 -44 411 129 94 92 
-71 -44 411 123 105 103 
-70 -44 411 133 115 113 
-69 -44 411 128 132 133 
-69 -44 411 135 139 140 
-68 -44 412 143 141 142 
