ply
format ascii 1.0
comment Created by CloudCompare v2.10.1 (Zephyrus)
comment Created 2020-05-06 7:43 PM
obj_info Generated by CloudCompare!
element vertex 159
property float x
property float y
property float z
property uchar red
property uchar green
property uchar blue
end_header
-115 -94 408 255 253 234 
-115 -94 409 255 251 235 
-114 -94 409 255 251 235 
-112 -94 409 229 215 202 
-117 -93 408 242 226 203 
-116 -93 408 255 247 224 
-116 -93 408 255 251 231 
-115 -93 408 254 249 229 
-115 -93 409 255 255 240 
-114 -93 409 255 255 241 
-113 -93 409 255 252 238 
-112 -93 408 255 252 238 
-112 -93 408 255 245 233 
-111 -93 408 241 231 219 
-110 -93 408 190 180 170 
-110 -93 409 118 108 98 
-117 -93 408 255 246 220 
-116 -93 408 255 241 215 
-116 -93 408 253 252 231 
-115 -93 408 252 251 230 
-115 -93 409 255 255 241 
-114 -93 408 255 255 241 
-113 -93 408 255 255 240 
-112 -93 408 255 255 241 
-112 -93 408 255 254 242 
-111 -93 408 255 254 242 
-110 -93 408 248 240 229 
-110 -93 408 193 185 174 
-118 -92 408 238 201 174 
-118 -92 408 255 228 201 
-117 -92 408 255 237 213 
-116 -92 408 255 240 216 
-116 -92 408 255 251 232 
-115 -92 408 255 249 230 
-114 -92 408 255 255 239 
-114 -92 408 255 255 239 
-113 -92 408 255 255 243 
-112 -92 408 255 255 243 
-112 -92 408 255 255 243 
-111 -92 408 255 255 243 
-111 -92 408 255 250 240 
-110 -92 408 243 236 226 
-109 -92 409 178 168 159 
-109 -92 410 109 99 90 
-119 -91 409 218 163 133 
-119 -91 409 255 215 190 
-118 -91 408 255 218 193 
-117 -91 408 252 227 205 
-116 -91 408 255 230 208 
-116 -91 408 253 242 224 
-115 -91 408 255 246 228 
-114 -91 408 255 255 239 
-114 -91 408 255 255 239 
-113 -91 407 255 255 243 
-112 -91 407 255 255 243 
-112 -91 407 255 255 244 
-111 -91 407 254 254 242 
-111 -91 408 255 254 242 
-110 -91 408 255 252 240 
-109 -91 408 236 226 217 
-109 -92 409 148 138 129 
-119 -91 410 243 203 177 
-118 -91 409 254 214 188 
-117 -91 409 249 219 191 
-117 -91 409 255 231 203 
-116 -91 408 255 236 202 
-115 -91 408 255 248 214 
-114 -91 408 255 252 235 
-114 -91 408 255 252 235 
-113 -90 407 252 250 237 
-112 -90 407 255 253 240 
-112 -90 407 255 255 243 
-111 -90 407 255 255 243 
-110 -90 407 255 255 243 
-110 -91 408 255 255 242 
-109 -91 408 249 239 227 
-109 -91 409 215 205 193 
-120 -90 410 192 138 110 
-120 -90 410 226 172 144 
-119 -90 410 228 184 159 
-118 -90 409 241 197 172 
-117 -90 409 245 210 182 
-117 -90 409 255 222 194 
-116 -90 409 255 227 195 
-115 -90 408 255 237 205 
-114 -90 408 250 242 223 
-114 -90 408 255 248 229 
-113 -90 407 253 250 233 
-112 -90 407 255 252 235 
-112 -90 407 255 255 242 
-111 -90 407 255 255 242 
-110 -90 407 255 255 240 
-110 -90 408 253 254 238 
-120 -90 410 196 145 118 
-120 -90 410 210 159 132 
-119 -90 410 213 166 138 
-118 -89 409 225 178 150 
-117 -89 409 236 197 168 
-117 -89 409 251 212 183 
-116 -89 409 255 221 191 
-115 -89 408 255 227 197 
-114 -89 408 248 230 206 
-114 -89 408 255 239 215 
-113 -89 407 255 247 227 
-112 -89 407 255 248 228 
-112 -89 407 255 254 236 
-111 -89 407 255 255 238 
-120 -89 411 195 148 120 
-119 -89 411 206 157 125 
-118 -89 410 211 162 130 
-118 -89 410 221 176 145 
-117 -89 409 239 194 163 
-116 -89 409 249 210 179 
-115 -89 408 255 217 186 
-114 -89 408 253 221 196 
-114 -89 408 255 227 202 
-113 -88 407 255 238 214 
-120 -89 412 177 131 105 
-119 -89 411 193 144 111 
-118 -88 410 197 148 115 
-118 -88 410 207 158 125 
-117 -88 409 221 172 139 
-116 -88 409 240 195 162 
-115 -88 409 253 208 175 
-114 -88 408 251 212 183 
-114 -88 408 254 215 186 
-113 -88 407 251 225 200 
-119 -88 411 187 138 106 
-118 -88 410 198 148 115 
-117 -88 409 207 157 124 
-116 -88 409 226 176 143 
-115 -88 409 243 193 160 
-114 -87 408 239 196 164 
-114 -87 408 247 204 172 
-119 -87 411 172 127 96 
-118 -87 410 186 136 103 
-117 -87 410 192 142 109 
-116 -87 409 207 154 122 
-115 -87 409 218 165 133 
-114 -87 408 219 173 139 
-119 -87 411 154 113 83 
-118 -86 410 169 123 90 
-117 -86 409 180 134 101 
-116 -86 409 192 142 109 
-115 -86 409 196 146 113 
-118 -86 411 161 109 85 
-117 -86 410 170 118 94 
-116 -86 409 178 124 96 
-115 -86 409 188 134 106 
-115 -86 409 201 157 132 
-118 -85 411 150 104 81 
-117 -85 410 156 110 87 
-116 -85 409 167 115 91 
-117 -85 411 142 105 87 
-116 -84 410 146 99 79 
-116 -84 410 174 127 107 
-117 -84 411 137 110 93 
-117 -84 411 147 105 89 
-116 -84 410 168 126 110 
