ply
format ascii 1.0
comment Created by CloudCompare v2.10.1 (Zephyrus)
comment Created 2020-05-06 7:44 PM
obj_info Generated by CloudCompare!
element vertex 1697
property float x
property float y
property float z
property uchar red
property uchar green
property uchar blue
end_header
-108 -91 409 143 129 120 
-108 -91 410 106 92 83 
-109 -90 408 255 251 235 
-109 -90 409 250 244 228 
-108 -90 409 230 220 208 
-108 -90 409 161 151 139 
-107 -90 410 113 100 92 
-110 -89 407 252 255 236 
-110 -89 408 253 255 237 
-109 -89 408 255 254 234 
-109 -90 409 254 253 233 
-108 -90 409 254 247 229 
-108 -90 409 241 234 216 
-107 -90 409 190 176 165 
-106 -90 410 122 108 97 
-106 -90 410 109 94 87 
-112 -88 407 255 240 216 
-112 -88 407 254 249 229 
-111 -88 407 255 253 233 
-110 -88 407 251 254 233 
-110 -88 407 255 255 237 
-109 -88 407 252 254 232 
-109 -89 408 255 255 235 
-108 -89 408 255 255 236 
-107 -89 408 251 246 226 
-107 -89 409 252 238 225 
-106 -89 409 209 195 182 
-106 -89 410 143 126 116 
-105 -89 410 115 98 88 
-105 -89 410 125 108 101 
-112 -88 407 255 232 207 
-112 -88 407 253 245 222 
-111 -88 407 255 250 227 
-110 -88 407 250 253 232 
-110 -88 407 254 255 236 
-109 -88 407 255 255 237 
-108 -88 407 252 255 234 
-108 -88 408 253 251 230 
-107 -88 408 255 253 232 
-107 -88 408 255 246 229 
-106 -88 408 250 241 224 
-106 -88 409 227 213 200 
-105 -88 410 159 145 132 
-105 -89 410 123 105 95 
-113 -87 407 249 219 191 
-112 -87 407 255 230 202 
-112 -87 407 255 247 222 
-111 -87 407 255 251 226 
-110 -87 407 251 253 232 
-110 -87 407 252 254 233 
-109 -87 407 255 255 237 
-108 -87 407 255 255 237 
-108 -87 407 255 255 236 
-107 -87 407 255 255 234 
-107 -87 408 255 255 236 
-106 -87 408 255 252 233 
-105 -87 408 255 250 234 
-105 -88 409 236 229 213 
-104 -88 409 186 168 154 
-104 -88 410 121 103 89 
-114 -86 407 239 193 159 
-113 -86 407 249 216 185 
-112 -86 406 255 229 198 
-111 -86 406 255 243 218 
-111 -86 406 255 246 221 
-110 -86 406 255 250 231 
-109 -86 406 255 251 232 
-109 -86 406 255 255 237 
-108 -86 406 255 255 237 
-108 -87 407 255 255 236 
-107 -87 407 255 255 235 
-106 -87 407 255 255 234 
-106 -87 408 255 253 232 
-105 -87 408 255 252 233 
-105 -87 408 246 243 224 
-104 -87 408 249 236 219 
-103 -87 408 207 194 177 
-103 -87 409 134 118 103 
-103 -87 410 106 90 75 
-102 -87 410 112 95 85 
-114 -86 408 203 153 118 
-114 -86 407 235 185 150 
-113 -86 407 248 212 180 
-112 -86 407 255 222 190 
-111 -86 406 253 233 209 
-111 -86 406 255 237 213 
-110 -86 406 254 246 227 
-109 -86 406 255 249 230 
-109 -86 406 255 255 237 
-108 -86 406 255 255 237 
-107 -86 406 255 255 236 
-107 -86 406 255 255 236 
-106 -86 406 255 255 236 
-106 -86 407 255 254 233 
-105 -86 407 253 252 232 
-104 -86 407 255 254 234 
-104 -86 407 255 246 226 
-103 -86 407 254 243 223 
-103 -86 408 223 210 193 
-102 -86 409 144 131 114 
-102 -86 409 97 81 68 
-101 -86 409 103 87 74 
-114 -85 408 227 183 158 
-113 -85 407 241 205 179 
-112 -85 407 249 213 187 
-112 -85 407 251 225 198 
-111 -85 406 255 235 208 
-110 -85 406 255 245 219 
-109 -85 406 255 248 222 
-109 -85 406 255 247 225 
-108 -85 406 255 251 229 
-107 -85 406 254 251 232 
-107 -85 406 253 250 231 
-106 -85 406 255 252 233 
-105 -85 406 255 253 234 
-105 -85 406 255 253 233 
-104 -85 406 255 253 233 
-104 -85 406 252 250 225 
-103 -85 406 249 247 222 
-102 -85 407 251 243 220 
-102 -85 408 229 221 198 
-101 -85 408 164 146 132 
-101 -85 408 110 92 78 
-101 -86 410 110 87 81 
-115 -85 409 176 124 100 
-115 -85 409 205 158 130 
-114 -85 408 221 174 146 
-113 -85 408 229 190 161 
-113 -85 408 240 201 172 
-112 -85 407 245 215 187 
-111 -85 407 254 224 196 
-110 -84 406 255 235 206 
-109 -84 406 255 241 212 
-109 -84 406 255 241 215 
-108 -84 406 255 247 221 
-107 -84 406 255 249 225 
-107 -84 406 255 249 225 
-106 -84 406 255 251 229 
-105 -84 406 255 251 229 
-105 -84 406 255 251 229 
-104 -84 406 255 252 230 
-104 -84 406 252 251 223 
-103 -84 406 249 248 220 
-102 -85 407 255 248 225 
-102 -85 407 252 244 221 
-101 -85 408 246 230 214 
-101 -85 408 189 173 157 
-100 -85 408 114 94 85 
-100 -85 409 96 76 67 
-99 -85 410 105 82 76 
-99 -85 410 106 83 77 
-115 -84 409 203 154 122 
-114 -84 409 214 165 133 
-113 -84 409 219 175 146 
-113 -84 409 230 186 157 
-112 -84 408 237 202 172 
-111 -84 407 248 213 183 
-110 -84 406 251 224 194 
-109 -84 406 255 230 200 
-109 -84 406 252 233 203 
-108 -84 406 255 241 211 
-107 -84 406 255 245 218 
-107 -84 406 255 247 220 
-106 -84 406 255 250 226 
-105 -84 406 255 251 227 
-105 -84 406 255 252 230 
-104 -84 406 255 252 230 
-104 -84 406 251 250 222 
-103 -84 406 254 253 225 
-103 -84 407 253 249 224 
-102 -84 407 253 249 224 
-101 -84 407 255 244 226 
-101 -84 408 251 240 222 
-100 -84 408 214 198 185 
-99 -84 408 136 120 107 
-99 -84 409 113 90 82 
-98 -84 409 129 106 98 
-98 -84 409 129 105 95 
-115 -84 410 190 139 108 
-114 -84 409 205 154 123 
-113 -84 409 213 166 136 
-113 -84 409 220 173 143 
-112 -84 409 229 185 158 
-111 -83 408 243 199 172 
-110 -83 407 249 214 184 
-109 -83 406 255 221 191 
-109 -83 406 249 224 194 
-108 -83 406 255 232 202 
-107 -83 406 253 238 209 
-107 -83 406 255 241 212 
-106 -83 406 255 247 222 
-106 -83 406 255 249 224 
-105 -83 406 255 251 229 
-104 -83 406 255 252 230 
-104 -83 406 253 251 226 
-103 -83 406 255 254 229 
-102 -83 406 253 251 228 
-102 -83 407 253 251 228 
-101 -83 407 255 251 231 
-101 -83 407 255 250 230 
-100 -83 407 253 239 226 
-99 -84 408 233 219 206 
-99 -84 408 181 159 148 
-98 -84 408 140 118 107 
-98 -84 408 120 93 84 
-116 -83 411 154 118 106 
-115 -83 410 171 124 96 
-114 -83 410 188 141 113 
-114 -83 410 202 155 127 
-113 -83 409 209 162 134 
-112 -83 408 217 172 143 
-111 -83 408 229 184 155 
-110 -83 407 241 200 170 
-110 -83 407 250 209 179 
-109 -82 406 248 215 184 
-108 -82 406 255 223 192 
-107 -82 406 252 229 198 
-107 -82 406 255 233 202 
-106 -82 406 252 240 214 
-106 -82 406 255 244 218 
-105 -82 406 254 248 224 
-104 -82 406 255 250 226 
-104 -82 406 255 255 228 
-103 -82 406 249 248 220 
-102 -82 406 255 254 231 
-102 -82 406 254 252 229 
-101 -83 407 250 248 227 
-101 -83 407 252 250 229 
-100 -83 407 252 243 228 
-100 -83 408 253 244 229 
-99 -83 408 252 234 222 
-98 -83 408 197 179 167 
-98 -83 409 129 105 95 
-97 -83 409 108 84 74 
-97 -83 410 115 88 77 
-96 -83 410 112 85 74 
-116 -83 411 138 110 98 
-115 -83 411 158 114 87 
-115 -83 411 170 126 99 
-114 -82 410 186 139 111 
-113 -83 410 200 153 125 
-112 -82 409 211 162 132 
-111 -82 408 217 168 138 
-110 -82 407 228 183 150 
-110 -82 407 241 196 163 
-109 -82 407 243 204 171 
-108 -82 406 253 214 181 
-107 -82 406 252 223 191 
-107 -82 406 255 226 194 
-106 -82 406 251 234 206 
-106 -82 406 255 238 210 
-105 -82 406 253 246 218 
-104 -82 406 255 249 221 
-104 -82 406 255 254 224 
-103 -82 406 255 255 228 
-102 -82 406 255 255 231 
-102 -82 406 255 254 229 
-101 -82 406 254 252 231 
-101 -82 407 251 249 228 
-100 -82 407 255 252 233 
-99 -82 407 255 250 231 
-99 -82 408 255 253 239 
-98 -82 408 255 250 236 
-98 -82 408 224 206 194 
-97 -82 409 149 131 119 
-97 -83 410 124 102 89 
-96 -83 410 133 111 98 
-115 -82 412 152 114 91 
-114 -82 411 167 123 96 
-113 -82 410 183 139 112 
-112 -82 409 200 151 119 
-112 -82 409 207 158 126 
-111 -81 408 218 169 136 
-110 -81 407 227 178 145 
-109 -81 407 234 191 157 
-108 -81 406 246 203 169 
-107 -81 406 248 213 181 
-107 -81 406 253 218 186 
-106 -81 406 249 228 197 
-106 -81 406 253 232 201 
-105 -81 406 251 240 212 
-104 -81 406 255 244 216 
-104 -81 406 254 253 222 
-103 -81 406 255 255 227 
-102 -81 406 255 255 228 
-102 -81 406 255 255 227 
-101 -81 406 255 255 234 
-100 -81 406 255 255 234 
-100 -81 406 255 253 234 
-99 -81 407 253 250 231 
-99 -81 407 255 253 237 
-98 -81 407 255 255 239 
-97 -81 407 255 246 234 
-97 -82 408 239 229 217 
-96 -82 409 185 169 156 
-96 -82 410 140 124 111 
-95 -82 410 132 110 97 
-95 -82 410 124 102 89 
-115 -82 412 142 107 87 
-114 -81 411 155 111 86 
-113 -81 410 167 123 98 
-112 -81 410 187 138 108 
-112 -81 409 201 152 122 
-111 -81 408 211 161 128 
-110 -81 408 215 165 132 
-109 -81 407 222 177 144 
-108 -81 407 236 191 158 
-108 -81 407 240 204 172 
-107 -81 407 247 211 179 
-106 -80 406 245 220 190 
-106 -80 406 250 225 195 
-105 -80 406 247 233 206 
-104 -80 406 251 237 210 
-104 -80 406 255 255 226 
-103 -80 406 255 254 224 
-102 -80 406 255 255 231 
-102 -80 406 255 255 232 
-101 -80 406 255 255 234 
-100 -80 406 255 255 236 
-100 -80 406 255 255 239 
-99 -81 407 255 254 236 
-99 -81 407 255 255 241 
-98 -81 407 255 255 241 
-97 -81 407 255 254 242 
-97 -81 407 255 255 243 
-96 -81 408 254 240 231 
-96 -81 409 210 196 187 
-95 -81 409 148 128 119 
-95 -81 410 130 110 101 
-94 -81 410 132 110 97 
-115 -81 412 137 107 99 
-114 -81 411 152 111 93 
-113 -81 410 158 117 99 
-112 -81 410 175 128 98 
-112 -80 409 191 144 114 
-111 -80 409 202 158 121 
-110 -80 408 207 163 126 
-109 -80 408 216 172 137 
-108 -80 407 227 183 148 
-108 -80 407 237 192 159 
-107 -80 407 246 201 168 
-106 -80 406 254 213 185 
-106 -80 406 255 218 190 
-105 -80 406 255 224 201 
-104 -80 406 255 232 209 
-104 -80 406 254 240 205 
-103 -80 406 255 241 206 
-102 -80 406 255 249 220 
-102 -80 406 255 254 225 
-101 -80 406 255 255 235 
-100 -80 406 255 255 235 
-100 -80 406 255 255 243 
-99 -80 406 255 255 243 
-99 -80 407 254 254 244 
-98 -80 407 252 252 242 
-97 -80 407 253 255 242 
-97 -80 407 253 255 242 
-96 -80 407 255 251 239 
-96 -80 408 254 250 238 
-95 -80 408 223 213 203 
-95 -80 409 156 146 136 
-94 -80 409 139 111 99 
-114 -80 410 130 101 93 
-114 -80 411 142 106 90 
-113 -80 411 148 112 96 
-112 -80 410 161 119 94 
-112 -80 410 174 132 107 
-111 -80 409 192 149 115 
-110 -79 408 202 159 125 
-109 -80 408 208 164 129 
-109 -80 408 218 174 139 
-108 -79 407 227 182 149 
-107 -79 407 235 190 157 
-106 -79 407 243 202 174 
-106 -79 406 252 211 183 
-105 -79 406 255 219 193 
-104 -79 406 255 227 201 
-104 -79 406 250 234 201 
-103 -79 406 253 237 204 
-102 -79 406 255 244 216 
-102 -79 406 255 249 221 
-101 -79 406 255 252 232 
-100 -79 406 255 253 233 
-100 -79 406 255 254 241 
-99 -79 406 255 255 242 
-98 -79 406 253 254 246 
-98 -79 407 252 253 245 
-97 -79 407 252 253 245 
-97 -79 407 250 251 243 
-96 -79 407 251 248 239 
-95 -79 407 255 254 245 
-95 -79 407 255 251 241 
-94 -80 408 238 231 221 
-94 -80 408 189 167 154 
-93 -80 409 135 113 100 
-93 -80 410 129 100 92 
-92 -80 412 118 99 95 
-113 -79 411 141 112 104 
-113 -79 411 150 114 98 
-112 -79 410 159 123 107 
-111 -79 410 176 135 107 
-110 -79 409 189 148 120 
-110 -79 409 200 156 121 
-109 -79 409 208 164 129 
-108 -79 408 217 172 139 
-107 -79 408 225 180 147 
-106 -79 407 233 192 162 
-106 -79 407 244 203 173 
-105 -78 406 253 212 184 
-104 -79 406 255 218 190 
-104 -79 406 249 226 194 
-103 -79 406 253 230 198 
-102 -79 406 253 238 209 
-102 -79 406 255 244 215 
-101 -79 406 255 249 226 
-100 -79 406 255 252 229 
-100 -79 406 255 254 239 
-99 -79 406 255 255 240 
-98 -79 406 252 252 242 
-98 -79 406 253 253 243 
-97 -79 406 254 255 249 
-96 -79 406 254 255 249 
-96 -79 407 254 254 246 
-95 -79 407 251 251 243 
-95 -79 407 252 249 242 
-94 -79 407 252 249 242 
-94 -79 408 255 242 231 
-93 -79 408 212 198 187 
-93 -79 409 151 128 120 
-92 -79 409 122 99 91 
-113 -79 411 134 113 108 
-113 -79 411 142 115 106 
-112 -79 411 148 121 112 
-111 -79 410 164 126 103 
-111 -79 410 173 135 112 
-110 -79 410 189 144 111 
-109 -78 409 199 154 121 
-108 -78 408 208 163 130 
-107 -78 408 216 171 138 
-106 -78 407 227 182 149 
-106 -78 407 237 192 159 
-105 -78 406 246 201 168 
-104 -78 406 253 208 175 
-104 -78 406 248 218 184 
-103 -78 406 253 223 189 
-102 -78 406 254 231 199 
-102 -78 406 255 237 205 
-101 -78 406 255 245 217 
-100 -78 406 255 249 221 
-100 -78 406 255 253 233 
-99 -78 406 255 254 234 
-98 -78 406 255 254 242 
-98 -78 406 255 254 242 
-97 -78 406 253 253 245 
-96 -78 406 252 252 244 
-96 -78 406 255 255 247 
-95 -78 407 255 255 248 
-95 -78 407 253 253 245 
-94 -78 407 254 254 246 
-93 -78 407 254 250 239 
-93 -78 408 255 251 240 
-92 -78 408 231 216 209 
-92 -79 409 158 143 136 
-91 -79 410 122 107 104 
-91 -79 411 142 127 124 
-91 -79 412 141 142 137 
-112 -78 411 137 116 113 
-111 -78 411 152 119 102 
-111 -78 410 158 125 108 
-110 -78 410 176 131 102 
-109 -78 409 188 143 114 
-108 -78 408 200 154 120 
-107 -78 408 208 162 128 
-106 -77 407 217 171 137 
-106 -77 407 225 179 145 
-105 -77 407 237 189 153 
-104 -77 406 246 198 162 
-104 -77 406 245 209 175 
-103 -77 406 251 215 181 
-102 -77 406 254 225 193 
-102 -77 406 255 230 198 
-101 -77 406 254 237 207 
-100 -77 406 255 242 212 
-100 -77 406 255 250 226 
-99 -77 406 255 252 228 
-98 -77 406 253 251 236 
-98 -77 406 255 253 238 
-97 -77 406 254 254 244 
-96 -77 406 253 253 243 
-96 -77 406 251 252 246 
-95 -77 406 251 252 246 
-95 -77 406 250 251 245 
-94 -77 406 250 251 245 
-93 -77 407 255 255 248 
-93 -77 407 255 255 248 
-92 -78 408 255 251 245 
-92 -78 408 241 234 228 
-91 -78 409 192 181 177 
-91 -78 410 152 141 137 
-90 -78 410 147 143 140 
-90 -78 411 145 141 138 
-111 -77 411 144 114 104 
-111 -77 411 149 119 109 
-110 -77 410 161 119 95 
-109 -77 409 174 132 108 
-108 -77 408 193 144 111 
-107 -77 408 202 153 120 
-107 -77 408 210 162 126 
-106 -77 407 217 169 133 
-105 -77 406 224 178 142 
-104 -77 406 234 188 152 
-104 -77 406 238 200 164 
-103 -77 406 246 208 172 
-102 -76 405 252 219 186 
-101 -76 405 255 225 192 
-101 -76 405 252 231 200 
-100 -76 405 255 235 204 
-99 -76 405 253 246 218 
-99 -76 405 255 250 222 
-98 -76 405 255 254 234 
-98 -76 405 253 252 232 
-97 -76 405 253 253 241 
-96 -77 406 255 255 243 
-96 -77 406 254 254 246 
-95 -77 406 253 253 245 
-95 -77 406 253 254 248 
-94 -77 406 254 255 249 
-93 -77 406 252 255 248 
-93 -77 407 252 255 248 
-92 -77 407 255 255 250 
-92 -77 408 255 255 250 
-91 -77 408 255 250 247 
-91 -77 409 217 209 206 
-90 -77 409 167 162 156 
-90 -77 410 146 141 135 
-111 -77 411 142 117 113 
-111 -77 411 146 121 117 
-110 -77 411 151 112 95 
-109 -77 410 159 120 103 
-108 -76 409 180 131 99 
-107 -76 408 192 143 111 
-106 -76 407 202 154 116 
-106 -76 407 208 160 122 
-105 -76 407 212 169 134 
-104 -76 406 221 178 143 
-104 -76 406 229 186 151 
-103 -76 406 238 195 160 
-102 -76 406 246 207 174 
-101 -76 405 254 215 182 
-101 -76 405 251 224 194 
-100 -76 405 255 228 198 
-99 -76 405 253 239 210 
-99 -76 405 255 244 215 
-98 -76 405 255 255 230 
-98 -76 405 255 253 228 
-97 -76 405 251 250 232 
-96 -76 405 254 253 235 
-96 -76 405 255 252 243 
-95 -76 405 254 251 242 
-94 -76 405 255 254 249 
-94 -76 405 253 252 247 
-93 -76 406 251 255 248 
-93 -76 406 251 255 248 
-92 -76 406 255 255 250 
-91 -76 407 255 255 250 
-91 -76 407 255 253 250 
-90 -76 408 255 252 249 
-90 -76 408 241 232 225 
-89 -77 409 186 177 170 
-89 -77 410 146 143 136 
-110 -76 410 145 109 95 
-109 -76 410 148 112 98 
-108 -76 409 168 119 87 
-108 -76 409 181 132 100 
-107 -76 408 193 145 107 
-106 -75 407 201 153 115 
-105 -75 407 203 163 128 
-104 -75 406 209 169 134 
-104 -75 406 219 173 137 
-103 -75 406 229 183 147 
-102 -75 406 238 195 160 
-101 -75 405 248 205 170 
-101 -75 405 250 217 184 
-100 -75 405 255 223 190 
-99 -75 405 249 232 202 
-99 -75 405 255 238 208 
-98 -75 405 250 243 215 
-98 -75 405 255 252 224 
-97 -75 405 255 253 233 
-96 -75 405 255 253 233 
-96 -75 405 255 251 239 
-95 -75 405 255 252 240 
-94 -75 405 255 254 248 
-94 -75 405 255 252 246 
-93 -75 405 252 255 246 
-93 -75 406 252 255 246 
-92 -75 406 255 255 250 
-91 -75 406 255 255 250 
-91 -76 407 255 254 250 
-90 -76 407 255 254 250 
-90 -76 408 255 253 244 
-89 -76 408 247 237 228 
-89 -76 409 204 197 187 
-88 -76 409 156 149 139 
-87 -76 409 136 137 132 
-87 -76 410 146 147 142 
-110 -75 410 140 116 114 
-109 -75 410 143 119 117 
-108 -75 409 161 118 99 
-108 -75 409 167 124 105 
-107 -75 409 184 133 102 
-106 -75 408 194 143 112 
-105 -75 408 203 154 121 
-105 -75 407 209 160 127 
-104 -75 406 216 166 129 
-103 -75 406 225 175 138 
-102 -75 406 230 186 147 
-101 -74 405 241 197 158 
-101 -74 405 252 214 177 
-100 -74 405 255 221 184 
-99 -74 405 255 227 193 
-99 -74 405 255 233 199 
-98 -74 405 253 236 208 
-98 -74 405 255 241 213 
-97 -74 405 255 249 227 
-96 -74 405 255 252 230 
-96 -74 405 255 255 240 
-95 -74 405 255 255 240 
-94 -74 405 255 253 244 
-94 -74 405 255 253 244 
-93 -74 405 254 254 244 
-92 -74 405 253 253 243 
-92 -75 406 255 250 244 
-91 -75 406 255 251 245 
-91 -75 406 255 251 247 
-90 -75 406 255 251 247 
-90 -75 407 255 252 247 
-89 -75 407 255 253 248 
-88 -75 407 246 243 236 
-88 -75 408 213 210 203 
-87 -75 408 159 159 149 
-87 -75 409 134 134 124 
-86 -75 410 142 147 140 
-86 -75 410 140 145 138 
-110 -75 411 137 117 116 
-109 -75 411 152 116 102 
-108 -75 410 153 117 103 
-107 -74 409 169 122 96 
-106 -74 408 180 133 107 
-105 -74 408 196 146 113 
-105 -74 407 204 154 121 
-104 -74 407 211 159 122 
-103 -74 406 219 167 130 
-102 -74 406 222 177 138 
-102 -74 406 231 186 147 
-101 -74 406 241 201 165 
-100 -74 406 251 211 175 
-100 -74 406 251 221 185 
-99 -74 405 255 228 192 
-98 -74 405 251 231 198 
-98 -74 405 254 234 201 
-97 -74 405 250 240 213 
-96 -74 405 255 245 218 
-96 -74 405 255 251 229 
-95 -74 405 255 254 232 
-94 -74 405 255 254 237 
-94 -74 405 255 253 236 
-93 -74 405 253 253 241 
-92 -74 405 253 253 241 
-92 -74 405 255 252 243 
-91 -74 405 255 252 243 
-91 -74 406 255 250 246 
-90 -74 406 255 250 246 
-89 -74 406 255 250 244 
-89 -74 407 255 251 245 
-88 -74 407 253 250 241 
-88 -74 407 251 248 239 
-87 -74 408 229 227 215 
-86 -74 408 176 174 162 
-86 -75 409 138 141 132 
-109 -74 411 143 116 109 
-108 -74 411 146 119 112 
-107 -74 410 158 117 99 
-106 -74 409 163 122 104 
-105 -74 408 186 133 102 
-105 -73 407 198 145 114 
-104 -73 407 205 149 116 
-103 -73 407 213 157 124 
-102 -73 406 217 167 132 
-102 -73 406 224 174 139 
-101 -73 406 231 187 152 
-100 -73 406 243 199 164 
-100 -73 406 247 211 175 
-99 -73 406 255 219 183 
-98 -73 405 250 224 191 
-98 -73 405 252 226 193 
-97 -73 405 249 232 202 
-96 -73 405 254 237 207 
-96 -73 405 255 245 218 
-95 -73 405 255 251 224 
-94 -73 405 255 255 230 
-94 -73 405 255 254 229 
-93 -73 404 253 254 240 
-92 -73 404 253 254 240 
-92 -73 405 255 253 241 
-91 -73 405 255 253 241 
-90 -73 405 255 251 245 
-90 -73 406 255 252 246 
-89 -73 406 255 252 246 
-89 -73 406 255 252 246 
-88 -74 407 255 255 244 
-88 -74 407 253 249 238 
-87 -74 407 249 247 234 
-86 -74 408 237 235 222 
-86 -74 408 190 190 178 
-85 -74 408 143 143 131 
-85 -74 409 139 140 132 
-108 -73 411 143 123 122 
-107 -73 410 156 120 108 
-107 -73 410 152 116 104 
-106 -73 409 171 121 98 
-105 -73 408 184 134 111 
-104 -73 407 197 138 106 
-103 -73 407 207 148 116 
-103 -73 407 213 159 125 
-102 -73 406 220 166 132 
-101 -73 406 225 177 141 
-100 -73 406 235 187 151 
-100 -73 406 239 199 163 
-99 -73 406 247 207 171 
-98 -73 406 248 215 182 
-98 -72 405 252 219 186 
-97 -72 405 250 227 196 
-96 -72 405 253 230 199 
-96 -73 405 254 238 212 
-95 -73 405 255 243 217 
-94 -73 405 255 248 221 
-94 -73 405 255 250 223 
-93 -72 404 251 253 232 
-92 -72 404 252 254 233 
-92 -73 405 254 252 239 
-91 -73 405 254 252 239 
-90 -73 405 255 252 243 
-90 -73 405 255 254 245 
-89 -73 406 255 254 245 
-89 -73 406 255 253 244 
-88 -73 407 255 251 239 
-88 -73 407 254 250 238 
-87 -73 407 254 252 237 
-86 -73 407 249 247 232 
-86 -73 407 244 241 226 
-85 -73 407 204 201 186 
-85 -73 408 156 152 141 
-84 -73 408 144 140 129 
-83 -73 409 142 148 148 
-83 -73 410 140 146 146 
-108 -73 412 138 120 120 
-108 -73 412 149 119 111 
-107 -73 411 147 117 109 
-106 -73 411 158 115 99 
-105 -72 409 164 121 105 
-104 -73 409 184 128 93 
-104 -72 408 196 140 105 
-103 -72 407 205 151 115 
-102 -72 407 212 158 122 
-101 -72 407 217 167 130 
-100 -72 406 225 175 138 
-100 -72 406 231 185 149 
-99 -72 406 240 194 158 
-98 -72 406 243 202 170 
-98 -72 405 252 211 179 
-97 -72 405 250 219 190 
-96 -72 405 252 221 192 
-96 -72 405 251 230 201 
-95 -72 405 255 235 206 
-94 -72 405 255 239 213 
-94 -72 405 255 244 218 
-93 -72 404 252 250 225 
-92 -72 404 253 251 226 
-91 -72 404 253 250 231 
-91 -72 405 253 250 231 
-90 -72 405 254 250 239 
-90 -72 405 255 251 240 
-89 -72 405 255 252 243 
-89 -72 406 255 251 242 
-88 -72 406 255 255 243 
-87 -72 406 255 255 243 
-87 -72 407 255 255 240 
-86 -72 407 255 253 238 
-86 -72 407 250 247 232 
-85 -72 407 242 239 224 
-85 -72 408 223 215 202 
-84 -72 408 169 161 148 
-83 -72 408 145 147 142 
-83 -73 409 142 144 139 
-108 -73 413 142 117 113 
-107 -72 412 146 121 117 
-106 -72 412 151 118 109 
-105 -72 410 148 115 106 
-105 -72 410 171 119 82 
-104 -72 409 183 131 94 
-103 -72 408 194 142 105 
-102 -72 407 203 151 114 
-101 -72 407 212 160 123 
-101 -72 407 218 166 129 
-100 -71 406 224 174 137 
-99 -71 406 233 183 146 
-98 -71 406 236 192 157 
-98 -71 405 248 204 169 
-97 -71 405 247 211 179 
-96 -71 405 250 214 182 
-96 -71 405 252 223 193 
-95 -71 405 255 228 198 
-94 -71 405 254 233 204 
-94 -71 405 255 238 209 
-93 -71 404 253 247 215 
-92 -71 404 255 249 217 
-91 -71 404 255 250 228 
-91 -71 405 255 251 229 
-90 -71 405 254 251 236 
-90 -71 405 254 251 236 
-89 -71 405 255 251 240 
-88 -71 405 255 251 240 
-88 -71 405 255 255 243 
-87 -71 406 255 253 240 
-87 -71 406 255 255 240 
-86 -71 406 254 252 237 
-85 -71 406 255 254 239 
-85 -72 407 255 253 238 
-84 -72 407 245 237 224 
-84 -72 408 227 219 206 
-83 -72 408 182 179 170 
-83 -72 409 151 148 139 
-82 -72 409 140 139 134 
-82 -72 411 146 145 140 
-107 -72 413 142 121 118 
-107 -72 413 146 120 119 
-106 -72 412 144 118 117 
-105 -71 410 157 111 78 
-104 -71 410 166 120 87 
-103 -71 409 180 130 97 
-102 -71 408 191 141 108 
-101 -71 407 203 149 115 
-101 -71 407 209 155 121 
-100 -71 407 216 163 129 
-99 -71 406 226 173 139 
-98 -71 406 228 180 144 
-98 -71 406 240 192 156 
-97 -71 406 241 201 166 
-96 -71 405 245 205 170 
-96 -71 405 249 216 181 
-95 -71 405 254 221 186 
-94 -71 405 252 226 191 
-93 -70 404 255 230 195 
-93 -70 404 251 239 201 
-92 -70 404 254 242 204 
-91 -70 404 252 245 217 
-91 -70 404 255 249 221 
-90 -71 405 255 251 232 
-90 -71 405 255 252 233 
-89 -71 405 255 251 239 
-88 -71 405 255 252 240 
-88 -71 405 255 255 243 
-87 -71 405 255 255 243 
-87 -71 406 255 255 241 
-86 -71 406 255 255 240 
-85 -71 406 255 255 240 
-85 -71 406 253 250 235 
-84 -71 407 255 248 235 
-84 -71 407 245 237 224 
-83 -71 408 234 225 210 
-83 -71 409 191 182 167 
-82 -71 409 153 146 136 
-106 -71 413 145 125 126 
-105 -71 412 150 106 81 
-104 -71 411 155 111 86 
-103 -71 410 168 118 91 
-102 -71 409 180 130 103 
-102 -70 408 192 136 109 
-101 -70 407 199 143 116 
-100 -70 407 209 154 123 
-99 -70 406 219 164 133 
-98 -70 406 219 169 136 
-98 -70 406 231 181 148 
-97 -70 406 235 191 156 
-97 -70 406 240 196 161 
-96 -70 405 243 207 171 
-95 -70 405 249 213 177 
-94 -70 405 248 218 182 
-94 -70 405 251 221 185 
-93 -70 404 246 228 188 
-92 -70 404 248 230 190 
-91 -70 404 247 236 206 
-91 -70 404 254 243 213 
-90 -70 405 255 248 229 
-90 -70 404 255 250 231 
-89 -70 405 255 250 236 
-88 -70 405 255 250 236 
-88 -70 405 255 255 241 
-87 -70 405 255 255 241 
-87 -70 405 255 255 241 
-86 -70 406 255 254 239 
-85 -70 406 255 255 241 
-85 -70 406 255 254 239 
-84 -70 406 254 248 232 
-84 -70 407 253 247 231 
-83 -70 407 249 236 217 
-83 -71 408 243 230 211 
-82 -71 408 196 186 174 
-106 -71 414 137 121 124 
-105 -71 413 155 127 116 
-105 -70 412 148 120 109 
-104 -70 411 161 116 93 
-103 -70 410 171 126 103 
-102 -70 409 187 128 96 
-101 -70 408 195 136 104 
-100 -70 407 206 150 113 
-99 -70 407 209 153 116 
-98 -69 406 213 165 129 
-98 -69 406 221 173 137 
-97 -69 406 226 181 148 
-97 -69 406 233 188 155 
-96 -69 405 243 200 168 
-95 -69 405 253 210 178 
-94 -69 405 253 212 182 
-94 -69 405 255 217 187 
-93 -69 404 249 215 187 
-92 -69 404 254 220 192 
-92 -69 404 253 230 199 
-91 -69 404 255 241 210 
-90 -69 404 255 247 221 
-90 -69 404 255 252 226 
-89 -69 404 255 254 234 
-88 -69 405 255 252 232 
-88 -69 405 251 252 236 
-87 -69 405 252 253 237 
-87 -69 405 252 255 239 
-86 -69 405 252 255 239 
-85 -69 406 250 253 236 
-85 -69 406 250 253 236 
-84 -69 406 254 252 237 
-83 -69 406 253 251 236 
-83 -70 407 247 242 220 
-82 -70 407 241 236 214 
-82 -70 408 237 226 206 
-81 -70 408 199 188 168 
-81 -70 408 156 146 136 
-105 -70 413 148 131 124 
-104 -70 412 149 113 97 
-103 -70 411 152 116 100 
-102 -69 410 178 124 98 
-101 -69 409 177 123 97 
-100 -69 408 192 138 104 
-99 -69 407 210 156 122 
-99 -69 407 210 160 125 
-98 -69 406 216 166 131 
-97 -69 406 217 171 137 
-97 -69 406 222 176 142 
-96 -69 405 232 188 153 
-95 -69 405 242 198 163 
-94 -69 405 248 203 170 
-94 -69 405 253 208 175 
-93 -68 404 247 212 180 
-92 -68 404 247 212 180 
-92 -68 404 244 217 187 
-91 -68 404 255 232 202 
-90 -68 404 255 242 216 
-90 -68 404 255 247 221 
-89 -68 404 255 250 229 
-88 -68 404 255 250 229 
-88 -69 405 253 252 234 
-87 -69 405 255 254 236 
-87 -69 405 253 255 239 
-86 -69 405 252 255 238 
-85 -69 405 251 254 237 
-85 -69 406 251 254 237 
-84 -69 406 253 254 240 
-83 -69 406 252 253 239 
-83 -69 406 253 251 230 
-82 -69 407 250 248 227 
-82 -69 407 240 229 207 
-81 -69 408 236 225 203 
-81 -69 408 202 188 175 
-80 -69 409 154 140 127 
-104 -69 414 157 130 121 
-103 -69 412 139 112 103 
-102 -69 411 152 106 90 
-101 -69 410 170 124 108 
-100 -68 408 184 130 104 
-100 -68 408 196 142 116 
-99 -68 407 205 152 120 
-98 -68 407 210 157 125 
-97 -68 406 211 161 124 
-97 -68 406 216 166 129 
-96 -68 405 224 176 136 
-95 -68 405 234 186 146 
-94 -68 405 241 196 157 
-94 -68 405 246 201 162 
-93 -68 404 247 206 174 
-92 -68 404 242 201 169 
-92 -68 404 238 205 172 
-91 -68 404 255 223 190 
-90 -68 404 255 235 207 
-90 -68 404 255 240 212 
-89 -68 404 255 244 220 
-88 -68 404 255 247 223 
-88 -68 405 255 250 230 
-87 -68 405 255 253 233 
-87 -68 405 254 255 239 
-86 -68 405 252 253 237 
-85 -68 405 251 253 239 
-85 -68 405 253 255 241 
-84 -68 405 253 255 242 
-83 -68 406 253 255 242 
-83 -68 406 255 254 234 
-82 -68 406 250 249 229 
-82 -68 407 251 240 218 
-81 -68 407 242 231 209 
-81 -69 408 236 221 202 
-80 -69 409 201 186 167 
-80 -69 410 150 143 135 
-104 -69 414 148 127 124 
-103 -69 413 143 122 119 
-102 -68 411 152 109 100 
-101 -68 410 156 113 104 
-101 -68 409 174 119 99 
-100 -68 408 182 127 107 
-99 -68 408 194 139 108 
-98 -68 407 204 149 118 
-97 -67 406 208 156 117 
-97 -67 406 214 162 123 
-96 -67 405 220 171 130 
-95 -67 405 227 178 137 
-94 -67 405 235 187 147 
-94 -67 405 239 191 151 
-93 -67 404 242 198 163 
-92 -67 404 241 197 162 
-92 -67 404 237 201 167 
-91 -67 404 253 217 183 
-90 -67 404 255 229 199 
-90 -67 404 255 233 203 
-89 -67 404 255 239 213 
-88 -67 404 255 243 217 
-88 -67 405 254 248 226 
-87 -67 405 255 251 229 
-87 -67 405 255 254 236 
-86 -67 405 254 253 235 
-85 -67 405 251 253 240 
-85 -67 405 253 255 242 
-84 -67 405 253 255 245 
-83 -67 405 252 255 244 
-83 -68 406 254 255 239 
-82 -68 406 254 255 239 
-82 -68 407 255 247 226 
-81 -68 407 242 234 213 
-80 -68 407 242 225 205 
-80 -68 408 237 220 200 
-79 -68 409 196 184 172 
-79 -68 410 148 136 124 
-103 -68 412 156 117 110 
-102 -68 411 151 112 105 
-101 -67 410 156 105 88 
-100 -67 409 175 124 107 
-99 -67 408 183 128 98 
-98 -67 408 195 140 110 
-97 -67 407 202 150 111 
-97 -67 406 209 157 118 
-96 -67 406 215 166 125 
-95 -67 405 220 171 130 
-94 -67 405 226 178 138 
-93 -66 404 230 182 142 
-93 -66 404 232 186 150 
-92 -66 404 240 194 158 
-92 -66 404 243 203 168 
-91 -66 404 255 215 180 
-90 -66 404 255 222 191 
-90 -67 404 255 227 196 
-89 -67 404 255 235 206 
-88 -67 404 255 240 211 
-88 -67 405 255 244 222 
-87 -67 405 255 248 226 
-87 -67 405 255 253 236 
-86 -67 405 255 252 235 
-85 -67 405 251 253 242 
-85 -67 405 253 255 244 
-84 -67 405 251 255 247 
-83 -67 405 250 255 246 
-83 -67 406 254 255 243 
-82 -67 406 255 255 244 
-82 -67 406 255 254 235 
-81 -67 407 253 248 229 
-80 -67 407 248 233 212 
-80 -67 408 245 230 209 
-79 -67 409 231 218 201 
-79 -67 409 186 173 156 
-103 -68 415 130 97 92 
-102 -67 413 147 114 109 
-101 -67 412 159 112 96 
-100 -67 411 163 116 100 
-99 -66 408 173 122 93 
-98 -66 407 185 134 105 
-97 -66 407 193 143 106 
-97 -66 407 199 149 112 
-96 -66 406 208 159 119 
-95 -66 405 213 164 124 
-94 -66 405 218 169 129 
-94 -66 405 223 174 134 
-93 -66 404 222 174 138 
-92 -66 404 235 187 151 
-92 -66 404 243 199 164 
-91 -66 404 254 210 175 
-90 -66 404 250 216 181 
-90 -66 404 255 222 187 
-89 -66 404 255 231 201 
-88 -66 404 255 238 208 
-88 -66 404 255 242 216 
-87 -66 404 255 247 221 
-86 -66 404 255 251 233 
-86 -66 404 255 251 233 
-85 -66 404 252 252 240 
-84 -66 404 254 254 242 
-84 -66 404 253 255 249 
-83 -66 404 251 254 247 
-83 -66 405 254 255 248 
-82 -66 405 254 255 248 
-81 -66 405 255 255 243 
-81 -66 406 254 252 239 
-80 -66 407 253 245 226 
-80 -66 407 249 241 222 
-80 -67 409 240 225 206 
-79 -67 409 229 214 195 
-78 -67 409 183 170 161 
-78 -67 410 150 137 128 
-102 -67 414 115 89 88 
-102 -67 414 153 115 102 
-101 -67 413 150 112 99 
-99 -66 410 161 114 88 
-98 -66 408 172 125 99 
-97 -66 407 184 135 102 
-97 -66 407 190 141 108 
-96 -65 406 201 149 112 
-95 -65 405 207 155 118 
-94 -65 405 212 156 119 
-94 -65 405 217 161 124 
-93 -65 404 211 163 127 
-92 -65 404 224 176 140 
-92 -65 404 232 186 152 
-91 -65 404 244 198 164 
-90 -65 404 246 208 172 
-90 -65 404 254 216 180 
-89 -65 404 254 225 193 
-88 -65 404 255 231 199 
-88 -65 404 253 236 208 
-87 -65 404 255 242 214 
-86 -65 404 255 247 229 
-86 -65 404 255 249 231 
-85 -65 404 255 252 241 
-84 -65 404 255 253 242 
-84 -65 404 253 254 246 
-83 -65 404 252 253 245 
-82 -65 404 255 255 248 
-82 -65 405 255 255 248 
-81 -65 405 255 255 246 
-81 -65 405 254 255 245 
-80 -66 406 255 249 233 
-80 -66 407 251 245 229 
-79 -66 408 252 235 215 
-79 -66 408 240 223 203 
-78 -66 408 221 202 187 
-78 -66 409 179 160 145 
-77 -66 410 151 143 140 
-77 -66 411 150 142 139 
-101 -66 414 150 116 104 
-100 -66 412 149 105 80 
-99 -65 409 160 116 91 
-98 -65 408 177 128 95 
-97 -65 407 184 135 102 
-96 -65 406 193 141 104 
-95 -65 406 199 147 110 
-94 -65 405 205 147 110 
-94 -65 405 209 151 114 
-93 -65 405 206 158 120 
-92 -65 404 214 166 128 
-92 -65 404 219 173 137 
-91 -65 404 234 188 152 
-90 -65 404 241 201 166 
-90 -65 404 252 212 177 
-89 -65 404 251 221 187 
-88 -65 404 255 225 191 
-88 -65 404 251 230 201 
-87 -65 404 255 236 207 
-86 -65 404 255 242 223 
-86 -65 404 255 245 226 
-85 -65 404 255 251 239 
-84 -65 404 255 253 241 
-84 -65 404 253 253 245 
-83 -65 404 253 253 245 
-82 -65 404 255 255 248 
-82 -65 404 255 255 248 
-81 -65 405 254 255 250 
-81 -65 405 254 255 250 
-80 -65 405 255 255 243 
-80 -65 406 255 251 239 
-79 -65 407 255 242 220 
-78 -65 407 252 234 212 
-78 -65 408 247 224 206 
-77 -65 408 218 195 177 
-77 -65 409 161 150 144 
-100 -65 413 158 119 104 
-99 -65 410 154 115 100 
-98 -65 409 165 117 95 
-97 -64 408 177 129 107 
-96 -64 407 191 135 108 
-95 -64 406 196 140 113 
-95 -64 406 203 147 114 
-94 -64 405 207 151 118 
-93 -64 405 207 152 121 
-92 -64 405 214 159 128 
-92 -64 405 219 168 137 
-91 -64 405 229 178 147 
-90 -64 404 239 193 159 
-90 -64 404 251 205 171 
-89 -64 404 255 216 181 
-88 -64 404 255 221 186 
-88 -64 404 252 225 195 
-87 -64 404 254 227 197 
-86 -64 404 249 237 211 
-86 -64 404 255 245 219 
-85 -64 404 255 254 234 
-84 -64 404 255 255 237 
-84 -64 404 255 255 243 
-83 -64 404 255 255 243 
-82 -64 404 254 254 244 
-82 -64 404 254 254 244 
-81 -64 404 253 254 246 
-80 -64 404 253 254 246 
-80 -64 405 252 255 244 
-80 -64 406 254 255 246 
-79 -64 406 255 252 235 
-78 -64 407 247 244 227 
-78 -64 407 251 232 215 
-77 -65 408 241 222 205 
-77 -65 408 202 182 171 
-76 -65 409 165 145 134 
-76 -65 410 145 144 139 
-100 -65 413 151 113 100 
-98 -64 411 162 115 95 
-98 -64 410 161 114 94 
-96 -64 408 179 125 99 
-95 -64 407 190 136 110 
-95 -64 407 196 141 110 
-94 -64 406 200 145 114 
-93 -64 406 204 149 118 
-93 -64 406 208 153 122 
-92 -64 406 213 160 128 
-91 -63 405 222 169 137 
-90 -63 405 232 182 149 
-90 -63 404 243 193 160 
-89 -63 404 250 204 170 
-88 -63 404 255 213 179 
-88 -63 404 250 217 186 
-87 -63 404 253 220 189 
-86 -63 404 248 231 205 
-86 -63 404 255 241 215 
-85 -63 404 255 251 231 
-84 -63 404 255 255 235 
-84 -63 404 255 255 240 
-83 -63 404 254 255 239 
-82 -63 404 253 253 243 
-82 -63 404 254 254 244 
-81 -63 404 253 255 244 
-80 -63 404 251 253 242 
-80 -63 405 250 253 242 
-79 -63 405 252 255 244 
-79 -64 406 255 253 238 
-78 -64 406 250 248 233 
-78 -64 407 255 242 224 
-77 -64 408 250 233 215 
-77 -64 408 237 216 199 
-76 -64 408 192 171 154 
-76 -64 409 148 141 131 
-100 -64 415 134 96 85 
-99 -64 412 152 106 90 
-98 -64 411 152 106 90 
-97 -63 409 164 112 90 
-96 -63 408 175 123 101 
-95 -63 407 187 133 105 
-94 -63 407 198 144 116 
-93 -63 406 200 146 112 
-93 -63 406 202 148 114 
-92 -63 406 206 152 118 
-91 -63 406 215 161 127 
-90 -63 405 226 172 136 
-90 -63 404 235 181 145 
-89 -63 404 242 192 157 
-88 -63 404 252 202 167 
-88 -63 404 247 206 174 
-87 -63 404 252 211 179 
-86 -63 404 249 223 196 
-86 -63 404 255 232 205 
-85 -63 404 255 244 222 
-84 -63 404 255 250 228 
-84 -63 404 255 254 235 
-83 -63 404 255 253 234 
-82 -63 404 253 253 245 
-82 -63 404 254 254 246 
-81 -63 404 254 254 244 
-80 -63 404 253 253 243 
-80 -63 405 252 254 243 
-79 -63 405 254 255 245 
-79 -63 405 254 254 242 
-78 -63 406 252 252 240 
-78 -63 406 255 247 229 
-77 -63 407 248 237 219 
-77 -63 407 255 230 208 
-76 -63 407 224 199 177 
-75 -63 408 175 159 144 
-75 -63 409 153 137 122 
-99 -63 413 131 88 72 
-98 -63 413 150 107 91 
-97 -63 411 157 109 87 
-96 -63 410 163 115 93 
-95 -63 408 180 129 102 
-94 -62 407 186 135 108 
-94 -62 407 195 139 106 
-93 -62 406 198 142 109 
-92 -62 406 202 146 111 
-91 -62 406 208 152 117 
-91 -62 406 217 163 125 
-90 -62 405 226 172 134 
-89 -62 404 233 181 144 
-88 -62 404 241 189 152 
-88 -62 404 240 196 161 
-87 -62 404 247 203 168 
-86 -62 404 248 214 186 
-86 -62 404 255 222 194 
-85 -62 404 253 233 209 
-84 -62 404 255 240 216 
-84 -62 404 255 248 226 
-83 -62 404 255 251 229 
-82 -62 404 252 252 242 
-82 -62 404 253 253 243 
-81 -62 404 254 254 242 
-81 -62 404 254 254 242 
-80 -62 405 253 255 244 
-79 -62 405 254 255 245 
-79 -62 405 254 255 247 
-78 -62 406 252 253 245 
-78 -62 406 255 252 233 
-77 -62 407 251 246 227 
-77 -62 407 253 229 201 
-76 -62 407 244 220 192 
-75 -63 408 216 191 169 
-75 -63 409 171 146 124 
-99 -63 415 137 95 83 
-98 -63 413 156 109 91 
-96 -62 411 159 112 94 
-96 -62 410 167 117 94 
-95 -62 409 178 128 105 
-94 -62 408 185 128 98 
-93 -62 407 193 136 106 
-92 -62 407 198 142 109 
-91 -62 406 201 145 112 
-91 -62 406 208 154 116 
-90 -61 405 217 163 125 
-89 -61 405 221 172 132 
-89 -61 405 228 179 139 
-88 -61 404 230 184 148 
-87 -61 404 238 192 156 
-86 -61 404 245 206 175 
-86 -61 404 253 214 183 
-85 -61 404 251 221 195 
-84 -61 404 255 228 202 
-84 -61 404 255 237 213 
-83 -61 404 255 241 217 
-82 -61 404 254 248 236 
-82 -61 404 255 250 238 
-81 -61 404 252 253 237 
-81 -61 405 252 253 237 
-80 -61 405 253 253 243 
-79 -61 405 253 253 243 
-79 -61 405 251 254 247 
-78 -62 405 251 254 247 
-78 -62 406 255 255 237 
-77 -62 406 253 255 234 
-77 -62 407 253 232 201 
-76 -62 407 248 227 196 
-75 -62 408 240 210 184 
-75 -62 408 192 162 136 
-74 -62 409 157 141 126 
-74 -62 409 155 139 124 
-97 -62 413 159 116 99 
-96 -62 411 160 114 91 
-95 -62 410 167 121 98 
-94 -61 409 173 119 91 
-93 -61 408 186 132 104 
-92 -61 407 195 140 109 
-91 -61 406 197 142 111 
-91 -61 406 203 149 113 
-90 -61 405 209 155 119 
-89 -61 405 213 164 124 
-89 -61 405 220 171 131 
-88 -61 405 222 174 136 
-87 -61 405 231 183 145 
-87 -61 405 239 196 162 
-86 -61 405 249 206 172 
-85 -61 404 250 213 184 
-84 -61 404 255 219 190 
-84 -61 404 255 225 200 
-83 -61 404 255 229 204 
-82 -61 404 254 238 222 
-82 -61 404 255 243 227 
-81 -61 404 253 252 232 
-81 -61 405 255 254 234 
-80 -61 405 255 253 241 
-79 -61 405 255 254 242 
-79 -61 405 254 254 244 
-78 -61 405 253 253 243 
-78 -61 406 255 255 236 
-77 -61 406 251 255 232 
-76 -61 406 255 241 209 
-76 -61 407 248 229 197 
-75 -61 407 253 218 190 
-75 -61 407 226 191 163 
-74 -61 408 178 153 133 
-97 -62 415 139 100 83 
-96 -61 412 156 114 92 
-95 -61 410 158 116 94 
-94 -61 409 162 115 89 
-93 -61 409 173 126 100 
-92 -61 408 185 134 103 
-92 -60 407 192 141 110 
-91 -60 406 202 146 113 
-90 -60 406 205 149 116 
-89 -60 405 208 154 118 
-89 -60 405 216 162 126 
-88 -60 405 218 166 129 
-87 -60 405 224 172 135 
-87 -60 405 231 183 147 
-86 -60 405 241 193 157 
-85 -60 405 245 202 170 
-84 -60 404 252 209 177 
-84 -60 405 253 216 189 
-83 -60 405 255 220 193 
-82 -60 404 255 229 206 
-82 -60 404 255 236 213 
-81 -60 405 253 249 224 
-81 -60 405 255 252 227 
-80 -60 405 255 253 238 
-79 -60 405 255 254 239 
-79 -60 405 255 252 240 
-78 -60 405 255 252 240 
-78 -60 406 255 255 234 
-77 -60 406 252 254 230 
-76 -60 406 255 246 213 
-76 -60 406 248 232 199 
-75 -61 407 255 217 188 
-75 -61 407 236 197 168 
-74 -61 407 197 163 138 
-96 -61 414 137 96 74 
-95 -60 411 152 111 89 
-94 -60 410 156 114 89 
-93 -60 409 162 120 95 
-92 -60 408 175 125 98 
-92 -60 408 185 135 108 
-91 -60 407 199 142 112 
-90 -60 407 201 144 114 
-89 -60 406 206 147 113 
-89 -60 406 213 154 120 
-88 -60 406 214 158 123 
-87 -59 405 218 162 127 
-87 -59 405 222 169 135 
-86 -59 405 231 178 144 
-85 -59 405 235 189 156 
-85 -60 405 243 197 164 
-84 -60 405 247 208 179 
-83 -60 405 253 214 185 
-83 -60 405 254 220 193 
-82 -60 405 255 227 200 
-81 -60 405 248 241 213 
-81 -60 405 252 245 217 
-80 -60 405 255 248 230 
-79 -60 405 255 251 233 
-79 -60 405 255 250 234 
-78 -60 405 255 249 233 
-77 -60 405 255 255 232 
-77 -60 406 253 255 229 
-76 -60 406 255 240 207 
-76 -60 406 243 227 194 
-75 -60 407 242 201 171 
-75 -60 408 210 169 139 
-95 -60 412 134 102 91 
-94 -60 411 154 111 94 
-94 -60 410 157 114 97 
-93 -59 409 163 118 95 
-92 -59 408 171 126 103 
-91 -59 407 185 136 104 
-90 -59 407 192 143 111 
-90 -59 407 200 146 110 
-89 -59 407 206 152 116 
-88 -59 407 209 153 116 
-87 -59 406 215 159 122 
-87 -59 406 218 164 126 
-86 -59 406 223 169 131 
-85 -59 406 230 182 146 
-85 -59 405 239 191 155 
-84 -59 405 244 202 164 
-83 -59 405 254 212 174 
-83 -59 405 251 217 189 
-82 -59 405 255 222 194 
-81 -59 405 255 233 210 
-81 -59 405 255 237 214 
-80 -59 405 255 245 225 
-79 -59 405 255 251 231 
-79 -59 405 255 255 234 
-78 -59 405 255 255 234 
-77 -59 405 255 247 222 
-77 -59 405 255 239 214 
-76 -59 406 250 214 188 
-76 -59 406 227 191 165 
-95 -59 412 132 93 78 
-94 -59 411 143 104 89 
-93 -59 410 156 114 90 
-92 -59 409 160 118 94 
-91 -59 408 173 124 92 
-91 -59 408 185 136 104 
-90 -59 408 197 144 110 
-89 -59 408 200 147 113 
-88 -58 407 203 149 115 
-88 -58 407 209 155 121 
-87 -58 407 211 158 124 
-86 -58 406 215 162 128 
-85 -58 406 221 171 134 
-85 -58 406 229 179 142 
-84 -58 405 238 190 150 
-83 -58 405 250 202 162 
-83 -58 405 242 205 176 
-82 -58 405 252 215 186 
-81 -58 405 252 222 194 
-81 -58 405 255 228 200 
-80 -58 405 255 240 214 
-79 -58 405 255 245 219 
-79 -58 405 255 248 221 
-78 -58 405 255 246 219 
-77 -58 405 255 234 203 
-77 -58 405 239 216 185 
-95 -59 414 117 81 69 
-94 -59 413 130 94 82 
-93 -58 411 148 107 87 
-92 -58 410 153 112 92 
-91 -58 409 160 113 83 
-91 -58 408 169 122 92 
-90 -58 408 184 134 101 
-89 -58 408 190 140 107 
-89 -58 408 194 141 110 
-88 -58 407 199 146 115 
-87 -58 407 203 150 119 
-86 -58 407 207 154 123 
-86 -58 406 215 163 126 
-85 -58 406 221 169 132 
-84 -58 406 230 177 135 
-84 -58 406 240 187 145 
-83 -58 406 240 196 167 
-82 -58 405 248 204 175 
-82 -58 406 248 213 183 
-81 -58 405 255 221 191 
-80 -58 405 255 227 197 
-79 -58 405 255 229 199 
-79 -58 405 255 234 204 
-78 -58 405 255 231 201 
-77 -58 405 244 209 177 
-77 -58 405 226 191 159 
-94 -58 413 131 95 79 
-93 -58 411 142 106 90 
-92 -58 410 153 111 86 
-91 -58 410 155 113 88 
-90 -57 409 169 120 90 
-89 -57 409 180 131 101 
-89 -57 409 184 131 99 
-88 -57 408 191 138 106 
-87 -57 408 196 141 110 
-87 -57 408 199 144 113 
-86 -57 407 208 152 117 
-85 -57 406 217 161 126 
-84 -57 406 223 170 130 
-84 -57 406 229 176 136 
-83 -57 406 233 183 150 
-82 -57 406 240 190 157 
-82 -57 406 245 202 168 
-81 -57 406 251 208 174 
-80 -57 406 251 215 183 
-80 -57 406 255 222 190 
-79 -57 406 255 216 186 
-78 -57 406 243 202 172 
-78 -57 406 232 189 157 
-93 -57 413 128 100 86 
-92 -57 411 148 115 96 
-91 -57 411 148 115 96 
-90 -57 410 153 111 86 
-90 -57 410 159 117 92 
-89 -57 409 176 123 92 
-88 -57 409 186 133 102 
-87 -57 409 196 137 105 
-87 -57 409 196 137 105 
-86 -57 408 198 142 107 
-85 -57 407 207 151 116 
-84 -57 407 213 161 124 
-84 -56 406 219 167 130 
-83 -56 406 223 169 131 
-82 -56 406 231 177 139 
-82 -56 406 235 187 151 
-81 -56 406 238 190 154 
-80 -56 406 249 204 173 
-80 -56 406 255 210 179 
-79 -56 405 235 188 158 
-78 -56 405 219 172 142 
-92 -57 413 143 123 112 
-91 -57 412 149 129 118 
-91 -56 411 146 117 99 
-90 -56 411 141 112 94 
-89 -56 410 155 109 85 
-88 -56 410 169 123 99 
-87 -56 409 187 132 101 
-87 -56 409 189 134 103 
-86 -56 408 192 138 104 
-85 -56 408 197 143 109 
-84 -56 407 202 152 119 
-84 -56 407 208 158 125 
-83 -56 406 216 161 120 
-82 -56 406 219 164 123 
-82 -56 406 223 173 136 
-81 -56 406 231 181 144 
-80 -56 406 240 190 157 
-80 -56 406 226 176 143 
-79 -56 406 210 159 130 
-91 -56 413 147 134 126 
-90 -56 412 140 127 119 
-89 -56 412 137 108 94 
-88 -56 410 142 113 99 
-88 -56 410 163 117 94 
-87 -55 409 172 126 103 
-86 -55 409 185 134 103 
-85 -55 409 190 139 108 
-85 -55 408 195 145 112 
-84 -55 407 201 151 118 
-83 -55 407 205 154 111 
-82 -55 406 203 152 109 
-82 -55 407 214 160 124 
-81 -55 406 226 172 136 
-80 -55 406 217 160 130 
-80 -55 407 200 143 113 
-89 -55 411 134 115 109 
-88 -55 411 143 106 88 
-87 -55 410 153 116 98 
-86 -55 410 174 127 99 
-85 -55 409 179 132 104 
-85 -55 409 188 135 101 
-84 -55 408 194 141 107 
-83 -55 408 194 146 106 
-82 -55 407 194 146 106 
-82 -55 407 207 153 119 
-81 -55 407 211 157 123 
-80 -55 407 193 132 103 
-80 -55 407 196 135 106 
-89 -55 412 137 139 134 
-88 -55 412 141 121 114 
-87 -55 412 131 111 104 
-87 -54 411 156 109 93 
-86 -54 410 168 121 105 
-85 -54 409 183 129 101 
-84 -54 408 186 132 104 
-83 -54 408 187 142 109 
-83 -54 408 190 145 112 
-82 -54 408 201 149 112 
-81 -54 408 189 137 100 
-81 -54 408 182 117 87 
-87 -54 412 151 117 105 
-86 -54 411 146 112 100 
-85 -54 410 165 115 92 
-84 -53 409 176 126 103 
-83 -53 408 170 127 93 
-83 -53 408 179 136 102 
-82 -53 408 183 135 97 
-86 -53 412 132 118 109 
-85 -53 411 147 103 90 
-84 -53 410 149 105 92 
-84 -53 409 169 119 92 
-83 -53 409 174 124 97 
-82 -53 409 165 115 82 
-82 -53 409 144 94 61 
-86 -53 413 148 124 120 
-85 -53 412 137 113 109 
-84 -52 411 148 96 82 
-83 -52 411 156 104 90 
-84 -52 413 150 119 117 
-83 -52 412 133 102 100 
-83 -52 411 120 83 67 
