ply
format ascii 1.0
comment Created by CloudCompare v2.10.1 (Zephyrus)
comment Created 2020-05-06 7:45 PM
obj_info Generated by CloudCompare!
element vertex 1933
property float x
property float y
property float z
property uchar red
property uchar green
property uchar blue
end_header
-62 114 401 203 146 103 
-62 114 401 193 136 93 
-54 115 402 144 95 54 
-63 115 401 168 108 71 
-62 115 400 178 119 75 
-54 115 400 176 131 92 
-54 115 401 165 120 81 
-53 115 402 65 47 35 
-63 115 400 204 141 100 
-62 115 399 212 149 105 
-61 115 399 209 146 102 
-60 115 399 201 144 101 
-60 115 398 211 154 111 
-59 115 398 210 156 118 
-58 115 398 205 151 113 
-58 115 397 180 122 84 
-57 115 397 207 149 111 
-56 115 397 211 158 124 
-56 115 397 198 145 111 
-54 115 399 190 144 108 
-54 115 400 188 142 106 
-53 116 401 103 80 64 
-63 116 401 209 146 102 
-63 116 400 220 157 113 
-62 116 399 235 171 123 
-61 115 398 238 174 126 
-60 115 398 233 174 130 
-60 115 398 245 186 142 
-59 115 398 243 187 150 
-58 115 398 241 185 148 
-58 115 397 241 184 141 
-57 115 397 246 189 146 
-56 115 397 241 189 152 
-56 115 397 220 168 131 
-54 116 399 200 154 118 
-54 116 400 197 151 115 
-53 116 401 143 115 93 
-63 117 401 207 144 100 
-63 117 400 214 151 107 
-62 116 399 224 160 112 
-61 116 398 235 171 123 
-60 116 398 235 176 132 
-60 116 398 242 183 139 
-59 116 398 240 185 146 
-58 116 397 240 185 146 
-58 116 397 243 186 141 
-57 116 397 241 184 139 
-56 116 397 236 182 144 
-56 116 397 219 165 127 
-55 116 398 209 165 120 
-55 116 398 211 167 122 
-54 116 399 201 156 117 
-54 117 400 196 151 112 
-53 117 400 173 139 111 
-63 118 401 205 144 97 
-63 117 400 217 156 109 
-62 117 399 229 166 115 
-61 117 398 236 173 122 
-60 117 398 232 174 128 
-60 117 398 234 176 130 
-59 117 398 234 179 138 
-58 116 397 238 183 142 
-58 116 397 233 179 132 
-57 116 397 234 180 133 
-56 116 397 235 182 142 
-56 116 397 226 173 133 
-55 117 398 213 169 122 
-55 117 398 206 162 115 
-54 117 399 205 160 121 
-54 117 400 199 154 115 
-53 117 400 187 151 119 
-52 118 401 108 72 40 
-63 118 400 211 149 98 
-62 118 399 216 154 103 
-62 118 399 225 164 110 
-61 117 398 231 170 116 
-60 117 398 229 175 128 
-60 117 398 232 178 131 
-59 117 397 235 177 129 
-58 117 397 235 177 129 
-58 117 397 234 180 133 
-57 117 397 235 181 134 
-56 117 397 235 177 140 
-56 117 397 228 170 133 
-55 117 397 217 165 126 
-55 117 398 214 162 123 
-54 118 399 207 158 125 
-54 118 400 199 150 117 
-53 118 400 187 149 113 
-52 118 401 151 113 77 
-64 119 400 202 139 96 
-63 118 399 213 151 100 
-62 118 399 218 156 105 
-62 118 398 226 165 111 
-61 118 398 230 169 115 
-60 118 398 226 172 126 
-59 118 397 231 177 131 
-59 118 397 234 176 128 
-58 118 397 233 175 127 
-58 118 397 233 179 132 
-57 118 397 234 180 133 
-56 118 397 234 176 138 
-56 118 397 230 172 134 
-55 118 397 220 167 125 
-55 118 398 214 161 119 
-54 118 399 207 159 121 
-53 119 400 207 159 121 
-53 119 400 201 161 125 
-52 119 401 169 129 93 
-64 119 400 205 141 97 
-63 119 399 213 150 99 
-62 119 399 220 157 106 
-62 119 398 228 165 112 
-61 119 398 231 168 115 
-60 119 398 227 170 125 
-59 118 397 231 174 129 
-59 118 397 232 174 128 
-58 118 397 233 175 129 
-58 118 397 232 179 129 
-57 118 397 233 180 130 
-56 118 397 233 176 133 
-56 118 397 231 174 131 
-55 118 397 225 173 125 
-55 119 398 217 165 117 
-54 119 399 207 158 117 
-53 119 399 207 158 117 
-53 119 400 206 162 125 
-52 119 400 188 144 107 
-52 120 402 71 53 49 
-64 120 400 207 138 96 
-63 120 399 211 147 99 
-62 120 399 219 155 107 
-62 119 398 229 166 115 
-61 119 398 232 169 118 
-60 119 397 229 168 124 
-59 119 397 233 172 128 
-59 119 397 232 174 126 
-58 119 397 233 175 127 
-58 119 397 232 179 127 
-57 119 397 232 179 127 
-56 119 397 233 176 131 
-56 119 397 231 174 129 
-55 119 397 227 174 124 
-55 119 398 224 171 121 
-54 120 399 209 158 115 
-53 120 399 210 159 116 
-53 120 399 207 162 120 
-52 120 400 202 157 115 
-52 121 402 98 76 65 
-51 121 402 40 18 7 
-64 120 400 209 138 94 
-63 120 399 209 147 100 
-62 120 398 218 156 109 
-62 120 398 227 163 115 
-61 120 398 232 168 120 
-60 120 397 231 168 124 
-59 120 397 231 168 124 
-59 120 397 231 171 119 
-58 120 397 234 174 122 
-58 120 397 229 178 121 
-57 120 397 230 179 122 
-56 120 397 233 175 129 
-56 120 398 230 172 126 
-55 120 398 229 176 126 
-55 120 398 228 175 125 
-54 120 399 210 157 115 
-53 120 399 213 160 118 
-53 121 400 209 161 115 
-52 121 400 206 158 112 
-52 121 402 127 100 81 
-51 121 402 60 33 14 
-64 121 400 209 138 92 
-63 121 399 208 147 100 
-62 120 398 216 155 108 
-61 120 397 228 164 116 
-61 120 397 231 167 119 
-60 120 397 230 166 120 
-59 120 397 230 166 120 
-59 120 396 229 169 117 
-58 120 396 231 171 119 
-58 120 397 226 175 118 
-57 120 397 228 177 120 
-56 120 397 232 174 128 
-56 120 397 227 169 123 
-55 121 398 228 172 123 
-55 121 399 230 174 125 
-54 121 399 216 162 118 
-53 121 399 216 162 118 
-53 121 400 205 153 106 
-52 121 401 199 147 100 
-52 121 401 169 137 114 
-51 122 402 144 112 89 
-65 122 401 183 117 93 
-64 122 400 201 131 82 
-64 121 399 206 136 87 
-63 121 398 206 145 98 
-62 121 398 217 156 109 
-61 121 397 231 165 115 
-61 121 397 231 165 115 
-60 121 397 231 164 119 
-59 121 397 231 164 119 
-59 121 397 227 167 117 
-58 121 396 228 168 118 
-58 121 397 223 172 119 
-57 121 397 225 174 121 
-56 121 397 231 173 127 
-56 121 397 227 169 123 
-55 121 398 232 177 123 
-55 121 399 226 171 117 
-54 121 399 214 160 113 
-53 121 399 215 161 114 
-53 122 400 212 155 110 
-52 122 401 197 140 95 
-52 122 401 178 141 125 
-51 122 402 180 143 127 
-64 122 400 202 130 80 
-64 122 399 204 132 82 
-63 122 398 204 144 94 
-62 122 398 219 159 109 
-61 121 397 233 165 116 
-61 121 397 229 161 112 
-60 121 397 231 162 120 
-59 121 397 232 163 121 
-59 121 397 227 164 120 
-58 121 397 227 164 120 
-58 121 397 222 170 120 
-57 121 397 224 172 122 
-56 121 397 231 173 125 
-56 122 397 229 171 123 
-55 122 398 233 177 120 
-55 122 399 228 172 115 
-54 122 399 223 167 118 
-53 122 399 216 160 111 
-53 122 400 212 155 110 
-52 123 401 196 139 94 
-52 123 402 190 150 142 
-64 123 400 200 127 82 
-64 123 399 206 133 88 
-63 122 398 207 141 89 
-62 122 398 223 157 105 
-62 122 398 226 162 114 
-61 122 397 225 161 113 
-60 122 397 224 163 119 
-59 122 397 226 165 121 
-59 122 397 227 167 115 
-58 122 397 226 166 114 
-58 122 397 229 165 117 
-57 122 397 231 167 119 
-56 122 398 230 168 119 
-56 122 398 230 168 119 
-55 122 398 228 170 122 
-55 123 399 223 165 117 
-54 123 399 223 163 111 
-53 123 399 217 157 105 
-53 123 400 209 155 108 
-52 123 401 195 141 94 
-52 124 402 187 148 131 
-64 124 400 197 124 79 
-64 124 400 207 134 89 
-63 123 399 210 143 91 
-62 123 398 222 155 103 
-62 123 398 225 162 111 
-61 123 397 227 164 113 
-60 123 397 224 163 118 
-59 123 397 226 165 120 
-59 123 397 226 166 114 
-58 123 397 225 165 113 
-58 123 397 229 165 117 
-57 123 397 231 167 119 
-56 123 397 230 166 118 
-56 123 398 229 165 117 
-55 123 398 226 168 120 
-55 123 399 223 165 117 
-54 123 399 222 160 111 
-53 123 399 217 155 106 
-53 124 400 211 155 108 
-52 124 401 196 140 93 
-52 124 402 184 142 126 
-64 124 399 196 122 75 
-64 124 399 210 136 89 
-63 124 398 214 147 94 
-62 124 398 220 153 100 
-62 124 398 225 159 107 
-61 123 397 230 164 112 
-60 123 397 226 163 119 
-59 123 397 228 165 121 
-59 123 397 226 166 114 
-58 123 397 224 164 112 
-58 123 397 230 164 116 
-57 123 397 232 166 118 
-56 123 397 230 166 118 
-56 124 398 229 165 117 
-55 124 398 228 167 120 
-55 124 399 226 165 118 
-54 124 399 222 160 111 
-53 124 400 216 154 105 
-53 125 401 210 153 108 
-52 125 401 195 138 93 
-52 125 402 180 138 122 
-64 125 400 195 121 74 
-64 125 399 210 136 89 
-63 124 398 215 148 95 
-62 124 398 221 154 101 
-62 124 398 225 159 107 
-61 124 397 228 162 110 
-60 124 397 226 163 119 
-59 124 397 229 166 122 
-59 124 397 228 167 113 
-58 124 397 225 164 110 
-58 124 397 229 163 115 
-57 124 397 231 165 117 
-56 124 397 232 166 116 
-56 124 398 231 165 115 
-55 124 398 227 166 119 
-55 125 399 227 166 119 
-54 125 399 224 162 113 
-53 125 400 217 155 106 
-53 125 401 209 152 107 
-52 125 401 194 137 92 
-52 126 402 180 136 123 
-64 126 400 195 122 77 
-64 125 399 209 136 91 
-63 125 399 215 148 96 
-62 125 399 223 156 104 
-62 125 398 227 161 109 
-61 125 397 227 161 109 
-60 125 397 225 163 116 
-59 125 397 227 165 118 
-59 125 397 228 168 116 
-58 124 396 226 166 114 
-58 125 397 230 164 116 
-57 125 397 232 166 118 
-56 125 397 232 166 116 
-56 125 397 230 164 114 
-55 125 398 226 166 116 
-55 125 399 228 168 118 
-54 125 399 225 163 114 
-53 126 400 219 157 108 
-53 126 401 208 151 106 
-52 126 401 195 138 93 
-52 126 402 180 137 121 
-65 126 400 193 124 83 
-64 126 400 198 125 80 
-64 126 399 210 137 92 
-63 126 399 215 149 97 
-62 126 399 225 159 107 
-61 126 398 228 162 110 
-61 126 398 227 161 109 
-60 125 397 226 162 118 
-59 125 397 227 163 119 
-59 125 397 227 165 114 
-58 125 397 227 165 114 
-57 125 396 229 163 115 
-57 125 397 231 165 117 
-56 125 397 232 166 116 
-56 125 397 228 162 112 
-55 126 398 227 165 116 
-55 126 399 228 166 117 
-54 126 399 223 161 112 
-53 126 400 218 156 107 
-53 127 401 207 150 105 
-52 127 401 194 137 92 
-52 127 402 179 136 120 
-64 127 400 200 127 82 
-64 126 399 212 139 94 
-63 126 399 217 151 99 
-62 127 399 225 159 107 
-61 126 398 226 160 108 
-61 126 397 228 162 110 
-60 126 397 226 162 118 
-59 126 397 226 162 118 
-59 126 397 225 163 112 
-58 126 397 225 163 112 
-58 126 397 227 160 115 
-57 126 397 229 162 117 
-56 126 397 231 163 114 
-56 126 398 229 161 112 
-55 126 398 226 164 115 
-54 126 398 228 166 117 
-54 127 399 221 157 109 
-53 127 400 218 154 106 
-53 127 401 207 148 104 
-52 127 401 195 136 92 
-52 128 402 179 133 118 
-65 127 400 196 125 83 
-64 127 400 201 128 83 
-64 127 399 213 140 95 
-63 127 399 217 151 99 
-62 127 398 224 158 106 
-61 127 398 224 158 106 
-61 127 397 230 164 112 
-60 127 397 227 160 117 
-59 127 397 228 161 118 
-59 127 397 225 163 114 
-58 127 397 224 162 113 
-58 127 397 227 159 114 
-57 127 397 228 160 115 
-56 127 397 229 161 112 
-56 127 397 228 160 111 
-55 127 398 225 161 113 
-54 127 398 228 164 116 
-54 127 399 221 157 109 
-53 128 400 218 154 106 
-53 128 401 208 149 105 
-52 128 402 196 137 93 
-52 128 402 179 133 117 
-65 128 400 189 129 92 
-64 128 400 202 131 89 
-64 128 399 209 138 96 
-63 128 399 219 151 104 
-62 127 398 222 154 107 
-61 127 398 220 156 108 
-61 127 398 230 166 118 
-60 127 397 231 163 118 
-59 127 397 231 163 118 
-59 127 397 230 161 120 
-58 127 397 229 160 119 
-58 127 397 226 158 121 
-57 127 397 224 156 119 
-56 127 397 227 159 112 
-56 127 397 228 160 113 
-55 128 398 230 160 111 
-54 128 398 235 165 116 
-54 128 399 221 155 107 
-53 128 400 220 154 106 
-53 128 401 211 155 106 
-52 129 402 198 142 93 
-52 129 403 178 132 106 
-65 129 400 187 127 90 
-64 129 400 202 131 89 
-64 129 400 211 140 98 
-63 128 399 219 151 104 
-62 128 399 222 154 107 
-61 128 398 220 156 108 
-61 128 398 228 164 116 
-60 128 398 229 161 114 
-59 128 397 231 163 116 
-59 128 397 230 161 119 
-58 128 397 228 159 117 
-57 128 397 226 157 118 
-57 128 397 225 156 117 
-56 128 397 228 160 111 
-56 128 397 231 163 114 
-55 128 398 230 160 111 
-54 128 398 234 164 115 
-54 128 399 223 155 108 
-53 129 400 222 154 107 
-53 129 401 211 153 105 
-52 129 402 199 141 93 
-52 130 403 182 132 105 
-51 130 403 223 173 146 
-65 129 400 189 127 88 
-64 129 400 201 133 88 
-64 129 399 211 143 98 
-63 129 399 216 150 100 
-62 129 398 220 154 104 
-61 129 398 224 160 112 
-61 129 398 228 164 116 
-60 129 398 228 162 114 
-59 128 397 230 164 116 
-59 128 397 228 160 115 
-58 128 397 224 156 111 
-57 128 397 226 154 114 
-57 128 397 226 154 114 
-56 128 397 228 161 109 
-56 128 397 232 165 113 
-55 129 398 231 163 114 
-54 129 398 232 164 115 
-54 129 399 223 157 109 
-53 129 400 221 155 107 
-53 130 401 208 150 100 
-52 130 402 197 139 89 
-52 130 403 183 133 106 
-51 130 403 224 174 147 
-65 130 400 190 128 89 
-64 130 399 205 138 93 
-64 130 399 214 147 102 
-63 129 398 214 151 98 
-62 129 398 220 157 104 
-61 129 398 228 167 113 
-61 129 398 226 165 111 
-60 129 398 227 167 117 
-59 129 397 228 168 118 
-59 129 397 224 161 110 
-58 129 397 220 157 106 
-57 129 397 224 157 112 
-57 129 397 225 158 113 
-56 129 397 226 163 110 
-56 129 398 227 164 111 
-55 129 398 227 164 113 
-55 130 399 230 167 116 
-54 130 399 222 158 110 
-53 130 400 219 155 107 
-53 130 401 204 151 99 
-52 131 402 193 140 88 
-52 131 403 180 135 106 
-51 131 403 222 177 148 
-65 131 400 193 131 92 
-64 130 399 208 144 98 
-64 130 399 215 151 105 
-63 130 398 217 155 104 
-62 130 398 225 163 112 
-61 130 398 230 170 118 
-61 130 397 221 161 109 
-60 130 397 227 172 118 
-59 130 397 228 173 119 
-59 130 397 226 164 113 
-58 130 397 224 162 111 
-57 130 397 227 163 117 
-57 130 397 227 163 117 
-56 130 397 225 164 110 
-56 130 398 224 163 109 
-55 130 398 224 162 113 
-55 130 399 230 168 119 
-54 131 400 221 159 110 
-54 131 401 218 156 107 
-53 131 401 205 153 103 
-52 131 402 195 143 93 
-52 132 403 181 137 110 
-51 132 403 222 178 151 
-65 131 400 194 135 95 
-64 131 399 210 147 103 
-64 131 399 216 153 109 
-63 131 398 220 160 110 
-62 131 398 228 168 118 
-61 131 398 228 171 118 
-61 131 398 219 162 109 
-60 130 397 227 172 118 
-59 130 397 228 173 119 
-59 130 397 228 167 113 
-58 130 397 226 165 111 
-57 130 397 230 166 120 
-57 130 397 228 164 118 
-56 130 397 224 164 112 
-56 131 398 223 163 111 
-55 131 398 223 162 115 
-55 131 399 230 169 122 
-54 131 400 222 160 113 
-53 131 400 218 156 109 
-53 132 401 205 153 105 
-52 132 402 197 145 97 
-52 132 403 182 140 118 
-65 132 400 197 135 96 
-64 132 400 211 148 104 
-64 132 399 218 155 111 
-63 132 399 222 164 114 
-62 131 398 229 171 121 
-61 131 398 228 171 118 
-61 131 398 222 165 112 
-60 131 397 227 170 115 
-59 131 397 229 172 117 
-59 131 397 227 166 112 
-58 131 397 227 166 112 
-57 131 397 230 168 121 
-57 131 397 226 164 117 
-56 131 398 221 163 113 
-56 131 398 222 164 114 
-55 131 398 224 163 116 
-55 132 399 231 170 123 
-54 132 400 224 161 117 
-53 132 400 218 155 111 
-53 132 401 202 149 105 
-52 133 402 196 143 99 
-52 133 403 181 143 124 
-65 133 401 197 135 94 
-64 133 400 212 150 103 
-64 133 400 221 159 112 
-63 132 399 226 169 116 
-62 132 399 230 173 120 
-61 132 398 227 170 115 
-61 132 398 227 170 115 
-60 132 397 227 172 116 
-59 132 397 229 174 118 
-59 132 397 229 168 114 
-58 132 397 229 168 114 
-57 132 397 233 170 126 
-57 132 397 228 165 121 
-56 132 398 220 164 115 
-56 132 398 223 167 118 
-55 132 399 223 165 119 
-55 132 399 230 172 126 
-54 133 400 227 164 120 
-54 133 401 219 156 112 
-53 133 401 198 147 104 
-52 133 402 193 142 99 
-52 134 403 180 143 127 
-65 133 401 197 135 98 
-64 133 400 212 151 104 
-64 133 400 219 158 111 
-63 133 399 228 165 122 
-62 133 399 230 167 124 
-62 133 399 223 167 120 
-61 133 398 226 170 123 
-60 132 397 229 167 116 
-59 132 397 231 169 118 
-59 132 397 227 173 126 
-58 132 397 226 172 125 
-57 132 397 228 170 122 
-57 132 397 223 165 117 
-56 133 398 225 166 122 
-56 133 398 226 167 123 
-55 133 399 224 168 121 
-55 133 400 226 170 123 
-54 133 400 218 166 116 
-54 134 401 208 156 106 
-53 134 402 208 147 100 
-52 134 403 194 133 86 
-52 134 403 184 151 142 
-65 134 401 199 137 98 
-64 134 400 211 150 103 
-64 134 400 216 155 108 
-63 134 400 223 160 116 
-62 133 399 225 162 118 
-62 133 399 221 163 115 
-61 133 398 225 167 119 
-60 133 398 230 168 117 
-60 133 398 233 171 120 
-59 133 397 229 176 126 
-58 133 397 226 173 123 
-57 133 397 229 171 121 
-57 133 398 224 166 116 
-56 133 398 227 169 123 
-56 133 398 230 172 126 
-55 134 399 226 168 120 
-55 134 400 225 167 119 
-54 134 400 214 162 112 
-53 134 400 205 153 103 
-53 135 402 205 144 97 
-52 135 403 192 131 84 
-52 135 403 185 155 145 
-65 135 401 200 138 97 
-64 134 400 209 148 101 
-64 134 400 210 149 102 
-63 134 400 216 153 109 
-62 134 400 220 157 113 
-62 134 399 219 161 111 
-61 134 398 223 165 115 
-60 134 398 229 167 118 
-60 134 398 232 170 121 
-59 134 398 227 174 124 
-58 133 397 224 171 121 
-57 133 397 227 170 117 
-57 134 398 224 167 114 
-56 134 398 228 170 124 
-56 134 398 230 172 126 
-55 134 399 226 168 120 
-55 134 400 221 163 115 
-54 134 400 211 158 108 
-54 135 401 204 151 101 
-53 135 402 204 143 96 
-52 136 403 192 131 84 
-52 136 404 189 162 153 
-65 135 401 198 136 95 
-64 135 401 202 144 96 
-64 135 400 206 148 100 
-63 135 400 214 151 107 
-62 135 399 216 153 109 
-62 135 399 218 160 110 
-61 135 399 221 163 113 
-60 134 398 227 166 119 
-60 134 398 229 168 121 
-59 134 398 224 171 121 
-58 134 397 221 168 118 
-57 134 397 225 168 115 
-57 134 398 223 166 113 
-56 134 398 227 169 121 
-56 135 399 227 169 121 
-55 135 399 224 166 118 
-55 135 400 219 161 113 
-54 135 400 210 154 105 
-54 135 401 206 150 101 
-53 136 402 202 144 98 
-52 136 403 190 132 86 
-52 136 404 189 169 162 
-65 136 401 192 130 89 
-64 136 401 200 142 94 
-64 136 401 209 151 103 
-63 136 400 216 153 109 
-62 135 399 216 153 109 
-62 135 399 217 160 107 
-61 135 399 220 163 110 
-60 135 398 225 164 119 
-60 135 398 225 164 119 
-59 135 398 223 167 118 
-58 135 398 222 166 117 
-58 135 398 225 168 113 
-57 135 398 224 167 112 
-56 135 398 226 170 121 
-56 135 399 224 168 119 
-55 136 400 226 165 118 
-55 136 400 222 161 114 
-54 136 400 212 154 106 
-54 136 401 208 150 102 
-53 136 402 201 144 101 
-52 137 403 189 132 89 
-52 137 404 189 174 171 
-65 137 401 190 128 87 
-64 137 401 201 140 93 
-64 136 400 211 150 103 
-63 136 400 215 152 108 
-62 136 399 215 152 108 
-62 136 399 216 159 106 
-61 136 399 221 164 111 
-60 136 398 221 158 114 
-59 136 398 221 158 114 
-59 136 398 221 163 113 
-58 136 398 221 163 113 
-58 136 398 224 165 109 
-57 136 398 224 165 109 
-56 136 398 225 169 120 
-56 136 399 222 166 117 
-55 136 400 225 164 117 
-55 136 400 221 160 113 
-54 137 401 216 155 110 
-54 137 402 211 150 105 
-53 137 402 199 144 103 
-52 137 403 188 133 92 
-52 138 404 188 179 180 
-65 137 401 192 129 86 
-64 137 401 204 142 93 
-64 137 400 210 148 99 
-63 137 400 214 150 104 
-62 137 399 217 153 107 
-62 137 399 219 159 107 
-61 137 399 222 162 110 
-60 137 399 219 156 112 
-59 136 398 218 155 111 
-59 136 398 218 161 108 
-58 136 398 219 162 109 
-58 136 398 223 164 106 
-57 137 399 223 164 106 
-56 137 399 223 167 116 
-56 137 399 221 165 114 
-55 137 400 226 164 117 
-55 137 400 219 157 110 
-54 137 401 217 154 110 
-54 138 402 212 149 105 
-53 138 403 198 143 104 
-53 138 404 190 135 96 
-52 138 404 187 185 186 
-65 138 401 195 130 88 
-64 138 401 207 144 93 
-64 138 401 209 146 95 
-63 138 400 215 148 103 
-62 137 399 221 154 109 
-62 137 399 218 158 106 
-61 137 399 220 160 108 
-60 137 399 220 158 111 
-60 137 399 220 158 111 
-59 137 399 220 160 108 
-58 137 399 221 161 109 
-58 137 399 225 166 108 
-57 137 399 224 165 107 
-56 137 399 224 168 117 
-56 137 399 222 166 115 
-55 138 400 226 164 115 
-55 138 400 215 153 104 
-54 138 401 215 152 108 
-54 138 402 210 147 103 
-53 139 403 195 142 102 
-53 139 404 190 137 97 
-65 139 402 199 134 92 
-64 139 401 204 142 93 
-64 139 401 207 145 96 
-63 138 400 215 149 101 
-62 138 399 220 154 106 
-62 138 399 218 157 103 
-61 138 399 218 157 103 
-60 138 399 215 160 106 
-60 138 399 219 164 110 
-59 138 399 220 158 107 
-58 138 399 218 156 105 
-58 138 399 227 162 108 
-57 138 399 231 166 112 
-56 138 399 223 167 118 
-56 138 399 224 168 119 
-55 138 400 221 168 114 
-55 138 400 208 155 101 
-54 139 401 211 156 102 
-54 139 402 210 155 101 
-53 139 403 196 141 100 
-53 140 404 195 140 99 
-65 139 401 198 135 92 
-64 139 401 204 142 93 
-64 139 401 210 148 99 
-63 139 400 216 152 104 
-62 139 399 216 152 104 
-62 139 399 216 155 101 
-61 139 399 220 159 105 
-60 139 399 216 161 107 
-60 139 399 219 164 110 
-59 139 399 221 161 109 
-58 139 399 221 161 109 
-58 139 399 230 165 111 
-57 139 399 232 167 113 
-56 139 399 223 167 118 
-56 139 400 224 168 119 
-55 139 400 222 167 113 
-55 139 401 213 158 104 
-54 140 402 209 151 101 
-54 140 402 205 147 97 
-53 140 403 201 146 105 
-53 140 404 203 148 107 
-52 141 405 192 187 191 
-65 140 401 197 134 91 
-64 139 400 204 144 94 
-64 139 400 213 153 103 
-63 139 400 218 156 107 
-62 139 399 213 151 102 
-62 139 399 213 153 99 
-61 139 399 220 160 106 
-60 139 399 219 162 109 
-60 139 399 222 165 112 
-59 139 399 225 165 113 
-58 139 399 228 168 116 
-58 139 399 233 170 116 
-57 139 399 232 169 115 
-56 139 399 224 168 117 
-56 140 400 224 168 117 
-55 140 400 221 166 112 
-55 140 401 210 155 101 
-54 140 402 211 153 103 
-54 141 403 205 147 97 
-53 141 403 195 142 102 
-53 141 404 199 146 106 
-65 141 402 196 133 90 
-64 140 401 204 144 92 
-64 140 400 214 154 102 
-63 140 400 218 156 107 
-62 140 400 213 151 102 
-62 140 399 213 153 99 
-61 140 399 220 160 106 
-60 140 399 223 163 109 
-60 140 399 226 166 112 
-59 140 399 224 167 114 
-58 140 399 225 168 115 
-58 140 399 232 171 117 
-57 139 398 232 171 117 
-56 140 399 224 168 117 
-56 140 400 222 166 115 
-55 140 400 221 164 111 
-55 141 401 214 157 104 
-54 141 402 213 155 107 
-54 141 403 203 145 97 
-53 142 404 191 138 98 
-53 142 405 191 138 98 
-65 141 402 195 132 89 
-64 141 401 203 141 90 
-64 141 400 211 149 98 
-63 141 400 217 154 103 
-62 141 400 217 154 103 
-62 140 399 218 158 104 
-61 140 399 221 161 107 
-60 140 399 222 162 108 
-60 140 399 226 166 112 
-59 140 399 222 165 112 
-58 140 399 219 162 109 
-58 140 399 225 165 111 
-57 140 399 229 169 115 
-56 140 399 224 168 117 
-56 141 400 222 166 115 
-55 141 400 221 164 111 
-55 141 401 212 155 102 
-54 142 402 208 152 103 
-54 142 403 209 153 104 
-53 142 404 195 143 104 
-53 143 405 154 102 63 
-65 142 402 194 131 88 
-64 142 401 201 140 86 
-64 141 400 208 147 93 
-63 141 400 216 153 102 
-62 141 400 221 158 107 
-62 141 399 222 162 108 
-61 141 399 221 161 107 
-60 141 399 221 161 107 
-60 141 399 226 166 112 
-59 141 399 221 165 114 
-58 141 399 217 161 110 
-58 141 399 224 164 112 
-57 141 399 228 168 116 
-57 141 400 225 169 118 
-56 141 400 223 167 116 
-55 142 401 218 161 108 
-55 142 401 216 159 106 
-54 142 402 207 154 104 
-54 143 403 201 148 98 
-53 143 404 189 137 98 
-53 143 405 146 94 55 
-65 143 402 193 130 87 
-64 142 401 199 137 86 
-64 142 401 206 144 93 
-63 142 400 215 152 101 
-62 142 400 221 158 107 
-62 142 399 222 162 108 
-61 142 399 222 162 108 
-60 142 399 220 163 108 
-60 142 399 223 166 111 
-59 142 399 221 165 114 
-58 142 399 221 165 114 
-58 142 399 227 165 114 
-57 142 399 229 167 116 
-57 142 400 225 167 117 
-56 142 401 224 166 116 
-55 142 401 218 161 108 
-55 143 402 213 156 103 
-54 143 403 208 156 106 
-54 143 403 204 152 102 
-53 144 405 183 134 94 
-53 144 406 145 96 56 
-65 144 403 193 132 88 
-64 143 401 198 136 85 
-64 143 401 205 143 92 
-63 143 400 214 151 100 
-62 142 399 218 155 104 
-62 142 399 220 160 106 
-61 142 399 223 163 109 
-60 142 399 221 164 111 
-60 142 399 220 163 110 
-59 142 399 219 163 114 
-58 143 400 221 165 116 
-58 143 400 227 165 114 
-57 143 400 226 164 113 
-57 143 400 221 163 113 
-56 143 400 220 162 112 
-55 143 401 219 162 109 
-55 144 403 211 154 101 
-54 144 403 201 149 99 
-54 144 404 198 146 96 
-53 145 405 179 130 90 
-53 145 406 139 90 50 
-65 144 403 195 128 83 
-65 144 402 204 136 87 
-64 144 401 214 146 97 
-63 144 401 210 150 98 
-62 143 400 216 156 104 
-62 143 399 224 157 105 
-61 143 399 225 158 106 
-60 143 399 223 160 106 
-60 143 399 222 159 105 
-59 143 399 219 159 107 
-58 143 399 222 162 110 
-58 143 400 232 167 113 
-57 143 400 230 165 111 
-57 144 401 220 159 112 
-56 144 401 220 159 112 
-55 144 401 220 162 116 
-55 144 402 214 156 110 
-54 144 403 205 152 110 
-54 145 404 199 146 104 
-53 145 405 179 121 81 
-53 146 406 149 91 51 
-65 145 403 194 130 84 
-65 145 402 202 136 86 
-64 144 401 211 145 95 
-63 144 401 208 151 96 
-62 144 400 214 157 102 
-62 144 399 222 156 104 
-61 144 399 222 156 104 
-60 144 400 219 158 103 
-60 144 399 218 157 102 
-59 144 399 216 156 102 
-58 144 399 220 160 106 
-58 144 400 225 162 108 
-57 144 400 225 162 108 
-57 144 401 221 161 111 
-56 144 401 220 160 110 
-55 144 401 219 161 113 
-55 145 402 214 156 108 
-54 145 404 205 151 107 
-54 145 404 198 144 100 
-53 146 405 172 119 77 
-53 146 406 145 92 50 
-66 146 404 194 130 84 
-65 145 402 200 134 82 
-64 145 402 209 143 91 
-63 145 401 208 151 96 
-62 145 400 214 157 102 
-61 144 399 219 154 100 
-61 144 399 219 154 100 
-60 144 399 215 154 99 
-60 145 400 215 154 99 
-59 145 400 214 154 100 
-58 145 400 218 158 104 
-58 145 400 222 160 103 
-57 145 401 222 160 103 
-57 145 401 221 161 109 
-56 145 401 219 159 107 
-56 145 402 217 157 107 
-55 146 403 212 152 102 
-54 146 404 205 149 102 
-54 146 405 197 141 94 
-53 146 405 166 117 77 
-53 147 407 142 93 53 
-66 147 405 194 130 84 
-65 146 403 199 133 81 
-64 146 402 207 141 89 
-63 146 401 206 149 94 
-62 145 400 211 154 99 
-62 145 400 215 152 98 
-61 145 399 215 152 98 
-60 145 399 212 151 94 
-60 145 400 214 153 96 
-59 145 400 213 154 98 
-58 145 400 218 159 103 
-58 145 400 221 160 103 
-57 146 401 220 159 102 
-57 146 401 221 160 105 
-56 146 401 217 156 101 
-56 146 402 213 153 103 
-55 146 403 209 149 99 
-54 147 404 205 144 97 
-54 147 405 195 134 87 
-53 147 406 157 114 79 
-53 148 407 138 95 60 
-66 148 405 194 130 84 
-65 147 403 200 134 84 
-64 147 402 206 140 90 
-63 146 401 203 146 91 
-62 146 400 210 153 98 
-62 146 400 217 152 98 
-61 146 400 218 153 99 
-60 146 400 212 151 94 
-60 146 400 215 154 97 
-59 146 400 215 154 97 
-58 146 400 219 158 101 
-58 146 401 223 161 102 
-57 146 401 221 159 100 
-57 146 401 221 158 104 
-56 147 402 216 153 99 
-56 147 402 213 151 100 
-55 147 403 211 149 98 
-54 147 404 206 142 94 
-54 148 405 193 129 81 
-53 148 406 147 110 83 
-53 148 407 133 96 69 
-66 148 405 194 130 84 
-65 148 403 202 134 85 
-64 147 402 207 139 90 
-63 147 401 205 145 93 
-62 147 401 213 153 101 
-62 146 400 218 152 100 
-61 146 400 219 153 101 
-61 147 401 212 151 96 
-60 147 401 216 155 100 
-59 147 401 218 156 99 
-59 147 401 221 159 102 
-58 147 401 226 161 105 
-57 147 401 224 159 103 
-57 147 401 221 156 100 
-56 147 402 217 152 96 
-56 148 403 211 149 98 
-55 148 403 211 149 98 
-54 148 404 209 143 93 
-54 148 405 193 127 77 
-53 149 406 139 108 87 
-53 149 407 129 98 77 
-66 149 405 195 131 87 
-65 148 403 203 135 86 
-64 148 402 207 139 90 
-63 147 401 207 147 95 
-62 147 401 215 155 103 
-62 147 400 219 153 101 
-61 147 400 217 151 99 
-61 147 401 212 151 96 
-60 147 401 215 154 99 
-59 147 401 222 157 101 
-59 147 401 224 159 103 
-58 147 401 225 158 103 
-57 147 401 223 156 101 
-57 147 401 221 154 99 
-56 148 402 217 150 95 
-56 148 403 210 148 97 
-55 148 403 210 148 97 
-54 149 404 207 144 93 
-54 149 405 189 126 75 
-53 149 406 133 107 92 
-53 150 407 126 100 85 
-66 150 406 194 131 87 
-65 149 403 202 134 85 
-64 148 402 206 138 89 
-63 148 402 208 148 96 
-62 148 401 217 157 105 
-62 148 400 218 152 102 
-61 148 400 216 150 100 
-60 148 401 212 153 97 
-60 148 401 213 154 98 
-59 148 401 223 158 102 
-59 148 401 224 159 103 
-58 148 401 221 154 99 
-57 148 401 221 154 99 
-57 148 401 221 154 99 
-56 148 402 218 151 96 
-56 149 403 210 148 99 
-55 149 403 208 146 97 
-54 149 404 204 141 90 
-54 150 405 186 123 72 
-53 150 406 126 107 93 
-53 150 407 123 104 90 
-66 150 405 193 130 79 
-65 149 403 199 131 86 
-64 149 402 205 137 92 
-63 149 402 215 149 101 
-62 149 401 220 154 106 
-62 149 401 216 153 99 
-61 149 401 215 152 98 
-60 149 401 218 153 99 
-60 149 401 217 152 98 
-59 149 401 221 155 97 
-59 149 401 226 160 102 
-58 149 402 220 154 94 
-57 149 402 220 154 94 
-57 149 402 216 155 101 
-56 149 402 211 150 96 
-56 149 403 214 148 96 
-55 149 403 211 145 93 
-54 150 404 200 139 94 
-54 151 406 182 121 76 
-54 151 407 115 108 100 
-66 151 406 194 131 80 
-65 150 403 202 134 87 
-64 150 402 207 139 92 
-63 149 401 215 149 101 
-62 149 401 219 153 105 
-62 149 400 217 154 100 
-61 149 400 217 154 100 
-60 149 400 216 151 97 
-60 149 400 217 152 98 
-59 149 400 221 156 98 
-58 149 400 226 161 103 
-58 149 401 219 155 94 
-57 149 401 218 154 93 
-57 150 402 216 155 101 
-56 150 403 212 151 97 
-56 150 403 214 148 96 
-55 151 404 212 146 94 
-55 151 405 200 139 94 
-54 151 406 181 120 75 
-54 152 407 115 108 102 
-66 152 406 192 130 79 
-65 151 404 203 135 88 
-64 151 403 208 140 93 
-63 150 402 212 149 98 
-62 150 401 217 154 103 
-62 150 400 218 155 101 
-61 150 400 217 154 100 
-60 150 400 215 150 96 
-60 150 400 217 152 98 
-59 150 400 223 158 100 
-59 150 401 228 163 105 
-58 150 401 220 155 97 
-57 150 401 219 154 96 
-57 150 402 216 155 101 
-56 151 403 211 150 96 
-56 151 403 214 151 98 
-55 151 404 210 147 94 
-55 152 405 196 137 93 
-54 152 406 176 117 73 
-54 152 407 113 108 102 
-66 152 405 192 130 81 
-65 152 404 203 135 88 
-64 151 403 209 141 94 
-63 151 402 214 151 100 
-63 151 402 218 155 104 
-62 151 401 216 155 101 
-61 150 400 215 154 100 
-60 150 400 217 152 98 
-60 150 400 219 154 100 
-59 150 400 223 158 100 
-59 151 401 227 162 104 
-58 151 401 219 157 98 
-57 151 401 218 156 97 
-57 151 402 215 154 100 
-56 151 403 210 149 95 
-56 151 403 216 153 102 
-55 152 404 210 147 96 
-55 152 405 194 135 91 
-54 153 406 173 114 70 
-66 153 405 192 131 84 
-65 152 404 204 136 91 
-64 152 403 211 143 98 
-63 152 402 216 152 104 
-62 151 401 219 155 107 
-62 151 401 216 154 103 
-61 151 401 214 152 101 
-60 151 400 220 155 101 
-60 151 400 222 157 103 
-59 151 400 222 157 101 
-59 151 401 224 159 103 
-58 151 401 218 156 99 
-57 151 401 218 156 99 
-57 152 402 215 154 100 
-56 152 403 212 151 97 
-56 152 403 220 154 104 
-55 153 405 211 145 95 
-55 153 406 193 134 92 
-54 154 407 171 112 70 
-66 153 405 194 133 88 
-65 153 404 206 139 94 
-64 153 403 212 145 100 
-63 153 403 217 153 105 
-63 152 402 219 155 107 
-62 152 401 216 154 103 
-61 152 401 216 154 103 
-60 152 401 219 153 101 
-60 152 401 223 157 105 
-59 152 401 219 156 102 
-59 152 401 221 158 104 
-58 152 401 217 155 98 
-57 152 402 217 155 98 
-57 152 402 214 152 101 
-56 153 403 215 153 102 
-56 153 404 220 154 104 
-55 153 405 210 144 94 
-55 154 406 192 133 91 
-54 154 407 169 110 68 
-66 154 405 193 132 87 
-65 154 404 206 140 92 
-64 154 404 212 146 98 
-63 153 403 217 153 105 
-63 153 402 220 156 108 
-62 153 402 218 158 108 
-61 152 401 218 158 108 
-60 153 401 220 154 102 
-60 153 401 223 157 105 
-59 153 401 220 157 103 
-59 153 401 222 159 105 
-58 153 401 217 156 101 
-57 153 402 216 155 100 
-57 153 402 213 153 101 
-56 153 403 214 154 102 
-56 154 404 217 154 103 
-55 154 405 206 143 92 
-55 154 406 189 132 89 
-54 155 407 165 108 65 
-66 155 406 191 130 85 
-65 154 404 205 139 91 
-64 154 404 212 146 98 
-63 154 403 216 153 102 
-63 153 402 221 158 107 
-62 154 402 220 160 108 
-61 154 402 221 161 109 
-60 153 401 220 157 106 
-60 153 401 222 159 108 
-59 153 401 219 158 104 
-59 153 401 221 160 106 
-58 153 401 218 157 102 
-57 154 402 216 155 100 
-57 154 403 213 153 101 
-56 154 403 214 154 102 
-56 154 404 217 154 103 
-55 155 405 205 142 91 
-55 155 406 186 129 86 
-54 155 407 161 104 61 
-66 156 407 183 127 80 
-65 155 405 204 137 95 
-64 155 404 210 143 101 
-63 155 403 215 155 103 
-63 155 403 222 162 110 
-62 154 402 225 161 113 
-61 154 402 222 158 110 
-61 154 402 218 162 105 
-60 154 402 219 163 106 
-59 154 402 227 158 99 
-59 154 402 226 157 98 
-58 154 402 225 157 110 
-57 154 402 222 154 107 
-57 155 403 218 154 93 
-56 155 403 218 154 93 
-56 155 404 210 150 100 
-55 155 405 205 145 95 
-55 156 406 175 132 89 
-66 157 407 186 130 83 
-65 156 405 203 136 94 
-64 156 404 210 143 101 
-63 156 404 216 156 104 
-63 155 403 220 160 108 
-62 155 403 224 162 111 
-61 155 402 221 159 108 
-61 155 402 219 163 106 
-60 155 402 220 164 107 
-59 155 402 226 160 100 
-59 155 402 224 158 98 
-58 155 402 223 157 109 
-57 155 402 220 154 106 
-57 155 403 218 153 95 
-56 155 403 218 153 95 
-56 156 404 208 148 98 
-55 156 405 203 143 93 
-55 157 407 172 129 86 
-66 158 408 190 132 86 
-65 157 406 202 137 95 
-64 156 404 209 144 102 
-63 156 404 217 157 103 
-63 156 403 219 159 105 
-62 156 403 225 163 112 
-61 155 402 220 158 107 
-61 155 402 220 163 110 
-60 155 402 220 163 110 
-59 155 402 225 161 100 
-59 155 402 223 159 98 
-58 155 402 220 157 106 
-58 156 403 218 155 104 
-57 156 403 216 153 99 
-56 156 404 216 153 99 
-56 156 404 206 145 98 
-55 157 405 200 139 92 
-55 157 407 169 124 82 
-66 158 408 190 131 87 
-65 158 406 205 142 99 
-64 157 405 210 147 104 
-63 157 404 218 157 103 
-63 156 403 221 160 106 
-62 156 403 222 162 112 
-61 156 403 220 160 110 
-61 156 402 219 161 111 
-60 156 402 220 162 112 
-59 156 402 223 161 102 
-59 156 402 221 159 100 
-58 156 402 219 159 105 
-58 156 403 216 156 102 
-57 156 403 215 152 99 
-56 157 404 214 151 98 
-56 157 405 205 143 94 
-55 157 405 198 136 87 
-55 158 407 164 121 79 
-66 159 409 187 128 84 
-65 158 406 208 147 103 
-64 158 405 211 150 106 
-63 157 404 218 157 103 
-63 157 403 223 162 108 
-62 157 403 218 160 110 
-61 157 402 219 161 111 
-61 157 402 219 161 113 
-60 157 402 223 165 117 
-59 157 402 226 165 108 
-59 157 402 222 161 104 
-58 157 403 218 162 105 
-57 157 403 215 159 102 
-57 157 403 213 150 97 
-56 157 404 212 149 96 
-56 158 405 205 145 95 
-55 158 406 195 135 85 
-55 159 407 160 118 80 
-65 159 407 208 147 103 
-64 158 405 211 150 106 
-63 158 404 219 156 105 
-63 158 403 224 161 110 
-62 158 403 216 160 111 
-61 157 402 218 162 113 
-61 157 402 219 161 113 
-60 157 402 227 169 121 
-59 157 402 229 169 115 
-59 157 402 224 164 110 
-58 158 403 220 164 105 
-57 158 403 215 159 100 
-57 158 403 213 150 97 
-56 158 404 212 149 96 
-56 159 405 206 146 94 
-55 159 406 194 134 82 
-55 159 407 155 114 84 
-65 160 407 202 143 99 
-64 159 405 208 149 105 
-63 159 404 220 157 106 
-63 158 403 221 158 107 
-62 158 403 217 161 112 
-61 158 402 217 161 112 
-61 158 402 218 162 111 
-60 158 402 227 171 120 
-59 158 402 231 171 119 
-59 158 402 224 164 112 
-58 158 403 218 162 103 
-57 158 403 215 159 100 
-57 159 404 214 151 97 
-56 159 405 213 150 96 
-56 159 405 203 146 93 
-55 160 406 191 134 81 
-55 160 407 150 112 89 
-65 161 407 198 139 95 
-64 160 405 207 148 104 
-63 159 404 223 157 107 
-63 159 403 221 155 105 
-62 159 403 219 163 116 
-61 159 402 217 161 114 
-61 159 402 217 161 110 
-60 159 402 226 170 119 
-59 159 402 229 169 119 
-59 159 402 222 162 112 
-58 159 403 217 161 102 
-57 159 403 215 159 100 
-57 159 404 215 153 96 
-56 160 405 213 151 94 
-56 160 406 202 145 90 
-55 160 406 189 132 77 
-55 161 407 147 110 91 
-65 161 407 202 141 97 
-64 160 405 212 151 107 
-63 160 403 220 153 110 
-62 159 402 221 154 111 
-62 159 402 218 161 106 
-61 159 402 220 163 108 
-61 159 402 228 162 110 
-60 159 402 231 165 113 
-59 159 402 228 167 112 
-59 159 402 221 160 105 
-58 160 403 220 158 107 
-57 160 403 217 155 104 
-57 160 404 213 156 101 
-56 160 405 208 151 96 
-56 161 406 200 141 85 
-55 161 406 191 132 76 
-55 161 407 125 112 103 
-65 161 406 204 143 98 
-64 161 405 212 151 106 
-63 160 403 219 152 109 
-62 160 402 221 154 111 
-62 160 402 219 163 106 
-61 160 402 222 166 109 
-61 160 402 226 163 110 
-60 160 402 227 164 111 
-59 160 402 227 168 112 
-59 160 402 222 163 107 
-58 160 403 222 160 109 
-57 160 403 218 156 105 
-57 161 404 212 155 100 
-56 161 405 204 147 92 
-56 161 406 200 140 86 
-55 162 407 189 129 75 
-55 162 408 118 108 99 
-65 162 406 205 144 97 
-64 162 405 212 151 104 
-63 161 403 219 152 107 
-62 160 402 222 155 110 
-62 160 402 220 164 105 
-61 160 402 221 165 106 
-60 160 401 227 164 113 
-60 160 402 224 161 110 
-59 160 402 225 166 110 
-59 160 402 224 165 109 
-58 161 403 222 160 109 
-57 161 403 218 156 105 
-57 161 404 212 155 100 
-56 162 405 202 145 90 
-56 162 406 196 139 86 
-55 163 407 183 126 73 
-55 163 408 113 104 99 
-65 163 406 203 145 97 
-64 162 404 209 151 103 
-63 161 403 219 155 109 
-62 161 402 223 159 113 
-62 161 402 220 164 105 
-61 161 402 219 163 104 
-60 161 401 225 163 112 
-60 161 402 219 157 106 
-59 161 402 224 165 109 
-59 161 402 225 166 110 
-58 162 403 221 160 106 
-57 162 403 218 157 103 
-57 162 404 214 157 102 
-56 162 405 202 145 90 
-56 163 406 195 138 85 
-55 163 407 183 126 73 
-55 164 408 113 105 102 
-65 163 406 203 145 97 
-64 163 405 209 151 103 
-63 163 404 222 160 113 
-63 162 403 225 163 116 
-62 162 402 221 165 106 
-61 162 402 219 163 104 
-61 162 402 226 163 112 
-60 162 402 218 155 104 
-59 162 402 224 164 110 
-59 162 403 226 166 112 
-58 162 403 221 159 108 
-58 163 404 218 156 105 
-57 163 404 216 156 102 
-56 163 405 202 142 88 
-56 163 406 193 136 83 
-55 164 407 181 124 71 
-55 164 408 112 104 101 
-65 164 406 203 145 97 
-64 163 404 211 153 105 
-63 163 404 224 162 115 
-63 163 403 227 165 118 
-62 162 402 223 167 108 
-61 162 402 223 167 108 
-61 162 402 228 165 114 
-60 162 402 221 158 107 
-59 162 402 222 165 110 
-59 163 403 223 166 111 
-58 163 403 221 159 108 
-58 163 404 219 157 106 
-57 163 404 213 156 101 
-56 164 405 199 142 87 
-56 164 406 191 134 81 
-55 164 407 178 121 68 
-55 165 408 112 104 101 
-66 166 409 199 136 95 
-65 165 406 204 146 98 
-64 164 404 212 154 106 
-63 163 403 226 162 116 
-63 163 403 228 164 118 
-62 163 402 226 167 109 
-61 163 402 228 169 111 
-61 163 402 230 167 116 
-60 163 402 225 162 111 
-59 163 402 224 167 114 
-59 163 403 222 165 112 
-58 163 403 222 161 114 
-58 164 404 219 158 111 
-57 164 404 212 155 102 
-56 164 405 199 142 89 
-56 165 406 192 135 82 
-55 165 407 177 120 67 
-55 165 408 113 105 102 
-66 166 409 199 134 92 
-65 165 406 203 145 97 
-64 164 404 212 154 106 
-63 164 403 225 161 113 
-63 164 403 227 163 115 
-62 164 402 227 166 109 
-61 164 402 230 169 112 
-61 164 402 230 166 118 
-60 164 402 228 164 116 
-59 164 402 225 169 118 
-59 164 403 222 166 115 
-58 164 403 223 165 119 
-58 164 404 218 160 114 
-57 164 404 210 154 103 
-56 165 405 198 142 91 
-56 165 406 190 133 80 
-55 166 407 173 116 63 
-55 166 408 112 104 101 
-65 166 406 208 144 100 
-64 165 404 216 152 108 
-63 165 404 223 164 108 
-63 165 403 227 168 112 
-62 164 402 224 168 117 
-61 164 402 225 169 118 
-61 164 402 228 165 111 
-60 164 402 229 166 112 
-59 164 402 224 171 117 
-59 165 403 219 166 112 
-58 165 403 224 161 110 
-58 165 404 221 158 107 
-57 165 404 216 153 99 
-56 166 405 203 140 86 
-56 166 406 187 133 87 
-55 166 407 164 110 64 
-55 167 408 106 104 107 
-65 166 406 206 142 96 
-64 166 404 214 150 104 
-63 165 403 224 163 108 
-63 165 403 228 167 112 
-62 165 402 224 167 114 
-61 165 402 226 169 116 
-61 165 402 228 165 111 
-60 165 402 228 165 111 
-59 165 402 225 170 116 
-59 165 403 220 165 111 
-58 165 403 224 161 110 
-58 166 404 220 157 106 
-57 166 405 214 151 98 
-56 166 405 202 139 86 
-56 167 406 184 130 84 
-55 167 407 164 110 64 
-55 167 408 107 102 106 
-65 167 406 207 143 97 
-64 166 404 215 151 105 
-63 166 403 224 163 108 
-63 166 403 228 167 112 
-62 166 403 223 166 113 
-61 166 402 225 168 115 
-60 166 402 231 168 114 
-60 166 402 227 164 110 
-59 166 402 224 169 115 
-59 166 403 218 163 109 
-58 166 403 225 159 109 
-58 166 404 222 156 106 
-57 167 405 211 148 95 
-56 167 405 202 139 86 
-56 167 406 185 131 85 
-55 168 407 163 109 63 
-65 168 406 209 145 99 
-64 167 405 217 153 107 
-63 167 404 224 163 108 
-63 167 403 226 165 110 
-62 167 403 224 164 110 
-61 167 403 226 166 112 
-60 166 402 231 168 114 
-60 166 402 226 163 109 
-59 166 402 223 168 114 
-59 167 403 217 162 108 
-58 167 403 225 159 109 
-58 167 404 222 156 106 
-57 167 405 208 147 93 
-57 168 406 200 139 85 
-56 168 406 186 133 89 
-55 168 407 159 106 62 
-65 169 407 211 147 101 
-64 168 405 219 155 109 
-63 168 404 222 161 106 
-63 168 404 224 163 108 
-62 167 403 224 164 110 
-61 167 403 225 165 111 
-61 167 403 227 166 112 
-60 167 403 223 162 108 
-59 167 403 221 166 112 
-59 167 403 217 162 108 
-58 167 403 224 161 108 
-58 168 404 219 156 103 
-57 168 405 205 145 91 
-57 168 406 198 138 84 
-56 169 407 185 132 88 
-55 169 407 154 101 57 
-65 169 407 213 149 103 
-64 169 406 220 156 110 
-64 169 405 222 161 106 
-63 168 404 223 162 107 
-62 168 403 223 163 109 
-61 168 403 223 163 109 
-61 168 403 224 164 110 
-60 168 404 221 161 107 
-59 168 404 219 164 108 
-59 168 404 216 161 105 
-58 168 404 223 160 107 
-58 169 405 217 154 101 
-57 169 405 204 144 92 
-57 169 406 198 138 86 
-56 170 407 182 131 86 
-55 170 407 149 98 53 
-65 171 408 214 150 104 
-64 170 406 220 156 110 
-64 169 405 223 162 107 
-63 169 404 225 164 109 
-62 168 403 223 164 108 
-61 169 404 221 162 106 
-61 169 404 224 164 110 
-60 169 404 224 164 110 
-59 169 404 219 164 108 
-59 169 404 216 161 105 
-58 169 404 222 159 106 
-58 169 405 214 151 98 
-57 169 405 204 144 92 
-57 170 406 197 137 85 
-56 170 407 181 130 85 
-55 170 407 150 99 54 
-65 171 408 214 150 104 
-64 171 407 219 155 109 
-64 170 405 222 163 105 
-63 169 404 224 165 107 
-62 169 404 223 164 108 
-61 169 403 223 164 108 
-61 169 403 226 166 112 
-60 169 403 226 166 112 
-59 169 403 221 166 110 
-59 169 403 217 162 106 
-58 170 404 222 159 106 
-58 170 405 213 150 97 
-57 170 405 203 143 91 
-57 170 406 196 136 84 
-56 171 407 181 130 85 
-55 171 408 153 102 57 
-65 172 408 208 150 102 
-64 171 407 214 156 108 
-64 171 405 224 163 108 
-63 170 404 224 163 108 
-62 170 404 223 160 107 
-61 170 403 224 161 108 
-61 170 403 228 165 111 
-60 170 403 230 167 113 
-59 170 403 223 167 108 
-59 170 403 220 164 105 
-58 170 404 222 158 97 
-58 171 405 213 149 88 
-57 171 405 200 144 97 
-57 171 406 195 139 92 
-56 171 407 176 128 82 
-55 172 408 150 102 56 
-65 172 408 208 152 103 
-64 172 406 214 158 109 
-64 171 405 224 161 107 
-63 171 404 224 161 107 
-62 171 404 225 159 107 
-61 170 403 225 159 107 
-61 170 403 225 162 108 
-60 170 403 230 167 113 
-59 170 403 223 167 108 
-59 170 403 220 164 105 
-58 171 404 218 156 97 
-58 171 405 209 147 88 
-57 171 405 201 145 98 
-57 172 406 198 142 95 
-56 172 407 173 126 82 
-55 173 408 148 101 57 
-65 173 409 209 153 104 
-64 172 406 214 158 109 
-63 172 405 224 159 105 
-63 171 404 225 160 106 
-62 171 404 226 158 109 
-61 171 403 226 158 109 
-61 171 403 224 163 109 
-60 171 404 230 169 115 
-59 171 404 223 167 110 
-59 171 404 220 164 107 
-58 171 404 216 154 95 
-58 172 405 207 145 86 
-57 172 405 202 146 97 
-57 172 406 200 144 95 
-56 173 407 168 123 82 
-55 173 408 144 99 58 
-66 175 410 210 152 104 
-64 173 407 214 156 108 
-63 172 405 223 158 104 
-63 172 404 224 159 105 
-62 172 404 225 159 109 
-61 172 403 225 159 109 
-61 172 403 225 164 110 
-60 172 404 230 169 115 
-59 172 404 225 166 110 
-59 172 404 222 163 107 
-58 172 404 214 153 96 
-58 172 404 205 144 87 
-57 172 405 204 146 96 
-57 173 406 199 141 91 
-56 173 407 163 119 82 
-55 174 408 141 97 60 
-64 174 407 216 155 108 
-63 173 405 222 159 105 
-63 173 404 223 160 106 
-62 173 404 222 160 109 
-61 172 403 222 160 109 
-61 172 403 226 165 111 
-60 172 403 229 168 114 
-59 173 404 226 165 110 
-59 173 404 224 163 108 
-58 173 404 212 151 94 
-58 173 405 205 144 87 
-57 174 406 204 147 92 
-56 174 406 195 138 83 
-56 174 408 160 117 83 
-56 175 409 140 97 63 
-64 175 407 214 153 106 
-63 174 405 220 159 104 
-63 173 404 221 160 105 
-62 173 403 219 162 109 
-61 173 403 221 164 111 
-61 173 403 225 164 110 
-60 173 403 227 166 112 
-59 173 403 227 164 110 
-59 173 404 225 162 108 
-58 173 404 210 151 93 
-58 174 405 204 145 87 
-57 174 406 205 146 90 
-57 175 407 195 136 80 
-56 175 408 156 115 85 
-56 175 409 140 99 69 
-64 175 407 212 154 106 
-63 174 405 218 157 102 
-63 174 404 219 158 103 
-62 173 403 220 163 110 
-61 173 403 223 166 113 
-61 173 403 224 164 110 
-60 173 403 224 164 110 
-59 174 403 227 164 111 
-59 174 404 223 160 107 
-58 174 405 207 151 94 
-58 174 405 202 146 89 
-57 175 406 205 146 88 
-57 175 407 193 134 76 
-56 176 408 153 113 87 
-56 176 409 140 100 74 
-65 176 408 211 158 108 
-63 175 405 217 158 102 
-63 174 403 218 159 103 
-62 174 403 220 163 110 
-61 174 403 223 166 113 
-61 174 403 224 164 112 
-60 174 403 224 164 112 
-59 174 403 227 164 111 
-59 175 404 222 159 106 
-58 175 405 207 150 95 
-58 175 405 203 146 91 
-57 175 406 204 145 87 
-57 176 407 192 133 75 
-56 176 408 150 113 87 
-56 177 409 138 101 75 
-65 177 409 214 152 101 
-63 176 405 215 157 107 
-63 175 403 216 158 108 
-62 175 403 226 165 110 
-61 175 403 225 164 109 
-61 175 403 225 168 113 
-60 175 403 221 164 109 
-59 175 403 222 167 113 
-59 175 404 215 160 106 
-58 175 404 212 153 95 
-58 176 405 206 147 89 
-57 176 406 204 141 88 
-57 177 407 192 129 76 
-56 177 408 139 110 92 
-56 177 409 124 95 77 
-65 178 409 215 155 105 
-63 176 405 215 157 109 
-62 175 403 218 160 112 
-62 175 403 226 165 111 
-61 175 403 226 165 111 
-61 175 403 225 170 114 
-60 175 403 222 167 111 
-59 175 403 223 168 114 
-59 176 404 216 161 107 
-58 176 404 212 153 97 
-58 176 405 207 148 92 
-57 177 406 203 143 89 
-57 177 407 192 132 78 
-56 178 408 134 107 90 
-56 178 409 124 97 80 
-65 179 410 218 158 108 
-63 177 405 214 158 109 
-62 176 403 219 163 114 
-62 176 403 225 165 111 
-61 176 403 227 167 113 
-61 176 403 225 170 116 
-60 176 403 223 168 114 
-59 176 403 224 168 117 
-59 176 404 217 161 110 
-58 176 404 213 156 101 
-58 177 405 208 151 96 
-57 177 406 202 144 94 
-57 178 407 189 131 81 
-56 178 408 133 110 96 
-56 179 409 125 102 88 
-65 180 411 218 160 112 
-63 177 405 212 158 111 
-62 177 403 218 164 117 
-62 177 403 222 165 112 
-61 177 403 227 170 117 
-61 177 403 226 170 119 
-60 177 403 223 167 116 
-59 177 403 222 166 117 
-59 177 404 216 160 111 
-58 177 404 213 158 104 
-58 178 405 209 154 100 
-57 178 406 202 146 99 
-57 178 407 188 132 85 
-56 179 408 130 108 97 
-64 179 406 214 162 115 
-62 177 403 220 168 121 
-62 177 403 223 165 115 
-61 177 403 228 170 120 
-61 177 403 228 170 120 
-60 177 403 225 167 117 
-59 177 403 222 164 116 
-59 178 404 215 157 109 
-58 178 404 214 158 107 
-58 178 405 211 155 104 
-57 179 406 202 148 102 
-56 179 406 188 134 88 
-56 180 408 142 119 111 
-64 179 406 218 166 119 
-62 178 403 222 170 123 
-62 178 403 226 168 118 
-61 178 403 228 170 120 
-61 178 403 229 172 119 
-60 178 403 226 169 116 
-59 178 403 223 165 115 
-59 178 404 217 159 109 
-58 178 404 215 160 106 
-58 179 405 211 156 102 
-57 179 406 201 149 102 
-57 180 407 189 137 90 
-56 180 408 158 136 125 
-64 180 406 219 166 122 
-62 179 403 221 168 124 
-62 179 403 228 170 120 
-61 179 403 228 170 120 
-61 179 403 229 171 121 
-60 179 403 227 169 119 
-59 179 403 225 167 117 
-59 179 404 218 160 110 
-58 179 404 217 161 110 
-58 179 405 211 155 104 
-57 180 406 200 147 103 
-57 180 407 188 135 91 
-56 181 408 158 136 125 
-64 180 406 218 165 121 
-63 180 404 218 165 121 
-62 179 403 229 171 121 
-61 179 402 228 170 120 
-60 179 402 229 173 124 
-60 179 403 226 170 121 
-59 180 404 223 167 118 
-59 180 404 217 161 112 
-58 180 404 216 160 111 
-58 180 405 211 155 106 
-57 181 406 199 146 106 
-57 181 407 188 135 95 
-56 182 409 159 136 128 
-64 182 407 219 165 118 
-63 180 404 224 170 123 
-62 180 403 224 173 118 
-61 180 403 224 173 118 
-61 180 403 225 173 126 
-60 180 404 228 176 129 
-59 180 404 220 167 123 
-59 180 404 216 163 119 
-58 181 405 214 162 123 
-58 181 405 207 155 116 
-57 181 406 190 145 114 
-57 182 408 176 131 100 
-56 183 409 165 132 113 
-64 182 407 218 161 116 
-63 181 405 227 170 125 
-62 181 404 230 177 125 
-61 180 403 221 168 116 
-61 180 403 225 173 126 
-60 181 404 228 176 129 
-59 181 404 223 170 126 
-59 181 405 221 168 124 
-58 181 405 216 167 127 
-58 182 406 206 157 117 
-57 182 407 187 144 112 
-57 183 409 177 134 102 
-63 182 405 227 170 127 
-62 181 404 227 173 127 
-61 181 404 226 172 126 
-61 181 404 224 175 132 
-60 182 405 225 176 133 
-60 182 405 224 175 132 
-59 182 405 221 172 129 
-58 182 406 217 169 131 
-58 183 407 202 154 116 
-57 183 408 179 136 104 
-60 183 406 226 178 138 
