ply
format ascii 1.0
comment Created by CloudCompare v2.10.1 (Zephyrus)
comment Created 2020-05-06 7:44 PM
obj_info Generated by CloudCompare!
element vertex 1124
property float x
property float y
property float z
property uchar red
property uchar green
property uchar blue
end_header
-60 -14 412 144 129 124 
-59 -14 410 151 109 87 
-58 -14 408 162 120 98 
-57 -14 406 179 128 99 
-56 -14 404 190 139 110 
-55 -14 404 200 144 111 
-54 -14 403 206 150 117 
-54 -14 402 215 160 129 
-53 -14 402 224 169 138 
-52 -14 402 223 177 153 
-52 -14 401 224 178 154 
-51 -14 401 227 177 150 
-50 -14 401 233 183 156 
-50 -14 401 233 186 158 
-49 -14 400 231 184 156 
-48 -14 400 232 185 159 
-47 -14 400 233 186 160 
-47 -14 399 234 187 159 
-46 -14 399 235 188 160 
-45 -14 399 235 190 161 
-45 -14 399 235 190 161 
-44 -14 400 236 192 165 
-44 -14 400 236 192 165 
-43 -14 400 235 191 164 
-42 -14 400 235 191 164 
-42 -14 400 235 191 164 
-41 -14 400 235 191 164 
-40 -14 400 232 186 153 
-40 -14 401 230 184 151 
-39 -14 401 226 174 153 
-38 -14 401 223 171 150 
-38 -14 402 227 161 126 
-37 -14 402 228 162 127 
-37 -14 402 213 158 127 
-36 -14 403 208 153 122 
-35 -14 404 212 148 121 
-35 -14 404 202 138 111 
-34 -14 404 191 135 112 
-34 -14 405 210 154 131 
-33 -14 406 155 151 152 
-32 -14 408 147 143 144 
-32 -14 409 134 147 153 
-59 -14 410 179 133 107 
-58 -14 408 197 151 125 
-57 -14 405 211 157 129 
-56 -13 404 223 169 141 
-55 -13 403 231 174 144 
-54 -13 403 235 178 148 
-54 -13 402 242 187 156 
-53 -13 402 248 193 162 
-52 -13 401 244 198 172 
-52 -13 401 245 199 173 
-51 -13 400 248 202 176 
-50 -13 400 253 207 181 
-49 -13 400 255 212 187 
-49 -13 400 255 212 187 
-48 -13 400 255 215 190 
-47 -13 399 255 217 192 
-47 -13 399 255 219 193 
-46 -13 399 255 219 193 
-45 -13 399 255 220 193 
-45 -13 399 255 220 193 
-44 -13 399 255 222 195 
-44 -13 400 255 223 196 
-43 -13 400 255 225 197 
-42 -13 400 255 227 199 
-42 -13 400 255 229 200 
-41 -13 400 255 229 200 
-40 -13 400 255 217 186 
-40 -13 400 252 213 182 
-39 -13 400 250 205 182 
-38 -13 400 246 201 178 
-38 -13 401 251 192 160 
-37 -13 402 250 191 159 
-37 -13 402 241 186 156 
-36 -13 402 233 178 148 
-35 -13 403 232 171 143 
-35 -14 404 221 160 132 
-34 -14 404 216 158 136 
-34 -14 405 221 163 141 
-33 -14 406 182 168 167 
-32 -14 407 155 141 140 
-32 -14 408 138 149 153 
-59 -13 409 201 154 124 
-58 -13 407 214 167 137 
-57 -13 405 222 168 140 
-56 -13 404 230 176 148 
-55 -13 403 236 183 151 
-54 -13 402 243 190 158 
-54 -13 402 248 198 165 
-53 -13 401 252 202 169 
-52 -13 401 251 206 177 
-51 -13 400 253 208 179 
-51 -13 400 255 211 184 
-50 -13 400 255 217 190 
-49 -13 400 255 220 194 
-49 -13 400 255 219 193 
-48 -13 399 255 222 195 
-47 -13 399 255 223 196 
-47 -13 399 255 221 194 
-46 -13 399 255 220 193 
-45 -13 399 255 225 198 
-45 -13 399 255 223 196 
-44 -13 399 253 223 197 
-43 -13 399 253 223 197 
-43 -13 399 251 224 197 
-42 -13 400 252 225 198 
-42 -13 400 253 226 199 
-41 -13 400 252 225 198 
-40 -13 400 255 222 189 
-40 -13 400 251 218 185 
-39 -13 400 252 213 184 
-38 -13 400 246 207 178 
-38 -13 401 254 201 170 
-37 -13 401 253 200 169 
-37 -13 402 251 194 165 
-36 -13 402 241 184 155 
-35 -13 403 238 178 150 
-35 -13 403 230 170 142 
-34 -13 404 225 167 147 
-34 -13 405 222 164 144 
-33 -13 405 205 180 175 
-32 -13 407 174 149 144 
-32 -13 407 134 146 146 
-58 -12 408 209 160 128 
-57 -12 406 213 164 132 
-57 -12 405 219 170 138 
-56 -12 404 224 175 143 
-55 -12 403 229 183 150 
-54 -12 402 240 194 161 
-53 -12 401 250 201 168 
-53 -12 401 253 204 171 
-52 -12 401 254 209 178 
-51 -12 400 255 212 181 
-51 -12 400 253 212 184 
-50 -12 400 255 217 189 
-49 -12 400 255 217 191 
-49 -12 399 255 216 190 
-48 -12 399 255 220 194 
-47 -12 399 255 220 194 
-47 -12 399 255 219 193 
-46 -12 399 255 221 195 
-45 -12 399 254 220 193 
-45 -12 399 254 220 193 
-44 -12 399 252 222 198 
-43 -12 399 253 223 199 
-43 -12 399 253 223 199 
-42 -12 399 255 225 201 
-42 -12 400 255 226 202 
-41 -12 400 255 226 202 
-40 -12 400 253 220 185 
-40 -12 400 249 216 181 
-39 -12 400 250 212 176 
-38 -12 400 244 206 170 
-38 -12 400 253 202 173 
-37 -12 401 252 201 172 
-37 -12 401 255 196 168 
-36 -12 402 248 188 160 
-35 -12 402 236 179 149 
-35 -12 403 232 175 145 
-34 -12 403 223 166 147 
-33 -12 404 223 166 147 
-33 -12 405 219 186 179 
-32 -12 406 194 161 154 
-32 -12 407 129 141 139 
-59 -12 411 186 153 146 
-58 -12 408 207 164 129 
-57 -12 406 215 172 137 
-57 -12 405 216 171 130 
-56 -12 404 223 178 137 
-55 -11 403 235 187 149 
-54 -11 402 243 195 157 
-53 -11 401 245 199 166 
-53 -11 401 248 202 169 
-52 -11 401 253 206 186 
-51 -11 400 254 207 187 
-51 -11 400 252 211 183 
-50 -11 400 255 215 187 
-49 -11 400 255 218 189 
-49 -11 399 255 216 187 
-48 -11 399 253 216 189 
-47 -11 399 255 218 191 
-47 -11 399 255 220 193 
-46 -11 399 255 221 194 
-45 -11 399 255 220 194 
-45 -11 399 255 219 193 
-44 -11 399 254 220 193 
-43 -11 399 255 221 194 
-43 -11 399 255 221 196 
-42 -11 399 255 221 196 
-42 -11 399 255 221 196 
-41 -11 399 255 221 196 
-40 -11 399 254 217 191 
-40 -11 399 250 213 187 
-39 -11 399 255 207 177 
-38 -11 400 253 204 174 
-38 -11 400 250 200 173 
-37 -11 400 249 199 172 
-37 -11 401 248 198 171 
-36 -11 401 245 195 168 
-35 -11 402 242 192 165 
-35 -11 402 236 186 159 
-34 -12 403 231 180 149 
-33 -12 404 223 172 141 
-33 -12 405 215 179 157 
-32 -12 405 213 177 155 
-32 -12 407 130 137 145 
-59 -11 409 193 155 144 
-58 -11 407 210 164 128 
-57 -11 405 215 169 133 
-56 -11 404 220 173 131 
-56 -11 403 226 179 137 
-55 -11 402 235 185 148 
-54 -11 401 242 192 155 
-53 -11 401 244 195 162 
-53 -11 400 247 198 165 
-52 -11 400 254 203 182 
-51 -11 400 255 205 184 
-51 -11 400 250 211 182 
-50 -11 400 253 214 185 
-49 -11 399 255 216 187 
-49 -11 399 255 216 187 
-48 -11 399 253 216 189 
-47 -11 399 255 218 191 
-47 -11 398 255 218 191 
-46 -11 398 253 216 189 
-45 -11 398 253 216 190 
-45 -11 398 253 216 190 
-44 -11 398 253 217 191 
-43 -11 399 253 217 191 
-43 -11 399 253 219 192 
-42 -11 399 253 219 192 
-42 -11 399 253 219 194 
-41 -11 399 254 220 195 
-40 -11 399 254 217 190 
-40 -11 399 251 214 187 
-39 -11 399 255 208 176 
-38 -11 399 253 204 172 
-38 -11 400 248 201 173 
-37 -11 400 247 200 172 
-37 -11 401 249 200 170 
-36 -11 401 249 200 170 
-35 -11 402 249 198 169 
-35 -11 402 245 194 165 
-34 -11 403 239 186 154 
-33 -11 404 228 175 143 
-33 -11 405 216 178 155 
-32 -11 405 216 178 155 
-32 -11 406 140 145 151 
-59 -10 408 197 154 137 
-58 -10 407 215 165 128 
-57 -10 405 219 169 132 
-56 -10 404 224 175 134 
-56 -10 402 228 179 138 
-55 -10 402 237 185 146 
-54 -10 401 244 192 153 
-53 -10 400 245 195 160 
-53 -10 400 248 198 163 
-52 -10 400 254 202 178 
-51 -10 400 255 206 182 
-51 -10 399 250 211 182 
-50 -10 399 252 213 184 
-49 -10 399 255 216 187 
-49 -10 399 255 217 188 
-48 -10 398 255 215 189 
-47 -10 398 255 217 191 
-47 -10 398 255 218 191 
-46 -10 398 252 215 188 
-45 -10 398 253 216 189 
-45 -10 398 253 216 189 
-44 -10 398 253 217 191 
-43 -10 399 253 217 191 
-43 -10 398 253 217 191 
-42 -10 399 253 217 191 
-41 -10 398 254 218 192 
-41 -10 399 255 219 193 
-40 -10 399 255 216 190 
-40 -10 399 254 214 188 
-39 -10 399 255 209 176 
-38 -10 399 252 206 173 
-38 -10 399 251 204 176 
-37 -10 400 250 203 175 
-36 -10 400 252 201 172 
-36 -10 401 252 201 172 
-35 -10 402 254 203 172 
-35 -10 402 249 198 167 
-34 -10 402 243 188 157 
-33 -10 403 232 177 146 
-33 -10 404 217 175 150 
-32 -10 405 221 179 154 
-32 -10 406 155 153 156 
-31 -10 407 141 139 142 
-59 -10 407 199 151 128 
-58 -10 406 217 165 128 
-57 -10 404 224 172 135 
-56 -10 403 222 175 131 
-56 -10 402 225 178 134 
-55 -10 402 231 183 143 
-54 -9 400 239 191 151 
-53 -9 400 245 195 160 
-53 -9 400 248 198 163 
-52 -9 400 253 202 173 
-51 -9 399 255 206 177 
-51 -9 399 250 209 181 
-50 -9 399 252 211 183 
-49 -9 399 254 213 185 
-49 -9 398 254 213 185 
-48 -9 398 253 213 187 
-47 -9 398 254 214 188 
-47 -9 398 255 216 190 
-46 -9 398 255 216 190 
-45 -9 398 255 215 189 
-45 -9 398 255 215 189 
-44 -9 398 253 216 189 
-43 -9 398 253 216 189 
-43 -9 398 253 216 189 
-42 -9 398 253 216 189 
-41 -9 398 254 217 190 
-41 -9 398 254 217 190 
-40 -9 398 254 217 190 
-39 -9 398 252 215 188 
-39 -9 399 255 210 179 
-38 -9 399 253 208 177 
-38 -9 399 253 208 179 
-37 -9 400 253 208 179 
-36 -9 400 255 204 175 
-36 -9 401 253 202 173 
-35 -10 402 255 202 171 
-35 -10 402 249 196 165 
-34 -10 402 240 186 152 
-33 -10 403 232 178 144 
-33 -10 404 219 174 145 
-32 -10 404 223 178 149 
-32 -10 406 168 158 156 
-31 -10 407 147 137 135 
-60 -9 411 187 136 107 
-59 -9 406 198 147 118 
-58 -9 405 216 162 128 
-57 -9 403 225 171 137 
-56 -9 403 219 174 132 
-56 -9 402 221 176 134 
-55 -9 401 224 179 138 
-54 -9 400 231 186 145 
-53 -9 400 239 191 155 
-53 -9 399 243 195 159 
-52 -9 399 250 199 168 
-51 -9 399 254 203 172 
-51 -9 399 250 206 179 
-50 -9 399 252 208 181 
-49 -9 398 253 209 182 
-49 -9 398 252 208 181 
-48 -9 398 252 208 181 
-47 -9 398 254 210 183 
-46 -9 397 254 213 185 
-46 -9 397 255 215 187 
-45 -9 398 252 210 185 
-45 -9 398 252 210 185 
-44 -9 398 252 210 185 
-43 -9 398 253 211 186 
-43 -9 398 254 214 188 
-42 -9 398 255 215 189 
-41 -9 398 255 215 189 
-41 -9 398 254 214 188 
-40 -9 398 254 219 191 
-39 -9 398 251 216 188 
-39 -9 399 254 210 181 
-38 -9 399 253 209 180 
-38 -9 399 253 209 182 
-37 -9 400 253 209 182 
-36 -9 400 255 205 174 
-36 -9 401 254 203 172 
-35 -9 401 250 199 168 
-35 -9 402 245 194 163 
-34 -9 402 237 184 150 
-33 -9 403 232 179 145 
-33 -9 404 221 175 142 
-32 -9 404 221 175 142 
-32 -9 405 177 160 150 
-31 -9 407 155 138 128 
-60 -8 409 188 134 100 
-59 -8 405 199 145 111 
-58 -8 405 213 156 126 
-57 -8 403 222 165 135 
-56 -8 402 221 177 132 
-55 -8 401 223 179 134 
-55 -8 401 225 177 137 
-54 -8 400 228 180 140 
-53 -8 399 234 184 147 
-53 -8 399 240 190 153 
-52 -8 399 248 197 166 
-51 -8 399 252 201 170 
-51 -8 399 249 203 177 
-50 -8 399 253 207 181 
-49 -8 398 255 209 183 
-49 -8 398 254 208 182 
-48 -8 398 255 209 183 
-47 -8 397 255 209 183 
-46 -8 397 254 210 183 
-46 -8 397 253 209 182 
-45 -8 397 251 207 180 
-45 -8 397 251 207 180 
-44 -8 398 252 208 183 
-43 -8 398 254 210 185 
-43 -8 398 254 212 187 
-42 -8 398 255 214 189 
-41 -8 398 255 215 190 
-41 -8 398 255 215 190 
-40 -8 398 252 218 193 
-39 -8 398 250 216 191 
-39 -8 398 253 212 182 
-38 -8 399 252 211 181 
-38 -8 399 253 209 182 
-37 -8 400 252 208 181 
-36 -8 400 254 203 172 
-36 -8 401 251 200 169 
-35 -8 401 248 197 166 
-35 -8 401 245 194 163 
-34 -8 402 238 185 151 
-33 -8 403 234 181 147 
-33 -8 404 224 174 139 
-32 -8 404 220 170 135 
-32 -8 405 185 159 142 
-31 -8 407 164 138 121 
-60 -8 409 189 133 98 
-59 -8 405 199 143 108 
-58 -8 404 210 153 124 
-57 -8 403 219 162 133 
-56 -8 401 220 177 134 
-55 -8 401 225 182 139 
-55 -8 401 228 180 140 
-54 -7 400 228 180 140 
-53 -7 399 231 183 145 
-53 -7 399 236 188 150 
-52 -7 399 244 195 162 
-51 -7 399 248 199 166 
-51 -7 399 248 201 173 
-50 -7 399 252 205 177 
-49 -7 398 255 208 180 
-49 -7 398 254 207 179 
-48 -7 398 254 207 181 
-47 -7 397 255 208 182 
-46 -7 397 252 208 181 
-46 -7 397 250 206 179 
-45 -7 397 250 206 179 
-45 -7 397 251 207 180 
-44 -7 397 253 209 184 
-43 -7 398 254 210 185 
-43 -7 398 255 213 188 
-42 -7 398 255 215 190 
-41 -7 398 255 217 192 
-41 -7 398 255 217 192 
-40 -7 398 252 217 195 
-39 -7 398 251 216 194 
-39 -7 398 254 213 185 
-38 -7 398 252 211 183 
-38 -7 399 253 208 179 
-37 -8 400 249 204 175 
-36 -8 400 252 199 167 
-36 -8 401 250 197 165 
-35 -8 401 246 195 164 
-35 -8 401 245 194 163 
-34 -8 402 235 185 150 
-33 -8 403 230 180 145 
-33 -8 404 225 173 134 
-32 -8 404 220 168 129 
-32 -8 405 190 158 135 
-31 -8 407 168 136 113 
-60 -7 410 189 133 96 
-59 -7 406 198 142 105 
-58 -7 404 208 152 125 
-57 -7 403 217 161 134 
-56 -7 402 215 174 128 
-55 -7 400 223 182 136 
-55 -7 400 228 183 141 
-54 -7 400 228 183 141 
-53 -7 399 231 183 145 
-52 -7 398 233 185 147 
-52 -7 398 237 191 157 
-51 -7 398 241 195 161 
-50 -7 398 245 198 170 
-50 -7 398 249 202 174 
-49 -7 398 250 203 175 
-48 -7 397 248 201 173 
-48 -7 397 246 199 171 
-47 -7 397 250 203 175 
-46 -7 397 250 206 179 
-46 -7 397 249 205 178 
-45 -7 397 250 206 179 
-44 -7 396 252 208 181 
-44 -7 397 254 210 185 
-43 -7 397 254 210 185 
-43 -7 397 253 211 186 
-42 -7 397 255 213 188 
-41 -7 397 255 216 191 
-41 -7 398 255 217 192 
-40 -7 398 251 219 196 
-39 -7 398 250 218 195 
-39 -7 398 253 212 184 
-38 -7 398 249 208 180 
-38 -7 399 251 206 175 
-37 -7 399 247 202 171 
-36 -7 400 250 196 162 
-36 -7 400 249 195 161 
-35 -7 400 245 192 160 
-35 -7 401 245 192 160 
-34 -7 402 233 183 148 
-33 -7 403 227 177 142 
-33 -7 404 224 171 129 
-32 -7 405 221 168 126 
-32 -7 406 194 157 130 
-31 -7 407 171 134 107 
-60 -6 408 186 136 103 
-59 -6 405 193 143 110 
-58 -6 404 207 153 115 
-57 -6 403 220 166 128 
-56 -6 402 220 167 127 
-55 -6 401 228 175 135 
-55 -6 400 235 183 144 
-54 -6 399 235 183 144 
-53 -6 399 229 182 152 
-53 -6 399 231 184 154 
-52 -6 398 238 189 157 
-51 -6 398 241 192 160 
-50 -6 398 241 194 164 
-50 -6 398 246 199 169 
-49 -6 397 247 202 171 
-48 -6 397 247 202 171 
-48 -6 397 247 202 173 
-47 -6 397 250 205 176 
-46 -6 397 251 206 177 
-46 -6 397 251 206 177 
-45 -6 397 252 206 180 
-44 -6 396 252 206 180 
-44 -6 397 253 207 181 
-43 -6 397 255 209 183 
-43 -6 397 255 213 186 
-42 -6 397 255 213 186 
-41 -6 397 255 214 189 
-41 -6 398 255 217 192 
-40 -6 398 255 218 191 
-39 -6 398 255 218 191 
-39 -6 398 254 213 183 
-38 -6 398 249 208 178 
-38 -6 398 250 205 176 
-37 -6 399 246 201 172 
-36 -6 399 245 196 166 
-36 -6 400 243 194 164 
-35 -6 400 247 193 159 
-35 -6 401 241 187 153 
-34 -6 402 240 185 146 
-33 -6 403 231 176 137 
-33 -6 404 220 170 133 
-32 -6 405 217 167 130 
-32 -6 406 195 156 123 
-31 -6 407 176 137 104 
-60 -6 409 184 134 101 
-59 -6 405 193 143 110 
-58 -6 404 205 151 113 
-57 -6 403 215 161 123 
-56 -6 402 216 163 123 
-55 -6 401 223 170 130 
-55 -6 400 230 178 139 
-54 -6 400 232 180 141 
-53 -6 399 227 181 148 
-53 -6 399 229 183 150 
-52 -6 399 232 186 152 
-51 -6 398 234 188 154 
-50 -6 398 238 192 159 
-50 -6 398 242 196 163 
-49 -5 397 245 199 166 
-48 -5 397 245 199 166 
-48 -5 397 247 200 170 
-47 -5 397 250 203 173 
-46 -5 397 252 205 175 
-46 -5 397 251 204 174 
-45 -6 397 251 206 177 
-44 -5 396 251 206 177 
-44 -6 397 252 207 178 
-43 -6 397 253 208 179 
-43 -6 397 255 209 183 
-42 -6 397 255 210 184 
-41 -6 397 255 212 186 
-41 -6 398 255 214 188 
-40 -6 398 255 216 187 
-39 -6 398 254 215 186 
-39 -6 398 253 209 180 
-38 -6 398 250 206 177 
-38 -6 399 250 203 173 
-37 -6 399 247 200 170 
-36 -6 400 243 194 162 
-36 -6 400 240 191 159 
-35 -6 401 243 189 153 
-35 -6 401 239 185 149 
-34 -6 402 239 184 143 
-33 -6 403 231 176 135 
-33 -6 404 220 171 131 
-32 -6 405 215 166 126 
-32 -6 406 190 152 116 
-31 -6 407 174 136 100 
-60 -5 408 179 129 96 
-59 -5 405 192 142 109 
-58 -5 404 203 149 113 
-57 -5 403 212 158 122 
-56 -5 402 214 161 121 
-55 -5 401 220 167 127 
-55 -5 401 226 174 134 
-54 -5 400 229 177 137 
-53 -5 400 224 180 145 
-53 -5 399 226 182 147 
-52 -5 399 231 186 147 
-51 -5 398 233 188 149 
-50 -5 398 238 189 156 
-50 -5 398 241 192 159 
-49 -5 397 244 195 162 
-48 -5 397 246 197 164 
-48 -5 397 247 198 165 
-47 -5 397 250 201 168 
-46 -5 397 252 203 171 
-46 -5 397 252 203 171 
-45 -5 397 250 203 173 
-45 -5 397 251 204 174 
-44 -5 397 251 204 176 
-43 -5 397 252 205 177 
-43 -5 397 254 207 179 
-42 -5 397 255 208 180 
-41 -5 398 255 210 182 
-41 -5 398 255 211 183 
-40 -5 398 255 214 186 
-39 -5 398 252 211 183 
-39 -5 398 254 207 177 
-38 -5 398 253 206 176 
-38 -5 399 252 203 173 
-37 -5 399 248 199 169 
-36 -5 400 243 192 161 
-36 -5 400 239 188 157 
-35 -5 401 240 186 150 
-35 -5 402 237 183 147 
-34 -5 402 239 181 141 
-33 -5 403 233 175 135 
-33 -5 404 221 172 131 
-32 -5 405 212 163 122 
-32 -5 406 187 149 113 
-31 -5 407 174 136 100 
-60 -4 409 177 127 94 
-59 -4 406 184 134 101 
-58 -4 404 194 140 106 
-57 -4 403 208 154 120 
-56 -4 402 211 157 119 
-56 -4 402 218 164 126 
-55 -4 401 221 172 131 
-54 -4 401 223 174 133 
-53 -4 400 221 177 140 
-53 -4 400 223 179 142 
-52 -4 399 229 184 143 
-51 -4 399 234 189 148 
-50 -4 398 237 187 150 
-50 -4 398 240 190 153 
-49 -4 398 243 193 158 
-49 -4 398 245 195 160 
-48 -4 397 245 197 161 
-47 -4 397 248 200 164 
-46 -4 397 250 201 168 
-46 -4 397 250 201 168 
-45 -4 397 250 201 169 
-45 -4 397 250 201 169 
-44 -4 397 251 202 172 
-43 -4 397 251 202 172 
-43 -4 397 251 204 174 
-42 -4 398 254 207 177 
-41 -4 398 255 208 180 
-41 -4 398 255 209 181 
-40 -4 399 254 210 183 
-40 -4 399 252 208 181 
-39 -4 399 253 206 176 
-38 -4 399 252 205 175 
-38 -4 399 252 201 170 
-37 -4 399 247 196 165 
-36 -4 400 242 191 160 
-36 -4 400 239 188 157 
-35 -4 401 238 184 148 
-35 -4 402 234 180 144 
-34 -4 403 235 178 135 
-33 -4 403 231 174 131 
-33 -4 404 219 170 129 
-32 -4 405 209 160 119 
-32 -4 406 181 145 109 
-31 -4 407 170 134 98 
-60 -4 410 172 121 90 
-59 -4 406 183 132 101 
-58 -4 405 193 138 107 
-57 -4 404 200 145 114 
-56 -4 403 206 152 116 
-56 -4 402 216 162 126 
-55 -4 401 219 170 129 
-54 -4 401 220 171 130 
-53 -4 400 218 174 135 
-53 -4 400 219 175 136 
-52 -4 400 222 177 136 
-51 -4 399 227 182 141 
-51 -4 399 234 184 147 
-50 -4 398 237 187 150 
-49 -4 398 240 190 153 
-49 -4 398 241 191 154 
-48 -4 398 242 192 157 
-47 -4 397 244 194 159 
-46 -4 397 246 196 163 
-46 -4 397 247 197 164 
-45 -4 397 247 198 165 
-45 -4 397 247 198 165 
-44 -4 397 247 198 166 
-43 -4 397 248 199 167 
-43 -4 397 250 201 171 
-42 -4 398 253 204 174 
-41 -4 398 255 206 176 
-41 -4 398 254 205 175 
-40 -4 399 251 206 177 
-40 -4 399 250 205 176 
-39 -4 399 253 202 171 
-38 -4 399 252 201 170 
-38 -4 399 251 198 166 
-37 -4 399 247 194 162 
-36 -4 399 241 190 159 
-36 -4 400 240 189 158 
-35 -4 401 238 184 148 
-35 -4 402 231 177 141 
-34 -4 403 228 173 132 
-33 -4 403 225 170 129 
-33 -4 404 214 166 126 
-32 -4 405 203 155 115 
-32 -4 406 175 141 106 
-31 -4 407 165 131 96 
-60 -3 411 166 117 85 
-59 -3 407 175 126 94 
-58 -3 405 192 137 107 
-57 -3 404 202 147 117 
-56 -3 403 202 148 114 
-56 -3 402 215 161 127 
-55 -3 402 218 169 129 
-54 -3 401 218 169 129 
-53 -3 400 218 174 135 
-53 -3 400 216 172 133 
-52 -3 400 217 170 128 
-51 -3 399 221 174 132 
-51 -3 399 230 178 139 
-50 -3 399 234 182 143 
-49 -3 398 237 185 146 
-49 -3 398 238 186 147 
-48 -3 397 237 187 150 
-47 -3 397 240 190 153 
-46 -3 397 242 192 157 
-46 -3 397 242 192 157 
-45 -3 397 244 194 159 
-45 -3 397 243 193 158 
-44 -3 397 243 193 160 
-43 -3 397 244 194 161 
-43 -3 397 246 195 164 
-42 -3 398 249 198 167 
-41 -3 398 250 201 169 
-41 -3 399 250 201 169 
-40 -3 399 249 203 170 
-40 -3 399 248 202 169 
-39 -3 399 251 198 164 
-38 -3 399 250 197 163 
-38 -3 399 251 197 163 
-37 -3 399 248 194 160 
-36 -3 399 244 191 159 
-36 -3 400 242 189 157 
-35 -3 401 239 185 149 
-35 -3 402 231 177 141 
-34 -3 402 228 173 132 
-33 -3 403 224 169 128 
-33 -3 404 213 165 127 
-32 -3 405 200 152 114 
-32 -3 406 171 136 104 
-31 -3 407 164 129 97 
-60 -2 411 173 124 91 
-59 -2 407 174 125 92 
-58 -2 405 186 131 101 
-57 -2 404 197 142 112 
-56 -2 403 202 148 114 
-56 -2 402 214 160 126 
-55 -2 402 215 166 125 
-54 -2 401 214 165 124 
-53 -2 400 212 169 127 
-53 -2 400 212 169 127 
-52 -2 400 214 167 125 
-51 -2 400 218 171 129 
-51 -2 399 228 175 135 
-50 -2 399 232 179 139 
-49 -2 398 235 181 143 
-49 -2 398 236 182 144 
-48 -2 397 236 184 145 
-47 -2 397 239 187 148 
-46 -2 397 241 189 152 
-46 -2 397 241 189 152 
-45 -2 397 242 190 153 
-45 -2 397 241 189 152 
-44 -2 397 240 187 153 
-43 -2 397 240 187 153 
-43 -2 398 239 189 154 
-42 -2 398 242 192 157 
-41 -2 398 246 196 163 
-41 -2 398 247 197 164 
-40 -2 399 246 198 162 
-40 -2 399 244 196 160 
-39 -2 399 248 194 156 
-38 -2 399 247 193 155 
-38 -2 399 247 191 156 
-37 -2 400 246 190 155 
-36 -2 400 241 188 154 
-36 -2 400 238 185 151 
-35 -2 401 237 183 147 
-35 -2 402 231 177 141 
-34 -2 402 228 173 132 
-33 -2 403 223 168 127 
-33 -2 405 212 164 126 
-32 -2 405 196 148 110 
-32 -2 406 167 134 103 
-31 -2 407 163 130 99 
-60 -2 411 164 115 82 
-59 -2 407 170 121 88 
-58 -2 405 190 135 105 
-57 -2 404 200 145 115 
-56 -2 403 202 148 114 
-56 -2 403 212 158 124 
-55 -2 402 213 161 121 
-54 -2 401 209 157 117 
-53 -2 401 204 161 119 
-53 -2 400 207 164 122 
-52 -2 400 213 166 122 
-51 -2 400 218 171 127 
-51 -2 400 228 175 135 
-50 -2 399 232 179 139 
-49 -2 399 235 182 142 
-49 -2 398 235 182 142 
-48 -2 398 237 183 145 
-47 -2 397 240 186 148 
-46 -2 397 242 188 150 
-46 -2 397 241 187 149 
-45 -2 397 240 188 149 
-45 -2 397 238 186 147 
-44 -2 397 237 185 148 
-43 -2 397 236 184 147 
-43 -2 398 236 184 147 
-42 -2 398 239 187 150 
-41 -2 398 244 191 157 
-41 -2 399 247 194 160 
-40 -2 399 241 191 154 
-40 -2 399 239 189 152 
-39 -2 399 243 188 149 
-38 -2 399 242 187 148 
-38 -2 400 240 184 147 
-37 -2 400 239 183 146 
-36 -2 400 237 183 149 
-36 -2 401 232 178 144 
-35 -2 401 232 176 141 
-35 -2 402 229 173 138 
-34 -2 402 228 170 130 
-33 -2 403 223 165 125 
-33 -2 405 209 161 125 
-32 -2 406 192 144 108 
-32 -2 406 164 129 101 
-31 -2 407 163 128 100 
-60 -1 411 167 118 101 
-59 -1 407 165 116 99 
-58 -1 405 177 134 102 
-57 -1 404 190 147 115 
-56 -1 403 196 146 109 
-56 -1 403 201 151 114 
-55 -1 402 206 152 114 
-54 -1 401 205 151 113 
-53 -1 401 205 156 115 
-53 -1 401 209 160 119 
-52 -1 400 217 162 121 
-51 -1 400 221 166 125 
-51 -1 400 229 171 133 
-50 -1 399 232 174 136 
-49 -1 399 233 175 137 
-49 -1 398 236 178 140 
-48 -1 398 237 181 144 
-47 -1 397 238 182 145 
-46 -1 397 237 181 146 
-46 -1 397 240 184 149 
-45 -1 397 239 185 149 
-45 -1 397 239 185 149 
-44 -1 397 236 183 149 
-43 -1 397 235 182 148 
-43 -1 398 235 182 150 
-42 -1 398 238 185 153 
-41 -1 398 242 189 157 
-41 -1 398 241 188 156 
-40 -1 398 235 185 150 
-40 -1 399 234 184 149 
-39 -1 399 242 182 146 
-38 -1 399 242 182 146 
-38 -1 400 235 182 150 
-37 -1 400 232 179 147 
-36 -1 400 228 177 134 
-36 -1 401 224 173 130 
-35 -1 402 227 168 134 
-35 -1 402 228 169 135 
-34 -1 402 214 165 125 
-33 -1 403 207 158 118 
-33 -1 405 208 149 105 
-32 -1 405 192 133 89 
-32 -1 406 147 128 122 
-31 -1 407 149 130 124 
-60 0 409 146 111 91 
-59 0 407 156 121 101 
-58 0 405 179 134 103 
-57 0 404 187 142 111 
-56 0 404 191 143 105 
-56 0 403 197 149 111 
-55 0 402 203 149 111 
-54 0 401 204 150 112 
-53 0 401 204 155 114 
-53 0 401 208 159 118 
-52 0 400 215 162 120 
-51 0 400 218 165 123 
-51 0 399 221 166 127 
-50 0 399 225 170 131 
-49 0 399 229 174 135 
-49 0 398 232 177 138 
-48 0 398 233 179 141 
-47 0 397 234 180 142 
-46 0 397 234 180 142 
-46 0 397 236 182 144 
-45 0 397 239 185 149 
-45 0 397 239 185 149 
-44 0 397 236 184 147 
-43 0 398 236 184 147 
-43 0 398 235 182 148 
-42 0 398 236 183 149 
-41 0 398 238 185 151 
-41 0 398 237 184 150 
-40 0 398 232 183 150 
-39 0 398 231 182 149 
-39 0 399 238 182 145 
-38 0 399 238 182 145 
-38 0 400 234 179 148 
-37 0 400 230 175 144 
-36 0 400 226 173 131 
-36 0 401 221 168 126 
-35 0 402 225 166 132 
-35 0 402 222 163 129 
-34 0 402 210 161 121 
-33 0 403 204 155 115 
-33 0 405 200 145 106 
-32 0 405 187 132 93 
-32 0 406 142 134 132 
-31 0 407 143 135 133 
-59 0 406 142 126 101 
-58 0 404 173 124 94 
-57 0 404 188 139 109 
-56 0 404 192 140 101 
-56 0 403 197 145 106 
-55 0 402 203 148 109 
-54 0 402 206 151 112 
-53 0 401 207 155 115 
-53 0 401 210 158 118 
-52 0 400 215 162 120 
-51 0 399 217 164 122 
-51 0 399 221 167 129 
-50 0 399 225 171 133 
-49 0 398 229 175 137 
-49 0 398 231 177 139 
-48 0 398 231 177 139 
-47 0 397 231 177 139 
-46 0 397 232 178 140 
-46 0 397 232 178 140 
-45 0 397 234 182 143 
-45 0 397 234 182 143 
-44 0 397 234 182 145 
-43 0 398 236 184 147 
-43 0 398 236 184 147 
-42 0 398 236 184 147 
-41 0 398 238 186 149 
-41 0 398 237 185 148 
-40 0 398 231 182 150 
-40 0 399 230 181 149 
-39 0 399 234 182 142 
-38 0 399 235 183 143 
-38 0 399 234 178 145 
-37 0 400 232 176 143 
-37 0 401 228 172 135 
-36 0 401 223 167 130 
-35 0 402 223 167 134 
-35 0 402 216 160 127 
-34 0 403 209 157 120 
-33 0 403 201 149 112 
-33 0 404 186 136 103 
-32 0 405 177 127 94 
-32 0 406 132 137 141 
-31 0 407 133 138 142 
-58 1 404 174 118 93 
-57 1 404 182 126 101 
-56 1 404 186 134 95 
-56 1 403 193 141 102 
-55 1 403 204 144 108 
-54 1 402 208 148 112 
-53 1 401 209 153 116 
-53 1 401 212 156 119 
-52 1 400 215 162 120 
-51 1 399 219 166 124 
-51 1 399 221 169 130 
-50 1 399 225 173 134 
-49 1 398 229 177 138 
-49 1 398 231 179 140 
-48 1 398 232 180 141 
-47 1 397 233 181 142 
-46 1 397 233 181 142 
-46 1 397 232 180 141 
-45 1 398 236 182 144 
-45 1 398 236 182 144 
-44 1 398 237 183 145 
-43 1 398 239 185 147 
-43 1 398 241 187 149 
-42 1 398 240 186 148 
-41 1 398 241 187 149 
-41 1 398 241 187 149 
-40 1 398 238 187 158 
-39 1 398 236 185 156 
-39 1 399 235 186 145 
-38 1 399 234 185 144 
-38 1 399 236 180 145 
-37 1 400 234 178 143 
-37 1 401 228 174 138 
-36 1 401 223 169 133 
-35 1 402 226 172 138 
-35 1 402 219 165 131 
-34 1 403 214 162 125 
-33 1 403 205 153 116 
-33 1 404 185 135 110 
-32 1 404 176 126 101 
-32 1 405 132 141 146 
-31 1 406 133 142 147 
-58 2 404 119 123 98 
-58 2 404 165 109 84 
-57 2 404 182 126 101 
-56 2 403 185 133 96 
-56 2 403 193 141 104 
-55 2 403 203 143 109 
-54 2 402 206 146 112 
-53 2 401 209 153 118 
-53 2 400 213 157 122 
-52 2 400 212 163 122 
-51 2 399 217 168 127 
-51 2 399 223 171 134 
-50 2 399 227 175 138 
-49 2 398 232 180 143 
-49 2 398 234 182 145 
-48 2 398 237 183 147 
-47 2 398 237 183 147 
-46 2 397 237 183 147 
-46 2 397 236 182 146 
-45 2 397 239 185 149 
-45 2 397 240 186 150 
-44 2 398 240 186 150 
-43 2 398 242 188 152 
-43 2 398 242 188 152 
-42 2 398 241 187 151 
-41 2 398 241 187 151 
-41 2 398 241 187 151 
-40 2 398 241 185 158 
-39 2 398 240 184 157 
-39 2 399 235 186 146 
-38 2 399 233 184 144 
-38 2 399 236 180 145 
-37 2 400 232 176 141 
-36 2 400 223 173 138 
-36 2 401 220 170 135 
-35 2 401 220 167 135 
-35 2 402 216 163 131 
-34 2 402 215 163 126 
-33 2 402 206 154 117 
-33 2 403 187 137 114 
-32 2 404 178 128 105 
-32 2 404 142 138 139 
-31 2 405 142 138 139 
-57 2 403 177 123 97 
-56 2 403 179 129 94 
-56 2 402 188 138 103 
-55 2 402 199 140 108 
-54 2 401 203 144 112 
-53 2 401 208 155 121 
-53 2 400 214 161 127 
-52 2 399 212 167 125 
-51 2 398 216 171 129 
-50 2 398 222 169 135 
-50 2 398 226 173 139 
-49 2 398 231 178 144 
-49 2 398 233 180 146 
-48 2 398 235 182 148 
-47 2 397 235 182 148 
-46 2 397 235 182 148 
-46 2 397 236 183 149 
-45 2 397 238 185 153 
-45 2 397 240 187 155 
-44 2 397 240 187 155 
-43 2 397 242 189 157 
-43 2 398 244 191 159 
-42 2 398 243 190 158 
-41 2 398 242 192 159 
-41 2 398 243 193 160 
-40 2 398 248 194 168 
-39 2 398 248 194 168 
-39 2 398 243 193 160 
-38 2 399 241 191 158 
-38 2 399 244 187 157 
-37 2 399 240 183 153 
-36 2 400 229 183 150 
-36 2 400 229 183 150 
-35 2 401 234 181 149 
-35 2 401 232 179 147 
-34 2 401 227 177 142 
-33 2 402 220 170 135 
-33 2 402 207 159 136 
-32 2 403 198 150 127 
-32 2 404 178 153 146 
-31 2 404 178 153 146 
-30 2 405 161 153 150 
-58 3 403 124 113 93 
-58 3 403 166 115 88 
-57 3 402 182 131 104 
