ply
format ascii 1.0
comment Created by CloudCompare v2.10.1 (Zephyrus)
comment Created 2020-05-17 12:56 AM
obj_info Generated by CloudCompare!
element vertex 1855
property float x
property float y
property float z
property uchar red
property uchar green
property uchar blue
end_header
-58 -14 359 119 127 130 
-58 -14 358 120 128 131 
-57 -14 358 123 128 131 
-56 -14 357 123 128 131 
-56 -14 356 123 129 129 
-55 -14 356 124 130 130 
-54 -14 356 129 126 121 
-54 -14 356 130 127 122 
-53 -14 356 133 128 124 
-53 -14 356 137 132 128 
-52 -14 355 140 135 131 
-51 -14 355 141 136 132 
-51 -14 355 143 138 135 
-50 -14 354 146 141 138 
-49 -14 354 148 140 138 
-49 -14 355 150 142 140 
-48 -14 355 152 142 141 
-48 -14 355 152 142 141 
-47 -14 355 154 144 145 
-47 -14 355 154 144 145 
-46 -14 355 153 142 146 
-46 -14 356 154 143 147 
-45 -14 356 152 145 139 
-45 -14 356 152 145 139 
-44 -14 357 155 140 133 
-44 -14 358 155 140 133 
-43 -14 358 147 134 126 
-43 -14 359 143 130 122 
-42 -14 359 131 127 118 
-58 -14 355 129 131 128 
-58 -14 355 136 133 124 
-57 -14 355 139 136 127 
-57 -14 355 154 138 123 
-56 -14 354 157 141 126 
-55 -14 354 168 141 122 
-55 -14 354 171 144 125 
-54 -14 354 199 149 124 
-54 -14 354 201 151 126 
-53 -14 354 205 155 128 
-52 -14 354 209 159 132 
-52 -14 354 211 162 132 
-51 -14 354 210 161 131 
-51 -14 353 211 164 134 
-50 -14 353 215 168 138 
-49 -14 353 217 170 142 
-49 -14 353 219 172 144 
-48 -14 354 222 172 147 
-48 -14 354 224 174 149 
-47 -14 354 226 175 154 
-47 -14 354 225 174 153 
-46 -14 354 221 173 153 
-46 -14 355 222 174 154 
-45 -14 355 219 177 161 
-44 -14 355 221 179 163 
-44 -14 355 223 177 161 
-43 -14 356 219 173 157 
-43 -14 356 212 166 150 
-42 -14 357 196 150 134 
-42 -14 357 178 141 122 
-41 -14 357 186 149 130 
-41 -14 357 208 167 145 
-63 -13 355 127 131 134 
-62 -13 355 131 132 134 
-62 -13 355 131 132 134 
-61 -13 354 140 132 129 
-60 -13 354 144 136 133 
-60 -13 354 159 137 123 
-59 -13 354 162 140 126 
-59 -13 353 180 143 116 
-58 -13 353 184 147 120 
-57 -13 353 197 147 114 
-57 -13 353 200 150 117 
-56 -13 353 209 152 123 
-55 -13 352 212 155 126 
-55 -13 352 217 157 133 
-54 -13 352 220 160 136 
-54 -13 352 220 166 140 
-53 -13 353 222 168 142 
-53 -13 352 227 173 147 
-52 -13 352 231 177 151 
-51 -13 352 228 177 150 
-51 -13 352 226 175 148 
-50 -13 352 228 177 150 
-50 -13 352 233 182 155 
-49 -13 352 233 183 158 
-49 -13 352 233 183 158 
-48 -13 353 234 184 161 
-48 -13 353 235 185 162 
-47 -13 353 235 184 163 
-46 -13 353 234 183 162 
-46 -13 353 230 182 162 
-45 -13 354 230 182 162 
-45 -13 354 233 183 156 
-44 -13 354 235 185 158 
-44 -13 354 240 190 167 
-43 -13 355 239 189 166 
-43 -13 355 237 189 166 
-42 -13 355 221 173 150 
-42 -13 355 206 160 134 
-41 -13 355 219 173 147 
-68 -12 356 126 131 137 
-68 -12 356 127 132 138 
-67 -12 355 132 132 140 
-66 -12 355 133 133 141 
-66 -12 354 134 134 134 
-65 -12 354 133 133 133 
-64 -12 354 136 136 128 
-64 -12 353 139 139 131 
-63 -12 353 168 133 127 
-63 -12 353 173 138 132 
-62 -12 353 188 145 128 
-61 -12 353 194 151 134 
-61 -12 353 208 155 124 
-60 -12 352 213 160 129 
-59 -12 352 218 162 127 
-59 -12 352 221 165 130 
-58 -12 352 222 169 135 
-58 -12 351 222 169 135 
-57 -12 351 222 171 140 
-56 -12 351 223 172 141 
-56 -12 351 227 172 142 
-55 -12 351 229 174 144 
-55 -12 352 234 175 145 
-54 -12 351 234 175 145 
-54 -12 351 226 170 143 
-53 -12 351 227 171 144 
-52 -12 351 230 176 150 
-52 -12 351 236 182 156 
-51 -12 351 236 184 160 
-51 -12 351 236 184 160 
-50 -12 351 238 186 164 
-50 -12 351 242 190 168 
-49 -12 351 242 191 170 
-49 -12 351 240 189 168 
-48 -12 352 239 191 169 
-48 -12 352 240 192 170 
-47 -12 352 238 192 169 
-46 -12 352 236 190 167 
-46 -12 353 235 189 166 
-45 -12 353 233 187 164 
-45 -12 354 236 189 161 
-44 -12 354 237 190 162 
-44 -12 354 242 194 172 
-43 -12 354 240 192 170 
-43 -12 355 241 193 171 
-42 -12 355 227 179 157 
-42 -12 355 211 165 139 
-69 -12 354 132 132 132 
-68 -12 354 132 132 132 
-68 -12 353 141 132 127 
-67 -12 353 148 139 134 
-66 -12 352 170 143 132 
-66 -12 352 176 149 138 
-65 -12 351 192 151 133 
-64 -12 351 194 153 135 
-64 -12 351 204 154 131 
-63 -12 351 208 158 135 
-63 -12 351 218 162 129 
-62 -12 351 220 164 131 
-62 -12 351 221 168 134 
-61 -12 351 221 168 134 
-60 -12 351 221 171 138 
-60 -12 351 223 173 140 
-59 -12 350 226 173 141 
-59 -12 350 230 177 145 
-58 -12 350 236 177 147 
-57 -12 350 235 176 146 
-57 -12 350 239 175 147 
-56 -12 351 241 177 149 
-56 -12 351 239 177 152 
-55 -12 351 240 178 153 
-55 -12 351 238 180 156 
-54 -12 351 237 179 155 
-54 -12 351 234 178 151 
-53 -12 351 233 177 150 
-52 -12 351 236 182 156 
-52 -12 351 242 188 162 
-51 -12 351 243 191 169 
-51 -12 351 245 193 171 
-50 -12 351 247 195 174 
-50 -12 351 249 197 176 
-49 -12 351 247 196 175 
-49 -12 351 245 194 173 
-48 -12 351 242 195 175 
-48 -12 352 243 196 176 
-47 -12 352 241 196 173 
-46 -12 352 240 195 172 
-46 -12 352 241 197 172 
-45 -12 353 239 195 170 
-45 -12 353 242 195 169 
-44 -12 353 241 194 168 
-44 -12 354 248 200 180 
-43 -12 354 245 197 177 
-43 -12 354 246 195 176 
-42 -12 354 237 186 167 
-74 -11 355 134 129 136 
-74 -11 355 133 131 132 
-73 -11 354 133 131 132 
-72 -11 353 124 129 135 
-72 -11 353 127 132 138 
-71 -11 352 141 134 128 
-70 -11 352 145 138 132 
-70 -11 352 166 139 122 
-69 -11 352 173 146 129 
-69 -11 352 192 146 122 
-68 -11 351 194 148 124 
-67 -11 351 207 150 120 
-67 -11 351 212 155 125 
-66 -11 350 221 161 125 
-65 -11 350 225 165 129 
-65 -11 349 223 169 135 
-64 -11 349 223 169 135 
-63 -11 349 219 169 142 
-63 -11 349 220 170 143 
-62 -11 349 230 169 140 
-62 -11 350 232 171 142 
-61 -11 350 234 173 142 
-61 -11 350 235 174 143 
-60 -11 350 237 176 147 
-60 -11 350 239 178 149 
-59 -11 349 236 180 153 
-58 -11 349 239 183 156 
-58 -11 350 236 184 160 
-57 -11 350 235 183 159 
-57 -11 350 238 184 158 
-56 -11 350 239 185 159 
-56 -11 351 240 185 154 
-55 -11 351 241 186 155 
-55 -11 351 243 187 152 
-54 -11 351 242 186 151 
-54 -11 351 243 186 159 
-53 -11 351 243 186 159 
-52 -11 351 245 189 162 
-52 -11 351 249 193 166 
-51 -11 351 251 195 170 
-51 -11 351 252 196 171 
-50 -11 351 253 199 173 
-50 -11 351 254 200 174 
-49 -11 351 255 203 179 
-49 -11 351 254 202 178 
-48 -11 351 254 204 179 
-47 -11 351 253 203 178 
-47 -11 351 250 202 179 
-46 -11 352 251 203 180 
-46 -11 352 252 205 179 
-45 -11 352 251 204 178 
-45 -11 353 246 206 181 
-44 -11 353 245 205 180 
-44 -11 353 253 208 185 
-43 -11 353 250 205 182 
-42 -11 353 248 200 178 
-42 -11 354 244 196 174 
-74 -11 353 136 129 136 
-74 -11 352 138 131 138 
-73 -11 352 140 134 134 
-72 -11 351 143 137 137 
-72 -11 350 180 137 118 
-71 -11 350 186 143 124 
-70 -11 349 198 151 123 
-70 -11 350 206 159 131 
-69 -11 350 216 163 129 
-69 -11 350 220 167 133 
-68 -11 350 223 167 132 
-68 -11 350 222 166 131 
-67 -11 350 229 171 134 
-66 -11 349 230 172 135 
-66 -11 349 228 173 132 
-65 -11 349 229 174 133 
-65 -11 349 230 178 139 
-64 -10 348 232 180 141 
-63 -10 348 229 180 148 
-63 -11 349 229 180 148 
-62 -11 349 238 179 145 
-62 -11 349 239 180 146 
-61 -11 350 242 183 153 
-61 -11 350 241 182 152 
-60 -11 350 240 183 156 
-60 -11 350 242 185 158 
-59 -11 349 243 185 163 
-58 -11 349 245 187 165 
-58 -11 349 249 189 163 
-57 -11 349 249 189 163 
-57 -11 350 251 190 161 
-56 -11 350 252 191 162 
-56 -11 350 252 193 163 
-55 -11 350 253 194 164 
-55 -11 350 250 197 166 
-54 -11 350 250 197 166 
-53 -11 350 249 192 172 
-53 -11 350 250 193 173 
-52 -11 350 252 197 176 
-52 -11 351 255 200 179 
-51 -11 351 253 201 177 
-51 -11 351 254 202 178 
-50 -11 351 255 207 180 
-50 -11 351 255 210 183 
-49 -11 351 254 204 177 
-49 -11 351 255 205 178 
-48 -11 351 254 208 184 
-47 -11 351 254 208 184 
-47 -11 351 252 207 184 
-46 -11 352 252 207 184 
-46 -11 352 252 206 183 
-45 -11 352 251 205 182 
-45 -11 352 253 206 186 
-44 -11 353 251 204 184 
-44 -11 353 255 208 187 
-43 -11 353 255 205 184 
-42 -11 353 255 199 179 
-42 -11 353 255 201 181 
-80 -10 355 129 118 114 
-79 -10 355 133 131 134 
-79 -10 354 124 122 125 
-78 -10 354 123 127 130 
-77 -10 352 127 131 134 
-76 -10 351 131 129 130 
-76 -10 351 133 131 132 
-75 -10 350 148 134 125 
-74 -10 350 155 141 132 
-74 -10 350 178 143 123 
-73 -10 349 187 152 132 
-73 -10 349 206 155 126 
-72 -10 349 210 159 130 
-71 -10 349 221 167 131 
-71 -10 349 224 170 134 
-70 -10 349 225 173 134 
-70 -10 349 225 173 134 
-69 -10 349 227 175 136 
-69 -10 349 227 175 136 
-68 -10 349 227 173 137 
-67 -10 349 228 174 138 
-67 -10 349 230 176 140 
-66 -10 349 230 176 140 
-66 -10 349 232 178 140 
-65 -10 349 233 179 141 
-64 -10 348 235 181 143 
-64 -10 348 236 182 144 
-63 -10 348 239 183 148 
-63 -10 348 240 184 149 
-62 -10 348 242 183 153 
-62 -10 348 242 183 153 
-61 -10 349 243 186 157 
-61 -10 349 245 188 159 
-60 -10 349 245 188 159 
-60 -10 349 246 189 160 
-59 -10 349 246 190 163 
-58 -10 348 245 189 162 
-58 -10 348 248 192 165 
-57 -10 349 251 195 168 
-57 -10 349 251 197 171 
-56 -10 349 251 197 171 
-56 -10 349 251 197 171 
-55 -10 349 252 198 172 
-55 -10 350 252 198 172 
-54 -10 350 251 197 171 
-53 -10 350 248 197 176 
-53 -10 350 248 197 176 
-52 -10 350 248 198 175 
-52 -10 350 249 199 176 
-51 -10 351 252 202 179 
-51 -10 351 255 205 182 
-50 -10 351 255 205 182 
-50 -10 351 255 205 182 
-49 -10 351 255 205 182 
-49 -10 351 254 204 181 
-48 -10 351 254 204 179 
-47 -10 351 255 205 180 
-47 -10 351 253 203 178 
-46 -10 351 253 203 178 
-46 -10 351 253 203 178 
-45 -10 352 253 203 178 
-45 -10 352 255 206 183 
-44 -10 353 255 208 185 
-44 -10 353 255 205 184 
-43 -10 353 253 202 181 
-42 -10 353 250 200 177 
-42 -10 353 254 204 181 
-84 -9 354 126 93 84 
-83 -9 354 127 94 85 
-83 -9 354 136 100 88 
-82 -9 354 133 97 85 
-82 -9 354 128 107 102 
-81 -9 354 126 105 100 
-80 -9 353 120 109 105 
-79 -9 352 127 116 112 
-79 -9 352 118 109 102 
-78 -9 351 123 114 107 
-77 -9 351 157 138 123 
-77 -9 350 158 139 124 
-76 -9 350 183 146 120 
-75 -9 349 189 152 126 
-75 -9 349 207 156 125 
-74 -9 349 213 162 131 
-74 -9 349 222 168 134 
-73 -9 349 226 172 138 
-73 -9 349 228 175 141 
-72 -9 349 231 178 144 
-71 -9 349 234 180 144 
-71 -9 348 235 181 145 
-70 -9 348 235 181 145 
-70 -9 349 235 181 145 
-69 -9 348 236 182 146 
-68 -9 348 236 182 146 
-68 -9 348 235 181 147 
-67 -9 348 234 180 146 
-67 -9 348 233 177 144 
-66 -9 348 234 178 145 
-66 -9 348 234 180 146 
-65 -9 348 236 182 148 
-64 -9 348 239 185 151 
-64 -9 348 240 186 152 
-63 -9 347 243 187 154 
-63 -9 348 244 188 155 
-62 -9 348 247 190 161 
-62 -9 348 246 189 160 
-61 -9 348 247 190 161 
-60 -9 348 248 191 162 
-60 -9 348 248 191 164 
-59 -9 348 248 191 164 
-59 -9 348 248 192 165 
-58 -9 348 247 191 164 
-58 -9 348 249 193 168 
-57 -9 348 252 196 171 
-57 -9 349 252 198 172 
-56 -9 349 252 198 172 
-56 -9 349 251 197 173 
-55 -9 349 252 198 174 
-54 -9 349 253 199 175 
-54 -9 349 252 198 174 
-53 -9 349 247 197 174 
-53 -9 349 248 198 175 
-52 -9 349 249 197 175 
-52 -9 349 249 197 175 
-51 -9 350 251 199 177 
-51 -9 350 252 200 178 
-50 -9 350 251 201 178 
-50 -9 350 252 202 179 
-49 -9 350 254 204 181 
-48 -9 350 254 204 181 
-48 -9 350 255 204 180 
-47 -9 350 255 204 180 
-47 -9 350 255 203 179 
-46 -9 350 253 201 177 
-46 -9 351 252 202 177 
-45 -9 351 253 203 178 
-45 -9 352 253 203 178 
-44 -9 352 253 203 178 
-44 -9 352 252 202 179 
-43 -9 352 250 200 177 
-42 -9 352 248 198 175 
-42 -9 352 252 202 179 
-84 -9 353 128 94 84 
-84 -9 353 136 98 85 
-83 -9 352 135 97 84 
-82 -9 351 136 97 80 
-81 -9 351 132 93 76 
-81 -9 351 128 101 90 
-80 -9 351 139 112 101 
-79 -9 350 162 124 105 
-79 -9 349 172 134 115 
-78 -9 349 181 130 101 
-78 -9 349 190 139 110 
-77 -9 348 213 159 123 
-76 -9 348 216 162 126 
-76 -9 349 216 166 129 
-75 -9 348 221 171 134 
-75 -9 348 223 177 141 
-74 -9 348 225 179 143 
-73 -9 348 233 179 145 
-73 -9 348 234 180 146 
-72 -9 348 241 178 143 
-72 -9 348 243 180 145 
-71 -9 348 241 185 152 
-71 -9 348 240 184 151 
-70 -9 347 238 184 150 
-69 -9 348 238 184 150 
-69 -9 347 239 185 151 
-68 -9 347 239 185 151 
-68 -9 347 239 182 152 
-67 -9 347 240 183 153 
-66 -9 347 240 183 153 
-66 -9 347 241 184 154 
-65 -9 347 242 185 155 
-65 -9 347 244 187 157 
-64 -9 347 246 189 159 
-64 -9 347 248 191 161 
-63 -9 347 249 192 163 
-63 -9 347 249 192 163 
-62 -9 347 251 194 167 
-62 -9 348 251 194 167 
-61 -9 348 250 192 168 
-60 -9 348 249 191 167 
-60 -9 348 248 192 167 
-59 -9 348 248 192 167 
-59 -9 348 248 192 167 
-58 -9 348 248 192 167 
-58 -9 348 249 193 168 
-57 -9 348 250 194 169 
-57 -9 348 251 197 173 
-56 -9 349 251 197 173 
-56 -9 349 250 196 172 
-55 -9 349 250 196 172 
-54 -9 349 251 197 173 
-54 -9 349 252 198 174 
-53 -9 349 249 197 175 
-53 -9 349 250 198 176 
-52 -9 349 253 198 177 
-52 -9 349 253 198 177 
-51 -9 349 252 200 176 
-51 -9 350 251 199 175 
-50 -9 350 249 197 175 
-50 -9 350 250 198 176 
-49 -9 350 250 198 176 
-48 -9 350 252 200 178 
-48 -9 350 253 201 177 
-47 -9 350 252 200 176 
-47 -9 350 252 200 176 
-46 -9 350 250 198 174 
-46 -9 351 246 196 173 
-45 -9 351 245 195 172 
-45 -9 351 248 198 173 
-44 -9 351 246 196 171 
-43 -9 351 247 197 172 
-43 -9 352 246 196 171 
-42 -9 352 246 194 170 
-42 -9 352 247 195 171 
-85 -8 354 124 87 71 
-85 -8 353 125 88 70 
-84 -8 351 129 92 74 
-83 -8 351 141 100 82 
-82 -8 350 149 108 90 
-81 -8 349 164 119 98 
-81 -8 349 177 132 111 
-80 -8 349 194 141 107 
-80 -8 349 208 155 121 
-79 -8 348 215 159 126 
-78 -8 348 218 162 129 
-78 -8 348 229 168 137 
-77 -8 348 231 170 139 
-77 -8 348 229 173 138 
-76 -8 347 234 178 143 
-76 -8 348 232 182 145 
-75 -8 348 233 183 146 
-74 -8 347 229 185 150 
-74 -8 347 229 185 150 
-73 -8 347 234 185 155 
-73 -8 347 236 187 157 
-72 -8 347 242 186 161 
-72 -8 347 242 186 161 
-71 -8 347 243 186 156 
-70 -8 347 243 186 156 
-70 -8 347 243 188 157 
-69 -8 347 244 189 158 
-69 -8 347 244 189 158 
-68 -8 347 244 189 158 
-68 -8 347 245 188 159 
-67 -8 347 246 189 160 
-66 -8 347 246 189 160 
-66 -8 347 246 189 160 
-65 -8 347 246 191 161 
-65 -8 347 246 191 161 
-64 -8 347 248 192 165 
-64 -8 347 249 193 166 
-63 -8 347 249 193 166 
-63 -8 347 249 193 166 
-62 -8 347 249 193 168 
-62 -8 348 249 193 168 
-61 -8 348 248 192 167 
-60 -8 348 247 191 166 
-60 -8 348 247 191 166 
-59 -8 348 246 190 165 
-59 -8 348 247 191 166 
-58 -8 348 247 191 166 
-58 -8 348 249 193 170 
-57 -8 348 250 194 171 
-57 -8 348 252 196 173 
-56 -8 348 252 196 173 
-55 -8 348 250 196 172 
-55 -8 349 250 196 172 
-54 -8 349 251 197 173 
-54 -8 348 252 198 174 
-53 -8 349 249 195 171 
-53 -8 349 251 197 173 
-52 -8 349 252 198 174 
-52 -8 349 254 200 176 
-51 -8 349 254 200 176 
-51 -8 350 252 198 174 
-50 -8 350 248 196 174 
-50 -8 350 248 196 174 
-49 -8 350 249 197 175 
-48 -8 350 250 198 176 
-48 -8 350 249 197 173 
-47 -8 350 248 196 172 
-47 -8 350 247 197 172 
-46 -8 350 245 195 170 
-46 -8 350 241 191 168 
-45 -8 351 237 187 164 
-45 -8 351 240 190 163 
-44 -8 351 239 189 162 
-43 -8 351 240 190 163 
-43 -8 351 240 190 163 
-42 -8 352 239 188 161 
-42 -8 352 238 187 160 
-84 -8 351 166 123 104 
-83 -8 350 182 139 120 
-83 -8 349 201 155 132 
-82 -8 349 213 167 144 
-81 -8 348 219 169 144 
-81 -8 348 225 175 150 
-80 -8 348 233 169 141 
-79 -8 347 234 170 142 
-79 -8 347 227 174 143 
-78 -8 347 228 175 144 
-78 -8 347 227 182 149 
-77 -8 347 229 184 151 
-77 -8 347 229 184 151 
-76 -8 347 230 185 152 
-75 -8 347 237 186 155 
-75 -8 347 237 186 155 
-74 -8 347 242 185 155 
-74 -8 346 243 186 156 
-73 -8 346 243 186 156 
-72 -8 346 244 187 157 
-72 -8 346 243 190 158 
-71 -8 346 243 190 158 
-71 -8 347 245 190 159 
-70 -8 347 246 191 160 
-70 -8 347 248 193 162 
-69 -8 347 249 194 163 
-69 -8 347 249 194 164 
-68 -8 347 248 193 163 
-68 -8 347 248 193 163 
-67 -8 347 248 193 163 
-66 -8 347 246 191 161 
-66 -8 347 246 191 161 
-65 -8 347 246 190 163 
-65 -8 347 246 190 163 
-64 -8 347 246 190 163 
-64 -8 347 246 190 163 
-63 -8 347 247 191 164 
-63 -8 347 247 191 164 
-62 -8 347 247 191 164 
-61 -8 347 247 191 164 
-61 -8 347 247 191 164 
-60 -8 348 246 190 163 
-60 -8 347 245 189 162 
-59 -8 347 245 189 162 
-59 -8 347 246 190 165 
-58 -8 347 246 190 165 
-58 -8 347 246 190 165 
-57 -8 348 247 191 166 
-57 -8 348 248 194 168 
-56 -8 348 249 195 169 
-55 -8 348 248 194 168 
-55 -8 348 246 192 166 
-54 -8 349 246 192 166 
-54 -8 348 247 193 167 
-53 -8 348 246 192 168 
-53 -8 349 247 193 169 
-52 -8 349 249 195 171 
-52 -8 349 250 196 172 
-51 -8 349 247 195 171 
-50 -8 349 245 193 169 
-50 -8 349 245 193 169 
-50 -8 350 245 193 169 
-49 -8 350 246 194 170 
-48 -8 350 244 192 168 
-48 -8 350 241 191 166 
-47 -8 350 238 188 163 
-47 -8 350 237 187 162 
-46 -8 350 236 186 161 
-46 -8 350 232 182 157 
-45 -8 350 229 179 154 
-45 -8 351 230 180 153 
-44 -8 351 230 180 153 
-43 -8 351 233 182 153 
-43 -8 351 233 182 153 
-42 -8 352 232 181 152 
-42 -8 352 229 178 149 
-85 -7 350 169 124 105 
-85 -7 350 202 157 138 
-84 -7 349 223 176 156 
-83 -7 349 227 180 160 
-82 -7 348 233 183 160 
-82 -7 348 239 189 166 
-81 -7 347 240 186 160 
-80 -7 347 240 186 160 
-80 -7 347 235 184 163 
-79 -7 346 234 183 162 
-79 -7 346 238 187 158 
-78 -7 346 239 188 159 
-77 -7 346 241 188 154 
-77 -7 346 243 190 156 
-76 -7 346 243 190 156 
-76 -7 346 245 192 158 
-75 -7 347 245 194 163 
-75 -7 346 246 195 164 
-74 -7 346 251 197 169 
-74 -7 346 251 197 169 
-73 -7 346 250 193 163 
-72 -7 346 249 192 162 
-72 -7 346 251 192 158 
-71 -7 346 251 192 158 
-71 -7 347 247 192 161 
-70 -7 347 247 192 161 
-70 -7 347 248 193 163 
-69 -7 347 249 194 164 
-69 -7 347 248 193 163 
-68 -7 347 246 191 161 
-68 -7 347 245 190 160 
-67 -7 347 243 188 158 
-66 -7 347 245 190 160 
-66 -7 347 245 190 160 
-65 -7 347 245 189 162 
-65 -7 347 245 189 162 
-64 -7 347 245 189 162 
-64 -7 346 245 189 162 
-63 -7 346 245 189 162 
-63 -7 347 245 189 162 
-62 -7 347 247 192 162 
-61 -7 347 246 191 161 
-61 -7 347 245 190 160 
-60 -7 347 244 189 159 
-60 -7 347 243 188 158 
-59 -7 347 243 188 158 
-59 -7 347 244 188 161 
-58 -7 347 244 188 161 
-58 -7 347 242 188 160 
-57 -7 347 244 190 162 
-57 -7 348 244 190 162 
-56 -7 348 244 190 162 
-55 -7 348 244 190 164 
-55 -7 348 241 187 161 
-54 -7 348 240 186 160 
-54 -7 348 241 187 161 
-53 -7 348 242 188 162 
-53 -7 348 243 189 163 
-52 -7 348 243 191 167 
-52 -7 349 244 192 168 
-51 -7 349 241 190 163 
-50 -7 349 239 188 161 
-50 -7 349 240 189 162 
-50 -7 350 239 188 161 
-49 -7 350 240 189 162 
-48 -7 350 236 185 158 
-48 -7 350 233 182 155 
-47 -7 350 231 180 153 
-47 -7 350 227 177 150 
-46 -7 350 226 176 149 
-46 -7 350 225 174 147 
-45 -7 350 222 171 144 
-45 -7 351 225 172 141 
-44 -7 351 226 173 142 
-43 -7 351 227 174 143 
-43 -7 351 227 174 143 
-42 -7 352 227 172 141 
-42 -7 352 223 168 137 
-84 -7 349 227 179 157 
-83 -7 348 239 189 164 
-83 -7 348 239 189 164 
-82 -7 348 243 187 160 
-82 -6 347 249 193 166 
-81 -6 347 252 192 164 
-80 -6 346 250 190 162 
-80 -6 346 247 192 162 
-79 -6 346 249 194 164 
-79 -6 346 248 192 165 
-78 -6 346 245 189 162 
-77 -6 346 247 191 164 
-77 -6 346 250 194 167 
-76 -6 346 253 198 168 
-76 -6 346 255 203 173 
-75 -6 346 253 199 163 
-75 -6 346 253 199 163 
-74 -6 346 255 199 164 
-74 -6 346 255 199 164 
-73 -6 346 251 195 168 
-72 -6 346 248 192 165 
-72 -6 346 247 192 172 
-71 -6 346 248 193 173 
-71 -6 346 246 193 162 
-70 -6 347 245 192 161 
-70 -6 347 247 192 162 
-69 -6 346 246 191 161 
-69 -6 347 245 190 160 
-68 -6 346 244 189 159 
-68 -6 347 243 188 158 
-67 -6 347 240 185 155 
-66 -6 347 241 186 156 
-66 -6 347 242 187 157 
-65 -6 347 243 186 159 
-65 -6 347 243 186 159 
-64 -6 347 244 187 160 
-64 -6 347 244 187 160 
-63 -6 347 243 187 160 
-63 -6 347 243 187 160 
-62 -6 347 245 188 158 
-61 -6 347 244 187 157 
-61 -6 347 241 186 155 
-60 -6 347 239 184 153 
-60 -6 347 238 183 153 
-59 -6 347 239 184 154 
-58 -6 347 241 187 159 
-57 -6 347 241 187 159 
-57 -7 348 242 188 160 
-56 -7 348 242 188 160 
-55 -7 348 239 188 159 
-55 -7 348 237 186 157 
-54 -7 348 237 186 159 
-54 -7 348 237 186 159 
-53 -7 348 238 184 156 
-53 -7 348 238 184 156 
-52 -7 348 236 185 158 
-51 -7 348 235 184 157 
-51 -7 349 233 182 153 
-50 -7 349 233 182 153 
-50 -7 349 235 181 153 
-49 -7 349 233 179 151 
-49 -7 350 235 182 151 
-48 -7 350 231 178 147 
-48 -7 350 225 174 145 
-47 -7 350 223 172 143 
-47 -7 351 222 171 142 
-46 -7 351 221 170 141 
-46 -7 350 221 168 137 
-45 -7 351 219 166 135 
-45 -7 351 218 161 131 
-44 -7 352 218 161 131 
-44 -7 352 219 163 130 
-43 -7 352 217 161 128 
-42 -7 353 214 158 125 
-42 -7 353 209 153 120 
-84 -6 348 234 183 156 
-83 -6 348 244 190 162 
-83 -6 347 248 194 166 
-82 -6 347 249 192 162 
-82 -6 347 252 195 165 
-81 -6 346 255 195 161 
-80 -6 346 255 197 163 
-80 -6 346 249 195 171 
-79 -6 346 250 196 172 
-79 -6 346 253 197 170 
-78 -6 346 252 196 169 
-77 -6 346 253 200 169 
-77 -6 346 255 204 173 
-76 -6 346 255 206 175 
-76 -6 346 255 205 174 
-75 -6 346 255 204 173 
-75 -6 346 255 203 172 
-74 -6 346 255 200 170 
-74 -6 346 253 198 168 
-73 -6 346 251 194 165 
-72 -6 346 246 189 160 
-72 -6 346 242 185 158 
-71 -6 346 243 186 159 
-71 -6 347 241 188 157 
-70 -6 347 240 187 156 
-70 -6 347 241 185 158 
-69 -6 346 240 184 157 
-69 -6 347 239 183 156 
-68 -6 347 239 183 156 
-68 -6 347 239 184 154 
-67 -6 347 238 183 153 
-66 -6 347 237 182 152 
-66 -6 347 237 182 152 
-65 -6 347 238 181 154 
-65 -6 347 239 182 155 
-64 -6 347 241 181 155 
-64 -6 347 242 182 156 
-63 -6 347 240 183 154 
-63 -6 347 240 183 154 
-62 -6 347 241 184 154 
-61 -6 347 240 183 153 
-61 -6 347 236 179 149 
-60 -6 347 234 177 147 
-60 -6 347 234 179 148 
-59 -6 347 234 179 148 
-58 -6 347 234 181 150 
-57 -6 347 234 181 150 
-57 -6 348 235 181 153 
-56 -6 348 235 181 153 
-55 -6 348 231 180 151 
-55 -6 348 231 180 151 
-54 -6 349 232 181 154 
-54 -6 349 231 180 153 
-53 -6 349 234 181 150 
-53 -6 349 232 179 148 
-52 -6 349 229 175 147 
-52 -6 349 227 173 145 
-51 -6 349 228 175 144 
-50 -6 349 229 176 145 
-50 -6 349 228 175 144 
-50 -6 350 225 172 141 
-49 -6 350 225 172 140 
-48 -6 350 220 167 135 
-48 -6 351 214 161 130 
-47 -6 351 212 159 128 
-47 -6 351 214 161 129 
-46 -6 351 214 161 129 
-46 -6 351 212 159 127 
-45 -6 351 211 158 126 
-45 -6 352 211 152 120 
-44 -6 352 211 152 120 
-44 -6 352 211 152 118 
-43 -6 353 207 148 114 
-42 -6 353 201 141 107 
-42 -6 354 195 135 101 
-84 -5 348 233 182 155 
-83 -5 348 248 194 166 
-83 -5 347 250 196 168 
-82 -5 347 255 200 170 
-82 -5 347 254 199 169 
-81 -5 346 251 194 165 
-80 -5 346 252 195 166 
-80 -5 346 252 199 168 
-79 -5 346 252 199 168 
-79 -5 346 248 197 166 
-78 -5 346 247 196 165 
-77 -5 346 250 197 166 
-77 -5 346 250 197 166 
-76 -5 346 250 195 165 
-76 -5 346 251 196 166 
-75 -5 346 250 195 165 
-75 -5 346 250 195 165 
-74 -5 346 248 193 163 
-72 -5 346 237 182 152 
-72 -5 346 237 180 151 
-71 -5 346 239 182 153 
-71 -5 346 239 182 153 
-70 -5 347 239 182 153 
-70 -5 347 238 181 152 
-69 -5 346 236 179 150 
-69 -5 347 236 179 150 
-68 -5 346 236 179 150 
-68 -5 347 237 180 151 
-67 -5 347 239 182 153 
-66 -5 347 237 180 150 
-66 -5 347 237 180 150 
-65 -5 347 237 180 150 
-65 -5 347 237 180 150 
-62 -5 347 240 179 148 
-60 -5 347 234 175 143 
-59 -5 347 233 177 144 
-58 -5 347 232 177 146 
-57 -5 347 232 177 146 
-57 -5 348 231 178 146 
-56 -5 348 229 176 144 
-55 -5 348 228 178 145 
-55 -5 348 232 182 149 
-54 -5 349 232 181 150 
-54 -5 349 231 180 149 
-53 -5 349 232 178 150 
-53 -5 349 230 176 148 
-52 -5 349 229 178 149 
-52 -5 349 227 176 147 
-51 -5 349 222 171 140 
-50 -5 349 221 170 139 
-50 -5 349 224 169 138 
-50 -5 350 219 164 133 
-49 -5 350 222 163 133 
-48 -5 350 219 160 130 
-48 -5 351 216 157 127 
-47 -5 351 214 155 125 
-47 -5 351 211 152 122 
-46 -5 351 211 152 122 
-46 -5 351 212 153 119 
-45 -5 352 212 153 119 
-45 -5 352 209 145 97 
-44 -5 353 208 144 96 
-44 -5 353 200 142 102 
-43 -5 353 195 137 97 
-43 -5 354 185 130 99 
-42 -5 355 178 123 92 
-42 -5 355 164 107 78 
-84 -5 348 232 179 148 
-83 -5 348 247 194 163 
-83 -5 347 250 197 166 
-82 -5 347 253 198 167 
-81 -5 346 252 197 166 
-81 -5 346 253 196 166 
-80 -5 346 253 196 166 
-80 -5 346 248 195 164 
-79 -5 346 246 193 162 
-79 -5 346 244 191 160 
-78 -5 346 243 190 159 
-77 -5 346 244 191 160 
-77 -5 346 244 191 160 
-76 -5 346 243 188 158 
-76 -5 346 242 187 157 
-75 -5 346 240 185 155 
-74 -5 346 239 184 153 
-73 -5 346 233 176 146 
-72 -5 346 231 174 144 
-72 -5 346 231 174 144 
-71 -5 346 232 175 145 
-71 -5 346 231 174 144 
-70 -5 346 231 174 144 
-70 -5 347 229 172 142 
-69 -5 346 228 171 141 
-69 -5 347 229 172 142 
-68 -5 347 231 175 142 
-67 -5 347 231 175 142 
-66 -5 347 232 176 143 
-66 -5 347 231 175 142 
-65 -5 347 232 173 141 
-62 -5 347 230 170 136 
-59 -5 347 227 169 132 
-58 -5 347 227 171 138 
-57 -5 348 225 169 136 
-57 -5 348 222 170 133 
-56 -5 348 221 169 132 
-55 -5 348 223 170 136 
-55 -5 349 228 175 141 
-54 -5 349 227 174 140 
-54 -5 349 225 172 138 
-53 -5 349 227 174 140 
-53 -5 349 225 172 138 
-52 -5 349 225 172 140 
-52 -5 349 222 169 137 
-51 -5 349 214 161 129 
-51 -5 350 212 159 127 
-50 -5 350 213 157 124 
-50 -5 350 210 154 121 
-49 -5 351 211 152 120 
-49 -5 351 208 149 117 
-48 -5 351 207 146 115 
-47 -5 351 205 144 113 
-47 -5 351 203 142 111 
-46 -5 352 203 142 111 
-46 -5 352 203 140 109 
-45 -5 353 201 138 107 
-45 -5 353 197 137 100 
-44 -5 353 190 130 93 
-44 -5 354 182 124 87 
-43 -5 354 175 117 80 
-43 -5 355 170 114 81 
-42 -5 355 169 113 80 
-42 -5 356 153 96 66 
-84 -4 347 203 148 118 
-84 -4 348 230 175 145 
-83 -4 348 246 191 160 
-83 -4 347 247 192 161 
-82 -4 347 248 191 161 
-81 -4 346 248 191 161 
-81 -4 346 252 193 163 
-80 -4 346 250 191 161 
-80 -4 346 244 191 160 
-79 -4 346 241 188 157 
-79 -4 346 240 187 156 
-78 -4 346 240 187 156 
-77 -4 346 241 186 155 
-77 -4 346 241 186 155 
-76 -4 346 237 180 150 
-74 -4 346 231 175 142 
-74 -4 346 229 173 140 
-73 -4 346 227 168 134 
-72 -4 346 226 167 133 
-72 -4 346 227 168 134 
-71 -4 346 227 168 134 
-71 -4 346 226 167 133 
-70 -4 346 226 167 133 
-70 -4 346 225 166 132 
-69 -4 347 224 165 131 
-69 -4 347 225 166 132 
-67 -4 347 224 166 129 
-66 -4 347 225 167 130 
-66 -4 347 224 166 129 
-65 -4 347 224 166 129 
-63 -4 347 224 164 128 
-62 -4 347 223 163 126 
-61 -4 347 223 163 126 
-61 -4 347 223 163 126 
-60 -4 347 222 162 125 
-60 -4 347 220 162 124 
-59 -4 347 219 161 123 
-59 -4 348 219 161 124 
-58 -4 348 219 161 124 
-58 -4 348 222 163 129 
-57 -4 348 218 159 125 
-57 -4 348 214 158 123 
-56 -4 349 213 157 122 
-56 -4 349 213 159 123 
-55 -4 349 219 165 129 
-54 -4 349 221 167 133 
-54 -4 349 220 166 132 
-53 -4 350 220 168 131 
-53 -4 349 218 166 129 
-52 -4 349 217 164 130 
-52 -4 350 214 161 127 
-51 -4 350 207 152 121 
-51 -4 351 203 148 117 
-50 -4 351 204 148 115 
-50 -4 351 203 147 114 
-49 -4 352 204 145 111 
-49 -4 352 200 141 107 
-48 -4 352 197 137 103 
-48 -4 352 193 133 99 
-47 -4 352 193 130 99 
-46 -4 353 194 131 100 
-46 -4 353 194 129 101 
-45 -4 353 193 128 100 
-45 -4 354 188 123 95 
-44 -4 354 182 117 89 
-44 -4 355 178 115 82 
-43 -4 355 173 110 77 
-43 -4 355 167 108 74 
-42 -4 356 166 107 73 
-42 -4 357 148 88 60 
-84 -4 347 200 145 115 
-84 -4 348 221 166 136 
-83 -4 348 237 182 151 
-83 -4 347 239 184 153 
-82 -4 347 241 184 154 
-82 -4 347 242 185 155 
-81 -4 346 245 188 158 
-80 -4 346 233 180 148 
-79 -4 346 232 179 147 
-79 -4 346 233 178 147 
-78 -4 346 232 177 146 
-77 -4 346 232 178 144 
-73 -4 346 223 163 127 
-72 -4 346 221 161 125 
-72 -4 346 221 161 124 
-72 -4 347 220 160 123 
-71 -4 347 217 159 121 
-70 -4 347 217 159 121 
-70 -4 347 217 159 121 
-69 -4 347 216 158 120 
-69 -4 347 215 157 119 
-68 -4 347 215 157 119 
-68 -4 347 215 155 118 
-67 -4 347 214 154 117 
-66 -4 347 215 155 118 
-66 -4 347 214 154 117 
-65 -4 347 216 157 117 
-65 -4 347 219 160 120 
-64 -4 347 222 160 121 
-63 -4 347 218 156 117 
-63 -4 347 216 154 115 
-62 -4 348 219 157 120 
-62 -4 348 218 156 119 
-61 -4 348 214 154 117 
-61 -4 348 212 152 115 
-60 -4 348 211 151 114 
-59 -4 348 211 151 114 
-59 -4 348 211 151 115 
-58 -4 348 211 151 115 
-58 -4 348 213 154 120 
-57 -4 349 210 151 117 
-57 -4 349 209 150 116 
-56 -4 349 207 148 114 
-56 -4 350 205 149 116 
-55 -4 350 208 152 119 
-55 -4 350 211 155 122 
-54 -4 350 214 158 125 
-53 -4 350 210 160 127 
-53 -4 350 207 157 124 
-52 -4 350 209 156 124 
-52 -4 351 206 153 121 
-51 -4 351 199 144 113 
-51 -4 351 194 139 108 
-50 -4 352 195 139 106 
-50 -4 352 194 138 105 
-49 -4 353 194 135 103 
-49 -4 353 190 131 99 
-48 -4 353 184 125 93 
-48 -4 353 178 119 87 
-47 -4 353 179 116 85 
-47 -4 354 179 116 85 
-46 -4 354 181 116 84 
-45 -4 354 181 116 84 
-45 -4 355 170 109 78 
-44 -4 355 168 107 76 
-44 -4 355 174 108 74 
-43 -4 356 169 103 69 
-43 -4 357 164 99 67 
-42 -4 357 162 97 65 
-42 -4 358 143 88 67 
-84 -3 347 198 143 112 
-84 -3 348 212 157 126 
-83 -3 348 229 174 143 
-83 -3 347 231 176 145 
-82 -3 347 234 177 147 
-82 -3 347 233 176 146 
-79 -3 346 229 175 141 
-79 -3 346 229 173 138 
-78 -3 346 228 172 137 
-77 -3 346 226 170 135 
-73 -3 347 215 153 114 
-72 -3 347 213 151 112 
-72 -3 347 212 150 111 
-71 -3 347 207 148 108 
-70 -3 347 207 148 108 
-70 -3 347 206 147 107 
-69 -3 347 206 147 107 
-69 -3 347 207 145 106 
-68 -3 347 206 144 105 
-68 -3 347 207 145 106 
-67 -3 347 207 145 106 
-66 -3 347 207 145 106 
-66 -3 347 206 144 105 
-65 -3 347 207 145 104 
-65 -3 347 209 147 106 
-64 -3 347 212 149 108 
-64 -3 347 212 149 108 
-63 -3 347 211 148 107 
-63 -3 347 210 147 106 
-62 -3 348 209 147 106 
-62 -3 348 207 145 104 
-61 -3 348 205 143 104 
-61 -3 348 204 142 103 
-60 -3 348 203 141 104 
-59 -3 348 203 141 104 
-59 -3 348 202 142 106 
-58 -3 349 202 142 106 
-58 -3 349 205 145 111 
-57 -3 349 204 144 110 
-57 -3 350 202 143 111 
-56 -3 350 200 141 109 
-56 -3 350 199 140 110 
-55 -3 350 199 140 110 
-55 -3 350 200 141 111 
-54 -3 350 203 144 114 
-53 -3 350 202 148 124 
-53 -3 350 198 144 120 
-52 -3 351 196 140 113 
-52 -3 351 193 137 110 
-51 -3 351 188 131 101 
-51 -3 352 183 126 96 
-50 -3 352 182 125 95 
-50 -3 353 181 124 94 
-49 -3 353 180 121 91 
-49 -3 353 177 118 88 
-48 -3 353 173 114 82 
-48 -3 354 169 110 78 
-47 -3 354 169 109 75 
-47 -3 355 168 108 74 
-46 -3 355 169 107 70 
-46 -3 355 167 105 68 
-45 -3 356 162 108 70 
-45 -3 356 157 103 65 
-44 -3 357 161 97 62 
-44 -3 357 156 92 57 
-43 -3 358 150 88 65 
-43 -3 359 153 91 68 
-42 -3 360 138 100 89 
-42 -3 360 141 103 92 
-84 -3 347 204 150 116 
-83 -3 348 224 168 133 
-83 -3 347 226 170 135 
-82 -3 347 227 168 134 
-82 -3 347 225 166 132 
-73 -3 346 209 146 105 
-73 -3 347 207 144 103 
-72 -3 347 205 142 101 
-72 -3 347 205 142 101 
-71 -3 347 202 138 100 
-70 -3 347 201 137 99 
-70 -3 347 201 137 99 
-69 -3 347 202 138 100 
-69 -3 347 202 139 98 
-68 -3 347 202 139 98 
-68 -3 347 202 137 97 
-67 -3 347 202 137 97 
-66 -3 347 202 137 97 
-66 -3 347 200 135 95 
-65 -3 347 198 133 93 
-65 -3 347 198 133 93 
-64 -3 347 201 136 96 
-64 -3 347 203 138 98 
-63 -3 347 205 140 98 
-63 -3 347 206 141 99 
-62 -3 348 201 138 95 
-62 -3 348 200 137 94 
-61 -3 348 199 136 95 
-61 -3 348 197 134 93 
-60 -3 348 197 133 95 
-59 -3 348 198 134 96 
-59 -3 348 198 136 99 
-58 -3 349 199 137 100 
-58 -3 349 198 138 104 
-57 -3 349 195 135 101 
-57 -3 349 193 132 101 
-56 -3 350 190 129 98 
-56 -3 350 191 130 102 
-55 -3 350 190 129 101 
-55 -3 350 186 126 98 
-54 -3 350 189 129 101 
-54 -3 351 187 129 109 
-53 -3 351 182 124 104 
-52 -3 351 180 120 96 
-52 -3 352 178 118 94 
-52 -3 353 176 116 88 
-51 -3 353 176 116 88 
-51 -3 353 177 117 89 
-50 -3 354 176 116 88 
-50 -3 354 170 110 82 
-49 -3 354 167 107 79 
-48 -3 355 163 104 74 
-48 -3 355 160 101 71 
-47 -3 355 160 101 67 
-47 -3 356 158 99 65 
-46 -3 357 153 95 57 
-46 -3 357 149 91 53 
-45 -3 357 153 86 57 
-45 -3 358 150 83 54 
-44 -3 358 142 84 62 
-44 -3 359 143 85 63 
-43 -3 359 136 94 82 
-43 -3 360 141 99 87 
-42 -3 361 129 109 108 
-42 -3 362 135 115 114 
-84 -2 347 191 135 100 
-83 -2 347 215 155 119 
-83 -2 347 217 157 121 
-82 -2 347 219 157 120 
-82 -2 347 217 155 118 
-81 -2 347 219 159 122 
-80 -2 346 220 158 119 
-79 -2 346 215 151 113 
-78 -2 346 212 148 110 
-77 -2 346 208 144 106 
-76 -2 346 203 140 99 
-75 -2 346 203 138 98 
-74 -2 346 201 133 94 
-74 -2 346 200 132 93 
-73 -2 346 201 133 94 
-73 -2 347 201 133 94 
-72 -2 347 200 132 93 
-72 -2 347 199 131 92 
-71 -2 347 200 131 92 
-70 -2 347 199 130 91 
-70 -2 347 200 131 92 
-69 -2 348 201 132 93 
-69 -2 348 200 131 92 
-68 -2 348 198 129 90 
-68 -2 348 197 128 89 
-67 -2 348 195 126 87 
-67 -2 348 194 125 84 
-66 -2 348 193 124 83 
-66 -2 348 191 122 81 
-65 -2 348 191 122 81 
-64 -2 348 193 124 83 
-64 -2 348 196 127 86 
-63 -2 348 199 130 89 
-63 -2 348 199 130 89 
-62 -2 348 194 130 86 
-62 -2 349 193 129 85 
-61 -2 349 194 127 85 
-61 -2 349 193 126 84 
-60 -2 349 190 125 87 
-60 -2 349 190 125 87 
-59 -2 349 189 125 89 
-58 -2 349 190 126 90 
-58 -2 350 187 124 91 
-57 -2 350 183 120 87 
-57 -2 350 179 115 87 
-56 -2 350 177 113 85 
-56 -2 351 177 115 90 
-55 -2 351 176 114 89 
-55 -2 351 174 112 87 
-54 -2 351 176 114 89 
-54 -2 351 171 110 89 
-53 -2 352 168 107 86 
-53 -2 352 166 106 82 
-52 -2 353 166 106 82 
-52 -2 353 167 107 83 
-51 -2 354 169 109 85 
-51 -2 354 167 109 85 
-50 -2 355 164 106 82 
-50 -2 355 157 101 76 
-49 -2 355 153 97 72 
-48 -2 355 149 92 65 
-48 -2 356 146 89 62 
-47 -2 356 144 88 61 
-47 -2 357 141 85 58 
-46 -2 357 137 83 55 
-46 -2 358 136 82 54 
-46 -2 359 139 83 70 
-45 -2 359 143 87 74 
-44 -2 359 131 98 91 
-44 -2 360 138 105 98 
-43 -2 361 128 118 117 
-43 -2 362 131 121 120 
-84 -1 347 179 121 84 
-83 -1 347 204 142 105 
-83 -1 347 207 145 108 
-82 -1 347 208 144 108 
-82 -1 347 207 143 107 
-81 -1 347 209 145 107 
-80 -1 347 211 147 109 
-80 -1 347 208 143 103 
-79 -1 347 205 140 100 
-79 -1 347 205 137 98 
-78 -1 347 203 135 96 
-78 -1 347 202 134 95 
-77 -1 347 201 133 94 
-77 -1 347 200 132 93 
-76 -1 347 198 130 91 
-75 -1 347 197 129 90 
-75 -1 347 194 126 87 
-74 -1 347 192 123 84 
-74 -1 347 192 123 84 
-73 -1 347 193 124 85 
-73 -1 347 194 125 86 
-72 -1 347 195 126 87 
-72 -1 348 193 124 85 
-71 -1 348 195 123 85 
-71 -1 348 195 123 85 
-70 -1 348 196 124 86 
-69 -1 348 195 123 85 
-69 -1 348 192 120 82 
-68 -1 348 188 116 78 
-68 -1 348 187 115 75 
-67 -1 348 185 113 73 
-67 -1 349 185 113 73 
-66 -1 349 185 113 73 
-66 -1 349 185 113 73 
-65 -1 349 186 114 74 
-65 -1 349 187 115 75 
-64 -1 349 190 118 78 
-63 -1 349 191 120 78 
-63 -1 349 189 118 76 
-62 -1 349 186 119 76 
-62 -1 349 185 118 75 
-61 -1 350 186 117 78 
-61 -1 350 185 116 77 
-60 -1 350 183 115 78 
-60 -1 350 181 113 76 
-59 -1 350 176 110 76 
-59 -1 350 175 109 75 
-58 -1 351 174 109 79 
-58 -1 351 169 104 74 
-57 -1 351 166 100 76 
-57 -1 352 166 100 76 
-56 -1 352 166 101 79 
-55 -1 352 166 101 79 
-55 -1 352 163 101 78 
-54 -1 352 164 102 79 
-54 -1 352 160 100 76 
-53 -1 353 160 100 76 
-53 -1 354 162 101 80 
-52 -1 354 163 102 81 
-52 -1 354 160 103 84 
-51 -1 355 159 102 83 
-51 -1 356 153 98 78 
-50 -1 356 146 91 71 
-50 -1 356 143 88 67 
-49 -1 357 142 87 66 
-49 -1 357 139 85 61 
-48 -1 358 138 84 60 
-48 -1 358 135 84 63 
-47 -1 358 136 85 64 
-47 -1 359 138 89 72 
-83 -1 347 201 137 102 
-82 -1 347 198 132 97 
-82 -1 347 199 133 98 
-81 -1 347 203 138 100 
-80 -1 347 201 136 98 
-80 -1 347 202 135 92 
-79 -1 347 198 131 88 
-79 -1 347 199 135 91 
-78 -1 347 198 134 90 
-78 -1 347 195 130 88 
-77 -1 347 196 131 89 
-77 -1 347 196 129 87 
-76 -1 347 193 126 84 
-75 -1 347 191 122 83 
-75 -1 347 188 119 80 
-75 -1 348 187 119 80 
-74 -1 348 184 116 77 
-73 -1 348 185 117 80 
-73 -1 348 189 121 84 
-72 -1 348 188 118 82 
-72 -1 349 187 117 81 
-71 -1 349 190 123 81 
-71 -1 349 187 120 78 
-70 -1 349 185 116 75 
-70 -1 349 185 116 75 
-69 -1 349 183 113 77 
-69 -1 349 180 110 74 
-68 -1 349 184 111 78 
-67 -1 349 183 110 77 
-67 -1 349 180 107 72 
-66 -1 349 181 108 73 
-66 -1 349 176 106 70 
-65 -1 349 178 108 72 
-65 -1 349 178 110 75 
-64 -1 349 179 111 76 
-64 -1 350 175 106 75 
-63 -1 350 181 112 81 
-63 -1 350 181 109 71 
-62 -1 350 179 107 69 
-62 -1 351 175 107 68 
-61 -1 351 175 107 68 
-60 -1 351 171 109 70 
-60 -1 351 169 107 68 
-59 -1 351 163 105 68 
-59 -1 351 160 102 65 
-58 -1 351 158 101 71 
-58 -1 352 159 102 72 
-57 -1 352 154 97 70 
-57 -1 353 153 96 69 
-56 -1 353 151 89 68 
-56 -1 353 155 93 72 
-55 -1 353 158 90 77 
-55 -1 354 164 96 83 
-54 -1 354 157 101 76 
-54 -1 354 156 100 75 
-53 -1 354 160 105 75 
-53 -1 355 154 99 69 
-52 -1 356 157 100 71 
-52 -1 356 150 93 64 
-51 -1 356 152 89 71 
-50 -1 357 145 82 64 
-50 -1 358 137 81 68 
-49 -1 358 136 80 67 
-49 -1 358 134 98 84 
-48 -1 359 131 95 81 
-48 -1 359 108 98 88 
-47 -1 360 125 115 105 
-47 -1 360 117 123 119 
-84 0 347 187 123 88 
-82 0 347 196 123 90 
-82 0 347 197 124 91 
-81 0 347 197 124 89 
-80 0 347 193 120 85 
-80 0 347 193 121 81 
-80 0 348 191 119 79 
-79 0 348 189 120 79 
-78 0 348 188 119 78 
-78 0 348 189 117 77 
-77 0 348 190 118 78 
-77 0 348 188 116 78 
-76 0 348 184 112 74 
-76 0 348 187 113 76 
-75 0 348 182 108 71 
-75 0 348 179 106 71 
-74 0 349 178 105 70 
-74 0 349 181 107 72 
-73 0 349 181 107 72 
-73 0 349 181 107 72 
-72 0 349 183 109 74 
-72 0 350 176 108 69 
-71 0 349 175 107 68 
-70 0 349 173 108 66 
-70 0 349 170 105 63 
-69 0 349 167 104 63 
-69 0 349 167 104 63 
-68 0 349 165 103 64 
-67 0 349 163 101 62 
-67 0 349 162 98 60 
-66 0 349 166 102 64 
-66 0 350 168 102 67 
-65 0 350 167 101 66 
-65 0 350 170 100 66 
-64 0 350 172 102 68 
-64 0 350 173 98 66 
-63 0 350 173 98 66 
-63 0 351 164 101 70 
-62 0 351 162 99 68 
-62 0 351 160 97 64 
-61 0 351 160 97 64 
-60 0 351 160 97 62 
-60 0 352 159 96 61 
-59 0 352 157 92 60 
-59 0 352 155 90 58 
-58 0 352 154 90 62 
-58 0 353 154 90 62 
-57 0 353 148 88 62 
-57 0 353 142 82 56 
-56 0 354 138 81 61 
-56 0 354 148 91 71 
-55 0 354 146 90 73 
-55 0 354 149 93 76 
-54 0 354 142 94 71 
-54 0 355 142 94 71 
-53 0 355 142 92 69 
-53 0 356 142 92 69 
-52 0 356 138 89 74 
-52 0 357 130 81 66 
-51 0 358 131 91 81 
-51 0 358 137 97 87 
-84 0 347 168 108 72 
-84 0 347 147 87 51 
-83 0 347 168 104 68 
-83 0 347 178 114 78 
-82 0 347 182 114 79 
-82 0 347 182 114 79 
-81 0 347 183 115 80 
-80 0 347 181 113 78 
-80 0 347 176 111 73 
-80 0 348 176 111 73 
-79 0 348 175 110 72 
-78 0 348 174 109 71 
-78 0 348 174 109 71 
-77 0 348 174 109 71 
-77 0 348 174 106 71 
-76 0 348 170 102 67 
-76 0 348 170 102 67 
-75 0 348 169 101 66 
-75 0 348 169 101 66 
-74 0 349 166 98 63 
-74 0 349 170 101 68 
-73 0 349 165 96 63 
-73 0 349 166 95 63 
-72 0 350 166 95 63 
-72 0 350 169 100 71 
-71 0 350 164 95 66 
-70 0 350 164 93 61 
-70 0 350 159 88 56 
-69 0 350 159 86 53 
-69 0 350 162 89 56 
-68 0 350 161 86 57 
-68 0 350 164 89 60 
-67 0 350 160 86 59 
-67 0 350 160 86 59 
-66 0 351 161 89 64 
-66 0 351 158 86 61 
-65 0 351 155 90 60 
-64 0 351 157 92 62 
-64 0 351 156 93 60 
-63 0 352 155 92 59 
-63 0 352 154 90 62 
-62 0 352 152 88 60 
-62 0 353 152 87 57 
-61 0 353 152 87 57 
-61 0 353 157 86 56 
-60 0 353 156 85 55 
-60 0 353 153 82 54 
-59 0 353 151 80 52 
-59 0 354 149 83 57 
-58 0 354 149 83 57 
-58 0 354 137 83 59 
-57 0 355 123 69 45 
-57 0 355 123 80 61 
-56 0 356 144 101 82 
-56 0 356 132 96 80 
-55 0 356 123 87 71 
-54 0 356 132 85 69 
-54 0 356 124 77 61 
-53 0 357 112 78 66 
-53 0 357 122 88 76 
-52 0 358 119 105 96 
-52 0 358 130 116 107 
-51 0 359 118 121 114 
-84 1 347 161 98 65 
-84 1 347 140 77 44 
-83 1 347 154 90 55 
-83 1 348 164 100 65 
-82 1 348 168 99 66 
-82 1 348 166 97 64 
-81 1 348 169 98 66 
-81 1 348 169 98 66 
-80 1 348 165 96 63 
-80 1 348 168 99 66 
-79 1 349 166 97 64 
-79 1 349 165 96 63 
-78 1 349 164 95 62 
-78 1 349 163 94 61 
-77 1 349 163 94 61 
-76 1 349 160 91 58 
-76 1 349 159 90 59 
-75 1 349 161 92 61 
-75 1 350 159 90 59 
-74 1 350 152 83 52 
-74 1 350 156 87 56 
-73 1 350 154 85 54 
-73 1 351 159 88 58 
-72 1 351 159 88 58 
-72 1 351 157 88 57 
-71 1 351 155 86 55 
-71 1 351 154 85 54 
-70 1 351 156 87 56 
-70 1 351 153 88 56 
-69 1 351 148 83 51 
-68 1 351 145 82 49 
-68 1 352 148 85 52 
-67 1 352 148 85 54 
-67 1 352 145 82 51 
-66 1 352 147 83 55 
-66 1 352 147 83 55 
-65 1 352 150 86 58 
-65 1 352 148 84 56 
-64 1 352 148 85 54 
-64 1 353 148 85 54 
-63 1 353 146 80 48 
-63 1 353 147 81 49 
-62 1 354 149 80 49 
-62 1 354 149 80 49 
-61 1 354 149 79 53 
-60 1 354 148 78 52 
-60 1 354 144 78 56 
-59 1 354 144 78 56 
-59 1 355 136 81 61 
-58 1 355 135 80 60 
-58 1 355 120 81 64 
-57 1 356 124 85 68 
-57 1 356 94 72 58 
-56 1 356 108 86 72 
-56 1 357 81 69 55 
-55 1 357 86 74 60 
-55 1 357 82 76 54 
-84 1 348 128 68 34 
-83 1 348 133 73 37 
-83 1 349 145 85 49 
-83 1 349 153 89 54 
-82 1 349 155 91 56 
-81 1 349 159 88 56 
-81 1 349 157 86 54 
-80 1 349 157 88 55 
-80 1 349 158 89 56 
-79 1 349 155 86 53 
-79 1 350 155 86 53 
-78 1 350 154 85 54 
-78 1 350 153 84 53 
-77 1 350 151 85 53 
-77 1 350 148 82 50 
-76 1 350 148 82 50 
-76 1 350 148 82 50 
-75 1 350 147 81 49 
-75 1 351 144 78 46 
-74 1 351 149 82 53 
-73 1 351 146 79 50 
-73 1 351 146 81 51 
-73 1 352 147 82 52 
-72 1 352 150 82 47 
-71 1 352 152 84 49 
-71 1 352 145 79 45 
-70 1 352 147 81 47 
-70 1 352 146 81 49 
-69 1 352 140 75 43 
-69 1 352 141 76 44 
-68 1 353 142 77 45 
-68 1 353 142 77 47 
-67 1 353 141 76 46 
-67 1 353 139 74 44 
-66 1 353 141 76 46 
-65 1 353 145 78 51 
-65 1 353 144 77 50 
-64 1 353 144 77 51 
-64 1 354 144 77 51 
-63 1 354 128 78 55 
-63 1 355 130 80 57 
-62 1 355 130 82 62 
-62 1 355 131 83 63 
-61 1 356 131 85 70 
-61 1 356 133 87 72 
-60 1 356 130 92 81 
-60 1 356 132 94 83 
-59 1 356 127 100 91 
-59 1 357 132 105 96 
-58 1 357 125 111 102 
-57 1 357 128 114 105 
-57 1 358 120 118 106 
-56 1 358 111 109 97 
-56 1 358 63 69 55 
-84 2 349 115 58 28 
-84 2 349 118 64 30 
-83 2 349 130 76 42 
-83 2 350 138 77 46 
-82 2 350 139 78 47 
-82 2 350 145 76 47 
-81 2 350 144 75 46 
-81 2 350 142 77 49 
-80 2 350 142 77 49 
-79 2 350 141 76 48 
-79 2 350 142 77 49 
-79 2 351 142 77 49 
-78 2 351 139 74 46 
-78 2 352 135 71 43 
-77 2 352 133 69 41 
-77 2 352 134 73 44 
-76 2 352 131 70 41 
-75 2 352 129 69 41 
-75 2 352 133 73 45 
-74 2 352 136 76 48 
-74 2 352 133 73 45 
-73 2 352 130 73 44 
-73 2 353 136 79 50 
-72 2 354 136 79 52 
-72 2 354 138 81 54 
-71 2 354 130 72 50 
-71 2 354 130 72 50 
-70 2 354 130 71 53 
-70 2 354 132 73 55 
-69 2 354 137 80 63 
-68 2 354 133 76 59 
-68 2 354 130 79 60 
-67 2 354 130 79 60 
-67 2 354 119 74 55 
-66 2 354 125 80 61 
-66 2 354 123 86 68 
-65 2 354 127 90 72 
-65 2 355 130 97 80 
-64 2 355 132 99 82 
-63 2 355 120 105 98 
-63 2 356 122 107 100 
-62 2 356 125 110 107 
-62 2 357 126 111 108 
-61 2 357 123 113 112 
-61 2 357 125 115 114 
-84 3 350 109 72 46 
-84 3 351 115 78 52 
-83 3 351 119 74 51 
-83 3 351 118 73 50 
-82 3 351 126 71 50 
-81 3 350 125 70 49 
-81 3 350 120 72 50 
-80 3 351 120 72 50 
-80 3 351 120 72 52 
-79 3 351 120 72 52 
-79 3 352 119 72 52 
-78 3 352 117 70 50 
-78 3 352 112 70 48 
-77 3 353 115 73 51 
-77 3 352 122 81 61 
-76 3 352 128 87 67 
-75 3 352 127 89 68 
-75 3 352 127 89 68 
-74 3 352 119 82 63 
-74 3 352 116 79 60 
-73 3 353 112 77 57 
-73 3 354 122 87 67 
-73 3 355 124 97 78 
-72 3 355 108 81 62 
-71 3 355 97 74 58 
-71 3 355 97 74 58 
-69 3 354 106 100 84 
-85 3 351 76 80 57 
-84 3 351 63 73 48 
-84 3 351 67 77 52 
-83 3 352 73 75 51 
-83 3 352 76 78 54 
-82 3 352 82 74 51 
-82 3 352 78 70 47 
-81 3 351 70 69 48 
-80 3 351 70 69 48 
-80 3 352 69 68 47 
-79 3 352 65 64 43 
-79 3 353 61 65 42 
-78 3 353 61 65 42 
-78 3 353 62 70 47 
-78 3 354 75 83 60 
-77 3 354 100 110 86 
-76 3 353 116 126 102 
-76 3 353 110 122 100 
-75 3 353 91 103 81 
-74 3 353 66 81 58 
-74 3 353 66 81 58 
-73 3 353 62 80 58 
-73 3 354 77 95 73 
-83 4 352 47 63 36 
-83 4 352 44 65 34 
-83 4 352 42 63 32 
