ply
format ascii 1.0
comment Created by CloudCompare v2.10.1 (Zephyrus)
comment Created 2020-05-17 12:57 AM
obj_info Generated by CloudCompare!
element vertex 409
property float x
property float y
property float z
property uchar red
property uchar green
property uchar blue
end_header
0 38 376 207 145 120 
1 38 376 220 158 133 
1 38 376 231 166 148 
2 38 375 241 176 158 
3 38 375 243 185 161 
3 38 375 246 188 164 
4 38 375 247 196 167 
4 38 375 250 199 170 
5 38 375 244 200 171 
6 38 375 242 198 169 
6 38 376 233 193 168 
7 38 376 223 183 158 
7 38 376 197 160 142 
8 38 377 166 129 111 
9 38 377 153 118 112 
9 38 378 158 123 117 
0 38 376 223 166 139 
0 38 375 226 172 144 
1 38 375 237 183 155 
1 38 375 245 186 156 
2 38 375 251 192 162 
3 38 374 254 200 172 
3 38 374 255 203 175 
4 38 374 255 206 179 
4 38 374 255 206 179 
5 38 374 253 207 181 
6 38 374 252 206 180 
6 38 375 252 207 186 
7 38 375 246 201 180 
7 38 375 228 189 174 
8 38 376 201 162 147 
9 38 376 177 142 136 
9 38 377 152 117 111 
10 39 378 154 120 121 
11 39 380 152 118 119 
11 39 380 146 126 127 
-1 39 375 224 169 138 
0 39 375 228 173 142 
0 39 374 230 180 147 
1 39 374 239 189 156 
1 39 374 247 192 161 
2 39 374 251 196 165 
3 39 374 252 203 173 
3 39 374 255 206 176 
4 39 374 253 207 181 
4 39 374 253 207 181 
5 39 374 249 207 182 
6 39 374 247 205 180 
6 39 374 253 211 187 
7 39 375 246 204 180 
7 39 375 238 199 182 
8 39 375 224 185 168 
9 39 376 195 161 152 
9 39 376 160 126 117 
10 39 378 148 117 114 
11 39 379 148 117 114 
11 39 380 141 121 122 
-1 39 374 226 173 141 
0 39 374 225 172 140 
0 39 374 227 178 145 
1 39 374 239 190 157 
1 39 374 250 197 166 
2 39 374 253 200 169 
3 39 373 252 205 177 
3 39 373 254 207 179 
4 39 374 251 209 184 
4 39 374 251 209 184 
5 39 374 250 208 184 
6 39 374 249 207 183 
6 39 374 250 208 184 
7 39 374 250 208 184 
7 39 374 243 202 182 
8 39 375 234 193 173 
9 39 375 214 178 164 
9 40 376 176 140 126 
10 40 377 143 113 105 
11 40 378 147 117 109 
11 40 379 142 120 122 
12 40 380 135 113 115 
0 40 374 228 175 144 
0 40 374 229 180 148 
1 40 374 239 190 158 
1 40 374 248 193 163 
2 40 374 251 196 166 
3 40 373 250 203 177 
3 40 373 253 206 180 
4 40 373 251 209 185 
4 40 374 251 209 185 
5 40 374 251 209 187 
6 40 374 251 209 187 
6 40 374 254 210 185 
7 40 374 251 207 182 
7 40 374 247 202 179 
8 40 374 239 194 171 
9 40 375 219 180 163 
9 40 375 195 156 139 
10 40 376 157 123 111 
11 40 378 147 113 101 
11 41 379 133 111 113 
12 41 380 135 113 115 
0 40 373 231 176 145 
0 40 373 234 181 150 
1 40 373 240 187 156 
1 40 373 244 189 159 
2 40 373 249 194 164 
3 40 373 250 200 175 
3 40 373 253 203 178 
4 40 373 250 205 184 
4 40 373 252 207 186 
5 40 373 253 208 187 
6 40 373 253 208 187 
6 40 373 255 211 188 
7 41 374 254 206 183 
7 41 374 248 200 177 
8 41 374 239 191 168 
9 41 374 218 176 154 
9 41 375 201 159 137 
10 41 376 159 122 103 
11 41 377 137 100 81 
11 41 378 136 114 116 
12 41 380 145 123 125 
1 41 373 246 187 155 
1 41 373 243 190 159 
2 41 373 248 195 164 
3 41 373 251 201 176 
3 41 372 252 202 177 
4 41 372 251 205 182 
4 41 373 253 207 184 
5 41 373 254 208 185 
6 41 373 254 208 185 
6 41 373 252 205 179 
7 41 373 249 202 176 
7 41 374 243 196 168 
8 41 374 238 191 163 
9 41 374 226 182 155 
9 41 375 212 168 141 
10 41 376 173 136 109 
11 42 377 151 114 87 
11 42 377 148 128 130 
12 42 379 146 126 128 
1 42 372 244 184 148 
1 42 372 241 188 156 
2 42 372 246 193 161 
3 42 372 249 198 169 
3 42 372 249 198 169 
4 42 372 250 200 177 
4 42 372 254 204 181 
5 42 372 254 206 183 
6 42 372 252 204 181 
6 42 372 252 202 175 
7 42 373 244 194 167 
7 42 373 240 191 159 
8 42 374 238 189 157 
9 42 374 223 177 144 
9 42 375 212 166 133 
10 42 375 186 146 111 
11 42 376 152 112 77 
11 42 377 132 116 117 
12 42 378 123 107 108 
1 42 372 241 181 147 
1 42 372 236 182 148 
2 42 372 242 188 154 
3 42 371 244 191 160 
3 42 371 244 191 160 
4 42 372 245 193 169 
4 42 372 251 199 175 
5 42 372 252 202 177 
6 42 372 250 200 175 
6 42 372 248 197 170 
7 42 373 246 195 168 
7 42 373 238 188 155 
8 42 374 233 183 150 
9 42 374 227 179 143 
9 43 375 219 171 135 
10 43 375 194 150 113 
11 43 376 156 112 75 
11 43 377 127 112 115 
12 43 378 118 103 106 
2 43 372 237 181 146 
3 43 371 240 185 155 
3 43 371 241 186 156 
4 43 372 242 188 164 
4 43 372 247 193 169 
5 43 372 250 196 170 
6 43 372 251 197 171 
6 43 373 246 195 164 
7 43 373 241 190 159 
7 43 373 233 187 153 
8 43 373 230 184 150 
9 43 374 228 184 149 
9 43 374 215 171 136 
10 43 375 202 158 123 
11 43 375 165 121 86 
11 43 376 122 116 120 
12 43 378 124 118 122 
13 44 382 124 118 122 
2 43 371 235 179 144 
3 43 371 238 183 153 
3 43 371 237 182 152 
4 43 372 240 184 161 
4 43 372 245 189 166 
5 43 372 247 193 167 
6 43 372 249 195 169 
6 44 373 244 193 162 
7 44 373 240 189 158 
7 44 373 233 187 153 
8 44 373 230 184 150 
9 44 374 228 182 148 
9 44 375 214 168 134 
10 44 375 202 156 122 
11 44 375 167 121 87 
11 44 376 119 114 120 
12 44 378 120 115 121 
13 45 382 123 118 122 
2 44 371 234 175 141 
3 44 371 239 182 153 
3 44 371 237 180 151 
4 44 372 238 182 157 
4 44 372 242 186 161 
5 44 372 244 190 164 
6 44 372 246 192 166 
6 44 373 244 193 162 
7 44 373 241 190 159 
7 44 373 233 184 151 
8 44 373 230 181 148 
9 44 374 226 180 146 
9 44 375 213 167 133 
10 44 375 202 156 122 
11 44 375 169 123 89 
11 44 376 118 116 121 
12 45 378 117 115 120 
13 45 380 117 115 120 
13 45 383 117 115 120 
2 44 371 229 171 134 
3 45 372 237 180 150 
3 45 372 238 181 151 
4 45 372 237 181 156 
4 45 372 239 183 158 
5 45 372 242 186 161 
6 45 372 245 189 164 
6 45 373 244 191 160 
7 45 373 240 187 156 
7 45 373 230 181 148 
8 45 374 228 179 146 
9 45 374 226 177 144 
9 45 375 214 165 132 
10 45 375 200 154 121 
11 45 376 169 123 90 
11 45 377 120 119 125 
12 45 378 119 118 124 
13 46 380 118 117 122 
13 46 383 116 115 120 
3 45 372 229 173 140 
3 45 372 237 181 148 
4 45 372 234 178 151 
4 45 372 235 179 152 
5 45 372 239 185 159 
6 45 372 240 186 160 
6 45 373 237 186 155 
7 45 373 235 184 153 
7 45 373 228 179 146 
8 45 374 227 178 145 
9 45 374 222 176 143 
9 46 375 212 166 133 
10 46 375 196 149 119 
11 46 376 168 121 91 
11 46 377 119 118 124 
12 46 379 118 117 123 
13 46 380 118 117 123 
13 47 383 117 116 122 
3 46 372 222 168 132 
3 46 372 235 181 145 
4 46 372 235 180 150 
4 46 372 236 181 151 
5 46 372 237 186 159 
6 46 372 236 185 158 
6 46 373 235 186 156 
7 46 373 232 183 153 
7 46 373 230 181 149 
8 46 374 227 178 146 
9 46 375 220 174 141 
9 46 375 212 166 133 
10 46 375 192 147 118 
11 46 376 168 123 94 
11 46 377 122 119 126 
12 47 379 120 117 124 
13 47 381 119 116 123 
13 47 383 118 115 122 
3 46 372 217 163 125 
3 46 372 231 177 139 
4 46 372 234 181 149 
4 46 372 234 181 149 
5 46 372 233 184 154 
6 47 373 232 183 153 
6 47 373 232 185 155 
7 47 373 228 181 151 
7 47 374 226 180 147 
8 47 375 222 176 143 
9 47 375 215 170 139 
9 47 375 207 162 131 
10 47 376 184 140 113 
11 47 377 163 119 92 
11 47 378 124 121 128 
12 47 379 123 120 127 
13 48 381 120 117 126 
3 47 372 212 160 120 
3 47 372 223 171 131 
4 47 372 227 177 144 
4 47 373 228 178 145 
5 47 373 229 180 150 
6 47 374 229 180 150 
6 47 374 228 181 151 
7 47 374 223 176 146 
7 47 375 221 176 143 
8 48 376 215 170 137 
9 48 376 208 163 132 
9 48 376 201 156 125 
10 48 377 172 130 105 
11 48 378 152 110 85 
11 48 378 116 113 122 
12 48 379 116 113 122 
13 48 381 115 112 123 
3 48 372 214 160 126 
3 48 372 220 166 132 
4 48 373 220 171 141 
4 48 373 226 177 147 
5 48 374 227 177 142 
6 48 374 227 177 142 
6 48 374 219 180 149 
7 48 375 215 176 145 
7 48 375 210 171 140 
8 48 376 207 168 137 
9 48 377 209 158 129 
9 48 377 194 143 114 
10 48 378 160 127 122 
11 49 379 149 116 111 
11 49 379 122 122 130 
12 49 380 120 120 128 
3 48 372 214 160 124 
3 48 372 213 159 123 
4 48 373 215 166 136 
4 48 374 220 171 141 
5 49 375 219 170 137 
6 49 375 220 171 138 
6 49 376 210 171 142 
7 49 376 207 168 139 
7 49 376 204 163 133 
8 49 377 200 159 129 
9 49 378 194 147 119 
9 49 378 180 133 105 
10 49 379 145 124 123 
11 49 380 139 118 117 
11 49 380 122 122 130 
12 49 381 121 121 129 
4 49 374 209 158 129 
4 49 374 214 163 134 
5 49 375 212 162 135 
6 49 376 213 163 136 
6 49 376 205 163 139 
7 49 377 203 161 137 
8 50 378 203 158 129 
8 50 378 196 151 122 
9 50 379 183 137 111 
9 50 379 169 123 97 
10 50 380 131 122 127 
11 50 380 129 120 125 
11 50 381 121 121 131 
12 50 382 120 120 130 
4 50 374 201 147 119 
4 50 376 207 153 125 
5 50 376 204 152 130 
6 50 377 204 152 130 
6 50 378 200 153 135 
7 50 379 197 150 132 
8 50 379 196 145 118 
8 51 380 188 137 110 
9 51 380 173 129 104 
9 51 380 160 116 91 
10 51 381 119 118 126 
11 51 382 120 119 127 
11 51 382 120 120 132 
4 50 375 187 131 104 
5 51 378 194 139 118 
6 51 379 194 139 118 
6 51 380 189 140 123 
7 51 381 186 137 120 
8 51 381 183 129 103 
8 51 382 178 124 98 
9 52 383 170 124 100 
9 52 383 161 115 91 
10 52 384 118 118 128 
11 52 385 119 119 129 
11 52 385 120 120 132 
6 52 381 182 126 103 
6 52 382 174 126 106 
7 52 383 174 126 106 
8 52 383 172 121 92 
8 52 384 173 122 93 
9 52 385 174 127 101 
10 53 386 167 120 94 
10 53 387 125 120 126 
6 53 385 163 113 90 
7 53 385 170 120 97 
8 53 386 174 123 94 
8 53 387 177 126 97 
9 53 388 179 128 99 
8 54 389 188 135 104 
8 54 390 190 137 106 
9 55 393 188 132 105 
