ply
format ascii 1.0
comment Created by CloudCompare v2.10.1 (Zephyrus)
comment Created 2020-05-17 12:57 AM
obj_info Generated by CloudCompare!
element vertex 171
property float x
property float y
property float z
property uchar red
property uchar green
property uchar blue
end_header
-88 -8 353 122 90 79 
-88 -8 354 121 89 78 
-87 -8 354 124 88 72 
-87 -8 354 128 92 76 
-86 -8 354 127 90 74 
-89 -8 353 127 102 97 
-88 -8 352 113 88 83 
-88 -8 351 126 92 80 
-87 -8 352 125 91 79 
-87 -8 352 125 86 69 
-86 -8 352 129 90 73 
-86 -8 352 134 92 76 
-85 -8 352 148 106 90 
-90 -7 352 154 133 132 
-90 -7 352 142 121 120 
-89 -7 351 125 96 88 
-88 -7 350 108 79 71 
-87 -7 349 120 82 69 
-87 -7 349 126 88 75 
-86 -7 349 129 86 69 
-86 -7 350 131 88 71 
-90 -7 353 159 131 127 
-89 -7 351 148 120 116 
-88 -7 350 146 114 101 
-88 -7 349 148 116 103 
-87 -7 348 158 117 99 
-86 -7 348 156 115 97 
-86 -7 348 155 109 86 
-85 -7 348 155 109 86 
-85 -7 349 197 149 127 
-90 -6 352 179 151 140 
-89 -6 350 182 154 143 
-88 -6 349 202 167 148 
-87 -6 348 215 180 161 
-87 -6 348 220 175 152 
-86 -6 347 213 168 145 
-85 -6 347 202 152 127 
-85 -6 347 187 137 112 
-85 -6 348 209 158 131 
-91 -5 350 160 134 133 
-91 -5 350 175 149 148 
-90 -5 350 190 164 163 
-90 -5 350 217 172 149 
-89 -5 350 223 178 155 
-88 -5 349 230 185 162 
-87 -5 348 234 189 166 
-87 -5 347 232 186 162 
-86 -5 347 226 180 156 
-85 -5 347 217 167 142 
-85 -5 347 196 146 121 
-85 -5 348 202 151 124 
-91 -5 349 184 147 128 
-90 -5 349 198 162 140 
-90 -5 349 212 176 154 
-89 -5 349 227 181 155 
-89 -5 349 231 185 159 
-88 -5 349 235 189 163 
-87 -5 348 238 192 166 
-87 -5 347 236 189 161 
-86 -5 347 233 186 158 
-85 -5 347 226 175 146 
-85 -5 347 206 155 126 
-85 -5 348 200 147 116 
-90 -4 348 218 169 137 
-90 -4 349 225 176 144 
-89 -4 348 229 180 150 
-89 -4 348 234 185 155 
-88 -4 348 239 190 160 
-87 -4 348 242 193 163 
-87 -4 347 241 192 162 
-86 -4 347 242 193 163 
-85 -4 347 238 185 154 
-85 -4 347 220 167 136 
-90 -4 348 218 168 143 
-90 -4 348 220 170 145 
-89 -4 348 227 178 148 
-89 -4 348 237 188 158 
-88 -4 348 245 194 165 
-87 -4 347 249 198 169 
-87 -4 347 249 198 167 
-86 -4 347 249 198 167 
-85 -4 347 245 192 161 
-85 -4 347 228 175 144 
-90 -3 347 217 169 146 
-90 -3 348 215 167 144 
-90 -3 348 218 170 147 
-89 -3 348 230 181 149 
-89 -3 348 240 191 159 
-88 -3 348 247 196 165 
-87 -3 347 249 198 167 
-87 -3 347 248 197 166 
-86 -3 347 246 195 164 
-85 -3 347 242 189 158 
-85 -3 347 227 174 143 
-90 -3 347 218 171 141 
-90 -3 347 214 167 137 
-90 -3 348 220 173 143 
-89 -3 348 227 178 145 
-89 -3 348 236 187 154 
-88 -3 348 239 189 156 
-87 -3 347 240 190 157 
-87 -3 347 240 190 157 
-86 -3 347 240 190 157 
-85 -3 347 238 185 151 
-90 -2 347 223 174 142 
-90 -2 347 213 164 132 
-90 -2 348 219 170 138 
-89 -2 348 223 174 141 
-89 -2 348 229 180 147 
-88 -2 348 232 182 149 
-87 -2 347 233 183 150 
-87 -2 347 237 184 150 
-86 -2 347 237 184 150 
-89 -1 348 219 168 137 
-89 -1 348 224 173 142 
-88 -1 348 228 175 143 
-87 -1 347 230 177 145 
-87 -1 347 230 176 142 
-86 -1 347 230 176 142 
-89 -1 347 213 156 126 
-89 -1 347 216 168 132 
-88 -1 347 218 170 134 
-88 -1 347 222 172 135 
-87 -1 347 219 169 132 
-86 -1 346 221 169 130 
-86 -1 346 227 175 136 
-85 -1 346 225 169 132 
-84 -1 346 169 111 74 
-89 0 347 204 151 119 
-89 0 347 206 152 118 
-88 0 347 210 156 122 
-88 0 347 216 160 127 
-87 0 347 215 159 126 
-87 0 347 216 157 123 
-86 0 347 217 158 124 
-85 0 347 214 154 118 
-85 0 346 206 146 110 
-89 0 348 193 143 110 
-88 0 347 194 144 111 
-88 0 347 199 146 114 
-87 0 347 201 148 116 
-87 0 347 199 144 113 
-86 0 347 198 143 112 
-85 0 347 199 140 108 
-85 0 347 192 133 101 
-89 1 348 175 124 93 
-89 1 348 175 124 93 
-88 1 348 178 123 93 
-87 1 348 180 125 95 
-87 1 348 179 122 93 
-86 1 347 179 122 93 
-85 1 347 182 121 92 
-85 1 347 175 114 85 
-89 1 348 149 98 67 
-89 1 349 153 102 71 
-88 1 349 159 104 74 
-88 1 349 160 105 75 
-87 1 348 164 104 76 
-86 1 348 165 105 77 
-86 1 348 167 106 77 
-85 1 348 161 100 71 
-85 1 348 151 91 57 
-89 2 349 128 77 50 
-89 2 349 134 83 56 
-88 2 350 143 85 61 
-88 2 350 144 86 62 
-87 2 349 145 83 58 
-87 2 349 146 84 59 
-86 2 349 146 85 57 
-85 2 349 142 81 53 
-85 2 349 129 72 42 
