ply
format ascii 1.0
comment Created by CloudCompare v2.10.1 (Zephyrus)
comment Created 2020-05-17 12:57 AM
obj_info Generated by CloudCompare!
element vertex 132
property float x
property float y
property float z
property uchar red
property uchar green
property uchar blue
end_header
-43 139 335 155 118 89 
-43 138 334 127 97 73 
-45 139 334 169 130 101 
-44 140 337 176 139 112 
-43 139 335 167 130 103 
-43 138 333 120 92 70 
-51 141 338 142 92 57 
-45 139 334 220 185 165 
-45 139 334 188 148 122 
-45 140 335 199 159 133 
-44 140 336 191 154 127 
-43 139 334 186 149 122 
-43 139 333 127 100 79 
-52 142 339 163 109 73 
-49 140 334 195 141 105 
-49 140 334 201 147 111 
-48 140 334 200 155 126 
-48 140 334 238 193 164 
-47 140 334 214 178 162 
-47 140 335 146 110 94 
-46 140 335 171 138 121 
-46 140 335 186 153 136 
-45 140 335 174 134 109 
-44 140 335 191 151 126 
-44 140 335 192 156 130 
-43 140 335 185 149 123 
-43 140 334 132 107 87 
-42 139 332 120 95 75 
-52 143 340 175 119 84 
-51 141 336 178 126 87 
-50 141 335 187 135 96 
-49 140 334 195 141 105 
-49 140 334 200 146 110 
-48 140 334 171 125 99 
-48 140 334 159 113 87 
-47 141 335 148 115 100 
-47 141 335 159 126 111 
-46 141 335 115 82 67 
-46 141 335 118 85 70 
-45 141 335 145 104 82 
-44 141 335 199 158 136 
-44 141 335 199 163 139 
-43 141 335 176 140 116 
-43 141 335 135 109 92 
-42 140 334 115 89 72 
-42 140 334 106 102 103 
-41 139 332 108 104 105 
-51 142 337 188 134 98 
-50 141 336 185 131 95 
-49 141 335 197 138 104 
-49 141 335 199 140 106 
-48 141 335 151 110 82 
-48 141 334 132 91 63 
-47 141 335 140 113 94 
-47 141 335 146 119 100 
-46 141 335 113 85 74 
-46 141 335 98 70 59 
-45 141 335 153 112 82 
-44 141 335 200 159 129 
-44 142 336 196 156 120 
-44 142 336 167 127 91 
-43 142 336 111 106 110 
-51 142 337 190 132 92 
-50 142 336 189 131 91 
-49 142 335 193 135 98 
-49 142 335 202 144 107 
-48 142 335 150 109 81 
-48 142 335 115 74 46 
-47 142 335 114 87 68 
-47 142 335 109 82 63 
-46 142 335 98 72 59 
-46 142 335 102 76 63 
-45 142 335 166 125 95 
-44 142 335 198 157 127 
-44 142 336 187 147 111 
-44 142 336 161 121 85 
-51 143 338 171 126 97 
-51 143 337 189 128 84 
-50 143 336 195 134 90 
-49 142 335 192 133 93 
-49 142 335 198 139 99 
-48 142 335 160 119 89 
-48 142 335 115 74 44 
-47 142 335 91 63 41 
-47 142 335 87 59 37 
-46 142 335 94 65 49 
-46 142 335 134 105 89 
-45 142 335 183 142 112 
-44 142 335 190 149 119 
-44 143 336 182 139 104 
-44 143 336 157 114 79 
-51 143 337 160 124 102 
-51 143 336 188 127 82 
-50 143 336 194 133 88 
-49 143 336 195 136 94 
-49 143 335 195 136 94 
-48 143 335 180 135 102 
-48 143 335 156 111 78 
-47 143 335 127 92 64 
-46 142 334 132 97 69 
-46 142 334 150 116 91 
-46 143 335 179 145 120 
-45 143 335 186 143 109 
-44 143 335 186 143 109 
-44 143 336 180 137 102 
-44 143 336 152 109 74 
-43 143 336 116 102 93 
-50 143 335 187 128 86 
-50 143 335 189 130 88 
-49 143 335 194 137 92 
-49 143 335 192 135 90 
-48 143 335 186 138 102 
-48 143 335 188 140 104 
-47 143 335 183 137 103 
-47 143 335 187 141 107 
-46 143 334 193 150 116 
-46 143 335 189 146 112 
-45 143 335 182 138 103 
-44 143 335 190 146 111 
-47 144 335 194 142 103 
-46 143 334 193 141 102 
-46 144 335 195 148 106 
-46 144 335 189 142 100 
-45 144 335 186 142 105 
-47 144 335 184 131 91 
-46 144 334 186 133 93 
-46 144 334 183 139 94 
-46 144 335 186 142 97 
-45 144 335 179 136 101 
-47 144 334 179 130 90 
-46 144 334 185 136 96 
-46 144 334 187 144 101 
