ply
format ascii 1.0
comment Created by CloudCompare v2.10.1 (Zephyrus)
comment Created 2020-05-17 12:56 AM
obj_info Generated by CloudCompare!
element vertex 345
property float x
property float y
property float z
property uchar red
property uchar green
property uchar blue
end_header
-40 -16 365 191 165 150 
-40 -15 361 184 145 130 
-39 -15 359 178 139 124 
-38 -15 358 183 123 99 
-38 -15 358 189 129 105 
-41 -14 359 135 131 122 
-41 -14 359 156 143 127 
-40 -14 359 168 155 139 
-40 -14 358 198 157 135 
-39 -14 357 199 158 136 
-38 -14 357 210 156 128 
-38 -14 357 208 154 126 
-37 -14 356 194 143 114 
-36 -14 356 180 129 100 
-36 -14 356 197 142 111 
-40 -14 356 217 176 154 
-39 -14 356 231 179 155 
-39 -14 356 233 181 157 
-38 -14 355 241 184 157 
-38 -14 355 245 188 161 
-37 -14 355 243 186 156 
-36 -14 355 237 180 150 
-36 -14 355 225 168 138 
-40 -13 355 223 179 152 
-40 -13 355 226 182 155 
-39 -13 355 230 182 159 
-39 -13 355 236 188 165 
-38 -13 355 243 192 163 
-38 -13 355 244 193 164 
-37 -13 355 248 195 161 
-36 -13 355 249 196 162 
-36 -13 355 250 193 163 
-35 -13 355 244 187 157 
-35 -13 355 230 172 148 
-34 -13 355 200 142 118 
-41 -12 355 223 177 151 
-40 -12 355 230 184 158 
-40 -12 355 230 184 158 
-39 -12 355 233 185 163 
-39 -12 355 241 193 171 
-38 -12 355 250 199 172 
-38 -12 355 250 199 172 
-37 -12 355 255 199 164 
-36 -12 355 253 197 162 
-36 -12 355 255 202 169 
-35 -12 354 255 202 169 
-35 -12 354 255 195 171 
-34 -12 354 252 192 168 
-33 -12 354 219 160 130 
-33 -12 355 177 118 88 
-32 -12 355 190 128 91 
-32 -12 355 220 158 121 
-41 -12 354 219 167 145 
-41 -12 354 228 176 154 
-40 -12 354 233 181 159 
-40 -12 354 240 188 166 
-39 -12 354 250 193 173 
-39 -12 354 253 196 176 
-38 -12 354 255 198 174 
-37 -12 354 255 200 176 
-37 -12 354 255 203 171 
-36 -12 354 255 201 169 
-36 -12 354 255 199 166 
-35 -12 354 253 197 164 
-35 -12 354 255 202 178 
-34 -12 354 253 193 169 
-33 -12 354 245 184 153 
-33 -12 354 212 151 120 
-32 -12 355 166 100 65 
-32 -12 355 167 101 66 
-41 -11 354 219 172 146 
-41 -11 354 223 176 150 
-40 -11 354 235 185 158 
-40 -11 354 241 191 164 
-39 -11 354 250 199 172 
-38 -11 353 255 204 177 
-38 -11 353 255 208 178 
-37 -11 354 255 211 181 
-37 -11 354 254 211 179 
-36 -11 354 250 207 175 
-36 -11 354 255 202 170 
-35 -11 354 249 196 164 
-35 -11 354 251 197 171 
-34 -11 354 251 197 171 
-33 -11 354 247 188 158 
-33 -11 354 234 175 145 
-32 -11 354 197 130 101 
-32 -11 355 140 73 44 
-31 -11 356 163 100 69 
-31 -11 357 197 134 103 
-41 -11 353 231 173 149 
-41 -11 353 231 173 149 
-40 -11 353 240 183 156 
-40 -11 353 244 187 160 
-39 -11 354 254 197 168 
-38 -11 353 255 204 175 
-38 -11 353 255 210 183 
-37 -11 353 255 209 182 
-37 -11 353 247 210 183 
-36 -11 353 249 212 185 
-36 -11 353 252 203 170 
-35 -11 353 251 202 169 
-34 -11 353 246 196 169 
-34 -11 353 245 195 168 
-33 -11 354 236 181 150 
-33 -11 354 229 174 143 
-32 -11 354 220 153 127 
-32 -11 355 160 93 67 
-31 -11 357 106 46 18 
-31 -11 358 159 99 71 
-41 -10 353 227 175 151 
-41 -10 353 221 169 145 
-40 -10 353 237 185 161 
-40 -10 353 243 191 167 
-39 -10 353 249 197 173 
-38 -10 353 254 202 178 
-38 -10 353 255 205 181 
-37 -10 353 255 206 182 
-37 -10 353 255 205 179 
-36 -10 353 254 200 174 
-36 -10 353 255 206 173 
-35 -10 353 254 204 171 
-34 -10 353 255 199 174 
-34 -10 353 249 193 168 
-33 -10 354 238 188 161 
-33 -10 354 231 181 154 
-32 -10 354 215 157 133 
-32 -10 355 185 127 103 
-31 -10 357 132 55 29 
-31 -10 358 130 53 27 
-41 -9 352 230 179 152 
-41 -9 352 217 166 139 
-40 -9 353 234 183 156 
-40 -9 353 239 188 161 
-39 -9 353 244 190 164 
-38 -9 353 248 194 168 
-38 -9 353 251 197 171 
-37 -9 353 253 199 173 
-37 -10 353 253 199 171 
-36 -10 353 249 195 167 
-36 -10 353 246 197 164 
-35 -10 353 245 196 163 
-34 -10 353 245 195 162 
-34 -10 354 244 194 161 
-33 -10 354 243 188 158 
-33 -10 354 234 179 149 
-32 -10 354 216 160 133 
-32 -10 355 193 137 110 
-31 -10 357 135 68 42 
-31 -10 359 111 44 18 
-41 -9 352 233 182 155 
-41 -9 352 210 159 132 
-40 -9 353 232 178 150 
-40 -9 353 236 182 154 
-39 -9 353 238 184 156 
-38 -9 353 241 187 159 
-38 -9 352 244 189 159 
-37 -9 352 245 190 160 
-37 -9 353 245 190 160 
-36 -9 353 243 188 158 
-35 -9 352 237 186 155 
-35 -9 353 234 183 152 
-34 -9 353 234 186 146 
-34 -9 353 238 190 150 
-33 -9 353 242 183 151 
-33 -9 353 230 171 139 
-32 -9 354 206 155 126 
-32 -9 355 189 138 109 
-31 -9 357 158 104 80 
-31 -9 359 135 81 57 
-41 -8 352 231 180 151 
-41 -8 352 201 150 121 
-40 -8 353 220 167 136 
-40 -8 353 225 172 141 
-39 -8 353 228 173 142 
-38 -8 353 230 175 144 
-38 -8 352 230 175 144 
-37 -8 352 230 175 144 
-37 -8 353 230 175 144 
-36 -8 353 229 174 143 
-36 -8 353 229 179 146 
-35 -8 353 225 175 142 
-34 -8 353 226 174 134 
-34 -8 353 231 179 139 
-33 -8 353 232 178 142 
-33 -8 353 220 166 130 
-32 -8 354 201 147 119 
-32 -8 355 187 133 105 
-31 -8 357 174 124 101 
-31 -8 359 167 117 94 
-31 -9 361 136 127 132 
-41 -8 352 227 174 143 
-41 -8 353 194 141 110 
-40 -8 353 215 160 129 
-40 -8 353 218 163 132 
-39 -8 353 220 166 132 
-38 -8 353 221 167 133 
-38 -8 353 222 166 133 
-37 -8 353 221 165 132 
-37 -8 353 222 166 133 
-36 -8 353 220 164 131 
-36 -8 353 218 166 129 
-35 -8 353 214 162 125 
-34 -8 353 214 159 120 
-34 -8 353 217 162 123 
-33 -8 354 213 165 129 
-33 -8 354 205 157 121 
-32 -8 355 195 139 112 
-32 -8 356 183 127 100 
-31 -8 358 171 125 102 
-31 -8 359 166 120 97 
-31 -8 361 124 129 133 
-41 -7 353 217 162 131 
-41 -7 353 186 131 100 
-40 -7 353 202 146 113 
-40 -7 354 206 150 117 
-39 -7 354 210 154 121 
-39 -7 354 211 155 122 
-38 -7 354 212 153 119 
-37 -7 353 212 153 119 
-37 -7 353 212 153 119 
-36 -7 353 208 149 115 
-36 -7 353 210 152 115 
-35 -7 354 208 150 113 
-35 -7 354 205 145 111 
-34 -7 354 205 145 111 
-33 -7 355 197 149 113 
-33 -7 355 189 141 105 
-32 -7 356 183 127 100 
-32 -7 357 175 119 92 
-32 -7 359 165 122 103 
-31 -7 361 164 121 102 
-31 -7 363 121 132 136 
-41 -7 353 200 141 109 
-41 -7 354 171 112 80 
-40 -7 354 187 128 96 
-40 -7 354 194 135 103 
-39 -7 355 200 140 106 
-39 -7 355 202 142 108 
-38 -7 355 200 140 104 
-37 -7 354 200 140 104 
-37 -7 354 199 139 105 
-36 -7 354 196 136 102 
-36 -7 354 202 140 103 
-35 -7 354 201 139 102 
-35 -7 355 193 134 102 
-34 -7 355 193 134 102 
-33 -7 355 190 134 101 
-33 -7 356 181 125 92 
-33 -7 357 170 117 86 
-32 -7 358 169 116 85 
-32 -7 360 154 122 107 
-31 -7 362 158 126 111 
-31 -7 364 125 135 144 
-41 -6 354 181 121 87 
-41 -6 355 154 94 60 
-40 -6 355 169 109 75 
-40 -6 355 179 119 85 
-39 -6 356 187 124 89 
-39 -6 356 187 124 89 
-38 -6 356 185 122 87 
-38 -6 355 185 122 87 
-37 -6 355 186 123 88 
-36 -6 355 185 122 87 
-36 -6 355 187 121 86 
-35 -6 355 186 120 85 
-35 -6 356 174 120 86 
-34 -6 356 175 121 87 
-34 -6 356 184 119 87 
-33 -6 357 174 109 77 
-33 -6 358 159 108 77 
-32 -6 359 164 113 82 
-32 -6 362 150 128 115 
-41 -5 355 138 81 52 
-41 -6 356 153 92 63 
-40 -6 357 162 101 72 
-39 -6 357 168 107 78 
-39 -6 356 170 109 80 
-38 -6 356 173 109 82 
-38 -6 356 173 109 82 
-37 -6 356 174 106 83 
-36 -5 355 175 107 84 
-36 -6 356 168 107 78 
-35 -6 356 168 107 78 
-35 -6 356 169 109 75 
-34 -6 356 169 109 75 
-34 -6 357 174 105 66 
-33 -6 358 169 100 61 
-33 -6 359 159 107 83 
-32 -6 361 169 117 93 
-32 -6 363 132 128 125 
-41 -5 357 126 69 39 
-41 -5 357 136 77 45 
-40 -5 357 144 85 53 
-40 -5 358 152 92 58 
-39 -5 358 156 96 62 
-38 -5 357 159 96 65 
-38 -5 357 159 96 65 
-37 -5 356 158 95 64 
-36 -5 356 158 95 64 
-36 -5 356 162 99 66 
-35 -5 357 159 96 63 
-35 -5 357 155 92 61 
-34 -5 358 153 90 59 
-34 -5 359 152 96 63 
-33 -5 360 158 102 69 
-33 -5 361 147 115 94 
-41 -4 358 121 61 33 
-41 -4 358 132 66 42 
-40 -4 359 134 68 44 
-40 -4 360 143 71 46 
-39 -4 360 148 76 51 
-39 -4 360 148 79 50 
-38 -4 359 149 80 51 
-37 -4 358 145 81 53 
-37 -4 358 144 80 52 
-36 -4 358 142 81 52 
-36 -4 359 142 81 52 
-35 -4 359 139 83 60 
-35 -4 360 141 85 62 
-34 -4 361 136 100 78 
-34 -4 362 147 111 89 
-41 -4 359 129 74 53 
-41 -4 360 132 83 68 
-41 -4 361 128 79 64 
-40 -4 361 128 75 61 
-39 -4 362 128 75 61 
-39 -4 362 132 75 58 
-38 -4 361 132 75 58 
-37 -4 360 132 75 58 
-37 -4 360 132 75 58 
-36 -4 360 127 81 65 
-36 -4 361 133 87 71 
-35 -4 361 132 98 86 
-35 -4 362 138 104 92 
-34 -4 364 130 117 108 
-41 -3 362 134 121 115 
-41 -3 363 128 115 109 
-40 -3 363 118 111 105 
-40 -3 363 116 109 103 
-38 -3 363 123 106 99 
-38 -3 362 132 103 99 
-37 -3 362 133 104 100 
-41 -3 363 129 128 133 
-41 -3 364 127 126 131 
