ply
format ascii 1.0
comment Created by CloudCompare v2.10.1 (Zephyrus)
comment Created 2020-05-17 12:57 AM
obj_info Generated by CloudCompare!
element vertex 484
property float x
property float y
property float z
property uchar red
property uchar green
property uchar blue
end_header
-103 -7 346 159 160 164 
-102 -7 346 147 148 152 
-102 -7 347 149 146 153 
-102 -7 348 145 142 149 
-101 -7 350 145 135 144 
-101 -7 350 148 131 137 
-100 -7 350 142 125 131 
-100 -7 350 143 119 119 
-99 -7 349 147 123 123 
-99 -7 350 148 124 124 
-98 -7 350 147 123 123 
-97 -7 349 142 122 124 
-97 -7 350 143 123 125 
-96 -7 352 152 136 146 
-103 -6 346 179 173 173 
-102 -6 346 166 160 160 
-102 -6 347 176 158 158 
-102 -6 347 171 153 153 
-101 -6 347 172 147 143 
-101 -6 348 169 144 140 
-100 -6 348 170 140 132 
-100 -6 348 163 133 125 
-99 -7 349 160 126 114 
-99 -7 349 162 128 116 
-98 -7 349 153 124 118 
-98 -7 349 152 123 117 
-97 -7 349 150 122 119 
-97 -7 349 150 122 119 
-103 -6 346 211 210 208 
-103 -6 346 203 185 181 
-102 -6 346 193 175 171 
-102 -6 347 204 170 160 
-101 -6 346 199 165 155 
-101 -6 346 205 159 143 
-100 -6 347 203 157 141 
-100 -6 347 203 158 135 
-99 -6 347 200 155 132 
-99 -6 348 195 154 126 
-99 -6 348 197 156 128 
-98 -6 348 190 153 144 
-97 -6 348 187 150 141 
-97 -6 348 180 147 140 
-96 -6 348 174 141 134 
-96 -6 348 169 141 138 
-95 -6 349 164 136 133 
-95 -6 348 160 138 140 
-94 -6 348 159 137 139 
-94 -6 349 151 132 136 
-94 -6 350 151 132 136 
-93 -6 350 149 132 140 
-93 -6 351 153 136 144 
-92 -6 352 154 137 145 
-104 -5 346 242 218 214 
-103 -5 346 214 190 186 
-103 -5 345 219 181 170 
-102 -5 345 214 176 165 
-102 -5 346 216 167 150 
-101 -5 346 214 165 148 
-101 -5 346 217 165 143 
-100 -5 346 217 165 143 
-100 -5 347 215 165 138 
-99 -5 347 215 165 138 
-99 -5 347 213 166 136 
-98 -5 347 212 165 135 
-98 -5 347 212 165 137 
-97 -5 347 209 162 134 
-97 -5 347 206 160 136 
-96 -5 347 205 159 135 
-95 -5 347 201 159 137 
-95 -5 347 196 154 132 
-95 -5 348 187 149 130 
-94 -5 348 182 144 125 
-94 -5 348 171 137 127 
-93 -5 348 165 131 121 
-93 -5 349 162 134 130 
-92 -5 349 159 131 127 
-92 -5 349 156 130 129 
-104 -5 346 224 190 178 
-103 -5 346 216 182 170 
-103 -5 345 226 183 166 
-102 -5 345 226 183 166 
-102 -5 345 223 173 150 
-101 -5 345 223 173 150 
-100 -5 345 223 171 147 
-100 -5 345 223 171 147 
-99 -5 345 223 171 147 
-99 -5 346 223 171 147 
-99 -5 346 225 174 147 
-98 -5 346 226 175 148 
-97 -5 346 224 174 151 
-97 -5 346 221 171 148 
-96 -5 346 218 170 148 
-96 -5 346 218 170 148 
-95 -5 346 215 169 146 
-95 -5 347 213 167 144 
-94 -5 347 208 163 140 
-94 -5 347 205 160 137 
-94 -5 348 194 152 130 
-93 -5 348 189 147 125 
-93 -5 349 184 146 127 
-92 -5 349 181 143 124 
-92 -5 349 181 144 125 
-106 -4 345 241 220 219 
-105 -4 345 237 200 184 
-105 -4 345 234 192 176 
-104 -4 345 231 189 173 
-104 -4 346 231 186 165 
-103 -4 345 229 184 163 
-103 -4 345 229 181 158 
-102 -4 345 224 176 153 
-101 -4 344 232 180 156 
-101 -4 344 234 182 158 
-100 -4 345 233 181 159 
-100 -4 345 232 180 158 
-99 -4 345 232 182 159 
-99 -4 346 233 183 160 
-99 -4 346 233 183 160 
-98 -4 346 234 184 161 
-97 -4 345 233 182 161 
-97 -4 345 231 180 159 
-96 -4 346 228 180 158 
-95 -4 345 226 178 156 
-95 -4 346 222 174 152 
-95 -4 346 221 173 151 
-94 -4 346 220 173 147 
-94 -4 347 217 170 144 
-93 -4 347 216 166 139 
-93 -4 348 213 163 136 
-92 -4 348 211 162 132 
-92 -4 348 211 162 132 
-91 -4 348 214 165 135 
-91 -4 348 211 162 132 
-105 -4 345 237 191 175 
-105 -4 345 238 191 173 
-104 -4 345 237 190 172 
-104 -4 345 237 189 167 
-103 -4 345 239 191 169 
-102 -4 344 242 192 169 
-102 -4 344 241 191 168 
-101 -4 344 241 191 168 
-101 -4 344 242 192 169 
-100 -4 344 240 192 170 
-100 -4 344 238 190 168 
-99 -4 345 238 191 171 
-99 -4 345 239 192 172 
-98 -4 345 237 192 171 
-98 -4 345 237 192 171 
-97 -4 345 237 191 165 
-97 -4 345 236 190 164 
-96 -4 346 235 189 165 
-95 -4 345 232 186 162 
-95 -4 345 229 185 160 
-95 -4 346 228 184 159 
-94 -4 346 230 183 157 
-94 -4 346 229 182 156 
-93 -4 346 226 176 149 
-93 -4 347 226 176 149 
-92 -4 347 227 176 149 
-92 -4 347 229 178 151 
-91 -4 347 231 180 153 
-91 -4 348 220 169 142 
-106 -3 346 237 194 178 
-105 -3 345 236 193 177 
-105 -3 345 243 198 179 
-104 -3 345 246 201 182 
-104 -3 345 246 198 176 
-103 -3 345 246 198 176 
-102 -3 344 250 200 177 
-102 -3 344 252 202 179 
-101 -3 344 251 201 178 
-101 -3 344 250 200 177 
-100 -3 344 247 199 177 
-100 -3 344 246 198 176 
-99 -3 344 244 199 176 
-99 -3 345 245 200 177 
-98 -3 345 244 202 178 
-98 -3 345 244 202 178 
-97 -3 345 245 199 173 
-97 -3 345 245 199 173 
-96 -3 345 242 196 170 
-95 -3 345 239 193 167 
-95 -3 345 238 192 168 
-95 -3 346 238 192 168 
-94 -3 346 236 190 166 
-94 -3 346 236 190 166 
-93 -3 346 236 189 163 
-92 -3 346 235 188 162 
-92 -3 347 235 185 160 
-92 -3 347 234 184 159 
-91 -3 347 230 182 159 
-106 -3 347 241 199 187 
-105 -3 346 245 202 186 
-105 -3 346 249 206 190 
-104 -3 345 252 205 185 
-103 -3 345 251 204 184 
-102 -3 344 255 206 183 
-102 -3 344 255 207 184 
-101 -3 344 255 206 183 
-101 -3 344 255 205 182 
-100 -3 344 255 206 181 
-100 -3 344 255 205 180 
-99 -3 344 252 205 179 
-99 -3 345 252 205 179 
-98 -3 345 252 206 182 
-98 -3 345 252 206 182 
-97 -3 344 252 202 179 
-97 -3 345 252 202 179 
-96 -3 345 248 198 175 
-95 -3 345 246 196 173 
-95 -3 345 246 196 173 
-94 -3 345 245 195 172 
-94 -3 346 240 193 167 
-94 -3 346 240 193 167 
-93 -3 346 243 196 168 
-92 -3 346 241 194 166 
-92 -3 347 241 192 162 
-92 -3 347 240 191 161 
-91 -3 347 234 187 157 
-106 -2 348 248 204 193 
-105 -2 347 251 207 196 
-104 -2 347 254 208 193 
-103 -2 346 253 207 192 
-103 -2 345 254 209 190 
-102 -2 345 253 208 189 
-101 -2 344 255 210 187 
-101 -2 344 255 209 186 
-100 -2 344 254 208 182 
-100 -2 344 254 208 182 
-99 -2 344 253 205 182 
-99 -2 345 252 204 181 
-98 -2 345 251 203 181 
-98 -2 345 252 204 182 
-97 -2 344 252 202 179 
-96 -2 344 250 200 177 
-96 -2 345 247 197 172 
-95 -2 345 247 197 172 
-95 -2 345 249 198 171 
-94 -2 345 249 198 171 
-94 -2 345 247 197 170 
-94 -2 346 247 197 170 
-93 -2 346 243 196 168 
-92 -2 346 241 194 166 
-92 -2 347 244 195 165 
-92 -2 347 244 195 165 
-91 -2 347 242 193 161 
-107 -1 350 197 149 147 
-106 -1 349 211 166 160 
-105 -1 349 227 182 176 
-105 -1 348 238 195 186 
-104 -1 347 245 202 193 
-103 -1 346 248 209 192 
-102 -1 345 248 209 192 
-102 -1 345 252 214 193 
-101 -1 345 250 212 191 
-100 -1 345 249 207 183 
-100 -1 345 248 206 182 
-99 -1 344 249 204 183 
-98 -1 344 246 201 180 
-98 -1 344 247 198 183 
-97 -1 344 247 198 183 
-97 -1 344 247 202 173 
-96 -1 344 244 199 170 
-96 -1 344 242 196 163 
-95 -1 344 242 196 163 
-95 -1 344 245 196 164 
-94 -1 345 244 195 163 
-94 -1 345 241 194 166 
-94 -1 346 241 194 166 
-93 -1 346 243 196 170 
-92 -1 346 240 193 167 
-92 -1 346 240 193 167 
-91 -1 346 241 194 168 
-91 -1 347 244 194 169 
-90 -1 347 224 174 149 
-90 -1 347 210 160 135 
-90 -1 348 215 165 140 
-106 -1 351 153 115 112 
-105 -1 350 167 130 114 
-104 -1 349 178 141 125 
-104 -1 348 194 155 138 
-103 -1 348 210 171 154 
-102 -1 347 232 190 176 
-101 -1 346 238 196 182 
-101 -1 346 243 199 186 
-100 -1 346 242 198 185 
-99 -1 345 245 199 183 
-99 -1 345 245 199 183 
-98 -1 345 243 198 177 
-98 -1 345 240 195 174 
-97 -1 344 240 196 171 
-96 -1 344 238 194 169 
-96 -1 344 237 193 164 
-95 -1 344 237 193 164 
-95 -1 344 238 192 159 
-94 -1 344 237 191 158 
-94 -1 345 239 190 157 
-93 -1 345 241 192 159 
-93 -1 345 241 194 166 
-92 -1 346 237 190 162 
-92 -1 346 238 192 166 
-91 -1 346 237 191 165 
-91 -1 346 243 192 165 
-90 -1 347 223 172 145 
-90 -1 347 212 155 125 
-106 0 354 126 93 86 
-106 0 353 131 98 91 
-105 0 352 132 98 86 
-104 0 351 138 104 92 
-103 0 349 173 135 124 
-102 0 349 185 147 136 
-101 0 348 203 161 147 
-101 0 348 216 174 160 
-100 0 347 229 183 167 
-99 0 346 231 185 169 
-99 0 346 231 186 165 
-98 0 346 232 187 166 
-97 0 345 233 186 160 
-97 0 345 231 184 158 
-96 0 345 230 183 155 
-95 0 345 231 184 156 
-95 0 345 235 185 158 
-94 0 345 236 186 159 
-94 0 345 235 186 156 
-93 0 345 233 184 154 
-93 0 345 235 185 160 
-92 0 346 234 184 159 
-92 0 346 233 186 160 
-91 0 346 234 187 161 
-91 0 346 236 186 159 
-90 0 347 217 167 140 
-90 0 347 202 149 117 
-106 0 355 118 89 85 
-105 0 354 119 90 86 
-104 0 353 130 96 87 
-103 0 352 132 98 89 
-102 0 352 142 102 90 
-101 0 350 155 115 103 
-100 0 349 174 131 115 
-100 0 349 185 142 126 
-99 0 348 198 153 134 
-98 0 347 210 165 146 
-98 0 347 223 176 150 
-97 0 346 226 179 153 
-96 0 346 229 179 154 
-96 0 346 227 177 152 
-95 0 346 226 174 150 
-95 0 346 226 174 150 
-94 0 346 228 176 152 
-94 0 346 229 177 153 
-93 0 346 227 177 152 
-92 0 346 226 176 151 
-92 0 346 221 175 149 
-91 0 346 222 176 150 
-91 0 347 221 174 144 
-90 0 347 204 157 127 
-90 0 348 184 135 102 
-90 0 348 184 135 102 
-106 1 357 121 99 101 
-106 1 357 113 91 93 
-105 1 356 126 97 93 
-104 1 355 123 94 90 
-103 1 355 127 90 82 
-102 1 354 126 89 81 
-101 1 352 130 87 78 
-101 1 351 133 90 81 
-100 1 350 145 101 90 
-99 1 350 158 114 103 
-98 1 349 171 129 107 
-97 1 348 184 142 120 
-97 1 348 202 154 131 
-96 1 347 211 163 140 
-95 1 346 218 167 140 
-95 1 346 220 169 142 
-94 1 346 220 166 140 
-94 1 346 217 163 137 
-93 1 346 215 165 138 
-92 1 346 214 164 137 
-92 1 346 208 161 133 
-91 1 346 210 163 135 
-91 1 347 209 160 130 
-90 1 347 195 146 116 
-90 1 348 171 121 88 
-90 1 348 168 118 85 
-106 1 357 117 98 104 
-105 1 356 125 99 100 
-104 1 356 119 93 94 
-104 1 356 122 88 86 
-103 1 356 122 88 86 
-103 1 356 126 86 84 
-102 1 355 127 87 85 
-101 1 354 131 87 86 
-100 1 353 131 87 86 
-99 1 352 130 92 79 
-98 1 351 136 98 85 
-97 1 350 154 109 90 
-97 1 349 169 124 105 
-96 1 349 193 139 113 
-95 1 348 205 151 125 
-95 1 348 208 153 123 
-94 1 347 205 150 120 
-93 1 347 197 146 117 
-93 1 347 197 146 117 
-92 1 347 193 143 116 
-92 1 347 193 143 116 
-91 1 347 186 135 108 
-91 1 348 172 121 94 
-90 1 348 150 96 70 
-90 1 348 145 91 65 
-105 2 357 117 95 98 
-104 2 357 113 91 94 
-104 2 357 118 90 89 
-103 2 357 118 90 89 
-103 2 357 121 87 86 
-102 2 357 120 86 85 
-102 2 357 123 84 85 
-101 2 356 121 82 83 
-100 2 356 116 81 75 
-99 2 355 114 79 73 
-99 2 354 120 78 66 
-98 2 354 125 83 71 
-97 2 352 141 93 73 
-96 2 351 155 107 87 
-95 2 350 168 116 92 
-94 2 349 173 121 97 
-94 2 348 178 127 100 
-93 2 348 178 127 100 
-92 2 348 177 126 99 
-92 2 348 171 120 93 
-91 2 348 160 109 88 
-91 2 348 145 94 73 
-90 2 349 125 77 57 
-90 2 349 121 73 53 
-103 3 358 112 84 83 
-103 3 358 112 84 83 
-102 3 359 115 83 84 
-101 3 358 115 83 84 
-101 3 358 112 76 76 
-100 3 358 113 77 77 
-99 3 357 116 78 77 
-99 3 357 117 79 78 
-98 3 356 118 79 72 
-97 3 355 119 80 73 
-96 3 353 129 86 70 
-95 3 352 135 92 76 
-94 3 350 152 104 82 
-93 3 349 154 106 84 
-93 3 350 158 108 85 
-92 3 349 153 103 80 
-92 3 349 141 100 82 
-91 3 350 128 87 69 
-91 3 350 104 72 59 
-90 3 350 98 66 53 
-90 3 351 118 80 61 
-102 3 361 114 86 83 
-102 3 361 113 77 77 
-101 3 361 110 74 74 
-100 3 360 107 75 78 
-99 3 359 110 78 81 
-99 3 359 109 79 81 
-98 3 358 107 77 79 
-97 3 357 111 76 70 
-96 3 355 113 78 72 
-95 3 354 126 80 64 
-94 3 352 129 83 67 
-93 3 351 137 91 68 
-93 3 351 136 90 67 
-92 3 351 128 97 79 
-92 3 351 113 82 64 
-91 3 351 78 64 53 
-90 3 351 65 51 40 
-90 3 351 82 87 67 
-97 4 358 113 85 82 
-96 4 357 120 92 88 
-95 4 355 126 98 94 
-94 4 354 123 100 94 
-93 4 354 129 106 100 
-92 4 352 138 125 116 
-92 4 352 100 87 78 
-96 4 359 99 88 82 
-95 4 357 135 124 118 
-95 4 356 137 130 122 
-94 4 356 144 137 129 
-93 4 355 132 128 117 
-93 4 355 81 77 66 
