ply
format ascii 1.0
comment Created by CloudCompare v2.10.1 (Zephyrus)
comment Created 2020-05-17 12:57 AM
obj_info Generated by CloudCompare!
element vertex 1288
property float x
property float y
property float z
property uchar red
property uchar green
property uchar blue
end_header
-61 151 358 45 46 41 
-53 145 344 169 111 71 
-52 144 341 176 118 78 
-58 145 343 68 59 54 
-57 145 342 58 54 53 
-56 145 342 60 56 55 
-56 145 342 78 68 66 
-55 145 342 137 127 125 
-55 145 342 140 136 137 
-54 145 342 128 124 125 
-54 145 343 134 135 129 
-53 145 342 132 133 127 
-53 145 342 161 108 74 
-52 143 339 175 122 88 
-60 145 341 77 66 64 
-59 144 340 76 65 63 
-59 144 340 71 67 58 
-58 143 338 70 66 57 
-57 143 338 73 63 54 
-57 143 338 74 64 55 
-56 143 338 71 63 61 
-56 143 338 70 62 60 
-55 143 338 111 101 100 
-55 144 339 143 133 132 
-54 144 339 134 129 133 
-54 144 339 128 123 127 
-53 144 339 138 137 135 
-53 144 339 132 131 129 
-52 144 339 158 113 84 
-62 145 341 79 68 62 
-61 144 338 78 67 61 
-60 143 337 77 66 60 
-59 143 336 81 66 63 
-59 143 336 81 66 63 
-58 143 336 75 66 61 
-58 143 336 78 69 64 
-57 143 336 76 63 55 
-56 143 336 78 65 57 
-56 143 336 79 69 68 
-55 143 336 71 61 60 
-55 143 337 134 126 124 
-54 143 337 151 143 141 
-54 143 337 130 129 127 
-53 143 336 137 136 134 
-53 143 336 142 141 139 
-52 143 337 128 127 125 
-52 143 337 163 127 105 
-43 144 337 113 99 90 
-42 144 338 110 103 97 
-42 144 338 117 110 104 
-41 144 338 118 111 105 
-41 144 338 119 112 106 
-40 144 338 125 118 112 
-39 144 338 118 111 105 
-39 144 338 108 103 99 
-62 144 338 82 69 63 
-61 144 337 79 68 64 
-61 144 336 79 68 64 
-60 143 335 79 68 66 
-59 143 335 78 67 65 
-59 143 334 81 66 63 
-58 143 334 82 67 64 
-58 143 334 78 66 66 
-57 143 334 79 67 67 
-57 143 334 76 65 63 
-56 143 334 77 66 64 
-56 143 334 77 66 70 
-55 143 335 92 81 85 
-55 143 335 145 139 139 
-54 143 335 148 142 142 
-54 143 335 132 133 127 
-53 143 335 146 147 141 
-53 143 335 139 138 134 
-52 144 336 130 129 125 
-52 144 336 161 138 122 
-51 144 336 145 122 106 
-44 144 336 169 124 91 
-44 144 336 138 93 60 
-43 144 336 120 103 87 
-43 144 337 118 101 85 
-42 145 338 136 119 101 
-42 145 338 149 132 114 
-41 145 338 162 141 120 
-41 145 338 165 144 123 
-40 145 338 174 152 131 
-39 144 337 159 137 116 
-39 144 337 124 108 93 
-64 146 340 88 74 71 
-63 144 337 87 73 70 
-62 144 335 84 70 67 
-61 143 334 81 67 64 
-60 143 334 80 66 63 
-60 143 333 80 66 65 
-59 143 333 79 65 64 
-59 143 333 84 66 62 
-58 143 333 84 66 62 
-58 143 333 81 69 69 
-57 143 333 76 64 64 
-56 143 333 80 69 65 
-56 143 334 79 68 64 
-56 143 334 72 60 62 
-55 143 334 124 112 114 
-55 144 335 153 147 147 
-54 144 335 143 137 137 
-54 144 335 140 141 133 
-53 144 335 146 147 139 
-53 144 335 132 131 127 
-52 144 335 140 139 135 
-51 144 335 153 139 128 
-51 144 335 137 123 112 
-50 144 335 176 121 82 
-50 144 335 186 131 92 
-49 144 335 187 133 89 
-49 144 335 187 133 89 
-48 144 335 184 134 97 
-48 144 335 185 135 98 
-44 144 335 181 137 100 
-44 144 336 160 115 82 
-44 144 336 151 106 73 
-43 145 337 150 128 105 
-43 145 337 165 143 120 
-42 145 337 179 150 116 
-42 145 337 190 161 127 
-41 145 337 203 169 131 
-40 145 337 202 168 130 
-40 145 337 211 176 138 
-39 144 336 197 162 124 
-39 144 336 146 122 96 
-63 145 336 91 74 67 
-63 144 335 90 73 66 
-62 144 334 89 72 64 
-61 143 333 87 70 62 
-61 143 333 85 68 58 
-60 143 333 85 68 58 
-59 143 332 86 69 61 
-59 142 331 86 69 61 
-58 143 332 86 68 56 
-58 143 332 88 70 58 
-57 143 332 82 68 59 
-57 143 332 77 63 54 
-56 143 332 80 68 52 
-56 143 333 79 67 51 
-55 143 333 81 66 61 
-55 143 333 143 128 123 
-54 144 334 156 148 146 
-54 144 334 139 131 129 
-53 144 334 145 145 135 
-53 144 334 144 144 134 
-52 144 334 130 122 119 
-52 144 334 151 143 140 
-51 144 334 141 128 119 
-51 144 334 131 118 109 
-50 144 334 167 115 78 
-50 144 334 176 124 87 
-49 144 335 177 126 83 
-49 144 335 182 131 88 
-48 144 335 181 133 97 
-48 144 335 177 129 93 
-44 144 335 172 129 94 
-44 145 336 180 135 102 
-44 145 336 191 146 113 
-43 145 336 184 157 128 
-43 145 337 195 168 139 
-42 145 337 208 171 129 
-41 145 337 213 176 134 
-41 145 337 219 178 132 
-40 145 337 217 176 130 
-40 145 336 222 181 137 
-39 145 336 219 178 134 
-39 145 336 173 146 116 
-38 145 336 134 107 77 
-64 145 336 94 77 67 
-64 144 334 91 74 64 
-63 144 333 92 76 63 
-62 144 333 89 73 60 
-62 143 332 91 73 59 
-61 143 332 94 76 62 
-60 143 331 98 81 63 
-60 143 331 103 86 68 
-59 143 331 109 92 74 
-59 142 330 111 94 76 
-58 143 331 122 99 81 
-58 143 331 132 109 91 
-57 143 331 124 105 88 
-57 143 331 129 110 93 
-56 143 331 126 110 84 
-56 143 332 122 106 80 
-55 143 332 132 114 100 
-55 143 332 174 156 142 
-54 144 333 164 150 147 
-54 144 333 153 139 136 
-53 144 333 162 155 147 
-53 144 333 161 154 146 
-52 144 333 149 136 130 
-52 144 333 172 159 153 
-51 144 333 150 136 125 
-51 144 333 143 129 118 
-50 144 334 167 117 80 
-50 144 334 158 108 71 
-49 144 334 166 119 77 
-49 144 334 174 127 85 
-48 144 334 170 124 90 
-48 144 334 172 126 92 
-46 145 335 186 143 100 
-45 145 335 172 134 98 
-44 145 335 181 143 107 
-44 145 335 207 162 129 
-44 145 336 215 170 137 
-43 145 336 209 179 143 
-42 145 336 213 183 147 
-42 145 336 221 183 138 
-41 146 337 225 187 142 
-41 145 336 230 188 140 
-40 145 336 232 190 142 
-40 145 336 229 190 147 
-39 145 336 233 194 151 
-39 145 336 197 170 141 
-38 145 336 138 111 82 
-38 145 336 118 106 92 
-66 148 341 90 77 71 
-65 145 335 88 75 69 
-64 144 333 98 80 70 
-63 144 332 103 85 75 
-62 143 331 117 94 78 
-62 143 331 128 105 89 
-61 143 331 141 116 94 
-61 143 331 152 127 105 
-60 143 331 163 137 110 
-60 143 330 168 142 115 
-59 143 330 170 143 113 
-59 143 330 172 145 115 
-58 143 330 185 150 108 
-58 143 330 187 152 110 
-57 143 331 189 152 110 
-57 143 331 189 152 110 
-56 143 331 192 154 117 
-56 143 331 194 156 119 
-55 144 332 192 161 130 
-55 144 332 197 166 135 
-54 144 332 188 164 138 
-54 144 332 189 165 139 
-53 144 332 187 166 145 
-53 144 332 189 168 147 
-52 144 332 193 172 155 
-52 144 333 192 171 154 
-51 144 333 183 161 147 
-51 144 333 174 152 138 
-50 144 333 179 135 98 
-50 144 333 162 118 81 
-49 144 333 156 112 75 
-49 145 334 165 121 84 
-48 145 334 173 129 92 
-48 145 334 178 134 97 
-47 145 334 187 143 106 
-46 145 334 197 153 116 
-46 145 334 202 158 121 
-45 145 334 199 155 118 
-45 145 334 198 156 118 
-44 145 335 211 169 131 
-44 145 335 225 183 145 
-43 145 335 228 186 148 
-43 146 336 229 187 149 
-42 146 336 231 189 151 
-42 146 336 232 189 147 
-41 146 336 235 192 150 
-41 146 336 233 196 143 
-40 146 336 233 196 143 
-40 146 336 240 197 155 
-39 146 336 237 194 152 
-39 146 336 222 181 137 
-38 146 336 162 121 77 
-38 146 336 109 108 113 
-67 147 339 91 77 66 
-66 146 335 100 86 75 
-65 145 333 117 101 85 
-64 144 332 133 117 101 
-63 144 331 151 131 107 
-63 144 331 160 140 116 
-62 143 330 175 151 123 
-62 143 330 182 158 130 
-61 144 330 191 164 135 
-61 144 330 196 169 140 
-60 144 330 201 172 142 
-60 144 330 201 172 142 
-59 143 329 200 169 138 
-58 143 329 199 168 137 
-58 144 330 205 169 121 
-57 144 330 205 169 121 
-57 144 330 205 167 120 
-56 144 330 205 167 120 
-56 144 331 207 170 126 
-56 144 331 209 172 128 
-55 144 331 208 174 136 
-55 144 332 211 177 139 
-54 144 332 212 179 146 
-54 144 332 212 179 146 
-53 144 332 210 179 150 
-53 144 332 209 178 149 
-52 144 332 211 179 154 
-51 144 332 213 181 156 
-51 145 333 211 181 157 
-51 145 333 209 179 155 
-50 145 333 214 170 133 
-50 145 333 203 159 122 
-49 145 333 195 151 114 
-49 145 334 195 151 114 
-48 145 334 197 153 116 
-48 145 334 202 158 121 
-47 145 334 211 167 130 
-46 145 334 220 176 139 
-46 145 334 225 181 144 
-45 145 334 226 182 145 
-45 145 334 229 185 148 
-44 145 334 236 192 155 
-44 146 335 242 198 159 
-43 146 335 242 198 159 
-43 146 335 241 197 158 
-42 146 335 239 195 156 
-42 146 335 239 196 154 
-41 146 335 240 197 155 
-41 146 336 237 199 152 
-40 146 336 234 196 149 
-40 146 336 238 195 153 
-39 146 336 238 195 153 
-39 146 336 230 188 146 
-38 146 336 179 137 95 
-38 146 336 107 106 101 
-67 146 334 120 103 93 
-66 145 332 148 131 115 
-65 144 331 166 149 133 
-64 144 330 174 154 127 
-64 144 330 175 155 128 
-63 144 329 185 163 126 
-63 144 329 193 171 134 
-62 144 329 198 175 134 
-62 144 329 202 179 138 
-61 144 329 209 181 144 
-60 144 329 211 183 146 
-60 144 329 211 181 147 
-59 144 329 210 180 146 
-59 144 329 212 177 145 
-58 144 329 210 175 143 
-58 144 329 214 174 125 
-57 144 329 211 171 122 
-57 144 330 207 169 120 
-56 144 330 208 170 121 
-56 144 330 209 172 127 
-55 144 330 211 174 129 
-55 145 331 212 175 131 
-54 145 331 211 174 130 
-54 145 331 219 177 139 
-53 145 331 220 178 140 
-53 145 331 221 177 142 
-53 145 332 222 178 143 
-52 145 332 222 179 145 
-51 145 332 223 180 146 
-51 145 332 223 184 151 
-50 145 332 225 186 153 
-50 145 333 229 187 149 
-50 145 333 228 186 148 
-49 145 333 226 184 146 
-48 145 333 224 182 144 
-48 145 333 226 184 146 
-47 145 333 230 188 150 
-47 146 334 237 193 154 
-46 146 334 242 198 159 
-46 146 334 240 196 157 
-45 146 334 243 199 160 
-45 146 334 244 200 161 
-44 146 334 245 201 162 
-44 146 334 244 200 161 
-43 146 334 244 200 161 
-43 146 335 244 199 160 
-42 146 335 240 195 156 
-42 146 335 242 197 158 
-41 146 335 243 198 159 
-41 146 335 240 198 158 
-40 146 335 237 195 155 
-40 146 335 238 193 152 
-39 146 335 239 194 153 
-39 146 335 236 195 151 
-38 146 335 195 154 110 
-38 147 336 116 109 91 
-68 147 336 152 139 133 
-67 146 333 178 160 148 
-66 145 331 184 166 154 
-65 144 330 191 173 153 
-65 144 330 192 174 154 
-64 144 329 195 174 143 
-64 144 329 195 174 143 
-63 144 329 201 178 137 
-63 144 329 204 181 140 
-62 144 329 208 183 142 
-62 144 329 210 185 144 
-61 144 329 214 186 147 
-60 144 329 215 187 148 
-60 144 329 217 184 149 
-59 144 329 216 183 148 
-59 144 329 216 181 149 
-58 144 329 215 180 148 
-58 144 329 217 178 135 
-57 144 329 215 176 133 
-57 144 329 214 177 133 
-56 145 330 214 177 133 
-56 145 330 215 178 136 
-55 145 330 215 178 136 
-55 145 330 216 178 139 
-54 145 330 215 177 138 
-54 145 330 221 179 139 
-53 145 330 222 180 140 
-53 145 331 225 181 142 
-53 145 332 227 183 144 
-52 146 332 227 183 146 
-51 146 332 226 182 145 
-51 146 332 224 184 148 
-50 146 332 227 187 151 
-50 146 332 227 185 147 
-49 146 332 231 189 151 
-49 146 332 235 193 155 
-48 146 333 236 194 156 
-48 146 333 237 195 155 
-47 146 333 239 197 157 
-47 146 333 241 197 158 
-46 146 333 242 198 159 
-46 146 333 243 199 160 
-45 146 333 245 201 162 
-45 146 334 244 199 160 
-44 146 334 243 198 159 
-44 146 334 242 197 156 
-43 146 334 243 198 157 
-43 146 334 245 200 159 
-42 146 334 242 197 156 
-42 147 335 242 194 154 
-41 147 335 243 195 155 
-41 147 335 239 196 161 
-40 147 335 237 194 159 
-40 147 336 239 194 152 
-39 147 336 240 195 153 
-39 147 336 238 197 153 
-38 147 336 209 168 124 
-38 147 336 133 118 87 
-69 147 335 190 173 166 
-68 146 333 203 186 179 
-67 145 331 201 184 177 
-66 145 330 199 176 158 
-66 145 329 198 175 157 
-65 145 329 198 174 150 
-65 145 329 197 173 149 
-64 144 328 202 176 143 
-63 144 328 207 181 148 
-63 144 328 211 186 146 
-62 144 328 213 188 148 
-62 144 328 217 189 149 
-61 144 328 218 190 150 
-61 144 328 221 192 152 
-60 144 328 221 192 152 
-60 144 328 224 190 153 
-59 144 328 222 188 151 
-59 144 328 220 186 149 
-58 144 328 219 185 148 
-58 144 328 222 183 144 
-57 145 329 223 184 145 
-57 145 329 222 184 147 
-56 145 329 222 184 147 
-56 145 329 222 182 147 
-55 145 330 222 182 147 
-55 145 330 221 181 145 
-54 145 330 221 181 145 
-54 145 330 224 185 146 
-53 145 330 223 184 145 
-53 145 330 224 185 144 
-52 146 331 225 186 145 
-52 146 331 225 186 147 
-51 146 331 223 184 145 
-51 146 331 223 184 145 
-50 146 332 226 187 148 
-50 146 332 230 188 148 
-49 146 332 231 189 149 
-49 146 332 233 191 151 
-48 146 332 235 193 153 
-48 146 332 236 194 154 
-47 147 333 237 195 155 
-47 147 333 239 195 156 
-46 147 333 240 196 157 
-46 147 333 242 199 157 
-45 147 333 242 199 157 
-45 147 334 242 197 156 
-44 147 334 243 198 157 
-44 147 334 245 200 159 
-43 147 334 245 200 159 
-43 147 334 246 201 160 
-42 147 334 245 200 159 
-42 147 335 245 197 157 
-41 147 335 245 197 157 
-41 147 335 239 196 162 
-40 147 335 237 194 160 
-40 148 336 241 193 153 
-39 148 336 244 196 156 
-39 148 336 242 199 156 
-38 148 337 225 182 139 
-38 149 338 151 127 89 
-37 149 338 130 106 68 
-71 149 338 191 171 162 
-69 147 333 205 185 174 
-68 146 331 210 190 179 
-67 145 330 209 187 174 
-67 145 329 202 180 167 
-66 145 328 202 175 148 
-65 145 328 204 177 150 
-65 145 328 209 180 150 
-64 144 327 211 182 152 
-64 144 327 215 185 149 
-63 144 327 219 189 153 
-63 144 327 222 192 154 
-62 144 327 222 192 154 
-62 144 327 224 192 153 
-61 144 327 225 193 154 
-61 144 327 227 194 153 
-60 144 327 228 195 154 
-60 145 328 230 195 153 
-59 145 328 228 193 151 
-59 145 328 228 193 153 
-58 145 328 228 193 153 
-58 145 328 230 190 154 
-57 145 328 231 191 155 
-57 145 329 231 191 155 
-56 145 329 230 190 154 
-56 145 329 231 188 153 
-55 145 329 230 187 152 
-55 145 329 227 188 149 
-54 145 329 226 187 148 
-54 146 330 226 189 147 
-53 146 330 226 189 147 
-53 146 330 224 189 147 
-52 146 330 224 189 147 
-52 146 331 225 188 146 
-51 146 331 224 187 145 
-51 146 331 226 187 144 
-50 146 331 228 189 146 
-50 147 332 232 188 149 
-49 147 332 232 188 149 
-49 147 332 234 190 151 
-48 147 332 237 193 154 
-48 147 332 238 195 153 
-47 147 332 239 196 154 
-47 147 333 242 199 157 
-46 147 332 244 201 159 
-46 147 333 240 197 155 
-45 147 333 241 198 156 
-45 147 334 241 196 155 
-44 147 334 245 200 159 
-44 147 334 246 201 160 
-43 148 335 245 200 159 
-43 148 335 245 200 159 
-42 148 335 245 200 159 
-42 148 335 248 200 160 
-41 148 336 247 199 159 
-41 148 336 240 198 160 
-40 149 337 237 195 157 
-40 149 337 240 192 152 
-39 149 338 243 195 155 
-39 149 338 242 199 157 
-38 150 339 236 193 151 
-38 150 339 175 141 104 
-72 149 337 191 167 157 
-70 147 333 205 182 168 
-69 146 331 206 183 169 
-69 146 330 203 178 158 
-68 146 329 202 177 157 
-67 145 328 206 180 155 
-67 145 328 207 181 156 
-66 145 328 214 181 150 
-65 145 328 217 184 153 
-65 145 327 221 186 154 
-64 145 327 221 186 154 
-64 145 327 223 189 154 
-63 145 327 227 193 158 
-63 145 327 231 197 160 
-62 145 327 233 199 162 
-62 145 327 231 196 156 
-61 145 327 231 196 156 
-61 145 327 235 198 156 
-60 145 327 235 198 156 
-60 145 327 234 197 155 
-59 145 328 233 196 154 
-59 145 328 232 197 155 
-58 145 328 233 198 156 
-58 145 328 233 195 158 
-57 145 328 232 194 157 
-57 145 328 232 194 157 
-56 145 328 231 193 156 
-56 145 328 230 191 152 
-55 145 328 230 191 152 
-55 145 328 229 190 149 
-54 146 329 228 189 148 
-54 146 329 228 189 148 
-53 146 329 228 189 148 
-53 146 329 228 191 149 
-52 146 330 228 191 149 
-52 146 330 228 189 148 
-51 146 330 227 188 147 
-51 147 331 229 187 145 
-50 147 331 230 188 146 
-50 147 331 233 190 148 
-49 147 331 235 192 150 
-49 147 332 237 194 152 
-48 147 332 240 197 155 
-48 147 332 241 198 156 
-47 147 332 241 198 156 
-47 148 333 242 199 157 
-46 148 333 244 201 159 
-46 148 333 243 200 158 
-45 148 334 243 200 158 
-45 148 334 243 200 158 
-44 148 334 244 201 159 
-44 148 335 244 201 159 
-43 148 335 244 201 159 
-43 149 336 245 202 160 
-42 149 336 244 201 159 
-42 149 336 244 196 158 
-41 149 337 245 197 159 
-41 149 337 238 199 158 
-41 150 338 235 196 155 
-40 150 339 238 190 154 
-40 151 340 241 193 157 
-39 151 340 241 197 158 
-39 151 341 240 196 157 
-38 152 343 199 158 126 
-71 147 332 203 177 162 
-70 146 330 207 181 166 
-69 146 329 204 177 156 
-69 146 328 199 172 151 
-68 146 328 201 172 142 
-68 146 328 204 175 145 
-67 145 327 213 183 147 
-66 145 327 219 189 153 
-66 145 327 221 184 155 
-65 145 327 225 188 159 
-65 145 326 226 189 160 
-64 145 326 228 191 162 
-64 145 326 232 197 165 
-63 145 326 235 200 168 
-62 145 326 236 202 167 
-62 145 327 238 204 169 
-62 145 327 236 201 163 
-61 145 327 236 201 163 
-61 145 327 240 203 161 
-60 145 327 240 203 161 
-60 145 327 237 199 160 
-59 145 327 235 197 158 
-59 145 327 235 200 162 
-58 145 327 236 201 163 
-57 145 327 236 198 161 
-57 145 327 235 197 160 
-57 146 328 233 198 160 
-56 146 328 232 197 159 
-56 146 328 229 194 154 
-55 146 328 229 194 154 
-55 146 328 233 194 153 
-54 146 328 231 192 151 
-54 146 329 233 191 153 
-53 146 329 234 192 154 
-53 146 329 235 193 155 
-52 146 329 234 192 154 
-52 147 330 233 191 151 
-51 147 330 233 191 151 
-51 147 330 235 192 150 
-50 147 331 235 192 150 
-50 147 331 235 190 149 
-49 147 331 239 194 153 
-49 147 331 240 195 154 
-48 148 332 240 195 154 
-48 148 332 242 197 156 
-47 148 332 242 197 156 
-47 148 333 241 198 156 
-46 148 333 242 199 157 
-46 148 333 242 199 157 
-45 149 334 243 200 158 
-45 149 334 242 199 157 
-44 149 335 240 197 155 
-44 149 336 239 196 154 
-43 149 336 241 198 156 
-43 150 337 245 202 160 
-43 150 337 242 199 157 
-42 150 337 241 193 157 
-42 151 339 242 194 158 
-41 151 339 237 198 155 
-41 151 340 235 196 153 
-40 152 341 239 190 157 
-40 152 342 242 193 160 
-39 153 343 241 197 160 
-39 153 344 242 198 161 
-39 154 346 207 161 135 
-71 147 331 203 177 162 
-70 147 329 199 171 150 
-70 146 328 197 169 148 
-69 146 328 200 166 141 
-68 146 327 201 167 142 
-68 146 327 205 170 140 
-67 145 326 211 176 146 
-67 145 326 217 183 146 
-66 145 326 220 186 149 
-66 145 326 221 187 149 
-65 145 326 224 190 152 
-65 145 326 227 193 155 
-64 145 325 231 197 159 
-63 145 325 233 199 161 
-63 145 325 234 200 162 
-62 145 326 236 201 163 
-62 145 326 236 201 163 
-61 145 326 235 200 162 
-61 145 326 236 201 163 
-60 145 326 239 204 166 
-60 145 326 239 204 166 
-59 145 326 238 200 163 
-59 145 326 238 200 163 
-58 145 326 240 202 165 
-58 146 327 241 203 166 
-57 146 327 241 204 160 
-57 146 327 234 197 153 
-56 146 327 229 194 152 
-56 146 327 230 195 153 
-56 146 328 232 195 153 
-55 146 328 231 194 152 
-54 146 328 234 192 152 
-54 146 328 235 193 153 
-53 146 328 236 194 154 
-53 147 329 235 193 153 
-53 147 329 236 192 155 
-52 147 329 234 190 153 
-52 147 330 233 189 154 
-51 147 330 234 190 155 
-51 147 330 237 191 155 
-50 148 331 237 191 155 
-50 148 331 236 194 154 
-49 148 332 234 192 152 
-49 148 332 237 193 154 
-48 148 332 237 193 154 
-48 149 333 239 195 156 
-47 149 333 241 197 158 
-47 149 333 240 195 156 
-46 149 334 241 196 157 
-46 149 334 245 200 161 
-45 149 335 245 200 161 
-45 149 335 245 197 159 
-45 150 336 243 195 157 
-44 150 337 242 194 156 
-44 151 338 242 194 156 
-43 151 339 243 195 157 
-43 152 340 243 195 157 
-42 152 341 247 195 156 
-42 153 342 246 194 155 
-42 153 343 242 193 160 
-41 154 345 243 194 161 
-73 149 334 189 163 150 
-71 147 329 195 168 147 
-71 147 328 191 164 143 
-70 146 327 194 164 136 
-69 146 326 198 168 140 
-69 146 326 206 171 139 
-68 146 326 210 175 143 
-68 146 326 215 179 145 
-67 146 326 219 183 149 
-67 146 326 223 187 151 
-66 146 326 225 189 153 
-66 146 326 228 193 155 
-65 146 326 231 196 158 
-65 146 326 234 199 161 
-64 145 325 237 202 164 
-63 145 325 240 205 167 
-63 145 325 241 206 168 
-62 145 325 241 206 168 
-62 146 326 241 206 168 
-61 146 326 240 205 167 
-61 146 326 240 205 167 
-60 146 326 241 206 168 
-60 146 326 240 205 167 
-59 146 326 241 203 166 
-59 146 326 242 204 167 
-58 146 326 244 206 169 
-58 146 326 246 208 171 
-57 146 327 242 205 163 
-57 146 327 238 201 159 
-56 146 327 235 198 156 
-56 146 327 236 199 157 
-55 146 327 236 197 156 
-55 146 327 234 195 154 
-54 146 327 234 192 152 
-54 147 328 235 193 153 
-53 147 328 236 192 153 
-53 147 328 237 193 154 
-52 147 328 237 191 155 
-52 147 329 237 191 155 
-52 148 330 238 192 156 
-51 148 330 237 191 155 
-51 148 330 237 189 153 
-50 148 331 238 190 154 
-50 148 331 237 194 152 
-49 149 332 237 194 152 
-49 149 333 237 194 152 
-48 149 333 236 193 151 
-48 149 333 238 195 153 
-47 150 334 239 196 154 
-47 150 335 238 194 155 
-47 150 335 238 194 155 
-46 150 336 243 198 159 
-46 150 336 243 198 159 
-45 151 337 241 196 157 
-45 151 338 239 194 155 
-45 152 340 241 196 157 
-44 153 341 242 197 158 
-73 148 331 188 157 137 
-72 148 329 189 158 138 
-71 147 327 194 163 134 
-70 146 326 195 164 135 
-70 146 326 200 168 130 
-69 146 325 206 174 136 
-68 146 325 214 179 139 
-68 146 325 219 184 144 
-67 146 325 226 188 151 
-67 146 325 228 190 153 
-66 146 325 232 192 157 
-66 146 325 235 195 160 
-65 146 325 233 198 158 
-65 146 325 235 200 160 
-64 146 325 237 202 162 
-64 146 325 239 204 164 
-63 146 325 241 206 166 
-63 146 325 243 208 168 
-62 146 325 242 207 167 
-62 146 325 240 205 165 
-61 146 325 239 201 162 
-61 146 325 238 200 161 
-60 146 325 238 200 161 
-60 146 326 238 200 161 
-59 146 326 237 199 160 
-59 146 326 239 201 162 
-58 146 326 241 203 164 
-58 146 326 242 204 165 
-57 146 326 241 203 164 
-57 147 327 240 202 163 
-56 147 327 240 202 163 
-56 147 327 241 203 164 
-55 147 327 242 203 164 
-55 147 327 237 198 159 
-54 147 327 236 194 156 
-54 147 328 236 194 156 
-53 147 328 238 194 157 
-53 147 328 239 195 158 
-53 148 329 239 193 157 
-52 148 329 239 193 157 
-52 148 330 240 194 158 
-51 148 330 238 192 156 
-51 148 330 237 189 153 
-50 149 331 239 191 155 
-50 149 332 236 193 151 
-49 150 333 236 193 151 
-49 150 333 233 190 148 
-49 150 334 232 189 147 
-48 150 334 235 192 150 
-48 151 335 236 193 151 
-47 151 336 238 194 155 
-47 151 337 240 196 157 
-46 152 338 240 196 159 
-46 152 339 241 197 160 
-46 153 340 240 196 161 
-45 153 341 238 194 159 
-45 154 343 238 194 159 
-45 155 345 234 190 155 
-44 156 347 231 186 153 
-74 149 332 180 149 128 
-72 148 329 188 154 126 
-72 147 327 190 156 128 
-71 147 326 201 167 129 
-70 147 326 206 172 134 
-70 146 325 211 178 133 
-69 146 325 215 182 137 
-68 146 324 221 186 144 
-68 146 324 225 190 148 
-67 146 324 231 192 153 
-67 146 324 233 194 155 
-66 146 325 237 194 159 
-66 146 325 240 197 162 
-65 146 325 236 198 161 
-65 146 325 237 199 162 
-64 146 325 238 200 163 
-64 146 324 238 200 163 
-63 146 324 239 201 164 
-63 146 324 240 202 165 
-62 146 325 239 201 164 
-62 146 325 237 199 162 
-61 146 325 238 200 163 
-61 146 325 238 200 163 
-60 146 325 238 200 163 
-60 146 325 237 199 162 
-59 147 326 237 199 162 
-59 147 326 237 199 162 
-58 147 326 238 200 163 
-58 147 326 239 201 164 
-57 147 326 237 202 164 
-57 147 326 238 203 165 
-56 147 327 239 204 166 
-56 147 327 241 206 168 
-55 147 327 243 205 168 
-55 148 328 240 202 165 
-54 148 328 238 198 162 
-54 148 328 238 198 162 
-54 148 329 239 197 159 
-53 148 329 239 197 159 
-53 148 329 238 196 158 
-52 149 330 238 196 158 
-52 149 330 239 195 158 
-51 149 331 237 193 156 
-51 149 331 236 192 155 
-50 150 332 238 194 157 
-50 150 333 236 191 150 
-50 151 334 237 192 151 
-49 151 335 233 188 149 
-49 151 336 234 189 150 
-48 152 337 235 191 154 
-48 152 337 235 191 154 
-48 153 339 238 194 159 
-47 153 340 238 194 159 
-47 154 342 238 195 161 
-74 150 332 181 147 120 
-73 149 329 186 152 125 
-72 148 327 191 157 120 
-71 147 326 198 164 127 
-71 147 326 210 175 133 
-70 147 325 221 186 144 
-70 147 325 219 184 142 
-69 146 324 222 187 145 
-68 146 324 226 191 149 
-68 146 324 229 194 152 
-67 146 324 231 193 154 
-67 146 324 231 193 154 
-66 146 324 236 193 158 
-66 147 325 237 194 159 
-65 147 325 237 197 161 
-65 147 325 237 197 161 
-64 147 325 238 198 162 
-64 146 324 237 197 161 
-63 146 324 236 196 160 
-63 146 324 236 196 160 
-62 146 324 236 196 160 
-62 146 324 235 195 159 
-61 147 325 239 199 163 
-61 147 325 239 199 163 
-60 147 325 238 200 163 
-60 147 325 238 200 163 
-59 147 325 237 199 162 
-59 147 325 237 199 162 
-58 147 326 238 200 163 
-58 147 326 239 201 164 
-57 147 326 238 202 166 
-57 147 326 237 201 165 
-56 148 327 239 201 165 
-56 148 327 241 203 167 
-55 148 327 241 203 167 
-55 148 328 242 204 168 
-54 148 328 242 204 168 
-54 149 329 242 204 168 
-54 149 329 240 200 164 
-53 149 329 238 198 162 
-53 149 330 238 198 162 
-52 150 331 237 197 161 
-52 150 331 237 194 159 
-51 150 332 236 193 158 
-51 151 333 233 193 157 
-51 151 334 232 192 156 
-50 151 334 234 189 150 
-50 152 335 235 190 151 
-50 152 337 234 188 152 
-75 150 332 178 142 118 
-73 149 328 188 153 121 
-73 148 327 195 160 128 
-72 148 326 205 170 130 
-71 147 325 212 177 137 
-71 147 325 217 182 140 
-70 147 325 223 188 146 
-70 147 325 223 186 144 
-69 147 324 226 189 147 
-68 147 324 231 193 154 
-68 147 324 233 195 156 
-67 147 324 231 193 156 
-67 147 324 231 193 156 
-66 147 324 232 192 156 
-66 147 324 232 192 156 
-65 147 324 235 195 159 
-65 147 324 235 195 159 
-64 147 324 235 195 159 
-64 147 324 234 194 158 
-63 147 324 233 193 157 
-63 147 324 233 193 157 
-62 147 324 234 194 158 
-62 147 324 235 195 159 
-61 147 324 235 195 159 
-61 147 325 237 197 161 
-60 147 325 238 198 162 
-60 147 325 237 197 161 
-59 147 325 237 197 161 
-59 147 325 237 197 161 
-58 148 326 237 197 161 
-58 148 326 238 198 162 
-57 148 327 241 201 166 
-57 148 327 239 199 164 
-56 148 327 240 200 165 
-56 149 328 241 201 166 
-56 149 328 241 201 166 
-55 149 328 241 201 166 
-55 149 329 243 203 168 
-54 149 329 245 205 170 
-54 150 330 241 203 167 
-53 150 330 237 199 163 
-53 151 332 237 197 162 
-52 151 332 238 198 163 
-52 151 333 237 197 162 
-52 152 334 237 197 162 
-51 152 335 235 197 161 
-51 153 336 231 193 157 
-51 153 337 229 184 151 
-50 154 339 228 183 150 
-50 155 341 227 182 149 
-50 155 342 228 183 150 
-74 149 328 189 151 115 
-73 148 326 197 162 124 
-72 148 326 207 172 134 
-72 148 325 211 176 136 
-71 148 325 220 185 145 
-70 147 324 230 192 153 
-70 147 324 229 191 152 
-69 147 324 227 189 150 
-69 147 324 228 190 151 
-68 147 324 231 193 154 
-68 147 324 233 195 156 
-67 147 324 232 194 155 
-67 147 324 232 194 155 
-66 147 324 233 193 157 
-66 147 324 234 194 158 
-65 147 324 234 194 158 
-65 147 324 233 193 157 
-64 147 324 232 192 156 
-63 147 323 233 193 157 
-63 147 323 233 193 157 
-62 147 323 233 193 157 
-62 147 324 233 193 157 
-62 147 324 234 194 158 
-61 147 324 237 194 159 
-61 148 325 238 195 160 
-60 148 325 239 196 161 
-60 148 325 238 195 160 
-59 148 325 238 195 160 
-59 148 326 238 195 160 
-58 148 326 238 195 160 
-58 149 327 240 197 162 
-57 149 327 241 198 164 
-57 149 328 240 197 163 
-57 149 328 241 198 164 
-56 150 329 242 199 165 
-56 150 329 241 198 164 
-55 150 330 240 197 163 
-55 150 330 240 199 167 
-54 151 331 242 201 169 
-54 151 332 240 201 168 
-54 152 333 237 198 165 
-53 152 334 235 196 163 
-53 153 335 234 195 162 
-53 153 337 234 195 162 
-75 150 329 197 158 115 
-73 149 326 201 162 119 
-73 148 325 206 171 129 
-72 148 325 213 178 136 
-72 148 325 221 186 148 
-71 148 325 227 192 154 
-70 148 324 232 194 158 
-70 148 324 233 195 159 
-69 148 324 232 193 154 
-69 148 324 232 193 154 
-68 148 324 232 193 150 
-68 148 324 233 194 151 
-67 148 324 234 196 157 
-67 148 324 234 196 157 
-66 148 324 234 196 160 
-66 148 324 234 196 160 
-65 148 324 235 196 157 
-65 148 324 233 194 155 
-64 148 324 233 194 155 
-64 148 324 234 195 156 
-63 148 324 235 196 157 
-63 148 324 234 195 156 
-62 148 324 235 196 157 
-62 148 325 235 196 157 
-61 148 325 236 194 156 
-61 148 325 237 195 157 
-60 149 326 236 194 156 
-60 149 326 234 192 154 
-59 149 326 233 191 153 
-59 149 327 233 191 153 
-58 149 327 235 193 155 
-58 150 328 238 196 158 
-58 150 328 239 196 162 
-57 150 328 239 196 162 
-57 150 329 242 198 163 
-56 151 330 242 198 163 
-56 151 331 239 196 162 
-56 152 332 237 194 160 
-55 152 332 235 196 163 
-55 152 333 240 201 168 
-54 153 334 241 205 171 
-54 153 335 239 203 169 
-54 154 336 235 199 165 
-53 154 338 230 194 160 
-53 155 340 225 191 156 
-53 156 342 218 184 149 
-75 152 331 188 161 131 
-74 150 327 202 167 125 
-73 149 325 206 171 129 
-72 148 324 210 173 129 
-72 148 324 218 181 137 
-71 148 324 227 190 148 
-71 148 324 227 190 148 
-70 148 324 227 189 150 
-70 148 324 229 191 152 
-69 148 324 230 191 152 
-69 148 324 232 193 154 
-68 148 324 236 194 156 
-68 148 324 238 196 158 
-67 148 324 238 196 158 
-67 148 324 238 196 158 
-66 148 324 238 195 160 
-66 148 324 237 194 159 
-65 148 324 241 195 161 
-65 148 324 239 193 159 
-64 148 324 240 196 161 
-64 148 324 242 198 163 
-63 149 325 243 199 164 
-63 149 325 242 198 163 
-62 149 325 242 198 163 
-62 149 325 241 197 162 
-61 149 326 242 199 164 
-61 149 326 242 199 164 
-60 149 326 239 196 161 
-60 150 327 235 192 157 
-60 150 327 232 192 156 
-59 150 328 233 193 157 
-59 151 329 235 195 159 
-58 151 329 235 195 159 
-58 151 330 236 195 163 
-58 152 331 239 198 166 
-57 152 332 240 200 165 
-57 153 333 238 198 163 
-57 153 334 238 198 163 
-56 154 336 237 197 162 
-56 155 337 235 194 166 
-56 155 339 234 193 165 
-75 151 329 197 168 134 
-74 150 327 207 174 133 
-73 149 325 212 179 138 
-73 149 325 217 182 140 
-72 149 325 222 187 145 
-71 149 324 228 193 151 
-71 149 324 227 192 150 
-71 149 325 227 192 152 
-70 149 324 229 194 154 
-69 149 324 229 194 156 
-69 149 324 230 195 157 
-68 149 324 234 196 159 
-68 149 324 236 198 161 
-67 149 324 238 198 162 
-67 149 324 237 197 161 
-66 149 325 235 197 161 
-66 149 325 234 196 160 
-65 149 325 241 198 163 
-65 149 325 240 197 162 
-64 149 325 240 197 162 
-64 149 325 242 199 164 
-63 149 325 244 201 166 
-63 149 325 243 200 165 
-62 150 326 240 197 162 
-62 150 326 239 196 161 
-61 150 326 238 198 162 
-61 150 327 238 198 162 
-61 151 328 237 197 161 
-60 151 328 233 193 157 
-60 151 329 232 192 157 
-60 152 330 233 193 158 
-59 152 331 235 195 160 
-59 153 332 236 196 161 
-76 153 332 203 171 133 
-75 152 329 207 175 137 
-74 151 327 212 179 138 
-73 150 326 219 186 145 
-73 150 325 223 190 149 
-72 150 325 225 192 151 
-72 150 326 226 193 152 
-71 150 325 226 193 152 
-71 150 325 227 193 155 
-70 150 326 228 194 156 
-69 150 325 229 195 158 
-69 150 325 229 195 158 
-68 150 325 232 196 160 
-68 150 325 234 198 162 
-67 150 325 235 199 163 
-67 150 325 233 197 161 
-67 150 326 232 196 160 
-66 150 326 231 195 159 
-66 150 326 237 197 162 
-65 150 326 237 197 162 
-65 150 326 238 198 163 
-64 150 326 239 199 164 
-64 151 327 241 201 166 
-63 151 327 241 201 166 
-63 151 328 239 199 164 
-62 151 328 237 197 162 
-62 152 329 238 198 163 
-61 152 329 237 197 162 
-61 152 330 236 196 161 
-61 153 331 233 193 158 
-60 153 332 230 189 157 
-60 154 333 231 190 158 
-60 154 334 232 191 159 
-59 155 335 232 191 159 
-59 156 338 231 194 165 
-59 156 339 226 189 160 
-75 153 330 213 179 141 
-74 152 328 215 183 144 
-74 152 328 222 190 151 
-73 151 327 225 193 154 
-72 151 327 225 193 154 
-72 151 327 224 192 153 
-71 151 327 224 192 153 
-71 151 327 226 194 156 
-70 151 327 228 196 158 
-70 151 327 228 196 158 
-69 151 327 228 196 158 
-69 151 327 231 197 160 
-68 151 327 233 199 162 
-68 151 326 234 200 165 
-67 151 327 233 199 164 
-67 151 327 232 198 163 
-66 152 328 233 199 164 
-66 152 328 235 199 163 
-65 152 328 235 199 163 
-65 152 328 235 199 163 
-65 152 329 234 198 162 
-64 152 329 233 197 161 
-64 153 330 232 196 160 
-63 153 330 231 195 161 
-63 154 332 228 192 158 
-63 154 333 234 195 162 
-62 155 334 232 193 160 
-75 154 331 220 188 149 
-74 153 330 226 194 155 
-73 153 329 226 194 156 
-73 153 329 224 192 154 
-72 153 329 225 193 155 
-72 152 328 225 193 155 
-71 152 328 227 195 157 
-71 153 329 229 197 159 
-70 153 329 230 196 161 
-70 153 329 230 196 161 
-69 153 329 229 196 161 
-69 153 329 230 197 162 
-68 153 329 230 195 163 
-68 153 329 230 195 163 
-67 153 330 230 196 161 
-67 153 330 231 197 162 
-67 154 331 233 199 162 
-66 154 331 231 197 160 
-66 154 332 232 198 163 
-65 155 333 232 198 163 
-65 155 333 229 193 159 
-64 155 334 229 193 159 
-64 156 335 228 192 160 
-64 156 336 223 187 155 
-63 157 337 223 186 157 
-63 157 339 217 180 151 
-63 158 341 209 172 145 
-73 155 332 225 192 157 
-73 155 332 224 191 156 
-72 154 331 227 193 158 
-71 155 332 230 196 161 
-71 155 332 230 196 161 
-70 155 332 229 195 160 
-70 155 332 229 194 162 
-70 155 333 229 194 162 
-69 156 334 230 195 163 
-69 156 334 231 196 164 
