ply
format ascii 1.0
comment Created by CloudCompare v2.10.1 (Zephyrus)
comment Created 2020-05-17 12:57 AM
obj_info Generated by CloudCompare!
element vertex 226
property float x
property float y
property float z
property uchar red
property uchar green
property uchar blue
end_header
-52 65 360 150 146 145 
-52 65 360 164 160 159 
-52 65 360 155 145 143 
-52 65 360 161 151 149 
-52 66 359 150 135 128 
-52 66 359 147 132 125 
-52 66 358 152 134 122 
-52 66 358 144 126 114 
-51 66 358 184 135 103 
-55 67 358 137 148 152 
-54 67 358 143 143 141 
-54 67 358 151 151 149 
-53 67 358 173 160 152 
-53 67 358 177 164 156 
-52 67 358 164 138 123 
-51 66 357 176 127 94 
-55 67 357 154 158 157 
-55 67 357 155 159 158 
-54 67 357 180 164 149 
-54 67 357 181 165 150 
-53 67 357 201 170 152 
-53 67 357 210 179 161 
-52 67 356 218 183 161 
-51 67 357 204 169 147 
-51 67 356 185 135 100 
-55 67 356 196 186 174 
-55 67 356 190 180 168 
-54 67 356 205 171 144 
-54 67 356 209 175 148 
-53 67 356 222 176 150 
-52 67 356 232 186 160 
-52 67 356 234 193 165 
-51 67 356 230 189 161 
-51 67 355 208 160 124 
-56 68 356 196 188 185 
-55 68 356 202 180 157 
-55 68 356 199 177 154 
-54 68 356 222 177 144 
-54 68 356 228 183 150 
-53 68 355 237 182 151 
-52 68 355 247 192 161 
-52 68 355 242 198 169 
-51 68 356 245 201 172 
-51 68 355 231 185 149 
-50 68 355 198 152 116 
-50 68 356 187 133 105 
-55 68 355 212 175 148 
-55 68 355 218 181 154 
-54 68 355 230 179 158 
-53 68 355 236 185 164 
-53 68 355 236 192 163 
-52 68 355 244 200 171 
-52 68 355 247 197 164 
-51 68 355 250 200 167 
-51 68 355 249 192 162 
-50 68 355 226 169 139 
-50 69 356 195 142 108 
-56 69 354 197 169 158 
-56 69 354 204 176 165 
-55 69 354 221 179 154 
-54 69 354 228 186 161 
-54 69 354 233 191 167 
-53 69 354 235 193 169 
-53 69 354 236 192 165 
-52 69 354 244 200 173 
-52 69 354 246 200 167 
-51 69 355 249 203 170 
-51 69 355 255 204 172 
-50 69 355 239 186 154 
-56 69 354 206 172 160 
-56 69 354 218 184 172 
-55 69 354 232 186 162 
-54 69 354 239 193 169 
-54 69 353 231 190 168 
-53 69 353 231 190 168 
-53 69 354 255 200 179 
-52 69 354 254 199 178 
-52 69 354 250 196 168 
-51 69 354 253 199 171 
-51 69 355 248 199 167 
-50 69 355 245 196 164 
-56 70 354 217 181 165 
-56 70 354 227 191 175 
-55 70 354 238 190 167 
-54 70 353 240 192 169 
-54 70 353 238 193 172 
-53 70 353 245 200 179 
-53 70 353 244 183 165 
-52 70 354 226 165 147 
-52 70 354 218 160 138 
-51 70 354 227 169 147 
-50 70 354 243 196 166 
-50 70 355 241 194 164 
-49 70 355 236 183 149 
-49 70 354 201 148 114 
-57 71 355 186 151 131 
-57 71 355 201 166 146 
-56 70 354 223 185 166 
-56 70 354 231 193 174 
-55 70 354 244 194 171 
-54 70 353 244 194 171 
-54 70 353 242 195 175 
-53 70 353 225 178 158 
-53 70 353 214 176 155 
-52 70 353 231 193 172 
-51 70 353 230 187 168 
-51 70 353 205 162 143 
-50 70 353 215 168 142 
-50 70 353 237 190 164 
-49 70 354 239 189 156 
-49 70 354 211 161 128 
-48 71 355 186 126 90 
-48 71 356 193 133 97 
-57 71 355 188 145 126 
-57 71 355 204 161 142 
-56 71 354 225 184 162 
-56 71 354 231 190 168 
-55 71 354 244 192 170 
-54 71 353 242 190 168 
-54 71 353 222 182 157 
-53 71 353 246 206 181 
-53 71 353 255 247 221 
-52 71 353 255 252 226 
-51 71 353 255 242 220 
-51 71 353 251 233 211 
-50 71 353 235 190 169 
-50 71 354 215 170 149 
-49 71 354 237 184 153 
-49 71 355 223 170 139 
-48 71 355 189 133 96 
-48 71 356 180 124 87 
-57 72 355 194 147 127 
-57 72 355 205 158 138 
-56 71 354 216 176 151 
-56 71 354 224 184 159 
-55 71 353 241 185 162 
-54 71 353 234 178 155 
-54 71 353 237 202 172 
-53 71 353 255 233 203 
-53 71 353 250 232 208 
-52 71 353 248 230 206 
-51 71 353 240 223 203 
-50 72 354 213 177 155 
-49 72 354 226 175 144 
-49 72 355 222 171 140 
-48 72 355 201 143 105 
-48 72 356 176 118 80 
-57 72 355 194 146 126 
-57 72 355 200 152 132 
-56 72 354 204 164 138 
-56 72 354 220 180 154 
-55 72 353 241 183 159 
-54 72 353 231 173 149 
-54 72 353 253 219 184 
-53 72 353 255 221 186 
-52 72 352 209 164 145 
-52 72 352 201 156 137 
-51 72 352 204 168 154 
-50 72 353 215 188 161 
-49 72 354 216 168 132 
-49 72 354 216 168 132 
-48 72 355 214 149 109 
-48 73 356 177 112 72 
-47 73 356 178 116 75 
-47 73 356 196 134 93 
-57 73 355 181 136 115 
-57 73 355 194 149 128 
-56 73 354 205 153 129 
-56 73 354 212 160 136 
-55 72 353 225 174 143 
-54 72 353 227 176 145 
-54 72 353 251 214 185 
-53 72 353 237 200 171 
-52 72 352 191 147 110 
-52 72 352 213 169 132 
-51 72 352 207 174 143 
-51 72 352 246 213 182 
-50 72 352 255 236 206 
-50 72 353 212 183 153 
-49 72 353 220 163 118 
-49 73 354 224 167 122 
-48 73 354 207 149 112 
-48 73 356 170 112 75 
-47 73 356 167 102 62 
-47 73 356 181 116 76 
-57 73 355 167 126 108 
-57 73 355 175 134 116 
-56 73 354 197 147 122 
-56 73 354 208 158 133 
-55 73 354 219 170 138 
-54 73 353 209 160 128 
-54 73 353 222 181 151 
-53 73 353 226 185 155 
-52 73 352 191 145 109 
-52 73 351 200 154 118 
-51 73 351 205 166 133 
-51 73 352 241 202 169 
-50 73 352 246 211 179 
-50 73 352 205 170 138 
-49 73 353 220 163 120 
-49 73 354 214 157 114 
-48 73 354 204 145 111 
-48 73 355 172 113 79 
-57 74 355 162 125 109 
-56 74 355 185 135 110 
-56 74 355 189 139 114 
-55 74 354 207 158 128 
-54 74 353 209 160 130 
-54 74 353 198 149 119 
-53 74 353 220 171 141 
-52 73 352 216 167 134 
-52 73 352 219 170 137 
-51 73 352 216 170 134 
-51 73 352 227 181 145 
-50 73 352 220 177 142 
-57 75 356 143 115 104 
-56 75 355 172 122 97 
-56 75 355 180 130 105 
-55 74 354 204 153 124 
-54 74 353 217 166 137 
-54 74 352 209 158 127 
-53 74 352 201 150 119 
-52 74 352 185 139 106 
-57 75 356 121 104 97 
-56 75 355 155 109 85 
-56 75 355 163 117 93 
