ply
format ascii 1.0
comment Created by CloudCompare v2.10.1 (Zephyrus)
comment Created 2020-05-17 12:56 AM
obj_info Generated by CloudCompare!
element vertex 1902
property float x
property float y
property float z
property uchar red
property uchar green
property uchar blue
end_header
-22 -57 391 223 176 156 
-23 -56 391 215 167 145 
-22 -56 390 216 168 146 
-21 -56 389 180 130 103 
-21 -56 387 163 113 86 
-23 -56 392 217 169 147 
-23 -56 391 217 169 147 
-22 -56 390 219 171 149 
-21 -55 389 210 159 132 
-21 -55 387 209 158 131 
-20 -55 384 225 169 144 
-19 -54 379 231 175 150 
-18 -53 374 218 158 134 
-24 -55 392 214 168 145 
-23 -55 391 217 171 148 
-23 -55 391 221 171 148 
-22 -55 390 223 173 150 
-21 -55 388 228 178 151 
-21 -54 386 235 185 158 
-20 -54 383 247 191 164 
-19 -53 377 251 195 168 
-18 -53 374 251 194 167 
-18 -53 373 250 193 166 
-16 -52 372 229 169 143 
-24 -54 391 212 164 142 
-23 -54 390 220 172 150 
-23 -54 390 229 179 156 
-22 -54 389 231 181 158 
-21 -54 387 241 191 164 
-21 -54 385 246 196 169 
-20 -53 381 251 197 171 
-19 -52 376 252 198 172 
-18 -52 373 254 198 171 
-17 -52 372 253 197 170 
-17 -52 372 255 200 173 
-16 -52 372 255 200 173 
-16 -52 372 248 190 166 
-15 -52 372 245 187 163 
-24 -54 391 215 167 144 
-23 -54 390 227 179 156 
-23 -54 389 244 190 164 
-22 -53 388 245 191 165 
-21 -53 386 248 197 170 
-20 -53 382 250 199 172 
-20 -52 377 251 200 173 
-19 -51 373 253 202 175 
-18 -51 372 255 209 181 
-17 -51 371 255 202 174 
-17 -51 371 255 202 174 
-16 -51 371 255 205 177 
-16 -51 371 255 201 174 
-15 -51 371 255 201 174 
-14 -51 371 255 195 171 
-14 -51 371 239 179 155 
-13 -51 372 207 145 122 
-13 -51 372 182 120 97 
-25 -53 392 201 154 126 
-25 -53 391 208 161 133 
-24 -53 390 225 175 150 
-23 -53 389 236 186 161 
-23 -53 388 252 195 166 
-22 -53 386 254 197 168 
-21 -52 382 251 197 169 
-20 -51 377 254 200 172 
-19 -51 373 254 202 178 
-19 -51 371 255 205 181 
-18 -50 370 254 203 174 
-17 -50 370 255 209 180 
-17 -50 370 255 209 180 
-16 -50 370 254 203 174 
-16 -50 370 255 205 177 
-15 -50 370 255 207 179 
-14 -51 371 255 199 175 
-14 -51 371 249 191 167 
-13 -51 371 246 186 162 
-13 -51 372 214 154 130 
-25 -53 392 206 159 129 
-25 -53 391 219 172 142 
-24 -52 390 233 183 156 
-23 -52 388 240 190 163 
-23 -52 386 255 194 165 
-22 -51 381 255 198 169 
-21 -51 376 253 197 170 
-20 -50 373 255 202 175 
-19 -50 371 255 203 179 
-19 -50 370 255 204 180 
-18 -50 369 255 211 179 
-17 -50 369 255 211 179 
-17 -50 369 255 212 183 
-16 -50 369 255 205 176 
-16 -50 369 255 207 179 
-15 -50 369 255 201 173 
-14 -50 370 251 195 170 
-14 -50 370 255 199 174 
-13 -50 371 253 193 169 
-13 -50 371 247 187 163 
-12 -50 372 220 158 137 
-11 -50 373 181 119 98 
-11 -50 374 165 100 80 
-26 -52 392 203 151 129 
-25 -52 391 216 169 139 
-25 -52 390 229 182 152 
-24 -52 388 234 189 160 
-23 -51 386 237 192 163 
-22 -51 382 249 195 161 
-21 -50 376 252 198 164 
-20 -49 372 250 199 170 
-20 -49 370 252 201 172 
-19 -49 370 251 205 182 
-19 -49 369 253 207 184 
-18 -49 369 255 209 183 
-17 -49 369 255 209 183 
-17 -49 369 254 207 181 
-16 -49 369 251 204 178 
-16 -49 369 252 201 174 
-15 -49 369 252 201 174 
-14 -49 370 253 198 168 
-14 -49 370 251 196 166 
-13 -49 370 254 194 168 
-13 -49 371 254 194 168 
-12 -49 372 243 178 158 
-11 -50 373 220 155 135 
-11 -50 373 168 101 84 
-27 -51 392 194 139 118 
-26 -51 391 216 161 140 
-25 -51 390 226 179 149 
-25 -51 388 236 189 159 
-24 -51 386 239 194 165 
-23 -50 382 242 197 168 
-22 -49 376 252 197 166 
-21 -49 371 254 199 168 
-20 -48 369 253 202 173 
-20 -48 368 255 204 175 
-19 -48 368 254 208 185 
-18 -48 368 255 210 187 
-18 -48 368 255 209 183 
-17 -48 368 255 209 183 
-17 -48 368 253 207 181 
-16 -48 369 250 204 178 
-16 -48 369 253 203 176 
-15 -48 369 251 201 174 
-14 -49 370 251 198 167 
-14 -49 370 249 196 165 
-13 -49 370 255 198 169 
-13 -49 371 252 195 166 
-12 -49 371 247 185 162 
-11 -49 373 233 171 148 
-11 -49 373 191 126 108 
-10 -49 375 164 99 81 
-10 -49 376 167 98 82 
-27 -51 393 179 128 109 
-27 -51 392 207 152 131 
-26 -51 391 229 174 153 
-25 -51 390 235 186 154 
-24 -50 386 241 192 160 
-24 -50 382 244 197 171 
-23 -49 376 247 200 174 
-22 -48 371 255 200 170 
-21 -48 368 255 202 172 
-20 -48 367 255 206 179 
-20 -48 367 255 208 181 
-19 -48 367 255 210 187 
-18 -48 367 255 212 189 
-18 -48 368 254 210 185 
-17 -48 368 255 211 186 
-17 -48 368 253 209 184 
-16 -48 368 251 207 182 
-16 -48 369 253 206 178 
-15 -48 369 250 203 175 
-14 -48 369 247 196 165 
-14 -48 369 244 193 162 
-13 -48 370 254 199 169 
-13 -48 370 247 192 162 
-12 -48 371 246 186 160 
-11 -48 372 238 178 152 
-11 -48 374 213 148 126 
-10 -49 375 164 99 77 
-10 -49 376 165 98 79 
-28 -50 394 168 117 96 
-27 -50 393 192 141 120 
-27 -50 391 222 170 146 
-26 -50 390 236 184 160 
-25 -50 387 237 188 156 
-24 -49 383 244 195 163 
-23 -48 375 245 198 172 
-22 -47 371 248 201 175 
-21 -47 368 254 203 174 
-21 -47 367 255 206 177 
-20 -47 366 255 210 184 
-20 -47 366 255 211 185 
-19 -47 366 255 212 189 
-18 -47 366 255 212 189 
-18 -47 367 254 212 188 
-17 -47 367 254 212 188 
-17 -47 367 253 211 186 
-16 -47 367 251 209 184 
-15 -47 368 253 208 179 
-15 -47 369 249 204 175 
-14 -47 369 245 196 164 
-14 -47 369 241 192 160 
-13 -47 369 249 194 164 
-13 -47 370 244 189 159 
-12 -48 371 241 181 153 
-11 -48 372 233 173 145 
-11 -48 374 217 155 130 
-10 -48 375 172 110 85 
-10 -48 377 164 100 75 
-27 -50 392 209 159 136 
-27 -49 390 232 181 154 
-26 -49 388 240 189 162 
-25 -49 384 243 194 161 
-24 -48 377 248 199 166 
-23 -47 372 245 200 171 
-22 -47 369 247 202 173 
-21 -46 367 253 206 178 
-21 -46 367 255 209 181 
-20 -46 366 254 212 187 
-20 -46 366 255 213 188 
-19 -46 366 255 214 190 
-18 -46 366 255 214 190 
-18 -46 366 255 214 192 
-17 -46 367 254 213 191 
-17 -46 367 255 212 187 
-16 -46 367 253 209 184 
-15 -46 367 250 205 176 
-15 -47 368 247 202 173 
-14 -47 368 245 196 164 
-14 -47 369 240 191 159 
-13 -47 369 245 190 159 
-13 -47 369 242 187 156 
-12 -47 370 238 179 149 
-11 -47 372 230 171 141 
-11 -47 374 219 155 127 
-10 -48 376 186 122 94 
-10 -48 378 164 100 73 
-28 -49 392 205 157 134 
-27 -49 391 220 172 149 
-26 -48 388 235 185 158 
-26 -48 385 241 191 164 
-25 -47 378 248 200 164 
-24 -46 372 249 201 165 
-23 -46 369 246 201 172 
-22 -46 367 249 204 175 
-21 -46 367 255 210 181 
-21 -46 366 255 214 185 
-20 -46 366 253 216 189 
-20 -46 366 253 216 189 
-19 -46 366 255 215 193 
-18 -46 366 255 214 192 
-18 -46 366 255 214 192 
-17 -46 366 255 213 191 
-17 -46 367 255 212 187 
-16 -46 367 252 208 183 
-15 -46 367 249 202 174 
-15 -46 367 247 200 172 
-14 -46 368 246 195 164 
-14 -46 368 241 190 159 
-13 -46 369 243 188 157 
-13 -46 369 239 184 153 
-12 -46 370 236 177 145 
-11 -46 372 230 171 139 
-11 -47 374 217 154 123 
-10 -47 376 189 126 95 
-10 -47 378 162 98 70 
-29 -48 392 142 137 133 
-29 -48 392 173 168 164 
-28 -48 391 226 176 151 
-27 -48 388 229 179 154 
-26 -47 385 239 189 164 
-25 -47 379 245 195 170 
-24 -46 372 252 202 169 
-23 -45 369 251 201 168 
-23 -45 367 250 203 175 
-22 -45 366 254 207 179 
-21 -45 366 255 213 184 
-21 -45 366 255 216 187 
-20 -45 365 255 217 194 
-20 -45 365 254 216 193 
-19 -45 365 255 214 196 
-18 -45 366 255 214 196 
-18 -45 366 255 212 193 
-17 -45 366 255 212 193 
-17 -45 366 255 210 186 
-16 -45 366 251 205 181 
-15 -45 367 248 201 173 
-15 -45 367 247 200 172 
-14 -45 367 247 196 165 
-14 -45 368 240 189 158 
-13 -45 368 242 187 156 
-13 -45 369 235 180 149 
-12 -46 370 233 174 140 
-11 -46 372 223 164 130 
-11 -46 374 215 152 121 
-10 -46 377 188 125 94 
-10 -47 379 168 104 76 
-29 -47 391 157 150 144 
-29 -47 391 184 177 171 
-28 -47 388 234 184 159 
-27 -47 386 231 181 156 
-26 -46 381 243 193 168 
-25 -45 373 249 199 174 
-24 -45 369 255 205 172 
-23 -45 367 255 205 172 
-23 -44 366 254 207 179 
-22 -44 365 255 210 182 
-21 -44 365 255 215 188 
-21 -44 365 255 216 189 
-20 -44 365 254 218 196 
-20 -44 365 253 217 195 
-19 -44 365 254 212 196 
-18 -44 365 255 213 197 
-18 -44 366 255 212 191 
-17 -44 366 255 212 191 
-17 -44 366 255 209 185 
-16 -44 366 249 203 179 
-15 -44 366 250 200 173 
-15 -44 366 250 200 173 
-14 -45 367 247 196 165 
-14 -45 367 241 190 159 
-13 -45 368 243 189 155 
-13 -45 369 233 179 145 
-12 -45 370 230 171 137 
-11 -45 372 217 158 124 
-11 -46 375 216 153 120 
-10 -46 377 189 126 93 
-29 -47 390 201 163 144 
-28 -47 389 217 179 160 
-28 -46 386 230 188 166 
-27 -46 381 227 185 163 
-25 -45 373 235 191 166 
-25 -44 369 245 201 176 
-24 -44 367 248 202 178 
-23 -44 366 252 206 182 
-22 -44 365 252 208 183 
-22 -44 365 255 212 187 
-21 -44 365 255 215 191 
-21 -44 364 255 215 191 
-20 -44 365 253 215 194 
-20 -44 365 252 214 193 
-19 -44 365 249 214 195 
-18 -44 365 250 215 196 
-18 -44 365 255 212 191 
-17 -44 366 255 211 190 
-17 -44 366 253 205 182 
-16 -44 366 250 202 179 
-15 -44 366 253 202 171 
-15 -44 366 250 199 168 
-14 -44 367 249 195 161 
-14 -44 367 243 189 155 
-13 -44 367 244 185 151 
-13 -44 369 233 174 140 
-12 -44 371 223 164 132 
-11 -45 372 214 155 123 
-11 -45 375 207 147 119 
-29 -46 388 216 175 155 
-28 -46 385 231 190 170 
-27 -45 381 237 195 171 
-26 -44 374 234 192 168 
-25 -44 370 242 196 172 
-24 -43 367 248 202 178 
-24 -43 366 250 204 180 
-23 -43 365 252 206 182 
-22 -43 365 254 210 185 
-22 -43 364 255 213 188 
-21 -43 364 255 215 191 
-21 -43 364 255 214 190 
-20 -43 365 253 215 194 
-20 -43 365 252 214 193 
-19 -43 365 251 214 196 
-18 -43 365 253 216 198 
-18 -43 365 255 210 190 
-17 -43 365 255 209 189 
-17 -43 365 253 206 180 
-16 -43 365 250 203 177 
-15 -43 365 250 199 168 
-15 -43 366 247 196 165 
-14 -43 366 247 191 158 
-14 -43 367 243 187 154 
-13 -43 367 241 182 148 
-13 -44 369 231 172 138 
-12 -44 371 221 162 128 
-11 -44 373 213 154 120 
-11 -44 376 202 143 113 
-30 -45 384 157 139 137 
-29 -45 385 183 165 163 
-29 -45 385 225 180 157 
-28 -44 380 237 192 169 
-27 -44 374 241 197 172 
-26 -43 370 241 197 172 
-25 -43 368 247 201 177 
-24 -43 366 252 206 182 
-24 -43 365 255 209 185 
-23 -42 364 255 210 186 
-22 -42 364 255 211 186 
-22 -42 364 255 213 188 
-21 -42 364 255 214 190 
-21 -42 364 255 214 190 
-20 -42 364 255 214 192 
-20 -43 365 254 213 191 
-19 -43 365 251 214 195 
-18 -43 365 251 214 195 
-18 -43 365 255 210 190 
-17 -43 365 255 208 188 
-17 -43 365 252 205 179 
-16 -43 365 248 201 175 
-15 -43 365 249 196 165 
-15 -43 366 246 193 162 
-14 -43 366 244 188 153 
-14 -43 367 239 183 148 
-13 -43 368 237 179 142 
-13 -43 369 226 168 131 
-12 -43 371 218 158 122 
-11 -44 373 212 152 116 
-11 -44 376 197 138 106 
-30 -44 379 131 140 137 
-30 -44 381 175 145 134 
-29 -44 382 203 173 162 
-28 -44 379 226 180 156 
-27 -43 375 236 190 166 
-26 -43 370 240 194 170 
-26 -42 368 243 197 173 
-25 -42 366 250 204 180 
-24 -42 365 254 208 184 
-24 -42 364 255 213 188 
-23 -42 363 255 214 189 
-22 -42 363 255 210 187 
-22 -42 363 255 211 188 
-21 -42 363 255 213 191 
-21 -42 363 255 214 192 
-20 -42 364 255 214 192 
-19 -42 364 253 212 190 
-19 -42 364 250 212 191 
-18 -42 364 249 211 190 
-18 -42 365 255 208 188 
-17 -42 365 253 206 186 
-17 -42 365 252 202 177 
-16 -42 365 249 199 174 
-15 -42 365 249 196 165 
-15 -42 366 245 192 161 
-14 -42 367 241 185 150 
-14 -42 367 234 178 143 
-13 -42 368 234 174 138 
-13 -43 370 223 163 127 
-12 -43 372 214 154 118 
-11 -43 374 210 150 114 
-11 -43 376 194 133 102 
-30 -42 374 134 137 130 
-30 -43 376 144 147 140 
-29 -43 377 197 154 135 
-29 -43 377 219 176 157 
-28 -42 374 231 184 158 
-27 -42 370 240 193 167 
-26 -42 368 243 197 173 
-26 -41 366 247 201 177 
-25 -41 365 251 206 183 
-24 -41 364 254 209 186 
-24 -41 364 255 214 190 
-23 -41 363 255 214 190 
-22 -41 363 255 214 192 
-22 -41 363 255 213 191 
-21 -41 363 254 213 191 
-21 -41 363 254 213 191 
-20 -41 363 254 213 191 
-19 -41 364 253 212 190 
-19 -41 364 251 210 188 
-18 -41 364 249 208 186 
-18 -41 364 253 205 185 
-17 -41 365 253 205 185 
-17 -41 365 251 201 176 
-16 -41 365 248 198 173 
-15 -41 365 250 195 165 
-15 -42 366 245 190 160 
-14 -42 366 240 181 147 
-14 -42 367 231 172 138 
-13 -42 368 231 171 134 
-13 -42 370 220 160 123 
-12 -42 372 213 150 115 
-11 -43 375 207 144 109 
-11 -43 377 191 130 99 
-30 -41 371 147 139 128 
-30 -42 373 164 156 145 
-29 -42 373 213 166 140 
-28 -41 371 229 182 156 
-28 -41 370 235 185 158 
-27 -41 368 242 192 165 
-26 -41 367 244 198 174 
-26 -41 366 249 203 179 
-25 -41 365 252 207 184 
-24 -41 364 255 211 188 
-24 -41 364 255 214 192 
-23 -41 363 255 215 193 
-22 -41 363 255 214 192 
-22 -41 363 254 213 191 
-21 -41 363 254 213 191 
-21 -41 363 255 214 192 
-20 -41 363 255 214 192 
-19 -41 364 254 212 190 
-19 -41 364 251 209 185 
-18 -41 364 248 206 182 
-18 -41 364 251 203 181 
-17 -41 364 252 204 182 
-17 -41 365 251 199 175 
-16 -41 365 247 195 171 
-15 -41 365 247 192 162 
-15 -41 366 242 187 157 
-14 -41 367 236 178 141 
-14 -41 368 228 170 133 
-13 -41 369 229 167 130 
-13 -41 371 219 157 120 
-12 -42 373 212 149 114 
-11 -42 375 203 140 105 
-11 -42 378 193 130 99 
-30 -41 369 166 144 131 
-29 -41 370 186 164 151 
-29 -41 370 224 175 143 
-28 -41 369 234 185 153 
-27 -41 368 237 186 157 
-27 -40 367 242 191 162 
-26 -40 366 245 198 172 
-25 -40 365 249 202 176 
-25 -40 364 252 207 184 
-24 -40 364 255 212 189 
-24 -40 363 255 215 193 
-23 -40 363 255 216 194 
-22 -40 363 254 213 191 
-22 -40 363 252 211 189 
-21 -40 363 253 212 190 
-21 -40 363 254 213 191 
-20 -40 363 255 212 189 
-19 -40 364 255 210 187 
-19 -40 364 254 208 182 
-18 -40 364 251 205 179 
-18 -40 364 252 202 179 
-17 -40 364 252 202 179 
-16 -40 364 249 198 171 
-16 -40 365 244 193 166 
-15 -40 365 242 185 155 
-15 -40 366 236 179 149 
-14 -40 367 232 172 135 
-14 -41 368 223 163 126 
-13 -41 370 224 162 123 
-13 -41 371 216 154 115 
-12 -41 373 210 146 111 
-12 -41 376 200 136 101 
-11 -42 378 195 132 101 
-30 -40 367 133 141 143 
-30 -40 368 181 149 136 
-29 -40 368 202 170 157 
-29 -40 368 228 179 146 
-28 -40 367 236 187 154 
-27 -40 366 242 191 162 
-27 -40 366 245 194 165 
-26 -40 365 248 201 175 
-25 -39 364 250 203 177 
-25 -39 364 252 207 184 
-24 -39 364 255 212 189 
-24 -39 363 255 213 191 
-23 -39 363 255 215 193 
-22 -39 363 253 212 190 
-22 -39 363 251 210 188 
-21 -39 363 253 211 189 
-21 -39 363 253 211 189 
-20 -39 363 254 210 185 
-19 -39 363 254 210 185 
-19 -39 363 254 207 179 
-18 -39 364 253 206 178 
-18 -39 364 252 202 177 
-17 -39 364 251 201 176 
-16 -39 364 249 195 169 
-16 -40 365 242 188 162 
-15 -40 366 237 181 148 
-15 -40 366 232 176 143 
-14 -40 367 228 168 131 
-14 -40 368 219 159 122 
-13 -40 370 221 159 120 
-13 -40 372 214 152 113 
-12 -41 374 208 144 109 
-12 -41 377 196 132 97 
-30 -39 367 137 148 152 
-30 -39 367 207 156 129 
-29 -39 367 220 169 142 
-29 -39 366 226 176 151 
-28 -39 365 239 189 164 
-27 -39 365 237 191 158 
-27 -39 365 242 196 163 
-26 -39 364 248 201 173 
-25 -39 364 253 206 178 
-25 -39 364 255 210 186 
-24 -39 364 255 212 188 
-24 -39 363 255 213 189 
-23 -39 363 254 212 188 
-22 -39 363 252 210 188 
-22 -39 363 254 212 190 
-21 -39 363 255 210 189 
-21 -39 363 254 209 188 
-20 -39 363 254 208 185 
-19 -39 363 253 207 184 
-19 -39 363 253 205 183 
-18 -39 364 251 203 181 
-18 -39 364 255 203 173 
-17 -39 364 255 199 169 
-17 -39 364 248 192 159 
-16 -39 365 243 187 154 
-15 -39 366 234 178 143 
-15 -39 366 228 172 137 
-14 -39 368 225 167 130 
-14 -39 369 215 157 120 
-13 -40 371 213 149 114 
-13 -40 373 210 146 111 
-12 -40 375 199 134 102 
-12 -40 377 188 123 91 
-31 -39 367 142 138 135 
-30 -39 367 160 156 153 
-30 -39 367 217 166 139 
-29 -39 366 228 177 150 
-28 -38 365 230 183 155 
-28 -38 365 239 192 164 
-27 -38 364 239 192 162 
-27 -38 364 245 198 168 
-26 -38 364 252 205 177 
-25 -38 363 255 210 182 
-25 -38 363 255 212 187 
-24 -38 363 255 213 188 
-24 -38 363 255 213 189 
-23 -38 363 252 210 186 
-22 -38 363 251 209 187 
-22 -38 363 253 211 189 
-21 -38 363 254 209 188 
-21 -38 363 251 206 185 
-20 -38 363 252 204 182 
-19 -38 363 250 202 180 
-19 -38 363 248 200 177 
-18 -38 364 247 199 176 
-18 -38 364 255 200 167 
-17 -38 364 252 196 163 
-17 -38 365 247 191 156 
-16 -38 365 241 185 150 
-15 -39 366 232 176 139 
-15 -39 366 225 169 132 
-14 -39 368 222 162 125 
-14 -39 369 211 151 114 
-13 -39 372 210 146 111 
-13 -39 374 204 140 105 
-12 -40 376 190 124 92 
-12 -40 378 187 121 89 
-32 -38 369 125 133 136 
-31 -38 368 164 140 128 
-30 -38 368 185 161 149 
-30 -38 367 222 172 147 
-29 -38 366 232 182 157 
-28 -38 365 235 190 161 
-28 -38 364 240 195 166 
-27 -38 363 244 197 167 
-27 -38 363 249 202 172 
-26 -38 363 255 210 181 
-25 -38 363 255 213 184 
-25 -38 362 255 212 187 
-24 -38 362 255 213 188 
-23 -38 362 255 213 189 
-23 -38 362 252 210 186 
-22 -38 362 252 210 188 
-22 -38 362 254 212 190 
-21 -38 362 254 208 185 
-21 -38 362 251 205 182 
-20 -38 362 250 202 179 
-19 -38 362 247 199 176 
-19 -38 363 247 197 172 
-18 -38 363 247 197 172 
-18 -38 363 255 197 165 
-17 -38 364 249 190 158 
-17 -38 364 243 187 152 
-16 -38 365 239 183 148 
-15 -38 366 229 173 136 
-15 -38 367 222 166 129 
-14 -38 368 218 158 121 
-14 -38 370 208 148 111 
-13 -39 372 210 144 109 
-13 -39 375 198 132 97 
-12 -39 377 182 116 84 
-32 -38 368 128 136 139 
-31 -38 369 182 144 123 
-30 -37 367 203 165 144 
-30 -37 366 223 175 153 
-29 -37 365 231 183 161 
-28 -37 364 239 192 162 
-28 -37 364 245 198 168 
-27 -37 363 246 201 172 
-26 -37 362 251 206 177 
-26 -37 362 255 211 184 
-25 -37 362 255 213 186 
-25 -37 362 255 213 188 
-24 -37 362 255 214 189 
-23 -37 362 255 213 189 
-23 -37 362 251 209 185 
-22 -37 362 254 209 188 
-22 -37 362 254 209 188 
-21 -37 362 253 207 184 
-21 -37 362 250 204 181 
-20 -37 362 251 201 176 
-19 -37 362 248 198 173 
-19 -37 363 246 195 168 
-18 -37 363 245 194 167 
-18 -37 363 250 191 157 
-17 -37 364 243 184 150 
-17 -37 365 238 182 147 
-16 -37 365 234 178 143 
-15 -37 366 226 170 133 
-15 -37 367 220 164 127 
-14 -38 369 215 155 118 
-14 -38 370 207 147 110 
-13 -38 373 207 141 107 
-13 -38 375 189 123 89 
-12 -39 378 179 113 81 
-32 -37 367 135 144 141 
-31 -37 367 196 152 125 
-30 -37 366 217 173 146 
-30 -37 365 232 181 160 
-29 -37 364 239 188 167 
-28 -36 363 246 195 166 
-28 -36 363 252 201 172 
-27 -36 363 246 202 175 
-26 -36 362 252 208 181 
-26 -36 362 254 212 187 
-25 -36 362 255 213 188 
-25 -36 362 255 214 190 
-24 -36 362 255 214 190 
-23 -36 362 254 212 188 
-23 -36 362 251 209 185 
-22 -36 362 254 209 186 
-22 -36 362 252 207 184 
-21 -36 362 252 204 181 
-21 -36 362 249 201 178 
-20 -36 362 249 198 171 
-19 -36 362 248 197 170 
-19 -36 363 246 192 164 
-18 -36 363 241 187 159 
-18 -36 363 240 181 149 
-17 -37 364 237 178 146 
-17 -37 365 234 178 143 
-16 -37 366 229 173 138 
-15 -37 366 223 167 130 
-15 -37 368 217 161 124 
-14 -37 369 211 151 114 
-14 -37 371 205 145 108 
-13 -38 374 198 132 98 
-13 -38 376 178 112 78 
-32 -36 366 150 150 142 
-31 -36 366 206 162 135 
-30 -36 365 223 179 152 
-30 -36 364 240 188 167 
-29 -36 363 245 193 172 
-28 -36 362 250 197 166 
-28 -36 362 255 203 172 
-27 -36 362 248 204 179 
-26 -36 362 254 210 185 
-26 -36 362 255 213 188 
-25 -36 362 255 213 188 
-25 -36 362 255 215 190 
-24 -36 362 255 215 190 
-23 -36 362 254 212 190 
-23 -36 362 254 212 190 
-22 -36 362 255 210 187 
-22 -36 362 252 207 184 
-21 -36 362 252 205 179 
-21 -36 362 248 201 175 
-20 -36 362 250 196 168 
-19 -36 362 249 195 167 
-19 -36 363 245 190 160 
-18 -36 363 238 183 153 
-18 -36 363 236 177 145 
-17 -36 364 235 176 144 
-17 -36 365 230 176 140 
-16 -36 366 224 170 134 
-15 -36 367 219 163 126 
-15 -36 368 212 156 119 
-14 -37 370 208 148 111 
-14 -37 372 201 141 104 
-13 -37 374 186 120 86 
-13 -37 377 173 107 73 
-32 -36 366 149 135 122 
-32 -36 366 172 158 145 
-31 -35 365 217 172 149 
-30 -35 365 229 184 161 
-30 -35 364 245 191 167 
-29 -35 363 249 195 171 
-28 -35 362 248 199 166 
-28 -35 362 255 206 173 
-27 -35 362 250 208 183 
-26 -35 362 254 212 187 
-26 -35 362 255 215 190 
-25 -35 362 254 214 189 
-25 -35 362 254 213 191 
-24 -35 362 254 213 191 
-23 -35 362 254 212 190 
-23 -35 362 254 212 190 
-22 -35 362 255 210 187 
-22 -35 362 254 208 185 
-21 -35 362 253 203 178 
-21 -35 362 248 198 173 
-20 -35 362 248 194 166 
-19 -35 362 247 193 165 
-19 -35 362 244 187 157 
-18 -35 363 236 179 149 
-18 -35 363 234 175 143 
-17 -35 364 234 175 143 
-17 -35 365 227 171 136 
-16 -36 366 221 165 130 
-15 -36 368 213 157 120 
-15 -36 369 207 151 114 
-14 -36 371 205 143 106 
-14 -36 373 193 131 94 
-32 -35 365 166 140 123 
-31 -35 365 193 167 150 
-31 -35 364 228 181 163 
-30 -35 364 234 187 169 
-29 -35 363 248 192 167 
-29 -35 363 251 195 170 
-28 -35 362 245 201 166 
-28 -35 362 254 210 175 
-27 -35 362 252 210 186 
-26 -35 362 254 212 188 
-26 -35 362 255 215 190 
-25 -35 362 255 215 190 
-25 -35 362 254 213 191 
-24 -35 362 254 213 191 
-23 -35 362 254 212 190 
-23 -35 362 253 211 189 
-22 -35 362 253 207 184 
-22 -35 362 252 206 183 
-21 -35 362 250 200 175 
-21 -35 362 244 194 169 
-20 -35 362 244 191 160 
-19 -35 362 244 191 160 
-19 -35 363 243 184 154 
-18 -35 363 235 176 146 
-18 -35 363 232 171 140 
-17 -35 364 232 171 140 
-17 -35 365 222 166 131 
-16 -35 366 216 160 125 
-15 -35 368 209 153 116 
-15 -35 370 201 145 108 
-14 -36 372 197 135 98 
-14 -36 374 180 118 81 
-33 -34 366 136 144 147 
-32 -34 365 188 148 123 
-31 -34 364 207 167 142 
-31 -34 363 227 180 150 
-30 -34 363 233 186 156 
-29 -34 363 245 192 158 
-29 -34 362 250 197 163 
-28 -34 362 247 202 179 
-28 -34 362 251 206 183 
-27 -34 362 253 210 193 
-26 -34 361 255 214 197 
-26 -34 361 255 216 198 
-25 -34 362 255 214 196 
-25 -34 362 254 213 193 
-24 -34 361 253 212 192 
-23 -34 362 252 212 187 
-23 -34 362 251 211 186 
-22 -34 362 253 209 182 
-22 -34 362 250 206 179 
-21 -34 361 252 202 175 
-21 -34 362 246 196 169 
-20 -34 362 248 192 165 
-19 -34 362 240 184 157 
-19 -34 363 238 178 150 
-18 -34 363 233 173 145 
-18 -34 363 232 178 142 
-17 -34 364 228 174 138 
-17 -34 365 222 163 129 
-16 -34 367 214 155 121 
-16 -35 369 211 146 114 
-15 -35 371 204 139 107 
-14 -35 373 195 129 97 
-14 -35 376 172 106 74 
-33 -34 367 148 146 147 
-32 -34 365 197 156 128 
-31 -34 364 213 172 144 
-31 -33 363 228 181 151 
-30 -33 363 234 187 157 
-29 -33 363 248 195 161 
-29 -33 362 253 200 166 
-28 -33 362 249 203 179 
-28 -33 362 253 207 183 
-27 -33 361 254 211 192 
-26 -33 361 255 213 194 
-26 -33 361 255 216 196 
-25 -33 361 255 214 194 
-25 -33 361 254 213 191 
-24 -33 361 254 213 191 
-23 -33 361 254 212 187 
-23 -33 361 251 209 184 
-22 -33 361 249 205 178 
-22 -33 361 247 203 176 
-21 -33 361 249 199 172 
-21 -33 362 244 194 167 
-20 -33 362 245 189 162 
-19 -33 362 238 182 155 
-19 -33 362 235 175 147 
-18 -33 363 230 170 142 
-18 -34 364 229 175 139 
-17 -34 365 226 172 136 
-17 -34 366 220 161 127 
-16 -34 367 210 151 117 
-16 -34 370 208 143 111 
-15 -34 372 197 132 100 
-15 -34 374 180 111 82 
-14 -35 377 166 97 68 
-33 -33 365 166 151 144 
-32 -33 364 208 163 132 
-31 -33 364 220 175 144 
-31 -33 363 231 184 156 
-30 -33 362 238 191 163 
-29 -33 362 253 198 167 
-29 -33 362 255 202 171 
-28 -33 361 252 205 179 
-28 -33 361 255 209 183 
-27 -33 361 254 213 193 
-26 -33 361 255 214 194 
-26 -33 361 255 215 193 
-25 -33 361 255 214 192 
-25 -33 361 253 213 188 
-24 -33 361 254 214 189 
-23 -33 361 253 211 186 
-23 -33 361 249 207 182 
-22 -33 361 250 205 176 
-22 -33 361 247 202 173 
-21 -33 361 249 198 169 
-21 -33 362 242 191 162 
-20 -33 362 242 187 157 
-19 -33 362 234 179 149 
-19 -33 362 233 174 144 
-18 -33 363 228 169 139 
-18 -33 364 226 172 138 
-17 -33 365 220 166 132 
-17 -33 367 215 156 124 
-16 -33 368 204 145 113 
-16 -34 370 203 138 108 
-15 -34 373 188 123 93 
-15 -34 376 167 98 69 
-33 -33 368 167 138 124 
-33 -32 365 187 158 144 
-32 -32 364 214 168 135 
-31 -32 364 226 180 147 
-31 -32 363 235 188 160 
-30 -32 362 241 194 166 
-29 -32 362 252 198 170 
-29 -32 361 255 201 173 
-28 -32 361 253 206 180 
-28 -32 361 255 212 186 
-27 -32 361 253 215 192 
-26 -32 361 254 216 193 
-26 -32 361 255 214 192 
-25 -32 361 253 212 190 
-25 -32 361 253 211 187 
-24 -32 361 254 212 188 
-23 -32 361 255 209 183 
-23 -32 361 250 204 178 
-22 -32 361 253 203 176 
-22 -32 361 250 200 173 
-21 -32 361 249 195 167 
-21 -32 362 241 187 159 
-20 -32 362 240 183 154 
-19 -32 362 232 175 146 
-19 -32 362 229 170 140 
-18 -32 363 225 166 136 
-18 -32 365 225 171 137 
-17 -33 366 217 163 129 
-17 -33 367 210 151 119 
-16 -33 369 199 140 108 
-16 -33 371 191 126 96 
-15 -33 374 172 107 77 
-15 -34 377 161 92 63 
-33 -32 367 181 143 122 
-33 -32 364 201 163 142 
-32 -32 364 223 174 141 
-31 -32 363 231 182 149 
-31 -32 362 238 191 165 
-30 -32 362 243 196 170 
-29 -32 361 249 198 171 
-29 -32 361 252 201 174 
-28 -32 361 254 208 184 
-28 -32 361 255 215 191 
-27 -32 361 253 215 192 
-26 -32 361 254 216 193 
-26 -32 361 254 214 189 
-25 -32 361 251 211 186 
-25 -31 360 254 209 186 
-24 -31 360 255 210 187 
-23 -32 361 254 207 181 
-23 -32 361 250 203 177 
-22 -32 361 253 202 175 
-22 -32 361 248 197 170 
-21 -32 361 247 191 164 
-21 -32 362 240 184 157 
-20 -32 362 237 180 151 
-19 -32 362 228 171 142 
-19 -32 363 223 166 136 
-18 -32 364 218 161 131 
-18 -32 365 220 165 134 
-17 -32 367 210 155 124 
-17 -32 368 205 146 116 
-16 -32 370 194 135 105 
-16 -33 373 175 110 82 
-15 -33 375 157 92 64 
-34 -31 366 140 142 139 
-33 -31 365 194 149 120 
-32 -31 363 214 169 140 
-32 -31 363 229 180 147 
-31 -31 363 235 186 153 
-31 -31 362 240 193 163 
-30 -31 361 244 197 167 
-29 -31 361 248 201 175 
-29 -31 361 253 206 180 
-28 -31 361 254 212 188 
-28 -31 361 255 215 191 
-27 -31 361 253 215 192 
-26 -31 361 253 215 192 
-26 -31 361 253 213 188 
-25 -31 360 250 210 185 
-25 -31 360 255 209 185 
-24 -31 360 255 209 185 
-23 -31 361 255 205 180 
-23 -31 361 251 201 176 
-22 -31 361 253 199 173 
-22 -31 361 247 193 167 
-21 -31 361 243 188 158 
-21 -31 362 236 181 151 
-20 -31 362 234 177 147 
-19 -31 362 227 170 140 
-19 -31 363 222 165 135 
-18 -31 364 216 159 129 
-18 -31 366 211 156 125 
-17 -32 368 206 151 120 
-17 -32 369 199 140 110 
-16 -32 372 186 127 97 
-16 -32 374 163 98 70 
-34 -31 365 155 144 140 
-33 -31 364 202 156 120 
-32 -30 362 221 175 139 
-32 -30 362 235 185 152 
-31 -30 362 240 190 157 
-31 -30 362 245 196 164 
-30 -30 361 249 200 168 
-29 -30 361 252 205 177 
-29 -30 360 255 210 182 
-28 -30 360 255 213 194 
-27 -30 360 255 214 195 
-27 -30 361 252 214 191 
-26 -30 361 251 213 190 
-26 -30 361 251 211 186 
-25 -30 360 250 210 185 
-25 -30 360 254 208 184 
-24 -30 360 253 207 183 
-23 -30 361 253 201 177 
-23 -30 361 248 196 172 
-22 -30 361 252 196 169 
-22 -30 361 244 188 161 
-21 -30 362 238 181 151 
-21 -30 362 232 175 145 
-20 -31 363 230 176 142 
-19 -31 363 223 169 135 
-19 -31 364 218 164 130 
-18 -31 365 212 158 124 
-18 -31 366 208 151 121 
-17 -31 368 203 146 116 
-17 -31 370 191 132 102 
-16 -31 373 169 110 80 
-16 -32 376 152 87 59 
-34 -30 366 152 131 126 
-34 -30 364 167 146 141 
-33 -30 363 210 162 122 
-32 -30 362 228 180 140 
-32 -30 362 240 187 155 
-31 -30 362 246 193 161 
-30 -30 361 248 199 166 
-30 -30 361 251 202 169 
-29 -30 361 252 207 178 
-29 -30 360 255 212 183 
-28 -30 360 255 215 195 
-27 -30 360 255 216 196 
-27 -30 360 253 215 192 
-26 -30 360 250 212 189 
-26 -30 361 252 210 185 
-25 -30 360 252 210 185 
-25 -30 360 255 208 182 
-24 -30 361 253 206 180 
-23 -30 361 252 198 172 
-23 -30 361 246 192 166 
-22 -30 361 246 190 163 
-22 -30 361 238 182 155 
-21 -30 362 233 177 144 
-21 -30 362 227 171 138 
-20 -30 362 225 171 135 
-19 -30 363 219 165 129 
-19 -30 364 212 160 123 
-18 -30 366 206 154 117 
-18 -30 367 202 145 115 
-17 -30 369 196 139 109 
-17 -31 372 180 119 90 
-16 -31 374 151 90 61 
-34 -29 363 169 132 123 
-34 -29 363 190 153 144 
-33 -29 362 223 169 131 
-32 -29 362 233 179 141 
-32 -29 362 241 187 159 
-31 -29 361 247 193 165 
-30 -29 361 254 200 166 
-30 -29 361 255 203 169 
-29 -29 361 252 207 188 
-29 -29 360 255 211 192 
-28 -29 360 254 213 191 
-27 -29 360 255 214 192 
-27 -29 360 255 215 191 
-26 -29 360 254 212 188 
-26 -29 360 254 209 188 
-25 -29 360 254 209 188 
-25 -29 360 255 208 186 
-24 -29 361 252 204 182 
-23 -29 361 250 196 168 
-23 -29 361 245 191 163 
-22 -29 361 245 189 154 
-22 -29 361 240 184 149 
-21 -29 362 235 180 141 
-21 -29 362 226 171 132 
-20 -29 362 220 164 127 
-19 -29 364 216 160 123 
-19 -29 365 208 152 117 
-18 -30 366 204 148 113 
-18 -30 368 197 136 105 
-17 -30 370 184 123 92 
-17 -30 373 157 93 66 
-34 -29 364 181 142 127 
-34 -29 362 202 163 148 
-33 -29 362 230 176 140 
-32 -29 361 239 185 149 
-32 -29 361 243 190 156 
-31 -29 361 248 195 161 
-30 -28 360 253 200 168 
-30 -28 360 255 203 171 
-29 -28 360 252 207 184 
-29 -28 360 255 211 188 
-28 -28 360 254 214 189 
-27 -28 360 254 214 189 
-27 -28 360 255 213 189 
-26 -28 360 253 211 187 
-26 -28 360 254 209 188 
-25 -28 360 253 208 187 
-25 -28 360 255 206 183 
-24 -29 361 252 202 179 
-23 -29 361 248 193 163 
-23 -29 361 242 187 157 
-22 -29 361 244 186 149 
-22 -29 361 238 180 143 
-21 -29 362 232 174 134 
-21 -29 362 225 167 127 
-20 -29 363 218 160 122 
-19 -29 364 210 152 114 
-19 -29 366 203 145 108 
-18 -29 367 200 142 105 
-18 -29 369 190 129 98 
-17 -29 372 166 105 74 
-17 -30 374 144 80 53 
-35 -28 366 146 142 143 
-34 -28 365 194 152 130 
-34 -28 362 212 170 148 
-33 -28 361 236 182 148 
-32 -28 361 244 190 156 
-32 -28 360 245 195 158 
-31 -28 360 248 198 161 
-30 -28 360 253 202 173 
-30 -28 359 255 205 176 
-29 -28 359 253 207 183 
-29 -28 359 255 209 185 
-28 -28 359 255 212 187 
-27 -28 359 255 211 186 
-27 -28 359 255 211 188 
-26 -28 359 255 210 187 
-26 -28 359 255 210 187 
-25 -28 359 255 209 186 
-25 -28 360 255 205 180 
-24 -28 360 249 199 174 
-23 -28 360 246 189 159 
-23 -28 360 240 183 153 
-22 -28 361 241 183 145 
-22 -28 361 234 176 138 
-21 -28 362 229 170 128 
-21 -28 362 223 164 122 
-20 -28 364 213 153 116 
-20 -28 365 203 143 106 
-19 -28 366 197 137 101 
-18 -29 368 193 133 97 
-18 -29 370 176 115 86 
-18 -29 373 145 84 55 
-35 -28 364 160 146 145 
-34 -28 363 204 158 134 
-34 -27 362 219 173 149 
-33 -27 361 238 182 155 
-32 -27 360 246 190 163 
-32 -27 360 247 197 162 
-31 -27 360 250 200 165 
-30 -27 359 252 204 182 
-30 -27 359 254 206 184 
-29 -27 359 254 208 184 
-29 -27 359 255 209 185 
-28 -27 359 253 208 185 
-27 -27 359 252 207 184 
-27 -27 359 254 209 186 
-26 -27 359 254 209 186 
-26 -27 359 255 210 187 
-25 -27 359 254 208 185 
-25 -27 360 253 201 177 
-24 -27 360 245 193 169 
-23 -27 360 242 186 153 
-23 -27 360 236 180 147 
-22 -27 361 237 178 138 
-22 -27 362 231 172 132 
-21 -27 362 227 165 124 
-21 -28 363 219 157 116 
-20 -28 364 207 145 108 
-20 -28 366 200 138 101 
-19 -28 367 195 132 99 
-19 -28 369 182 119 86 
-18 -28 372 156 94 69 
-18 -28 374 131 69 44 
-35 -27 364 177 155 144 
-34 -27 363 214 167 139 
-34 -27 362 225 178 150 
-33 -27 361 240 186 158 
-32 -27 360 247 193 165 
-32 -27 360 246 197 164 
-31 -27 360 251 202 169 
-30 -27 359 252 207 188 
-30 -27 359 254 209 190 
-29 -27 359 255 211 186 
-29 -27 359 254 210 185 
-28 -27 359 253 208 185 
-27 -27 359 252 207 184 
-27 -27 359 252 207 186 
-26 -27 359 252 207 186 
-26 -27 359 253 205 182 
-25 -27 359 250 202 179 
-24 -27 359 248 197 168 
-24 -27 360 240 189 160 
-23 -27 360 236 180 145 
-23 -27 360 231 175 140 
-22 -27 361 231 172 130 
-22 -27 362 227 168 126 
-21 -27 363 222 160 119 
-21 -27 363 212 150 109 
-20 -27 365 200 137 102 
-20 -27 366 197 134 99 
-19 -27 368 188 124 97 
-19 -28 371 162 98 71 
-18 -28 373 138 76 53 
-18 -28 376 126 64 41 
-35 -26 364 192 159 140 
-34 -26 362 223 172 143 
-34 -26 362 234 183 154 
-33 -26 361 244 191 160 
-32 -26 360 250 197 166 
-32 -26 360 244 198 165 
-31 -26 359 251 205 172 
-30 -26 359 252 210 188 
-30 -26 359 254 212 190 
-29 -26 359 255 213 188 
-29 -26 359 255 212 187 
-28 -26 359 252 210 186 
-27 -26 359 250 208 184 
-27 -26 359 253 208 185 
-26 -26 359 251 206 183 
-26 -26 359 251 204 178 
-25 -26 359 248 201 175 
-24 -26 359 247 194 163 
-24 -26 360 239 186 155 
-23 -26 360 232 176 139 
-23 -26 360 227 171 134 
-22 -26 361 227 168 126 
-22 -26 362 222 163 121 
-21 -26 363 218 156 115 
-21 -26 364 208 146 105 
-20 -27 366 199 136 103 
-20 -27 367 193 130 97 
-19 -27 370 174 109 87 
-19 -27 372 142 77 55 
-36 -26 366 186 147 118 
-35 -26 364 207 168 139 
-34 -26 362 232 178 150 
-33 -26 361 241 187 159 
-33 -26 360 249 196 164 
-32 -26 360 255 202 170 
-32 -25 359 247 200 170 
-31 -25 359 253 206 176 
-30 -25 359 253 213 188 
-30 -25 359 254 214 189 
-29 -25 359 255 212 189 
-29 -25 359 255 211 188 
-28 -25 359 252 210 186 
-27 -25 359 248 206 182 
-27 -25 359 253 207 183 
-26 -25 359 252 206 182 
-26 -25 359 253 202 175 
-25 -25 359 248 197 170 
-24 -25 359 244 190 156 
-24 -26 360 235 181 147 
-23 -26 360 230 172 132 
-23 -26 360 225 167 127 
-22 -26 361 224 163 119 
-22 -26 362 218 157 113 
-21 -26 363 212 149 108 
-21 -26 365 205 142 101 
-20 -26 366 196 131 101 
-20 -26 369 181 116 86 
-19 -26 371 154 89 69 
-19 -27 374 133 68 48 
-36 -25 365 200 155 124 
-35 -25 363 220 175 144 
-34 -25 362 240 184 159 
-33 -25 361 247 191 166 
-33 -25 360 253 200 166 
-32 -25 359 255 206 172 
-32 -25 359 252 202 177 
-31 -25 359 255 207 182 
-30 -25 359 254 214 189 
-30 -25 359 254 214 189 
-29 -25 358 255 211 190 
-29 -25 359 255 211 190 
-28 -25 359 251 209 187 
-27 -25 359 246 204 182 
-27 -25 359 250 203 177 
-26 -25 359 250 203 177 
-26 -25 359 251 200 169 
-25 -25 359 245 194 163 
-24 -25 359 240 184 149 
-24 -25 359 230 174 139 
-23 -25 360 225 166 124 
-23 -25 361 221 162 120 
-22 -25 361 220 159 114 
-22 -25 362 211 150 105 
-21 -25 364 205 140 100 
-21 -25 366 198 133 93 
-20 -25 367 187 122 92 
-20 -26 370 164 99 69 
-19 -26 372 139 74 56 
-19 -26 375 132 67 49 
-36 -25 366 160 151 144 
-35 -25 364 208 162 136 
-35 -25 362 227 181 155 
-34 -24 361 238 184 148 
-33 -24 361 246 192 156 
-33 -24 360 247 200 174 
-32 -24 359 248 201 175 
-32 -24 359 255 207 186 
-31 -24 359 255 208 187 
-30 -24 359 255 211 188 
-30 -24 359 255 211 188 
-29 -24 358 250 214 190 
-29 -24 359 248 212 188 
-28 -24 359 248 206 184 
-27 -24 359 246 204 182 
-27 -24 359 255 204 182 
-26 -24 359 253 201 179 
-26 -24 359 253 200 168 
-25 -24 359 244 191 159 
-24 -24 359 240 172 135 
-24 -24 359 229 161 124 
-23 -24 360 219 160 116 
-23 -24 361 217 158 114 
-22 -25 362 213 154 110 
-22 -25 363 206 147 103 
-21 -25 365 205 137 102 
-21 -25 367 198 130 95 
-20 -25 368 168 111 84 
-20 -25 371 143 86 59 
-19 -26 377 127 68 54 
-36 -24 364 176 158 146 
-35 -24 363 218 169 139 
-35 -24 361 231 182 152 
-34 -24 361 240 186 150 
-33 -24 360 250 196 160 
-33 -24 360 248 203 174 
-32 -24 359 250 205 176 
-32 -24 359 255 207 185 
-31 -24 359 255 209 187 
-30 -24 358 255 211 188 
-30 -24 358 255 210 187 
-29 -24 358 250 212 189 
-29 -24 358 246 208 185 
-28 -24 359 248 203 182 
-27 -24 359 247 202 181 
-27 -24 359 254 203 176 
-26 -24 359 250 199 172 
-26 -24 359 246 193 161 
-25 -24 359 236 183 151 
-24 -24 359 233 167 132 
-24 -24 360 224 158 123 
-23 -24 360 214 155 115 
-23 -24 361 211 152 112 
-22 -24 362 208 148 111 
-22 -24 364 206 146 109 
-21 -24 366 199 133 101 
-21 -24 368 182 116 84 
-20 -24 370 155 98 71 
-20 -25 372 138 81 54 
-37 -23 364 175 144 126 
-36 -23 362 199 168 150 
-35 -23 362 230 175 144 
-35 -23 361 238 183 152 
-34 -23 360 245 191 155 
-33 -23 360 254 200 164 
-33 -23 359 249 205 176 
-32 -23 359 251 207 178 
-31 -23 358 255 212 186 
-31 -23 358 255 211 185 
-30 -23 358 255 210 184 
-30 -23 358 255 209 183 
-29 -23 358 250 208 184 
-29 -23 358 247 205 181 
-28 -23 359 249 201 179 
-27 -23 359 250 202 180 
-27 -23 359 255 204 173 
-26 -23 359 250 197 166 
-26 -23 359 241 187 153 
-25 -23 359 231 177 143 
-24 -23 359 229 165 130 
-24 -23 360 221 157 122 
-23 -23 361 211 151 115 
-23 -23 362 206 146 110 
-22 -23 363 207 147 113 
-22 -24 365 203 143 109 
-21 -24 367 190 125 97 
-21 -24 369 165 100 72 
-20 -24 371 143 85 61 
-20 -24 374 130 72 48 
-37 -23 364 194 149 126 
-36 -23 361 217 172 149 
-35 -23 360 236 180 145 
-35 -23 360 242 186 151 
-34 -23 360 246 196 161 
-33 -23 359 253 203 168 
-33 -23 359 247 206 178 
-32 -22 358 252 211 183 
-31 -22 358 255 213 184 
-31 -22 358 255 212 183 
-30 -22 358 255 209 183 
-30 -22 358 253 207 181 
-29 -22 358 252 206 183 
-29 -22 358 249 203 180 
-28 -23 359 252 200 178 
-27 -23 359 253 201 179 
-27 -23 359 255 200 169 
-26 -23 359 247 192 161 
-26 -23 359 238 182 147 
-25 -23 359 229 173 138 
-24 -23 359 227 163 127 
-24 -23 360 220 156 120 
-23 -23 361 212 148 112 
-23 -23 362 204 140 104 
-22 -23 364 202 137 107 
-22 -23 366 193 128 98 
-21 -23 368 179 115 90 
-21 -23 370 151 87 62 
-21 -23 373 137 80 60 
-20 -24 376 129 72 52 
-37 -22 365 155 152 145 
-36 -22 362 208 157 128 
-36 -22 360 226 175 146 
-35 -22 359 236 182 146 
-34 -22 359 244 190 154 
-34 -22 359 247 198 166 
-33 -22 358 254 205 173 
-33 -22 358 247 210 183 
-32 -22 358 253 216 189 
-31 -22 358 255 214 186 
-31 -22 358 253 212 184 
-30 -22 358 254 208 182 
-30 -22 358 253 207 181 
-29 -22 358 255 205 182 
-29 -22 358 253 203 180 
-28 -22 358 253 199 175 
-27 -22 359 251 197 173 
-27 -22 359 248 194 160 
-26 -22 359 240 186 152 
-26 -22 359 237 177 141 
-25 -22 359 230 170 134 
-24 -22 359 223 160 119 
-24 -22 360 216 153 112 
-24 -22 362 211 143 106 
-23 -22 363 200 132 95 
-23 -22 365 193 128 98 
-22 -22 367 185 120 90 
-22 -23 369 175 119 96 
-21 -23 372 144 88 65 
-21 -23 375 133 80 64 
-37 -22 365 171 158 142 
-36 -21 361 215 164 133 
-36 -21 360 228 177 146 
-35 -21 359 235 185 150 
-34 -21 358 244 194 159 
-34 -21 358 247 202 173 
-33 -21 358 253 208 179 
-33 -21 358 252 211 189 
-32 -21 357 255 217 195 
-31 -21 357 255 215 189 
-31 -21 358 252 212 186 
-30 -21 358 254 208 182 
-30 -21 358 253 207 181 
-29 -21 358 255 204 180 
-29 -21 358 253 201 177 
-28 -21 358 250 197 166 
-27 -21 359 246 193 162 
-27 -21 359 241 187 153 
-26 -21 359 233 179 145 
-26 -21 359 234 172 135 
-25 -21 359 228 166 129 
-25 -21 360 219 156 113 
-24 -22 361 211 148 105 
-24 -22 362 202 137 99 
-23 -22 364 191 126 88 
-23 -22 366 179 122 93 
-22 -22 368 179 122 93 
-22 -22 371 177 132 113 
-21 -22 373 144 99 80 
-37 -21 363 192 164 142 
-36 -21 361 220 171 138 
-36 -21 359 232 183 150 
-35 -21 359 237 191 157 
-34 -21 358 246 200 166 
-34 -21 358 249 205 180 
-33 -21 358 255 211 186 
-33 -21 358 255 213 194 
-32 -21 357 255 215 196 
-31 -21 357 255 213 188 
-31 -21 357 252 210 185 
-30 -21 358 253 206 180 
-30 -21 358 251 204 178 
-29 -21 358 255 200 173 
-29 -21 358 253 197 170 
-28 -21 358 248 194 158 
-27 -21 359 242 188 152 
-27 -21 359 240 181 147 
-26 -21 359 231 172 138 
-26 -21 359 228 164 128 
-25 -21 360 222 158 122 
-25 -21 361 209 152 109 
-24 -21 362 200 143 100 
-24 -21 363 189 131 94 
-23 -21 365 178 120 83 
-23 -21 367 166 121 98 
-22 -21 369 168 123 100 
-22 -22 372 166 137 123 
-21 -22 375 143 114 100 
-38 -21 367 185 149 123 
-37 -20 361 208 172 146 
-36 -20 359 223 177 143 
-36 -20 359 235 189 155 
-35 -20 358 240 197 162 
-34 -20 357 247 204 169 
-34 -20 357 249 204 181 
-33 -20 357 255 212 189 
-32 -20 357 255 214 198 
-32 -20 357 255 212 196 
-31 -20 357 253 211 186 
-31 -20 357 250 208 183 
-30 -20 358 254 204 177 
-30 -20 358 252 202 175 
-29 -20 358 254 199 169 
-29 -20 358 251 196 166 
-28 -20 358 246 191 152 
-27 -20 358 239 184 145 
-27 -20 359 237 177 143 
-26 -20 359 227 167 133 
-26 -20 360 222 156 121 
-25 -20 360 216 150 115 
-25 -20 361 199 146 104 
-24 -20 362 190 137 95 
-24 -20 364 176 126 93 
-23 -21 366 165 115 82 
-23 -21 368 160 128 107 
-38 -20 363 205 159 123 
-37 -20 359 227 181 145 
-36 -20 358 234 188 154 
-36 -20 358 240 194 160 
-35 -20 358 245 198 168 
-34 -20 357 251 204 174 
-34 -20 357 254 208 184 
-33 -20 357 255 210 186 
-32 -20 357 255 212 189 
-32 -20 357 255 212 189 
-31 -20 357 255 215 192 
-31 -20 357 254 208 185 
-30 -20 357 255 206 181 
-30 -20 358 251 201 176 
-29 -20 358 249 198 167 
-29 -20 358 242 191 160 
-28 -20 358 239 186 152 
-27 -20 358 231 178 144 
-27 -20 359 232 170 133 
-26 -20 359 220 158 121 
-26 -20 360 219 150 111 
-25 -20 360 212 143 104 
-25 -20 362 193 140 98 
-24 -20 363 185 132 90 
-24 -20 365 183 119 84 
-23 -20 367 182 118 83 
-23 -20 370 145 128 134 
-39 -19 367 168 157 153 
-37 -19 360 215 169 135 
-37 -19 358 230 184 150 
-36 -19 358 236 190 156 
-36 -19 358 243 197 163 
-35 -19 357 249 202 172 
-34 -19 356 254 207 177 
-34 -19 357 255 209 185 
-33 -19 357 255 211 187 
-32 -19 356 255 214 189 
-32 -19 357 255 212 187 
-31 -19 357 255 212 188 
-31 -19 357 252 206 182 
-30 -19 357 253 203 176 
-30 -19 358 248 198 171 
-29 -19 358 248 195 163 
-29 -19 358 240 187 155 
-28 -19 359 236 182 146 
-27 -19 359 228 174 138 
-27 -19 359 228 164 126 
-26 -19 360 215 151 113 
-26 -19 360 210 147 106 
-25 -19 361 205 142 101 
-25 -19 363 190 131 89 
-24 -19 365 181 122 80 
-24 -19 367 163 121 97 
-23 -20 369 163 121 97 
-23 -20 372 142 131 129 
-39 -19 366 192 164 152 
-37 -18 360 225 179 146 
-37 -18 358 234 188 155 
-36 -18 357 239 193 160 
-35 -18 357 247 201 168 
-35 -18 357 252 207 176 
-34 -18 356 255 211 180 
-34 -18 356 255 211 187 
-33 -18 356 255 212 188 
-32 -18 356 255 212 188 
-32 -18 356 255 210 186 
-31 -18 356 255 212 186 
-31 -18 356 252 205 179 
-30 -18 356 252 201 172 
-30 -18 357 246 195 166 
-29 -18 357 245 191 157 
-29 -18 358 237 183 149 
-28 -18 358 233 178 139 
-27 -18 358 225 170 131 
-27 -18 359 226 158 121 
-26 -19 360 212 144 107 
-26 -19 361 200 141 99 
-25 -19 362 196 137 95 
-25 -19 363 187 122 84 
-24 -19 366 179 114 76 
-24 -19 368 144 127 117 
-40 -18 371 186 145 123 
-38 -18 363 210 169 147 
-37 -18 360 232 187 158 
-37 -18 358 239 194 165 
-36 -18 357 242 197 166 
-35 -18 357 249 204 173 
-35 -18 356 254 209 180 
-34 -18 356 255 212 183 
-34 -18 356 255 212 188 
-33 -18 356 255 212 188 
-32 -18 356 255 211 187 
-32 -18 356 253 207 183 
-31 -18 356 255 208 183 
-31 -18 356 252 202 177 
-30 -18 357 253 200 169 
-30 -18 357 246 193 162 
-29 -18 357 244 186 149 
-28 -18 357 235 177 140 
-28 -18 358 231 172 132 
-27 -18 359 223 164 124 
-27 -18 359 221 151 115 
-26 -18 360 208 138 102 
-26 -18 361 196 131 89 
-25 -18 363 191 126 84 
-25 -18 364 178 119 87 
-24 -18 367 174 115 83 
-24 -18 369 134 132 133 
-24 -19 373 134 132 133 
-39 -18 366 206 156 129 
-38 -17 361 225 175 148 
-37 -17 358 237 191 165 
-37 -17 358 242 196 170 
-36 -17 357 246 201 172 
-35 -17 357 251 206 177 
-35 -17 356 254 208 182 
-34 -17 356 255 210 184 
-34 -17 356 255 212 188 
-33 -17 356 255 212 188 
-32 -17 356 255 209 187 
-32 -17 356 252 204 182 
-31 -17 356 253 201 177 
-31 -17 356 250 198 174 
-30 -17 356 252 197 166 
-30 -17 357 244 189 158 
-29 -17 357 239 179 142 
-28 -17 357 228 168 131 
-28 -17 358 224 161 120 
-27 -17 359 217 154 113 
-27 -17 360 211 141 107 
-26 -17 360 201 131 97 
-26 -17 362 192 120 80 
-25 -18 364 188 116 76 
-25 -18 366 159 123 101 
-25 -18 368 159 123 101 
-40 -17 368 167 154 148 
-39 -17 362 217 166 139 
-38 -17 360 234 183 156 
-37 -17 358 241 194 166 
-37 -17 357 246 199 171 
-36 -17 357 249 204 175 
-35 -17 356 253 208 179 
-35 -17 356 254 208 182 
-34 -17 356 255 210 184 
-34 -17 356 255 211 187 
-33 -17 356 255 211 187 
-32 -17 356 255 207 185 
-32 -17 356 249 201 179 
-31 -17 356 253 199 175 
-31 -17 356 249 195 171 
-30 -17 357 250 193 163 
-30 -17 357 241 184 154 
-29 -17 357 235 173 136 
-29 -17 358 223 161 124 
-28 -17 358 218 153 111 
-27 -17 359 210 145 103 
-27 -17 360 202 136 101 
-26 -17 361 193 127 92 
-26 -17 363 184 118 84 
-25 -17 364 179 113 79 
-25 -17 367 138 129 112 
-25 -17 370 140 131 114 
-39 -16 360 225 175 152 
-38 -16 359 238 188 165 
-37 -16 358 249 195 167 
-37 -16 357 254 200 172 
-36 -16 356 252 207 178 
-35 -16 356 254 209 180 
-35 -16 356 255 209 183 
-34 -16 356 255 210 184 
-33 -16 355 255 211 187 
-33 -16 356 255 210 186 
-32 -16 356 255 205 182 
-32 -16 356 249 199 176 
-31 -16 356 251 197 171 
-31 -16 356 246 192 166 
-30 -16 357 247 188 156 
-30 -16 357 236 177 145 
-29 -16 357 229 165 127 
-29 -16 358 218 154 116 
-28 -16 359 215 148 105 
-27 -16 360 208 141 98 
-27 -16 361 199 133 99 
-26 -16 362 187 121 87 
-26 -16 364 172 118 92 
-26 -16 366 171 117 91 
-25 -17 369 128 134 122 
-25 -17 371 129 135 123 
-39 -16 362 213 178 158 
-39 -16 360 232 184 164 
-38 -16 359 241 193 173 
-37 -15 358 254 197 168 
-37 -15 357 255 204 175 
-36 -15 357 254 207 179 
-35 -15 356 255 209 181 
-35 -15 356 255 210 181 
-34 -15 356 255 212 183 
-33 -15 355 255 211 185 
-33 -15 355 254 208 182 
-32 -15 356 253 203 180 
-32 -15 356 248 198 175 
-31 -15 356 248 192 167 
-31 -15 356 242 186 161 
-30 -15 357 241 182 148 
-30 -15 357 230 171 137 
-29 -15 357 224 161 120 
-29 -15 358 214 151 110 
-28 -16 359 212 143 101 
-27 -16 360 204 135 93 
-27 -16 362 197 128 95 
-27 -16 363 183 114 81 
-26 -16 365 160 119 99 
-26 -16 368 162 121 101 
-37 -15 357 208 150 126 
-37 -15 357 228 170 146 
-36 -15 356 251 198 166 
-35 -15 356 255 209 177 
-35 -15 356 251 215 179 
-34 -15 355 249 213 177 
-33 -15 355 252 202 177 
-33 -15 355 249 199 174 
-32 -15 355 254 199 178 
-32 -15 356 247 192 171 
-31 -15 356 255 196 164 
-31 -15 356 246 187 155 
-30 -15 357 248 179 138 
-30 -15 357 237 168 127 
-29 -15 358 226 165 120 
-29 -15 358 215 154 109 
-28 -15 359 205 148 103 
-28 -15 361 199 142 97 
-27 -15 362 188 123 91 
-27 -15 365 177 112 80 
-26 -15 366 139 129 130 
-26 -15 369 139 129 130 
-35 -14 356 219 164 133 
-35 -14 355 241 198 164 
-34 -14 355 254 211 177 
-33 -14 355 255 210 186 
-33 -14 355 255 203 179 
-32 -14 355 247 191 166 
-32 -14 356 250 194 169 
-31 -14 356 249 186 153 
-31 -14 356 241 178 145 
-30 -14 357 242 170 132 
-30 -14 357 231 159 121 
-29 -14 358 219 156 112 
-29 -14 359 211 148 104 
-28 -14 360 205 142 98 
-28 -14 361 197 134 90 
-27 -15 363 172 123 93 
-27 -15 366 167 118 88 
-26 -15 368 138 129 132 
-35 -14 355 208 151 121 
-35 -14 355 189 138 109 
-34 -14 355 208 157 128 
-33 -14 355 238 182 157 
-33 -14 355 247 191 166 
-32 -14 355 251 194 164 
-32 -14 355 244 187 157 
-31 -14 356 245 181 146 
-31 -14 356 237 173 138 
-30 -14 357 235 166 127 
-30 -14 358 223 154 115 
-29 -14 358 213 150 106 
-29 -14 359 207 144 100 
-28 -14 361 205 133 93 
-28 -14 362 195 123 83 
-27 -14 365 154 123 103 
-27 -14 367 155 124 104 
-33 -13 355 186 129 100 
-33 -13 355 214 157 128 
-32 -13 355 242 184 147 
-32 -13 355 237 179 142 
-31 -13 356 240 174 139 
-31 -13 356 234 168 133 
-30 -13 357 227 160 118 
-30 -13 358 218 151 109 
-29 -13 359 209 146 103 
-29 -13 360 202 139 96 
-28 -13 361 195 125 91 
-28 -13 363 186 116 82 
-27 -13 366 142 127 120 
-27 -14 368 143 128 121 
-31 -12 356 231 163 126 
-31 -13 357 231 163 126 
-30 -13 357 222 153 112 
-30 -13 358 213 144 103 
-29 -13 359 205 140 100 
-29 -13 361 196 131 91 
-28 -13 363 177 120 93 
-28 -13 364 173 116 89 
-27 -13 367 136 132 133 
-31 -12 356 210 144 110 
-31 -12 357 224 158 124 
-30 -12 358 221 150 108 
-30 -12 359 213 142 100 
-29 -12 360 200 132 97 
-29 -12 362 188 120 85 
-28 -12 364 157 120 104 
-28 -12 366 156 119 103 
-28 -12 368 128 132 135 
-30 -11 358 210 139 97 
-30 -11 360 207 136 94 
-29 -11 361 189 123 91 
-29 -12 363 179 113 81 
-28 -12 365 138 125 119 
-28 -12 367 137 124 118 
-30 -11 359 190 121 79 
-30 -11 360 197 128 86 
-29 -11 362 180 115 87 
-29 -11 364 173 108 80 
-29 -11 367 125 131 131 
-30 -10 360 174 99 76 
-30 -10 361 190 115 92 
-30 -10 363 173 115 93 
-29 -10 366 170 112 90 
-29 -11 369 124 134 133 
-30 -10 360 131 74 63 
-30 -10 362 162 105 94 
-30 -10 365 158 125 110 
-29 -10 367 153 120 105 
