ply
format ascii 1.0
comment Created by CloudCompare v2.10.1 (Zephyrus)
comment Created 2020-05-17 12:56 AM
obj_info Generated by CloudCompare!
element vertex 265
property float x
property float y
property float z
property uchar red
property uchar green
property uchar blue
end_header
-17 -76 403 221 164 144 
-16 -76 403 235 178 158 
-16 -76 403 248 190 170 
-15 -76 403 251 193 173 
-14 -76 403 255 199 179 
-14 -76 403 255 200 180 
-13 -76 403 255 200 178 
-12 -76 402 255 198 176 
-12 -76 403 255 198 176 
-11 -76 403 255 198 176 
-10 -76 403 252 194 172 
-10 -76 403 246 188 166 
-9 -76 403 242 183 169 
-8 -76 403 230 171 157 
-16 -76 403 248 191 171 
-16 -76 403 255 200 180 
-15 -76 403 255 201 181 
-14 -76 403 255 202 182 
-14 -76 403 255 203 183 
-13 -76 403 255 207 183 
-12 -76 402 255 207 183 
-12 -76 402 255 207 183 
-11 -76 403 255 208 184 
-10 -76 403 255 205 181 
-10 -76 403 254 200 176 
-9 -76 403 247 192 172 
-8 -76 403 240 185 165 
-8 -76 404 228 181 173 
-19 -75 404 214 157 137 
-18 -75 404 225 170 149 
-18 -75 404 236 181 160 
-17 -75 403 243 188 167 
-16 -75 403 248 193 172 
-16 -75 403 253 201 179 
-15 -75 403 254 202 180 
-14 -75 402 255 207 183 
-14 -75 402 255 207 183 
-13 -75 402 255 209 183 
-12 -75 402 255 209 183 
-12 -75 402 255 209 183 
-11 -75 402 255 209 183 
-10 -75 402 255 208 182 
-10 -75 402 251 204 178 
-9 -75 402 251 199 175 
-8 -75 403 240 188 164 
-8 -75 404 230 188 176 
-7 -75 404 226 184 172 
-19 -75 404 218 164 138 
-18 -74 403 225 173 149 
-18 -74 403 237 185 161 
-17 -74 403 242 190 168 
-16 -74 402 247 195 173 
-16 -74 402 255 205 184 
-15 -74 402 255 207 186 
-14 -74 402 254 206 183 
-14 -74 401 255 207 184 
-13 -74 401 255 209 185 
-12 -74 401 254 208 184 
-12 -74 401 255 209 186 
-11 -74 401 255 209 186 
-10 -74 401 253 208 189 
-10 -74 401 251 206 187 
-9 -74 402 245 200 181 
-8 -74 402 246 201 182 
-8 -74 403 238 190 176 
-7 -75 404 242 194 180 
-20 -74 406 206 154 133 
-20 -74 405 213 162 135 
-19 -74 404 218 167 140 
-18 -74 403 228 177 150 
-18 -74 402 238 187 160 
-17 -74 402 244 192 168 
-16 -74 402 250 198 174 
-16 -74 402 255 207 184 
-15 -73 401 255 209 186 
-14 -74 402 253 205 182 
-14 -73 401 255 207 184 
-13 -73 401 255 209 185 
-12 -73 401 253 207 183 
-12 -73 401 253 207 184 
-11 -73 401 254 208 185 
-10 -73 401 254 207 187 
-10 -73 401 254 207 187 
-9 -73 401 248 203 184 
-8 -74 402 249 204 185 
-8 -74 402 244 196 182 
-7 -74 403 246 198 184 
-21 -74 407 187 136 115 
-20 -74 406 203 152 131 
-20 -74 405 210 159 132 
-19 -73 404 216 165 138 
-18 -73 402 228 177 150 
-18 -73 402 238 187 160 
-17 -73 402 245 194 167 
-16 -73 402 251 200 173 
-16 -73 401 255 205 182 
-15 -73 401 255 208 185 
-14 -73 401 253 205 183 
-14 -73 401 254 206 184 
-13 -73 401 254 206 184 
-12 -73 401 251 203 181 
-12 -73 401 250 203 183 
-11 -73 401 253 206 186 
-10 -73 401 254 207 187 
-10 -73 401 253 206 186 
-9 -73 402 251 204 186 
-8 -73 402 250 203 185 
-8 -73 402 247 201 185 
-7 -73 403 247 201 185 
-21 -73 407 187 137 114 
-20 -73 406 205 155 132 
-20 -73 405 212 158 132 
-19 -73 403 218 164 138 
-18 -72 402 231 177 151 
-18 -72 402 239 185 159 
-17 -72 401 242 191 164 
-16 -72 401 247 196 169 
-16 -72 401 249 197 173 
-15 -72 401 253 201 177 
-14 -72 401 254 203 182 
-14 -72 401 254 203 182 
-13 -72 401 253 202 183 
-12 -72 401 251 200 181 
-12 -72 401 250 202 182 
-11 -72 401 254 206 186 
-10 -72 401 254 206 186 
-10 -72 401 252 204 184 
-9 -72 402 249 201 181 
-8 -72 402 246 198 178 
-8 -72 402 246 199 183 
-7 -72 402 243 196 180 
-21 -72 406 192 142 119 
-20 -72 405 206 156 133 
-20 -72 404 213 157 130 
-19 -72 403 218 162 135 
-18 -72 402 228 172 145 
-18 -72 402 234 178 151 
-17 -72 401 240 186 158 
-16 -72 401 246 192 164 
-16 -72 401 249 195 169 
-15 -72 401 253 199 173 
-14 -72 401 251 199 177 
-14 -72 401 252 200 178 
-13 -72 401 253 201 180 
-12 -71 400 252 200 179 
-12 -72 401 253 201 180 
-11 -72 401 255 205 184 
-10 -72 401 255 205 184 
-10 -72 401 253 202 181 
-9 -72 401 250 199 180 
-8 -72 402 244 193 174 
-8 -72 402 244 193 176 
-7 -72 402 240 189 172 
-21 -72 406 191 141 118 
-20 -72 405 199 149 126 
-20 -71 404 206 149 119 
-19 -71 403 211 154 124 
-18 -71 402 219 162 132 
-18 -71 402 227 170 140 
-17 -71 401 236 181 151 
-16 -71 401 244 189 159 
-16 -71 401 248 193 163 
-15 -71 401 252 197 167 
-14 -71 401 247 193 167 
-14 -71 400 251 197 171 
-13 -71 400 252 200 176 
-12 -71 400 252 200 176 
-12 -71 400 253 201 177 
-11 -71 400 255 203 179 
-10 -71 401 255 204 180 
-10 -71 401 255 203 179 
-9 -71 401 249 198 179 
-8 -71 401 243 192 173 
-8 -71 401 242 189 171 
-7 -71 402 237 184 166 
-21 -71 405 189 134 113 
-20 -71 405 197 142 121 
-20 -71 404 200 143 113 
-19 -71 403 205 148 118 
-18 -70 402 210 153 124 
-17 -70 401 218 161 132 
-17 -70 401 230 173 146 
-16 -70 401 238 181 154 
-16 -70 401 242 186 159 
-15 -70 401 245 189 162 
-14 -70 401 243 189 161 
-14 -70 400 247 193 165 
-13 -70 400 251 197 171 
-12 -70 400 253 199 173 
-12 -70 400 251 199 175 
-11 -70 400 253 201 177 
-10 -70 400 253 201 177 
-10 -70 401 251 199 175 
-9 -70 401 248 195 179 
-8 -70 401 244 191 175 
-8 -70 401 239 188 169 
-7 -70 401 233 182 163 
-21 -70 404 179 122 102 
-20 -70 404 190 133 113 
-20 -70 404 197 137 109 
-19 -70 403 203 143 115 
-18 -70 402 205 147 123 
-18 -70 402 214 156 132 
-17 -70 401 226 168 146 
-16 -70 401 235 177 155 
-15 -69 400 241 185 160 
-15 -69 400 244 188 163 
-14 -69 400 242 188 162 
-14 -69 400 245 191 165 
-13 -69 400 246 194 170 
-12 -69 400 248 196 172 
-12 -69 400 250 198 176 
-11 -69 400 251 199 177 
-10 -69 400 248 198 175 
-10 -70 401 245 195 172 
-9 -70 401 245 189 174 
-8 -70 401 245 189 174 
-8 -70 401 237 186 169 
-7 -70 401 231 180 163 
-21 -69 404 167 119 99 
-20 -69 404 178 130 110 
-20 -69 404 193 132 104 
-19 -69 403 201 140 112 
-18 -69 402 207 147 119 
-18 -69 402 214 154 126 
-17 -69 401 222 165 136 
-16 -69 401 229 172 143 
-15 -69 400 235 179 154 
-15 -69 400 239 183 158 
-14 -69 399 241 189 167 
-14 -69 399 244 192 170 
-13 -69 399 245 194 175 
-12 -69 399 245 194 175 
-12 -69 399 244 195 178 
-11 -69 399 246 197 180 
-10 -69 400 249 200 183 
-10 -69 400 241 192 175 
-9 -69 400 235 188 168 
-8 -69 401 235 188 168 
-8 -69 400 233 185 175 
-7 -69 400 227 179 169 
-21 -69 404 166 122 109 
-20 -69 403 168 124 111 
-20 -69 403 188 127 99 
-19 -69 403 194 133 105 
-18 -68 402 203 143 117 
-18 -68 402 215 155 129 
-17 -68 401 221 163 139 
-16 -68 401 225 167 143 
-15 -68 400 233 177 154 
-15 -68 400 242 186 163 
-14 -68 399 241 189 168 
-14 -68 399 244 192 171 
-10 -68 400 242 195 179 
-21 -68 404 175 137 134 
-20 -68 403 150 112 109 
-20 -68 403 180 120 94 
-19 -68 402 189 129 103 
-18 -68 402 202 142 118 
-18 -68 402 215 155 131 
-17 -68 401 220 162 140 
-20 -67 403 143 117 118 
-20 -67 403 171 114 87 
-19 -67 402 187 130 103 
-20 -67 403 162 142 143 
