ply
format ascii 1.0
comment Created by CloudCompare v2.10.1 (Zephyrus)
comment Created 2020-05-17 12:57 AM
obj_info Generated by CloudCompare!
element vertex 156
property float x
property float y
property float z
property uchar red
property uchar green
property uchar blue
end_header
-6 107 405 152 151 156 
-6 107 402 69 69 71 
-6 107 402 67 67 69 
-5 107 402 128 126 127 
-6 108 404 164 164 166 
-6 108 402 66 66 68 
-5 108 402 125 123 126 
-6 109 403 167 168 173 
-6 109 402 67 68 73 
-5 109 402 117 113 114 
-6 109 402 172 173 178 
-6 109 401 69 70 75 
-5 109 400 116 112 113 
-6 110 401 178 179 184 
-6 109 400 71 72 77 
-5 109 400 116 112 113 
-3 109 398 100 85 90 
-2 109 398 145 86 54 
-2 109 398 156 97 65 
-1 109 398 159 105 69 
0 109 399 166 110 75 
5 110 401 113 66 36 
-6 110 401 179 182 189 
-6 110 400 69 72 79 
-5 110 400 116 112 113 
-4 109 398 161 157 158 
-4 109 397 129 118 124 
-3 109 398 113 102 108 
-2 109 398 168 113 83 
-2 109 398 177 122 92 
-1 109 397 184 134 101 
-1 109 397 188 138 105 
0 109 398 192 139 105 
3 110 399 208 154 118 
3 110 399 207 153 117 
4 110 399 200 147 113 
5 110 400 189 136 102 
5 110 401 124 77 47 
-6 111 403 180 184 193 
-6 111 402 68 72 81 
-5 111 401 113 111 112 
-4 110 399 158 156 157 
-4 110 398 133 123 131 
-3 110 398 117 107 115 
-2 110 398 190 139 112 
-2 110 398 200 149 122 
-1 110 397 203 158 127 
-1 110 397 211 166 135 
0 110 398 212 163 131 
1 110 398 222 173 141 
1 110 398 223 173 140 
2 110 398 228 178 145 
3 110 399 223 169 135 
3 110 399 218 164 130 
4 110 399 212 158 124 
5 111 400 199 145 111 
5 111 401 133 84 52 
-6 112 403 179 186 196 
-6 112 403 66 73 83 
-5 112 403 110 110 112 
-4 111 401 157 157 159 
-4 111 399 134 127 135 
-3 111 399 118 111 119 
-2 111 399 197 149 126 
-2 110 397 185 137 114 
-1 110 397 175 134 106 
-1 111 398 194 153 125 
0 111 399 209 164 133 
1 111 399 212 167 136 
1 111 398 221 172 140 
2 111 398 228 179 147 
3 111 399 222 168 132 
3 111 399 216 162 126 
4 111 400 214 160 124 
5 111 400 201 147 111 
5 111 401 144 93 62 
-5 113 403 107 107 109 
-4 112 401 156 156 158 
-4 112 399 139 132 140 
-3 112 399 121 114 122 
-2 112 399 181 135 112 
-2 111 398 157 111 88 
-1 111 397 169 129 103 
-1 111 398 215 175 149 
0 112 399 242 198 169 
1 112 399 236 192 163 
1 111 398 217 168 135 
2 112 399 222 173 140 
3 112 399 220 168 131 
3 112 399 213 161 124 
4 112 399 209 156 122 
-5 113 403 105 105 107 
-4 113 401 155 155 157 
-4 112 399 142 135 143 
-3 112 399 115 108 116 
-2 112 399 158 113 90 
-2 112 398 136 91 68 
-1 112 398 155 118 91 
-1 112 398 178 141 114 
0 112 399 210 166 137 
1 112 399 229 185 156 
1 112 399 213 163 126 
2 112 399 215 165 128 
3 112 399 218 166 127 
3 112 400 209 157 118 
4 112 400 200 151 118 
-4 114 402 159 154 158 
-4 113 400 145 139 143 
-3 113 399 109 103 107 
-2 113 399 134 98 74 
-2 113 398 114 78 54 
-1 113 398 149 107 85 
-1 113 398 189 147 125 
0 113 399 169 133 101 
1 113 399 167 131 99 
1 113 399 187 144 112 
2 113 399 201 158 126 
3 113 399 216 167 126 
3 113 400 206 157 116 
4 113 400 198 145 103 
-4 114 402 157 153 154 
-4 114 400 146 137 142 
-3 114 400 108 99 104 
-2 114 400 142 105 79 
-2 113 399 105 68 42 
-1 113 398 141 99 75 
-1 113 399 188 146 122 
0 113 399 171 132 101 
1 113 399 136 97 66 
1 113 399 158 113 82 
2 113 399 200 155 124 
3 113 399 211 162 122 
3 114 400 200 151 111 
-4 114 399 144 135 138 
-3 114 399 107 98 101 
-2 114 400 156 114 89 
-2 114 400 127 85 60 
-1 114 398 120 76 51 
-1 114 399 154 110 85 
0 114 400 144 101 69 
1 114 400 126 83 51 
1 114 399 155 109 76 
2 114 399 200 154 121 
3 114 399 209 157 120 
3 114 399 200 148 111 
-3 115 399 107 98 101 
-1 114 398 125 81 54 
-1 114 398 133 89 62 
1 114 398 177 128 96 
2 114 398 202 153 121 
3 114 398 203 150 118 
-3 115 398 99 93 95 
-2 115 398 156 110 84 
-1 115 397 160 116 89 
-1 115 397 161 117 88 
-1 115 397 167 123 94 
