ply
format ascii 1.0
comment Created by CloudCompare v2.10.1 (Zephyrus)
comment Created 2020-05-17 12:57 AM
obj_info Generated by CloudCompare!
element vertex 1949
property float x
property float y
property float z
property uchar red
property uchar green
property uchar blue
end_header
10 54 389 170 119 90 
10 54 389 133 115 115 
9 55 391 187 130 100 
10 55 392 173 116 86 
10 55 393 141 112 108 
7 55 391 191 131 105 
8 55 392 197 134 103 
8 55 393 197 134 103 
10 56 394 176 120 93 
10 56 396 156 110 97 
6 56 390 188 129 95 
7 56 392 188 127 99 
7 56 393 192 131 103 
8 56 394 197 132 100 
9 56 395 196 131 99 
9 56 395 188 131 101 
10 56 396 180 123 93 
10 57 397 159 112 96 
4 56 387 184 120 84 
5 56 389 192 128 92 
5 56 391 191 131 95 
6 57 392 189 129 93 
7 57 393 192 128 100 
7 57 395 194 130 102 
8 57 395 198 132 98 
9 57 396 197 131 97 
9 57 396 192 132 98 
10 57 397 185 125 91 
4 57 389 190 127 92 
5 57 391 192 129 94 
5 57 392 189 129 93 
6 57 394 188 128 92 
7 58 395 193 130 99 
7 58 395 196 133 102 
8 58 396 200 134 99 
9 58 396 199 133 98 
9 58 397 194 134 98 
10 58 397 187 127 91 
3 57 387 177 114 83 
3 57 389 189 126 95 
4 58 390 192 129 94 
5 58 392 191 128 93 
5 58 393 191 131 95 
6 58 394 191 131 95 
7 58 395 195 132 99 
7 58 396 198 135 102 
8 58 396 201 136 98 
9 59 397 199 134 96 
9 59 397 195 135 98 
10 59 398 188 128 91 
2 58 387 174 111 76 
3 58 389 184 119 89 
3 58 391 192 127 97 
4 58 392 190 127 92 
5 59 393 190 127 92 
5 59 394 191 131 94 
6 59 395 190 130 93 
7 59 396 196 132 97 
7 59 396 199 135 100 
8 59 396 201 136 96 
9 59 397 199 134 94 
9 59 398 197 138 98 
10 60 399 191 132 92 
2 59 390 182 116 81 
3 59 391 189 123 91 
3 59 393 193 127 95 
4 59 393 191 125 90 
5 59 394 193 127 92 
5 60 395 193 129 91 
6 60 396 192 128 90 
7 60 396 197 131 97 
7 60 397 199 133 99 
8 60 397 200 135 95 
9 60 398 200 135 95 
9 60 398 198 139 99 
10 60 399 191 132 92 
1 59 388 173 110 75 
1 59 390 186 118 83 
2 60 391 190 122 87 
3 60 392 193 122 90 
3 60 393 195 124 92 
4 60 394 195 127 92 
5 60 395 194 126 91 
5 60 395 192 128 90 
6 60 396 195 131 93 
7 60 396 198 132 97 
7 60 397 199 133 98 
8 60 397 203 136 94 
9 61 398 202 135 93 
9 61 399 196 137 95 
10 61 399 191 132 90 
1 60 390 180 115 83 
1 60 391 184 120 84 
2 60 392 187 123 87 
3 61 393 194 126 89 
3 61 394 195 127 90 
4 61 395 195 127 90 
5 61 395 196 128 91 
5 61 396 192 130 93 
6 61 396 191 129 92 
7 61 397 198 133 95 
7 61 397 201 136 98 
8 61 398 205 136 95 
9 61 398 200 131 90 
9 61 399 195 131 95 
10 62 400 190 126 90 
0 61 389 171 108 73 
0 61 390 179 114 82 
1 61 391 185 120 88 
1 61 392 188 124 88 
2 61 393 189 125 89 
3 61 394 194 126 89 
3 61 395 195 127 90 
4 61 395 192 127 89 
5 61 395 193 128 90 
5 62 396 193 131 94 
6 62 396 192 130 93 
7 62 396 196 133 92 
7 62 397 199 136 95 
8 62 398 203 134 93 
9 62 399 200 131 90 
9 62 399 193 131 92 
10 62 400 187 125 86 
-1 61 389 168 103 71 
-1 61 391 174 109 77 
0 62 392 181 118 85 
1 62 393 184 121 88 
1 62 393 188 126 89 
2 62 394 189 127 90 
3 62 395 193 128 90 
3 62 395 194 129 91 
4 62 395 193 128 90 
5 62 395 193 128 90 
5 62 396 193 131 94 
6 62 396 193 131 94 
7 62 396 201 138 97 
7 62 397 202 139 98 
8 63 398 202 135 92 
9 63 399 201 134 91 
9 63 399 194 132 93 
10 63 399 185 123 84 
-2 62 388 162 103 71 
-2 62 390 165 106 74 
-1 62 391 174 107 78 
-1 62 392 179 112 83 
0 62 393 180 120 86 
1 63 394 182 122 88 
1 63 394 187 124 89 
2 63 394 188 125 90 
3 63 395 193 128 90 
3 63 395 194 129 91 
4 63 395 194 129 91 
5 63 396 193 128 90 
5 63 396 193 131 94 
6 63 397 195 133 96 
7 63 397 200 135 95 
7 63 397 200 135 95 
8 63 398 201 132 90 
9 63 399 203 134 92 
9 63 399 197 133 95 
10 64 400 186 122 84 
-3 62 388 156 103 71 
-2 63 390 162 106 73 
-2 63 392 166 110 77 
-1 63 393 176 111 81 
-1 63 394 181 116 86 
0 63 394 181 122 88 
1 63 394 184 125 91 
1 63 394 189 125 90 
2 63 395 190 126 91 
3 63 395 193 127 92 
3 63 395 194 128 93 
4 64 396 193 127 92 
5 64 396 193 127 92 
5 64 397 194 130 95 
6 64 397 198 134 99 
7 64 397 198 133 95 
7 64 397 198 133 95 
8 64 398 200 131 90 
9 64 398 203 134 93 
9 64 399 195 131 95 
10 64 400 184 120 84 
-4 63 387 145 89 64 
-4 63 389 149 94 64 
-3 63 390 157 102 72 
-2 64 392 166 107 75 
-2 64 393 170 111 79 
-1 64 394 176 113 80 
-1 64 394 180 117 84 
0 64 394 184 125 91 
1 64 394 190 131 97 
1 64 394 191 127 92 
2 64 395 193 129 94 
3 64 395 195 129 94 
3 64 395 195 129 94 
4 64 396 194 128 93 
5 64 396 194 128 93 
5 64 397 194 130 95 
6 64 397 197 133 98 
7 64 397 200 135 97 
7 64 397 200 135 97 
8 65 398 204 135 94 
9 65 398 202 133 92 
9 65 399 191 127 91 
10 65 400 181 117 81 
-5 63 387 134 93 75 
-4 64 389 132 91 73 
-4 64 390 148 94 68 
-3 64 392 156 102 76 
-2 64 393 170 110 76 
-2 65 394 173 113 79 
-1 65 394 173 117 82 
-1 65 394 178 122 87 
0 65 394 184 127 97 
1 65 394 190 133 103 
1 65 394 195 129 95 
2 65 395 196 130 96 
3 65 395 196 131 93 
3 65 395 195 130 92 
4 65 396 195 129 94 
5 65 396 195 129 94 
5 65 396 195 131 96 
6 65 397 196 132 97 
7 65 397 199 134 96 
7 65 397 199 134 96 
8 65 398 203 136 94 
9 65 398 200 133 91 
9 65 399 189 127 90 
10 65 400 181 119 82 
-6 64 386 200 170 162 
-6 64 388 228 198 190 
-5 64 389 128 100 89 
-4 65 391 119 91 80 
-4 65 392 147 97 74 
-3 65 392 155 105 82 
-2 65 394 171 112 78 
-2 65 394 175 116 82 
-1 65 394 174 122 85 
-1 65 395 178 126 89 
0 65 395 183 130 99 
1 65 395 187 134 103 
1 65 395 198 132 97 
2 65 395 198 132 97 
3 65 395 196 131 93 
3 65 396 194 129 91 
4 65 396 194 129 91 
5 66 397 195 130 92 
5 66 397 196 132 96 
6 66 397 197 133 97 
7 66 397 197 132 94 
7 66 397 197 132 94 
8 66 398 202 135 93 
9 66 398 199 132 90 
9 66 399 186 126 89 
-7 65 388 121 80 76 
-7 65 388 111 70 66 
-6 65 388 210 189 188 
-6 65 389 230 209 208 
-5 65 391 138 115 107 
-4 65 391 121 98 90 
-4 65 392 155 94 63 
-3 66 393 165 104 73 
-2 66 394 175 112 81 
-2 66 395 182 119 88 
-1 66 395 180 121 89 
-1 66 395 189 130 98 
0 66 395 198 134 99 
1 66 395 200 136 101 
1 66 395 201 137 99 
2 66 395 200 136 98 
3 66 396 200 131 90 
3 66 396 197 128 87 
4 66 396 195 132 99 
5 66 397 195 132 99 
5 66 397 196 131 93 
6 66 397 195 130 92 
7 66 397 197 132 90 
7 66 397 197 132 90 
8 66 397 195 137 100 
9 66 398 191 133 96 
9 67 399 184 124 88 
-9 66 389 127 71 54 
-8 66 390 127 71 54 
-8 66 391 114 76 73 
-7 66 391 109 71 68 
-6 66 390 209 191 191 
-6 66 391 234 216 216 
-5 66 392 142 122 115 
-4 66 392 118 98 91 
-4 66 393 157 98 68 
-3 66 394 166 107 77 
-2 66 394 176 113 82 
-2 67 395 182 119 88 
-1 67 395 179 123 90 
-1 67 395 188 132 99 
0 67 395 198 135 100 
1 67 395 200 137 102 
1 67 395 200 138 99 
2 67 395 200 138 99 
3 67 396 204 135 96 
3 67 396 202 133 94 
4 67 396 197 132 100 
5 67 396 196 131 99 
5 67 397 197 132 94 
6 67 397 197 132 94 
7 67 397 199 134 94 
7 67 398 197 132 92 
8 67 398 196 138 101 
9 67 399 194 136 99 
9 67 399 183 123 87 
-9 66 390 106 65 59 
-9 67 392 114 62 48 
-8 67 393 116 64 50 
-8 67 394 109 75 73 
-7 67 394 108 74 72 
-6 67 392 209 195 195 
-6 67 392 239 225 225 
-5 67 393 148 131 124 
-4 67 393 114 97 90 
-4 67 393 156 97 67 
-3 67 394 164 105 75 
-2 67 395 174 111 80 
-2 67 395 182 119 88 
-1 67 395 178 122 87 
-1 67 395 186 130 95 
0 67 395 193 133 97 
1 67 395 196 136 100 
1 67 395 197 137 100 
2 67 395 198 138 101 
3 67 396 206 138 99 
3 67 396 206 138 99 
4 67 396 201 136 104 
5 67 396 199 134 102 
5 68 397 202 134 97 
6 68 397 203 135 98 
7 68 397 206 141 101 
7 68 397 203 138 98 
8 68 398 203 143 107 
9 68 399 198 138 102 
9 68 399 188 125 90 
-10 67 391 114 102 116 
-8 68 396 112 64 50 
-8 68 396 106 75 73 
-7 68 396 110 79 77 
-6 68 394 207 197 196 
-6 68 393 239 229 228 
-5 68 393 148 135 127 
-4 68 393 109 96 88 
-4 68 393 150 93 63 
-3 68 394 159 102 72 
-2 68 395 172 109 76 
-2 68 396 180 117 84 
-1 68 395 178 120 83 
-1 68 395 184 126 89 
0 68 396 190 130 93 
1 68 396 194 134 97 
1 68 396 195 135 98 
2 68 396 196 136 99 
3 68 396 203 138 100 
3 68 396 205 140 102 
4 68 396 204 140 105 
5 68 396 203 139 104 
5 68 397 207 138 99 
6 68 397 207 138 99 
7 68 397 208 144 106 
7 68 398 206 142 104 
8 68 398 205 145 108 
9 69 399 193 133 96 
9 69 400 186 122 86 
-9 69 397 108 62 49 
-8 69 398 110 64 51 
-8 69 398 106 76 74 
-7 69 397 110 80 78 
-6 69 395 207 197 196 
-6 68 394 237 227 226 
-5 68 394 151 138 130 
-4 69 395 107 94 86 
-4 69 395 153 96 66 
-3 69 395 161 104 74 
-2 69 395 174 110 75 
-2 69 396 180 116 81 
-1 69 396 179 120 80 
-1 69 396 186 127 87 
0 69 396 192 130 91 
1 69 396 196 134 95 
1 69 396 198 136 97 
2 69 396 198 136 97 
3 69 396 201 136 98 
3 69 396 203 138 100 
4 69 396 205 139 104 
5 69 397 205 139 104 
5 69 397 208 139 98 
6 69 397 208 139 98 
7 69 398 207 143 105 
7 69 398 205 141 103 
8 69 399 204 142 103 
9 69 399 192 130 91 
9 69 400 184 120 84 
-9 70 399 105 61 50 
-8 70 398 106 62 51 
-8 70 399 105 75 73 
-7 70 398 108 78 76 
-6 69 396 205 195 194 
-6 69 395 235 225 224 
-5 69 395 155 142 136 
-4 69 395 106 93 87 
-4 69 395 155 98 68 
-3 69 395 162 105 75 
-2 69 396 175 111 75 
-2 69 396 181 117 81 
-1 69 396 183 121 80 
-1 69 396 189 127 86 
0 69 396 193 129 91 
1 69 396 196 132 94 
1 69 396 200 137 96 
2 69 396 200 137 96 
3 69 396 201 136 98 
3 69 396 202 137 99 
4 69 396 204 138 103 
5 69 397 204 138 103 
5 69 397 207 138 97 
6 70 398 207 138 97 
7 69 397 209 145 107 
7 70 398 204 140 102 
8 70 399 203 140 99 
9 70 399 196 133 92 
9 70 400 186 122 84 
-9 71 400 103 60 51 
-8 70 399 103 60 51 
-8 70 399 106 76 76 
-7 70 399 105 75 75 
-6 70 397 204 192 194 
-6 70 395 237 225 227 
-5 70 396 163 148 143 
-4 70 396 107 92 87 
-4 70 395 153 96 66 
-3 70 395 162 105 75 
-2 70 396 175 111 75 
-2 70 397 181 117 81 
-1 70 396 183 121 80 
-1 70 396 190 128 87 
0 70 396 194 129 91 
1 70 396 197 132 94 
1 70 396 204 137 95 
2 70 396 203 136 94 
3 70 396 202 137 99 
3 70 396 202 137 99 
4 70 396 202 136 101 
5 70 397 203 137 102 
5 70 397 209 137 97 
6 70 398 209 137 97 
7 70 398 209 147 108 
7 70 398 205 143 104 
8 70 399 203 138 96 
9 71 400 196 131 89 
9 71 400 181 119 82 
-10 72 402 70 81 103 
-9 71 401 103 60 51 
-8 71 400 103 60 51 
-8 71 400 108 78 78 
-7 71 400 103 73 73 
-6 71 398 203 191 193 
-6 71 396 238 226 228 
-5 71 396 169 154 151 
-4 71 396 106 91 88 
-4 70 395 153 96 67 
-3 70 395 163 106 77 
-2 71 396 176 112 76 
-2 71 397 182 118 82 
-1 71 397 183 121 82 
-1 71 396 190 128 89 
0 71 396 196 131 93 
1 71 396 201 136 98 
1 71 397 205 136 94 
2 71 397 204 135 93 
3 71 397 202 136 101 
3 71 397 202 136 101 
4 71 397 201 135 101 
5 71 397 204 138 104 
5 71 397 211 139 99 
6 71 397 210 138 98 
7 71 398 206 144 107 
7 71 398 206 144 107 
8 71 399 204 139 97 
9 71 399 195 130 88 
9 71 400 181 119 82 
-10 72 402 72 83 105 
-9 72 402 99 65 55 
-8 72 401 100 66 56 
-8 72 400 111 73 70 
-7 72 400 108 70 67 
-6 72 399 209 193 194 
-6 71 396 243 227 228 
-5 71 396 172 150 153 
-4 71 396 113 91 94 
-4 71 395 160 95 67 
-3 71 395 169 104 76 
-2 71 396 177 115 76 
-2 71 397 181 119 80 
-1 71 397 187 123 85 
-1 71 397 190 126 88 
0 71 397 198 129 90 
1 71 397 203 134 95 
1 71 397 204 136 97 
2 71 397 204 136 97 
3 71 397 206 139 97 
3 71 397 206 139 97 
4 71 397 205 137 92 
5 71 397 205 137 92 
5 71 397 202 137 97 
6 71 397 204 139 99 
7 72 398 209 141 102 
7 72 398 207 139 100 
8 72 399 202 137 97 
9 72 399 195 130 90 
9 72 401 176 120 87 
-9 73 403 99 65 53 
-8 73 402 99 65 53 
-8 73 401 107 69 66 
-7 73 400 106 68 65 
-6 73 400 202 187 190 
-6 72 397 241 226 229 
-5 72 396 174 154 155 
-4 72 396 113 93 94 
-4 72 396 160 95 65 
-3 72 396 168 103 73 
-2 72 396 175 113 74 
-2 72 397 181 119 80 
-1 72 396 186 124 85 
-1 72 396 190 128 89 
0 72 396 199 131 92 
1 72 396 203 135 96 
1 72 397 203 138 98 
2 72 397 202 137 97 
3 72 397 204 139 99 
3 72 397 202 137 97 
4 72 397 204 135 93 
5 72 397 204 135 93 
5 72 397 201 137 99 
6 72 397 201 137 99 
7 72 398 206 139 97 
7 72 399 205 138 96 
8 72 399 201 136 96 
9 73 400 195 130 90 
9 73 401 174 118 85 
-9 74 404 98 64 54 
-8 74 403 97 63 53 
-8 74 402 104 66 65 
-7 73 401 105 67 66 
-6 73 400 196 181 184 
-6 73 397 240 225 228 
-5 73 396 178 160 156 
-4 73 396 112 94 90 
-4 73 396 161 96 64 
-3 72 395 168 103 71 
-2 73 396 175 113 74 
-2 73 397 181 119 80 
-1 73 397 186 124 87 
-1 73 396 190 128 91 
0 73 396 197 132 90 
1 73 397 201 136 94 
1 73 397 203 138 96 
2 73 397 201 136 94 
3 73 397 204 141 100 
3 73 397 200 137 96 
4 73 397 203 136 94 
5 73 397 201 134 92 
5 73 397 201 137 99 
6 73 398 199 135 97 
7 73 398 201 136 94 
7 73 399 200 135 93 
8 73 399 200 137 96 
9 73 400 195 132 91 
9 73 401 172 118 84 
-9 75 404 98 61 53 
-8 74 403 99 62 54 
-8 74 403 102 63 64 
-7 74 402 105 66 67 
-6 74 400 192 177 180 
-6 73 397 239 224 227 
-5 73 396 183 166 159 
-4 73 396 113 96 89 
-4 73 395 159 96 61 
-3 73 395 167 104 69 
-2 73 396 176 112 74 
-2 73 397 182 118 80 
-1 73 397 186 124 87 
-1 73 397 189 127 90 
0 73 397 194 131 87 
1 73 397 198 135 91 
1 73 397 201 138 95 
2 73 397 200 137 94 
3 73 397 206 143 102 
3 73 397 199 136 95 
4 73 397 202 137 95 
5 74 398 198 133 91 
5 74 398 199 137 98 
6 74 398 198 136 97 
7 74 398 202 137 95 
7 74 399 200 135 93 
8 74 399 199 136 95 
9 74 400 196 133 92 
9 74 401 173 119 85 
-9 75 405 95 59 59 
-8 75 404 98 62 62 
-8 75 403 103 62 66 
-7 75 402 105 64 68 
-6 75 401 188 174 174 
-6 74 397 239 225 225 
-5 74 397 187 170 162 
-4 74 396 115 98 90 
-4 74 395 159 96 61 
-3 74 395 168 105 70 
-2 74 396 177 113 75 
-2 74 397 183 119 81 
-1 74 397 189 125 89 
-1 74 397 190 126 90 
0 74 397 192 129 85 
1 74 397 197 134 90 
1 74 397 201 138 95 
2 74 397 200 137 94 
3 74 397 203 141 102 
3 74 397 197 135 96 
4 74 398 203 138 98 
5 74 398 198 133 93 
5 74 398 200 136 98 
6 74 399 199 135 97 
7 74 399 206 141 99 
7 74 399 201 136 94 
8 75 400 198 135 94 
9 75 400 193 130 89 
9 75 401 171 116 85 
-9 76 405 95 60 67 
-8 76 404 97 62 69 
-8 76 403 105 64 70 
-7 76 402 103 62 68 
-6 75 401 185 170 167 
-6 75 398 238 223 220 
-5 75 397 190 175 168 
-4 74 396 114 99 92 
-4 74 396 158 95 62 
-3 74 395 169 106 73 
-2 74 396 178 114 76 
-2 75 397 184 120 82 
-1 75 397 191 127 89 
-1 75 397 191 127 89 
0 75 397 192 129 86 
1 75 397 198 135 92 
1 75 397 202 137 95 
2 75 397 202 137 95 
3 75 397 202 140 101 
3 75 397 197 135 96 
4 75 398 203 138 96 
5 75 398 200 135 93 
5 75 398 198 136 97 
6 75 399 199 137 98 
7 75 399 207 142 100 
7 75 399 202 137 95 
8 75 400 198 134 96 
9 75 400 192 128 90 
9 75 401 167 114 82 
-9 77 405 97 63 80 
-8 77 404 94 60 77 
-8 76 403 106 65 73 
-7 76 402 100 59 67 
-6 76 401 180 165 160 
-6 75 398 236 221 216 
-5 75 398 195 180 175 
-4 75 397 114 99 94 
-4 75 396 158 97 68 
-3 75 396 167 106 77 
-2 75 396 179 115 77 
-2 75 397 186 122 84 
-1 75 397 193 128 88 
-1 75 397 194 129 89 
0 75 397 194 131 88 
1 75 397 200 137 94 
1 75 397 204 139 99 
2 75 397 203 138 98 
3 75 398 202 140 101 
3 75 398 200 138 99 
4 75 398 203 138 96 
5 75 398 201 136 94 
5 75 398 198 136 97 
6 76 399 200 138 99 
7 76 399 207 142 100 
7 76 399 201 136 94 
8 76 400 198 136 97 
9 76 401 190 128 89 
9 76 401 163 113 80 
-9 77 405 100 66 90 
-8 77 404 92 58 82 
-8 77 403 105 65 73 
-7 77 402 95 55 63 
-6 77 402 176 161 156 
-6 76 399 234 219 214 
-5 76 398 198 183 180 
-4 76 397 115 100 97 
-4 76 396 158 98 72 
-3 76 396 167 107 81 
-2 76 396 180 116 78 
-2 76 397 187 123 85 
-1 76 397 193 130 89 
-1 76 397 194 131 90 
0 76 397 195 132 91 
1 76 397 201 138 97 
1 76 397 204 141 100 
2 76 397 204 141 100 
3 76 398 203 141 102 
3 76 398 203 141 102 
4 76 398 201 138 95 
5 76 398 200 137 94 
5 76 398 198 136 95 
6 76 399 202 140 99 
7 76 399 207 144 103 
7 76 399 200 137 96 
8 76 400 195 135 98 
9 77 401 187 127 90 
9 77 401 161 111 78 
-8 78 404 81 62 81 
-8 78 403 103 64 65 
-7 78 402 95 56 57 
-6 78 402 175 145 153 
-6 77 399 240 210 218 
-5 77 398 204 182 185 
-4 77 397 115 93 96 
-4 76 396 170 96 69 
-3 76 396 177 103 76 
-2 76 396 178 116 79 
-2 77 397 185 123 86 
-1 77 397 189 130 88 
-1 77 397 192 133 91 
0 77 397 194 135 93 
1 77 397 199 140 98 
1 77 397 205 140 100 
2 77 398 204 139 99 
3 77 398 206 137 98 
3 77 398 205 136 97 
4 77 398 206 138 99 
5 77 398 204 136 97 
5 77 398 192 137 96 
6 77 399 199 144 103 
7 77 399 205 147 101 
7 77 399 199 141 95 
8 77 400 192 138 104 
9 77 401 180 126 92 
9 77 401 161 107 81 
-8 79 405 76 65 81 
-8 79 404 101 67 66 
-7 78 403 91 57 56 
-6 78 402 168 141 148 
-6 78 399 236 209 216 
-5 77 398 203 184 186 
-4 77 397 113 94 96 
-4 77 396 166 97 68 
-3 77 396 175 106 77 
-2 77 396 180 117 82 
-2 77 397 186 123 88 
-1 77 397 189 130 90 
-1 77 397 190 131 91 
0 77 397 194 135 93 
1 77 397 200 141 99 
1 77 397 205 142 101 
2 77 398 203 140 99 
3 77 398 205 137 98 
3 77 398 203 135 96 
4 77 398 203 138 96 
5 77 398 202 137 95 
5 78 399 193 138 97 
6 78 399 199 144 103 
7 78 399 207 148 104 
7 78 400 202 143 99 
8 78 400 193 138 107 
9 78 401 179 124 93 
9 78 401 155 105 82 
-8 79 405 69 67 80 
-8 79 404 100 68 69 
-7 79 403 88 56 57 
-6 79 403 162 135 142 
-6 78 399 234 207 214 
-5 78 398 204 190 190 
-4 78 398 111 97 97 
-4 78 397 165 100 72 
-3 78 396 174 109 81 
-2 78 396 182 119 84 
-2 78 397 188 125 90 
-1 78 397 193 131 92 
-1 78 397 194 132 93 
0 78 397 194 136 96 
1 78 397 200 142 102 
1 78 398 204 142 101 
2 78 398 202 140 99 
3 78 398 204 139 99 
3 78 398 203 138 98 
4 78 398 204 139 97 
5 78 398 203 138 96 
5 78 398 193 138 97 
6 78 399 198 143 102 
7 78 399 209 150 108 
7 78 400 204 145 103 
8 79 401 193 138 107 
9 79 401 176 121 90 
9 79 402 148 103 84 
-8 80 405 65 69 78 
-8 80 404 100 70 68 
-7 80 403 87 57 55 
-6 80 403 155 130 136 
-6 79 400 232 207 213 
-5 79 399 205 195 194 
-4 79 398 111 101 100 
-4 78 397 161 100 69 
-3 78 396 170 109 78 
-2 78 396 182 119 84 
-2 78 397 189 126 91 
-1 78 397 196 132 94 
-1 78 397 197 133 95 
0 78 397 195 137 97 
1 78 397 199 141 101 
1 78 397 203 144 102 
2 79 398 201 142 100 
3 79 398 204 141 98 
3 79 398 203 140 97 
4 79 398 204 141 100 
5 79 398 202 139 98 
5 79 399 195 138 95 
6 79 399 198 141 98 
7 79 399 209 150 110 
7 79 400 205 146 106 
8 79 401 193 136 106 
9 79 401 174 117 87 
9 79 402 140 102 89 
-8 81 406 68 75 81 
-8 81 404 98 70 67 
-7 80 403 86 58 55 
-6 80 403 148 123 129 
-6 80 400 231 206 212 
-5 80 399 209 201 198 
-4 79 398 114 106 103 
-4 79 397 160 99 68 
-3 79 396 170 109 78 
-2 79 396 181 118 83 
-2 79 397 189 126 91 
-1 79 397 197 132 94 
-1 79 397 198 133 95 
0 79 397 194 135 93 
1 79 397 197 138 96 
1 79 397 203 144 100 
2 79 397 202 143 99 
3 79 398 205 142 99 
3 79 398 203 140 97 
4 79 398 205 142 101 
5 79 398 203 140 99 
5 80 399 197 138 98 
6 80 399 201 142 102 
7 80 399 210 148 109 
7 80 400 206 144 105 
8 80 401 194 135 105 
9 80 401 174 115 85 
9 80 402 133 104 96 
-8 82 406 77 84 90 
-8 81 404 97 72 68 
-7 81 403 86 61 57 
-6 81 403 140 117 123 
-6 80 400 229 206 212 
-5 80 399 213 203 201 
-4 80 398 116 106 104 
-4 80 398 163 100 67 
-3 80 397 174 111 78 
-2 80 396 185 121 86 
-2 80 398 192 128 93 
-1 80 398 199 134 96 
-1 80 397 199 134 96 
0 80 397 198 137 93 
1 80 397 200 139 95 
1 80 397 204 145 101 
2 80 397 203 144 100 
3 80 397 207 142 100 
3 80 398 205 140 98 
4 80 398 205 143 104 
5 80 398 204 142 103 
5 80 398 200 138 99 
6 80 399 204 142 103 
7 80 399 209 147 110 
7 80 400 205 143 106 
8 81 401 192 133 101 
9 81 401 173 114 82 
9 81 402 125 106 102 
-8 82 407 91 94 103 
-8 82 404 96 72 68 
-7 82 403 85 61 57 
-6 82 403 133 114 118 
-6 81 400 227 208 212 
-5 81 399 218 207 205 
-4 81 399 117 106 104 
-4 81 398 167 101 69 
-3 80 397 178 112 80 
-2 80 397 186 123 88 
-2 81 398 193 130 95 
-1 81 398 199 135 97 
-1 80 397 201 137 99 
0 80 397 201 140 96 
1 80 397 204 143 99 
1 80 397 207 146 101 
2 80 397 206 145 100 
3 80 397 208 143 101 
3 81 398 206 141 99 
4 81 398 204 142 105 
5 81 398 204 142 105 
5 81 398 201 139 100 
6 81 399 204 142 103 
7 81 399 208 146 109 
7 81 400 202 140 103 
8 81 401 188 129 95 
9 81 402 169 110 76 
9 82 403 117 105 105 
-8 83 408 101 101 111 
-8 82 404 95 71 69 
-7 82 402 84 60 58 
-6 82 402 127 110 116 
-6 82 401 225 208 214 
-5 81 399 220 209 207 
-4 81 399 119 108 106 
-4 81 398 165 99 67 
-3 81 397 176 110 78 
-2 81 397 184 121 86 
-2 81 398 191 128 93 
-1 81 398 197 135 96 
-1 81 397 200 138 99 
0 81 397 202 141 97 
1 81 397 206 145 101 
1 81 397 211 150 103 
2 81 397 208 147 100 
3 81 398 209 144 102 
3 81 398 206 141 99 
4 81 398 203 140 105 
5 81 398 203 140 105 
5 81 398 202 140 101 
6 81 399 205 143 104 
7 81 399 205 145 108 
7 82 400 197 137 100 
8 82 401 182 126 91 
9 82 402 164 108 73 
9 82 403 112 106 108 
-8 84 408 121 120 128 
-8 83 404 98 68 68 
-7 83 402 89 59 59 
-6 83 402 119 102 108 
-6 82 401 217 200 206 
-5 82 399 214 202 206 
-4 82 398 113 101 105 
-4 82 398 160 102 62 
-3 82 397 171 113 73 
-2 82 397 183 120 85 
-2 82 397 194 131 96 
-1 82 397 197 135 94 
-1 82 397 201 139 98 
0 82 397 204 139 101 
1 82 397 207 142 104 
1 82 397 204 146 108 
2 82 397 206 148 110 
3 82 398 206 144 103 
3 82 398 202 140 99 
4 82 398 204 141 98 
5 82 398 204 141 98 
5 82 398 202 140 101 
6 82 398 203 141 102 
7 82 399 208 143 101 
7 82 400 199 134 92 
8 82 401 182 124 87 
9 83 402 163 105 68 
9 83 403 111 108 115 
-8 84 405 100 70 72 
-7 83 402 89 59 61 
-6 83 402 111 94 100 
-6 83 401 213 196 202 
-5 83 399 214 202 206 
-4 83 398 117 105 109 
-4 83 398 160 102 62 
-3 82 397 172 114 74 
-2 82 397 184 121 86 
-2 82 397 195 132 97 
-1 82 397 198 139 97 
-1 82 397 202 143 101 
0 82 397 205 141 103 
1 82 397 207 143 105 
1 82 397 206 148 108 
2 82 397 208 150 110 
3 82 397 207 148 106 
3 82 397 201 142 100 
4 83 398 202 141 97 
5 83 398 203 142 98 
5 83 398 199 140 98 
6 83 399 201 142 100 
7 83 399 208 144 100 
7 83 400 198 134 90 
8 83 401 179 121 84 
9 83 402 160 102 65 
9 84 403 110 107 114 
-8 85 405 101 70 75 
-7 84 402 92 61 66 
-6 84 402 105 88 94 
-6 84 400 212 195 201 
-5 83 399 214 204 205 
-4 83 398 118 108 109 
-4 83 398 155 100 61 
-3 83 397 169 114 75 
-2 83 397 182 122 86 
-2 83 398 192 132 96 
-1 83 398 197 138 96 
-1 83 397 202 143 101 
0 83 397 205 143 102 
1 83 397 207 145 104 
1 83 397 207 150 107 
2 83 397 209 152 109 
3 83 397 210 151 107 
3 83 397 203 144 100 
4 83 397 204 143 99 
5 83 398 205 144 100 
5 83 398 198 139 97 
6 83 399 200 141 99 
7 84 400 208 144 100 
7 84 400 196 132 88 
8 84 401 176 118 80 
9 84 402 157 99 61 
9 84 403 110 108 113 
-8 85 404 101 69 80 
-7 85 402 94 62 73 
-6 85 402 101 85 88 
-6 84 400 213 197 200 
-5 84 398 216 206 207 
-4 84 398 120 110 111 
-4 84 398 153 97 60 
-3 84 398 168 112 75 
-2 84 397 182 122 86 
-2 84 398 192 132 96 
-1 84 398 196 137 97 
-1 84 398 201 142 102 
0 84 397 205 143 104 
1 84 397 208 146 107 
1 84 397 205 151 107 
2 84 397 206 152 108 
3 84 397 209 152 107 
3 84 397 203 146 101 
4 84 397 207 146 102 
5 84 397 209 148 104 
5 84 398 199 140 96 
6 84 399 199 140 96 
7 84 400 207 143 99 
7 84 400 195 131 87 
8 84 401 173 115 77 
9 85 402 155 97 59 
9 85 403 109 107 112 
-8 86 404 104 70 87 
-7 85 402 95 61 78 
-6 85 402 96 80 83 
-6 85 401 212 196 199 
-5 85 399 217 207 208 
-4 84 398 124 114 115 
-4 84 398 154 98 65 
-3 84 398 170 114 81 
-2 84 397 186 123 88 
-2 84 398 195 132 97 
-1 84 398 197 137 100 
-1 84 398 203 143 106 
0 84 397 208 146 107 
1 84 397 212 150 111 
1 84 397 207 153 109 
2 84 397 206 152 108 
3 84 397 209 152 109 
3 84 397 204 147 104 
4 84 397 207 148 104 
5 84 398 209 150 106 
5 84 398 200 141 97 
6 85 399 199 140 96 
7 85 399 205 141 97 
7 85 400 194 130 86 
8 85 401 170 115 76 
9 85 402 153 98 59 
9 85 403 109 106 113 
-8 86 404 111 76 98 
-7 86 402 94 59 81 
-6 86 402 92 76 79 
-6 86 400 206 190 193 
-5 85 399 215 205 204 
-4 85 398 128 118 117 
-4 85 399 154 97 67 
-3 85 398 171 114 84 
-2 85 397 186 123 90 
-2 85 398 195 132 99 
-1 85 398 198 138 102 
-1 85 398 204 144 108 
0 85 397 209 147 110 
1 85 397 213 151 114 
1 85 397 210 153 110 
2 85 397 210 153 110 
3 85 397 211 154 111 
3 85 397 207 150 107 
4 85 397 209 150 106 
5 85 398 209 150 106 
5 85 398 200 141 97 
6 85 399 197 138 94 
7 85 399 201 137 91 
7 86 400 191 127 81 
8 86 401 168 113 74 
9 86 402 151 96 57 
9 86 403 108 107 113 
-8 87 404 118 84 109 
-7 87 402 93 59 84 
-6 87 402 90 74 77 
-6 86 400 200 184 187 
-5 86 398 212 202 201 
-4 86 398 130 120 119 
-4 86 399 153 96 66 
-3 86 399 170 113 83 
-2 86 397 186 123 88 
-2 86 398 196 133 98 
-1 86 398 201 138 103 
-1 86 398 206 143 108 
0 86 397 210 148 111 
1 86 397 215 153 116 
1 86 398 214 157 112 
2 86 397 214 157 112 
3 86 398 214 157 112 
3 86 397 212 155 110 
4 86 397 213 154 110 
5 86 398 210 151 107 
5 86 399 201 142 98 
6 86 399 196 137 93 
7 86 399 199 135 89 
7 86 400 189 125 79 
8 86 401 166 111 72 
9 87 402 150 95 56 
9 87 403 107 106 111 
-8 88 404 121 88 115 
-7 87 402 93 60 87 
-6 87 402 89 75 75 
-6 87 400 196 182 182 
-5 86 398 210 202 199 
-4 86 398 129 121 118 
-4 86 398 152 97 66 
-3 87 399 170 115 84 
-2 86 397 188 125 90 
-2 86 398 199 136 101 
-1 86 398 201 141 105 
-1 86 398 206 146 110 
0 86 398 212 150 111 
1 86 397 218 156 117 
1 86 398 218 161 116 
2 86 398 218 161 116 
3 86 398 216 159 114 
3 86 398 214 157 112 
4 86 397 216 158 112 
5 86 398 212 154 108 
5 87 399 205 144 99 
6 87 399 200 139 94 
7 87 399 199 135 87 
7 87 400 189 125 77 
8 87 401 164 111 71 
9 87 402 147 94 54 
9 87 403 105 106 110 
-8 88 404 106 86 97 
-7 88 402 87 67 78 
-6 88 402 82 66 69 
-6 87 400 193 177 180 
-5 87 398 208 198 196 
-4 87 398 134 124 122 
-4 87 398 151 100 73 
-3 87 398 168 117 90 
-2 87 397 192 123 92 
-2 87 398 202 133 102 
-1 87 398 204 139 97 
-1 87 398 209 144 102 
0 87 398 206 152 105 
1 87 398 210 156 109 
1 87 398 216 162 116 
2 87 398 214 160 114 
3 87 398 213 159 113 
3 87 398 212 158 112 
4 87 398 215 157 111 
5 87 398 212 154 108 
5 87 399 204 146 100 
6 87 399 197 139 93 
7 87 400 199 138 93 
7 88 401 191 130 85 
8 88 401 164 111 77 
9 88 402 151 98 64 
9 88 403 104 102 107 
-8 89 406 111 94 104 
-7 89 403 83 66 76 
-6 89 403 85 70 75 
-6 88 400 182 167 172 
-5 88 398 210 200 199 
-4 88 398 132 122 121 
-4 88 398 147 97 72 
-3 88 398 166 116 91 
-2 87 397 191 125 93 
-2 88 398 202 136 104 
-1 88 398 204 141 98 
-1 88 398 207 144 101 
0 88 398 205 151 105 
1 88 398 210 156 110 
1 88 398 214 160 113 
2 88 398 213 159 112 
3 88 398 214 160 114 
3 88 398 212 158 112 
4 88 398 215 157 111 
5 88 399 213 155 109 
5 88 399 207 146 101 
6 88 399 200 139 94 
7 88 400 201 138 94 
7 88 401 190 127 83 
8 88 401 161 107 71 
-8 90 406 110 97 106 
-7 89 402 77 64 73 
-6 89 402 81 69 73 
-6 89 401 172 160 164 
-5 88 398 209 201 199 
-4 88 398 134 126 124 
-4 88 398 145 97 74 
-3 88 398 165 117 94 
-2 88 397 191 126 94 
-2 88 398 201 136 104 
-1 88 398 205 142 101 
-1 88 398 207 144 103 
0 88 398 205 151 105 
1 88 398 211 157 111 
1 88 398 215 161 115 
2 88 398 214 160 114 
3 88 398 214 160 114 
3 88 398 211 157 111 
4 88 398 213 155 109 
5 89 399 213 155 109 
5 89 399 207 146 101 
6 89 399 200 139 94 
7 89 400 201 138 94 
7 89 401 189 126 82 
8 89 401 157 103 67 
-7 90 402 79 68 74 
-6 90 402 77 66 72 
-6 90 401 169 158 164 
-5 89 398 201 196 192 
-4 89 398 136 131 127 
-4 89 398 146 98 78 
-3 89 398 166 118 98 
-2 89 397 190 127 92 
-2 89 398 200 137 102 
-1 89 398 205 143 102 
-1 89 398 208 146 105 
0 89 398 205 152 108 
1 89 398 210 157 113 
1 89 399 216 162 116 
2 89 399 216 162 116 
3 89 399 214 160 116 
3 89 399 210 156 112 
4 89 399 212 154 108 
5 89 399 212 154 108 
5 89 399 206 145 100 
6 89 400 199 138 93 
7 89 400 200 137 93 
7 90 401 187 124 80 
8 90 401 139 85 49 
-7 91 403 79 70 73 
-6 91 403 74 65 70 
-6 90 401 167 158 163 
-5 90 399 201 196 192 
-4 90 398 139 134 130 
-4 90 398 143 96 78 
-3 90 398 165 118 100 
-2 89 397 190 128 91 
-2 90 398 200 138 101 
-1 90 398 204 145 103 
-1 90 398 208 149 107 
0 90 398 205 152 108 
1 90 398 209 156 112 
1 90 398 216 162 116 
2 90 399 216 162 116 
3 90 399 213 160 116 
3 90 399 209 156 112 
4 90 399 212 155 110 
5 90 399 211 154 109 
5 90 400 205 144 99 
6 90 400 197 136 91 
7 90 401 193 130 86 
7 90 401 183 120 76 
8 90 402 134 80 46 
-7 91 403 79 69 70 
-6 91 403 75 65 73 
-6 91 402 160 150 158 
-5 91 400 204 199 193 
-4 90 398 139 134 128 
-4 90 398 141 92 77 
-3 90 398 165 116 101 
-2 90 397 189 127 88 
-2 90 398 199 137 98 
-1 90 398 204 145 105 
-1 90 398 208 149 109 
0 90 398 206 153 109 
1 90 398 210 157 113 
1 90 398 216 162 116 
2 90 399 215 161 115 
3 90 399 212 159 115 
3 90 399 209 156 112 
4 90 399 212 155 110 
5 90 399 211 154 109 
5 91 400 205 144 100 
6 91 400 198 137 93 
7 91 401 197 134 90 
7 91 401 181 118 74 
8 91 402 124 71 37 
-7 92 403 84 74 75 
-6 92 402 76 64 74 
-6 92 401 153 141 151 
-5 91 400 206 199 193 
-4 91 398 141 134 128 
-4 91 398 140 90 79 
-3 91 398 166 116 105 
-2 91 397 190 128 87 
-2 91 397 198 136 95 
-1 91 398 203 144 104 
-1 91 398 208 149 109 
0 91 398 206 153 111 
1 91 398 210 157 115 
1 91 398 217 160 115 
2 91 399 215 158 113 
3 91 399 212 158 114 
3 91 399 210 156 112 
4 91 399 213 154 110 
5 91 399 210 151 107 
5 91 400 205 142 98 
6 91 400 199 136 92 
7 92 401 198 134 90 
7 92 401 181 117 73 
8 92 402 119 66 34 
-7 93 403 85 73 75 
-6 92 402 71 59 69 
-6 92 402 150 138 148 
-5 92 399 205 197 194 
-4 91 398 147 139 136 
-4 91 398 140 90 81 
-3 91 398 167 117 108 
-2 91 397 192 130 89 
-2 91 397 200 138 97 
-1 91 398 204 144 107 
-1 91 398 209 149 112 
0 91 398 205 152 110 
1 91 398 207 154 112 
1 91 398 216 158 112 
2 92 399 214 156 110 
3 92 399 211 157 113 
3 92 399 211 157 113 
4 92 399 213 154 110 
5 92 399 209 150 106 
5 92 399 204 141 97 
6 92 400 198 135 91 
7 92 400 196 132 88 
7 92 401 182 118 74 
8 92 402 117 63 29 
-7 93 403 84 64 73 
-6 93 402 77 62 69 
-6 93 401 148 133 140 
-5 93 400 205 196 197 
-4 92 398 148 139 140 
-4 92 398 138 97 93 
-3 92 398 162 121 117 
-2 92 396 188 126 87 
-2 92 397 200 138 99 
-1 92 397 202 148 104 
-1 92 397 206 152 108 
0 92 397 216 149 106 
1 92 397 219 152 109 
1 92 398 219 158 111 
2 92 398 217 156 109 
3 92 398 213 159 115 
3 92 398 213 159 115 
4 92 399 215 154 110 
5 92 399 210 149 105 
5 92 399 204 143 99 
6 93 400 199 138 94 
7 93 400 199 136 92 
7 93 401 185 122 78 
8 93 402 107 61 48 
-7 94 403 87 70 76 
-6 94 402 76 61 68 
-6 93 401 149 134 141 
-5 93 399 204 198 198 
-4 93 398 149 143 143 
-4 93 397 135 96 91 
-3 93 397 161 122 117 
-2 92 396 188 126 87 
-2 92 396 200 138 99 
-1 93 397 202 148 104 
-1 93 397 207 153 109 
0 93 397 212 148 104 
1 93 397 214 150 106 
1 93 397 217 158 114 
2 93 398 215 156 112 
3 93 398 211 157 113 
3 93 398 210 156 112 
4 93 398 212 151 104 
5 93 399 208 147 100 
5 93 399 204 143 99 
6 93 400 201 140 96 
7 93 400 196 135 91 
7 93 401 182 121 77 
8 94 402 100 56 47 
-7 94 402 93 78 83 
-6 94 402 68 55 62 
-6 94 402 141 128 135 
-5 94 399 201 195 195 
-4 93 398 155 149 149 
-4 93 397 130 93 87 
-3 93 397 160 123 117 
-2 93 396 189 127 88 
-2 93 396 200 138 99 
-1 93 397 203 149 105 
-1 93 397 208 154 110 
0 93 397 210 149 105 
1 93 397 212 151 107 
1 93 397 214 157 114 
2 93 398 213 156 113 
3 93 398 209 156 112 
3 93 398 208 155 111 
4 93 398 212 152 102 
5 94 399 208 148 98 
5 94 399 204 143 98 
6 94 400 201 140 95 
7 94 400 195 136 96 
7 94 401 179 120 80 
8 94 402 95 50 47 
-7 95 402 91 76 81 
-6 95 402 66 53 60 
-6 95 402 133 120 127 
-5 94 399 197 191 191 
-4 94 398 157 151 151 
-4 94 398 124 89 83 
-3 94 397 158 123 117 
-2 94 396 191 129 90 
-2 94 396 201 139 100 
-1 94 397 205 148 105 
-1 94 397 211 154 111 
0 94 397 210 151 107 
1 94 397 213 154 110 
1 94 397 211 157 111 
2 94 398 210 156 110 
3 94 398 209 156 112 
3 94 398 209 156 112 
4 94 398 213 152 105 
5 94 399 209 148 101 
5 94 399 204 143 98 
6 95 400 201 140 95 
7 95 401 194 135 95 
7 95 401 177 118 78 
8 95 402 90 46 43 
-7 96 403 93 81 85 
-6 96 402 72 59 66 
-6 95 401 128 115 122 
-5 95 399 198 189 192 
-4 94 397 159 150 153 
-4 95 398 122 89 84 
-3 95 398 157 124 119 
-2 94 396 192 130 91 
-2 94 396 201 139 100 
-1 94 397 206 147 105 
-1 94 397 213 154 112 
0 94 397 211 154 111 
1 94 397 213 156 113 
1 94 397 213 159 112 
2 95 398 213 159 112 
3 95 398 213 159 115 
3 95 398 211 157 113 
4 95 398 214 153 108 
5 95 399 210 149 104 
5 95 399 205 144 100 
6 95 399 201 140 96 
7 95 401 192 133 91 
7 95 401 175 116 74 
8 96 402 87 42 37 
-7 97 404 90 79 83 
-6 96 402 73 58 65 
-6 96 401 125 110 117 
-5 96 399 199 190 193 
-4 95 398 164 155 158 
-4 95 398 121 90 85 
-3 95 398 156 125 120 
-2 95 396 190 131 91 
-2 95 396 200 141 101 
-1 95 397 209 147 106 
-1 95 397 215 153 112 
0 95 397 211 154 111 
1 95 397 213 156 113 
1 95 397 214 160 113 
2 95 398 216 162 115 
3 95 398 216 161 120 
3 95 398 214 159 118 
4 95 398 215 154 110 
5 96 399 210 149 105 
5 96 399 202 143 99 
6 96 399 199 140 96 
7 96 400 195 136 92 
7 96 401 176 117 73 
8 96 401 83 38 32 
-7 97 402 92 86 88 
-6 97 401 78 63 70 
-6 97 401 120 105 112 
-5 96 398 192 181 185 
-4 96 397 165 154 158 
-4 96 397 121 94 87 
-3 96 398 156 129 122 
-2 95 396 190 132 92 
-2 95 396 200 142 102 
-1 96 397 210 148 107 
-1 96 397 215 153 112 
0 96 397 210 153 110 
1 96 397 213 156 113 
1 96 397 214 160 114 
2 96 398 217 163 117 
3 96 398 218 163 122 
3 96 398 215 160 119 
4 96 398 213 154 112 
5 96 399 208 149 107 
5 96 399 202 145 102 
6 96 399 200 143 100 
7 96 400 199 142 99 
7 97 401 176 119 76 
8 97 402 76 31 26 
-7 98 402 99 94 98 
-6 97 401 77 64 71 
-6 97 401 114 101 108 
-5 97 399 185 176 179 
-4 96 397 171 162 165 
-4 96 397 119 94 87 
-3 97 398 156 131 124 
-2 96 397 190 135 94 
-2 96 397 199 144 103 
-1 96 397 212 150 109 
-1 96 397 215 153 112 
0 96 397 207 153 107 
1 96 397 213 159 113 
1 96 397 216 159 116 
2 97 398 219 162 119 
3 97 398 217 164 124 
3 97 398 213 160 120 
4 97 398 212 153 109 
5 97 399 207 148 104 
5 97 399 204 147 104 
6 97 399 204 147 104 
7 97 400 201 144 101 
7 97 401 175 118 75 
8 98 402 67 22 19 
-7 98 402 102 97 101 
-6 98 401 72 59 66 
-6 98 400 107 94 101 
-5 97 398 184 169 172 
-4 97 397 175 160 163 
-4 97 397 114 95 88 
-3 97 398 152 133 126 
-2 97 397 189 131 94 
-2 97 397 202 144 107 
-1 97 397 210 148 109 
-1 97 398 213 151 112 
0 97 397 211 155 108 
1 97 397 214 158 111 
1 97 397 214 157 114 
2 97 397 218 161 118 
3 97 398 217 163 116 
3 97 398 214 160 113 
4 97 398 212 151 107 
5 97 399 206 145 101 
5 97 399 204 147 104 
6 97 399 206 149 106 
7 98 401 205 147 110 
7 98 401 174 116 79 
8 98 402 67 22 25 
-6 99 401 73 62 66 
-6 98 400 104 93 97 
-5 98 398 181 166 169 
-4 97 396 173 158 161 
-4 98 397 112 93 86 
-3 98 398 150 131 124 
-2 98 397 187 131 94 
-2 98 397 199 143 106 
-1 98 397 209 147 108 
-1 98 398 212 150 111 
0 98 398 211 155 108 
1 98 397 213 157 110 
1 98 398 214 157 114 
2 98 398 217 160 117 
3 98 398 214 160 113 
3 98 398 212 158 111 
4 98 398 213 152 108 
5 98 398 208 147 103 
5 98 399 205 148 105 
6 98 400 207 150 107 
7 99 401 206 150 113 
7 99 401 169 113 76 
8 99 402 62 20 22 
-6 99 401 77 66 70 
-6 99 401 99 88 92 
-5 99 399 179 164 167 
-4 98 397 174 159 162 
-4 98 397 110 93 85 
-3 99 398 147 130 122 
-2 98 397 188 132 97 
-2 98 397 199 143 108 
-1 98 397 207 148 108 
-1 99 398 210 151 111 
0 99 398 211 155 108 
1 98 397 212 156 109 
1 99 398 214 157 114 
2 99 398 215 158 115 
3 99 398 211 157 110 
3 99 398 210 156 109 
4 99 399 212 153 109 
5 99 399 209 150 106 
5 99 399 207 150 107 
6 99 400 208 151 108 
7 99 401 210 154 117 
7 99 401 166 110 73 
8 99 402 58 18 19 
-6 100 401 79 68 72 
-6 100 400 96 85 89 
-5 99 399 176 161 164 
-4 99 396 178 163 166 
-4 99 397 112 93 86 
-3 99 398 146 127 120 
-2 99 397 189 133 98 
-2 99 397 199 143 108 
-1 99 397 208 148 111 
-1 99 398 212 152 115 
0 99 398 211 154 109 
1 99 398 212 155 110 
1 99 397 212 154 114 
2 99 398 214 156 116 
3 99 398 210 156 110 
3 99 398 210 156 110 
4 99 399 212 153 111 
5 99 399 209 150 108 
5 99 399 208 151 108 
6 100 400 208 151 108 
7 100 401 206 150 113 
7 100 402 164 108 71 
8 100 402 58 18 19 
-6 101 401 80 69 73 
-6 100 400 93 82 86 
-5 100 398 172 157 162 
-4 99 396 180 165 170 
-4 100 397 114 95 89 
-3 100 398 144 125 119 
-2 100 397 189 133 98 
-2 100 397 198 142 107 
-1 100 397 208 148 111 
-1 100 398 212 152 115 
0 100 398 211 154 109 
1 100 398 211 154 109 
1 100 398 212 154 114 
2 100 398 212 154 114 
3 100 398 210 156 112 
3 100 398 210 156 112 
4 100 398 211 152 112 
5 100 399 209 150 110 
5 100 400 208 150 110 
6 100 400 206 148 108 
7 101 401 200 144 107 
7 101 402 163 107 70 
8 101 403 59 18 22 
-6 101 401 77 66 70 
-6 101 401 91 80 84 
-5 101 399 166 151 156 
-4 100 397 180 165 170 
-4 100 396 116 97 91 
-3 100 397 142 123 117 
-2 100 397 188 134 98 
-2 100 397 196 142 106 
-1 100 397 208 149 109 
-1 100 398 213 154 114 
0 100 398 211 154 109 
1 100 398 211 154 109 
1 100 398 212 154 114 
2 100 398 212 154 114 
3 101 399 209 156 112 
3 101 399 209 156 112 
4 101 399 210 151 111 
5 101 399 209 150 110 
5 101 400 207 149 109 
6 101 401 204 146 106 
7 101 401 197 141 104 
7 101 402 161 105 68 
8 102 403 58 17 21 
-6 102 401 75 66 69 
-6 102 400 89 80 83 
-5 101 399 163 148 153 
-4 101 397 180 165 170 
-4 101 397 118 99 93 
-3 101 397 141 122 116 
-2 101 397 189 135 97 
-2 101 397 196 142 104 
-1 101 397 209 150 110 
-1 101 398 213 154 114 
0 101 398 211 154 109 
1 101 398 212 155 110 
1 101 398 212 158 114 
2 101 398 212 158 114 
3 101 399 209 158 111 
3 101 399 208 157 110 
4 101 399 210 152 112 
5 101 399 208 150 110 
5 102 400 207 150 107 
6 102 400 204 147 104 
7 102 401 196 140 103 
7 102 402 157 101 64 
8 102 403 57 16 20 
-6 102 401 75 66 71 
-6 102 400 90 81 86 
-5 102 399 162 147 152 
-4 101 397 179 164 169 
-4 101 397 118 101 94 
-3 102 398 139 122 115 
-2 101 397 189 135 97 
-2 101 396 197 143 105 
-1 101 397 209 151 111 
-1 102 398 213 155 115 
0 102 398 213 156 111 
1 101 397 214 157 112 
1 101 397 212 158 114 
2 102 398 213 159 115 
3 102 398 209 158 111 
3 102 398 208 157 110 
4 102 398 208 154 110 
5 102 399 206 152 108 
5 102 400 205 151 107 
6 102 401 203 149 105 
7 103 402 193 139 101 
7 103 402 152 98 60 
8 103 403 54 15 18 
-6 103 401 67 66 71 
-6 103 400 82 81 86 
-5 103 399 149 145 142 
-4 102 398 170 166 163 
-4 102 397 118 99 95 
-3 102 398 140 121 117 
-2 102 398 187 131 96 
-2 102 397 198 142 107 
-1 102 397 207 150 107 
-1 102 398 212 155 112 
0 102 398 215 154 109 
1 102 398 217 156 111 
1 102 397 216 158 112 
2 102 398 216 158 112 
3 103 399 218 156 109 
3 103 399 215 153 106 
4 103 399 208 152 105 
5 103 399 207 151 104 
5 103 400 202 151 104 
6 103 401 199 148 101 
7 103 402 191 137 101 
7 103 402 145 91 55 
8 104 403 43 17 20 
-6 104 402 87 86 91 
-6 104 401 74 73 78 
-5 103 399 146 142 141 
-4 103 398 171 167 166 
-4 103 398 120 101 97 
-3 103 399 140 121 117 
-2 103 398 186 130 95 
-2 103 398 196 140 105 
-1 103 398 206 149 106 
-1 103 398 211 154 111 
0 103 398 213 154 110 
1 103 398 215 156 112 
1 103 398 215 156 112 
2 103 398 216 157 113 
3 103 398 218 157 110 
3 103 399 215 154 107 
4 103 399 206 152 105 
5 103 400 204 150 103 
5 103 400 201 148 104 
6 103 400 198 145 101 
7 104 401 193 139 105 
7 104 402 142 88 54 
8 104 403 42 20 22 
-6 104 401 65 64 69 
-5 104 400 142 138 137 
-4 104 398 173 169 168 
-4 104 398 124 105 101 
-3 104 399 140 121 117 
-2 104 399 187 131 96 
-2 104 398 197 141 106 
-1 104 398 208 151 108 
-1 104 398 212 155 112 
0 104 398 213 154 110 
1 104 398 216 157 113 
1 104 398 217 158 116 
2 104 398 217 158 116 
3 104 398 216 158 112 
3 104 399 214 156 110 
4 104 399 207 153 107 
5 104 400 203 149 103 
5 104 400 202 144 104 
6 104 401 199 141 101 
7 105 402 194 139 108 
7 105 402 135 80 49 
8 105 403 43 27 28 
-5 105 401 139 135 134 
-4 105 399 174 170 169 
-4 104 398 128 108 107 
-3 105 399 137 117 116 
-2 105 399 187 131 96 
-2 104 398 197 141 106 
-1 104 398 208 151 106 
-1 104 398 213 156 111 
0 105 399 214 155 111 
1 104 398 217 158 114 
1 104 398 219 160 116 
2 105 399 217 158 114 
3 105 399 215 157 109 
3 105 399 212 154 106 
4 105 399 207 150 105 
5 105 400 203 146 101 
5 105 400 199 140 100 
6 105 401 195 136 96 
7 105 402 190 133 103 
7 106 403 128 71 41 
8 106 404 46 34 34 
-5 106 401 135 133 134 
-4 105 399 174 172 173 
-4 105 398 131 113 111 
-3 105 399 132 114 112 
-2 105 399 184 128 93 
-2 105 399 194 138 103 
-1 105 399 205 148 103 
-1 105 399 212 155 110 
0 105 399 215 156 112 
1 105 399 215 156 112 
1 105 399 218 159 115 
2 105 399 217 158 114 
3 105 399 214 156 108 
3 105 399 210 152 104 
4 105 400 206 148 102 
5 105 400 202 144 98 
5 105 400 197 135 96 
6 106 401 191 129 90 
7 106 402 183 128 97 
7 106 403 119 64 33 
8 106 404 49 39 38 
-5 106 401 132 130 131 
-4 106 398 175 173 174 
-4 106 398 134 116 114 
-3 106 399 128 110 108 
-2 106 399 182 126 89 
-2 106 399 192 136 99 
-1 106 399 204 147 102 
-1 106 399 211 154 109 
0 106 399 214 155 111 
1 106 399 213 154 110 
1 106 399 217 160 115 
2 106 399 217 160 115 
3 106 399 214 156 108 
3 106 399 209 151 103 
4 106 400 205 147 101 
5 106 400 200 142 96 
5 106 400 195 133 94 
6 106 401 188 126 87 
7 107 402 173 118 87 
7 107 403 111 56 25 
8 107 405 50 40 38 
-4 106 399 172 170 171 
-4 106 398 134 116 116 
-3 106 399 125 107 107 
-2 106 399 181 125 90 
-2 106 399 190 134 99 
-1 106 398 201 144 99 
-1 106 399 208 151 106 
0 106 399 210 153 110 
1 106 399 209 152 109 
1 106 399 211 158 116 
2 106 399 212 159 117 
3 106 399 212 154 106 
3 106 399 206 148 100 
4 107 400 204 143 99 
5 107 400 201 140 96 
5 107 401 190 130 93 
6 107 401 183 123 86 
7 107 402 154 101 70 
7 107 403 102 49 18 
8 108 404 52 42 41 
-4 107 399 168 166 169 
-4 107 398 132 114 114 
-3 107 399 122 104 104 
-2 107 399 178 122 87 
-2 107 399 186 130 95 
-1 107 399 196 139 96 
-1 107 399 202 145 102 
0 107 399 204 146 106 
1 107 399 206 148 108 
1 107 399 204 152 112 
2 107 399 205 153 113 
3 107 399 207 149 103 
3 107 400 201 143 97 
4 107 400 201 139 98 
5 107 400 198 136 95 
5 108 401 184 126 89 
6 108 402 175 117 80 
7 108 402 134 83 52 
7 108 404 92 41 10 
-4 107 398 168 164 165 
-4 107 398 132 117 122 
-3 108 399 112 97 102 
-2 108 399 177 117 83 
-2 107 398 181 121 87 
-1 108 399 189 131 93 
-1 108 399 196 138 100 
0 108 399 203 143 106 
1 107 398 205 145 108 
1 107 398 208 147 103 
2 108 399 212 151 107 
3 108 399 204 146 106 
3 108 400 200 142 102 
4 108 400 192 136 99 
5 108 400 188 132 95 
5 108 401 171 115 78 
-4 108 398 164 160 161 
-4 108 397 133 118 123 
-3 108 398 102 87 92 
-2 108 399 157 97 63 
-2 108 398 167 107 73 
-1 108 398 175 120 81 
-1 108 399 181 126 87 
0 108 399 189 131 94 
1 108 398 187 129 92 
1 108 398 191 130 86 
2 108 398 191 130 86 
3 108 399 186 128 88 
3 109 400 183 125 85 
4 109 400 172 120 83 
5 109 400 166 114 77 
5 109 401 133 83 50 
-4 108 397 162 158 159 
-4 108 397 134 119 124 
-1 108 397 160 106 70 
1 109 398 173 117 82 
1 109 398 179 120 80 
2 109 398 176 117 77 
3 109 399 179 123 86 
3 109 399 179 123 86 
4 109 400 171 121 86 
5 109 400 165 115 80 
1 109 398 204 151 117 
1 109 398 206 152 116 
2 109 398 206 152 116 
