ply
format ascii 1.0
comment Created by CloudCompare v2.10.1 (Zephyrus)
comment Created 2020-05-17 12:57 AM
obj_info Generated by CloudCompare!
element vertex 376
property float x
property float y
property float z
property uchar red
property uchar green
property uchar blue
end_header
-7 188 420 158 103 64 
-13 189 419 165 135 133 
-12 189 419 164 136 135 
-11 189 420 162 134 133 
-11 189 420 162 136 137 
-10 189 420 159 133 134 
-9 189 420 165 135 133 
-9 189 420 160 130 128 
-8 189 420 142 103 86 
-7 188 418 140 101 84 
-6 186 413 159 103 66 
-15 188 417 162 134 133 
-15 188 417 165 135 133 
-14 188 416 165 135 133 
-13 188 416 160 132 129 
-13 188 416 163 135 132 
-12 187 415 163 138 134 
-11 188 416 162 137 133 
-11 188 416 161 140 135 
-10 188 416 158 137 132 
-9 188 416 165 134 131 
-9 188 416 160 129 126 
-8 187 415 144 105 88 
-7 187 414 142 103 86 
-17 188 416 165 131 122 
-17 188 416 165 131 122 
-16 188 415 164 131 124 
-15 188 414 167 134 127 
-14 188 415 170 141 137 
-14 188 414 177 148 144 
-13 188 414 177 152 148 
-12 187 413 181 156 152 
-12 187 413 177 156 151 
-11 187 413 171 150 145 
-10 187 413 164 147 139 
-10 187 413 157 140 132 
-9 187 412 167 137 135 
-8 187 412 161 131 129 
-8 187 412 150 111 96 
-7 186 411 144 105 90 
-19 189 416 157 118 103 
-18 189 415 156 117 102 
-17 188 414 161 118 101 
-16 188 414 162 119 102 
-16 188 413 160 118 102 
-15 188 413 164 122 106 
-14 188 413 163 127 115 
-14 188 413 168 132 120 
-13 187 412 169 139 129 
-12 187 411 183 153 143 
-12 187 411 192 167 160 
-11 187 411 194 169 162 
-10 187 411 186 163 157 
-10 187 411 177 154 148 
-9 186 410 175 147 144 
-8 186 410 168 140 137 
-8 186 410 158 122 108 
-7 186 409 144 108 94 
-19 189 415 165 120 101 
-18 189 415 161 113 90 
-18 189 414 158 110 87 
-17 189 414 160 109 82 
-16 189 414 159 108 81 
-16 188 412 156 105 76 
-15 188 412 159 108 79 
-14 188 412 161 111 86 
-14 187 411 163 113 88 
-13 187 411 160 115 96 
-12 187 410 166 121 102 
-12 187 410 171 133 122 
-11 187 410 180 142 131 
-10 187 410 182 149 142 
-10 187 409 187 154 147 
-9 187 409 174 146 142 
-8 187 409 169 141 137 
-8 186 408 164 128 114 
-7 186 408 144 108 94 
-6 186 407 153 98 68 
-6 186 407 158 103 73 
-19 190 415 170 120 93 
-18 189 414 170 117 85 
-18 189 414 167 114 82 
-17 189 413 165 109 74 
-16 189 413 159 103 68 
-16 188 411 158 100 62 
-15 188 411 160 102 64 
-14 188 411 159 99 63 
-14 188 410 164 104 68 
-13 188 410 164 107 78 
-12 188 410 164 107 78 
-12 187 409 159 110 93 
-11 187 409 162 113 96 
-10 187 409 161 118 111 
-10 187 408 168 125 118 
-9 187 408 163 135 131 
-8 187 408 162 134 130 
-8 186 407 166 128 115 
-7 186 407 146 108 95 
-6 186 407 152 95 66 
-6 186 406 155 98 69 
-20 191 415 177 121 84 
-19 190 414 177 121 84 
-18 190 414 178 119 87 
-18 190 413 174 115 83 
-17 189 412 165 106 74 
-16 189 412 163 104 72 
-16 189 411 165 109 74 
-15 189 411 165 109 74 
-14 188 410 162 106 71 
-14 188 410 163 107 72 
-13 188 410 167 108 74 
-12 188 410 167 108 74 
-12 188 409 164 105 73 
-11 188 409 166 107 75 
-10 187 408 167 111 78 
-10 187 408 167 111 78 
-9 187 408 165 115 90 
-8 187 407 168 118 93 
-8 187 407 161 116 93 
-7 187 407 153 108 85 
-6 186 406 158 108 81 
-6 186 406 163 113 86 
-20 191 415 179 123 86 
-19 191 414 181 125 88 
-18 190 413 181 122 88 
-18 190 412 177 118 84 
-17 190 412 172 113 79 
-16 190 412 169 110 76 
-16 189 411 169 113 78 
-15 189 410 169 113 78 
-14 189 410 168 112 77 
-14 188 409 169 113 78 
-13 188 409 172 113 79 
-12 188 409 171 112 78 
-12 188 408 170 111 79 
-11 188 408 172 113 81 
-10 188 408 170 114 81 
-10 188 408 168 112 79 
-9 188 407 165 114 87 
-8 188 407 166 115 88 
-8 187 406 158 112 89 
-7 187 406 153 107 84 
-6 187 406 163 112 85 
-6 187 405 171 120 93 
-5 187 405 174 123 94 
-20 191 414 180 124 87 
-19 191 413 183 127 90 
-18 191 413 182 124 87 
-18 190 412 179 121 84 
-17 190 411 177 119 82 
-16 190 411 175 117 80 
-16 190 410 174 118 81 
-15 189 409 174 118 81 
-14 189 409 176 120 85 
-14 189 409 177 121 86 
-13 189 408 178 119 87 
-12 189 408 176 117 85 
-12 189 408 176 117 85 
-11 188 407 177 118 86 
-10 188 407 173 117 82 
-10 188 407 170 114 79 
-9 188 406 170 116 90 
-8 188 406 168 114 88 
-8 188 406 160 110 87 
-7 187 405 156 106 83 
-6 187 405 165 111 83 
-6 187 405 175 121 93 
-5 187 405 181 127 99 
-20 193 415 180 126 92 
-20 192 414 182 124 87 
-19 192 413 184 126 89 
-18 191 412 181 123 85 
-18 191 412 178 120 82 
-17 191 411 177 119 81 
-16 190 410 177 119 81 
-16 190 409 180 122 85 
-15 190 409 181 123 86 
-14 190 409 183 124 90 
-14 189 408 184 125 91 
-13 189 408 183 124 92 
-12 189 408 180 121 89 
-12 189 408 180 121 87 
-11 189 407 180 121 87 
-10 189 407 177 118 84 
-10 189 407 173 114 80 
-9 188 406 170 114 87 
-8 188 406 169 113 86 
-8 188 406 162 110 86 
-7 188 405 155 103 79 
-6 188 405 158 103 73 
-6 188 405 170 115 85 
-5 188 405 181 127 99 
-20 193 415 185 129 92 
-20 193 414 186 128 90 
-19 192 413 185 127 89 
-18 192 412 181 123 85 
-18 192 412 178 120 82 
-17 191 411 176 118 78 
-16 191 410 180 122 82 
-16 190 409 185 127 89 
-15 190 409 184 126 88 
-14 190 408 184 126 89 
-14 190 408 186 128 91 
-13 189 407 187 128 94 
-12 189 407 186 127 93 
-12 189 407 185 126 92 
-11 189 407 184 125 91 
-10 189 406 180 122 85 
-10 189 406 175 117 80 
-9 189 406 175 118 89 
-8 189 405 173 116 87 
-8 189 405 167 113 85 
-7 189 405 154 100 72 
-6 189 405 149 92 62 
-6 189 405 159 102 72 
-5 188 404 171 120 91 
-4 188 404 180 129 100 
-4 188 403 163 117 91 
-3 188 403 120 74 48 
-2 188 403 95 80 75 
-2 188 403 100 85 80 
-20 193 414 191 131 94 
-19 193 413 189 129 92 
-18 192 412 184 126 86 
-18 192 411 180 122 82 
-17 192 411 179 121 81 
-16 191 410 183 125 85 
-16 191 409 189 129 92 
-15 191 408 188 128 91 
-14 191 408 188 128 92 
-14 191 408 190 130 94 
-13 190 407 191 133 96 
-12 190 407 190 132 95 
-12 190 407 190 132 95 
-11 190 406 189 131 94 
-10 190 406 187 127 91 
-10 190 406 182 122 86 
-9 190 406 182 125 95 
-8 189 405 180 123 93 
-8 189 405 171 116 86 
-7 189 404 155 100 70 
-6 189 404 146 87 55 
-6 189 404 151 92 60 
-5 189 404 160 109 78 
-4 188 403 173 122 91 
-4 188 402 161 115 89 
-3 188 402 119 73 47 
-2 188 403 98 83 78 
-2 188 403 101 86 81 
-19 194 413 191 132 92 
-18 193 412 186 128 88 
-18 193 411 182 124 84 
-17 193 411 183 125 87 
-16 192 410 186 128 90 
-16 192 409 190 130 93 
-15 191 408 189 129 92 
-14 191 408 192 132 95 
-14 191 407 194 134 97 
-13 191 407 194 136 98 
-12 190 406 192 134 96 
-12 190 406 192 134 96 
-11 190 406 191 133 95 
-10 190 406 190 130 94 
-10 190 405 187 127 91 
-9 190 405 186 127 95 
-8 190 405 184 125 93 
-8 189 404 175 118 88 
-7 189 404 164 107 77 
-6 189 404 157 97 63 
-6 189 404 150 90 56 
-5 189 404 152 99 68 
-4 189 403 171 118 87 
-4 188 402 155 109 83 
-3 188 402 118 72 46 
-2 188 402 102 84 80 
-2 189 403 106 88 84 
-1 189 403 144 125 118 
0 189 403 149 130 123 
-19 195 415 191 132 92 
-18 194 413 186 128 88 
-18 194 413 183 125 85 
-17 193 411 185 127 89 
-16 193 410 187 129 91 
-16 193 410 189 129 92 
-15 192 409 190 130 93 
-14 192 408 192 132 95 
-14 191 407 197 137 100 
-13 191 407 197 139 99 
-12 191 407 194 136 96 
-12 191 406 193 135 95 
-11 191 406 190 132 92 
-10 190 405 189 129 93 
-10 190 405 189 129 93 
-9 190 405 186 127 95 
-8 190 405 187 128 96 
-8 190 404 182 123 93 
-7 190 404 177 118 88 
-6 189 403 170 110 76 
-6 189 403 150 90 56 
-5 189 403 142 89 58 
-4 189 403 164 111 80 
-4 189 402 150 104 78 
-3 189 402 118 72 46 
-2 189 402 100 82 78 
-2 189 402 105 87 83 
-1 189 402 147 127 120 
0 189 403 137 117 110 
-18 195 414 184 130 86 
-17 195 413 186 131 90 
-16 194 412 187 132 91 
-16 194 411 191 134 91 
-15 193 410 190 133 90 
-14 193 409 194 135 93 
-14 192 408 194 135 93 
-13 192 408 197 139 101 
-12 192 408 200 142 104 
-12 192 407 195 135 98 
-11 192 406 191 131 94 
-10 192 406 193 134 94 
-10 191 405 191 132 92 
-9 191 405 188 132 97 
-8 191 404 190 134 99 
-8 191 404 193 129 93 
-7 191 404 189 125 89 
-6 190 403 184 121 88 
-6 190 403 167 104 71 
-5 190 403 154 100 72 
-4 190 402 171 117 89 
-4 190 402 151 110 90 
-3 189 401 118 77 57 
-2 190 402 109 86 78 
-2 190 402 108 85 77 
-16 195 413 192 133 91 
-15 195 412 193 134 92 
-14 195 411 195 136 94 
-14 194 410 195 136 94 
-13 194 410 196 137 97 
-12 194 409 196 137 97 
-12 193 408 195 135 98 
-11 193 407 192 132 95 
-10 193 407 197 135 96 
-10 192 406 196 134 95 
-9 192 405 194 138 101 
-8 191 404 194 138 101 
-8 191 404 198 136 97 
-7 191 404 197 135 96 
-6 191 403 193 133 97 
-6 191 403 184 124 88 
-5 191 403 178 122 95 
-4 190 402 189 133 106 
-4 190 401 160 117 98 
-3 190 401 121 78 59 
-14 196 413 195 136 96 
-13 195 411 194 134 97 
-12 195 411 190 130 93 
-12 195 410 196 136 99 
-11 194 409 194 134 97 
-10 194 408 197 137 100 
-10 193 407 197 137 100 
-9 193 407 197 143 105 
-8 193 406 195 141 103 
-8 192 405 199 140 98 
-7 192 405 198 139 97 
-6 192 404 194 134 97 
-6 192 404 191 131 94 
-5 191 403 184 129 98 
-4 191 402 185 130 99 
-4 191 402 162 120 98 
-3 190 401 120 78 56 
-8 194 408 195 142 100 
-7 193 406 198 141 96 
-6 193 405 195 137 97 
-6 193 405 195 137 97 
-5 192 404 188 134 98 
-4 192 403 182 128 92 
-3 191 401 117 72 49 
