ply
format ascii 1.0
comment Created by CloudCompare v2.10.1 (Zephyrus)
comment Created 2020-05-17 12:57 AM
obj_info Generated by CloudCompare!
element vertex 96
property float x
property float y
property float z
property uchar red
property uchar green
property uchar blue
end_header
-63 28 423 183 130 112 
-63 28 423 178 125 107 
-64 29 422 181 156 136 
-64 29 422 177 152 132 
-63 29 423 208 157 140 
-63 29 423 209 158 141 
-62 29 424 197 139 117 
-64 29 422 151 120 102 
-64 29 423 146 115 97 
-63 29 423 171 124 108 
-63 29 423 184 137 121 
-62 29 424 215 154 133 
-64 30 422 125 92 75 
-64 30 422 115 82 65 
-63 30 423 121 78 61 
-63 30 423 143 100 83 
-62 30 424 198 137 116 
-61 30 425 222 161 140 
-61 30 425 189 128 100 
-60 30 425 162 101 73 
-64 31 422 166 129 113 
-64 31 422 163 126 110 
-63 31 422 163 122 102 
-63 31 423 165 124 104 
-62 31 423 195 133 110 
-61 31 424 221 159 136 
-61 31 425 210 149 120 
-60 31 425 172 111 82 
-59 31 425 159 95 67 
-64 31 422 177 140 122 
-64 31 422 215 178 160 
-63 31 422 197 159 136 
-63 31 423 164 126 103 
-62 31 423 212 150 125 
-61 31 424 219 157 132 
-61 31 424 214 151 120 
-60 32 425 196 133 102 
-59 32 425 149 85 57 
-59 32 426 142 78 50 
-64 32 422 131 96 77 
-64 32 422 143 108 89 
-63 32 422 148 103 80 
-63 32 423 190 145 122 
-62 32 423 217 157 133 
-61 32 424 203 143 119 
-61 32 424 203 137 113 
-60 32 425 199 133 109 
-59 32 425 163 96 69 
-59 32 426 122 55 28 
-63 33 422 196 149 123 
-63 33 423 209 162 136 
-62 33 423 203 143 119 
-61 33 424 194 134 110 
-61 33 424 192 126 102 
-60 33 425 185 119 95 
-59 33 425 167 101 75 
-59 33 427 121 55 29 
-63 33 422 195 144 115 
-62 33 422 192 141 112 
-62 33 423 185 128 99 
-61 33 423 179 122 93 
-61 34 424 174 108 82 
-60 34 425 175 109 83 
-60 34 426 157 95 72 
-59 34 426 118 56 33 
-63 34 423 178 125 93 
-62 34 423 180 121 91 
-61 34 424 168 109 79 
-61 34 425 162 98 71 
-60 34 425 159 95 68 
-60 34 426 142 90 66 
-59 34 427 128 76 52 
-58 35 428 102 67 48 
-58 35 428 117 82 63 
-62 35 424 164 103 72 
-61 35 425 151 90 59 
-61 35 425 148 86 61 
-60 35 426 148 86 61 
-60 35 426 136 95 73 
-59 35 427 134 93 71 
-58 35 428 111 92 77 
-58 35 429 114 95 80 
-61 36 425 139 77 52 
-61 36 426 137 81 58 
-60 36 426 145 89 66 
-60 36 427 129 98 78 
-62 36 425 129 74 54 
-61 36 425 135 80 60 
-61 36 426 134 88 72 
-60 37 427 136 90 74 
-60 37 427 118 96 82 
-62 37 426 130 83 67 
-61 37 427 118 84 72 
-60 37 427 117 83 71 
-60 37 428 108 92 79 
-61 38 427 102 94 83 
