ply
format ascii 1.0
comment Created by CloudCompare v2.10.1 (Zephyrus)
comment Created 2020-05-17 12:57 AM
obj_info Generated by CloudCompare!
element vertex 77
property float x
property float y
property float z
property uchar red
property uchar green
property uchar blue
end_header
1 182 410 202 151 108 
-6 183 410 168 113 74 
-6 183 409 166 111 72 
-6 184 408 165 109 72 
-5 182 404 176 117 77 
1 183 407 202 157 118 
-6 184 407 167 109 72 
-5 182 404 176 116 79 
-4 182 403 184 124 87 
0 183 405 208 162 126 
-6 185 409 160 104 71 
-6 184 407 164 108 75 
-5 183 405 174 116 79 
-4 183 403 182 124 87 
-1 183 403 131 113 103 
0 183 403 155 137 127 
0 183 405 207 162 129 
-6 185 408 157 102 71 
-6 185 407 161 106 75 
-5 184 405 172 116 81 
-4 184 404 184 128 93 
-4 183 403 148 101 71 
-2 183 402 88 75 69 
-2 183 402 100 87 81 
-1 183 402 130 113 103 
0 183 403 152 135 125 
0 184 405 202 159 127 
-5 185 405 170 114 81 
-4 184 404 185 129 96 
-4 184 403 149 100 70 
-3 183 402 120 71 41 
-2 183 402 87 74 66 
-2 184 403 97 84 76 
-1 184 403 133 115 103 
0 184 403 149 131 119 
0 185 405 190 145 114 
-5 185 405 166 107 75 
-4 185 404 181 122 90 
-4 184 403 146 95 64 
-3 184 402 119 68 37 
-2 184 402 88 74 65 
-2 184 403 97 83 74 
-1 184 403 138 118 107 
0 184 403 148 128 117 
0 185 405 177 130 100 
-5 186 405 166 115 86 
-4 186 404 170 119 90 
-4 185 403 146 99 71 
-3 185 402 117 70 42 
-2 185 403 91 76 71 
-2 185 403 96 81 76 
-1 185 403 139 116 108 
0 185 403 151 128 120 
0 186 405 182 135 105 
-4 187 405 179 128 99 
-4 186 403 155 108 80 
-3 186 403 117 70 42 
-2 186 403 93 75 71 
-2 186 403 99 81 77 
-1 186 403 138 115 107 
0 186 403 158 135 127 
0 187 405 198 151 121 
-4 187 404 186 132 104 
-4 187 404 162 115 89 
-3 186 403 117 70 44 
-2 186 403 92 74 70 
-2 187 404 98 80 76 
-1 187 404 135 115 106 
0 187 404 154 134 125 
0 187 405 198 153 124 
-4 187 404 187 133 105 
-4 187 404 163 116 90 
-3 187 403 120 73 47 
-2 187 403 92 77 72 
-2 187 404 99 84 79 
-1 187 404 142 122 113 
0 187 404 152 132 123 
