ply
format ascii 1.0
comment Created by CloudCompare v2.10.1 (Zephyrus)
comment Created 2020-05-17 12:57 AM
obj_info Generated by CloudCompare!
element vertex 1166
property float x
property float y
property float z
property uchar red
property uchar green
property uchar blue
end_header
-33 0 437 177 139 116 
-33 0 438 187 135 113 
-34 0 437 205 151 123 
-33 0 438 202 148 120 
-33 0 439 196 145 118 
-36 1 435 197 153 124 
-35 1 436 212 154 117 
-35 1 437 212 154 117 
-34 1 438 212 156 123 
-34 1 439 210 154 121 
-33 1 440 211 160 129 
-32 1 440 194 143 112 
-31 1 440 190 136 110 
-31 1 441 194 140 114 
-38 2 434 174 139 117 
-37 2 435 187 152 130 
-37 2 436 208 155 121 
-36 2 436 211 158 124 
-36 2 437 215 157 120 
-35 2 437 214 156 119 
-34 2 438 213 159 125 
-34 2 439 211 157 123 
-33 2 440 210 156 122 
-32 2 440 208 154 120 
-31 2 440 201 145 118 
-31 2 440 185 129 102 
-30 2 441 185 124 103 
-29 2 441 192 131 110 
-29 2 442 191 126 106 
-28 2 442 180 115 95 
-27 2 443 172 109 91 
-27 2 443 160 97 79 
-26 2 444 153 106 90 
-25 2 444 142 95 79 
-40 2 436 164 136 115 
-39 2 436 174 146 125 
-38 3 437 195 146 113 
-38 3 437 205 156 123 
-37 3 437 213 159 123 
-36 3 437 211 157 121 
-36 3 438 213 159 125 
-35 3 438 215 161 127 
-34 3 438 212 159 125 
-34 3 439 209 156 122 
-33 3 439 213 155 118 
-32 3 440 212 154 117 
-31 3 440 214 155 125 
-31 3 441 198 139 109 
-30 3 441 186 121 99 
-29 3 442 183 118 96 
-29 3 442 180 118 95 
-28 3 442 175 113 90 
-27 3 443 165 104 85 
-27 3 444 163 102 83 
-26 3 444 132 90 76 
-25 3 444 118 76 62 
-25 3 445 80 71 62 
-41 3 436 157 128 110 
-41 3 437 169 140 122 
-40 3 437 191 146 113 
-39 3 438 198 153 120 
-38 3 438 206 154 115 
-38 3 438 211 159 120 
-37 3 438 214 160 124 
-36 3 438 213 159 123 
-36 3 438 215 161 127 
-35 3 438 215 161 127 
-34 3 439 213 154 120 
-34 3 439 210 151 117 
-33 3 439 214 154 118 
-32 3 439 213 153 117 
-31 3 440 206 145 114 
-31 3 440 196 135 104 
-30 3 441 193 126 100 
-29 3 441 174 107 81 
-29 3 442 178 118 92 
-28 3 442 168 108 82 
-27 3 443 156 99 80 
-27 3 444 150 93 74 
-26 3 444 98 60 49 
-25 3 444 114 76 65 
-25 3 445 109 106 99 
-42 4 435 144 117 106 
-42 4 436 158 131 120 
-41 4 437 189 142 112 
-41 4 437 196 149 119 
-40 4 437 203 151 111 
-39 4 438 207 155 115 
-38 4 438 206 157 117 
-38 4 438 208 159 119 
-37 4 438 214 161 127 
-36 4 438 213 160 126 
-36 4 438 218 159 125 
-35 4 438 217 158 124 
-34 4 439 217 153 118 
-34 4 439 217 153 118 
-33 4 439 213 150 117 
-32 4 439 204 141 108 
-31 4 440 201 137 109 
-31 4 440 191 127 99 
-30 4 441 190 123 97 
-29 4 441 179 112 86 
-29 4 441 157 99 75 
-28 4 442 160 102 78 
-27 4 443 149 93 76 
-27 4 444 129 73 56 
-26 4 444 85 48 40 
-25 4 444 110 73 65 
-24 4 443 124 123 118 
-44 5 434 136 114 117 
-43 5 435 145 123 126 
-43 5 436 178 133 114 
-42 5 436 187 142 123 
-41 5 437 203 144 104 
-41 5 437 207 148 108 
-40 5 437 207 153 109 
-39 5 438 210 156 112 
-38 5 438 210 162 124 
-38 5 438 211 163 125 
-37 5 438 217 163 127 
-36 5 438 216 162 126 
-36 5 438 217 154 119 
-35 5 438 214 151 116 
-34 5 438 211 148 113 
-34 5 439 206 143 108 
-33 5 439 204 138 103 
-32 5 439 198 132 97 
-31 5 440 193 127 93 
-31 5 440 191 125 91 
-30 5 441 183 123 97 
-29 5 441 169 109 83 
-29 5 442 150 93 74 
-28 5 442 146 89 70 
-27 5 443 146 93 75 
-27 5 444 125 72 54 
-26 5 444 100 73 66 
-45 5 435 128 122 126 
-44 5 434 164 126 113 
-43 5 435 173 135 122 
-43 5 436 196 145 118 
-42 5 436 200 149 122 
-41 5 436 207 148 108 
-40 5 437 209 150 110 
-40 5 437 207 154 112 
-39 5 437 210 157 115 
-38 5 437 211 163 123 
-38 5 437 211 163 123 
-37 5 437 218 164 128 
-36 5 437 215 161 125 
-36 5 437 211 151 115 
-35 5 437 205 145 109 
-34 5 437 203 139 103 
-33 5 438 198 134 98 
-33 5 438 194 128 94 
-32 5 439 192 126 92 
-31 5 439 187 122 90 
-31 5 440 181 116 84 
-30 5 440 174 112 87 
-29 5 441 166 104 79 
-29 5 442 147 90 71 
-28 5 442 136 79 60 
-27 5 443 126 82 69 
-27 5 444 131 87 74 
-26 5 444 124 103 100 
-25 5 444 129 108 105 
-45 6 434 143 122 121 
-45 6 435 153 132 131 
-44 6 435 193 136 107 
-43 6 435 199 142 113 
-42 6 435 208 149 117 
-42 6 436 209 150 118 
-41 6 436 207 151 114 
-40 6 436 210 154 117 
-40 6 437 212 159 119 
-39 6 437 216 163 123 
-38 6 436 216 166 129 
-38 6 436 213 163 126 
-37 6 436 215 161 125 
-36 6 437 210 156 120 
-36 6 437 206 146 110 
-35 6 437 199 139 103 
-34 6 437 199 133 98 
-33 6 437 194 128 93 
-33 6 438 190 124 90 
-32 6 438 187 121 87 
-31 6 439 180 117 86 
-31 6 439 172 109 78 
-30 6 440 166 102 75 
-29 6 440 161 97 70 
-29 6 442 144 89 69 
-28 6 442 137 82 62 
-27 6 443 126 93 88 
-27 6 443 131 98 93 
-26 6 444 119 107 109 
-46 7 433 128 113 108 
-46 7 434 143 128 123 
-45 7 434 173 133 121 
-45 7 435 181 141 129 
-44 7 435 206 143 108 
-43 7 435 210 147 112 
-42 7 435 210 151 117 
-42 7 435 210 151 117 
-41 7 436 210 154 119 
-40 7 436 216 160 125 
-40 7 436 219 163 126 
-39 7 436 220 164 127 
-38 7 436 219 165 129 
-38 7 436 212 158 122 
-37 7 436 207 152 121 
-36 7 436 202 147 116 
-35 7 436 200 140 106 
-35 7 437 195 135 101 
-34 7 437 199 129 93 
-33 7 437 195 125 89 
-33 7 437 190 121 88 
-32 7 438 183 114 81 
-31 7 439 174 110 82 
-31 7 440 169 105 77 
-30 7 440 161 95 69 
-29 7 441 152 86 60 
-29 7 442 140 87 71 
-28 7 442 145 92 76 
-27 7 443 124 102 104 
-27 7 443 126 104 106 
-47 7 434 154 122 111 
-46 7 435 174 142 131 
-45 7 435 200 149 122 
-44 7 434 205 154 127 
-44 7 434 210 154 121 
-43 7 435 212 156 123 
-42 7 435 214 159 128 
-42 7 435 214 159 128 
-41 7 435 216 162 128 
-40 7 435 220 166 132 
-40 7 435 222 162 125 
-39 7 435 219 159 122 
-38 7 435 216 156 120 
-38 7 436 209 149 113 
-37 7 436 201 144 114 
-36 7 436 198 141 111 
-35 7 436 197 134 101 
-35 7 436 193 130 97 
-34 8 437 196 124 86 
-33 8 437 191 119 81 
-33 8 437 186 115 83 
-32 8 438 176 105 73 
-31 8 439 167 101 75 
-31 8 440 164 98 72 
-30 8 441 152 90 67 
-29 8 441 143 81 58 
-29 8 442 131 87 76 
-28 8 442 141 97 86 
-47 8 432 148 130 120 
-47 8 434 183 138 117 
-46 8 434 197 152 131 
-45 8 434 210 157 123 
-44 8 434 213 160 126 
-44 8 435 207 158 126 
-43 8 435 211 162 130 
-42 8 435 218 168 135 
-42 8 435 219 169 136 
-41 8 435 223 167 132 
-40 8 435 222 166 131 
-40 8 435 220 158 119 
-39 8 435 215 153 114 
-38 8 435 213 149 113 
-38 8 436 207 143 107 
-37 8 436 201 141 107 
-36 8 436 198 138 104 
-35 8 436 195 131 96 
-35 8 437 189 125 90 
-34 8 437 189 117 79 
-33 8 437 182 110 72 
-33 8 437 178 107 75 
-32 8 439 170 99 67 
-31 8 439 159 94 66 
-31 8 440 153 88 60 
-30 8 441 140 85 65 
-29 8 442 139 84 64 
-29 8 442 123 92 87 
-28 8 442 129 98 93 
-48 9 431 157 119 96 
-47 9 432 178 140 117 
-46 9 433 198 148 115 
-46 9 434 206 156 123 
-45 9 433 209 159 124 
-44 9 433 212 162 127 
-44 9 434 211 161 128 
-43 9 434 217 167 134 
-42 9 434 223 173 138 
-42 9 434 223 173 138 
-41 9 434 223 167 132 
-40 9 434 219 163 128 
-40 9 434 216 154 117 
-39 9 434 211 149 112 
-38 9 435 209 143 108 
-37 9 435 204 138 103 
-37 9 435 200 134 99 
-36 9 436 195 129 94 
-35 9 436 190 121 88 
-35 9 437 184 115 82 
-34 9 437 178 108 74 
-33 9 437 172 102 68 
-33 9 438 168 99 68 
-32 9 439 160 91 60 
-31 9 440 150 86 58 
-31 9 440 143 79 51 
-30 9 441 126 82 69 
-29 9 442 132 88 75 
-29 9 443 116 100 101 
-28 9 443 117 101 102 
-48 10 431 161 128 113 
-48 10 432 196 142 108 
-47 10 433 207 153 119 
-46 10 433 206 154 114 
-46 10 434 214 162 122 
-45 10 433 216 167 135 
-44 10 433 218 169 137 
-44 10 434 224 170 134 
-43 10 434 228 174 138 
-42 10 434 232 178 142 
-42 10 434 227 173 137 
-41 10 434 221 165 130 
-40 10 434 214 158 123 
-40 10 434 210 150 116 
-39 10 434 207 147 113 
-38 10 435 204 138 104 
-37 10 435 198 132 98 
-37 10 435 195 125 91 
-36 10 435 189 119 85 
-35 10 436 181 112 79 
-35 10 437 176 107 74 
-34 10 437 168 101 72 
-33 10 438 161 94 65 
-33 10 438 156 89 60 
-32 10 440 149 82 53 
-31 10 440 144 80 52 
-31 10 440 142 78 50 
-30 10 441 119 85 75 
-29 10 442 125 91 81 
-29 10 443 108 101 108 
-49 10 431 173 124 92 
-48 10 432 191 142 110 
-48 10 433 204 152 115 
-47 10 433 210 158 121 
-46 10 433 210 163 133 
-46 10 433 211 164 134 
-45 10 433 219 166 135 
-44 10 433 219 166 135 
-44 10 433 233 179 145 
-43 10 434 234 180 146 
-42 10 433 232 177 146 
-42 10 433 225 170 139 
-41 10 433 219 163 128 
-40 10 434 211 155 120 
-40 10 434 207 145 104 
-39 10 434 202 140 99 
-38 10 435 199 131 92 
-37 10 435 196 128 89 
-37 10 435 193 120 88 
-36 10 436 188 115 83 
-35 10 436 182 110 86 
-35 10 437 175 103 79 
-34 10 437 162 94 71 
-33 10 438 157 89 66 
-33 10 438 150 84 60 
-32 10 439 142 76 52 
-31 10 440 137 76 57 
-31 10 440 133 72 53 
-30 10 441 114 92 95 
-29 10 442 116 94 97 
-29 10 442 109 104 108 
-50 11 430 160 131 115 
-49 11 431 194 145 112 
-48 11 432 206 157 124 
-48 11 433 215 163 126 
-47 11 433 218 166 129 
-46 11 433 217 168 136 
-46 11 433 218 169 137 
-45 11 433 225 172 141 
-44 11 433 226 173 142 
-44 11 433 231 178 146 
-43 11 433 228 175 143 
-42 11 433 225 170 139 
-42 11 433 219 164 133 
-41 11 433 215 157 120 
-40 11 433 208 150 113 
-40 11 434 203 140 99 
-39 11 434 196 133 92 
-38 11 435 193 125 86 
-37 11 435 189 121 82 
-37 11 435 185 114 84 
-36 11 436 180 109 79 
-35 11 436 174 104 79 
-35 11 437 166 96 71 
-34 11 437 158 87 65 
-33 11 438 152 81 59 
-33 11 438 143 79 54 
-32 11 439 140 76 51 
-31 11 440 120 74 59 
-31 11 440 123 77 62 
-30 11 441 110 94 95 
-50 12 429 172 132 107 
-50 12 431 189 149 124 
-49 12 432 204 155 122 
-48 12 432 210 161 128 
-48 12 432 215 165 128 
-47 12 433 219 169 132 
-46 12 433 224 171 137 
-46 12 432 226 173 139 
-45 12 432 226 175 146 
-44 12 432 228 177 148 
-44 12 433 230 177 146 
-43 12 433 224 171 140 
-42 12 433 219 166 134 
-42 12 433 214 161 129 
-41 12 433 210 152 115 
-40 12 433 202 144 107 
-40 12 434 201 133 94 
-39 12 434 192 124 85 
-38 12 435 189 119 83 
-37 12 435 183 113 77 
-37 12 435 176 110 78 
-36 12 436 172 106 74 
-36 12 437 165 98 71 
-35 12 437 158 91 64 
-34 12 438 156 81 58 
-33 12 438 149 74 51 
-33 12 439 133 72 51 
-32 12 440 135 74 53 
-32 12 441 98 69 63 
-31 12 441 112 83 77 
-50 12 430 200 149 118 
-50 12 431 208 157 126 
-49 12 431 207 161 127 
-48 12 432 210 164 130 
-48 12 432 217 169 131 
-47 12 432 223 175 137 
-46 12 433 234 180 142 
-46 12 432 235 181 143 
-45 12 432 227 176 147 
-44 12 432 227 176 147 
-44 12 432 229 176 145 
-43 12 433 222 169 138 
-42 12 433 218 164 130 
-42 12 433 211 157 123 
-41 12 433 207 145 108 
-40 12 433 198 136 99 
-40 12 434 198 126 88 
-39 12 434 191 119 81 
-38 12 434 187 114 79 
-37 12 435 181 108 73 
-37 12 435 171 105 71 
-36 12 436 167 101 67 
-36 12 437 159 92 65 
-35 12 437 151 84 57 
-34 13 438 149 74 51 
-34 13 439 145 70 47 
-33 13 440 126 75 56 
-32 13 440 129 78 59 
-32 13 441 78 66 68 
-51 13 428 175 130 107 
-51 13 430 195 150 127 
-50 13 431 215 161 127 
-50 13 431 220 166 132 
-49 13 431 214 167 137 
-48 13 432 218 171 141 
-48 13 432 222 176 142 
-47 13 432 227 181 147 
-46 13 432 238 184 148 
-46 13 432 236 182 146 
-45 13 432 227 173 145 
-44 13 432 225 171 143 
-44 13 433 227 174 143 
-43 13 433 219 166 135 
-42 13 433 214 158 123 
-42 13 433 206 150 115 
-41 13 433 202 137 99 
-40 13 434 193 128 90 
-40 13 434 193 119 82 
-39 13 435 188 114 77 
-38 13 435 182 109 76 
-37 13 435 176 103 70 
-37 13 436 162 97 65 
-36 13 437 156 91 59 
-36 13 437 149 85 57 
-35 13 438 141 77 49 
-34 13 438 136 70 46 
-34 13 439 136 70 46 
-33 13 440 121 89 76 
-32 13 441 118 86 73 
-32 13 442 69 66 73 
-52 14 428 165 134 116 
-52 14 429 202 151 124 
-51 14 430 210 159 132 
-50 14 431 217 162 131 
-50 14 431 225 170 139 
-49 14 431 218 171 141 
-48 14 432 225 178 148 
-48 14 432 227 181 148 
-47 14 432 228 182 149 
-46 14 432 236 181 150 
-46 14 432 232 177 146 
-45 14 432 227 170 140 
-44 14 432 226 169 139 
-44 14 432 222 167 136 
-43 14 433 214 159 128 
-42 14 433 213 150 115 
-42 14 433 205 142 107 
-41 14 433 201 131 95 
-40 14 434 192 122 86 
-40 14 434 188 115 80 
-39 14 434 182 109 74 
-38 14 435 174 103 71 
-38 14 436 167 96 64 
-37 14 437 153 88 58 
-36 14 437 147 82 52 
-36 14 437 139 79 53 
-35 14 438 133 73 47 
-34 14 439 128 73 52 
-34 14 439 131 76 55 
-33 14 440 118 105 99 
-52 14 429 192 150 125 
-52 14 430 215 160 129 
-51 14 430 218 163 132 
-50 14 430 219 168 137 
-50 14 430 224 173 142 
-49 14 431 224 177 147 
-48 14 431 232 185 155 
-48 14 431 231 184 154 
-47 14 431 229 182 152 
-46 14 431 233 180 149 
-46 14 431 229 176 145 
-45 14 431 230 170 136 
-44 14 431 226 166 132 
-43 14 431 215 159 126 
-43 14 432 205 149 116 
-42 14 432 206 140 106 
-41 14 432 201 135 101 
-41 14 433 198 125 92 
-40 15 434 191 118 85 
-40 15 435 181 110 78 
-39 15 435 171 100 68 
-38 15 435 167 98 67 
-38 15 436 158 89 58 
-37 15 437 145 80 52 
-36 15 437 140 75 47 
-36 15 438 130 73 53 
-35 15 439 130 73 53 
-34 15 439 126 83 66 
-34 15 440 133 90 73 
-53 15 429 197 148 115 
-52 15 429 205 156 123 
-52 15 430 216 160 125 
-51 15 430 225 169 134 
-50 15 430 226 177 145 
-50 15 430 226 177 145 
-49 15 430 231 182 150 
-48 15 431 238 189 157 
-48 15 431 235 186 156 
-47 15 431 230 181 151 
-46 15 431 229 176 145 
-46 15 431 224 171 140 
-45 15 431 227 163 125 
-44 15 431 218 154 116 
-43 15 431 206 150 115 
-43 15 432 196 140 105 
-42 15 432 199 130 97 
-41 15 432 196 127 94 
-41 15 433 191 118 85 
-40 15 434 186 113 80 
-40 15 435 174 108 76 
-39 15 435 161 95 63 
-38 15 436 158 93 63 
-38 15 436 147 82 52 
-37 15 437 139 73 47 
-36 15 438 135 69 43 
-36 15 439 123 71 50 
-35 15 439 127 75 54 
-34 15 439 125 92 75 
-34 15 440 135 102 85 
-54 16 429 192 142 117 
-53 16 429 206 153 122 
-52 16 430 212 159 128 
-52 16 430 220 166 130 
-51 16 430 224 170 134 
-50 16 430 224 174 137 
-50 16 430 227 177 140 
-49 16 430 238 192 158 
-48 16 431 235 189 155 
-48 16 431 232 186 153 
-47 16 431 228 182 149 
-46 16 431 228 174 140 
-46 16 431 219 165 131 
-45 16 431 213 153 117 
-44 16 431 206 146 110 
-43 16 431 208 139 100 
-43 16 432 202 133 94 
-42 16 432 193 129 93 
-42 16 433 185 121 85 
-41 16 433 182 118 80 
-40 16 434 180 116 78 
-40 16 434 168 102 67 
-39 16 435 159 93 58 
-38 16 436 150 83 57 
-38 16 437 141 74 48 
-37 16 438 134 66 43 
-36 16 438 132 64 41 
-36 16 439 123 79 68 
-35 16 440 136 92 81 
-34 16 439 112 107 113 
-34 16 439 112 107 113 
-54 16 428 190 139 110 
-54 16 429 201 150 121 
-53 16 429 212 159 127 
-52 16 430 219 166 134 
-52 16 430 225 171 137 
-51 16 430 228 174 140 
-50 16 430 233 180 148 
-50 16 430 238 185 153 
-49 16 430 236 187 155 
-48 16 430 230 181 149 
-48 17 431 227 178 146 
-47 17 431 227 178 146 
-46 17 431 225 169 136 
-46 17 431 213 157 124 
-45 17 431 206 144 107 
-44 17 431 198 136 99 
-43 17 431 196 131 93 
-43 17 431 192 127 89 
-42 17 432 187 123 87 
-42 17 433 180 116 80 
-41 17 433 174 111 78 
-40 17 434 171 108 75 
-40 17 434 160 97 66 
-39 17 435 151 88 57 
-38 17 436 143 77 51 
-38 17 438 135 69 43 
-37 17 438 122 69 53 
-36 17 439 128 75 59 
-36 17 440 120 95 91 
-35 17 440 128 103 99 
-55 17 428 190 148 124 
-54 17 429 205 152 118 
-54 17 429 212 159 125 
-53 17 429 218 165 131 
-52 17 430 223 170 136 
-52 17 430 229 174 143 
-51 17 430 233 178 147 
-50 17 430 237 184 153 
-50 17 430 239 186 155 
-49 17 430 236 185 156 
-48 17 431 226 175 146 
-48 17 431 224 171 140 
-47 17 431 223 170 139 
-46 17 431 218 160 123 
-46 17 431 205 147 110 
-45 17 431 199 136 95 
-44 17 431 192 129 88 
-43 17 431 188 124 86 
-43 17 431 185 121 83 
-42 17 432 181 116 78 
-42 17 433 174 109 71 
-41 17 434 166 103 72 
-40 17 434 162 99 68 
-40 17 434 152 91 63 
-39 17 436 144 83 55 
-38 17 437 137 75 52 
-38 18 438 131 69 46 
-37 18 438 114 80 71 
-56 18 428 200 147 115 
-55 18 429 209 156 124 
-54 18 429 212 160 120 
-54 18 429 219 167 127 
-53 18 429 222 170 133 
-52 18 429 225 173 136 
-52 18 429 231 178 146 
-51 18 430 237 184 152 
-50 18 430 237 183 155 
-50 18 430 232 178 150 
-49 18 430 234 180 154 
-48 18 431 225 171 145 
-48 18 431 221 164 134 
-47 18 431 215 158 128 
-46 18 431 209 146 111 
-46 18 431 198 135 100 
-45 18 431 193 128 88 
-44 18 432 187 122 82 
-44 18 432 186 117 75 
-43 18 432 183 114 72 
-42 18 433 175 107 70 
-42 18 433 169 101 64 
-41 18 434 160 93 64 
-40 18 434 154 87 58 
-40 18 435 147 82 54 
-39 18 436 140 75 47 
-38 18 437 126 74 53 
-38 18 437 128 76 55 
-37 18 438 113 94 90 
-56 18 427 186 150 124 
-56 18 428 208 152 115 
-55 19 428 217 161 124 
-54 19 429 218 167 124 
-54 19 429 222 171 128 
-53 19 429 224 174 137 
-52 19 429 230 180 143 
-52 19 429 235 184 153 
-51 19 430 236 185 154 
-50 19 430 235 181 153 
-50 19 430 230 176 148 
-49 19 430 229 172 145 
-48 19 431 223 166 139 
-48 19 431 219 158 127 
-47 19 431 209 148 117 
-46 19 431 199 135 99 
-46 19 431 190 126 90 
-45 19 431 185 120 80 
-44 19 432 180 115 75 
-44 19 432 185 111 66 
-43 19 432 181 107 62 
-42 19 433 166 100 66 
-42 19 434 158 92 58 
-41 19 434 153 84 55 
-40 19 435 145 76 47 
-40 19 436 136 70 44 
-39 19 436 132 66 40 
-38 19 437 118 80 69 
-38 19 438 126 88 77 
-37 19 439 115 106 109 
-56 19 428 200 156 127 
-56 19 428 215 159 122 
-55 19 428 220 164 127 
-54 19 428 222 169 127 
-54 19 429 224 171 129 
-53 19 429 228 178 141 
-52 19 429 237 187 150 
-52 19 429 237 188 156 
-51 19 429 231 182 150 
-50 19 430 228 177 146 
-50 19 430 227 176 145 
-49 19 430 227 168 136 
-48 19 430 219 160 128 
-48 19 431 213 149 114 
-47 19 431 201 137 102 
-46 19 431 192 124 87 
-46 19 431 186 118 81 
-45 19 431 182 114 77 
-44 19 432 177 109 72 
-44 19 432 179 105 66 
-43 19 433 174 100 61 
-42 19 433 159 94 66 
-42 19 434 150 85 57 
-41 20 435 142 76 50 
-40 20 436 135 69 43 
-40 20 436 122 69 51 
-39 20 437 124 71 53 
-57 20 426 187 153 128 
-57 20 427 204 155 123 
-56 20 428 211 162 130 
-56 20 428 223 171 134 
-55 20 428 223 171 134 
-54 20 428 225 170 131 
-54 20 429 231 176 137 
-53 20 429 235 185 150 
-52 20 429 238 188 153 
-52 20 429 231 182 150 
-51 20 429 224 175 143 
-50 20 430 225 172 140 
-50 20 430 222 169 137 
-49 20 430 222 162 126 
-48 20 430 208 148 112 
-48 20 430 203 135 98 
-47 20 431 194 126 89 
-46 20 431 185 115 79 
-46 20 431 180 110 74 
-45 20 431 177 106 74 
-44 20 432 173 102 70 
-44 20 432 169 100 71 
-43 20 433 161 92 63 
-42 20 434 152 85 56 
-42 20 434 143 76 47 
-41 20 435 130 72 50 
-40 20 436 127 69 47 
-40 20 437 111 78 71 
-39 20 438 120 87 80 
-58 20 426 189 148 120 
-57 20 426 194 153 125 
-57 21 427 211 158 124 
-56 21 428 222 169 135 
-56 21 428 224 174 139 
-55 21 428 227 177 142 
-54 21 428 229 173 136 
-54 21 428 241 185 148 
-53 21 428 245 192 158 
-52 21 429 237 184 150 
-52 21 429 222 173 140 
-51 21 429 220 171 138 
-50 21 430 224 172 135 
-50 21 430 216 164 127 
-49 21 430 214 152 113 
-48 21 431 197 135 96 
-48 21 431 192 123 84 
-47 21 431 188 119 80 
-46 21 431 182 109 74 
-46 21 432 175 102 67 
-45 21 432 172 98 69 
-44 21 432 168 94 65 
-44 21 433 156 91 69 
-43 21 433 147 82 60 
-42 21 435 149 76 44 
-42 21 435 143 70 38 
-41 21 435 124 72 51 
-40 21 436 125 73 52 
-40 21 437 104 86 86 
-59 21 426 177 141 115 
-58 21 426 205 150 119 
-58 21 427 208 153 122 
-57 21 427 208 164 125 
-56 21 428 218 174 135 
-56 21 428 228 175 144 
-55 21 427 230 177 146 
-54 21 427 241 187 149 
-54 21 428 248 194 156 
-53 21 428 243 191 154 
-52 21 428 230 178 141 
-52 21 429 223 167 130 
-51 21 429 220 164 127 
-50 21 429 222 156 121 
-50 21 430 212 146 111 
-49 21 430 208 135 100 
-48 21 430 197 124 89 
-48 21 431 190 117 84 
-47 21 431 185 112 79 
-46 21 431 173 107 73 
-46 22 432 168 102 68 
-45 22 432 162 97 65 
-44 22 433 156 91 59 
-44 22 433 150 82 59 
-43 22 434 142 74 51 
-42 22 435 129 73 58 
-42 22 436 125 69 54 
-41 22 436 112 83 77 
-59 22 425 185 143 118 
-59 22 426 195 153 128 
-58 22 426 211 161 128 
-58 22 427 218 168 135 
-57 22 427 221 171 136 
-56 22 427 222 172 137 
-56 22 427 226 177 144 
-55 22 427 233 184 151 
-54 22 427 250 196 158 
-54 22 428 246 192 154 
-53 22 428 233 181 142 
-52 22 428 222 170 131 
-51 22 428 217 161 124 
-51 22 429 214 158 121 
-50 22 429 213 148 110 
-50 22 429 203 138 100 
-49 22 430 198 125 90 
-48 22 430 188 115 80 
-48 22 431 181 108 75 
-47 22 431 177 104 71 
-46 22 431 165 99 67 
-46 22 432 158 92 60 
-45 22 432 150 87 54 
-44 22 433 145 82 49 
-44 22 434 139 72 53 
-43 22 434 135 68 49 
-42 22 435 117 73 60 
-42 22 436 118 74 61 
-41 22 437 106 91 86 
-59 23 425 198 148 121 
-59 23 426 207 157 130 
-58 23 427 214 165 132 
-58 23 427 222 173 140 
-57 23 427 230 173 143 
-56 23 427 229 172 142 
-56 23 427 229 185 148 
-55 23 427 238 194 157 
-54 23 427 249 197 160 
-54 23 428 238 186 149 
-53 23 428 225 173 134 
-52 23 428 218 166 127 
-51 23 428 215 157 119 
-51 23 429 207 149 111 
-50 23 429 205 137 98 
-50 23 429 194 126 87 
-49 23 430 194 120 85 
-48 23 430 185 111 76 
-48 23 430 177 104 72 
-47 23 431 172 99 67 
-46 23 431 159 94 62 
-46 23 432 150 85 53 
-45 23 433 141 80 49 
-44 23 434 137 76 45 
-44 23 434 128 69 55 
-43 23 435 126 67 53 
-43 23 436 105 75 65 
-60 23 425 199 155 130 
-59 23 425 206 155 124 
-59 23 426 217 166 135 
-58 23 426 222 171 140 
-57 23 426 224 173 142 
-57 23 426 230 173 143 
-56 23 426 235 178 148 
-55 23 426 235 191 154 
-55 23 426 236 192 155 
-54 23 427 236 182 146 
-53 23 427 230 176 140 
-53 23 427 223 168 129 
-52 23 428 217 162 123 
-51 23 428 213 151 110 
-51 23 429 200 138 97 
-50 23 429 195 126 85 
-50 24 430 187 118 77 
-49 24 430 185 111 76 
-48 24 430 177 103 68 
-48 24 431 169 95 66 
-47 24 431 164 90 61 
-46 24 432 148 84 56 
-46 24 433 139 75 47 
-45 24 434 128 73 43 
-44 24 434 126 71 41 
-44 24 435 119 76 67 
-61 24 424 199 150 120 
-60 24 425 206 157 127 
-59 24 425 214 164 129 
-59 24 425 224 174 139 
-58 24 425 230 175 145 
-57 24 426 231 176 146 
-57 24 426 230 179 148 
-56 24 425 234 183 152 
-55 24 425 234 188 152 
-55 24 425 226 180 144 
-54 24 426 226 167 133 
-53 24 426 225 166 132 
-53 24 427 220 161 121 
-52 24 428 212 153 113 
-51 24 428 204 139 97 
-51 24 429 191 126 84 
-50 24 430 187 116 74 
-50 24 430 180 109 67 
-49 24 430 176 102 67 
-48 24 431 167 93 58 
-48 24 431 157 86 56 
-47 24 432 150 79 49 
-46 24 433 130 73 46 
-46 24 433 125 68 41 
-45 24 434 119 72 46 
-45 24 435 119 72 46 
-61 25 424 214 165 132 
-60 25 424 220 171 138 
-59 25 425 218 170 134 
-59 25 425 223 175 139 
-58 25 425 232 177 147 
-57 25 425 238 183 153 
-57 25 425 236 187 155 
-56 25 425 234 185 153 
-55 25 425 230 180 147 
-55 25 425 220 170 137 
-54 25 426 222 162 126 
-53 25 426 221 161 125 
-53 25 427 215 152 111 
-52 25 427 203 140 99 
-51 25 428 196 127 85 
-51 25 429 185 116 74 
-50 25 430 177 106 64 
-50 25 430 170 99 57 
-49 25 430 167 94 59 
-48 25 431 157 84 49 
-48 25 432 144 79 51 
-47 25 433 137 72 44 
-46 25 433 119 69 46 
-46 25 433 119 69 46 
-45 25 435 116 79 60 
-45 25 436 119 82 63 
-61 25 424 210 164 130 
-61 25 424 221 173 137 
-60 25 425 227 179 143 
-59 25 425 228 178 145 
-59 25 425 229 179 146 
-58 25 425 238 185 154 
-57 25 425 244 191 160 
-57 25 425 240 189 158 
-56 25 425 232 181 150 
-55 25 425 226 171 141 
-55 25 426 218 163 133 
-54 25 426 220 156 121 
-53 25 427 214 150 115 
-53 25 427 205 137 98 
-52 25 428 194 126 87 
-51 25 428 187 115 75 
-51 26 429 176 104 64 
-50 26 430 167 95 55 
-50 26 430 158 86 46 
-49 26 431 153 83 49 
-48 26 432 144 74 40 
-48 26 433 129 69 41 
-47 26 433 127 67 39 
-47 26 434 114 71 52 
-46 26 435 119 76 57 
-62 26 423 211 163 125 
-61 26 424 223 175 137 
-61 26 424 227 179 141 
-60 26 424 234 186 148 
-59 26 424 234 181 149 
-59 26 425 235 182 150 
-58 26 425 237 188 156 
-57 26 425 236 187 155 
-57 26 425 233 178 147 
-56 26 426 226 171 140 
-55 26 426 220 163 134 
-55 26 426 213 156 127 
-54 26 427 211 147 111 
-53 26 427 203 139 103 
-53 26 428 193 125 88 
-52 26 428 184 116 79 
-52 26 429 177 105 65 
-51 26 430 166 94 54 
-50 26 430 157 85 47 
-50 26 431 149 77 39 
-49 26 432 142 76 42 
-49 26 433 135 69 35 
-48 27 434 123 67 42 
-63 27 423 198 147 126 
-62 27 423 218 167 136 
-61 27 424 221 170 139 
-61 27 424 226 180 146 
-60 27 424 231 185 151 
-59 27 424 245 192 161 
-59 27 424 241 188 157 
-58 27 425 240 194 160 
-57 27 425 230 184 150 
-57 27 425 232 176 141 
-56 27 426 222 166 131 
-55 27 426 225 159 125 
-55 27 426 212 146 112 
-54 27 427 204 139 99 
-54 27 428 195 130 90 
-53 27 428 191 113 77 
-52 27 429 182 104 68 
-52 27 429 167 99 62 
-51 27 430 158 90 53 
-50 27 431 148 82 48 
-50 27 432 144 78 44 
-49 27 432 127 71 48 
-49 27 433 128 72 49 
-48 27 434 110 87 71 
-63 27 423 172 120 99 
-62 27 423 207 154 123 
-61 27 424 231 178 147 
-61 27 424 234 184 151 
-60 27 424 238 188 155 
-59 27 424 243 186 156 
-59 27 424 243 186 156 
-58 27 425 238 188 153 
-57 27 425 224 174 139 
-57 27 425 226 168 131 
-56 27 425 217 159 122 
-55 27 426 212 146 111 
-55 27 426 206 140 105 
-54 28 427 201 128 93 
-54 28 428 190 117 82 
-53 28 429 176 104 66 
-52 28 429 168 96 58 
-52 28 430 164 91 58 
-51 28 431 156 83 50 
-51 28 432 133 76 47 
-50 28 432 127 70 41 
-49 28 433 117 82 62 
-49 28 434 118 83 63 
-62 28 424 182 126 99 
-61 28 424 210 154 127 
-61 28 424 230 177 145 
-60 28 425 236 183 151 
-59 28 425 244 185 155 
-59 28 425 240 181 151 
-58 28 425 232 176 141 
-57 28 425 220 164 129 
-57 28 426 219 159 122 
-56 28 426 210 150 113 
-55 28 426 202 134 97 
-55 28 427 197 129 92 
-54 28 428 189 113 79 
-54 28 428 181 105 71 
-53 28 428 165 97 58 
-52 28 430 155 87 48 
-52 28 431 153 76 46 
-51 29 432 146 69 39 
-51 29 432 123 73 50 
-50 29 433 125 75 52 
-61 29 425 179 121 99 
-61 29 425 203 146 117 
-60 29 425 235 178 149 
-59 29 425 244 181 150 
-59 29 425 234 171 140 
-58 29 425 222 159 126 
-57 29 426 218 155 122 
-57 29 426 211 149 112 
-56 29 426 202 140 103 
-56 29 427 196 128 91 
-55 29 428 185 117 80 
-54 29 428 178 106 68 
-54 29 428 169 97 59 
-53 29 429 157 85 47 
-52 29 430 148 76 38 
-52 29 431 139 69 43 
-51 29 432 137 67 41 
-51 29 433 121 80 62 
-61 29 425 198 137 116 
-61 29 425 180 120 92 
-60 29 425 193 133 105 
-59 29 425 223 159 131 
-59 29 425 226 162 134 
-58 30 426 214 147 118 
-57 30 426 206 139 110 
-57 30 426 199 135 100 
-56 30 427 191 127 92 
-56 30 427 186 118 83 
-55 30 428 173 105 70 
-54 30 428 171 99 61 
-54 30 429 156 84 46 
-53 30 430 144 69 40 
-53 30 431 142 67 38 
-52 30 431 125 77 54 
-51 30 432 130 82 59 
-59 30 425 186 122 94 
-59 30 425 210 146 118 
-58 30 426 210 140 114 
-57 30 426 196 126 100 
-57 30 426 189 124 92 
-56 30 427 178 113 81 
-56 30 427 173 105 70 
-55 30 428 159 91 56 
-54 30 429 153 82 54 
-54 30 430 145 74 46 
-53 30 430 137 70 51 
-53 31 431 140 73 54 
-59 31 426 176 112 84 
-58 31 426 195 123 99 
-58 31 427 186 114 90 
-57 31 427 177 110 81 
-56 31 427 165 98 69 
-56 31 428 157 87 53 
-55 31 428 147 77 43 
-54 31 429 137 72 54 
-54 31 430 139 74 56 
-53 31 431 125 86 71 
-58 32 427 177 102 79 
-58 32 427 177 102 79 
-57 32 428 162 95 66 
-56 32 428 152 85 56 
-56 32 429 149 76 41 
-55 32 429 140 67 32 
-55 32 430 132 79 65 
-54 32 430 134 81 67 
-58 32 427 155 78 50 
-58 32 428 166 89 61 
-57 32 428 159 85 56 
-56 33 429 151 77 48 
-58 33 427 126 56 31 
-58 33 428 146 76 51 
-57 33 429 146 85 64 
-57 33 430 139 78 57 
-58 34 427 100 45 25 
-58 34 428 125 70 50 
