ply
format ascii 1.0
comment Created by CloudCompare v2.10.1 (Zephyrus)
comment Created 2020-05-17 12:57 AM
obj_info Generated by CloudCompare!
element vertex 1130
property float x
property float y
property float z
property uchar red
property uchar green
property uchar blue
end_header
-1 -16 387 254 203 184 
0 -16 387 254 203 184 
0 -16 387 255 203 185 
1 -16 387 255 202 184 
1 -16 387 253 202 183 
2 -16 387 251 200 181 
3 -16 387 254 192 169 
3 -16 388 250 188 165 
4 -16 388 247 186 157 
5 -16 389 239 178 149 
5 -16 389 228 168 142 
6 -16 390 224 164 138 
7 -16 391 215 152 137 
7 -16 392 184 121 106 
8 -16 392 141 78 73 
8 -16 393 135 72 67 
-7 -15 387 231 177 151 
-7 -15 386 239 185 159 
-6 -15 386 242 192 169 
-6 -15 386 251 201 178 
-5 -15 386 252 204 184 
-4 -15 386 255 208 188 
-4 -15 386 255 209 191 
-3 -15 386 255 211 193 
-2 -15 387 255 211 192 
-2 -15 387 255 211 192 
-1 -15 387 255 210 190 
0 -15 386 255 209 189 
0 -15 386 255 209 187 
1 -15 386 254 206 184 
1 -15 386 249 201 179 
2 -15 386 248 200 178 
3 -15 387 255 195 169 
3 -15 387 252 192 166 
4 -16 388 250 189 158 
5 -16 388 245 184 153 
5 -16 389 237 178 148 
6 -16 389 234 175 145 
7 -16 390 230 168 147 
7 -16 391 216 154 133 
8 -16 392 179 117 106 
8 -16 392 134 72 61 
-7 -15 386 243 193 166 
-7 -15 386 249 199 172 
-6 -15 386 249 203 179 
-6 -15 385 255 210 186 
-5 -15 385 254 212 190 
-4 -15 386 255 216 194 
-4 -15 386 255 216 194 
-3 -15 386 255 214 192 
-2 -15 386 251 213 190 
-2 -15 386 251 213 190 
-1 -15 386 252 212 187 
0 -15 386 250 210 185 
0 -15 386 250 208 184 
1 -15 386 246 204 180 
1 -15 386 249 203 180 
2 -15 386 247 201 178 
3 -15 387 251 196 166 
3 -15 387 247 192 162 
4 -15 387 247 188 154 
5 -15 388 243 184 150 
5 -15 388 239 180 146 
6 -15 388 235 176 142 
6 -15 389 234 173 144 
7 -15 390 225 164 135 
8 -15 391 213 150 133 
8 -15 391 159 96 79 
9 -15 392 105 30 35 
-12 -14 389 189 137 113 
-11 -14 388 207 153 127 
-11 -14 388 220 166 140 
-10 -14 387 231 177 151 
-9 -14 387 236 182 156 
-9 -14 387 239 188 161 
-8 -14 386 246 195 168 
-7 -14 386 246 199 173 
-7 -14 386 252 205 179 
-6 -14 385 254 209 186 
-6 -14 385 255 215 192 
-5 -14 385 255 217 194 
-4 -14 385 255 219 196 
-4 -14 385 255 221 199 
-3 -14 385 255 220 198 
-2 -14 386 254 218 194 
-2 -14 386 255 219 195 
-1 -14 386 253 217 191 
0 -14 386 251 215 189 
0 -14 386 252 215 189 
1 -14 385 251 214 188 
1 -14 385 253 209 184 
2 -14 386 250 206 181 
3 -14 386 253 200 169 
3 -14 386 249 196 165 
4 -14 386 250 194 157 
5 -14 387 248 192 155 
5 -14 388 245 187 150 
6 -14 388 241 183 146 
6 -14 388 241 178 143 
7 -14 389 232 169 134 
8 -14 390 229 167 142 
8 -14 390 205 143 118 
9 -14 391 126 50 52 
-12 -14 389 204 153 124 
-11 -14 388 216 162 134 
-11 -14 388 226 172 144 
-10 -14 387 235 179 152 
-9 -14 387 240 184 157 
-9 -14 387 238 188 161 
-8 -14 386 244 194 167 
-7 -14 386 244 197 171 
-7 -14 385 250 203 177 
-6 -14 385 252 210 186 
-6 -14 385 255 216 192 
-5 -14 385 255 218 197 
-4 -14 385 255 221 200 
-4 -14 385 255 220 198 
-3 -14 385 255 219 197 
-2 -14 385 252 217 195 
-2 -14 385 252 217 195 
-1 -14 385 252 216 192 
0 -14 385 251 215 191 
0 -14 385 252 216 190 
1 -14 385 253 217 191 
1 -14 385 255 214 189 
2 -14 385 255 211 186 
3 -14 385 255 205 174 
3 -14 386 254 203 172 
4 -14 386 255 203 167 
5 -14 386 254 200 164 
5 -14 387 251 193 156 
6 -14 387 246 188 151 
6 -14 388 249 185 149 
7 -14 388 243 179 143 
8 -14 389 232 171 142 
8 -14 389 228 167 138 
9 -14 390 171 96 93 
-14 -13 392 176 125 98 
-13 -13 391 188 137 110 
-13 -13 390 202 152 119 
-12 -13 389 212 162 129 
-11 -13 388 221 168 136 
-11 -13 387 227 174 142 
-10 -13 387 235 180 150 
-9 -13 386 240 185 155 
-9 -13 386 236 186 159 
-8 -13 386 242 192 165 
-7 -13 385 244 197 171 
-7 -13 385 251 204 178 
-6 -13 384 255 211 188 
-6 -13 384 255 217 194 
-5 -13 384 255 220 199 
-4 -13 384 255 223 202 
-4 -13 384 255 221 202 
-3 -13 384 255 221 202 
-2 -13 384 255 219 197 
-2 -13 384 254 218 196 
-1 -13 384 254 218 194 
0 -13 384 252 216 192 
0 -13 384 252 216 192 
1 -13 384 253 217 193 
1 -13 384 255 213 188 
2 -13 384 253 211 186 
3 -13 385 253 207 174 
3 -13 385 252 206 173 
4 -13 386 255 205 170 
5 -13 386 252 202 167 
5 -13 386 253 194 162 
6 -13 387 250 191 159 
6 -13 387 255 192 157 
7 -13 388 251 188 153 
8 -13 388 236 177 145 
8 -13 389 233 174 142 
9 -13 389 213 140 133 
-14 -12 391 185 134 103 
-13 -12 390 196 145 114 
-13 -12 389 207 157 120 
-12 -12 388 215 165 128 
-11 -12 388 221 171 136 
-11 -12 387 225 175 140 
-10 -12 387 233 178 148 
-9 -12 386 238 183 153 
-9 -12 386 232 185 157 
-8 -12 385 238 191 163 
-7 -12 385 243 196 170 
-7 -12 385 251 204 178 
-6 -12 384 255 210 187 
-6 -12 384 255 217 194 
-5 -12 384 255 219 198 
-4 -12 384 255 222 201 
-4 -12 384 255 222 203 
-3 -12 384 255 221 202 
-2 -12 384 255 220 198 
-2 -12 384 255 219 197 
-1 -12 384 255 217 196 
0 -12 384 253 215 194 
0 -12 383 253 215 192 
1 -12 384 252 214 191 
1 -12 384 254 215 186 
2 -12 384 250 211 182 
3 -12 384 251 208 174 
3 -12 385 250 207 173 
4 -12 385 252 206 173 
5 -12 386 251 205 172 
5 -12 386 255 200 171 
6 -12 386 255 198 169 
6 -12 386 255 197 163 
7 -12 387 251 191 157 
8 -12 387 241 185 150 
8 -12 388 232 176 141 
9 -12 388 229 162 146 
10 -12 389 155 88 72 
10 -12 390 125 26 46 
-16 -12 400 163 110 96 
-15 -12 393 175 122 108 
-14 -12 391 186 135 104 
-13 -12 389 197 146 115 
-13 -12 389 206 158 118 
-12 -12 388 214 166 126 
-11 -12 388 223 173 136 
-11 -12 387 227 177 140 
-10 -12 387 233 180 149 
-9 -12 386 240 187 156 
-9 -12 386 233 186 156 
-8 -12 385 240 193 163 
-7 -12 384 242 197 168 
-7 -12 384 250 205 176 
-6 -12 384 254 212 187 
-6 -12 384 255 219 194 
-5 -12 383 255 220 197 
-4 -12 384 255 223 200 
-4 -12 383 255 222 200 
-3 -12 383 255 222 200 
-2 -12 383 255 220 198 
-2 -12 383 255 219 197 
-1 -12 383 254 216 195 
0 -12 383 253 215 194 
0 -12 383 254 216 193 
1 -12 383 254 216 193 
1 -12 384 254 217 188 
2 -12 384 249 212 183 
3 -12 384 249 209 174 
3 -12 384 248 208 173 
4 -12 385 249 204 171 
5 -12 385 247 202 169 
5 -12 385 253 197 170 
6 -12 386 252 196 169 
6 -12 386 255 201 169 
7 -12 386 255 198 166 
8 -12 387 244 192 155 
8 -12 387 237 185 148 
9 -12 388 235 170 152 
10 -12 389 191 126 108 
10 -12 390 123 27 39 
-15 -11 393 181 124 97 
-14 -11 390 185 136 103 
-13 -11 389 197 148 115 
-13 -11 388 212 155 126 
-12 -11 388 221 164 135 
-11 -11 387 220 177 134 
-11 -11 387 224 181 138 
-10 -11 386 229 184 153 
-9 -11 386 235 190 159 
-9 -11 385 233 192 162 
-8 -11 384 238 197 167 
-7 -11 384 243 202 172 
-7 -11 384 247 206 176 
-6 -11 384 250 208 183 
-6 -11 384 254 212 187 
-5 -11 383 255 216 196 
-4 -11 383 255 217 197 
-4 -11 383 255 217 199 
-3 -11 383 255 216 198 
-2 -11 383 255 217 197 
-2 -11 383 255 216 196 
-1 -11 383 254 216 195 
0 -11 383 254 216 195 
0 -11 383 253 215 194 
1 -11 383 252 214 193 
1 -11 383 252 214 193 
2 -11 384 251 213 192 
3 -11 384 255 211 186 
3 -11 384 251 207 182 
4 -11 384 251 200 169 
5 -11 385 249 198 167 
5 -11 385 253 197 164 
6 -11 385 254 198 165 
6 -11 386 253 199 165 
7 -11 386 247 193 159 
8 -11 386 242 187 156 
8 -11 387 239 184 153 
9 -11 388 237 170 154 
10 -11 389 221 154 138 
10 -11 390 132 52 53 
-16 -11 399 176 119 92 
-15 -11 392 184 127 100 
-14 -11 390 193 143 110 
-13 -10 388 203 153 120 
-13 -10 387 216 159 129 
-12 -10 387 224 167 137 
-11 -10 387 224 179 137 
-11 -10 386 228 183 141 
-10 -10 386 234 188 155 
-9 -10 385 240 194 161 
-9 -10 385 240 197 165 
-8 -10 384 244 201 169 
-7 -10 384 248 204 175 
-7 -10 383 249 205 176 
-6 -10 383 252 208 183 
-5 -10 383 254 210 185 
-5 -10 383 254 212 190 
-4 -10 383 255 214 192 
-4 -10 383 255 212 193 
-3 -10 383 255 213 194 
-2 -10 383 255 214 195 
-2 -10 383 255 215 196 
-1 -10 383 255 214 192 
0 -10 383 254 213 191 
0 -10 383 254 213 191 
1 -10 383 253 212 190 
1 -10 383 252 214 195 
2 -10 384 251 213 194 
3 -10 384 253 212 184 
3 -10 384 250 209 181 
4 -10 384 252 203 170 
5 -10 385 248 199 166 
5 -10 385 251 199 162 
6 -10 385 252 200 163 
6 -10 385 251 199 162 
7 -10 386 249 197 160 
8 -10 386 242 189 157 
8 -10 387 237 184 152 
9 -10 387 234 172 151 
10 -10 388 230 168 147 
10 -10 389 164 91 82 
-15 -10 397 178 121 94 
-15 -10 391 186 129 102 
-14 -10 389 194 144 111 
-13 -10 388 202 152 119 
-13 -10 387 214 155 123 
-12 -10 386 222 163 131 
-11 -10 386 223 176 134 
-11 -10 386 228 181 139 
-10 -10 386 235 186 154 
-9 -10 385 242 193 161 
-9 -10 385 242 197 166 
-8 -10 384 248 203 172 
-7 -10 384 251 206 177 
-7 -10 383 252 207 178 
-6 -10 383 253 207 183 
-5 -10 383 253 207 183 
-5 -10 383 253 208 187 
-4 -10 383 255 210 189 
-4 -10 383 255 210 191 
-3 -10 383 255 210 191 
-2 -10 383 255 212 191 
-2 -10 383 255 212 191 
-1 -10 383 254 212 188 
0 -10 383 254 212 188 
0 -10 383 254 212 188 
1 -10 383 254 212 188 
1 -10 384 254 212 196 
2 -10 384 253 211 195 
3 -10 384 253 211 186 
3 -10 384 251 209 184 
4 -10 384 250 206 171 
5 -10 384 247 203 168 
5 -10 384 248 200 160 
6 -10 385 248 200 160 
6 -10 385 253 203 166 
7 -10 385 249 199 162 
8 -10 386 244 191 159 
8 -10 386 235 182 150 
9 -10 387 230 173 146 
10 -10 387 230 173 146 
10 -10 388 196 131 111 
-15 -9 395 181 124 97 
-14 -9 389 187 130 103 
-14 -9 388 192 142 109 
-13 -9 387 199 149 116 
-12 -9 386 208 152 117 
-12 -9 386 216 160 125 
-11 -9 386 220 173 131 
-11 -9 385 225 178 136 
-10 -9 385 234 184 151 
-9 -9 385 241 191 158 
-9 -9 385 239 192 162 
-8 -9 384 247 200 170 
-7 -9 384 252 207 178 
-7 -9 383 253 208 179 
-6 -9 383 253 207 183 
-5 -9 383 253 207 183 
-5 -9 383 254 207 187 
-4 -9 383 255 209 189 
-4 -9 383 254 209 188 
-3 -9 383 254 209 188 
-2 -9 383 254 209 188 
-2 -9 383 255 210 189 
-1 -9 383 255 211 188 
0 -9 383 255 211 188 
0 -9 383 254 212 187 
1 -9 383 253 211 186 
1 -9 383 255 211 196 
2 -9 383 255 209 194 
3 -9 384 253 208 185 
3 -9 384 253 208 185 
4 -9 384 252 207 174 
5 -9 384 248 203 170 
5 -9 384 249 201 163 
6 -9 385 248 200 162 
6 -9 385 255 203 166 
7 -9 385 248 196 159 
8 -9 386 245 191 157 
8 -9 386 237 183 149 
9 -9 387 229 172 142 
10 -9 387 225 168 138 
10 -9 388 214 154 126 
11 -9 389 101 41 13 
-15 -9 393 182 126 101 
-14 -9 389 186 130 105 
-14 -9 388 188 137 106 
-13 -9 387 196 145 114 
-12 -9 386 207 152 113 
-12 -9 386 216 161 122 
-11 -9 386 220 171 131 
-11 -8 385 225 176 136 
-10 -8 385 231 181 146 
-9 -8 385 237 187 152 
-9 -8 384 237 190 160 
-8 -8 384 243 196 166 
-7 -8 383 249 204 175 
-7 -8 383 253 208 179 
-6 -8 383 253 207 183 
-5 -8 382 253 207 183 
-5 -8 382 255 209 186 
-4 -8 383 255 210 187 
-4 -8 383 253 208 187 
-3 -8 383 252 207 186 
-2 -8 383 252 207 186 
-2 -8 383 253 208 187 
-1 -8 383 255 211 188 
0 -8 383 255 211 188 
0 -8 383 252 210 185 
1 -8 383 251 209 184 
1 -8 383 255 207 190 
2 -8 383 255 206 189 
3 -8 383 253 206 186 
3 -8 384 252 205 185 
4 -8 384 251 205 179 
5 -8 384 248 202 176 
5 -8 384 249 200 167 
6 -8 385 248 199 166 
6 -8 385 255 204 167 
7 -8 385 248 196 159 
8 -9 386 250 194 159 
8 -9 386 240 184 149 
9 -9 386 232 176 143 
10 -9 387 222 166 133 
10 -9 388 217 162 131 
11 -9 389 120 65 34 
-15 -8 391 178 124 98 
-14 -8 389 183 129 103 
-14 -8 388 186 135 104 
-13 -8 387 195 144 113 
-12 -8 386 205 152 110 
-12 -8 385 214 161 119 
-11 -8 385 222 170 131 
-11 -8 385 227 175 136 
-10 -8 385 232 179 145 
-9 -8 385 236 183 149 
-9 -8 384 237 191 158 
-8 -8 384 240 194 161 
-7 -8 383 246 199 171 
-7 -8 383 253 206 178 
-6 -8 382 253 207 183 
-5 -8 382 254 208 184 
-5 -8 382 254 208 185 
-4 -8 382 252 206 183 
-4 -8 383 251 204 184 
-3 -8 383 250 203 183 
-2 -8 383 249 204 183 
-2 -8 383 251 206 185 
-1 -8 383 254 209 186 
0 -8 383 254 209 186 
0 -8 383 253 209 184 
1 -8 383 251 207 182 
1 -8 383 255 204 185 
2 -8 383 255 204 185 
3 -8 383 253 205 185 
3 -8 383 252 204 184 
4 -8 384 249 203 179 
5 -8 384 247 201 177 
5 -8 384 246 200 167 
6 -8 385 245 199 166 
6 -8 385 254 202 165 
7 -8 385 251 199 162 
8 -8 386 253 195 158 
8 -8 386 241 183 146 
9 -8 386 231 175 142 
10 -8 386 225 169 136 
10 -8 387 216 163 131 
11 -8 389 140 87 55 
-16 -7 395 167 106 87 
-15 -7 390 175 119 94 
-14 -7 389 182 126 101 
-14 -7 387 188 135 104 
-13 -7 387 196 143 112 
-12 -7 386 205 151 107 
-12 -7 385 214 160 116 
-11 -7 385 223 171 134 
-11 -7 385 229 177 140 
-10 -7 384 235 181 147 
-9 -7 384 238 184 150 
-9 -7 384 239 190 157 
-8 -7 383 239 190 157 
-7 -7 383 244 195 165 
-7 -7 382 252 203 173 
-6 -7 382 253 206 180 
-5 -7 381 253 206 180 
-5 -7 381 252 204 181 
-4 -7 382 250 202 179 
-4 -7 382 249 201 179 
-3 -7 382 248 200 178 
-2 -7 383 246 199 179 
-2 -7 383 248 201 181 
-1 -7 383 252 206 183 
0 -7 383 253 207 184 
0 -7 383 252 206 182 
1 -7 383 251 205 181 
1 -7 383 253 202 181 
2 -7 383 254 203 182 
3 -7 383 253 203 180 
3 -7 383 252 202 179 
4 -7 383 249 202 174 
5 -7 384 248 201 173 
5 -7 384 246 197 164 
6 -7 384 243 194 161 
6 -7 385 249 197 160 
7 -7 385 249 197 160 
8 -7 386 249 190 156 
8 -7 386 240 181 147 
9 -7 386 230 174 139 
10 -7 387 228 172 137 
10 -7 387 215 163 124 
11 -7 389 157 105 66 
-16 -7 394 170 109 90 
-15 -7 389 175 119 94 
-14 -7 389 181 125 100 
-14 -7 387 181 128 97 
-13 -7 386 189 136 105 
-12 -7 386 199 145 101 
-12 -7 385 208 154 110 
-11 -7 385 220 166 130 
-11 -7 384 227 173 137 
-10 -7 384 231 177 143 
-9 -7 383 234 180 146 
-9 -7 383 239 189 154 
-8 -7 383 238 188 153 
-7 -7 382 241 190 159 
-7 -7 382 249 198 167 
-6 -7 381 252 202 177 
-5 -7 381 252 202 177 
-5 -7 381 251 201 178 
-4 -7 381 251 201 178 
-4 -7 381 248 197 176 
-3 -7 381 247 196 175 
-2 -7 382 244 196 174 
-2 -7 382 247 199 177 
-1 -7 382 252 204 182 
0 -7 382 254 206 184 
0 -7 382 251 204 178 
1 -7 382 249 202 176 
1 -7 382 254 202 180 
2 -7 382 254 202 180 
3 -7 382 253 201 177 
3 -7 382 252 200 176 
4 -7 383 251 202 170 
5 -7 383 250 201 169 
5 -7 384 245 197 159 
6 -7 384 239 191 153 
6 -7 384 251 197 161 
7 -7 385 252 198 162 
8 -7 385 248 187 156 
8 -7 386 245 184 153 
9 -7 386 232 173 139 
10 -7 387 228 169 135 
10 -7 388 211 160 117 
11 -7 389 166 115 72 
-16 -6 393 164 109 89 
-15 -6 389 174 117 88 
-14 -6 388 175 118 89 
-14 -6 387 183 124 92 
-13 -6 386 189 130 98 
-12 -6 386 193 143 106 
-12 -6 385 203 153 116 
-11 -6 385 213 164 124 
-11 -6 384 223 174 134 
-10 -6 384 235 178 135 
-9 -6 383 235 178 135 
-9 -6 383 234 188 155 
-8 -6 382 234 188 155 
-7 -6 382 238 192 159 
-7 -6 382 245 199 166 
-6 -6 381 250 203 173 
-5 -6 381 249 202 172 
-5 -6 381 249 200 170 
-4 -6 381 249 200 170 
-4 -6 381 249 200 170 
-3 -6 381 247 198 168 
-2 -6 382 246 195 168 
-2 -6 382 248 197 170 
-1 -6 382 252 201 174 
0 -6 382 254 203 176 
0 -6 382 254 203 176 
1 -6 382 253 202 175 
1 -6 382 251 200 171 
2 -6 382 253 202 173 
3 -6 382 252 201 172 
3 -6 382 251 200 171 
4 -6 383 251 201 168 
5 -6 383 248 198 165 
5 -6 384 247 193 155 
6 -6 384 244 190 152 
6 -6 384 247 194 154 
7 -6 385 246 193 153 
8 -6 385 241 187 151 
8 -6 386 237 183 147 
9 -6 386 233 177 144 
10 -6 387 222 166 133 
10 -6 388 216 160 125 
11 -6 388 180 124 89 
12 -6 388 98 21 39 
12 -6 389 95 18 36 
-16 -5 392 161 106 86 
-15 -5 389 169 114 84 
-14 -5 388 172 117 87 
-14 -5 387 181 122 88 
-13 -5 386 188 129 95 
-12 -5 386 192 143 103 
-12 -5 385 201 152 112 
-11 -5 385 211 162 122 
-11 -5 384 222 173 133 
-10 -5 384 232 178 134 
-9 -5 383 232 178 134 
-9 -5 383 230 181 151 
-8 -5 382 231 182 152 
-7 -5 382 239 190 160 
-7 -5 382 247 198 168 
-6 -5 382 248 199 169 
-5 -5 381 247 198 168 
-5 -5 381 246 197 167 
-4 -5 381 243 194 164 
-4 -5 381 245 194 167 
-3 -5 381 244 193 166 
-2 -5 382 244 193 166 
-2 -5 382 247 196 169 
-1 -5 381 251 200 173 
0 -5 382 252 201 174 
0 -5 382 253 199 173 
1 -5 382 251 197 171 
1 -5 382 249 195 167 
2 -5 382 250 196 168 
3 -5 382 250 196 168 
3 -5 383 249 195 167 
4 -5 383 248 195 163 
5 -5 383 245 192 160 
5 -5 383 243 189 151 
6 -5 384 242 188 150 
6 -5 384 243 188 149 
7 -5 384 243 188 149 
8 -5 385 239 183 148 
8 -5 386 234 178 143 
9 -5 386 230 174 139 
10 -5 387 221 165 130 
10 -5 388 218 159 125 
11 -5 388 186 127 93 
12 -5 389 103 19 34 
12 -5 389 103 19 34 
-16 -5 392 157 105 84 
-15 -5 390 167 111 84 
-14 -5 388 171 115 88 
-14 -5 387 181 122 88 
-13 -5 386 187 128 94 
-12 -5 385 192 140 101 
-12 -5 385 201 149 110 
-11 -5 385 209 160 120 
-11 -5 384 220 171 131 
-10 -5 384 229 176 136 
-9 -5 383 229 176 136 
-9 -5 383 225 176 144 
-8 -5 382 229 180 148 
-7 -5 382 238 189 157 
-7 -5 382 246 197 165 
-6 -5 382 247 196 165 
-5 -5 381 246 195 164 
-5 -5 381 245 194 165 
-4 -5 381 240 189 160 
-4 -5 381 240 186 158 
-3 -5 381 242 188 160 
-2 -5 381 244 190 162 
-2 -5 382 248 194 166 
-1 -5 381 250 196 168 
0 -5 382 250 196 168 
0 -5 382 248 194 166 
1 -5 382 247 193 165 
1 -5 382 249 193 166 
2 -5 382 249 193 166 
3 -5 383 248 193 163 
3 -5 383 247 192 162 
4 -5 383 245 191 157 
5 -5 383 242 188 154 
5 -5 384 241 185 148 
6 -5 384 240 184 147 
6 -5 384 240 185 146 
7 -5 385 241 186 147 
8 -5 385 239 183 146 
8 -5 385 233 177 140 
9 -5 386 230 174 137 
10 -5 386 221 165 128 
10 -5 387 216 158 121 
11 -5 388 185 127 90 
12 -5 389 102 20 32 
12 -5 389 102 20 32 
-16 -4 393 154 101 85 
-15 -4 390 165 111 85 
-14 -4 388 169 115 89 
-14 -4 387 178 122 89 
-13 -4 386 184 128 95 
-12 -4 385 191 139 102 
-12 -4 385 199 147 110 
-11 -4 385 207 157 122 
-11 -4 384 216 166 131 
-10 -4 384 224 170 134 
-9 -4 383 225 171 135 
-9 -4 383 224 174 139 
-8 -4 382 229 179 144 
-7 -4 382 237 187 154 
-7 -4 382 242 192 159 
-6 -4 382 242 192 159 
-5 -4 382 242 192 159 
-5 -4 381 241 188 156 
-4 -4 381 237 184 152 
-4 -4 382 235 182 150 
-3 -4 381 238 185 153 
-2 -4 381 243 190 158 
-2 -4 381 246 193 161 
-1 -4 381 247 192 161 
0 -4 382 247 192 161 
0 -4 382 246 191 160 
1 -4 382 246 191 160 
1 -4 382 248 191 162 
2 -4 382 247 190 161 
3 -4 383 247 190 160 
3 -4 383 246 189 159 
4 -4 383 244 188 153 
5 -4 383 241 185 150 
5 -4 383 238 183 144 
6 -4 384 237 182 143 
6 -4 384 239 184 143 
7 -4 385 241 186 145 
8 -4 385 239 184 143 
8 -4 385 232 177 136 
9 -4 386 230 172 134 
10 -4 386 220 162 124 
10 -4 387 208 150 112 
11 -4 387 176 118 80 
12 -4 388 81 25 34 
12 -4 389 78 22 31 
-16 -4 393 150 99 82 
-15 -3 390 161 109 85 
-14 -3 388 164 112 88 
-14 -3 387 175 118 88 
-13 -3 386 182 125 95 
-12 -3 385 190 136 100 
-12 -3 385 198 144 108 
-11 -3 385 205 152 118 
-11 -3 384 213 160 126 
-10 -3 384 220 166 130 
-9 -3 383 222 168 132 
-9 -3 383 223 173 136 
-8 -3 382 230 180 143 
-7 -3 382 234 184 147 
-7 -3 382 234 184 147 
-6 -3 382 236 184 147 
-5 -3 382 235 183 146 
-5 -3 382 233 180 146 
-4 -3 381 232 179 145 
-4 -3 382 234 181 147 
-3 -3 381 237 184 150 
-2 -3 381 242 188 154 
-2 -3 381 244 190 156 
-1 -3 381 243 189 155 
0 -3 382 242 188 154 
0 -3 382 243 189 155 
1 -3 382 244 190 156 
1 -3 382 244 187 158 
2 -3 382 243 186 157 
3 -3 383 243 187 154 
3 -3 383 242 186 153 
4 -3 383 240 184 147 
5 -3 383 238 182 145 
5 -3 384 237 182 143 
6 -3 384 237 182 143 
6 -3 384 240 185 144 
7 -3 385 240 185 144 
8 -3 385 237 180 137 
8 -3 385 226 169 126 
9 -3 386 222 164 124 
10 -3 386 212 154 114 
10 -3 387 199 141 103 
11 -3 388 164 106 68 
-16 -3 394 149 98 81 
-15 -3 390 158 108 83 
-14 -3 388 160 110 85 
-14 -3 387 170 115 84 
-13 -3 386 179 124 93 
-12 -3 385 188 134 98 
-12 -3 385 195 141 105 
-11 -3 384 201 147 113 
-11 -3 384 209 155 121 
-10 -3 384 217 161 126 
-9 -3 384 222 166 131 
-9 -3 383 226 174 137 
-8 -3 383 232 180 143 
-7 -3 382 233 181 144 
-7 -3 382 230 178 141 
-6 -3 382 229 177 140 
-5 -3 382 227 175 138 
-5 -3 382 227 175 138 
-4 -3 382 231 179 142 
-4 -3 382 235 181 145 
-3 -3 382 237 183 147 
-2 -3 382 239 185 149 
-2 -3 382 240 186 150 
-1 -3 382 241 185 152 
0 -3 382 240 184 151 
0 -3 382 241 185 152 
1 -3 382 241 185 152 
1 -3 382 242 185 155 
2 -3 382 241 184 154 
3 -3 383 240 184 149 
3 -3 383 239 183 148 
4 -3 384 237 182 143 
5 -3 384 238 183 144 
5 -3 384 240 185 144 
6 -3 384 242 187 146 
6 -3 384 242 185 142 
7 -3 385 238 181 138 
8 -3 385 231 174 131 
8 -3 385 221 164 121 
9 -3 386 215 156 114 
10 -3 386 208 149 107 
10 -3 387 194 136 98 
11 -3 388 153 95 57 
-16 -2 394 146 97 80 
-15 -2 391 156 106 81 
-14 -2 389 160 110 85 
-14 -2 387 170 115 85 
-13 -2 386 178 123 93 
-12 -2 386 186 132 98 
-12 -2 385 192 138 104 
-11 -2 384 199 143 110 
-11 -2 384 207 151 118 
-10 -2 384 218 160 123 
-9 -2 384 223 165 128 
-9 -2 383 223 171 131 
-8 -2 383 226 174 134 
-7 -2 383 226 172 134 
-7 -2 383 224 170 132 
-6 -2 383 224 170 132 
-5 -2 383 224 170 132 
-5 -2 382 227 173 135 
-4 -2 382 232 178 140 
-4 -2 382 235 179 142 
-3 -2 382 236 180 143 
-2 -2 382 238 182 147 
-2 -2 382 238 182 147 
-1 -2 382 238 182 147 
0 -2 382 238 182 147 
0 -2 382 239 183 148 
1 -2 383 239 183 148 
1 -2 383 241 185 152 
2 -2 383 240 184 151 
3 -2 383 241 183 146 
3 -2 384 240 182 145 
4 -2 384 239 181 141 
5 -2 384 240 182 142 
5 -2 384 243 185 145 
6 -2 385 243 185 145 
6 -2 385 238 181 138 
7 -2 385 231 174 131 
8 -2 385 226 167 123 
8 -2 386 219 160 116 
9 -2 386 214 152 111 
10 -2 387 207 145 104 
10 -2 387 191 131 94 
11 -2 387 137 77 40 
-15 -2 392 154 104 81 
-15 -2 390 161 111 88 
-14 -2 388 172 116 89 
-13 -2 387 178 122 95 
-12 -2 386 184 129 98 
-12 -2 385 190 135 104 
-11 -2 385 201 142 110 
-11 -2 384 210 151 119 
-10 -2 384 218 158 124 
-9 -2 384 223 163 129 
-9 -2 384 217 164 122 
-8 -2 383 217 164 122 
-7 -2 383 217 164 122 
-7 -2 383 217 164 122 
-6 -2 383 219 166 124 
-5 -2 383 222 169 127 
-5 -2 383 228 173 134 
-4 -2 382 232 177 138 
-4 -2 382 232 177 138 
-3 -2 382 234 179 140 
-2 -2 382 238 180 143 
-2 -2 382 239 181 144 
-1 -2 382 239 181 144 
0 -2 382 240 182 145 
0 -2 382 240 182 145 
1 -2 382 240 182 145 
1 -2 383 238 182 149 
2 -2 383 237 181 148 
3 -2 383 240 182 144 
3 -2 384 241 183 145 
4 -2 384 241 183 143 
5 -2 384 240 182 142 
5 -2 384 238 181 138 
6 -2 385 234 177 134 
6 -2 385 234 175 133 
7 -2 385 224 165 123 
8 -2 386 221 160 116 
8 -2 386 219 158 114 
9 -2 386 213 150 109 
10 -2 387 206 143 102 
10 -2 387 188 126 89 
11 -2 387 124 62 25 
-15 -1 393 150 98 77 
-15 -1 390 154 102 81 
-14 -1 388 168 113 83 
-13 -1 387 174 119 89 
-12 -1 386 178 127 100 
-12 -1 385 184 133 106 
-11 -1 385 194 141 99 
-11 -1 384 200 147 105 
-10 -1 384 209 151 111 
-9 -1 384 213 155 115 
-9 -1 384 208 155 115 
-8 -1 384 209 156 116 
-7 -1 383 211 156 117 
-7 -1 383 216 161 122 
-6 -1 383 221 166 127 
-5 -1 383 223 168 129 
-5 -1 383 225 170 131 
-4 -1 382 228 173 134 
-4 -1 382 229 174 135 
-3 -1 382 230 175 136 
-2 -1 382 234 176 138 
-2 -1 382 235 177 139 
-1 -1 382 237 177 140 
0 -1 382 238 178 141 
0 -1 382 239 181 144 
1 -1 382 238 180 143 
1 -1 383 239 184 143 
2 -1 383 237 182 141 
3 -1 383 234 179 138 
3 -1 384 234 179 138 
4 -1 384 237 179 139 
5 -1 384 235 177 137 
5 -1 384 230 171 129 
6 -1 385 226 167 125 
6 -1 385 229 164 122 
7 -1 385 224 159 117 
8 -1 386 223 155 116 
8 -1 386 214 146 107 
9 -1 387 203 141 104 
10 -1 387 192 130 93 
10 -1 388 177 121 86 
11 -1 388 103 47 12 
-15 0 391 151 99 78 
-14 0 389 158 102 75 
-13 0 387 166 110 83 
-12 0 386 170 119 92 
-12 0 385 176 125 98 
-11 0 385 188 133 92 
-11 0 384 193 138 97 
-10 0 384 200 142 104 
-9 0 384 206 148 110 
-9 0 384 202 149 109 
-8 0 384 205 152 112 
-7 0 383 211 156 115 
-7 0 383 217 162 121 
-6 0 383 221 166 127 
-5 0 383 223 168 129 
-5 0 383 224 169 130 
-4 0 382 226 171 132 
-4 0 382 227 172 133 
-3 0 382 229 174 135 
-2 0 382 233 175 137 
-2 0 382 234 176 138 
-1 0 382 234 176 138 
0 0 382 235 177 139 
0 0 382 236 178 141 
1 0 382 236 178 141 
1 0 383 238 180 140 
2 0 383 237 179 139 
3 0 383 232 177 136 
3 0 384 231 176 135 
4 0 384 233 175 135 
5 0 384 230 172 132 
5 0 384 225 166 124 
6 0 385 221 162 120 
6 0 385 227 162 120 
7 0 385 221 156 114 
8 0 386 217 152 112 
8 0 386 208 143 103 
9 0 387 199 137 100 
10 0 387 192 130 93 
10 0 388 165 109 76 
11 0 388 91 35 2 
-15 0 392 148 95 77 
-14 0 389 155 99 74 
-13 0 388 163 107 82 
-13 0 387 170 114 89 
-12 0 385 177 121 96 
-11 0 385 188 130 93 
-11 0 384 193 135 98 
-10 0 384 198 138 102 
-9 0 384 205 145 109 
-9 0 384 200 144 107 
-8 0 384 204 148 111 
-7 0 383 210 155 116 
-7 0 383 215 160 121 
-6 0 383 219 164 125 
-5 0 383 222 167 128 
-5 0 383 224 168 131 
-4 0 382 227 171 134 
-4 0 382 231 175 138 
-3 0 382 233 177 140 
-2 0 382 234 178 141 
-2 0 382 235 179 142 
-1 0 382 237 181 146 
0 0 382 237 181 146 
0 0 382 237 181 146 
1 0 382 238 182 147 
1 0 383 239 181 141 
2 0 383 238 180 140 
3 0 383 236 178 140 
3 0 383 236 178 140 
4 0 383 236 178 141 
5 0 384 233 175 138 
5 0 384 229 170 130 
6 0 384 225 166 126 
6 0 384 226 163 122 
7 0 385 220 157 116 
8 0 385 218 155 114 
8 0 386 206 143 102 
9 0 386 195 135 99 
10 0 386 188 128 92 
10 0 387 151 96 65 
11 0 387 85 30 0 
-15 1 393 147 91 74 
-14 1 390 156 98 76 
-13 1 388 162 104 82 
-13 1 387 167 109 85 
-12 1 386 171 113 89 
-11 1 385 185 122 89 
-11 1 384 191 128 95 
-10 1 384 197 134 101 
-9 1 384 205 142 109 
-9 1 384 203 147 112 
-8 1 384 208 152 117 
-7 1 384 215 159 124 
-7 1 383 220 164 129 
-6 1 383 223 167 132 
-5 1 383 226 170 135 
-5 1 383 231 175 142 
-4 1 382 235 179 146 
-4 1 382 237 181 148 
-3 1 382 238 182 149 
-2 1 382 239 183 150 
-2 1 382 241 185 152 
-1 1 382 244 187 157 
0 1 382 245 188 158 
0 1 382 244 189 158 
1 1 382 244 189 158 
1 1 383 248 190 152 
2 1 383 247 189 151 
3 1 383 244 188 153 
3 1 383 243 187 152 
4 1 383 241 185 152 
5 1 383 238 182 149 
5 1 384 235 177 140 
6 1 384 232 174 137 
6 1 384 235 173 134 
7 1 384 224 162 123 
8 1 385 217 155 116 
8 1 385 208 146 107 
9 1 385 197 141 108 
10 1 386 182 126 93 
10 1 386 120 69 40 
11 1 386 57 6 0 
11 1 386 41 22 26 
-15 2 393 148 92 77 
-14 2 390 153 95 75 
-13 2 388 160 102 82 
-13 2 387 168 111 84 
-12 2 386 177 120 93 
-11 2 385 190 127 96 
-10 2 384 203 140 109 
-8 2 383 211 155 120 
-7 2 383 219 163 130 
-7 2 383 225 169 136 
-6 2 383 228 172 139 
8 2 385 229 171 134 
-15 2 393 139 83 66 
-15 2 392 143 87 70 
-14 2 389 151 94 74 
-13 2 387 158 101 81 
-12 2 386 165 110 80 
-12 2 385 172 117 87 
-8 2 383 217 161 128 
-7 2 383 224 170 136 
-7 2 383 229 175 141 
-15 3 391 140 85 65 
-15 3 390 146 91 71 
-14 3 388 152 95 75 
-14 3 388 175 116 98 
