ply
format ascii 1.0
comment Created by CloudCompare v2.10.1 (Zephyrus)
comment Created 2020-05-06 8:41 PM
obj_info Generated by CloudCompare!
element vertex 73
property float x
property float y
property float z
property uchar red
property uchar green
property uchar blue
property float scalar_Original_cloud_index
end_header
-14 179 407 215 171 134 0 
-14 179 408 199 155 118 0 
-19 180 409 220 167 125 0 
-18 180 408 210 156 120 0 
-17 180 407 215 161 125 0 
-17 180 407 195 145 112 0 
-16 180 407 171 121 88 0 
-16 180 407 209 157 118 0 
-15 180 407 213 161 122 0 
-20 181 412 217 164 120 1 
-13 180 409 194 152 127 1 
-12 180 409 226 184 159 1 
-20 181 412 214 161 119 1 
-14 180 408 205 157 121 1 
-14 180 408 194 146 110 1 
-13 180 409 184 138 112 1 
-12 181 410 221 175 149 1 
-19 181 410 210 157 117 1 
-14 180 408 205 155 118 1 
-14 181 409 199 149 112 1 
-13 181 409 178 128 101 1 
-12 181 410 199 149 122 1 
-19 182 410 200 148 108 1 
-18 181 408 207 153 117 1 
-17 181 407 207 153 117 1 
-17 181 407 164 111 79 1 
-16 181 407 136 83 51 1 
-16 181 407 208 155 115 1 
-15 181 408 210 157 117 1 
-14 181 408 211 157 119 1 
-14 181 409 204 150 112 1 
-13 182 410 184 131 100 1 
-19 183 410 206 157 116 1 
-18 182 408 223 169 133 1 
-17 181 407 214 160 124 1 
-17 181 407 150 97 63 1 
-16 181 407 122 69 35 1 
-16 181 407 219 164 123 1 
-15 181 407 215 160 119 1 
-14 182 408 209 156 116 1 
-14 182 409 200 147 107 1 
-13 182 409 188 134 100 1 
-20 184 411 217 160 117 1 
-19 183 410 219 162 119 1 
-18 183 409 228 173 134 1 
-17 182 407 221 166 127 1 
-17 182 407 145 92 52 1 
-16 182 407 117 64 24 1 
-16 182 407 207 158 117 1 
-15 182 407 216 167 126 1 
-14 182 407 206 161 128 1 
-14 182 408 192 147 114 1 
-20 184 411 213 155 115 1 
-19 184 410 218 160 120 1 
-18 183 409 227 171 134 1 
-17 182 407 231 175 138 1 
-17 182 407 154 100 62 1 
-16 182 407 113 59 21 1 
-16 182 407 203 154 114 1 
-15 182 407 216 167 127 1 
-14 182 407 206 161 128 1 
-14 182 407 190 145 112 1 
-19 184 409 212 156 119 1 
-18 184 409 220 166 130 1 
-17 183 407 229 175 139 1 
-17 183 407 160 108 71 1 
-16 183 407 118 66 29 1 
-16 183 407 201 153 115 1 
-20 185 410 190 137 103 1 
-18 184 408 212 162 127 1 
-17 183 406 178 128 93 1 
-16 183 406 147 97 62 1 
-18 184 407 195 146 113 1 
