ply
format ascii 1.0
comment Created by CloudCompare v2.10.1 (Zephyrus)
comment Created 2020-05-06 8:40 PM
obj_info Generated by CloudCompare!
element vertex 474
property float x
property float y
property float z
property uchar red
property uchar green
property uchar blue
end_header
-28 -60 412 192 173 169 
-27 -60 411 204 185 181 
-27 -60 411 219 189 181 
-26 -60 410 221 191 183 
-25 -60 410 232 193 178 
-25 -60 410 234 195 180 
-24 -60 411 232 191 171 
-23 -60 410 219 178 158 
-23 -60 410 205 174 154 
-22 -60 410 199 168 148 
-21 -60 410 175 158 142 
-21 -60 411 166 149 133 
-30 -59 412 170 161 162 
-29 -59 412 215 197 193 
-28 -59 412 239 209 199 
-27 -59 410 240 210 200 
-27 -59 410 244 208 192 
-26 -59 410 246 210 194 
-25 -59 409 250 209 191 
-25 -59 409 249 208 190 
-24 -59 410 248 206 184 
-23 -59 410 245 203 181 
-23 -59 410 238 200 179 
-22 -59 410 235 197 176 
-21 -59 410 221 190 170 
-21 -59 411 211 180 160 
-20 -59 411 180 165 160 
-19 -59 412 168 153 148 
-19 -59 412 149 140 141 
-31 -58 409 162 148 147 
-30 -59 412 210 189 186 
-29 -59 412 240 210 200 
-29 -59 412 245 215 205 
-28 -59 411 251 212 195 
-27 -58 410 249 210 193 
-27 -58 409 251 210 190 
-26 -58 409 251 210 190 
-25 -58 409 253 212 192 
-25 -58 409 248 207 187 
-24 -58 409 248 207 187 
-23 -58 409 250 209 189 
-23 -58 410 249 206 187 
-22 -58 410 248 205 186 
-21 -58 410 246 205 185 
-21 -58 410 239 198 178 
-20 -58 410 222 192 181 
-31 -58 409 185 161 157 
-31 -58 411 220 193 186 
-30 -58 412 242 215 208 
-29 -58 412 254 220 210 
-29 -58 411 248 214 204 
-28 -58 410 251 209 193 
-27 -58 409 254 212 196 
-27 -58 409 254 213 195 
-26 -58 409 250 209 191 
-25 -58 408 251 213 194 
-25 -58 409 249 211 192 
-24 -58 409 248 211 193 
-23 -58 408 249 212 194 
-23 -58 409 247 208 191 
-22 -58 410 245 206 189 
-21 -58 410 249 207 191 
-21 -58 410 244 202 186 
-20 -58 410 242 205 187 
-19 -58 410 238 201 183 
-19 -58 411 207 186 183 
-18 -58 411 198 177 174 
-31 -57 409 215 181 172 
-31 -57 411 238 204 192 
-30 -57 412 242 208 196 
-29 -57 412 246 208 195 
-29 -57 411 249 211 198 
-28 -57 410 255 211 198 
-27 -57 409 254 210 197 
-27 -57 409 254 211 195 
-26 -57 409 255 212 196 
-25 -57 408 252 210 194 
-24 -57 408 255 213 197 
-24 -57 409 252 215 199 
-23 -57 408 252 215 199 
-22 -57 408 250 213 197 
-22 -57 409 249 212 196 
-21 -57 409 251 211 199 
-21 -57 409 246 206 194 
-20 -57 409 240 201 184 
-19 -57 409 244 205 188 
-19 -57 410 225 201 197 
-18 -57 410 216 192 188 
-32 -56 408 243 201 187 
-32 -56 409 223 181 169 
-31 -56 409 231 189 177 
-31 -56 410 242 204 185 
-30 -57 411 245 207 188 
-29 -57 411 249 207 193 
-29 -56 410 252 210 196 
-28 -56 409 255 211 198 
-27 -56 409 254 210 197 
-26 -56 408 255 210 195 
-26 -56 408 255 211 196 
-25 -56 409 249 211 192 
-25 -56 409 254 216 197 
-24 -56 409 254 219 200 
-23 -56 409 251 216 197 
-23 -56 409 248 212 196 
-22 -56 409 249 213 197 
-21 -56 409 253 211 199 
-21 -56 409 250 208 196 
-20 -56 409 244 205 190 
-19 -56 409 242 203 188 
-19 -56 409 231 202 194 
-18 -56 409 226 197 189 
-17 -56 410 201 187 187 
-32 -56 408 244 200 187 
-32 -56 409 226 178 164 
-31 -56 409 234 186 172 
-31 -56 410 245 204 184 
-30 -56 411 250 209 189 
-29 -56 410 249 206 190 
-29 -56 409 248 205 189 
-28 -56 409 254 208 195 
-27 -56 409 255 211 198 
-26 -56 408 252 210 196 
-26 -56 408 246 204 190 
-25 -56 408 244 213 195 
-24 -56 408 252 221 203 
-24 -56 409 255 233 216 
-23 -56 408 255 231 214 
-22 -56 408 252 216 202 
-22 -56 408 248 212 198 
-21 -56 408 255 209 199 
-20 -56 408 255 209 199 
-20 -56 408 253 210 194 
-19 -56 409 248 205 189 
-19 -56 409 239 201 188 
-18 -56 409 233 195 182 
-17 -56 410 208 184 180 
-17 -56 411 205 181 177 
-32 -55 408 244 200 187 
-32 -55 408 225 176 161 
-31 -55 409 235 186 171 
-31 -55 410 241 202 185 
-30 -55 410 248 209 192 
-29 -55 410 253 211 197 
-29 -55 409 254 212 198 
-28 -55 408 253 211 199 
-27 -55 408 246 204 192 
-26 -55 408 242 206 192 
-26 -55 408 248 212 198 
-25 -55 408 219 196 180 
-24 -55 408 234 211 195 
-24 -55 408 255 239 225 
-23 -55 408 255 244 230 
-22 -55 407 253 221 210 
-22 -55 407 243 211 200 
-21 -55 407 255 207 198 
-20 -55 407 255 209 200 
-20 -55 407 252 205 187 
-19 -55 408 253 206 188 
-18 -55 408 248 203 184 
-18 -55 409 239 194 175 
-17 -55 410 212 182 172 
-17 -55 410 212 182 172 
-32 -54 408 246 200 184 
-32 -54 409 220 174 158 
-31 -54 409 232 186 170 
-31 -54 410 246 198 178 
-30 -54 410 252 204 184 
-29 -54 409 252 206 190 
-29 -54 409 255 215 199 
-28 -54 408 246 206 194 
-27 -54 408 237 197 185 
-26 -54 408 237 203 193 
-26 -54 408 228 194 184 
-25 -54 408 189 160 154 
-24 -54 408 185 156 150 
-24 -54 408 226 199 192 
-23 -54 407 249 222 215 
-22 -54 407 252 222 211 
-22 -54 407 237 207 196 
-21 -54 407 251 215 199 
-20 -54 407 249 213 197 
-20 -54 407 255 205 187 
-19 -54 407 255 202 184 
-18 -54 408 235 203 192 
-18 -54 409 228 196 185 
-17 -54 409 222 176 161 
-17 -54 410 223 177 162 
-32 -54 408 244 198 182 
-32 -54 409 217 171 155 
-31 -54 409 228 182 166 
-31 -54 410 240 189 168 
-30 -54 410 252 201 180 
-29 -54 409 250 205 186 
-29 -54 409 255 210 191 
-28 -54 408 246 206 194 
-27 -54 408 234 194 182 
-26 -54 408 243 210 201 
-26 -54 408 203 170 161 
-25 -54 408 173 148 143 
-24 -54 408 152 127 122 
-24 -54 408 196 171 166 
-23 -53 407 219 194 189 
-22 -53 407 243 211 200 
-22 -53 407 232 200 189 
-21 -53 407 249 210 193 
-20 -53 407 250 211 194 
-20 -53 407 255 204 183 
-19 -53 407 252 200 179 
-18 -54 408 235 196 179 
-18 -54 409 231 192 175 
-17 -54 410 228 180 160 
-17 -54 410 224 176 156 
-32 -53 408 243 196 178 
-32 -53 409 213 166 148 
-31 -53 409 223 176 158 
-31 -53 410 237 186 165 
-30 -53 410 242 191 170 
-29 -53 409 245 198 180 
-29 -53 409 251 204 186 
-28 -53 408 248 209 194 
-27 -53 408 227 188 173 
-26 -53 408 253 223 215 
-26 -53 408 236 206 198 
-25 -53 407 222 198 194 
-24 -53 408 192 168 164 
-24 -53 408 229 204 199 
-23 -53 407 229 204 199 
-22 -53 407 227 193 181 
-22 -53 407 229 195 183 
-21 -53 408 254 211 192 
-20 -53 408 250 207 188 
-20 -53 408 252 201 182 
-19 -53 407 247 196 177 
-18 -53 408 243 196 176 
-18 -53 409 236 189 169 
-17 -53 410 224 174 151 
-17 -53 410 224 174 151 
-32 -52 408 241 194 174 
-32 -52 409 211 163 143 
-31 -52 410 220 172 152 
-31 -52 410 235 184 163 
-30 -52 410 234 183 162 
-29 -52 410 240 191 174 
-29 -52 409 244 195 178 
-28 -52 408 248 206 192 
-27 -52 408 224 182 168 
-26 -52 408 241 211 203 
-26 -52 408 255 234 226 
-25 -52 407 255 232 230 
-24 -52 407 227 203 201 
-24 -52 408 239 214 209 
-23 -52 408 240 215 210 
-22 -52 408 225 189 175 
-22 -52 407 235 199 185 
-21 -52 408 254 208 185 
-20 -52 408 252 206 183 
-20 -52 408 253 202 183 
-19 -52 408 248 197 178 
-18 -52 408 240 193 173 
-18 -52 409 231 184 164 
-17 -52 409 224 176 153 
-17 -52 410 222 174 151 
-32 -52 408 239 191 169 
-32 -52 409 207 159 137 
-31 -52 410 215 167 145 
-31 -52 410 227 176 157 
-30 -52 410 233 182 163 
-29 -52 410 236 188 168 
-29 -52 409 234 186 166 
-28 -52 409 238 195 179 
-27 -52 409 228 185 169 
-26 -52 408 214 180 170 
-26 -52 408 228 194 184 
-25 -52 408 243 214 208 
-24 -52 408 237 208 202 
-24 -52 409 228 198 190 
-23 -52 408 223 193 185 
-23 -52 409 226 187 170 
-22 -52 408 242 203 186 
-21 -52 408 250 202 179 
-20 -52 408 248 200 177 
-20 -52 408 250 198 176 
-19 -52 408 246 194 172 
-19 -52 409 239 193 177 
-18 -52 409 231 185 169 
-17 -52 410 219 173 150 
-17 -52 410 214 168 145 
-32 -51 408 236 188 166 
-32 -51 409 202 154 132 
-31 -51 410 203 155 133 
-31 -51 411 215 164 147 
-30 -51 410 228 177 160 
-29 -51 410 229 178 159 
-29 -51 409 230 179 160 
-28 -51 409 231 182 165 
-27 -51 409 235 186 169 
-26 -51 408 219 176 160 
-26 -51 408 212 169 153 
-25 -51 408 207 169 158 
-24 -51 408 203 165 154 
-24 -51 409 203 164 149 
-23 -51 409 217 178 163 
-23 -51 409 245 200 179 
-22 -51 409 242 197 176 
-21 -51 408 247 197 172 
-20 -51 408 246 196 171 
-20 -51 409 249 193 170 
-19 -51 409 247 191 168 
-19 -51 409 236 189 173 
-18 -51 409 225 178 162 
-17 -51 410 214 169 146 
-17 -51 410 225 180 157 
-32 -50 408 234 186 164 
-32 -50 409 197 149 127 
-31 -50 410 188 140 118 
-31 -51 411 202 153 136 
-30 -51 411 212 163 146 
-29 -50 410 220 168 147 
-29 -50 410 223 171 150 
-28 -50 409 228 173 152 
-27 -50 409 232 177 156 
-27 -50 409 230 179 158 
-26 -50 408 231 180 159 
-25 -50 408 222 174 154 
-24 -50 408 224 176 156 
-24 -50 409 231 183 161 
-23 -50 409 235 187 165 
-23 -50 409 244 194 169 
-22 -50 409 239 189 164 
-21 -50 409 244 193 166 
-21 -50 409 240 189 162 
-20 -50 409 244 188 165 
-19 -50 409 242 186 163 
-19 -50 409 225 174 155 
-32 -50 408 233 185 163 
-32 -50 410 194 146 124 
-31 -50 411 178 130 108 
-31 -50 411 194 145 128 
-30 -50 411 202 153 136 
-29 -50 411 219 164 143 
-29 -50 410 214 159 138 
-28 -50 409 223 165 141 
-27 -50 409 223 165 141 
-27 -50 409 222 164 140 
-26 -50 409 229 171 147 
-25 -50 409 233 177 152 
-25 -50 409 237 181 156 
-24 -50 410 233 179 153 
-23 -50 409 236 182 156 
-23 -50 409 237 183 157 
-22 -50 409 239 185 159 
-21 -50 409 234 180 152 
-21 -50 409 237 183 155 
-20 -50 409 231 179 155 
-19 -50 409 225 173 149 
-19 -50 410 227 175 153 
-32 -49 410 197 147 124 
-31 -49 411 166 116 93 
-31 -49 411 192 133 117 
-30 -49 412 206 147 131 
-29 -49 411 215 158 138 
-29 -49 411 214 157 137 
-28 -49 410 214 160 134 
-27 -49 410 218 164 138 
-27 -49 410 221 166 136 
-26 -49 410 225 170 140 
-25 -49 410 225 170 140 
-25 -49 410 228 173 143 
-24 -49 410 228 174 148 
-23 -49 410 232 178 152 
-23 -49 410 234 178 153 
-22 -49 410 231 175 150 
-21 -49 410 234 177 150 
-21 -49 410 237 180 153 
-20 -49 410 220 166 140 
-32 -48 408 230 182 160 
-32 -48 410 199 148 127 
-31 -49 411 150 99 78 
-31 -49 412 180 121 103 
-30 -49 412 202 143 125 
-29 -49 411 209 152 133 
-29 -49 411 205 148 129 
-28 -49 411 208 152 129 
-27 -49 411 212 156 133 
-27 -49 411 215 158 129 
-26 -49 411 218 161 132 
-25 -49 411 218 161 131 
-25 -49 411 225 168 138 
-24 -48 410 225 168 138 
-23 -48 410 223 166 136 
-23 -48 410 226 169 140 
-22 -48 410 226 169 140 
-21 -48 410 225 165 137 
-21 -48 410 221 161 133 
-32 -48 410 203 152 131 
-31 -48 411 138 87 66 
-31 -48 412 176 119 100 
-30 -48 412 195 138 119 
-29 -48 412 200 143 124 
-29 -48 412 201 144 125 
-28 -48 411 207 149 129 
-27 -48 411 208 150 130 
-27 -48 411 213 153 127 
-26 -48 411 219 159 133 
-25 -48 411 213 154 122 
-25 -48 411 220 161 129 
-24 -48 410 217 158 124 
-23 -48 410 216 157 123 
-23 -48 410 220 161 131 
-22 -48 410 213 154 124 
-21 -48 410 212 152 124 
-21 -48 410 230 170 142 
-32 -47 410 201 153 133 
-31 -47 412 138 90 70 
-31 -47 412 161 104 85 
-30 -47 413 184 127 108 
-29 -47 413 192 135 116 
-29 -47 413 193 136 117 
-28 -47 412 198 140 118 
-27 -47 412 202 144 122 
-27 -47 412 207 147 119 
-26 -47 412 206 146 118 
-25 -47 412 208 147 116 
-25 -47 411 211 150 119 
-24 -47 411 213 154 122 
-23 -47 411 211 152 120 
-23 -47 411 207 150 120 
-22 -47 411 205 148 118 
-32 -46 410 202 155 135 
-31 -47 412 160 113 93 
-31 -47 413 152 99 83 
-30 -47 414 162 109 93 
-30 -47 414 174 117 98 
-29 -47 414 184 127 108 
-28 -47 413 191 131 107 
-27 -47 413 193 133 109 
-27 -47 413 201 137 110 
-26 -47 413 201 137 110 
-25 -47 413 201 137 110 
-25 -47 412 205 141 114 
-24 -47 412 210 146 118 
-23 -47 412 202 138 110 
-23 -47 412 199 140 110 
-22 -47 412 222 163 133 
-32 -46 410 204 159 138 
-31 -46 412 184 139 118 
-31 -46 413 175 133 121 
-30 -46 414 153 111 99 
-30 -46 414 147 100 84 
-29 -46 415 163 116 100 
-28 -46 414 181 126 105 
-28 -46 414 181 126 105 
-27 -46 414 188 128 104 
-26 -46 414 190 130 106 
-26 -46 414 193 127 103 
-25 -46 413 197 131 107 
-24 -46 413 190 124 98 
-23 -46 413 188 122 96 
-23 -46 413 213 148 120 
-30 -46 414 158 139 135 
-30 -46 415 154 127 118 
-29 -46 415 148 121 112 
-28 -46 415 154 114 102 
-28 -46 415 153 113 101 
-27 -46 414 166 115 98 
-26 -46 414 169 118 101 
-26 -46 414 175 114 93 
-25 -46 414 174 113 92 
-24 -45 413 170 106 79 
-27 -45 415 150 112 101 
-26 -45 415 146 108 97 
-26 -45 415 151 100 79 
-25 -45 414 146 95 74 
-24 -45 414 166 106 78 
