ply
format ascii 1.0
comment Created by CloudCompare v2.10.1 (Zephyrus)
comment Created 2020-05-06 8:40 PM
obj_info Generated by CloudCompare!
element vertex 1310
property float x
property float y
property float z
property uchar red
property uchar green
property uchar blue
end_header
21 -12 410 76 41 37 
21 -12 409 214 171 162 
20 -11 409 238 198 186 
20 -11 409 247 203 192 
21 -11 409 248 204 193 
22 -11 409 248 200 188 
22 -11 409 208 160 148 
23 -11 410 120 82 71 
19 -10 408 239 200 185 
19 -10 408 251 212 197 
20 -10 408 251 207 194 
21 -10 408 255 214 201 
21 -10 408 254 206 192 
22 -10 408 246 198 184 
23 -10 409 226 179 161 
24 -10 409 170 123 105 
24 -10 409 74 37 28 
19 -10 408 252 215 196 
19 -10 408 252 215 196 
20 -10 408 253 212 194 
21 -10 408 255 215 197 
21 -10 407 254 209 190 
22 -10 407 252 207 188 
23 -10 408 254 206 184 
23 -10 408 242 194 172 
24 -10 408 208 162 147 
17 -9 408 236 189 163 
17 -9 408 242 202 177 
18 -9 408 255 219 194 
19 -9 408 252 216 194 
19 -9 408 249 213 191 
20 -9 408 255 218 197 
21 -9 407 251 213 192 
21 -9 407 255 213 194 
22 -9 407 250 207 188 
23 -9 407 255 213 194 
23 -9 407 250 205 186 
24 -9 407 241 194 176 
25 -9 408 231 184 166 
25 -9 408 152 112 102 
26 -9 409 58 18 8 
16 -8 410 224 170 144 
16 -8 409 225 178 150 
17 -8 409 245 198 170 
17 -8 408 255 216 190 
18 -8 408 255 215 189 
19 -8 408 255 219 195 
19 -8 408 254 218 194 
20 -8 408 253 217 193 
21 -8 407 255 219 195 
21 -8 407 255 218 195 
22 -8 407 250 212 189 
23 -8 407 255 219 201 
23 -8 407 255 217 199 
24 -8 406 255 210 189 
25 -8 407 255 212 191 
25 -8 408 241 198 182 
26 -8 408 182 139 123 
27 -8 408 77 46 41 
16 -8 410 208 151 124 
16 -8 409 234 185 155 
17 -8 409 255 210 180 
18 -8 409 255 216 191 
18 -8 408 255 215 190 
19 -8 408 254 217 191 
19 -8 408 255 220 194 
20 -8 407 254 218 194 
21 -8 407 254 218 194 
21 -8 406 255 219 195 
22 -8 406 252 216 192 
23 -8 406 255 225 206 
23 -8 406 255 224 205 
24 -8 406 255 221 201 
25 -8 406 255 215 195 
25 -8 407 248 205 186 
26 -8 407 237 194 175 
27 -8 407 199 161 148 
27 -8 408 103 65 52 
15 -7 412 192 132 104 
16 -7 411 219 159 131 
16 -7 410 241 190 161 
17 -7 409 251 200 171 
18 -7 409 254 210 185 
18 -7 408 255 215 190 
19 -7 408 255 217 192 
19 -7 408 255 218 193 
20 -7 407 255 218 192 
21 -7 407 255 220 194 
21 -7 406 254 218 192 
22 -7 406 255 219 193 
23 -7 406 255 229 209 
23 -7 406 255 225 205 
24 -7 406 255 220 199 
25 -7 406 255 221 200 
25 -7 407 253 212 190 
26 -7 407 252 211 189 
27 -7 407 243 200 181 
27 -7 408 217 174 155 
28 -7 408 119 82 73 
13 -6 417 176 114 99 
14 -6 416 175 113 88 
14 -6 414 180 118 93 
15 -6 413 207 147 121 
16 -6 412 230 170 144 
16 -6 411 243 187 160 
17 -6 410 252 196 169 
18 -6 409 252 199 167 
18 -6 408 255 207 175 
19 -6 408 255 212 187 
19 -6 408 255 214 189 
20 -6 407 254 218 196 
21 -6 407 255 219 197 
21 -6 406 255 221 189 
22 -6 406 255 221 189 
23 -6 406 252 216 194 
23 -6 406 252 216 194 
24 -6 406 254 213 191 
25 -6 406 252 211 189 
25 -6 406 252 207 186 
26 -6 407 249 204 183 
27 -6 407 249 202 184 
27 -6 407 248 201 183 
28 -6 408 229 186 170 
29 -6 409 153 110 94 
14 -6 416 164 98 74 
14 -6 415 184 118 94 
15 -6 413 213 152 124 
16 -6 412 230 169 141 
16 -6 411 238 181 151 
17 -6 410 242 185 155 
18 -6 410 240 188 151 
18 -6 409 251 199 162 
19 -6 408 254 207 177 
19 -6 408 255 211 181 
20 -6 408 255 214 190 
21 -6 407 255 215 191 
21 -6 406 255 218 189 
22 -6 406 255 219 190 
23 -6 406 252 216 190 
23 -6 406 252 216 190 
24 -6 406 253 216 190 
25 -6 406 252 215 189 
25 -6 406 253 211 189 
26 -6 406 251 209 187 
27 -6 407 250 205 184 
27 -6 407 249 204 183 
28 -6 407 250 207 188 
29 -6 407 230 187 168 
29 -6 408 171 135 121 
14 -5 417 152 85 68 
14 -5 415 190 123 106 
15 -5 414 204 140 112 
16 -5 412 216 152 124 
16 -5 412 223 167 134 
17 -5 411 238 182 149 
18 -5 410 230 178 139 
18 -5 409 241 189 150 
19 -5 408 252 199 165 
19 -5 407 255 206 172 
20 -5 407 255 210 187 
21 -5 407 255 212 189 
21 -5 406 255 217 194 
22 -5 405 255 217 194 
23 -5 405 253 216 189 
23 -5 405 253 216 189 
24 -5 405 254 217 191 
25 -5 405 254 217 191 
25 -5 405 255 214 192 
26 -5 406 253 212 190 
27 -5 406 252 210 188 
27 -5 406 250 208 186 
28 -5 406 248 203 182 
29 -5 406 245 200 179 
29 -5 407 236 197 180 
30 -5 408 185 146 129 
31 -5 409 71 42 34 
14 -4 417 174 118 105 
15 -4 415 188 129 99 
16 -4 413 201 142 112 
16 -4 412 216 157 123 
17 -4 411 228 169 135 
18 -4 411 223 171 134 
18 -4 410 234 182 145 
19 -4 409 243 188 157 
19 -4 408 251 196 165 
20 -4 407 255 204 180 
21 -4 407 255 209 185 
21 -4 406 253 215 192 
22 -4 405 253 215 192 
23 -4 405 252 212 186 
23 -4 405 253 213 187 
24 -4 405 253 215 192 
25 -4 405 254 216 193 
25 -4 405 254 218 196 
26 -4 405 253 217 195 
27 -4 406 254 213 193 
27 -4 406 252 211 191 
28 -4 406 253 211 189 
29 -4 406 248 206 184 
29 -4 407 245 204 186 
30 -4 407 236 195 177 
31 -4 408 193 161 150 
31 -4 408 88 56 45 
32 -4 409 86 61 57 
14 -4 417 133 99 89 
15 -4 416 174 121 90 
16 -4 414 182 129 98 
16 -4 413 206 146 109 
17 -4 412 216 156 119 
18 -4 411 218 164 130 
18 -4 410 227 173 139 
19 -4 409 234 177 148 
19 -4 408 242 185 156 
20 -4 408 253 197 172 
21 -4 407 255 203 178 
21 -4 406 252 210 186 
22 -4 406 253 211 187 
23 -4 405 255 211 184 
23 -4 405 255 212 185 
24 -4 405 253 215 192 
25 -4 405 254 216 193 
25 -4 405 253 218 198 
26 -4 405 253 218 198 
27 -4 405 253 217 195 
27 -4 406 252 216 194 
28 -4 406 255 218 196 
29 -4 406 250 209 187 
29 -4 406 248 207 189 
30 -4 407 239 198 180 
31 -4 407 238 202 188 
31 -4 408 197 161 147 
32 -4 408 125 95 87 
15 -3 416 150 104 78 
16 -3 415 175 129 103 
16 -3 413 196 132 96 
17 -3 412 212 148 112 
18 -3 411 214 155 121 
18 -3 410 224 165 131 
19 -3 409 230 169 140 
19 -3 408 236 175 146 
20 -3 408 248 187 158 
21 -3 408 255 196 167 
21 -3 407 252 205 175 
22 -3 406 255 210 180 
23 -3 405 255 210 181 
23 -3 405 255 211 182 
24 -3 405 254 214 188 
25 -3 405 255 216 190 
25 -3 405 253 218 196 
26 -3 405 253 218 196 
27 -3 405 253 219 194 
27 -3 405 253 219 194 
28 -3 405 255 226 200 
29 -3 406 255 221 195 
29 -3 406 252 211 189 
30 -3 406 254 213 191 
31 -3 407 243 206 188 
31 -3 407 239 202 184 
32 -3 408 203 167 155 
33 -3 408 149 113 101 
15 -2 417 112 75 56 
16 -2 415 160 123 104 
16 -2 414 184 120 85 
17 -2 413 203 139 104 
18 -2 412 208 145 110 
18 -2 411 219 156 121 
19 -2 410 224 161 130 
20 -2 409 230 167 136 
20 -2 408 242 177 145 
21 -2 408 250 185 153 
21 -2 408 249 199 166 
22 -2 407 255 206 173 
23 -2 406 255 205 176 
23 -2 406 255 207 178 
24 -2 405 255 211 184 
25 -2 405 255 213 186 
25 -2 405 253 217 193 
26 -2 405 254 218 194 
27 -2 405 254 218 194 
27 -2 405 255 219 195 
28 -2 405 255 225 199 
29 -2 406 255 223 197 
29 -2 406 255 223 200 
30 -2 406 255 218 195 
31 -2 406 247 209 190 
31 -2 407 243 205 186 
32 -2 408 235 196 179 
33 -2 408 206 167 150 
33 -2 408 111 76 70 
34 -2 409 46 11 5 
16 -2 416 121 91 80 
16 -2 415 178 117 86 
17 -2 414 194 133 102 
18 -2 413 198 135 100 
18 -2 411 210 147 112 
19 -2 411 218 155 122 
20 -2 410 224 161 128 
20 -2 409 234 170 135 
21 -2 408 242 178 143 
21 -2 408 241 191 156 
22 -2 407 249 199 164 
23 -2 406 255 201 173 
23 -2 406 255 202 174 
24 -2 405 253 207 181 
25 -2 405 255 210 184 
25 -2 405 252 215 189 
26 -2 405 254 217 191 
27 -2 405 254 218 194 
27 -2 405 254 218 194 
28 -2 405 255 230 206 
29 -2 406 255 227 203 
29 -2 406 255 225 204 
30 -2 406 255 220 199 
31 -2 406 254 213 195 
31 -2 406 247 206 188 
32 -2 407 251 208 191 
33 -2 407 242 199 182 
33 -2 407 214 171 162 
34 -2 408 152 109 100 
16 -1 417 68 55 49 
16 -1 415 156 100 75 
17 -1 415 176 120 95 
18 -1 413 190 131 97 
18 -1 412 203 144 110 
19 -1 411 213 148 118 
20 -1 410 222 157 127 
20 -1 409 231 171 135 
21 -1 409 240 180 144 
21 -1 408 247 184 149 
22 -1 407 255 195 160 
23 -1 407 249 198 169 
23 -1 406 252 201 172 
24 -1 406 251 204 176 
25 -1 405 254 207 179 
25 -1 405 255 212 189 
26 -1 405 255 214 191 
27 -1 405 255 216 194 
27 -1 405 255 220 198 
28 -1 405 255 218 199 
29 -1 405 255 217 198 
29 -1 405 253 215 196 
30 -1 406 253 215 196 
31 -1 406 252 214 193 
31 -1 406 249 211 190 
32 -1 406 246 205 183 
33 -1 406 242 201 179 
33 -1 407 233 195 176 
34 -1 407 207 169 150 
35 -1 408 147 115 102 
16 0 416 105 62 43 
17 0 415 154 111 92 
18 0 413 178 119 87 
18 0 413 193 134 102 
19 0 412 204 139 107 
20 0 411 212 147 115 
20 0 410 217 157 123 
21 0 409 231 171 137 
22 0 409 240 180 146 
22 0 408 243 183 149 
23 0 407 243 190 159 
23 0 406 247 194 163 
24 0 406 250 201 171 
25 0 406 255 206 176 
25 0 405 255 209 183 
26 0 405 255 211 185 
27 0 405 255 213 191 
27 0 405 255 216 194 
28 0 405 255 215 195 
29 0 405 255 215 195 
29 0 405 254 216 195 
30 0 405 254 216 195 
31 0 406 254 216 195 
31 0 406 251 213 192 
32 0 406 249 208 186 
33 0 406 245 204 182 
33 0 406 242 201 181 
34 0 407 245 204 184 
35 0 407 209 176 161 
35 0 408 142 109 94 
16 0 417 55 31 21 
17 0 415 110 86 76 
18 0 414 170 113 86 
18 0 413 180 123 96 
19 0 412 197 133 98 
20 0 411 206 142 107 
20 0 411 216 151 119 
21 0 410 227 162 130 
22 0 409 228 168 132 
22 0 408 241 181 145 
23 0 407 238 182 149 
23 0 407 243 187 154 
24 0 406 248 195 164 
25 0 406 254 201 170 
25 0 406 255 205 178 
26 0 406 255 208 181 
27 0 405 255 212 189 
27 0 405 255 213 190 
28 0 405 255 214 192 
29 0 405 255 214 192 
29 0 405 254 216 195 
30 0 405 255 217 196 
31 0 406 255 217 196 
31 0 406 253 215 194 
32 0 406 252 211 191 
33 0 406 249 208 188 
33 0 406 248 205 186 
34 0 407 246 203 184 
35 0 407 242 205 187 
35 0 407 215 178 160 
36 0 408 127 99 88 
17 1 417 56 46 44 
18 1 415 143 88 68 
18 1 414 165 110 90 
19 1 413 186 122 87 
20 1 411 199 135 100 
20 1 411 207 141 107 
21 1 411 214 148 114 
22 1 410 219 159 122 
22 1 409 231 171 134 
23 1 408 235 175 139 
23 1 407 240 180 144 
24 1 407 244 188 155 
25 1 406 251 195 162 
25 1 406 253 202 173 
26 1 406 255 207 178 
27 1 405 255 211 187 
27 1 405 255 211 187 
28 1 405 255 213 191 
29 1 405 255 214 192 
29 1 405 254 216 195 
30 1 405 255 217 196 
31 1 406 255 217 196 
31 1 405 254 216 195 
32 1 405 252 214 193 
33 1 405 251 213 192 
33 1 406 255 214 192 
34 1 406 249 207 185 
35 1 406 246 208 189 
35 1 406 237 199 180 
36 1 407 192 160 147 
18 2 415 143 99 86 
19 2 414 174 113 82 
20 2 413 187 126 95 
20 2 411 202 133 100 
21 2 410 206 137 104 
22 2 410 217 153 115 
22 2 409 223 159 121 
23 2 409 229 165 129 
23 2 408 235 171 135 
24 2 407 241 181 147 
25 2 406 248 188 154 
25 2 406 250 195 165 
26 2 405 255 200 170 
27 2 405 253 206 180 
27 2 405 255 209 183 
28 2 405 254 212 190 
29 2 405 255 213 191 
29 2 405 253 215 194 
30 2 405 254 216 195 
31 2 405 254 216 197 
31 2 405 254 216 197 
32 2 405 253 216 197 
33 2 405 253 216 197 
33 2 405 255 223 200 
34 2 406 252 214 191 
35 2 406 255 220 201 
35 2 406 245 207 188 
36 2 406 238 202 188 
37 2 407 189 153 139 
37 2 408 70 43 34 
18 2 416 87 58 54 
19 2 414 150 98 74 
20 2 413 173 121 97 
20 2 412 190 124 90 
21 2 411 197 131 97 
22 2 410 203 138 98 
22 2 409 214 149 109 
23 2 409 221 156 118 
24 2 409 230 165 127 
24 2 408 238 175 140 
25 2 407 244 181 146 
25 2 406 243 186 156 
26 2 406 249 192 162 
27 2 405 251 201 174 
27 2 405 255 207 180 
28 2 405 252 210 186 
29 2 405 253 211 187 
29 2 405 254 213 193 
30 2 405 255 214 194 
31 2 405 253 215 194 
31 2 405 253 215 194 
32 2 405 255 217 198 
33 2 405 255 218 199 
33 2 405 255 226 205 
34 2 405 255 221 200 
35 2 405 255 223 204 
35 2 406 252 215 196 
36 2 406 243 207 193 
37 2 406 239 203 189 
37 2 407 194 161 152 
19 3 416 109 65 52 
20 3 414 153 109 96 
20 3 413 177 114 81 
21 3 412 190 127 94 
22 3 411 198 133 93 
22 3 410 207 142 102 
23 3 409 215 148 106 
24 3 409 222 155 113 
24 3 409 230 166 128 
25 3 408 238 174 136 
25 3 407 239 180 148 
26 3 406 245 186 154 
27 3 406 247 198 168 
27 3 405 254 205 175 
28 3 405 251 207 182 
29 3 405 253 209 184 
29 3 405 253 211 189 
30 3 405 254 212 190 
31 3 405 253 212 192 
31 3 405 254 213 193 
32 3 405 255 215 195 
33 3 405 255 217 197 
33 3 405 255 227 205 
34 3 405 255 225 203 
35 3 405 255 221 202 
35 3 405 255 220 201 
36 3 406 255 219 206 
37 3 406 248 210 197 
37 3 406 235 198 189 
38 3 407 193 156 147 
20 4 416 113 76 70 
20 4 414 167 108 76 
21 4 413 177 118 86 
22 4 412 191 126 88 
22 4 411 197 132 94 
23 4 410 205 138 96 
24 4 410 211 144 102 
24 4 409 221 156 118 
25 4 408 233 168 130 
25 4 408 234 175 141 
26 4 407 242 183 149 
27 4 407 244 193 164 
27 4 406 249 198 169 
28 4 406 249 203 179 
29 4 405 252 206 182 
29 4 405 254 209 188 
30 4 405 255 210 189 
31 4 405 253 211 189 
31 4 405 254 212 190 
32 4 404 255 214 194 
33 4 405 255 217 197 
33 4 404 255 227 205 
34 4 404 255 230 208 
35 4 405 255 229 211 
35 4 405 255 223 205 
36 4 405 255 216 204 
36 4 405 253 213 201 
37 4 405 250 210 200 
38 4 406 238 198 188 
39 4 407 181 147 138 
39 4 407 70 36 27 
20 4 415 133 87 74 
21 4 414 159 113 100 
22 4 413 179 115 80 
22 4 412 189 125 90 
23 4 411 199 131 96 
24 4 411 205 137 102 
24 4 410 212 152 116 
25 4 408 226 166 130 
25 4 408 233 177 142 
26 4 408 242 186 151 
27 4 407 249 194 163 
27 4 406 251 196 165 
28 4 406 249 202 172 
29 4 405 248 201 171 
29 4 405 251 207 180 
30 4 405 255 212 185 
31 4 405 255 211 188 
31 4 405 255 210 187 
32 4 404 255 212 191 
32 4 404 255 217 196 
33 4 404 255 220 201 
34 4 404 254 219 200 
35 4 405 254 217 201 
35 4 405 254 217 201 
36 4 405 255 218 202 
36 4 405 255 219 203 
37 4 405 253 218 196 
38 4 405 249 214 192 
39 4 406 237 200 181 
39 4 406 177 140 121 
21 5 415 128 94 85 
22 5 414 173 112 84 
22 5 413 179 118 90 
23 5 412 192 126 92 
24 5 411 197 131 97 
24 5 410 205 142 107 
25 5 409 220 157 122 
25 5 408 230 171 137 
26 5 408 238 179 145 
27 5 408 243 189 155 
27 5 407 249 195 161 
28 5 406 246 197 165 
29 5 405 248 199 167 
29 5 405 250 205 176 
30 5 404 252 207 178 
30 5 404 254 210 185 
31 5 404 255 212 187 
32 5 404 255 211 190 
32 5 404 255 214 193 
33 5 404 253 216 197 
34 5 404 254 217 198 
34 5 404 254 217 199 
35 5 404 253 216 198 
36 5 405 254 217 199 
36 5 404 255 218 200 
37 5 405 254 217 198 
38 5 405 253 216 197 
39 5 406 243 206 187 
39 5 406 240 203 184 
40 5 406 170 132 121 
22 6 416 150 97 79 
22 6 414 158 105 87 
23 6 413 182 121 90 
24 6 412 190 129 98 
24 6 411 201 138 105 
25 6 410 211 148 115 
26 6 409 221 161 125 
26 6 408 231 171 135 
27 6 407 236 180 145 
27 6 407 243 187 152 
28 6 406 243 190 156 
29 6 406 247 194 160 
29 6 405 248 199 167 
30 6 405 250 201 169 
30 6 404 252 206 180 
31 6 404 255 211 185 
32 6 404 255 211 190 
32 6 404 255 211 190 
33 6 404 255 213 196 
34 6 404 255 214 197 
34 6 404 253 216 197 
35 6 404 254 217 198 
36 6 405 255 218 199 
36 6 405 255 217 198 
37 6 405 255 217 198 
38 6 405 255 218 199 
39 6 406 253 218 198 
39 6 406 247 212 192 
40 6 407 230 184 169 
41 6 407 158 112 97 
41 6 408 57 18 11 
23 6 416 142 109 100 
23 6 414 161 109 85 
24 6 413 174 122 98 
24 6 412 193 132 101 
25 6 411 201 140 109 
26 6 410 211 151 114 
26 6 409 225 165 128 
27 6 408 232 176 139 
27 6 407 236 180 143 
28 6 406 239 183 148 
29 6 406 242 186 151 
29 6 406 244 191 159 
30 6 405 246 193 161 
31 6 405 247 200 172 
31 6 404 253 206 178 
32 6 404 253 208 187 
32 6 404 254 209 188 
33 6 404 255 208 191 
34 6 404 255 209 192 
34 6 404 251 215 191 
35 6 404 252 216 192 
36 6 404 255 215 197 
36 6 405 255 214 196 
37 6 404 253 211 195 
38 6 405 252 210 194 
38 6 405 255 222 200 
39 6 406 241 206 184 
40 6 406 246 195 176 
41 6 407 227 176 157 
41 6 406 139 91 81 
23 7 416 147 108 93 
24 7 414 153 114 99 
24 7 413 178 118 94 
25 7 412 189 129 105 
26 7 411 204 141 106 
26 7 409 218 155 120 
27 7 408 224 168 131 
27 7 408 228 172 135 
28 7 407 234 174 140 
29 7 406 235 175 141 
29 7 406 238 182 149 
30 7 406 244 188 155 
31 7 405 241 194 164 
31 7 405 243 196 166 
32 7 404 247 199 179 
32 7 404 252 204 184 
33 7 404 255 204 186 
34 7 404 255 203 185 
34 7 404 247 209 186 
35 7 404 251 213 190 
36 7 404 255 212 195 
36 7 404 252 209 192 
37 7 404 248 205 189 
38 7 404 245 202 186 
38 7 405 246 208 187 
39 7 405 242 204 183 
40 7 405 252 197 177 
41 7 406 238 183 163 
41 7 406 222 168 156 
42 7 406 132 78 66 
24 8 415 139 114 110 
24 8 413 162 106 89 
25 8 413 173 117 100 
26 8 412 192 132 98 
26 8 410 205 145 111 
27 8 409 213 159 121 
28 8 409 219 165 127 
28 8 408 225 162 129 
29 8 407 227 164 131 
29 8 406 237 177 143 
30 8 406 248 188 154 
31 8 406 242 193 161 
31 8 405 240 191 159 
32 8 405 243 191 170 
32 8 404 249 197 176 
33 8 404 255 202 181 
34 8 404 255 201 180 
34 8 404 251 206 185 
35 8 404 255 210 189 
36 8 404 254 211 192 
36 8 404 252 209 190 
37 8 404 249 204 185 
38 8 405 245 200 181 
38 8 405 251 206 185 
39 8 405 247 202 181 
40 8 406 249 194 174 
41 8 406 250 195 175 
41 8 406 239 186 170 
42 8 407 209 156 140 
43 8 407 113 81 66 
43 8 408 42 10 0 
24 8 414 155 106 92 
25 8 413 158 109 95 
26 8 412 179 119 85 
26 8 411 192 132 98 
27 8 410 202 148 110 
28 8 409 211 157 119 
28 8 409 215 152 119 
29 8 408 219 156 123 
29 8 407 230 170 136 
30 8 406 243 183 149 
31 8 406 242 192 159 
31 8 406 241 191 158 
32 8 405 243 189 165 
33 8 405 247 193 169 
33 8 404 255 198 174 
34 8 404 255 199 175 
34 8 404 252 204 182 
35 8 404 255 207 185 
36 8 404 254 209 190 
36 8 404 253 208 189 
37 8 404 251 205 182 
38 8 405 248 202 179 
38 8 405 255 209 186 
39 8 405 255 206 183 
40 8 405 255 199 182 
41 8 406 251 195 178 
41 8 406 249 196 180 
42 8 406 238 185 169 
43 8 407 195 152 133 
43 8 408 96 53 34 
25 9 414 152 104 94 
26 9 413 166 107 73 
26 9 412 179 120 86 
27 9 410 188 136 97 
28 9 410 196 144 105 
28 9 409 209 146 113 
29 9 408 213 150 117 
29 9 408 223 160 125 
30 9 407 236 173 138 
31 9 406 237 187 152 
31 9 406 240 190 155 
32 9 406 244 186 162 
33 9 405 248 190 166 
33 9 405 251 194 165 
34 9 404 254 197 168 
34 9 404 252 200 179 
35 9 404 253 201 180 
36 9 404 251 204 186 
36 9 404 251 204 186 
37 9 404 251 203 180 
38 9 405 251 203 180 
38 9 405 255 215 191 
39 9 405 255 209 185 
40 9 405 255 206 189 
40 9 405 253 197 180 
41 9 406 245 194 175 
42 9 406 239 188 169 
43 9 406 237 187 164 
43 9 407 196 146 123 
26 10 414 156 109 81 
26 10 413 158 111 83 
27 10 412 178 122 87 
28 10 410 188 132 97 
28 10 410 206 143 110 
29 10 410 212 149 116 
30 10 409 216 157 127 
30 10 408 225 166 136 
31 10 407 233 174 142 
31 10 407 240 181 149 
32 10 406 246 191 160 
33 10 405 251 196 165 
33 10 405 245 195 170 
34 10 405 245 195 170 
34 10 404 247 197 174 
35 10 404 251 201 178 
36 10 404 254 204 181 
36 10 404 255 207 184 
37 10 404 255 207 184 
38 10 404 255 206 183 
38 10 404 254 202 180 
39 10 405 254 202 180 
40 10 405 254 199 178 
40 10 405 249 194 173 
41 10 406 246 191 171 
42 10 406 246 191 171 
43 10 406 242 190 168 
43 10 406 238 186 164 
44 10 406 181 135 119 
27 10 414 135 108 97 
27 10 413 165 106 72 
28 10 411 179 120 86 
28 10 410 194 133 102 
29 10 410 205 144 113 
30 10 410 215 154 123 
30 10 409 220 159 128 
31 10 408 222 165 136 
31 10 408 229 172 143 
32 10 407 238 179 145 
33 10 406 244 185 151 
33 10 405 239 188 161 
34 10 405 240 189 162 
35 10 405 244 192 168 
35 10 404 248 196 172 
36 10 404 251 199 175 
36 10 404 253 201 177 
37 10 404 254 204 179 
38 10 404 253 203 178 
38 10 405 252 200 176 
39 10 405 255 203 179 
40 10 405 255 204 182 
40 10 405 252 200 178 
41 10 406 248 196 174 
42 10 406 246 194 172 
43 10 406 244 194 171 
43 10 406 242 192 169 
44 10 406 229 186 167 
27 11 415 131 125 129 
27 11 414 153 105 82 
28 11 413 156 108 85 
28 11 412 185 120 88 
29 11 411 198 133 101 
30 11 410 208 147 118 
30 11 410 209 148 119 
31 11 409 210 151 121 
31 11 408 218 159 129 
32 11 408 228 165 130 
33 11 407 238 175 140 
33 11 406 233 180 149 
34 11 405 236 183 152 
35 11 405 242 188 160 
35 11 404 248 194 166 
36 11 404 251 197 169 
36 11 404 252 198 170 
37 11 404 251 200 173 
38 11 404 250 199 172 
38 11 404 251 200 173 
39 11 405 255 206 179 
40 11 405 255 207 185 
40 11 405 255 204 182 
41 11 405 252 200 178 
42 11 405 249 197 175 
42 11 405 246 196 173 
43 11 405 245 195 172 
44 11 405 242 197 176 
45 11 406 223 178 157 
45 11 406 144 101 92 
28 12 414 133 108 101 
28 12 413 170 107 74 
29 12 412 180 117 84 
30 12 412 196 132 104 
30 12 411 199 135 107 
31 12 410 203 139 104 
32 12 410 210 146 111 
32 12 409 217 154 119 
33 12 408 229 166 131 
33 12 406 225 171 137 
34 12 406 230 176 142 
35 12 405 239 182 152 
35 12 404 246 189 159 
36 12 404 249 192 163 
36 12 404 250 193 164 
37 12 404 249 195 167 
38 12 404 248 194 166 
38 12 404 250 199 172 
39 12 404 255 205 178 
40 12 405 255 208 183 
40 12 405 255 206 181 
41 12 405 254 204 181 
42 12 404 251 201 178 
42 12 405 248 198 175 
43 12 405 245 195 172 
44 12 405 244 198 175 
44 12 405 243 197 174 
45 12 406 225 172 156 
46 12 407 126 73 57 
29 13 414 152 105 85 
29 12 413 152 105 85 
30 12 413 178 112 80 
30 12 412 188 122 90 
31 12 412 196 132 97 
32 12 411 205 141 106 
32 12 410 210 146 110 
33 12 408 217 153 117 
33 12 407 219 160 126 
34 12 406 225 166 132 
35 12 406 233 174 140 
35 12 405 241 182 148 
36 12 405 246 187 157 
36 12 405 248 189 159 
37 12 405 247 192 162 
38 12 405 248 193 163 
38 12 405 251 200 173 
39 12 405 254 203 176 
40 12 405 255 206 181 
40 12 405 255 206 181 
41 12 405 255 205 182 
42 12 404 254 204 181 
42 12 404 250 199 178 
43 12 405 246 195 174 
44 12 405 252 202 179 
44 12 405 249 199 176 
45 12 405 249 194 174 
46 12 406 217 162 142 
29 13 415 133 109 109 
30 13 414 163 99 71 
30 13 413 171 107 79 
31 13 412 182 123 93 
32 13 411 195 136 106 
32 13 410 205 143 104 
33 13 409 209 147 108 
33 13 408 211 151 115 
34 13 407 218 158 122 
35 13 406 227 167 131 
35 13 406 235 175 139 
36 13 405 240 181 147 
36 13 405 244 185 151 
37 13 405 246 189 159 
38 13 405 249 192 162 
38 13 405 250 196 168 
39 13 405 253 199 171 
40 13 405 254 204 179 
40 13 405 255 206 181 
41 13 405 255 205 182 
42 13 404 255 206 183 
42 13 404 254 203 182 
43 13 405 251 200 179 
44 13 405 255 205 181 
44 13 405 253 199 175 
45 13 405 254 204 181 
46 13 406 244 194 171 
47 13 407 195 152 135 
47 13 407 78 35 18 
31 14 414 147 105 91 
31 14 413 165 109 82 
32 14 412 178 122 95 
32 14 411 196 133 98 
33 14 409 202 139 104 
34 14 409 206 142 106 
34 14 408 213 149 113 
35 14 407 219 159 122 
35 14 407 227 167 130 
36 14 406 233 175 138 
36 14 405 238 180 143 
37 14 405 241 184 154 
38 14 405 245 188 158 
38 14 405 246 190 163 
39 14 405 251 195 168 
40 14 404 252 201 174 
40 14 404 255 204 177 
41 14 404 255 205 180 
42 14 404 255 205 180 
42 14 404 253 205 183 
43 14 405 252 204 182 
44 14 405 255 209 185 
44 14 405 255 205 181 
45 14 405 255 205 180 
46 14 405 251 201 176 
46 14 406 234 189 170 
47 14 407 183 138 119 
32 15 413 164 107 78 
32 14 411 180 121 87 
33 14 410 188 129 95 
34 14 409 200 136 98 
34 14 408 206 142 104 
35 14 408 211 152 112 
35 14 408 217 158 118 
36 14 407 223 165 127 
37 14 406 229 171 133 
37 14 406 234 178 145 
38 14 405 240 184 151 
38 14 405 242 187 157 
39 14 405 248 193 163 
40 14 405 250 199 170 
40 14 404 252 201 172 
41 14 404 253 203 178 
42 14 404 254 204 179 
42 14 404 252 204 181 
43 14 404 252 204 181 
44 14 405 255 214 187 
44 14 405 255 206 179 
45 14 405 255 209 184 
46 14 405 250 200 175 
46 14 406 250 207 188 
47 14 406 230 187 168 
32 15 414 131 106 99 
33 15 413 169 99 65 
33 15 411 189 119 85 
34 15 411 194 128 96 
34 15 410 202 136 104 
35 15 409 201 142 110 
35 15 408 208 149 117 
36 15 408 221 162 118 
37 15 407 226 167 123 
37 15 406 229 173 126 
38 15 406 237 181 134 
38 15 405 235 185 150 
39 15 405 241 191 156 
40 15 405 250 193 166 
40 15 404 253 196 169 
41 15 404 255 197 172 
42 15 404 255 201 176 
42 15 404 255 207 186 
43 15 404 255 208 187 
44 15 404 251 207 180 
44 15 404 252 208 181 
45 15 404 251 199 177 
46 15 405 247 195 173 
46 15 405 248 200 177 
47 15 406 245 197 174 
48 15 406 228 175 157 
33 16 414 153 105 85 
33 16 413 149 101 81 
34 16 412 184 114 80 
34 16 411 193 123 89 
35 16 410 197 137 103 
36 16 410 204 144 110 
36 16 409 205 150 111 
37 16 408 212 157 118 
37 16 407 224 167 122 
38 16 406 231 174 129 
39 16 406 232 176 139 
39 16 405 238 182 145 
40 16 405 245 188 159 
40 16 405 249 192 163 
41 16 405 253 196 169 
42 16 404 254 197 170 
42 16 404 255 200 175 
43 15 404 255 205 180 
44 15 404 249 204 175 
44 15 404 251 206 177 
45 15 404 255 205 182 
46 16 405 252 202 179 
46 16 405 251 201 178 
47 16 405 251 201 178 
48 16 406 252 201 182 
49 16 407 223 172 153 
49 16 408 124 87 78 
33 17 414 128 108 109 
34 17 413 168 101 74 
35 17 413 178 111 84 
35 16 411 185 122 89 
36 16 410 195 132 99 
36 16 410 201 145 108 
37 16 409 204 148 111 
37 16 408 211 153 115 
38 16 407 223 165 127 
39 16 407 230 168 129 
39 16 406 235 173 134 
40 16 406 239 180 148 
40 16 405 247 188 156 
41 16 405 249 193 166 
42 16 405 250 194 167 
42 16 404 255 195 169 
43 16 404 255 203 177 
44 16 404 255 207 177 
44 16 404 255 206 176 
45 16 404 254 208 182 
46 16 405 251 205 179 
46 16 405 251 199 178 
47 16 405 250 198 177 
48 16 406 249 201 181 
49 16 407 249 201 181 
49 16 407 212 174 161 
34 17 414 154 104 93 
35 17 414 154 104 93 
35 17 413 172 111 80 
36 17 412 185 124 93 
36 17 411 195 133 96 
37 17 410 197 135 98 
38 17 409 203 143 107 
38 17 408 216 156 120 
39 17 408 222 158 120 
39 17 407 228 164 126 
40 17 406 231 173 136 
41 17 406 239 181 144 
41 17 405 241 190 159 
42 17 405 245 194 163 
42 17 405 254 194 166 
43 17 404 255 200 172 
44 17 404 255 203 175 
44 17 404 255 206 178 
45 17 404 253 207 181 
46 17 405 252 206 180 
46 17 405 254 202 181 
47 17 405 255 203 182 
48 17 406 244 197 179 
48 17 406 245 198 180 
49 17 407 243 204 187 
50 17 407 202 163 146 
36 18 413 162 108 84 
36 18 412 186 118 79 
37 18 411 195 127 88 
38 18 410 200 136 101 
38 18 409 207 143 108 
39 18 409 212 150 113 
39 18 408 220 158 121 
40 18 407 224 166 126 
41 18 407 231 173 133 
41 18 406 235 182 148 
42 18 406 242 189 155 
43 18 406 248 191 161 
43 18 405 252 195 165 
44 17 404 250 195 165 
44 17 404 255 205 175 
45 18 405 253 207 181 
46 18 405 254 208 182 
46 18 405 253 202 183 
47 18 405 255 206 187 
48 18 406 251 206 187 
48 18 406 249 204 185 
49 18 406 250 207 190 
50 18 406 242 199 182 
51 18 407 186 146 136 
51 18 408 94 54 44 
37 19 412 182 119 88 
38 18 411 191 126 88 
38 18 410 200 135 97 
39 18 410 203 141 100 
40 18 409 213 151 110 
40 18 408 218 161 118 
41 18 408 223 166 123 
41 18 407 228 175 135 
42 18 406 236 183 143 
43 18 406 242 188 154 
43 18 406 245 191 157 
44 18 405 250 195 165 
44 18 404 255 202 172 
45 18 405 253 203 176 
46 18 405 255 208 181 
46 18 405 253 205 183 
47 18 405 253 205 183 
48 18 405 250 205 186 
48 18 406 247 202 183 
49 18 406 255 209 191 
50 18 406 247 200 182 
50 18 406 237 193 180 
51 18 407 165 121 108 
38 19 412 180 114 79 
38 19 411 193 127 92 
39 19 410 195 131 87 
40 19 410 205 141 97 
40 19 409 209 150 108 
41 19 409 216 157 115 
41 19 408 224 166 128 
42 19 407 231 173 135 
43 19 406 234 178 141 
43 19 406 240 184 147 
44 19 405 248 191 161 
44 19 405 251 194 164 
45 19 405 253 197 170 
46 19 405 255 204 177 
46 19 405 255 210 186 
47 19 405 255 212 188 
48 19 405 253 206 186 
48 19 405 250 203 183 
49 19 406 255 205 186 
50 19 406 255 212 193 
50 19 406 240 194 179 
51 19 406 195 149 134 
38 20 413 166 101 69 
38 20 412 178 113 81 
39 20 411 189 121 76 
40 20 411 198 130 85 
40 20 410 201 139 102 
41 20 409 210 148 111 
42 20 409 219 159 123 
42 20 408 224 164 128 
43 20 407 227 169 132 
43 20 406 236 178 141 
44 20 405 242 185 155 
44 19 405 247 190 160 
45 19 405 255 197 169 
46 19 405 255 197 169 
46 19 405 252 206 180 
47 19 405 255 210 184 
48 19 405 252 204 182 
48 19 405 255 208 186 
49 19 405 255 213 192 
50 19 405 254 202 181 
50 19 405 226 179 161 
51 19 405 177 130 112 
52 20 406 73 40 35 
39 21 413 175 110 82 
40 21 412 185 120 92 
40 20 411 195 133 96 
41 20 411 204 142 105 
42 20 410 211 152 118 
42 20 409 218 159 125 
43 20 408 227 162 130 
43 20 407 235 170 138 
44 20 406 235 180 141 
44 20 405 244 189 150 
45 20 405 244 189 158 
46 20 405 251 196 165 
46 20 405 253 203 180 
47 20 405 255 206 183 
48 20 405 255 214 195 
48 20 405 255 211 192 
49 20 405 249 202 184 
50 20 405 211 164 146 
50 20 405 196 147 133 
51 20 405 216 167 153 
52 20 406 123 86 78 
40 21 413 167 112 92 
40 21 412 186 120 86 
41 21 411 192 126 92 
42 21 410 200 140 106 
42 21 410 212 152 118 
43 21 409 221 158 125 
43 21 408 225 162 129 
44 21 407 228 173 134 
45 21 406 234 179 140 
45 21 406 243 189 155 
46 21 406 245 191 157 
46 21 406 247 196 169 
47 21 405 255 206 179 
48 21 405 255 205 184 
48 21 405 255 204 183 
49 21 405 227 176 155 
41 22 412 179 115 88 
42 22 411 197 127 93 
42 22 410 208 138 104 
43 22 409 208 149 117 
44 22 409 216 157 125 
44 22 408 221 163 126 
45 22 407 228 170 133 
45 22 407 231 177 143 
46 22 406 241 187 153 
46 22 406 245 191 163 
47 22 406 251 197 169 
48 21 405 252 198 174 
48 21 405 231 177 153 
49 21 405 225 173 151 
42 23 412 186 112 77 
42 22 411 197 123 88 
43 22 409 195 136 104 
44 22 409 204 145 113 
44 22 409 212 154 117 
45 22 408 220 162 125 
45 22 407 226 170 135 
46 22 407 233 177 142 
46 22 406 240 185 154 
47 22 406 235 180 149 
48 22 405 222 166 141 
48 22 405 228 172 147 
42 23 411 177 115 90 
43 23 411 189 124 92 
44 23 410 198 133 101 
44 23 409 204 140 105 
45 23 409 213 149 114 
45 23 408 223 163 127 
46 23 408 228 168 132 
47 23 407 221 162 128 
47 23 406 209 150 116 
43 24 412 172 108 81 
44 24 411 186 122 95 
44 24 410 193 124 91 
45 24 409 208 139 106 
45 24 409 212 148 112 
46 24 409 210 146 110 
44 25 412 158 110 98 
44 24 411 179 112 83 
45 24 410 191 124 95 
46 24 410 192 125 96 
46 24 410 183 116 87 
45 25 412 168 104 79 
46 25 409 175 109 85 
