ply
format ascii 1.0
comment Created by CloudCompare v2.10.1 (Zephyrus)
comment Created 2020-05-06 8:40 PM
obj_info Generated by CloudCompare!
element vertex 111
property float x
property float y
property float z
property uchar red
property uchar green
property uchar blue
end_header
52 20 405 188 151 143 
50 21 405 206 155 134 
50 21 405 199 148 131 
51 21 405 209 158 141 
52 21 405 221 181 169 
52 21 405 222 182 170 
53 21 406 136 107 99 
50 21 405 250 198 176 
50 21 405 252 205 185 
51 21 405 230 183 163 
52 21 405 214 172 156 
52 21 405 220 178 162 
53 22 406 216 178 165 
49 22 405 252 204 182 
50 22 405 255 211 189 
50 22 405 251 213 192 
51 22 405 254 216 195 
52 22 405 238 201 183 
52 22 405 207 170 152 
53 22 406 224 182 168 
48 23 405 217 162 132 
48 23 405 254 199 169 
49 23 405 255 215 192 
50 23 405 255 214 191 
50 23 405 255 220 200 
51 23 405 253 218 198 
52 23 405 248 212 196 
52 23 405 225 189 173 
53 23 406 205 163 147 
54 23 406 220 178 162 
54 23 406 142 109 102 
47 24 408 196 136 100 
47 24 407 206 146 110 
48 24 406 240 185 154 
48 23 405 255 207 176 
49 23 405 255 213 189 
50 23 405 255 213 189 
50 23 405 254 217 198 
51 23 405 254 217 198 
52 23 405 255 218 199 
52 23 405 246 209 190 
53 24 406 211 168 149 
54 24 406 212 169 150 
54 24 406 191 153 140 
47 24 409 197 134 103 
47 24 408 230 167 136 
48 24 407 241 188 156 
48 24 406 251 198 166 
49 24 405 255 209 183 
50 24 405 255 216 190 
50 24 405 255 214 192 
51 24 405 255 214 192 
52 24 405 255 214 193 
52 24 406 255 215 194 
53 24 406 237 191 167 
54 24 406 202 156 132 
46 25 411 159 93 69 
47 25 409 209 148 120 
47 25 408 234 173 145 
48 25 407 241 190 159 
48 25 406 245 194 163 
49 25 405 249 203 177 
50 25 405 252 206 180 
50 25 405 255 211 188 
51 25 405 255 212 189 
52 25 405 255 208 185 
52 25 406 255 205 182 
53 25 406 246 196 169 
54 25 406 212 162 135 
54 25 406 198 151 131 
46 26 412 151 93 79 
47 26 409 219 159 133 
47 26 409 223 163 137 
48 26 408 236 189 161 
49 26 407 239 192 164 
49 26 407 233 183 156 
50 25 406 238 188 161 
50 25 406 243 193 160 
51 25 406 247 197 164 
52 25 406 247 198 166 
52 25 406 246 197 165 
53 25 406 247 195 174 
54 25 406 215 163 142 
54 25 406 186 149 133 
47 26 411 198 150 130 
48 26 410 171 123 103 
48 26 410 163 115 92 
49 26 409 185 137 114 
49 26 408 209 162 134 
50 26 407 227 180 152 
51 26 407 233 182 151 
51 26 406 232 181 150 
52 26 406 241 187 161 
52 26 406 240 186 160 
53 26 406 239 182 165 
54 26 406 220 163 146 
54 26 406 207 170 152 
49 27 411 149 98 77 
50 27 410 162 115 87 
50 27 409 195 148 120 
51 27 408 217 168 138 
51 27 407 220 171 141 
52 27 406 225 169 146 
52 27 406 225 169 146 
53 27 406 235 179 162 
50 28 410 156 110 84 
51 28 409 189 142 114 
52 27 406 224 170 146 
53 27 405 248 201 175 
50 28 411 165 120 99 
51 28 409 192 140 116 
