ply
format ascii 1.0
comment Created by CloudCompare v2.10.1 (Zephyrus)
comment Created 2020-05-06 8:40 PM
obj_info Generated by CloudCompare!
element vertex 563
property float x
property float y
property float z
property uchar red
property uchar green
property uchar blue
end_header
54 27 406 240 184 167 
54 27 405 227 190 171 
55 27 405 243 206 187 
56 27 405 238 206 191 
56 27 406 213 181 166 
57 27 406 151 124 115 
58 27 406 65 38 29 
58 27 406 29 5 3 
51 28 408 208 161 133 
52 28 407 212 158 134 
54 27 405 255 215 189 
54 27 405 254 218 192 
55 27 405 254 218 192 
56 27 405 249 213 191 
56 27 405 246 210 188 
57 27 405 234 198 182 
58 27 406 201 165 149 
58 27 406 137 103 94 
51 28 408 200 148 124 
52 28 407 217 161 134 
52 28 406 247 191 164 
53 28 405 255 213 182 
53 28 404 255 214 183 
54 28 404 255 220 191 
55 28 404 254 217 188 
55 28 404 255 218 192 
56 28 404 255 219 193 
57 28 404 245 204 186 
58 28 405 239 198 180 
58 28 405 224 184 172 
59 28 405 185 145 133 
50 29 411 165 123 111 
51 29 409 190 134 111 
51 29 408 211 155 132 
52 29 407 240 180 152 
52 29 406 255 199 171 
53 29 405 252 205 175 
53 29 404 255 212 182 
54 29 404 255 218 187 
55 29 404 255 223 192 
55 29 404 255 219 194 
56 29 404 255 216 191 
57 29 404 252 211 191 
57 29 404 250 209 189 
58 29 404 247 205 189 
59 29 404 231 189 173 
59 29 404 216 177 162 
60 29 405 133 94 79 
50 30 411 153 114 107 
51 30 409 196 140 117 
51 30 408 226 170 147 
52 30 407 237 182 151 
52 29 406 250 195 164 
53 29 405 251 204 176 
54 29 405 255 210 182 
54 29 404 255 225 198 
55 29 404 255 222 195 
55 29 404 255 219 194 
56 29 404 255 219 194 
57 29 404 255 216 194 
57 29 404 255 214 192 
58 29 404 253 212 190 
59 29 404 245 204 182 
59 29 404 234 193 173 
60 29 405 221 180 160 
50 30 410 160 125 121 
51 30 410 194 140 114 
51 30 408 218 164 138 
52 30 407 226 180 144 
52 30 406 238 192 156 
53 30 405 238 197 167 
54 30 405 248 207 177 
54 30 404 255 213 190 
55 30 404 255 221 198 
55 30 404 255 225 200 
56 30 404 255 223 198 
57 30 404 255 221 196 
57 30 404 255 217 192 
58 30 404 253 213 188 
59 30 404 250 210 185 
59 30 404 242 200 178 
60 30 405 239 197 175 
61 30 405 227 185 171 
61 30 405 167 125 111 
50 31 411 148 127 126 
51 31 410 185 136 104 
51 31 409 207 158 126 
52 31 407 238 171 144 
52 31 406 247 180 153 
53 31 405 243 194 162 
54 31 405 252 203 171 
54 31 404 253 201 177 
55 31 404 255 204 180 
55 31 404 255 210 186 
56 31 404 255 212 188 
57 31 404 255 215 191 
57 31 404 255 214 190 
58 31 404 253 213 188 
59 31 404 251 211 186 
60 31 405 242 201 179 
60 31 405 238 197 175 
61 31 405 229 190 173 
61 31 405 222 183 166 
62 31 405 179 142 133 
50 32 411 138 122 125 
51 32 409 183 127 94 
51 32 409 205 149 116 
52 32 408 229 164 134 
53 32 407 239 174 144 
53 31 406 238 188 153 
54 31 405 246 196 161 
54 31 404 248 197 170 
55 31 404 254 203 176 
55 31 404 255 209 183 
56 31 404 255 211 185 
57 31 404 255 214 190 
57 31 404 255 214 190 
58 31 404 255 213 189 
59 31 404 255 213 189 
59 31 404 250 208 184 
60 31 404 241 199 175 
61 31 404 243 202 184 
61 31 405 232 191 173 
62 31 405 218 180 169 
50 33 411 129 118 124 
51 32 410 184 118 84 
51 32 409 205 139 105 
52 32 408 221 156 124 
53 32 407 233 168 136 
53 32 407 236 184 145 
54 32 405 242 190 151 
54 32 405 246 192 164 
55 32 404 252 198 170 
55 32 404 253 206 180 
56 32 404 255 208 182 
57 32 404 255 211 188 
57 32 404 255 212 189 
58 32 404 255 213 189 
59 32 404 255 214 190 
60 32 405 253 208 185 
60 32 404 243 198 175 
61 32 404 243 201 179 
61 32 404 237 195 173 
62 32 405 228 189 174 
63 32 405 218 179 164 
63 32 405 146 109 101 
51 33 411 184 111 78 
51 33 409 204 131 98 
52 33 408 213 150 115 
53 33 407 227 164 129 
53 33 407 235 180 141 
54 33 406 241 186 147 
54 33 405 241 188 157 
55 33 405 247 194 163 
55 33 404 250 200 173 
56 33 404 254 204 177 
57 33 404 253 209 184 
57 33 404 255 211 186 
58 33 404 255 211 188 
59 33 404 255 211 188 
59 33 404 255 211 187 
60 33 404 252 206 182 
61 33 404 251 206 185 
61 33 404 247 202 181 
62 33 404 245 203 187 
63 33 405 231 189 173 
63 33 405 215 179 165 
64 33 405 125 89 75 
51 34 411 177 108 77 
52 34 410 193 124 93 
52 34 409 205 142 107 
53 34 407 221 158 123 
53 34 407 233 173 137 
54 33 406 239 179 143 
54 33 405 238 184 150 
55 33 405 242 188 154 
56 33 405 245 196 166 
56 33 405 251 202 172 
57 33 404 251 205 181 
57 33 404 254 208 184 
58 33 404 255 210 187 
59 33 404 255 210 187 
59 33 404 255 215 192 
60 33 404 255 212 189 
61 33 404 255 209 186 
61 33 404 254 208 185 
62 33 404 245 204 186 
63 33 404 235 194 176 
63 33 405 221 184 168 
64 33 405 204 167 151 
51 35 411 163 107 84 
51 34 409 176 120 97 
52 34 409 196 136 100 
53 34 407 212 152 116 
53 34 407 226 166 129 
54 34 406 235 175 138 
54 34 405 232 178 140 
55 34 405 236 182 144 
56 34 405 241 191 158 
56 34 405 248 198 165 
57 34 404 249 202 176 
57 34 404 252 205 179 
58 34 404 255 209 186 
59 34 404 255 210 187 
59 34 404 255 214 192 
60 34 403 255 215 193 
61 34 404 255 212 189 
61 34 404 255 215 192 
62 34 404 244 201 182 
63 34 404 244 201 182 
63 34 405 234 197 179 
64 34 405 224 187 169 
51 35 411 151 109 97 
51 35 409 158 116 104 
52 35 409 190 130 96 
53 35 408 205 145 111 
53 35 407 219 159 122 
54 35 406 231 171 134 
54 35 405 231 173 133 
55 35 405 233 175 135 
55 35 404 236 184 147 
56 35 404 245 193 156 
57 35 404 246 196 169 
57 35 404 251 201 174 
58 35 404 254 206 183 
59 35 404 255 209 186 
59 35 404 255 217 195 
60 34 403 255 215 193 
61 34 403 255 212 190 
61 35 404 254 206 184 
62 35 404 250 208 186 
63 35 404 247 205 183 
63 35 405 240 202 183 
64 35 405 236 198 179 
65 35 405 218 179 172 
52 36 410 144 113 110 
52 36 408 184 125 91 
53 36 408 198 139 105 
53 35 407 211 154 111 
54 35 406 226 169 126 
54 35 405 229 170 126 
55 35 405 230 171 127 
55 35 404 232 178 140 
56 35 404 241 187 149 
57 35 404 244 193 164 
57 35 403 249 198 169 
58 35 403 253 203 180 
59 35 403 255 207 184 
59 35 403 255 216 193 
60 35 403 255 216 193 
61 35 403 255 216 193 
61 35 403 255 214 191 
62 35 403 255 210 189 
62 35 403 251 206 185 
63 35 404 243 205 184 
64 35 404 238 200 179 
65 35 405 231 190 186 
65 35 405 209 168 164 
52 36 410 131 119 119 
52 36 409 174 125 93 
53 36 408 187 138 106 
53 36 407 206 147 107 
54 36 407 218 159 119 
54 36 406 236 169 126 
55 36 405 237 170 127 
56 36 405 236 176 139 
56 36 405 240 180 143 
57 36 404 241 191 156 
57 36 404 251 201 166 
58 36 404 252 207 174 
59 36 403 254 209 176 
59 36 403 251 210 182 
60 36 403 254 213 185 
61 36 403 254 213 191 
61 36 403 252 211 189 
62 36 403 250 208 186 
62 36 403 247 205 183 
63 36 403 248 202 179 
64 36 404 250 204 181 
65 36 404 240 202 179 
65 36 405 225 187 164 
66 36 405 170 136 126 
52 37 411 124 118 122 
52 37 409 160 122 101 
53 37 408 171 133 112 
53 37 407 201 142 102 
54 37 407 213 154 114 
54 37 406 223 164 124 
55 37 406 224 165 125 
56 37 406 229 173 136 
56 37 405 236 180 143 
57 37 405 235 183 146 
57 37 404 246 194 157 
58 37 404 249 201 165 
59 37 404 253 205 169 
59 37 404 251 206 175 
60 37 404 255 211 180 
61 37 404 254 212 187 
61 37 404 253 211 186 
62 37 404 253 211 187 
63 37 404 249 207 183 
63 37 404 249 203 179 
64 37 404 249 203 179 
65 37 404 245 205 180 
65 37 405 240 200 175 
66 37 405 206 170 158 
67 37 405 112 76 64 
52 38 410 141 118 110 
53 38 409 150 127 119 
53 38 408 193 135 98 
54 37 407 207 149 112 
54 37 407 217 163 129 
55 37 406 221 167 133 
56 37 406 225 171 135 
56 37 406 233 179 143 
57 37 405 235 181 143 
57 37 404 240 186 148 
58 37 404 243 191 154 
59 37 404 252 200 163 
59 37 404 251 202 169 
60 37 404 255 208 175 
61 37 404 254 210 183 
61 37 404 253 209 182 
62 37 404 255 210 187 
63 37 404 253 208 185 
63 37 404 250 204 181 
64 37 404 249 203 180 
65 37 404 247 205 180 
65 37 405 242 200 175 
66 37 405 227 188 173 
67 37 405 177 138 123 
67 37 405 59 24 18 
53 38 410 131 121 122 
53 38 409 179 128 97 
54 38 408 196 145 114 
54 38 407 211 155 122 
55 38 406 224 168 135 
56 38 406 224 170 134 
56 38 406 230 176 140 
57 38 406 230 176 140 
58 38 405 237 183 147 
58 38 404 241 189 152 
59 38 404 242 190 153 
59 38 404 249 199 166 
60 38 404 255 205 172 
61 38 404 253 206 178 
61 38 404 253 206 178 
62 38 404 255 209 186 
63 38 404 254 208 185 
63 38 404 251 204 184 
64 38 404 249 202 182 
65 38 404 253 209 182 
65 38 405 250 206 179 
66 38 405 238 197 177 
67 38 405 216 175 155 
67 38 405 124 86 77 
54 39 410 155 118 99 
54 39 410 171 134 115 
55 39 408 207 147 111 
55 39 407 219 159 123 
56 39 407 221 165 130 
56 39 406 234 178 143 
57 39 406 229 176 142 
58 39 405 230 177 143 
58 39 405 240 190 155 
59 39 405 242 192 157 
59 39 405 245 195 162 
60 39 405 250 200 167 
61 39 405 253 202 171 
61 39 405 253 202 171 
62 38 404 254 207 181 
63 38 404 255 208 182 
63 38 404 250 205 184 
64 38 404 247 202 181 
65 38 404 250 206 179 
65 38 404 253 209 182 
66 39 405 248 203 182 
67 39 405 230 185 164 
67 39 405 184 142 128 
68 39 406 115 73 59 
55 40 410 188 134 100 
55 40 408 207 153 119 
56 39 407 218 165 131 
56 39 407 224 171 137 
57 39 406 224 176 140 
58 39 406 221 173 137 
58 39 405 229 181 145 
59 39 406 237 189 153 
59 39 405 242 192 157 
60 39 405 246 196 161 
61 39 405 251 198 164 
61 39 405 252 199 165 
62 39 405 254 203 174 
63 39 404 255 205 176 
63 39 404 250 204 180 
64 39 404 248 202 178 
65 39 405 254 209 180 
65 39 405 251 206 177 
66 39 405 253 207 183 
67 39 405 242 196 172 
67 39 405 215 172 155 
68 39 406 135 92 75 
55 40 409 163 125 102 
56 40 408 205 161 134 
56 40 407 212 168 141 
57 40 407 219 173 140 
58 40 406 226 180 147 
58 40 405 229 181 145 
59 40 406 231 183 147 
60 40 406 239 189 152 
60 40 405 243 193 156 
61 40 405 248 194 158 
61 40 405 249 195 159 
62 40 405 253 200 168 
63 40 405 255 203 171 
63 40 404 252 201 174 
64 40 404 250 199 172 
65 40 404 255 211 183 
65 40 405 247 200 172 
66 40 405 251 201 174 
67 40 405 247 197 170 
67 40 405 228 181 161 
68 40 406 169 122 102 
69 40 406 99 77 80 
56 41 410 75 48 39 
56 41 409 159 122 103 
57 41 408 204 167 148 
57 41 407 214 167 137 
58 41 406 219 172 142 
58 41 406 229 179 144 
59 41 406 232 182 147 
60 41 406 238 185 151 
60 41 406 243 190 156 
61 41 405 245 191 157 
61 41 405 247 193 159 
62 41 405 254 199 168 
63 41 405 255 201 170 
63 41 405 252 196 169 
64 40 404 251 195 168 
65 40 404 253 206 176 
65 40 404 253 206 176 
66 41 405 251 202 172 
67 41 405 246 197 167 
67 41 405 239 191 169 
68 41 405 208 160 138 
69 41 406 116 94 96 
56 42 411 47 27 26 
56 42 410 99 63 47 
57 42 409 161 125 109 
57 42 408 202 156 123 
58 41 407 220 174 141 
58 41 407 223 177 141 
59 41 406 223 177 141 
60 41 406 229 183 150 
60 41 406 233 187 154 
61 41 405 246 191 161 
61 41 405 250 195 165 
62 41 405 255 201 172 
63 41 404 255 204 175 
63 41 404 255 202 174 
64 41 404 255 203 175 
65 41 405 246 200 166 
65 41 405 242 196 162 
66 41 405 247 203 174 
67 41 405 241 197 168 
68 41 406 232 194 171 
68 41 406 219 181 158 
69 41 406 158 121 102 
57 42 410 69 49 42 
58 42 410 134 97 78 
58 42 409 192 155 136 
59 42 408 215 169 136 
59 42 407 216 170 137 
60 42 407 221 169 132 
60 42 406 231 179 142 
61 42 406 237 183 149 
61 42 405 240 186 152 
62 42 405 254 195 165 
63 42 404 255 200 170 
63 42 404 255 195 164 
64 42 404 255 196 165 
65 42 404 245 197 161 
65 42 404 241 193 157 
66 42 405 241 195 162 
67 42 405 237 191 158 
67 42 405 230 186 161 
68 42 406 225 181 156 
69 42 406 181 140 120 
58 43 410 81 58 52 
58 43 409 124 101 95 
59 43 409 177 135 110 
59 43 408 205 163 138 
60 43 407 214 162 125 
60 43 407 221 169 132 
61 43 406 229 176 142 
61 43 405 234 181 147 
62 43 405 238 183 152 
63 43 405 247 192 161 
63 42 404 255 196 165 
64 42 404 251 190 159 
65 42 404 243 193 156 
65 42 404 240 190 153 
66 43 405 239 189 154 
67 43 405 238 188 153 
67 43 405 227 180 152 
68 43 405 224 177 149 
69 43 406 199 157 135 
69 43 406 139 97 75 
60 44 408 181 136 107 
60 43 407 200 155 126 
61 43 406 221 168 136 
61 43 405 230 177 145 
62 43 405 235 180 149 
63 43 405 238 183 152 
63 43 405 243 188 158 
64 43 404 244 189 159 
65 43 404 243 191 154 
65 43 405 241 189 152 
66 43 405 236 184 147 
67 43 405 237 185 148 
67 43 405 233 182 151 
68 43 406 222 171 140 
69 43 406 200 155 132 
69 43 406 150 105 82 
60 44 409 84 48 32 
61 44 408 133 97 81 
61 44 406 194 139 108 
62 44 406 216 161 130 
62 44 405 229 169 133 
63 44 405 237 177 141 
63 44 405 242 186 153 
64 44 405 243 187 154 
65 44 405 246 192 156 
65 44 405 242 188 152 
66 44 405 242 186 151 
67 44 405 236 180 145 
67 44 405 231 178 147 
68 44 406 229 176 145 
62 45 406 142 92 69 
62 44 405 193 133 97 
63 44 405 223 163 127 
63 44 405 238 178 141 
64 44 405 240 180 143 
65 44 405 236 182 146 
65 44 405 233 179 143 
66 44 405 238 182 149 
67 44 405 233 177 144 
67 45 406 229 175 147 
68 45 406 225 171 143 
62 45 407 88 50 31 
63 45 406 128 90 71 
63 45 405 176 129 101 
64 45 405 204 157 129 
65 45 405 229 179 146 
65 45 405 230 180 147 
66 45 405 226 175 144 
67 45 405 219 168 137 
67 45 405 208 160 137 
68 45 406 176 128 105 
65 46 406 161 114 84 
66 46 406 169 122 92 
66 46 405 171 124 98 
67 46 405 116 73 54 
