ply
format ascii 1.0
comment Created by CloudCompare v2.10.1 (Zephyrus)
comment Created 2020-05-06 8:41 PM
obj_info Generated by CloudCompare!
element vertex 1835
property float x
property float y
property float z
property uchar red
property uchar green
property uchar blue
property float scalar_Original_cloud_index
end_header
-23 111 405 200 155 126 0 
-23 111 405 150 105 76 0 
-22 111 405 199 171 168 0 
-23 111 405 195 151 122 0 
-23 111 405 181 137 108 0 
-22 111 405 198 160 149 0 
-22 111 405 217 179 168 0 
-24 112 404 201 159 135 0 
-23 112 404 210 169 141 0 
-23 112 404 212 171 143 0 
-22 112 405 211 166 147 0 
-22 112 405 207 162 143 0 
-33 114 409 169 114 94 0 
-24 112 404 225 181 156 0 
-23 112 404 239 198 170 0 
-23 112 404 235 194 166 0 
-22 113 405 216 172 147 0 
-22 113 405 200 156 131 0 
-21 113 406 203 189 186 0 
-33 114 409 189 134 113 0 
-32 114 407 206 151 130 0 
-25 113 404 223 173 148 0 
-25 113 404 239 193 167 0 
-24 113 404 247 201 175 0 
-23 113 404 245 201 174 0 
-23 113 404 236 192 165 0 
-22 113 404 215 176 145 0 
-21 113 405 203 164 133 0 
-21 113 406 198 174 162 0 
-33 115 409 200 143 123 0 
-32 114 407 234 177 157 0 
-30 114 406 194 149 116 0 
-29 114 405 170 125 92 0 
-29 114 405 189 139 106 0 
-28 114 405 211 161 128 0 
-27 114 405 210 157 139 0 
-27 114 405 220 167 149 0 
-26 114 405 238 188 163 0 
-25 114 404 249 199 174 0 
-25 113 403 252 203 173 0 
-24 113 403 248 199 169 0 
-23 113 403 247 201 175 0 
-23 114 404 236 190 164 0 
-22 114 404 222 186 154 0 
-21 114 405 200 164 132 0 
-21 114 406 196 163 144 0 
-33 116 410 190 130 104 0 
-32 115 408 240 180 154 0 
-31 115 407 244 190 164 0 
-31 115 406 239 185 159 0 
-30 115 406 229 177 153 0 
-29 114 405 216 164 140 0 
-29 114 405 223 173 148 0 
-28 114 404 230 180 155 0 
-27 114 404 231 183 160 0 
-27 114 404 235 187 164 0 
-26 114 404 242 200 176 0 
-25 114 404 242 200 176 0 
-25 114 403 242 200 176 0 
-24 114 403 245 203 179 0 
-23 114 403 245 201 174 0 
-23 114 404 233 189 162 0 
-22 114 404 224 179 150 0 
-21 114 405 211 166 137 0 
-21 115 406 196 151 122 0 
-33 116 410 188 126 101 0 
-32 116 409 237 175 150 0 
-31 116 407 250 196 170 0 
-31 115 406 243 189 163 0 
-30 115 405 238 188 161 0 
-29 115 405 230 180 153 0 
-29 115 405 234 187 161 0 
-28 115 404 240 193 167 0 
-27 115 404 240 194 170 0 
-27 115 404 240 194 170 0 
-26 115 404 242 200 176 0 
-25 115 404 241 199 175 0 
-25 115 403 242 200 175 0 
-24 115 403 245 203 178 0 
-23 115 403 244 200 173 0 
-23 115 404 233 189 162 0 
-22 115 404 224 179 148 0 
-21 115 405 213 168 137 0 
-21 115 406 196 151 118 0 
-20 115 406 213 168 135 0 
-20 116 407 200 203 210 0 
-33 117 410 188 127 99 0 
-32 117 409 229 168 140 0 
-32 117 408 254 198 171 0 
-31 116 406 244 188 161 0 
-30 116 405 239 189 164 0 
-29 116 405 235 185 160 0 
-29 116 405 239 192 166 0 
-28 115 404 243 196 170 0 
-27 115 404 244 198 174 0 
-27 115 404 243 197 173 0 
-26 115 404 243 199 174 0 
-25 115 403 243 199 174 0 
-25 115 403 245 201 176 0 
-24 115 403 246 202 177 0 
-23 115 403 243 198 169 0 
-23 115 404 233 188 159 0 
-22 115 404 224 178 145 0 
-21 116 405 216 170 137 0 
-21 116 406 203 154 121 0 
-20 116 406 205 156 123 0 
-20 116 407 202 201 207 0 
-33 118 411 190 129 100 0 
-32 118 409 218 157 128 0 
-32 117 408 247 192 162 0 
-31 117 406 243 188 158 0 
-30 116 405 241 191 166 0 
-29 116 405 239 189 164 0 
-29 116 405 242 195 169 0 
-28 116 404 245 198 172 0 
-27 116 404 245 199 175 0 
-27 116 403 246 200 176 0 
-26 116 403 245 201 176 0 
-25 116 403 245 201 176 0 
-25 116 403 246 200 174 0 
-24 116 403 247 201 175 0 
-23 116 403 244 197 167 0 
-23 116 403 233 186 156 0 
-22 116 404 225 176 143 0 
-21 116 404 220 171 138 0 
-21 116 405 210 160 125 0 
-20 117 406 200 150 115 0 
-20 117 407 197 191 193 0 
-33 119 411 189 129 95 0 
-32 118 410 205 145 111 0 
-32 118 408 236 181 150 0 
-31 117 406 246 191 160 0 
-30 117 405 242 192 167 0 
-29 117 405 241 191 166 0 
-29 117 405 242 195 169 0 
-28 117 404 245 198 172 0 
-27 117 404 245 199 175 0 
-27 116 403 249 203 179 0 
-26 116 403 250 204 180 0 
-25 116 403 247 201 177 0 
-25 116 403 245 199 173 0 
-24 116 403 246 200 174 0 
-23 116 403 244 197 169 0 
-23 116 403 232 185 157 0 
-22 117 404 225 176 143 0 
-21 117 404 222 173 140 0 
-21 117 405 216 166 131 0 
-20 117 406 200 150 115 0 
-20 118 407 190 175 170 0 
-33 119 411 187 127 91 0 
-32 119 410 197 137 101 0 
-32 119 408 224 168 135 0 
-31 118 407 247 191 158 0 
-30 118 405 243 193 166 0 
-29 118 405 242 192 165 0 
-29 118 405 241 194 168 0 
-28 117 404 243 196 170 0 
-27 117 404 243 197 173 0 
-27 117 403 250 204 180 0 
-26 117 403 248 204 179 0 
-25 117 403 244 200 175 0 
-25 117 403 245 201 174 0 
-24 117 403 244 200 173 0 
-23 117 403 240 195 166 0 
-23 117 403 229 184 155 0 
-22 117 404 224 178 145 0 
-21 117 404 220 174 141 0 
-21 118 405 218 170 134 0 
-20 118 406 203 155 119 0 
-20 118 406 186 162 150 0 
-33 120 411 187 127 90 0 
-32 120 410 197 137 100 0 
-32 119 408 211 155 118 0 
-31 119 407 234 178 141 0 
-30 119 406 248 195 164 0 
-29 118 405 251 198 167 0 
-29 118 404 247 197 170 0 
-28 118 404 246 196 169 0 
-27 118 404 244 198 172 0 
-27 118 403 250 204 178 0 
-26 118 403 246 200 174 0 
-25 118 403 243 197 171 0 
-25 118 403 245 200 171 0 
-24 118 403 243 198 169 0 
-23 118 403 238 193 164 0 
-23 118 403 227 182 153 0 
-22 118 404 224 178 145 0 
-21 118 404 220 174 141 0 
-21 118 405 219 171 135 0 
-20 118 405 208 160 124 0 
-20 119 406 188 156 135 0 
-33 121 411 187 128 88 0 
-32 120 410 199 140 100 0 
-32 120 408 203 145 108 0 
-31 120 407 221 163 126 0 
-30 119 406 241 186 155 0 
-29 119 405 251 196 165 0 
-29 119 404 248 197 168 0 
-28 119 404 248 197 168 0 
-27 119 404 248 198 171 0 
-27 118 403 253 203 176 0 
-26 118 403 244 197 169 0 
-25 118 403 243 196 168 0 
-25 118 403 244 197 169 0 
-24 118 403 241 194 166 0 
-23 118 403 237 192 161 0 
-23 118 403 227 182 151 0 
-22 118 403 226 180 147 0 
-21 119 404 220 174 141 0 
-21 119 404 220 170 135 0 
-20 119 405 211 161 126 0 
-20 119 406 191 154 128 0 
-33 121 411 189 125 79 0 
-32 121 410 203 139 93 0 
-32 120 408 207 139 100 0 
-31 120 407 216 148 109 0 
-30 120 406 223 170 138 0 
-29 120 405 241 188 156 0 
-29 119 404 249 198 167 0 
-28 119 404 249 198 167 0 
-27 119 404 246 199 169 0 
-27 119 403 247 200 170 0 
-26 119 403 245 198 170 0 
-25 119 403 242 195 167 0 
-25 119 403 240 193 163 0 
-24 119 403 238 191 161 0 
-23 119 403 238 189 157 0 
-23 119 403 234 185 153 0 
-22 119 403 227 177 142 0 
-21 119 404 223 173 138 0 
-21 119 404 223 169 133 0 
-20 120 405 218 164 128 0 
-20 120 406 201 156 125 0 
-33 122 411 190 126 80 0 
-32 122 410 202 138 92 0 
-32 121 408 208 141 99 0 
-31 121 407 215 148 106 0 
-30 121 406 211 157 121 0 
-29 120 405 225 171 135 0 
-29 120 405 239 186 152 0 
-28 120 404 247 194 160 0 
-27 120 404 246 197 165 0 
-27 120 403 245 196 164 0 
-26 120 403 242 193 163 0 
-25 120 403 241 192 162 0 
-25 120 403 236 189 159 0 
-24 120 403 237 190 160 0 
-23 120 403 239 190 158 0 
-23 120 403 234 185 153 0 
-22 120 403 228 178 143 0 
-21 120 404 223 173 138 0 
-21 120 404 224 172 135 0 
-20 120 405 219 167 130 0 
-20 121 406 202 157 126 0 
-19 121 406 206 161 130 0 
-33 123 411 190 126 80 0 
-32 122 410 201 137 91 0 
-32 122 408 209 142 100 0 
-31 121 407 215 148 106 0 
-30 121 406 208 150 113 0 
-29 121 405 212 154 117 0 
-29 121 404 225 171 135 0 
-28 121 404 236 182 146 0 
-27 121 404 237 187 152 0 
-27 120 403 237 187 152 0 
-26 120 403 236 187 154 0 
-25 120 403 239 190 157 0 
-25 120 403 237 188 156 0 
-24 120 403 239 190 158 0 
-23 120 403 239 190 157 0 
-23 120 403 234 185 152 0 
-22 121 404 226 178 142 0 
-21 121 404 223 175 139 0 
-21 121 404 226 174 137 0 
-20 121 405 221 169 132 0 
-20 121 406 205 160 129 0 
-19 121 406 198 153 122 0 
-33 124 412 192 128 82 0 
-32 123 409 200 136 90 0 
-32 123 409 210 141 99 0 
-31 122 408 215 146 104 0 
-30 122 407 210 151 109 0 
-29 122 406 210 151 109 0 
-29 122 405 220 162 124 0 
-28 121 404 228 170 132 0 
-27 121 403 230 176 140 0 
-27 121 403 232 178 142 0 
-26 121 402 230 180 145 0 
-25 121 402 237 187 152 0 
-25 121 402 237 188 155 0 
-24 121 402 239 190 157 0 
-23 121 402 238 189 156 0 
-23 121 402 233 184 151 0 
-22 121 403 226 178 142 0 
-21 121 403 225 177 141 0 
-21 121 403 225 175 138 0 
-20 121 404 219 169 132 0 
-20 122 405 208 162 129 0 
-19 122 406 196 150 117 0 
-18 122 406 196 187 182 0 
-33 124 412 193 129 83 0 
-32 124 410 202 138 92 0 
-32 123 409 210 141 99 0 
-31 123 408 213 144 102 0 
-30 122 406 214 151 108 0 
-29 122 406 215 152 109 0 
-29 122 405 221 162 120 0 
-28 122 404 226 167 125 0 
-27 122 403 227 172 133 0 
-27 122 403 230 175 136 0 
-26 121 402 228 176 139 0 
-25 121 402 234 182 145 0 
-25 121 402 235 186 153 0 
-24 121 402 236 187 154 0 
-23 121 402 236 187 154 0 
-23 121 402 233 184 151 0 
-22 122 403 227 179 143 0 
-21 122 403 225 177 141 0 
-21 122 403 223 175 139 0 
-20 122 404 216 168 132 0 
-20 122 405 210 161 128 0 
-19 122 405 198 149 116 0 
-18 123 406 193 173 162 0 
-33 125 411 191 127 81 0 
-32 124 409 201 137 91 0 
-32 124 408 208 139 97 0 
-31 124 408 213 144 102 0 
-30 123 407 213 149 103 0 
-29 123 405 217 153 107 0 
-29 123 405 224 161 118 0 
-28 123 404 227 164 121 0 
-27 123 404 228 170 130 0 
-27 122 403 232 174 134 0 
-26 122 403 228 176 137 0 
-25 122 402 231 179 140 0 
-25 122 402 232 182 147 0 
-24 122 402 234 184 149 0 
-23 122 402 234 186 150 0 
-23 122 402 233 185 149 0 
-22 122 402 227 179 143 0 
-21 122 403 225 177 141 0 
-21 122 403 223 175 137 0 
-20 123 404 217 169 131 0 
-19 123 404 211 161 126 0 
-19 123 405 202 152 117 0 
-18 123 406 190 161 143 0 
-18 123 406 223 194 176 0 
-33 126 412 184 122 75 0 
-32 125 409 198 136 89 0 
-32 124 408 207 138 96 0 
-31 124 408 212 143 101 0 
-30 124 407 214 148 100 0 
-29 124 406 218 152 104 0 
-29 123 405 222 158 114 0 
-28 123 404 227 163 119 0 
-27 123 404 227 168 126 0 
-27 123 403 232 173 131 0 
-26 123 403 231 178 138 0 
-25 123 403 232 179 139 0 
-25 123 402 231 181 144 0 
-24 123 402 232 182 145 0 
-23 123 402 234 184 147 0 
-23 123 402 234 184 147 0 
-22 123 402 229 179 142 0 
-21 123 402 225 175 138 0 
-21 123 403 223 175 137 0 
-20 123 403 219 171 133 0 
-19 123 404 215 163 126 0 
-19 123 404 206 154 117 0 
-18 124 406 189 154 132 0 
-18 124 406 224 189 167 0 
-32 126 410 196 134 87 0 
-32 125 409 204 137 94 0 
-31 125 408 209 142 99 0 
-30 125 407 214 148 98 0 
-29 124 406 216 150 100 0 
-29 124 406 220 156 110 0 
-28 124 405 228 164 118 0 
-27 124 404 226 167 123 0 
-27 124 403 229 170 126 0 
-26 124 403 231 178 138 0 
-25 124 403 230 177 137 0 
-25 123 402 230 181 141 0 
-24 123 402 231 182 142 0 
-23 123 402 235 185 148 0 
-23 123 402 236 186 149 0 
-22 123 402 232 183 143 0 
-21 123 402 226 177 137 0 
-21 124 403 224 175 135 0 
-20 124 403 220 171 131 0 
-19 124 404 219 165 129 0 
-19 124 404 209 155 119 0 
-18 124 405 190 153 127 0 
-18 124 406 223 186 160 0 
-32 126 410 197 133 89 0 
-32 126 409 204 136 87 0 
-31 126 408 209 141 92 0 
-30 126 408 211 148 97 0 
-29 125 406 216 153 102 0 
-29 125 406 219 158 111 0 
-28 125 405 225 164 117 0 
-27 124 404 226 169 126 0 
-27 124 403 229 172 129 0 
-26 124 403 231 178 138 0 
-25 124 403 233 180 140 0 
-25 124 402 228 179 139 0 
-24 124 402 232 183 143 0 
-23 124 402 233 183 146 0 
-23 124 402 233 183 146 0 
-22 124 402 231 181 144 0 
-21 124 402 226 176 139 0 
-21 124 403 223 174 134 0 
-20 124 403 220 171 131 0 
-19 124 404 211 168 126 0 
-19 125 405 208 165 123 0 
-18 125 405 194 148 114 0 
-18 125 406 223 177 143 0 
-32 127 410 196 133 92 0 
-32 127 409 203 135 86 0 
-31 126 408 207 139 90 0 
-30 126 408 211 148 97 0 
-29 126 407 216 153 102 0 
-29 126 406 220 158 111 0 
-28 125 405 226 164 117 0 
-27 125 404 224 167 124 0 
-27 125 403 226 169 126 0 
-26 125 403 229 176 134 0 
-25 125 403 233 180 138 0 
-25 124 402 227 178 138 0 
-24 124 402 231 182 142 0 
-23 124 402 233 183 146 0 
-23 124 402 233 183 146 0 
-22 124 402 233 183 146 0 
-21 124 402 229 179 142 0 
-21 125 403 223 174 134 0 
-20 125 403 219 170 130 0 
-19 125 404 214 169 128 0 
-19 125 405 214 169 128 0 
-18 126 406 197 151 115 0 
-32 128 410 195 131 96 0 
-32 127 409 202 134 85 0 
-31 127 408 205 137 88 0 
-30 127 407 212 146 96 0 
-29 127 407 217 151 101 0 
-29 126 406 219 157 110 0 
-28 126 405 224 162 115 0 
-27 126 404 223 164 120 0 
-27 125 403 225 166 122 0 
-26 125 403 228 175 133 0 
-25 125 403 232 179 137 0 
-25 125 402 229 177 138 0 
-24 125 402 233 181 142 0 
-23 125 402 232 182 145 0 
-23 125 402 233 183 146 0 
-22 125 402 232 182 145 0 
-21 125 402 230 180 143 0 
-21 125 403 225 176 136 0 
-20 126 404 219 170 130 0 
-19 126 404 215 170 128 0 
-19 126 405 218 173 131 0 
-18 126 406 202 154 116 0 
-18 127 407 208 160 122 0 
-32 129 411 194 128 102 0 
-32 128 410 200 132 83 0 
-31 128 408 205 137 88 0 
-30 127 407 212 146 94 0 
-29 127 407 216 150 98 0 
-29 127 406 218 154 106 0 
-28 127 405 223 159 111 0 
-27 127 405 223 164 120 0 
-27 126 404 225 166 122 0 
-26 126 403 227 174 132 0 
-25 126 403 231 178 136 0 
-25 126 403 229 177 138 0 
-24 126 402 233 181 142 0 
-23 126 402 232 183 143 0 
-23 126 402 232 183 143 0 
-22 126 402 231 182 142 0 
-21 126 403 229 180 140 0 
-21 126 404 226 177 137 0 
-20 126 404 221 172 132 0 
-19 126 404 215 170 128 0 
-19 127 405 218 173 131 0 
-18 127 406 205 157 119 0 
-18 127 406 201 153 115 0 
-32 130 412 190 125 107 0 
-32 129 410 198 130 81 0 
-31 129 409 203 135 86 0 
-30 128 407 213 147 95 0 
-29 128 406 218 152 100 0 
-29 128 406 217 155 106 0 
-28 127 405 221 159 110 0 
-27 127 405 224 166 120 0 
-27 127 404 226 168 122 0 
-26 127 403 226 173 131 0 
-25 127 403 230 177 135 0 
-25 127 403 226 177 136 0 
-24 126 402 231 182 141 0 
-23 126 402 232 183 143 0 
-23 126 402 231 182 142 0 
-22 126 402 230 181 141 0 
-21 127 403 229 180 140 0 
-21 127 404 227 178 137 0 
-20 127 404 222 173 132 0 
-19 127 404 216 171 129 0 
-19 127 405 216 171 129 0 
-18 128 406 207 159 121 0 
-18 128 406 198 150 112 0 
-32 130 410 197 129 80 0 
-31 129 409 202 134 85 0 
-30 129 408 213 147 95 0 
-29 129 407 221 155 103 0 
-29 128 406 219 157 106 0 
-28 128 405 221 159 108 0 
-27 128 405 225 167 121 0 
-27 128 404 225 167 121 0 
-26 128 404 223 170 126 0 
-25 127 403 229 176 132 0 
-25 127 403 227 178 137 0 
-24 127 403 230 181 140 0 
-23 127 402 230 181 140 0 
-23 127 402 230 181 140 0 
-22 127 403 229 180 139 0 
-21 127 403 229 180 139 0 
-21 128 404 227 178 137 0 
-20 128 404 223 174 133 0 
-19 128 404 218 173 131 0 
-19 128 405 214 169 127 0 
-18 128 406 210 162 124 0 
-18 128 406 197 149 111 0 
-32 130 410 198 132 82 0 
-31 130 409 202 136 86 0 
-30 130 408 213 147 95 0 
-29 129 407 222 156 104 0 
-29 129 407 221 159 108 0 
-28 129 406 222 160 109 0 
-27 129 405 224 166 118 0 
-27 128 404 225 167 119 0 
-26 128 404 222 169 125 0 
-25 128 403 227 174 130 0 
-25 128 403 227 175 135 0 
-24 128 403 229 177 137 0 
-23 128 402 228 179 138 0 
-23 128 402 228 179 138 0 
-22 128 403 230 178 138 0 
-21 128 403 230 178 138 0 
-21 128 404 230 178 138 0 
-20 128 404 226 174 134 0 
-19 129 405 218 173 131 0 
-19 129 405 214 169 127 0 
-18 129 406 213 164 124 0 
-18 129 407 196 147 107 0 
-32 131 412 200 134 84 0 
-31 131 410 204 138 88 0 
-30 130 408 212 146 94 0 
-29 130 407 221 155 103 0 
-29 130 406 220 159 105 0 
-28 130 406 221 160 106 0 
-27 129 405 223 165 117 0 
-27 129 404 224 166 118 0 
-26 129 404 223 169 125 0 
-25 129 403 227 173 129 0 
-25 129 403 224 172 132 0 
-24 129 403 227 175 135 0 
-23 129 403 230 178 138 0 
-23 128 402 231 179 139 0 
-22 129 403 230 179 136 0 
-21 129 403 229 178 135 0 
-21 129 404 230 177 137 0 
-20 129 404 226 173 133 0 
-19 129 405 219 172 130 0 
-19 129 405 217 170 128 0 
-18 129 405 214 165 125 0 
-18 130 406 193 144 104 0 
-31 132 411 201 133 86 0 
-30 131 409 209 147 98 0 
-30 131 408 216 154 105 0 
-29 131 407 218 157 110 0 
-28 130 406 221 160 113 0 
-27 130 405 223 165 117 0 
-27 130 404 221 163 115 0 
-26 130 404 221 165 118 0 
-25 130 404 229 173 126 0 
-25 129 403 226 172 125 0 
-24 129 403 228 174 127 0 
-23 129 403 228 175 131 0 
-23 129 403 230 177 133 0 
-22 129 403 229 178 135 0 
-21 130 404 230 179 136 0 
-21 130 404 227 179 133 0 
-20 130 404 221 173 127 0 
-19 130 405 224 171 131 0 
-19 130 406 220 167 127 0 
-18 130 406 211 167 122 0 
-18 130 406 194 150 105 0 
-31 133 412 209 143 95 0 
-30 132 410 210 148 99 0 
-30 132 408 215 153 104 0 
-29 131 407 217 156 109 0 
-28 131 406 220 159 112 0 
-27 131 405 220 162 114 0 
-27 131 405 219 161 113 0 
-26 131 405 220 164 117 0 
-25 130 404 226 170 123 0 
-25 130 404 224 170 124 0 
-24 130 404 226 172 126 0 
-23 130 403 227 174 130 0 
-23 130 403 228 175 131 0 
-22 130 403 228 177 134 0 
-21 130 403 229 178 135 0 
-21 130 404 226 177 134 0 
-20 130 404 221 172 129 0 
-19 131 405 223 172 129 0 
-19 131 405 220 169 126 0 
-18 131 405 211 167 122 0 
-18 131 406 195 151 106 0 
-30 133 410 209 147 98 0 
-30 132 408 214 152 103 0 
-29 132 407 216 155 108 0 
-28 132 406 218 157 110 0 
-27 132 406 218 160 112 0 
-27 131 405 218 160 112 0 
-26 131 404 220 164 117 0 
-25 131 404 225 169 122 0 
-25 131 403 221 167 121 0 
-24 131 403 224 170 124 0 
-23 131 403 225 172 130 0 
-23 130 402 228 175 133 0 
-22 131 403 229 178 135 0 
-21 131 403 229 178 135 0 
-21 131 403 225 176 135 0 
-20 131 403 220 171 130 0 
-19 131 404 222 171 128 0 
-19 131 405 220 169 126 0 
-18 131 405 213 166 122 0 
-18 132 406 199 152 108 0 
-17 132 407 194 160 159 0 
-30 134 411 206 144 93 0 
-30 133 409 213 151 100 0 
-29 133 408 217 157 107 0 
-28 132 407 218 158 108 0 
-27 132 406 217 159 111 0 
-27 132 405 218 160 112 0 
-26 132 405 220 164 117 0 
-25 132 404 226 170 123 0 
-25 131 403 221 167 121 0 
-24 131 403 224 170 124 0 
-23 131 403 225 172 128 0 
-23 131 403 228 175 131 0 
-22 131 403 229 178 135 0 
-21 131 403 229 178 135 0 
-21 131 403 225 176 135 0 
-20 132 404 220 171 130 0 
-19 132 404 219 170 127 0 
-19 132 405 219 170 127 0 
-18 132 406 212 165 121 0 
-18 132 406 201 154 110 0 
-17 133 407 190 155 151 0 
-30 135 412 203 141 90 0 
-30 134 410 212 150 99 0 
-29 134 409 216 156 104 0 
-28 133 407 218 158 106 0 
-27 133 406 218 160 110 0 
-27 132 405 220 162 112 0 
-26 132 405 221 165 118 0 
-25 132 404 225 169 122 0 
-25 132 404 223 169 123 0 
-24 132 403 227 173 127 0 
-23 132 403 227 174 130 0 
-23 132 403 227 174 130 0 
-22 132 403 227 176 133 0 
-21 132 403 227 176 133 0 
-21 132 403 225 176 133 0 
-20 132 404 223 174 131 0 
-19 133 405 217 170 128 0 
-19 133 405 218 171 129 0 
-18 133 406 213 164 121 0 
-18 133 407 204 155 112 0 
-17 133 407 189 152 143 0 
-30 135 411 209 147 96 0 
-29 134 409 214 154 102 0 
-28 134 408 217 157 105 0 
-27 134 407 219 161 111 0 
-27 133 406 220 162 112 0 
-26 133 405 220 164 115 0 
-25 133 404 223 167 118 0 
-25 133 404 224 170 123 0 
-24 132 403 228 174 127 0 
-23 132 403 229 177 130 0 
-23 132 403 228 176 129 0 
-22 132 403 226 175 130 0 
-21 132 403 225 174 129 0 
-21 132 403 225 176 133 0 
-20 133 404 224 175 132 0 
-19 133 405 216 171 130 0 
-19 133 405 215 170 129 0 
-18 133 406 216 165 122 0 
-18 134 407 207 156 113 0 
-17 134 407 190 150 138 0 
-30 136 411 205 143 94 0 
-29 135 410 212 152 100 0 
-28 135 408 216 156 104 0 
-27 134 407 217 159 109 0 
-27 134 406 219 161 111 0 
-26 134 406 220 164 117 0 
-25 134 405 222 166 119 0 
-25 133 404 222 168 122 0 
-24 133 403 227 173 127 0 
-23 133 403 228 176 129 0 
-23 133 403 227 175 128 0 
-22 133 403 225 174 129 0 
-21 133 403 225 174 129 0 
-21 133 403 225 176 133 0 
-20 133 404 225 176 133 0 
-19 134 405 220 172 132 0 
-19 134 405 216 168 128 0 
-18 134 405 217 164 120 0 
-18 134 406 209 156 112 0 
-17 134 407 190 149 131 0 
-30 136 411 202 140 91 0 
-29 136 410 211 151 101 0 
-28 136 409 216 156 106 0 
-27 135 407 216 158 110 0 
-27 135 407 218 160 112 0 
-26 135 406 220 164 117 0 
-25 134 405 223 167 120 0 
-25 134 404 221 167 121 0 
-24 134 404 225 171 125 0 
-23 134 403 225 173 126 0 
-23 134 403 225 173 126 0 
-22 134 403 225 174 129 0 
-21 134 403 226 175 130 0 
-21 134 404 226 177 134 0 
-20 134 404 226 177 134 0 
-19 134 404 222 174 134 0 
-19 134 405 215 167 127 0 
-18 135 406 219 165 121 0 
-18 135 406 210 156 112 0 
-17 135 407 189 147 125 0 
-30 137 411 202 138 90 0 
-29 137 410 207 145 96 0 
-28 136 409 212 150 101 0 
-28 136 408 215 157 109 0 
-27 135 406 218 160 112 0 
-26 135 406 220 162 116 0 
-25 135 405 225 167 121 0 
-25 135 404 219 165 118 0 
-24 135 404 220 166 119 0 
-23 134 403 220 169 122 0 
-23 134 403 224 173 126 0 
-22 134 403 224 176 130 0 
-21 134 403 224 176 130 0 
-21 135 404 225 177 131 0 
-20 135 404 225 177 131 0 
-19 135 404 220 171 128 0 
-19 135 405 218 169 126 0 
-18 135 406 213 164 123 0 
-18 135 406 211 162 121 0 
-17 136 407 190 144 110 0 
-29 138 411 207 145 96 0 
-28 137 409 213 151 102 0 
-28 137 408 218 157 110 0 
-27 136 407 220 159 112 0 
-26 136 406 219 161 115 0 
-25 136 405 224 166 120 0 
-25 135 404 220 166 119 0 
-24 135 404 220 166 119 0 
-23 135 403 219 168 121 0 
-23 135 403 223 172 125 0 
-22 135 403 224 176 130 0 
-21 135 403 225 177 131 0 
-21 135 404 225 177 131 0 
-20 135 404 224 176 130 0 
-19 135 404 218 169 126 0 
-19 136 405 217 168 125 0 
-18 136 406 212 163 122 0 
-18 136 406 209 160 119 0 
-17 136 407 188 142 108 0 
-29 138 411 205 143 94 0 
-28 138 409 212 150 101 0 
-28 137 408 218 157 110 0 
-27 137 407 219 158 111 0 
-26 137 406 219 161 115 0 
-25 136 405 223 165 119 0 
-25 136 405 220 166 119 0 
-24 136 404 221 167 120 0 
-23 136 404 218 167 120 0 
-23 136 404 222 171 124 0 
-22 136 403 225 177 131 0 
-21 136 403 225 177 131 0 
-21 136 404 224 176 130 0 
-20 136 404 223 175 129 0 
-19 136 404 217 168 125 0 
-19 136 405 217 168 125 0 
-18 137 406 213 164 123 0 
-18 137 406 208 159 118 0 
-17 137 407 187 143 108 0 
-29 139 411 202 140 91 0 
-28 138 409 211 149 100 0 
-28 138 408 217 156 109 0 
-27 138 407 219 158 111 0 
-26 138 407 218 160 112 0 
-25 137 406 222 164 116 0 
-25 137 405 219 165 118 0 
-24 137 404 221 167 120 0 
-23 137 404 220 168 121 0 
-23 137 404 223 171 124 0 
-22 137 404 225 174 129 0 
-21 136 403 225 174 129 0 
-21 137 404 223 175 129 0 
-20 137 404 222 174 128 0 
-19 137 405 218 169 126 0 
-19 137 405 217 168 125 0 
-18 137 406 212 163 120 0 
-18 138 407 208 159 116 0 
-17 138 407 190 144 110 0 
-29 140 411 200 138 89 0 
-28 139 409 210 148 99 0 
-28 139 408 218 158 108 0 
-27 138 407 220 160 110 0 
-26 138 407 217 159 111 0 
-25 138 406 219 161 113 0 
-25 138 405 219 165 118 0 
-24 138 405 220 166 119 0 
-23 137 404 220 168 121 0 
-23 137 404 223 171 124 0 
-22 137 404 224 173 126 0 
-21 137 404 225 174 127 0 
-21 137 404 223 175 129 0 
-20 137 404 221 173 127 0 
-19 138 405 220 172 126 0 
-19 138 406 218 170 124 0 
-18 138 406 214 163 120 0 
-18 138 407 208 157 114 0 
-17 139 408 192 144 108 0 
-29 140 411 200 136 88 0 
-28 140 410 210 146 98 0 
-28 140 409 218 156 107 0 
-27 139 408 221 159 110 0 
-26 139 407 217 159 111 0 
-25 139 406 218 160 112 0 
-25 139 406 219 165 118 0 
-24 138 405 220 166 119 0 
-23 138 405 220 168 121 0 
-23 138 405 223 171 124 0 
-22 138 404 224 173 126 0 
-21 138 404 225 174 127 0 
-21 138 404 224 176 130 0 
-20 138 405 221 173 127 0 
-19 138 405 221 173 127 0 
-19 139 406 218 170 124 0 
-18 139 406 214 163 118 0 
-18 139 407 208 157 112 0 
-17 139 408 193 145 107 0 
-29 141 411 198 134 86 0 
-28 141 410 208 144 96 0 
-28 140 409 216 154 105 0 
-27 140 408 221 159 110 0 
-26 140 407 218 160 112 0 
-25 140 407 218 160 112 0 
-25 139 406 219 165 118 0 
-24 139 405 220 166 119 0 
-23 139 405 220 168 121 0 
-23 139 405 223 171 124 0 
-22 139 405 224 173 126 0 
-21 139 404 226 175 128 0 
-21 139 404 224 176 130 0 
-20 139 405 221 173 127 0 
-19 139 405 221 173 127 0 
-19 139 406 218 170 124 0 
-18 139 406 214 163 118 0 
-18 140 407 208 157 112 0 
-17 140 408 194 146 108 0 
-29 142 412 196 132 84 0 
-28 142 411 206 142 94 0 
-28 141 410 215 153 104 0 
-27 141 408 220 158 109 0 
-26 140 407 218 160 112 0 
-25 140 407 218 160 112 0 
-25 140 406 218 164 117 0 
-24 140 406 221 167 120 0 
-23 140 405 222 168 122 0 
-23 140 405 224 170 124 0 
-22 140 405 226 174 127 0 
-21 140 405 227 175 128 0 
-21 140 405 224 176 128 0 
-20 140 405 222 174 126 0 
-19 140 405 222 174 128 0 
-19 140 406 218 170 124 0 
-18 140 406 213 162 117 0 
-18 140 407 207 156 111 0 
-17 141 408 195 147 111 0 
-28 142 411 207 145 98 0 
-28 142 410 211 147 99 0 
-27 142 409 218 154 106 0 
-26 141 407 217 162 108 0 
-25 141 407 215 160 106 0 
-25 141 407 212 165 113 0 
-24 141 406 216 169 117 0 
-23 140 405 220 171 113 0 
-23 140 405 220 171 113 0 
-22 140 405 223 170 126 0 
-21 140 405 226 173 129 0 
-21 140 405 227 175 127 0 
-20 140 405 229 177 129 0 
-19 140 405 220 172 124 0 
-19 140 405 216 168 120 0 
-18 141 406 217 164 120 0 
-18 141 407 210 157 113 0 
-17 141 407 196 148 110 0 
-16 141 407 203 155 117 0 
-28 143 411 202 139 95 0 
-28 143 411 209 145 101 0 
-27 143 410 218 154 110 0 
-26 142 408 215 159 108 0 
-25 142 407 215 159 108 0 
-25 142 407 213 163 114 0 
-24 141 406 216 166 117 0 
-23 141 405 218 167 112 0 
-23 141 405 220 169 114 0 
-22 141 405 223 170 126 0 
-21 141 405 227 174 130 0 
-21 141 405 228 176 129 0 
-20 141 405 229 177 130 0 
-19 141 405 221 173 125 0 
-19 141 405 218 170 122 0 
-18 141 406 219 166 122 0 
-18 142 407 212 159 115 0 
-17 142 407 196 148 110 0 
-16 142 407 202 154 116 0 
-28 144 412 196 133 89 0 
-28 144 411 207 142 100 0 
-27 143 410 217 152 110 0 
-26 143 408 215 157 109 0 
-25 142 407 217 159 111 0 
-25 142 406 213 161 113 0 
-24 142 406 215 163 115 0 
-23 141 405 217 166 113 0 
-23 141 405 219 168 115 0 
-22 141 405 225 171 127 0 
-21 141 405 228 174 130 0 
-21 141 405 228 176 129 0 
-20 141 405 227 175 128 0 
-19 141 405 220 172 124 0 
-19 141 405 220 172 124 0 
-18 142 406 220 169 124 0 
-18 142 407 214 163 118 0 
-17 142 407 200 152 114 0 
-16 143 408 201 153 115 0 
-28 145 413 194 132 85 0 
-28 145 412 206 143 99 0 
-27 144 410 216 153 109 0 
-26 143 408 214 158 109 0 
-25 143 407 217 161 112 0 
-25 142 406 214 161 111 0 
-24 142 406 215 162 112 0 
-23 142 405 216 165 110 0 
-23 142 405 219 168 113 0 
-22 142 405 224 170 124 0 
-21 142 405 227 173 127 0 
-21 142 405 225 175 126 0 
-20 142 405 225 175 126 0 
-19 142 405 219 171 123 0 
-19 142 405 221 173 125 0 
-18 142 406 222 171 126 0 
-18 143 407 216 165 120 0 
-17 143 407 203 155 117 0 
-16 143 408 201 153 115 0 
-28 146 413 190 130 80 0 
-28 145 412 206 143 99 0 
-27 145 411 216 153 109 0 
-26 144 409 215 159 110 0 
-26 144 408 216 160 111 0 
-25 143 406 214 158 107 0 
-24 143 406 216 160 109 0 
-23 143 406 217 166 113 0 
-23 143 405 220 169 116 0 
-22 143 405 225 168 123 0 
-21 143 405 226 169 124 0 
-21 143 405 221 173 124 0 
-20 143 405 221 173 124 0 
-19 143 405 220 172 124 0 
-19 143 405 221 173 125 0 
-18 143 405 222 171 126 0 
-18 143 406 217 166 121 0 
-17 143 407 204 159 120 0 
-16 144 408 198 153 114 0 
-28 146 412 203 142 98 0 
-27 146 411 215 154 110 0 
-26 145 409 213 159 112 0 
-26 144 408 213 159 112 0 
-25 144 406 213 155 107 0 
-24 144 406 215 157 109 0 
-23 144 406 216 164 116 0 
-23 143 405 220 168 120 0 
-22 143 405 224 167 124 0 
-21 143 405 225 168 125 0 
-21 143 405 220 172 124 0 
-20 143 405 221 173 125 0 
-19 143 405 221 173 125 0 
-19 143 405 220 172 124 0 
-18 144 406 223 172 127 0 
-18 144 406 218 167 122 0 
-17 144 407 206 161 122 0 
-16 144 408 198 153 114 0 
-28 147 413 200 138 97 0 
-27 146 411 211 149 108 0 
-26 145 409 214 157 112 0 
-26 145 408 214 157 112 0 
-25 145 407 215 154 107 0 
-24 144 406 216 155 108 0 
-23 144 405 215 163 116 0 
-23 144 405 220 168 121 0 
-22 144 404 226 167 125 0 
-21 144 404 226 167 125 0 
-21 144 404 220 172 126 0 
-20 144 405 220 172 126 0 
-19 144 405 221 173 125 0 
-19 144 405 219 171 123 0 
-18 144 406 225 174 129 0 
-18 145 407 219 168 123 0 
-17 145 407 208 163 124 0 
-16 145 408 196 151 112 0 
-28 147 412 198 137 93 0 
-27 147 411 208 147 103 0 
-26 146 410 212 155 110 0 
-26 146 408 214 157 112 0 
-25 145 407 217 155 108 0 
-24 145 406 217 155 108 0 
-23 145 406 216 162 116 0 
-23 145 405 221 167 121 0 
-22 145 405 227 168 126 0 
-21 144 404 227 168 126 0 
-21 144 404 220 172 126 0 
-20 145 405 219 171 125 0 
-19 145 405 222 174 126 0 
-19 145 405 219 171 123 0 
-18 145 406 223 175 129 0 
-18 145 406 216 168 122 0 
-17 145 407 207 162 123 0 
-16 146 408 195 150 111 0 
-27 147 411 204 146 98 0 
-26 147 411 210 153 100 0 
-26 147 409 215 158 105 0 
-25 146 407 217 156 109 0 
-24 146 406 215 154 107 0 
-23 145 405 217 160 107 0 
-23 145 405 223 166 113 0 
-22 145 405 222 170 123 0 
-21 145 404 223 171 124 0 
-21 145 405 227 170 127 0 
-20 145 404 226 169 126 0 
-19 145 405 219 170 129 0 
-19 145 405 222 173 132 0 
-18 145 405 220 172 132 0 
-18 146 406 219 171 131 0 
-17 146 407 211 167 122 0 
-16 146 408 191 147 102 0 
-16 146 408 192 184 181 0 
-27 148 412 202 144 96 0 
-26 148 411 209 151 101 0 
-26 147 409 213 155 105 0 
-25 147 408 216 155 110 0 
-24 147 407 216 155 110 0 
-23 146 406 217 161 110 0 
-23 146 405 221 165 114 0 
-22 146 405 221 169 122 0 
-21 146 404 222 170 123 0 
-21 146 405 225 171 127 0 
-20 146 405 226 172 128 0 
-19 146 404 218 169 126 0 
-19 146 405 222 173 130 0 
-18 146 405 220 172 132 0 
-18 146 406 219 171 131 0 
-17 147 407 213 166 122 0 
-16 147 407 193 146 102 0 
-16 147 408 191 180 176 0 
-27 149 412 201 143 97 0 
-26 149 411 209 148 101 0 
-26 148 409 214 153 106 0 
-25 148 408 213 155 109 0 
-24 147 407 215 157 111 0 
-23 147 406 215 162 112 0 
-23 147 406 219 166 116 0 
-22 147 405 220 167 123 0 
-21 147 405 222 169 125 0 
-21 147 405 223 172 127 0 
-20 147 405 225 174 129 0 
-19 147 405 222 171 128 0 
-19 147 405 224 173 130 0 
-18 147 405 220 173 131 0 
-17 147 405 219 172 130 0 
-17 147 406 215 166 123 0 
-16 147 407 195 146 103 0 
-16 147 407 191 173 169 0 
-27 150 412 199 141 95 0 
-26 149 411 209 147 100 0 
-26 149 410 216 154 107 0 
-25 148 408 212 154 108 0 
-24 148 407 215 157 111 0 
-23 148 406 214 164 115 0 
-23 148 406 216 166 117 0 
-22 148 406 220 168 121 0 
-21 147 405 222 170 123 0 
-21 147 405 221 173 125 0 
-20 147 405 222 174 126 0 
-19 147 405 224 173 128 0 
-19 148 406 224 173 128 0 
-18 148 406 220 173 129 0 
-18 148 406 219 172 128 0 
-17 148 407 213 166 124 0 
-16 148 407 195 148 106 0 
-16 148 408 191 167 163 0 
-27 150 412 200 139 94 0 
-26 150 411 209 145 99 0 
-26 150 410 217 153 107 0 
-25 149 408 214 153 108 0 
-24 149 408 217 156 111 0 
-23 149 407 213 163 114 0 
-23 148 406 216 166 117 0 
-22 148 406 220 168 121 0 
-21 148 405 222 170 123 0 
-21 148 405 220 172 123 0 
-20 148 405 220 172 123 0 
-19 148 405 225 174 129 0 
-19 148 406 224 173 128 0 
-18 148 406 218 174 129 0 
-18 148 406 217 173 128 0 
-17 149 407 212 164 124 0 
-16 149 407 197 149 109 0 
-16 149 408 191 162 158 0 
-27 151 413 198 137 92 0 
-26 151 411 209 142 99 0 
-26 150 410 216 149 106 0 
-25 150 408 214 153 106 0 
-24 150 408 216 155 108 0 
-23 149 407 211 163 117 0 
-23 149 406 214 166 120 0 
-22 149 406 221 167 123 0 
-21 149 406 224 170 126 0 
-21 149 406 220 173 121 0 
-20 149 405 219 172 120 0 
-19 149 406 223 172 127 0 
-19 149 406 222 171 126 0 
-18 149 405 216 175 129 0 
-18 149 406 215 174 128 0 
-17 149 407 208 163 124 0 
-16 149 407 198 153 114 0 
-16 149 407 191 156 150 0 
-26 152 412 207 140 98 0 
-26 151 410 214 147 105 0 
-25 151 409 213 152 107 0 
-24 150 408 216 155 110 0 
-23 150 407 210 161 118 0 
-23 150 406 213 164 121 0 
-22 150 406 223 166 123 0 
-21 150 406 226 169 126 0 
-21 150 406 220 174 124 0 
-20 149 405 220 174 124 0 
-19 149 405 224 171 127 0 
-19 150 406 224 171 127 0 
-18 149 405 217 177 128 0 
-17 149 405 215 175 126 0 
-17 150 406 209 164 125 0 
-16 150 407 201 156 117 0 
-16 150 407 191 152 145 0 
-26 152 412 206 137 96 0 
-26 152 410 214 145 104 0 
-25 151 409 210 152 106 0 
-24 151 408 214 156 110 0 
-23 151 407 208 161 119 0 
-23 150 406 211 164 122 0 
-22 150 406 224 166 126 0 
-21 150 406 226 168 128 0 
-21 150 406 220 174 124 0 
-20 150 406 222 176 126 0 
-19 150 405 225 172 128 0 
-19 150 405 226 173 129 0 
-18 150 405 215 177 128 0 
-18 150 406 212 174 125 0 
-17 150 406 210 166 127 0 
-16 150 406 203 159 120 0 
-16 151 408 191 148 141 0 
-15 151 408 223 180 173 0 
-26 153 412 202 137 95 0 
-26 152 410 208 143 101 0 
-25 152 409 206 154 104 0 
-24 152 408 209 157 107 0 
-23 151 407 213 162 109 0 
-23 151 406 216 165 112 0 
-22 150 405 219 167 120 0 
-21 150 405 224 172 125 0 
-21 150 405 223 174 131 0 
-20 150 405 223 174 131 0 
-19 150 405 222 173 132 0 
-19 150 405 227 178 137 0 
-18 150 405 217 172 131 0 
-18 151 406 219 174 133 0 
-17 151 407 211 166 127 0 
-16 151 407 203 158 119 0 
-16 152 408 189 152 123 0 
-26 153 411 200 135 93 0 
-26 153 410 207 142 100 0 
-25 153 409 204 152 104 0 
-24 152 408 209 157 109 0 
-23 152 407 214 162 112 0 
-23 151 406 216 164 114 0 
-22 151 405 219 167 120 0 
-21 151 405 223 171 124 0 
-21 151 405 223 174 131 0 
-20 151 405 223 174 131 0 
-19 151 405 222 173 130 0 
-19 151 405 226 177 134 0 
-18 151 405 219 174 133 0 
-18 151 406 221 176 135 0 
-17 152 407 212 167 128 0 
-16 152 407 203 158 119 0 
-16 152 408 187 150 121 0 
-26 154 411 199 134 92 0 
-26 154 410 206 141 99 0 
-25 153 409 204 152 104 0 
-24 153 408 209 157 109 0 
-23 152 407 214 162 114 0 
-23 152 406 217 165 117 0 
-22 152 406 219 168 123 0 
-21 152 405 222 171 126 0 
-21 152 405 222 173 130 0 
-20 152 405 224 175 132 0 
-19 152 405 224 175 132 0 
-19 152 405 225 176 133 0 
-18 152 405 221 176 135 0 
-18 152 406 222 177 136 0 
-17 152 406 212 167 128 0 
-16 152 407 203 158 119 0 
-16 153 408 189 150 119 0 
-26 155 412 197 134 90 0 
-26 154 410 204 141 97 0 
-25 154 409 205 151 105 0 
-24 153 408 209 155 109 0 
-23 153 407 213 161 113 0 
-23 153 406 217 165 117 0 
-22 153 406 219 168 123 0 
-21 152 405 222 171 126 0 
-21 152 405 225 174 131 0 
-20 152 405 226 175 132 0 
-19 152 405 225 176 133 0 
-19 152 405 224 175 132 0 
-18 152 405 221 176 135 0 
-18 153 406 221 176 135 0 
-17 153 406 213 168 129 0 
-16 153 407 204 159 120 0 
-16 153 408 188 149 118 0 
-26 156 412 195 133 86 0 
-26 155 411 201 139 92 0 
-25 155 410 207 151 104 0 
-24 154 409 210 154 107 0 
-24 154 408 213 160 110 0 
-23 153 406 218 165 115 0 
-22 153 406 220 168 121 0 
-21 153 405 222 170 123 0 
-21 153 405 225 174 131 0 
-20 153 405 227 176 133 0 
-19 153 404 226 175 132 0 
-19 153 405 226 175 132 0 
-18 153 405 222 177 136 0 
-18 153 406 221 176 135 0 
-17 153 406 215 170 131 0 
-16 154 407 205 160 121 0 
-16 154 408 188 149 118 0 
-26 156 412 191 130 83 0 
-26 156 411 199 138 91 0 
-25 156 410 206 148 102 0 
-24 155 409 209 151 105 0 
-24 155 408 215 159 108 0 
-23 154 407 221 165 114 0 
-22 154 407 220 168 120 0 
-21 154 406 221 169 121 0 
-21 154 405 224 173 130 0 
-20 154 405 226 175 132 0 
-19 154 405 226 175 130 0 
-19 154 405 227 176 131 0 
-18 154 405 223 178 139 0 
-18 154 406 220 175 136 0 
-17 154 406 216 170 134 0 
-16 154 407 206 160 124 0 
-16 155 408 189 150 119 0 
-26 157 412 187 129 81 0 
-26 157 411 196 138 90 0 
-25 156 410 206 145 100 0 
-24 156 410 209 148 103 0 
-23 155 408 216 156 104 0 
-23 155 407 223 163 111 0 
-22 155 407 222 169 119 0 
-21 155 406 222 169 119 0 
-21 154 405 222 170 130 0 
-20 154 405 224 172 132 0 
-19 154 405 227 176 131 0 
-19 154 405 227 176 131 0 
-18 154 405 222 177 138 0 
-18 155 406 219 174 135 0 
-17 155 406 216 170 134 0 
-16 155 407 206 160 124 0 
-16 155 408 191 150 118 0 
-26 157 411 194 136 90 0 
-25 157 411 205 144 99 0 
-24 157 410 208 147 102 0 
-24 156 409 215 155 103 0 
-23 156 408 223 163 111 0 
-22 156 407 223 170 120 0 
-21 155 406 223 170 120 0 
-21 155 406 221 169 129 0 
-20 155 405 222 170 130 0 
-19 155 405 227 176 129 0 
-19 155 405 227 176 129 0 
-18 155 405 221 176 135 0 
-17 155 405 219 174 133 0 
-17 155 406 217 172 133 0 
-16 156 407 208 163 124 0 
-16 156 408 192 151 119 0 
-15 156 408 200 159 127 0 
-26 158 412 204 135 93 0 
-25 158 411 203 142 95 0 
-24 157 410 208 147 100 0 
-24 157 410 206 158 109 0 
-23 157 409 212 164 115 0 
-22 157 408 218 170 122 0 
-21 156 407 220 172 124 0 
-21 156 406 222 169 129 0 
-20 156 405 225 172 132 0 
-19 156 405 225 177 139 0 
-19 156 405 223 175 137 0 
-18 156 405 224 175 134 0 
-17 156 405 222 173 132 0 
-17 156 406 217 172 133 0 
-16 156 407 208 163 124 0 
-16 156 407 194 151 116 0 
-15 157 408 194 151 116 0 
-26 159 412 198 135 94 0 
-25 159 412 203 142 97 0 
-24 158 411 209 148 103 0 
-24 158 410 208 158 109 0 
-23 158 409 215 165 116 0 
-22 157 408 221 170 123 0 
-21 157 407 221 170 123 0 
-21 157 406 222 169 129 0 
-20 157 406 225 172 132 0 
-19 156 405 223 178 137 0 
-19 156 405 222 177 136 0 
-18 156 405 222 175 133 0 
-17 156 405 221 174 132 0 
-17 157 406 217 172 133 0 
-16 157 406 208 163 124 0 
-16 157 407 197 151 117 0 
-15 157 408 193 147 113 0 
-25 160 412 201 140 95 0 
-24 159 411 208 147 102 0 
-24 159 410 208 156 109 0 
-23 158 409 217 165 118 0 
-22 158 408 223 171 124 0 
-21 158 407 222 170 123 0 
-21 157 406 222 171 128 0 
-20 157 406 225 174 131 0 
-19 157 406 223 178 136 0 
-19 157 405 222 177 135 0 
-18 157 405 222 175 131 0 
-17 157 405 221 174 130 0 
-17 157 406 218 170 130 0 
-16 157 406 210 162 122 0 
-16 158 407 201 153 117 0 
-15 158 408 193 145 109 0 
-25 160 412 200 137 93 0 
-24 160 411 208 145 101 0 
-24 159 410 207 153 109 0 
-23 159 410 217 163 119 0 
-22 159 408 222 169 125 0 
-21 158 407 221 168 124 0 
-21 158 406 224 171 127 0 
-20 158 406 226 173 129 0 
-19 158 406 223 176 132 0 
-19 157 405 225 178 134 0 
-18 157 405 223 176 132 0 
-17 157 405 221 174 130 0 
-17 158 406 218 170 130 0 
-16 158 407 211 163 123 0 
-16 158 407 202 154 116 0 
-15 159 408 193 145 107 0 
-25 161 413 200 136 90 0 
-24 161 412 208 144 98 0 
-24 160 410 208 151 108 0 
-23 160 410 217 160 117 0 
-22 159 408 222 168 124 0 
-21 159 407 222 168 124 0 
-21 159 407 225 172 128 0 
-20 158 406 227 174 130 0 
-19 158 406 224 176 130 0 
-19 158 405 226 178 132 0 
-18 158 405 223 174 131 0 
-17 158 405 221 172 129 0 
-17 158 406 216 171 130 0 
-16 159 407 211 166 125 0 
-16 159 407 203 158 119 0 
-15 159 408 191 146 107 0 
-24 161 412 207 142 100 0 
-24 161 410 208 151 108 0 
-23 161 410 216 159 116 0 
-22 160 408 221 167 120 0 
-21 159 407 223 169 122 0 
-21 159 406 226 172 126 0 
-20 159 406 228 174 128 0 
-19 159 406 227 176 131 0 
-19 159 406 228 177 132 0 
-18 159 406 223 174 131 0 
-17 159 406 221 172 129 0 
-17 159 406 217 173 134 0 
-16 159 406 214 170 131 0 
-16 160 407 203 159 120 0 
-15 160 408 189 145 106 0 
-24 162 412 205 141 103 0 
-24 161 410 208 151 106 0 
-23 161 409 214 157 112 0 
-22 161 408 222 166 115 0 
-21 160 407 227 171 120 0 
-21 160 406 229 173 126 0 
-20 160 406 229 173 126 0 
-19 160 406 227 176 131 0 
-19 160 406 227 176 131 0 
-18 160 406 225 176 133 0 
-17 160 406 223 174 131 0 
-17 160 406 219 174 133 0 
-16 160 406 217 172 131 0 
-16 160 407 206 158 118 0 
-15 161 408 191 143 103 0 
-14 161 408 184 180 177 0 
-24 163 412 200 140 106 0 
-24 162 411 208 152 105 0 
-23 162 409 213 157 110 0 
-22 162 409 221 166 112 0 
-21 161 407 228 173 119 0 
-21 160 406 228 172 125 0 
-20 160 405 228 172 125 0 
-19 160 405 224 176 130 0 
-19 160 405 224 176 130 0 
-18 160 405 227 180 136 0 
-17 160 405 225 178 134 0 
-17 160 406 221 173 133 0 
-16 160 406 219 171 131 0 
-16 161 407 209 157 117 0 
-15 161 408 194 142 102 0 
-14 161 408 181 173 171 0 
-24 163 412 204 142 103 0 
-24 163 411 213 147 95 0 
-23 162 409 223 157 105 0 
-22 162 409 219 165 121 0 
-22 162 408 225 171 127 0 
-21 161 406 224 174 125 0 
-20 161 405 226 176 127 0 
-19 161 405 219 178 132 0 
-19 161 405 223 182 136 0 
-18 161 405 224 179 137 0 
-17 161 405 221 176 134 0 
-17 161 406 222 173 132 0 
-16 161 406 217 168 127 0 
-16 161 407 205 159 109 0 
-15 162 408 195 149 99 0 
-14 162 408 194 155 158 0 
-24 164 413 198 140 100 0 
-24 164 411 209 147 96 0 
-23 163 409 217 155 104 0 
-22 162 408 217 164 120 0 
-22 162 408 223 170 126 0 
-21 162 406 226 174 127 0 
-20 161 405 229 177 130 0 
-19 161 405 221 178 135 0 
-19 161 405 225 182 139 0 
-18 161 405 225 180 138 0 
-17 161 405 221 176 134 0 
-17 162 406 222 173 132 0 
-16 162 406 217 168 127 0 
-16 162 407 204 158 109 0 
-15 162 408 195 149 100 0 
-14 162 408 191 151 152 0 
-24 165 413 192 137 96 0 
-24 164 411 209 149 99 0 
-23 163 409 213 153 103 0 
-22 163 408 217 164 122 0 
-22 163 408 222 169 127 0 
-21 163 407 225 174 127 0 
-20 162 406 229 178 131 0 
-19 162 405 224 179 138 0 
-19 162 405 226 181 140 0 
-18 162 405 226 181 140 0 
-17 162 406 221 176 135 0 
-17 162 406 220 172 132 0 
-16 162 406 216 168 128 0 
-16 163 407 204 157 111 0 
-15 163 408 197 150 104 0 
-14 163 408 187 146 144 0 
-24 166 413 189 134 93 0 
-24 165 412 208 150 102 0 
-23 165 410 210 152 104 0 
-22 164 409 215 164 119 0 
-22 164 408 219 168 123 0 
-21 163 407 223 175 129 0 
-20 163 406 228 180 134 0 
-19 163 405 225 180 138 0 
-19 163 405 225 180 138 0 
-18 163 405 225 182 140 0 
-17 163 406 219 176 134 0 
-17 163 406 220 172 132 0 
-16 163 406 217 169 129 0 
-16 163 407 205 158 114 0 
-15 163 407 200 153 109 0 
-14 164 408 184 144 134 0 
-24 166 412 207 146 99 0 
-23 165 410 211 150 103 0 
-22 165 409 214 163 116 0 
-22 164 408 218 167 120 0 
-21 164 407 220 176 131 0 
-20 164 406 225 181 136 0 
-19 163 405 225 180 138 0 
-19 163 405 225 180 138 0 
-18 163 405 224 181 139 0 
-17 164 406 219 176 134 0 
-17 164 406 219 174 132 0 
-16 164 406 216 171 129 0 
-16 164 407 207 160 116 0 
-15 164 407 205 158 114 0 
-14 164 408 184 146 127 0 
-24 167 412 204 141 97 0 
-23 166 410 211 148 104 0 
-22 165 409 213 162 115 0 
-21 165 408 219 168 121 0 
-21 165 407 219 175 130 0 
-20 165 407 224 180 135 0 
-19 164 406 225 180 138 0 
-19 164 406 226 181 139 0 
-18 164 405 225 182 140 0 
-17 164 405 220 177 135 0 
-17 164 406 222 175 133 0 
-16 164 406 219 172 130 0 
-16 165 407 211 164 122 0 
-15 165 407 210 163 121 0 
-14 165 408 186 149 122 0 
-23 167 411 211 148 105 0 
-22 166 409 214 160 114 0 
-21 166 408 221 167 121 0 
-21 166 408 221 174 132 0 
-20 165 407 224 177 135 0 
-19 165 406 223 179 134 0 
-19 165 406 226 182 137 0 
-18 165 406 224 179 138 0 
-17 165 406 222 177 136 0 
-17 165 406 224 175 134 0 
-16 165 406 220 171 130 0 
-16 165 407 215 166 126 0 
-15 165 407 216 167 127 0 
-14 166 408 188 152 120 0 
-23 168 411 210 147 106 0 
-22 167 410 213 156 111 0 
-21 166 408 222 165 120 0 
-21 166 408 224 172 133 0 
-20 166 407 229 177 138 0 
-19 165 406 221 177 132 0 
-19 165 406 225 181 136 0 
-18 165 406 223 178 137 0 
-17 165 406 221 176 135 0 
-17 165 406 226 174 134 0 
-16 165 406 222 170 130 0 
-16 166 407 220 168 129 0 
-15 166 407 221 169 130 0 
-14 166 408 189 153 119 0 
-23 168 411 212 144 99 0 
-22 168 410 208 157 114 0 
-22 167 409 217 166 123 0 
-21 167 407 221 177 130 0 
-20 167 407 224 180 133 0 
-19 166 406 223 176 134 0 
-19 166 406 221 174 132 0 
-18 166 406 221 174 132 0 
-17 166 406 222 175 133 0 
-17 166 406 224 175 134 0 
-16 166 406 223 174 133 0 
-16 166 406 213 172 140 0 
-15 167 407 211 170 138 0 
-14 167 408 199 154 121 0 
-14 167 408 210 165 132 0 
-23 169 411 211 142 100 0 
-22 168 410 208 157 114 0 
-22 168 409 216 165 122 0 
-21 167 407 222 175 131 0 
-20 167 407 231 184 140 0 
-19 167 406 226 179 135 0 
-19 167 406 223 176 132 0 
-18 167 406 221 174 130 0 
-17 167 406 222 175 131 0 
-17 167 406 224 175 134 0 
-16 167 406 224 175 134 0 
-16 167 406 214 174 139 0 
-15 167 407 210 170 135 0 
-14 168 408 202 159 125 0 
-14 168 408 206 163 129 0 
-23 170 412 210 143 101 0 
-22 169 410 211 158 118 0 
-22 169 409 217 164 124 0 
-21 168 408 222 175 131 0 
-20 168 407 232 185 141 0 
-19 167 406 229 182 136 0 
-19 167 406 227 180 134 0 
-18 167 406 224 177 133 0 
-17 167 406 222 175 131 0 
-17 167 406 223 176 132 0 
-16 167 406 224 177 133 0 
-16 167 406 216 176 140 0 
-15 168 407 212 172 136 0 
-14 168 408 205 162 127 0 
-23 171 412 207 142 100 0 
-22 170 410 211 156 115 0 
-22 169 409 219 164 123 0 
-21 169 408 223 174 131 0 
-20 168 407 229 180 137 0 
-19 168 406 229 183 134 0 
-19 168 406 229 183 134 0 
-18 168 406 226 179 133 0 
-17 168 406 224 177 131 0 
-17 168 406 223 176 132 0 
-16 168 406 225 178 134 0 
-16 168 406 217 177 141 0 
-15 168 407 214 174 138 0 
-14 169 408 206 163 128 0 
-22 171 411 210 153 110 0 
-22 170 409 220 163 120 0 
-21 170 408 224 175 132 0 
-20 169 407 226 177 134 0 
-19 169 406 225 179 130 0 
-19 169 406 227 181 132 0 
-18 169 406 227 180 134 0 
-17 169 406 225 178 132 0 
-17 169 406 225 178 134 0 
-16 169 406 226 179 135 0 
-16 169 407 216 176 140 0 
-15 169 407 212 172 136 0 
-14 170 408 207 164 129 0 
-22 171 411 207 150 105 0 
-22 171 410 218 161 116 0 
-21 170 408 225 174 129 0 
-20 170 407 225 174 129 0 
-19 170 407 224 176 128 0 
-19 170 407 226 178 130 0 
-18 169 406 225 178 132 0 
-17 169 406 224 177 131 0 
-17 169 406 226 177 134 0 
-16 169 406 226 177 134 0 
-16 169 406 217 175 137 0 
-15 170 407 210 168 130 0 
-14 170 408 207 163 126 0 
-14 171 409 192 148 111 0 
-22 172 411 207 148 104 0 
-22 172 410 214 155 111 0 
-21 171 409 220 169 124 0 
-20 170 407 223 172 127 0 
-19 170 406 225 175 126 0 
-19 170 406 226 176 127 0 
-18 170 406 224 176 130 0 
-17 170 406 223 175 129 0 
-17 170 406 224 176 130 0 
-16 170 406 225 177 131 0 
-16 170 406 217 173 136 0 
-15 170 407 210 166 129 0 
-14 170 407 207 162 123 0 
-14 171 409 194 149 110 0 
-22 173 412 208 147 103 0 
-22 172 410 213 152 108 0 
-21 172 409 216 165 120 0 
-20 171 408 223 172 127 0 
-19 171 407 224 174 125 0 
-19 171 406 225 175 126 0 
-18 171 406 223 175 129 0 
-17 170 405 223 175 129 0 
-17 170 405 226 175 130 0 
-16 170 405 227 176 131 0 
-16 171 406 216 172 133 0 
-15 171 407 209 165 126 0 
-14 171 407 209 161 121 0 
-14 172 409 198 150 110 0 
-22 174 413 203 147 98 0 
-22 173 411 206 150 101 0 
-21 172 409 214 164 111 0 
-20 172 408 221 171 118 0 
-19 172 407 225 174 131 0 
-19 172 407 225 174 131 0 
-18 171 406 219 175 130 0 
-17 171 406 218 174 129 0 
-17 171 406 223 175 126 0 
-16 171 405 224 176 127 0 
-16 171 406 220 173 127 0 
-15 172 407 214 167 121 0 
-14 172 407 207 163 118 0 
-14 172 408 194 150 105 0 
-22 174 412 207 149 101 0 
-21 174 410 212 161 108 0 
-20 173 409 219 168 115 0 
-19 172 407 222 171 126 0 
-19 172 407 226 175 130 0 
-18 172 406 221 177 132 0 
-17 172 406 220 176 131 0 
-17 172 406 225 177 128 0 
-16 171 405 225 177 128 0 
-16 172 406 220 173 127 0 
-15 172 407 215 168 122 0 
-14 172 407 209 165 120 0 
-14 173 408 197 153 108 0 
-22 175 412 209 149 99 0 
-21 174 410 210 157 105 0 
-20 174 409 218 165 113 0 
-20 173 408 220 169 124 0 
-19 173 407 226 175 130 0 
-18 172 406 224 180 135 0 
-17 172 406 223 179 134 0 
-17 172 406 226 180 131 0 
-16 172 405 226 180 131 0 
-15 172 406 218 174 127 0 
-15 173 406 213 169 122 0 
-14 173 407 213 169 122 0 
-14 173 408 201 157 110 0 
-21 175 410 210 154 105 0 
-20 174 409 221 165 116 0 
-20 174 408 219 167 120 0 
-19 174 407 227 175 128 0 
-18 174 407 226 182 137 0 
-17 173 406 225 181 136 0 
-17 173 406 225 181 134 0 
-16 173 405 225 181 134 0 
-15 173 406 220 176 129 0 
-15 173 406 214 170 123 0 
-14 173 406 215 171 126 0 
-14 174 407 205 161 116 0 
-13 174 408 189 159 133 0 
-21 176 411 209 151 105 0 
-20 175 409 222 164 118 0 
-20 175 408 219 166 122 0 
-19 174 407 227 174 130 0 
-18 174 407 227 182 140 0 
-17 174 406 227 182 140 0 
-17 173 405 226 182 135 0 
-16 173 405 227 183 136 0 
-15 173 405 222 179 134 0 
-15 174 406 215 172 127 0 
-14 174 406 217 170 126 0 
-14 174 407 209 162 118 0 
-13 175 408 190 157 126 0 
-21 177 411 211 149 108 0 
-20 176 410 221 159 118 0 
-20 175 408 220 166 122 0 
-19 175 407 227 173 129 0 
-18 175 407 229 181 141 0 
-17 174 406 229 181 141 0 
-17 174 405 226 182 137 0 
-16 174 405 227 183 138 0 
-15 174 405 223 182 136 0 
-15 174 405 216 175 129 0 
-14 174 406 217 169 129 0 
-14 175 407 209 161 121 0 
-13 175 408 189 155 118 0 
-21 178 413 213 150 109 0 
-20 177 410 220 157 116 0 
-20 176 409 222 164 124 0 
-19 175 407 228 170 130 0 
-18 175 406 228 180 140 0 
-17 175 406 229 181 141 0 
-17 175 405 225 182 137 0 
-16 175 405 226 183 138 0 
-15 175 405 223 182 138 0 
-15 175 405 218 177 133 0 
-14 175 406 219 169 134 0 
-14 175 407 212 162 127 0 
-13 176 408 191 156 116 0 
-20 178 411 219 155 117 0 
-20 177 409 221 161 124 0 
-19 177 408 229 169 132 0 
-18 176 406 227 179 141 0 
-17 176 406 228 180 142 0 
-17 176 406 225 182 137 0 
-16 175 405 226 183 138 0 
-15 175 405 223 182 138 0 
-15 175 405 219 178 134 0 
-14 176 406 220 170 137 0 
-14 176 407 215 165 132 0 
-13 177 408 193 158 118 0 
-20 179 412 213 161 113 0 
-20 178 409 218 170 122 0 
-19 177 408 223 175 127 0 
-18 176 406 228 179 138 0 
-17 176 406 230 181 140 0 
-17 176 406 231 183 147 0 
-16 176 406 231 183 147 0 
-15 176 405 229 182 140 0 
-15 176 406 221 174 132 0 
-14 176 406 215 171 132 0 
-14 177 407 212 168 129 0 
-13 177 408 195 158 129 0 
-20 179 410 216 168 120 0 
-19 178 408 222 174 126 0 
-18 177 406 229 180 139 0 
-17 177 406 232 183 142 0 
-17 177 406 227 182 143 0 
-16 177 406 226 181 142 0 
-15 177 406 228 181 139 0 
-15 177 406 228 181 139 0 
-14 177 407 214 172 134 0 
-14 178 408 210 168 130 0 
-13 178 408 202 165 136 0 
-20 179 410 219 168 121 0 
-19 178 407 223 172 125 0 
-18 178 406 225 176 135 0 
-17 178 406 227 178 137 0 
-17 178 406 226 180 144 0 
-16 178 406 227 181 145 0 
-15 178 406 223 178 136 0 
-15 178 406 221 176 134 0 
-14 178 407 217 175 137 0 
-14 178 408 205 163 125 0 
-13 178 408 202 165 136 0 
-19 179 408 226 173 129 0 
-18 179 407 226 174 135 0 
-17 178 406 226 174 135 0 
-17 178 406 226 180 144 0 
-16 178 406 228 182 146 0 
-15 178 406 225 180 139 0 
-15 178 406 223 178 137 0 
-18 179 407 220 166 130 0 
-17 179 407 228 174 138 0 
-17 179 407 229 180 147 0 
-16 179 407 219 170 137 0 
-16 179 407 222 173 133 0 
-15 179 407 215 166 126 0 
