ply
format ascii 1.0
comment Created by CloudCompare v2.10.1 (Zephyrus)
comment Created 2020-05-06 8:40 PM
obj_info Generated by CloudCompare!
element vertex 1402
property float x
property float y
property float z
property uchar red
property uchar green
property uchar blue
end_header
-16 -51 410 245 204 186 
-15 -51 410 246 205 187 
-15 -51 411 237 204 185 
-14 -51 411 231 198 179 
-13 -51 411 205 187 187 
-13 -51 412 205 187 187 
-12 -51 412 190 183 190 
-18 -50 409 224 173 154 
-17 -50 410 234 192 168 
-17 -50 409 253 211 187 
-16 -50 409 255 214 196 
-15 -50 409 250 209 191 
-15 -50 410 248 212 188 
-14 -50 410 241 205 181 
-13 -50 410 225 196 188 
-13 -51 411 222 193 185 
-18 -50 410 249 197 175 
-17 -50 410 255 214 192 
-17 -50 410 255 217 195 
-16 -50 409 251 214 198 
-15 -50 409 255 218 202 
-15 -50 409 252 218 193 
-14 -50 409 247 213 188 
-13 -50 409 242 206 192 
-13 -50 410 238 202 188 
-12 -50 410 220 197 189 
-11 -50 410 217 194 186 
-11 -50 410 179 173 183 
-19 -49 410 230 176 150 
-19 -49 410 244 197 171 
-18 -49 410 255 211 185 
-17 -49 410 255 217 191 
-17 -49 409 255 218 192 
-16 -49 409 255 222 195 
-15 -49 409 255 221 194 
-15 -49 409 252 220 195 
-14 -49 409 248 216 191 
-13 -49 409 246 213 194 
-13 -49 409 241 208 189 
-12 -49 410 235 202 193 
-11 -49 410 229 196 187 
-11 -49 410 217 189 188 
-10 -49 411 217 189 188 
-20 -48 410 230 179 152 
-19 -48 410 247 196 169 
-19 -48 410 255 212 186 
-18 -48 409 255 215 189 
-17 -48 409 255 218 192 
-17 -48 409 255 222 196 
-16 -48 409 255 225 197 
-15 -48 409 252 221 193 
-15 -48 409 255 223 198 
-14 -48 409 254 222 197 
-13 -48 409 254 219 199 
-13 -48 409 249 214 194 
-12 -48 409 242 210 199 
-11 -48 410 237 205 194 
-11 -48 410 229 200 196 
-10 -49 411 229 200 196 
-20 -48 410 246 196 171 
-19 -48 410 255 210 185 
-19 -48 410 255 220 195 
-18 -48 409 255 217 192 
-17 -48 409 255 219 193 
-17 -48 409 255 222 196 
-16 -48 408 255 224 199 
-15 -48 408 253 221 196 
-14 -48 408 255 223 198 
-14 -48 409 255 224 199 
-13 -48 409 255 221 199 
-13 -48 409 255 220 198 
-12 -48 409 249 216 199 
-11 -48 409 245 212 195 
-11 -48 410 238 208 198 
-10 -48 410 236 206 196 
-21 -47 411 221 164 135 
-21 -47 411 253 196 167 
-20 -47 411 252 206 180 
-19 -47 410 255 210 184 
-19 -47 410 255 215 190 
-18 -47 409 255 217 192 
-17 -47 409 254 222 199 
-17 -47 409 255 223 200 
-16 -47 408 253 223 199 
-15 -47 408 254 224 200 
-14 -47 408 255 223 198 
-14 -47 408 255 225 200 
-13 -47 409 254 222 197 
-13 -47 409 254 222 197 
-12 -47 409 251 220 200 
-11 -47 409 247 216 196 
-11 -47 409 243 214 198 
-10 -47 409 238 209 193 
-9 -47 409 245 226 220 
-9 -47 409 255 248 242 
-21 -47 412 247 190 160 
-21 -47 412 255 203 173 
-20 -47 411 252 206 180 
-19 -46 410 250 204 178 
-19 -46 410 247 210 184 
-18 -46 409 255 218 192 
-17 -46 409 255 223 202 
-17 -46 409 255 223 202 
-16 -46 409 254 223 202 
-15 -46 408 255 224 203 
-15 -46 408 255 228 202 
-14 -46 408 255 228 202 
-13 -46 408 255 224 199 
-13 -46 409 255 223 198 
-12 -46 409 253 223 199 
-11 -46 409 250 220 196 
-11 -46 409 248 220 199 
-10 -46 409 244 216 195 
-9 -46 409 241 217 207 
-9 -46 409 255 235 225 
-8 -46 409 255 248 241 
-22 -46 412 243 178 150 
-21 -46 412 253 192 161 
-21 -46 412 255 198 167 
-20 -46 411 250 203 175 
-19 -46 410 251 204 176 
-19 -46 410 251 211 186 
-18 -46 409 255 216 191 
-17 -46 409 253 221 200 
-17 -46 409 255 224 203 
-16 -46 409 255 226 205 
-15 -46 409 255 225 204 
-15 -46 409 255 228 204 
-14 -46 408 255 228 204 
-13 -46 408 255 228 202 
-13 -46 409 255 227 201 
-12 -46 409 253 225 201 
-11 -46 409 251 223 199 
-11 -46 409 249 223 200 
-10 -46 409 247 221 198 
-9 -46 409 241 215 202 
-9 -46 409 244 218 205 
-8 -46 409 249 234 227 
-23 -45 413 190 126 99 
-23 -45 413 232 167 137 
-22 -45 412 246 181 151 
-21 -45 411 245 182 151 
-21 -45 411 255 193 162 
-20 -45 411 250 199 168 
-19 -45 410 255 206 175 
-19 -45 409 255 212 187 
-18 -45 409 255 213 188 
-17 -45 409 253 217 195 
-16 -45 408 255 221 199 
-16 -45 408 255 225 204 
-15 -45 408 255 225 204 
-15 -45 408 255 225 202 
-14 -45 408 255 225 202 
-13 -45 407 255 228 202 
-13 -45 408 255 228 202 
-12 -45 408 254 226 202 
-11 -45 408 252 224 200 
-11 -45 408 249 223 198 
-10 -45 408 248 222 197 
-9 -45 408 245 218 201 
-9 -45 408 240 213 196 
-8 -45 409 239 219 210 
-23 -45 414 204 144 116 
-23 -45 413 237 174 143 
-22 -45 412 242 179 148 
-21 -45 411 242 181 152 
-21 -45 411 247 186 157 
-20 -44 410 251 198 166 
-19 -44 410 255 205 173 
-19 -44 409 255 209 183 
-18 -44 409 255 210 184 
-17 -44 409 253 215 194 
-17 -44 409 254 216 195 
-16 -44 408 254 219 199 
-15 -44 408 255 223 203 
-15 -44 408 255 225 203 
-14 -44 407 255 223 201 
-13 -44 407 255 227 202 
-12 -44 407 255 227 202 
-12 -44 407 254 227 200 
-11 -44 407 254 227 200 
-10 -44 407 250 224 197 
-10 -44 407 249 223 196 
-9 -44 407 248 221 202 
-8 -44 407 247 220 201 
-8 -44 408 233 209 199 
-7 -44 408 239 215 205 
-7 -44 409 250 239 237 
-24 -44 414 193 131 106 
-23 -44 414 216 154 129 
-23 -44 413 226 164 125 
-22 -44 412 239 177 138 
-21 -44 411 242 176 142 
-21 -44 411 250 184 150 
-20 -44 411 246 192 164 
-19 -44 410 252 198 170 
-19 -44 410 252 205 177 
-18 -44 409 255 208 180 
-17 -44 409 255 215 187 
-17 -44 409 255 216 188 
-16 -44 408 255 220 192 
-15 -44 408 255 222 194 
-15 -44 408 255 223 198 
-14 -44 407 255 224 199 
-13 -44 407 254 226 205 
-12 -44 407 254 226 205 
-12 -44 407 254 225 207 
-11 -44 407 254 225 207 
-10 -44 407 255 225 205 
-10 -44 407 255 226 206 
-9 -44 407 253 221 198 
-8 -44 407 255 224 201 
-8 -44 407 249 222 205 
-7 -44 408 241 214 197 
-7 -44 408 235 220 213 
-24 -44 415 195 139 116 
-23 -44 414 204 148 125 
-23 -43 413 219 157 118 
-22 -43 412 229 167 128 
-21 -43 411 241 175 143 
-21 -43 411 253 187 155 
-20 -43 411 247 192 162 
-19 -43 410 252 197 167 
-19 -43 410 254 203 174 
-18 -43 409 255 206 177 
-17 -43 409 255 212 183 
-16 -43 408 255 214 185 
-16 -43 408 254 217 188 
-15 -43 408 254 217 188 
-15 -43 408 255 221 194 
-14 -43 407 255 222 195 
-13 -43 407 254 223 202 
-12 -43 407 255 224 203 
-12 -43 407 255 224 204 
-11 -43 407 255 224 204 
-10 -43 407 255 224 204 
-10 -43 407 255 225 205 
-9 -43 407 255 224 201 
-8 -43 407 255 224 201 
-8 -43 407 251 222 204 
-7 -43 407 247 218 200 
-7 -43 408 237 219 209 
-6 -43 408 245 227 217 
-24 -43 415 187 139 119 
-23 -43 413 214 152 115 
-22 -43 412 224 162 125 
-21 -43 411 239 173 141 
-21 -43 411 250 184 152 
-20 -42 410 246 187 155 
-19 -42 410 250 191 159 
-19 -42 410 252 197 166 
-18 -42 410 255 200 169 
-17 -42 409 255 206 176 
-17 -42 409 255 209 179 
-16 -42 408 255 212 183 
-15 -42 408 254 210 181 
-15 -42 408 254 217 190 
-14 -42 408 255 218 191 
-13 -42 407 255 221 196 
-12 -42 407 255 223 198 
-12 -42 407 255 223 202 
-11 -42 407 255 224 203 
-10 -42 407 255 225 204 
-10 -42 407 255 226 205 
-9 -42 407 255 224 201 
-8 -42 407 255 224 201 
-8 -42 407 255 225 205 
-7 -42 407 255 224 204 
-7 -42 408 246 223 209 
-6 -42 408 246 223 209 
-5 -42 408 245 235 226 
-23 -42 414 207 148 114 
-22 -42 413 217 158 124 
-21 -42 412 229 164 132 
-21 -42 411 235 170 138 
-20 -42 411 238 178 142 
-19 -42 410 244 184 148 
-19 -42 410 247 191 158 
-18 -42 410 251 195 162 
-17 -42 409 252 199 168 
-17 -42 409 255 203 172 
-16 -42 408 253 206 176 
-15 -42 408 252 205 175 
-15 -42 408 249 208 180 
-14 -42 408 252 211 183 
-13 -42 407 253 217 191 
-12 -42 407 255 219 193 
-12 -42 407 253 221 198 
-11 -42 407 254 222 199 
-10 -41 406 255 225 204 
-10 -42 407 255 226 205 
-9 -42 407 255 224 203 
-8 -42 407 255 226 205 
-8 -42 407 255 227 206 
-7 -42 407 255 225 204 
-7 -42 408 252 225 206 
-6 -42 408 252 225 206 
-5 -42 408 246 228 216 
-5 -42 408 246 228 216 
-23 -42 414 196 141 110 
-22 -41 413 207 152 121 
-21 -41 412 221 157 122 
-21 -41 412 227 163 128 
-20 -41 411 229 169 133 
-19 -41 411 237 177 141 
-19 -41 410 245 185 151 
-18 -41 410 249 189 155 
-17 -41 410 250 193 163 
-17 -41 409 254 197 167 
-16 -41 409 252 201 172 
-15 -41 408 251 200 171 
-15 -41 408 247 202 173 
-14 -41 408 251 206 177 
-13 -41 407 251 212 183 
-12 -41 407 254 215 186 
-12 -41 407 253 217 193 
-11 -41 407 254 218 194 
-10 -41 406 253 221 198 
-10 -41 406 255 223 200 
-9 -41 407 255 223 202 
-8 -41 407 255 224 203 
-8 -41 407 255 224 203 
-7 -41 407 253 221 200 
-7 -41 408 252 221 201 
-6 -41 408 254 223 203 
-5 -41 408 246 223 207 
-5 -41 408 241 218 202 
-23 -41 414 183 136 110 
-22 -41 414 192 145 119 
-21 -41 413 218 154 119 
-21 -41 413 228 164 129 
-20 -41 412 226 164 127 
-19 -41 411 233 171 134 
-19 -41 411 239 179 143 
-18 -40 410 243 183 147 
-17 -40 410 248 188 154 
-17 -40 409 253 193 159 
-16 -40 409 251 196 165 
-15 -40 408 250 195 164 
-15 -40 408 250 201 171 
-14 -40 408 253 204 174 
-13 -40 408 252 208 179 
-12 -40 407 255 211 182 
-12 -40 407 253 216 189 
-11 -40 406 254 217 190 
-10 -40 406 253 219 194 
-10 -40 406 254 220 195 
-9 -40 406 254 221 202 
-8 -40 407 254 221 202 
-8 -40 407 253 222 202 
-7 -40 407 252 221 201 
-7 -40 407 251 220 200 
-6 -40 407 251 220 200 
-5 -40 408 250 221 203 
-5 -40 408 249 220 202 
-4 -40 409 238 219 205 
-23 -40 415 174 136 115 
-22 -40 414 175 137 116 
-21 -40 413 212 148 112 
-21 -40 413 222 158 122 
-20 -40 413 221 159 122 
-19 -40 412 226 164 127 
-19 -40 411 233 171 134 
-18 -40 411 238 176 139 
-17 -40 410 243 180 145 
-17 -40 410 249 186 151 
-16 -40 409 249 190 158 
-15 -40 408 249 190 158 
-15 -40 408 252 197 167 
-14 -40 408 254 199 169 
-13 -40 408 253 203 176 
-12 -40 407 255 206 179 
-12 -40 407 252 211 183 
-11 -39 406 255 214 186 
-10 -39 406 254 217 190 
-10 -39 406 255 218 191 
-9 -39 406 255 223 202 
-8 -40 407 255 224 203 
-8 -40 407 255 224 204 
-7 -40 407 254 223 203 
-7 -40 407 253 222 202 
-6 -40 407 251 220 200 
-5 -40 407 251 219 198 
-5 -40 408 252 220 199 
-4 -40 409 242 215 196 
-22 -40 414 166 133 114 
-21 -40 414 206 144 107 
-21 -39 413 214 152 115 
-20 -39 413 216 154 117 
-19 -39 412 220 158 121 
-19 -39 412 229 165 127 
-18 -39 411 235 171 133 
-17 -39 411 239 175 139 
-17 -39 410 245 181 145 
-16 -39 410 247 187 153 
-15 -39 409 246 186 152 
-15 -39 409 248 191 162 
-14 -39 408 250 193 164 
-13 -39 408 250 199 170 
-12 -39 407 252 201 172 
-12 -39 407 250 205 176 
-11 -39 407 253 208 179 
-10 -39 406 254 215 184 
-10 -39 407 255 217 186 
-9 -39 407 252 217 197 
-8 -39 407 255 221 201 
-8 -39 407 251 223 202 
-7 -39 407 250 222 201 
-7 -39 408 254 223 203 
-6 -39 408 255 224 204 
-5 -39 408 255 220 198 
-5 -39 408 251 216 194 
-4 -39 409 251 220 199 
-3 -39 409 245 214 193 
-3 -39 410 241 223 209 
-21 -39 414 190 122 85 
-21 -39 414 209 141 104 
-20 -39 413 207 148 106 
-19 -39 412 214 155 113 
-19 -39 412 223 164 124 
-18 -39 412 229 170 130 
-17 -39 411 234 170 135 
-17 -38 410 240 176 141 
-16 -38 410 249 183 149 
-15 -38 409 248 182 148 
-15 -38 409 244 185 151 
-14 -38 408 247 188 154 
-13 -38 408 249 196 164 
-13 -38 408 253 200 168 
-12 -38 408 251 202 172 
-11 -38 407 255 206 176 
-10 -38 407 255 213 184 
-10 -38 407 255 216 187 
-9 -38 407 251 218 199 
-8 -38 407 253 220 201 
-8 -38 408 255 221 201 
-7 -38 408 255 221 201 
-7 -38 408 255 223 198 
-6 -38 408 255 222 197 
-5 -38 408 255 222 197 
-5 -38 408 255 223 198 
-4 -38 408 250 219 199 
-3 -38 409 252 221 201 
-3 -38 409 239 216 202 
-2 -38 410 242 219 205 
-20 -38 413 202 140 99 
-19 -38 413 210 148 107 
-19 -38 412 217 155 114 
-18 -38 412 222 160 119 
-17 -38 412 229 165 127 
-17 -38 411 237 173 135 
-16 -38 410 243 179 143 
-15 -38 410 243 179 143 
-15 -38 409 239 179 143 
-14 -38 409 241 181 145 
-13 -38 409 244 190 156 
-13 -38 408 250 196 162 
-12 -38 408 251 200 169 
-11 -38 408 253 202 171 
-11 -38 408 254 207 179 
-10 -38 408 255 211 183 
-9 -38 407 252 217 197 
-8 -38 407 254 219 199 
-8 -38 408 255 220 200 
-7 -38 407 255 221 201 
-7 -38 407 255 222 202 
-6 -38 407 255 222 202 
-5 -38 408 255 221 199 
-5 -38 408 255 222 200 
-4 -38 408 251 219 198 
-3 -38 409 254 222 201 
-3 -38 409 244 218 201 
-2 -38 410 241 215 198 
-20 -38 414 196 132 96 
-19 -37 413 205 141 105 
-19 -37 412 214 149 109 
-18 -37 412 218 153 113 
-17 -37 412 225 160 118 
-17 -37 411 231 166 124 
-16 -37 411 233 171 130 
-15 -37 410 237 175 134 
-15 -37 410 238 176 139 
-14 -37 409 240 178 141 
-13 -37 409 243 184 150 
-13 -37 409 252 193 159 
-12 -37 408 252 199 167 
-11 -37 408 253 200 168 
-11 -37 408 253 202 175 
-10 -37 408 255 207 180 
-9 -37 408 252 215 189 
-8 -37 407 254 217 191 
-8 -37 408 254 217 198 
-7 -37 407 254 217 198 
-7 -37 407 255 219 203 
-6 -37 407 255 219 203 
-5 -37 408 255 220 200 
-5 -37 408 255 223 203 
-4 -37 408 254 219 197 
-3 -37 408 255 220 198 
-3 -37 409 250 222 201 
-2 -37 409 244 216 195 
-1 -37 410 241 221 212 
-1 -37 410 255 238 229 
-20 -37 415 181 122 92 
-19 -37 414 188 129 99 
-19 -37 413 207 142 104 
-18 -37 412 216 151 113 
-17 -37 412 222 158 112 
-17 -37 411 226 162 116 
-16 -37 411 227 166 121 
-15 -36 410 233 172 127 
-15 -36 410 235 172 131 
-14 -36 410 240 177 136 
-13 -36 409 246 184 147 
-13 -36 409 253 191 154 
-12 -36 409 251 195 162 
-11 -36 408 253 197 164 
-11 -36 408 254 200 172 
-10 -36 408 255 204 176 
-9 -36 408 251 209 184 
-9 -36 408 255 213 188 
-8 -36 408 253 215 192 
-7 -36 408 253 215 192 
-7 -36 408 253 218 199 
-6 -36 408 253 218 199 
-5 -36 408 254 219 199 
-5 -36 408 255 223 203 
-4 -36 408 255 220 196 
-3 -36 408 254 218 194 
-3 -36 409 254 222 201 
-2 -36 409 252 220 199 
-1 -36 410 241 219 206 
-1 -36 410 249 227 214 
0 -36 410 255 242 237 
-19 -36 415 167 122 101 
-19 -36 414 193 130 97 
-18 -36 413 207 144 111 
-17 -36 413 217 153 107 
-17 -36 412 220 156 110 
-16 -36 411 217 159 113 
-15 -36 411 222 164 118 
-15 -36 410 232 164 125 
-14 -36 410 239 171 132 
-13 -36 410 245 180 142 
-13 -36 410 248 183 145 
-12 -36 410 243 187 150 
-11 -36 409 248 192 155 
-11 -36 409 253 196 167 
-10 -36 408 255 199 170 
-9 -36 408 249 204 175 
-9 -36 408 255 210 181 
-8 -36 408 253 213 187 
-7 -36 408 254 214 188 
-7 -36 408 254 218 194 
-6 -36 408 254 218 194 
-5 -36 408 253 218 196 
-5 -36 408 255 222 200 
-4 -36 408 255 222 200 
-3 -36 408 255 220 198 
-3 -36 409 254 222 201 
-2 -36 409 253 221 200 
-1 -36 409 245 219 204 
-1 -36 410 247 221 206 
0 -36 410 250 232 220 
-19 -36 415 153 126 115 
-19 -36 415 177 121 96 
-18 -35 414 188 132 107 
-17 -35 413 207 142 100 
-17 -35 412 213 148 106 
-16 -35 412 214 153 108 
-15 -35 411 217 156 111 
-15 -35 411 225 156 117 
-14 -35 410 234 165 126 
-13 -35 410 241 173 134 
-13 -35 410 243 175 136 
-12 -35 409 237 182 143 
-11 -35 409 244 189 150 
-11 -35 408 250 193 164 
-10 -35 408 252 195 166 
-9 -35 408 250 201 171 
-8 -35 407 255 206 176 
-8 -35 407 253 209 180 
-7 -35 407 255 211 182 
-7 -35 407 254 217 190 
-6 -35 407 255 218 191 
-5 -35 407 254 218 192 
-5 -35 407 255 221 195 
-4 -35 408 255 220 198 
-3 -35 408 255 222 200 
-3 -35 408 254 221 202 
-2 -35 408 250 217 198 
-1 -35 409 247 221 204 
-1 -35 409 248 222 205 
0 -35 410 246 224 210 
1 -35 410 254 232 218 
1 -35 410 252 251 249 
-18 -35 414 170 121 104 
-17 -35 414 193 129 91 
-17 -35 413 204 140 102 
-16 -35 412 211 149 108 
-15 -35 412 214 152 111 
-15 -35 411 221 148 113 
-14 -35 411 228 155 120 
-13 -34 410 232 165 123 
-13 -34 410 236 169 127 
-12 -34 409 233 178 137 
-11 -34 409 240 185 144 
-11 -34 409 245 188 158 
-10 -34 408 248 191 161 
-9 -34 408 252 197 166 
-8 -34 407 255 201 170 
-8 -34 407 251 204 174 
-7 -34 407 253 206 176 
-7 -34 407 254 212 187 
-6 -34 407 255 214 189 
-5 -34 407 253 215 192 
-5 -34 407 255 219 196 
-4 -34 407 254 218 196 
-3 -34 408 255 222 200 
-3 -34 408 254 222 201 
-2 -34 408 251 219 198 
-1 -34 408 250 223 204 
-1 -34 409 250 223 204 
0 -34 409 244 221 205 
1 -34 409 246 223 207 
1 -34 410 245 240 237 
-17 -34 415 184 120 85 
-17 -34 413 194 130 95 
-16 -34 413 205 141 103 
-15 -34 412 209 145 107 
-15 -34 412 218 144 109 
-14 -34 411 223 149 114 
-13 -34 411 224 157 115 
-13 -34 410 231 164 122 
-12 -34 410 230 177 135 
-11 -34 409 235 182 140 
-11 -34 409 239 182 152 
-10 -34 408 243 186 156 
-9 -34 408 249 193 158 
-9 -34 408 254 198 163 
-8 -34 408 252 201 172 
-7 -34 408 254 203 174 
-7 -34 408 254 209 186 
-6 -34 408 255 210 187 
-5 -34 407 253 212 190 
-5 -34 408 255 216 194 
-4 -34 408 255 218 195 
-3 -34 408 255 219 196 
-3 -34 408 254 222 199 
-2 -34 408 253 221 198 
-1 -34 408 251 222 204 
-1 -34 408 250 221 203 
0 -34 409 246 220 207 
1 -34 409 247 221 208 
1 -34 410 231 223 221 
-17 -34 415 178 123 103 
-16 -33 413 195 130 90 
-15 -33 412 210 145 105 
-15 -33 412 222 147 108 
-14 -33 412 223 148 109 
-13 -33 411 218 157 112 
-13 -33 411 222 161 116 
-12 -33 410 226 168 130 
-11 -33 410 234 176 138 
-11 -33 409 242 178 142 
-10 -33 409 247 183 147 
-9 -33 409 244 187 157 
-9 -33 409 250 193 163 
-8 -33 408 254 201 170 
-7 -33 408 255 205 174 
-7 -33 408 254 209 180 
-6 -33 408 255 211 182 
-5 -33 408 252 215 188 
-5 -33 408 254 217 190 
-4 -33 408 251 217 192 
-3 -33 408 253 219 194 
-3 -33 408 253 223 199 
-2 -33 408 254 224 200 
-1 -33 408 254 223 203 
-1 -33 408 254 223 203 
0 -33 409 253 220 203 
1 -33 409 251 218 201 
1 -33 410 245 217 205 
2 -33 410 249 221 209 
-16 -33 414 190 125 95 
-15 -33 413 200 135 105 
-15 -33 413 204 139 99 
-14 -33 413 215 150 110 
-13 -33 412 219 154 114 
-13 -33 411 224 159 119 
-12 -33 411 225 168 125 
-11 -32 410 228 171 128 
-11 -32 410 238 176 137 
-10 -32 409 244 182 143 
-9 -32 409 239 180 150 
-9 -32 409 247 188 158 
-8 -32 409 251 196 165 
-7 -32 408 255 200 169 
-7 -32 408 254 205 175 
-6 -32 408 255 207 177 
-5 -32 408 252 211 183 
-5 -32 408 254 213 185 
-4 -32 408 252 216 190 
-3 -32 408 254 218 192 
-3 -32 408 254 219 197 
-2 -32 408 255 220 198 
-1 -32 408 254 222 201 
-1 -32 408 255 223 202 
0 -32 409 254 221 202 
1 -32 409 251 218 199 
1 -32 409 247 218 204 
2 -32 410 246 217 203 
3 -32 410 246 232 223 
-15 -32 414 184 126 112 
-15 -32 413 195 136 96 
-14 -32 413 204 145 105 
-13 -32 412 215 147 112 
-13 -32 412 221 153 118 
-12 -32 411 222 159 116 
-11 -32 411 227 164 121 
-11 -32 410 233 176 133 
-10 -32 409 233 176 133 
-9 -32 409 238 175 144 
-9 -32 409 247 184 153 
-8 -32 409 251 192 160 
-7 -32 409 255 196 164 
-7 -32 408 255 202 171 
-6 -32 408 255 204 173 
-5 -32 408 252 207 178 
-5 -32 408 253 208 179 
-4 -32 408 251 211 185 
-3 -32 408 254 214 188 
-3 -32 408 254 218 194 
-2 -32 408 255 219 195 
-1 -32 408 255 221 199 
-1 -32 408 255 223 201 
0 -32 409 255 221 201 
1 -32 409 253 218 198 
1 -32 409 250 219 201 
2 -32 409 250 219 201 
3 -32 409 240 218 207 
3 -32 410 255 233 222 
-15 -32 415 155 116 111 
-14 -31 414 194 134 100 
-13 -31 413 209 141 106 
-13 -31 412 216 148 113 
-12 -31 411 219 154 116 
-11 -31 411 221 156 118 
-11 -31 411 225 164 120 
-10 -31 410 234 173 129 
-9 -31 410 237 174 141 
-9 -31 409 244 181 148 
-8 -31 409 249 189 155 
-7 -31 409 253 193 159 
-7 -31 409 253 198 167 
-6 -31 408 255 200 169 
-5 -31 408 251 202 172 
-5 -31 408 251 202 172 
-4 -31 408 248 204 177 
-3 -31 408 253 209 182 
-3 -31 408 255 215 190 
-2 -31 408 255 218 193 
-1 -31 408 255 220 196 
-1 -31 408 255 222 198 
0 -31 408 255 221 199 
1 -31 408 254 219 197 
1 -31 409 250 219 199 
2 -31 409 250 219 199 
3 -31 409 243 215 203 
3 -31 410 244 216 204 
4 -31 411 253 236 229 
-14 -31 414 185 120 100 
-13 -31 413 200 138 99 
-13 -31 413 203 141 102 
-12 -31 412 214 145 114 
-11 -31 412 219 150 119 
-11 -31 412 219 154 112 
-10 -31 411 233 168 126 
-9 -30 410 233 170 135 
-9 -30 410 238 175 140 
-8 -30 410 243 183 149 
-7 -30 409 248 188 154 
-7 -30 409 250 191 159 
-6 -30 408 254 195 163 
-5 -30 408 251 198 167 
-5 -30 408 249 196 165 
-4 -30 408 247 200 172 
-3 -30 408 253 206 178 
-3 -30 408 254 212 187 
-2 -30 408 255 215 190 
-1 -30 408 254 218 194 
-1 -30 408 255 220 196 
0 -30 408 255 222 197 
1 -30 408 255 221 196 
1 -30 409 250 217 198 
2 -30 409 246 213 194 
3 -30 409 247 215 200 
3 -30 410 244 212 197 
4 -30 410 239 217 206 
-13 -30 414 180 121 89 
-13 -30 414 194 135 103 
-12 -30 413 205 139 107 
-11 -30 412 213 147 115 
-11 -30 412 219 151 112 
-10 -30 411 224 156 117 
-9 -30 411 225 163 126 
-9 -30 410 230 168 131 
-8 -30 410 238 175 140 
-7 -30 410 244 181 146 
-7 -30 409 246 186 152 
-6 -30 409 252 192 158 
-5 -30 409 252 195 165 
-5 -30 409 249 192 162 
-4 -30 409 247 196 167 
-3 -30 409 253 202 173 
-3 -30 409 254 210 183 
-2 -30 408 255 213 186 
-1 -30 408 253 216 190 
-1 -30 408 255 219 193 
0 -30 408 254 220 193 
1 -30 408 253 219 192 
1 -30 409 250 215 195 
2 -30 409 251 216 196 
3 -30 409 248 213 194 
3 -30 410 249 214 195 
4 -30 410 238 212 199 
5 -30 410 244 218 205 
5 -30 410 253 244 237 
-13 -29 414 181 128 110 
-12 -29 413 201 133 98 
-11 -29 413 202 134 99 
-11 -29 412 207 143 107 
-10 -29 411 212 148 112 
-9 -29 411 218 154 116 
-9 -29 410 223 159 121 
-8 -29 410 231 167 131 
-7 -29 410 237 173 137 
-7 -29 410 242 179 144 
-6 -29 409 249 186 151 
-5 -29 409 250 189 158 
-5 -29 409 248 187 156 
-4 -29 409 245 190 160 
-3 -29 409 251 196 166 
-3 -29 409 252 205 177 
-2 -29 409 255 208 180 
-1 -29 408 253 211 186 
-1 -29 408 255 214 189 
0 -29 408 255 218 191 
1 -29 408 255 218 191 
1 -29 409 253 216 197 
2 -29 409 255 219 200 
3 -29 409 248 213 193 
3 -29 409 249 214 194 
4 -29 409 244 217 200 
5 -29 409 240 213 196 
5 -29 409 243 228 221 
6 -29 410 255 248 241 
-12 -29 414 187 122 82 
-11 -29 413 193 128 88 
-11 -29 413 197 137 101 
-10 -29 412 201 141 105 
-9 -29 412 210 147 106 
-9 -29 411 216 153 112 
-8 -29 411 224 159 121 
-7 -29 411 230 165 127 
-7 -28 410 238 172 138 
-6 -28 410 245 179 145 
-5 -28 409 245 182 149 
-5 -28 409 243 180 147 
-4 -28 409 243 184 154 
-3 -28 409 251 192 162 
-3 -28 409 252 201 172 
-2 -28 409 254 203 174 
-1 -28 409 250 206 179 
-1 -28 408 255 211 184 
0 -28 408 255 216 190 
1 -28 408 255 218 192 
1 -28 408 255 219 198 
2 -28 409 251 213 192 
3 -28 409 251 217 192 
3 -28 409 249 215 190 
4 -28 409 244 215 197 
5 -28 409 243 214 196 
5 -28 409 235 218 210 
6 -28 409 254 237 229 
7 -28 410 255 252 251 
-11 -28 415 180 112 101 
-11 -28 414 192 123 81 
-10 -28 413 197 128 86 
-9 -28 412 210 141 108 
-9 -28 412 216 147 114 
-8 -28 411 219 155 119 
-7 -28 411 227 163 127 
-7 -28 411 232 167 125 
-6 -28 410 245 180 138 
-5 -28 410 243 179 151 
-5 -28 410 242 178 150 
-4 -28 410 235 183 136 
-3 -28 410 246 194 147 
-3 -28 409 250 196 168 
-2 -28 409 252 198 170 
-1 -28 409 251 203 181 
-1 -28 409 255 211 189 
0 -28 408 255 214 191 
1 -28 408 255 217 194 
1 -28 408 250 217 200 
2 -28 409 251 218 201 
3 -28 409 254 219 200 
3 -28 409 253 218 199 
4 -28 409 249 216 197 
5 -28 409 249 216 197 
5 -28 409 246 221 201 
6 -28 409 245 220 200 
7 -28 410 255 241 233 
-11 -28 416 151 108 99 
-10 -27 414 185 118 91 
-9 -27 413 201 129 105 
-9 -27 413 211 139 115 
-8 -27 412 215 148 119 
-7 -27 412 224 157 128 
-7 -27 411 228 164 120 
-6 -27 411 233 169 125 
-5 -27 411 234 171 136 
-5 -27 410 240 177 142 
-4 -27 410 236 178 138 
-3 -27 410 245 187 147 
-3 -27 410 245 189 154 
-2 -27 410 247 191 156 
-1 -27 409 249 197 158 
-1 -27 409 255 207 168 
0 -27 409 255 211 181 
1 -27 409 255 215 185 
1 -27 409 253 216 198 
2 -27 409 254 217 199 
3 -27 409 255 220 200 
3 -27 409 254 219 199 
4 -27 409 250 218 197 
5 -27 409 250 218 197 
5 -27 409 247 220 201 
6 -27 409 245 218 199 
7 -27 410 243 225 215 
-10 -27 415 167 107 99 
-9 -27 415 190 119 89 
-9 -27 414 200 129 99 
-8 -27 413 207 136 106 
-7 -27 412 217 146 116 
-7 -27 412 218 155 111 
-6 -27 411 226 163 119 
-5 -27 411 232 170 129 
-5 -27 411 235 173 132 
-4 -27 411 235 173 134 
-3 -27 411 243 181 142 
-3 -26 410 241 181 147 
-2 -26 410 244 184 150 
-1 -26 409 246 191 152 
-1 -26 409 255 201 162 
0 -26 409 255 204 184 
1 -26 409 255 209 189 
1 -26 409 255 212 193 
2 -26 409 255 215 196 
3 -26 409 255 220 198 
3 -26 409 255 220 198 
4 -26 409 250 220 196 
5 -26 409 250 220 196 
5 -26 409 250 219 199 
6 -26 409 249 218 198 
7 -26 410 240 216 206 
8 -26 410 252 228 218 
8 -26 410 255 244 240 
-9 -26 415 174 108 73 
-9 -26 415 184 118 83 
-8 -26 414 198 121 91 
-7 -26 413 211 134 104 
-7 -26 412 217 148 115 
-6 -26 412 219 150 117 
-5 -26 411 221 160 115 
-5 -26 411 229 168 123 
-4 -26 411 229 168 124 
-3 -26 411 236 175 131 
-3 -26 410 235 177 140 
-2 -26 410 239 181 144 
-1 -26 410 244 185 153 
-1 -26 409 253 194 162 
0 -26 409 255 197 185 
1 -26 409 255 203 191 
1 -26 409 255 209 187 
2 -26 409 255 212 190 
3 -26 409 255 219 193 
3 -26 409 255 219 193 
4 -26 409 251 221 195 
5 -26 409 251 221 195 
5 -26 409 252 219 200 
6 -26 409 251 218 199 
7 -26 410 245 217 205 
8 -26 410 242 214 202 
8 -26 410 249 234 227 
-8 -25 415 193 112 82 
-7 -25 414 204 123 93 
-7 -25 413 206 133 101 
-6 -25 413 212 139 107 
-5 -25 412 217 152 114 
-5 -25 412 221 156 118 
-4 -25 411 224 160 116 
-3 -25 410 232 168 124 
-3 -25 410 229 175 131 
-2 -25 410 234 180 136 
-1 -25 409 239 181 141 
-1 -25 409 247 189 149 
0 -25 409 250 193 166 
1 -25 409 255 199 172 
1 -25 408 255 204 182 
2 -25 408 255 209 187 
3 -25 408 255 218 192 
3 -25 408 255 219 193 
4 -25 408 253 221 196 
5 -25 408 253 221 196 
5 -25 409 252 219 200 
6 -25 409 250 217 198 
7 -25 410 248 216 203 
8 -25 410 247 215 202 
8 -25 410 241 221 212 
9 -25 411 255 238 229 
-8 -25 415 179 105 68 
-7 -25 415 186 112 75 
-7 -25 414 194 124 88 
-6 -25 413 203 133 97 
-5 -25 413 211 141 105 
-5 -25 412 220 150 114 
-4 -24 411 221 150 118 
-3 -24 411 230 159 127 
-3 -24 410 227 170 127 
-2 -24 410 234 177 134 
-1 -24 410 241 180 135 
-1 -24 410 246 185 140 
0 -24 410 246 187 157 
1 -24 409 253 194 164 
1 -24 409 254 202 178 
2 -24 409 255 208 184 
3 -24 409 255 215 190 
3 -24 409 255 216 191 
4 -24 408 255 219 195 
5 -24 408 255 220 196 
5 -24 409 252 219 200 
6 -24 409 251 218 199 
7 -24 409 247 215 200 
7 -24 409 251 219 204 
8 -24 410 242 215 204 
9 -24 410 248 221 210 
10 -24 411 254 243 237 
-7 -24 416 165 103 88 
-7 -24 415 174 112 99 
-6 -24 415 193 131 118 
-5 -24 414 205 139 105 
-5 -24 413 207 141 107 
-4 -24 412 217 141 115 
-3 -24 412 225 149 123 
-3 -24 411 223 161 124 
-2 -24 411 232 170 133 
-1 -24 410 238 175 132 
-1 -24 410 244 181 138 
0 -24 410 240 183 156 
1 -24 410 246 189 162 
1 -24 409 250 199 170 
2 -24 409 255 205 176 
3 -24 409 255 210 184 
3 -24 409 255 212 186 
4 -24 408 255 215 193 
5 -24 408 255 218 196 
5 -24 409 253 221 200 
6 -24 409 252 220 199 
7 -24 409 248 217 199 
7 -24 409 249 218 200 
8 -24 410 250 218 205 
9 -24 410 244 212 199 
10 -24 411 245 228 220 
10 -24 411 255 246 238 
-6 -23 416 169 113 142 
-5 -23 415 194 133 104 
-5 -23 414 199 138 109 
-4 -23 413 211 135 103 
-3 -23 412 218 142 110 
-3 -23 412 215 151 113 
-2 -23 411 225 161 123 
-1 -23 411 232 169 125 
-1 -23 410 239 176 132 
0 -23 410 235 180 149 
1 -23 410 241 186 155 
1 -23 410 245 194 165 
2 -23 409 252 201 172 
3 -23 409 255 206 179 
3 -23 409 255 209 182 
4 -23 408 255 213 190 
5 -23 408 255 216 193 
5 -23 409 253 221 200 
6 -23 409 252 220 199 
7 -23 409 249 218 198 
7 -23 409 247 216 196 
8 -23 409 249 216 199 
9 -23 410 251 218 201 
10 -23 411 238 218 209 
10 -23 411 251 231 222 
11 -23 411 255 255 251 
-5 -23 416 187 120 114 
-5 -23 415 196 129 123 
-4 -23 414 197 135 98 
-3 -23 413 206 144 107 
-3 -23 412 214 146 111 
-2 -23 412 217 149 114 
-1 -22 411 222 158 123 
-1 -22 411 232 168 133 
0 -22 411 239 173 138 
1 -22 411 243 177 142 
1 -22 410 245 191 163 
2 -22 410 250 196 168 
3 -22 410 255 205 178 
3 -22 409 255 210 183 
4 -22 409 255 215 191 
5 -22 409 255 218 194 
5 -22 409 255 222 200 
6 -22 409 255 221 199 
7 -22 409 254 223 203 
7 -22 409 253 222 202 
8 -22 409 248 219 201 
9 -22 410 246 217 199 
10 -22 410 240 214 199 
10 -22 410 242 216 201 
11 -22 411 255 234 222 
-5 -22 415 174 124 117 
-4 -22 414 191 128 97 
-3 -22 414 197 134 103 
-3 -22 413 205 137 98 
-2 -22 412 212 144 105 
-1 -22 412 216 150 118 
-1 -22 412 225 159 127 
0 -22 411 235 169 137 
1 -22 411 242 176 144 
1 -22 411 243 186 159 
2 -22 411 250 193 166 
3 -22 410 255 201 175 
3 -22 410 255 206 180 
4 -22 409 255 212 188 
5 -22 409 255 215 191 
5 -22 409 255 219 196 
6 -22 409 255 220 197 
7 -22 409 254 219 199 
7 -22 409 254 219 199 
8 -22 409 252 219 200 
9 -22 409 251 218 199 
10 -22 410 246 214 199 
10 -22 410 244 212 197 
11 -22 410 248 218 207 
-4 -21 415 175 118 99 
-3 -21 415 181 124 105 
-3 -21 414 196 127 86 
-2 -21 413 205 136 95 
-1 -21 413 212 141 109 
-1 -21 413 219 148 116 
0 -21 412 233 163 137 
1 -21 411 241 171 145 
1 -21 411 239 182 155 
2 -21 411 247 190 163 
3 -21 411 253 197 170 
3 -21 410 255 201 174 
4 -21 409 255 209 182 
5 -21 409 255 212 185 
5 -21 409 255 216 192 
6 -21 409 255 218 194 
7 -21 409 255 219 197 
7 -21 409 255 219 197 
8 -21 409 255 220 201 
9 -21 409 254 219 200 
10 -21 410 251 215 199 
10 -21 410 248 212 196 
11 -21 410 243 210 195 
12 -21 410 245 212 197 
12 -21 410 251 196 201 
-3 -21 416 157 120 111 
-3 -21 415 197 125 87 
-2 -21 413 200 128 90 
-1 -21 413 204 133 101 
-1 -21 413 212 141 109 
0 -21 413 213 147 115 
1 -21 412 229 163 131 
1 -20 411 231 174 145 
2 -20 411 241 184 155 
3 -20 411 248 193 163 
3 -20 411 253 198 168 
4 -20 410 255 206 176 
5 -20 409 255 209 179 
5 -20 409 254 213 185 
6 -20 409 255 216 188 
7 -20 409 254 218 194 
7 -20 409 254 218 194 
8 -20 409 255 220 200 
9 -20 409 253 218 198 
9 -20 409 253 218 199 
10 -20 410 253 218 199 
11 -20 410 250 213 195 
12 -20 410 249 212 194 
12 -20 410 255 209 193 
-2 -20 415 191 116 95 
-1 -20 414 200 129 99 
-1 -20 414 209 138 108 
0 -20 413 213 148 108 
1 -20 413 214 149 109 
1 -20 412 219 162 132 
2 -20 412 231 174 144 
3 -20 411 239 184 154 
3 -20 411 246 191 161 
4 -20 410 248 199 167 
5 -20 410 253 204 172 
5 -20 410 252 208 179 
6 -20 409 255 211 182 
7 -20 409 252 215 189 
7 -20 409 252 215 189 
8 -20 409 253 218 196 
9 -20 409 251 216 194 
9 -20 409 253 216 197 
10 -20 409 255 219 200 
11 -20 409 253 216 197 
12 -20 410 251 214 195 
12 -20 410 255 214 198 
-1 -19 415 185 120 100 
-1 -19 414 194 129 109 
0 -19 414 205 141 103 
1 -19 414 210 146 108 
1 -19 413 214 151 120 
2 -19 412 225 162 131 
3 -19 412 232 173 141 
3 -19 411 240 181 149 
4 -19 410 245 192 161 
5 -19 410 251 198 167 
5 -19 410 251 204 174 
6 -19 410 255 208 178 
7 -19 409 253 211 186 
7 -19 409 253 211 186 
8 -19 409 253 215 192 
9 -19 409 253 215 192 
9 -19 409 255 217 198 
10 -19 409 255 219 200 
11 -19 409 255 217 198 
11 -19 409 251 213 194 
12 -19 409 255 216 201 
13 -19 409 255 216 201 
-1 -19 416 180 124 127 
-1 -19 415 176 120 123 
0 -19 415 193 133 109 
1 -19 414 197 137 113 
1 -19 414 211 142 109 
2 -19 413 222 153 120 
3 -19 412 225 162 129 
4 -19 412 232 169 136 
4 -18 411 237 182 151 
5 -18 411 246 191 160 
5 -18 410 247 198 166 
6 -18 409 253 204 172 
7 -18 409 254 209 180 
7 -18 409 255 210 181 
8 -18 409 253 211 187 
9 -18 409 255 213 189 
9 -18 409 255 216 196 
10 -18 409 255 217 197 
11 -18 409 255 217 197 
11 -18 409 255 214 194 
12 -18 409 255 214 195 
13 -18 409 253 210 191 
0 -18 416 180 123 114 
1 -18 415 191 134 125 
1 -18 414 208 138 102 
2 -18 413 218 148 112 
3 -18 413 218 154 119 
4 -18 412 223 159 124 
4 -18 412 229 172 142 
5 -18 411 239 182 152 
6 -18 411 240 189 158 
6 -18 410 247 196 165 
7 -18 410 249 204 173 
8 -18 410 253 208 177 
8 -18 409 250 208 183 
9 -18 409 254 212 187 
9 -18 409 255 215 193 
10 -18 409 255 216 194 
11 -18 409 255 218 198 
11 -18 409 255 216 196 
12 -18 409 255 217 197 
13 -18 409 251 210 190 
1 -17 416 151 142 143 
1 -17 415 202 145 116 
2 -17 414 207 150 121 
3 -17 414 217 151 116 
4 -17 413 216 150 115 
4 -17 413 214 165 133 
5 -17 412 222 173 141 
6 -17 411 238 176 139 
6 -17 410 249 187 150 
7 -17 410 249 196 165 
8 -17 410 254 201 170 
8 -17 409 255 208 176 
9 -17 409 255 211 179 
9 -17 409 255 214 193 
10 -17 409 255 218 197 
11 -17 409 255 222 200 
11 -17 409 255 221 199 
12 -17 409 255 216 192 
13 -17 409 252 210 186 
2 -17 416 178 136 120 
2 -17 415 187 145 129 
3 -17 414 205 141 116 
4 -17 413 221 157 132 
4 -17 413 204 149 118 
5 -17 413 214 159 128 
6 -16 412 230 165 127 
6 -16 411 245 180 142 
7 -16 410 245 186 156 
8 -16 410 255 196 166 
8 -16 410 254 201 167 
9 -16 409 255 206 172 
9 -16 409 255 211 188 
10 -16 409 255 212 189 
11 -16 409 255 218 197 
11 -16 409 255 217 196 
12 -16 409 255 217 194 
13 -16 409 255 219 196 
14 -16 409 235 196 179 
14 -16 409 199 160 143 
2 -16 416 158 136 138 
3 -16 415 191 133 122 
4 -16 414 197 139 128 
4 -16 413 203 139 111 
5 -16 413 213 149 121 
6 -16 413 226 157 118 
6 -16 412 237 168 129 
7 -16 411 242 177 145 
8 -16 411 247 182 150 
8 -16 410 251 195 158 
9 -16 410 255 199 162 
10 -16 410 248 204 177 
10 -16 410 254 210 183 
11 -16 409 255 214 192 
11 -16 409 255 217 195 
12 -16 409 255 220 199 
13 -16 409 245 207 186 
14 -16 409 233 197 181 
14 -16 409 220 184 168 
4 -15 416 178 127 126 
4 -15 415 200 133 104 
5 -15 414 205 138 109 
6 -15 413 218 150 111 
6 -15 413 229 161 122 
7 -15 412 239 168 138 
8 -15 411 242 171 141 
8 -15 411 242 182 146 
9 -15 410 252 192 156 
10 -15 410 247 200 170 
10 -15 409 250 203 173 
11 -15 409 254 209 186 
11 -15 409 255 216 193 
12 -15 409 244 201 185 
13 -15 408 242 199 183 
13 -15 408 255 221 207 
4 -15 416 193 126 97 
5 -15 415 195 128 99 
6 -15 414 205 140 102 
6 -15 413 217 152 114 
7 -14 412 228 157 129 
8 -14 412 237 166 138 
8 -14 412 240 176 141 
9 -14 411 246 182 147 
10 -14 410 243 190 159 
10 -14 410 253 200 169 
11 -14 409 254 207 181 
11 -14 409 241 194 168 
5 -14 415 189 122 96 
6 -14 414 196 130 96 
6 -14 413 204 138 104 
7 -14 413 215 146 117 
8 -14 412 223 154 125 
8 -14 412 237 172 142 
9 -14 412 237 172 142 
10 -14 411 239 182 153 
10 -14 410 248 191 162 
11 -14 409 231 184 158 
11 -14 409 230 183 157 
6 -13 415 195 121 94 
6 -13 414 201 127 100 
7 -13 414 206 137 106 
8 -13 413 210 141 110 
8 -13 412 220 159 128 
9 -13 412 229 168 137 
10 -13 411 234 174 148 
10 -13 411 223 163 137 
6 -13 416 186 106 83 
6 -13 415 203 123 100 
7 -13 415 195 129 95 
8 -13 414 204 138 104 
8 -12 413 211 152 120 
9 -12 413 229 170 138 
7 -12 415 189 119 94 
8 -12 415 201 131 106 
8 -12 414 213 147 125 
9 -12 413 201 135 113 
10 -12 413 186 124 99 
