ply
format ascii 1.0
comment Created by CloudCompare v2.10.1 (Zephyrus)
comment Created 2020-05-06 8:41 PM
obj_info Generated by CloudCompare!
element vertex 242
property float x
property float y
property float z
property uchar red
property uchar green
property uchar blue
property float scalar_Original_cloud_index
end_header
-35 38 410 167 108 78 0 
-35 38 410 175 120 90 0 
-34 38 411 162 107 77 0 
-33 38 411 161 107 79 0 
-33 38 411 160 106 78 0 
-32 38 411 169 118 91 0 
-39 39 412 124 64 38 0 
-39 39 412 133 72 44 0 
-38 39 412 138 77 49 0 
-37 39 412 143 79 51 0 
-37 39 411 147 83 55 0 
-36 39 411 151 91 63 0 
-35 39 411 164 104 76 0 
-35 39 411 173 117 90 0 
-34 39 411 166 110 83 0 
-33 39 412 170 116 90 0 
-33 39 412 180 126 100 0 
-32 39 412 190 138 114 0 
-32 39 413 213 161 137 0 
-31 39 413 208 181 164 0 
-39 39 413 155 89 65 0 
-38 39 413 161 95 71 0 
-38 39 413 165 101 74 0 
-37 39 412 173 109 82 0 
-36 39 412 178 118 92 0 
-35 39 412 187 127 101 0 
-35 39 412 171 115 92 0 
-34 39 412 182 126 103 0 
-33 39 412 199 147 126 0 
-33 39 412 208 156 135 0 
-32 39 412 217 164 146 0 
-31 39 412 238 185 167 0 
-31 39 413 224 198 183 0 
-39 40 413 173 107 83 0 
-38 40 413 178 112 88 0 
-37 40 412 181 119 94 0 
-37 40 412 190 128 103 0 
-36 40 411 199 139 115 0 
-35 40 412 205 145 121 0 
-35 40 412 152 95 75 0 
-34 40 412 181 124 104 0 
-33 40 412 227 176 157 0 
-33 40 412 228 177 158 0 
-32 40 413 231 182 167 0 
-31 40 412 243 194 179 0 
-31 40 412 231 203 189 0 
-30 40 412 229 201 187 0 
-39 41 413 189 125 98 0 
-38 41 412 197 133 106 0 
-37 41 412 201 141 115 0 
-37 41 412 210 150 124 0 
-36 41 411 213 155 131 0 
-35 41 411 219 161 137 0 
-35 41 411 153 98 78 0 
-34 41 411 169 114 94 0 
-33 41 412 243 194 179 0 
-33 41 412 240 191 176 0 
-32 41 412 236 193 177 0 
-31 41 412 242 199 183 0 
-31 41 412 238 211 194 0 
-30 41 412 232 205 188 0 
-29 41 412 212 189 181 0 
-29 41 413 146 123 115 0 
-39 41 413 201 140 111 0 
-38 41 412 209 148 119 0 
-37 41 411 213 156 127 0 
-37 41 411 222 165 136 0 
-36 41 411 227 171 146 0 
-35 41 411 238 182 157 0 
-35 41 411 175 123 102 0 
-34 41 411 161 109 88 0 
-33 41 412 248 202 186 0 
-33 41 412 249 203 187 0 
-32 41 412 239 200 185 0 
-31 41 412 246 207 192 0 
-31 41 412 243 214 198 0 
-30 41 412 238 209 193 0 
-29 41 412 228 204 194 0 
-29 41 412 182 158 148 0 
-39 42 413 222 161 130 0 
-38 42 412 227 166 135 0 
-37 42 411 229 172 142 0 
-37 42 411 238 181 151 0 
-36 42 411 244 190 162 0 
-35 42 411 246 192 164 0 
-35 42 411 199 149 124 0 
-34 42 411 158 108 83 0 
-33 42 412 250 205 182 0 
-33 42 412 250 205 182 0 
-32 42 412 248 205 186 0 
-31 42 412 250 207 188 0 
-31 42 412 249 217 196 0 
-30 42 412 241 209 188 0 
-29 42 412 230 204 187 0 
-29 42 412 210 184 167 0 
-39 43 412 230 169 138 0 
-38 43 412 235 174 143 0 
-37 43 411 237 180 150 0 
-37 42 410 245 188 158 0 
-36 42 410 246 192 164 0 
-35 42 410 253 199 171 0 
-35 43 411 213 163 138 0 
-34 43 411 153 103 78 0 
-33 43 411 238 192 169 0 
-33 43 411 253 207 184 0 
-32 43 412 249 204 185 0 
-31 43 412 248 203 184 0 
-31 43 412 247 213 188 0 
-30 43 412 241 207 182 0 
-29 43 412 231 200 182 0 
-29 43 412 214 183 165 0 
-39 43 412 232 171 140 0 
-38 43 411 237 176 145 0 
-37 43 411 240 183 153 0 
-37 43 410 246 189 159 0 
-36 43 409 247 194 163 0 
-35 43 409 253 200 169 0 
-35 43 410 220 170 145 0 
-34 43 410 143 93 68 0 
-33 43 411 222 174 152 0 
-33 43 411 252 204 182 0 
-32 43 411 247 198 181 0 
-31 43 412 245 196 179 0 
-31 43 412 241 205 179 0 
-30 43 411 236 200 174 0 
-29 43 412 231 193 172 0 
-29 43 412 218 180 159 0 
-40 44 413 218 158 124 0 
-40 44 413 227 167 133 0 
-39 44 412 234 174 140 0 
-38 44 411 238 178 144 0 
-37 44 411 240 184 151 0 
-37 44 410 245 189 156 0 
-36 44 409 243 188 157 0 
-35 44 409 246 191 160 0 
-35 44 410 215 164 137 0 
-34 44 410 136 85 58 0 
-33 44 411 213 161 139 0 
-33 44 411 250 198 176 0 
-32 44 411 244 191 173 0 
-31 44 412 242 189 171 0 
-31 44 412 234 195 166 0 
-30 44 411 232 193 164 0 
-29 44 412 230 184 161 0 
-29 44 412 218 172 149 0 
-40 45 413 219 159 123 0 
-39 45 412 227 167 131 0 
-39 45 412 233 173 137 0 
-38 45 411 236 176 140 0 
-37 45 411 239 181 144 0 
-37 44 410 243 185 148 0 
-36 44 410 236 180 147 0 
-35 44 410 240 184 151 0 
-35 44 410 212 156 129 0 
-34 45 411 137 81 54 0 
-33 45 411 211 155 132 0 
-33 45 411 246 190 167 0 
-32 45 411 243 186 167 0 
-31 45 412 238 181 162 0 
-31 45 412 226 182 153 0 
-30 45 411 225 181 152 0 
-29 45 412 225 175 150 0 
-29 45 412 214 164 139 0 
-40 45 412 219 157 120 0 
-39 45 411 228 166 129 0 
-39 45 411 230 170 133 0 
-38 45 411 232 172 135 0 
-37 45 410 235 175 138 0 
-37 45 410 237 177 140 0 
-36 45 410 231 172 138 0 
-35 45 410 239 180 146 0 
-35 45 410 209 152 123 0 
-34 45 411 136 79 50 0 
-33 45 411 204 146 122 0 
-33 45 411 239 181 157 0 
-32 45 412 239 181 161 0 
-31 45 412 230 172 152 0 
-31 45 412 222 173 143 0 
-30 45 411 221 172 142 0 
-29 45 412 220 169 142 0 
-29 45 412 212 161 134 0 
-40 46 412 222 160 123 0 
-39 46 411 231 169 132 0 
-39 46 411 231 171 134 0 
-38 46 411 232 172 135 0 
-37 46 410 234 176 138 0 
-37 46 410 236 178 140 0 
-36 46 410 230 171 137 0 
-35 46 410 233 174 140 0 
-35 46 410 206 146 118 0 
-34 46 411 136 76 48 0 
-33 46 411 198 140 116 0 
-33 46 411 232 174 150 0 
-32 46 412 235 179 156 0 
-31 46 412 226 170 147 0 
-31 46 412 225 171 143 0 
-30 46 412 223 169 141 0 
-29 46 411 217 166 139 0 
-29 46 412 211 160 133 0 
-40 47 412 222 160 123 0 
-39 47 411 232 170 133 0 
-39 47 411 231 171 134 0 
-38 47 411 232 172 135 0 
-37 47 411 235 177 139 0 
-37 46 410 236 178 140 0 
-36 46 410 233 174 140 0 
-35 46 410 227 168 134 0 
-35 46 410 202 142 114 0 
-34 47 411 137 77 49 0 
-33 47 411 198 140 116 0 
-33 47 411 232 174 150 0 
-32 47 411 234 178 155 0 
-31 47 411 229 173 150 0 
-31 47 411 230 174 147 0 
-30 47 411 227 171 144 0 
-40 47 412 218 158 124 0 
-39 47 411 226 166 132 0 
-39 47 411 229 170 138 0 
-38 47 411 228 169 137 0 
-37 47 411 227 168 138 0 
-37 47 411 228 169 139 0 
-36 47 410 227 170 143 0 
-35 47 410 223 166 139 0 
-35 47 410 199 145 119 0 
-34 47 410 131 77 51 0 
-33 47 410 191 137 113 0 
-33 47 410 223 169 145 0 
-32 47 410 225 171 147 0 
-31 47 410 224 170 146 0 
-31 47 410 226 169 142 0 
-30 47 410 224 167 140 0 
-38 48 411 227 168 136 0 
-37 48 411 223 166 137 0 
-37 48 411 224 167 138 0 
-36 48 411 223 167 140 0 
-35 48 410 224 168 141 0 
-35 48 410 214 160 134 0 
-34 48 410 187 133 107 0 
-36 48 410 238 184 158 0 
-35 48 410 241 187 161 0 
-35 48 409 239 189 164 0 
-34 48 409 246 196 171 0 
