ply
format ascii 1.0
comment Created by CloudCompare v2.10.1 (Zephyrus)
comment Created 2020-05-06 8:41 PM
obj_info Generated by CloudCompare!
element vertex 191
property float x
property float y
property float z
property uchar red
property uchar green
property uchar blue
property float scalar_Original_cloud_index
end_header
-33 106 411 188 128 100 0 
-32 106 409 194 134 106 0 
-26 105 405 196 146 109 0 
-23 106 408 237 186 159 0 
-33 107 411 165 111 85 0 
-32 106 409 169 115 89 0 
-32 106 408 190 129 100 0 
-31 106 408 167 106 77 0 
-30 106 408 184 127 98 0 
-30 106 407 198 141 112 0 
-29 106 406 196 145 116 0 
-26 105 405 218 166 129 0 
-24 106 406 209 159 126 0 
-24 106 406 212 161 134 0 
-23 106 407 232 181 154 0 
-33 108 411 169 119 96 0 
-32 107 409 180 130 107 0 
-32 107 408 202 140 115 0 
-31 107 407 142 80 55 0 
-30 107 407 198 141 114 0 
-29 106 406 232 175 148 0 
-29 106 405 236 182 156 0 
-28 106 405 237 183 157 0 
-27 106 405 241 187 153 0 
-27 106 404 244 190 156 0 
-26 106 404 244 191 157 0 
-25 106 404 240 187 153 0 
-25 106 405 233 180 148 0 
-24 106 405 227 174 142 0 
-24 106 406 211 160 131 0 
-23 106 406 213 162 133 0 
-33 108 412 197 147 124 0 
-32 108 409 210 160 137 0 
-32 107 408 222 166 143 0 
-31 107 407 152 96 73 0 
-30 107 406 210 152 130 0 
-29 107 406 251 193 171 0 
-29 107 405 247 195 171 0 
-28 107 405 241 189 165 0 
-27 107 405 244 189 158 0 
-27 107 405 246 191 160 0 
-26 107 405 248 195 161 0 
-25 107 405 245 192 158 0 
-25 107 405 234 184 151 0 
-24 107 406 222 172 139 0 
-24 107 406 197 148 118 0 
-23 107 406 173 124 94 0 
-33 109 411 206 152 126 0 
-32 109 410 216 162 136 0 
-32 108 408 222 170 146 0 
-31 108 408 163 111 87 0 
-30 108 407 207 150 130 0 
-29 108 406 251 194 174 0 
-29 108 406 246 196 173 0 
-28 107 405 242 192 169 0 
-27 107 405 244 194 161 0 
-27 107 405 242 192 159 0 
-26 107 405 241 191 158 0 
-25 107 405 241 191 158 0 
-25 107 405 231 181 148 0 
-24 108 406 227 177 144 0 
-24 108 406 196 147 115 0 
-23 108 406 142 93 61 0 
-33 110 412 198 143 112 0 
-32 109 410 208 153 122 0 
-32 109 409 218 165 134 0 
-31 109 408 175 122 91 0 
-30 108 407 195 134 116 0 
-30 108 407 248 187 169 0 
-29 108 406 242 192 169 0 
-28 108 405 238 188 165 0 
-27 108 405 241 190 159 0 
-27 108 405 240 189 158 0 
-26 108 405 238 188 155 0 
-25 108 405 241 191 158 0 
-25 108 405 227 176 145 0 
-24 108 406 226 175 144 0 
-24 108 406 184 135 103 0 
-23 108 406 139 90 58 0 
-33 111 413 196 140 105 0 
-32 110 411 206 150 115 0 
-32 110 409 214 160 126 0 
-31 110 409 180 126 92 0 
-30 109 408 179 116 99 0 
-30 109 407 245 182 165 0 
-29 109 407 245 193 171 0 
-28 109 406 237 185 163 0 
-27 109 406 240 187 156 0 
-27 109 405 242 189 158 0 
-26 109 405 238 185 153 0 
-25 109 405 241 188 156 0 
-25 109 405 231 178 147 0 
-24 109 405 226 173 142 0 
-24 109 406 179 128 97 0 
-23 109 406 179 128 97 0 
-33 111 413 189 131 111 0 
-32 111 411 199 141 121 0 
-32 110 409 208 148 124 0 
-31 110 409 187 127 103 0 
-30 110 408 167 102 84 0 
-30 110 407 237 172 154 0 
-29 110 407 234 191 156 0 
-28 110 406 228 185 150 0 
-27 110 406 241 185 152 0 
-27 110 406 238 182 149 0 
-26 109 405 235 185 158 0 
-25 109 405 237 187 160 0 
-25 109 405 229 180 139 0 
-24 109 405 228 179 138 0 
-24 110 406 177 129 106 0 
-23 110 406 168 120 97 0 
-33 112 413 180 122 102 0 
-32 111 410 192 134 114 0 
-32 111 409 201 141 115 0 
-31 111 408 193 133 107 0 
-30 111 408 154 89 67 0 
-30 111 408 229 164 142 0 
-29 110 407 230 184 150 0 
-28 110 406 225 179 145 0 
-27 110 406 231 177 141 0 
-27 110 406 236 182 146 0 
-26 110 406 229 178 149 0 
-26 110 406 236 185 156 0 
-25 110 405 231 183 145 0 
-24 110 405 227 179 141 0 
-24 110 406 184 137 111 0 
-23 110 406 134 87 61 0 
-33 112 411 176 118 98 0 
-32 112 410 188 130 110 0 
-32 112 409 197 135 110 0 
-31 111 408 199 137 112 0 
-30 111 407 152 88 61 0 
-30 111 407 216 152 125 0 
-29 111 407 221 171 138 0 
-28 111 407 224 174 141 0 
-27 111 406 228 174 138 0 
-27 111 406 228 174 138 0 
-26 111 406 226 172 144 0 
-25 111 405 240 186 158 0 
-25 111 405 226 180 147 0 
-24 111 405 225 179 146 0 
-33 113 411 174 117 97 0 
-32 112 409 180 123 103 0 
-32 112 408 192 130 107 0 
-31 112 407 202 140 117 0 
-30 112 407 151 92 60 0 
-29 111 406 194 135 103 0 
-29 111 406 216 163 131 0 
-28 111 406 224 171 139 0 
-27 111 406 229 176 142 0 
-27 111 406 226 173 139 0 
-26 111 406 230 174 147 0 
-25 111 405 239 183 156 0 
-25 111 405 227 183 156 0 
-24 111 405 212 168 141 0 
-33 113 410 176 119 100 0 
-32 113 408 173 116 97 0 
-32 113 408 188 128 104 0 
-31 112 407 201 141 117 0 
-30 112 407 157 103 69 0 
-29 112 406 170 116 82 0 
-29 112 406 221 166 136 0 
-28 112 406 222 167 137 0 
-27 112 406 224 173 142 0 
-27 112 406 222 171 140 0 
-26 112 405 222 168 142 0 
-25 112 405 223 169 143 0 
-25 112 404 211 169 145 0 
-32 113 407 165 110 90 0 
-31 113 407 179 121 97 0 
-31 113 407 189 131 107 0 
-30 113 406 172 122 89 0 
-29 113 406 148 98 65 0 
-29 113 406 214 161 130 0 
-28 113 406 217 164 133 0 
-27 113 406 216 166 141 0 
-27 113 406 208 158 133 0 
-26 113 405 202 151 124 0 
-25 113 405 214 163 136 0 
-25 112 404 213 169 144 0 
-31 113 406 199 142 115 0 
-31 113 406 187 130 103 0 
-30 113 406 177 131 98 0 
-29 113 405 138 92 59 0 
-29 113 406 188 135 104 0 
-28 113 405 206 153 122 0 
-27 113 405 203 151 130 0 
-27 113 405 199 147 126 0 
-26 113 405 201 151 126 0 
-31 114 406 226 169 140 0 
-31 114 406 214 157 128 0 
