ply
format ascii 1.0
comment Created by CloudCompare v2.10.1 (Zephyrus)
comment Created 2020-05-06 8:40 PM
obj_info Generated by CloudCompare!
element vertex 128
property float x
property float y
property float z
property uchar red
property uchar green
property uchar blue
end_header
14 -15 408 255 224 210 
15 -15 409 240 206 194 
16 -15 409 194 160 148 
16 -15 409 198 151 143 
12 -14 409 241 194 184 
13 -14 408 255 217 207 
13 -14 408 255 227 214 
14 -14 408 255 226 213 
15 -14 408 254 226 212 
15 -14 408 242 214 200 
16 -14 408 213 169 158 
17 -14 409 198 154 143 
12 -14 408 255 218 206 
13 -14 408 255 226 214 
13 -14 408 255 232 218 
14 -14 408 255 229 215 
15 -14 408 253 234 217 
15 -14 408 249 230 213 
16 -14 408 253 215 202 
17 -14 408 212 174 161 
11 -13 410 210 163 137 
11 -13 409 249 202 176 
12 -13 408 255 222 206 
13 -13 408 255 228 212 
13 -13 408 255 223 208 
14 -13 407 255 228 213 
15 -13 408 246 228 208 
15 -13 408 248 230 210 
16 -13 408 255 229 214 
17 -13 408 248 216 201 
18 -13 409 226 178 168 
18 -13 409 220 172 162 
10 -12 412 207 147 123 
10 -12 412 196 136 112 
11 -12 411 232 186 160 
12 -12 410 255 211 185 
12 -12 409 252 219 200 
13 -12 408 255 222 203 
13 -12 408 255 221 207 
14 -12 408 255 220 206 
15 -12 408 249 228 207 
15 -12 408 247 226 205 
16 -12 408 252 225 206 
17 -12 408 252 225 206 
17 -12 408 255 207 199 
18 -12 409 219 166 158 
10 -12 412 222 160 135 
11 -12 411 240 194 168 
12 -12 411 255 209 183 
12 -12 410 238 207 189 
13 -12 409 245 214 196 
13 -12 408 253 221 200 
14 -12 408 250 218 197 
15 -12 408 254 218 194 
15 -12 408 255 221 197 
16 -12 408 255 222 199 
17 -12 408 255 226 203 
17 -12 408 254 216 197 
18 -12 408 217 179 160 
10 -11 414 186 131 110 
10 -11 413 189 134 113 
11 -11 411 215 170 149 
12 -11 411 248 203 182 
12 -11 410 213 177 161 
13 -11 410 234 198 182 
14 -11 409 244 207 188 
14 -11 408 248 211 192 
15 -11 408 255 216 194 
15 -11 408 255 216 194 
16 -11 408 255 218 193 
17 -11 408 255 217 192 
17 -11 408 253 215 196 
18 -11 408 237 199 180 
19 -11 408 208 168 156 
10 -11 415 156 107 92 
10 -10 414 168 119 104 
11 -10 413 170 121 106 
12 -10 412 228 179 164 
12 -10 411 222 183 168 
13 -10 410 189 150 135 
14 -10 410 235 194 176 
14 -10 409 247 206 188 
15 -10 409 250 205 182 
15 -10 408 253 208 185 
16 -10 408 253 208 185 
17 -10 408 255 216 193 
17 -10 408 245 204 184 
18 -10 408 230 189 169 
10 -10 416 148 93 86 
10 -10 416 157 102 95 
11 -10 415 142 88 78 
12 -10 414 187 133 123 
12 -10 413 204 161 145 
13 -10 412 166 123 107 
14 -10 411 207 160 142 
14 -10 410 243 196 178 
15 -10 410 244 196 173 
16 -10 409 246 198 175 
16 -10 409 247 201 177 
17 -10 408 244 198 174 
17 -10 408 236 195 173 
18 -10 408 242 201 179 
11 -9 416 167 113 103 
12 -9 415 153 99 89 
12 -9 415 151 104 88 
13 -9 414 140 93 77 
14 -9 412 178 127 106 
14 -9 411 235 184 163 
15 -9 411 238 186 162 
16 -9 410 242 190 166 
16 -9 409 237 190 164 
11 -9 417 164 116 104 
12 -8 416 161 113 101 
12 -8 416 150 99 82 
13 -8 415 125 74 57 
14 -8 413 188 133 112 
14 -8 412 225 170 149 
15 -8 411 227 173 147 
12 -8 417 151 98 90 
12 -8 417 146 89 72 
13 -8 415 153 96 79 
14 -8 414 210 152 130 
14 -8 413 218 160 138 
15 -8 411 216 159 132 
12 -7 418 172 111 93 
13 -7 417 191 130 112 
14 -7 415 195 133 110 
14 -7 413 197 135 112 
