ply
format ascii 1.0
comment Created by CloudCompare v2.10.1 (Zephyrus)
comment Created 2020-05-06 8:40 PM
obj_info Generated by CloudCompare!
element vertex 361
property float x
property float y
property float z
property uchar red
property uchar green
property uchar blue
end_header
-52 -79 407 203 139 104 
-50 -79 406 204 132 110 
-49 -79 406 201 129 107 
-49 -79 407 200 128 106 
-56 -79 409 198 140 118 
-54 -79 408 230 169 141 
-53 -78 407 232 171 143 
-53 -78 407 233 172 141 
-52 -78 407 236 175 144 
-51 -78 407 228 175 144 
-51 -78 407 231 178 147 
-50 -78 407 231 177 149 
-49 -78 407 233 179 151 
-49 -78 407 233 179 151 
-48 -78 407 230 176 148 
-47 -78 407 225 168 141 
-47 -78 407 218 161 134 
-46 -78 407 211 153 129 
-58 -78 410 151 119 106 
-57 -78 410 202 146 119 
-56 -78 409 225 169 142 
-56 -78 408 237 176 147 
-55 -78 408 241 180 151 
-54 -78 408 245 188 158 
-53 -78 407 248 191 161 
-53 -78 407 252 199 168 
-52 -78 407 255 202 171 
-51 -78 407 250 199 170 
-51 -78 407 252 201 172 
-50 -78 407 251 204 176 
-49 -78 407 253 206 178 
-49 -78 407 254 207 181 
-48 -78 407 252 205 179 
-47 -78 407 250 200 175 
-47 -78 407 244 194 169 
-46 -78 407 245 189 166 
-46 -78 407 237 181 158 
-58 -78 411 181 151 140 
-57 -78 410 221 164 135 
-56 -78 410 232 175 146 
-56 -77 409 238 179 149 
-55 -77 408 243 184 154 
-54 -77 408 253 196 166 
-53 -77 407 255 203 173 
-53 -77 407 255 207 182 
-52 -77 407 255 206 181 
-51 -77 407 255 209 182 
-51 -77 407 255 210 183 
-50 -77 407 255 211 186 
-49 -77 407 255 213 188 
-49 -77 407 255 215 192 
-48 -77 407 255 215 192 
-47 -77 407 255 215 191 
-47 -77 408 252 210 186 
-46 -77 408 251 204 178 
-46 -77 408 249 202 176 
-45 -77 408 246 191 170 
-44 -77 408 237 182 161 
-44 -77 409 215 166 151 
-43 -77 409 175 126 111 
-43 -78 410 146 108 99 
-58 -77 411 194 160 148 
-57 -77 411 226 167 137 
-56 -77 410 233 174 144 
-56 -77 409 237 182 152 
-55 -77 408 243 188 158 
-54 -76 407 252 197 166 
-53 -76 407 255 205 174 
-53 -76 407 255 211 186 
-52 -76 407 255 213 188 
-51 -76 407 255 214 185 
-51 -76 407 255 215 186 
-50 -76 407 255 214 191 
-49 -76 407 255 214 191 
-49 -76 407 255 214 195 
-48 -76 407 255 213 194 
-47 -76 407 250 215 193 
-47 -77 408 245 210 188 
-46 -77 408 252 212 186 
-46 -77 408 248 208 182 
-45 -77 408 253 203 178 
-44 -77 408 249 199 174 
-44 -77 409 223 182 164 
-43 -77 410 198 157 139 
-43 -77 410 168 146 135 
-59 -77 414 185 147 134 
-58 -77 412 196 158 145 
-57 -76 410 226 165 136 
-56 -76 410 232 171 142 
-56 -76 409 235 184 155 
-55 -76 408 244 193 164 
-54 -76 407 253 200 166 
-53 -76 407 255 206 172 
-53 -76 407 255 210 182 
-52 -76 407 255 211 183 
-51 -76 407 250 214 182 
-51 -76 407 252 216 184 
-50 -76 407 255 213 190 
-49 -76 407 255 213 190 
-49 -76 407 255 211 196 
-48 -76 407 255 211 196 
-47 -76 407 252 215 196 
-47 -76 408 248 211 192 
-46 -76 408 252 208 183 
-46 -76 408 253 209 184 
-45 -76 408 255 202 177 
-44 -76 408 254 198 173 
-44 -76 409 232 186 170 
-43 -76 409 215 169 153 
-59 -76 414 196 152 125 
-58 -76 412 207 163 136 
-57 -76 410 218 169 139 
-56 -75 409 225 176 146 
-56 -75 409 243 180 147 
-55 -75 408 252 189 156 
-54 -75 407 253 199 165 
-53 -75 406 255 205 171 
-53 -75 406 255 209 189 
-52 -75 406 253 206 186 
-51 -75 406 252 204 184 
-51 -75 406 253 205 185 
-50 -75 406 250 205 182 
-49 -75 406 253 208 185 
-49 -75 406 255 209 192 
-48 -75 406 255 206 189 
-47 -75 407 253 205 183 
-47 -75 407 255 207 185 
-46 -75 407 255 210 187 
-46 -75 407 252 207 184 
-45 -75 408 248 208 182 
-44 -75 408 247 207 181 
-44 -76 409 241 191 168 
-43 -76 409 227 177 154 
-59 -75 412 196 152 125 
-58 -75 409 207 163 136 
-57 -75 409 219 170 138 
-56 -75 409 225 176 144 
-56 -75 408 240 179 148 
-55 -74 407 247 186 155 
-54 -74 407 248 195 163 
-53 -74 406 254 201 169 
-53 -74 406 252 204 182 
-52 -74 406 249 201 179 
-51 -74 406 242 195 175 
-51 -74 406 237 190 170 
-50 -74 406 241 197 172 
-49 -74 406 252 208 183 
-49 -74 406 255 207 190 
-48 -74 406 255 205 188 
-47 -74 407 255 207 184 
-47 -74 407 255 208 185 
-46 -74 407 255 212 187 
-46 -74 407 253 209 184 
-45 -74 407 248 209 180 
-44 -74 407 246 207 178 
-44 -75 408 244 194 171 
-43 -75 408 232 182 159 
-59 -75 412 193 151 126 
-58 -74 409 205 163 138 
-57 -74 408 220 169 138 
-56 -74 408 225 174 143 
-56 -74 408 236 179 150 
-55 -74 407 243 186 157 
-54 -74 406 245 194 163 
-53 -74 406 248 197 166 
-53 -74 406 250 198 174 
-52 -74 406 248 196 172 
-51 -74 406 235 189 166 
-51 -74 406 224 178 155 
-50 -74 406 236 192 165 
-49 -74 406 253 209 182 
-49 -74 406 255 205 187 
-48 -74 406 255 202 184 
-47 -74 406 255 205 182 
-47 -74 407 255 205 182 
-46 -74 406 253 207 183 
-46 -74 407 252 206 182 
-45 -74 407 249 208 180 
-44 -74 407 246 205 177 
-44 -74 407 246 196 173 
-43 -74 408 237 187 164 
-59 -74 412 188 150 127 
-58 -73 408 199 161 138 
-57 -73 408 218 165 131 
-56 -73 408 224 171 137 
-56 -73 408 231 177 149 
-55 -73 407 239 185 157 
-54 -73 406 242 191 160 
-53 -73 406 246 195 164 
-53 -73 406 251 197 169 
-52 -73 406 250 196 168 
-51 -73 406 237 191 167 
-51 -73 406 226 180 156 
-50 -73 406 240 195 166 
-49 -73 406 254 209 180 
-49 -73 406 255 202 181 
-48 -73 406 255 200 179 
-47 -73 406 251 201 176 
-47 -73 406 250 200 175 
-46 -73 406 249 201 178 
-46 -73 407 248 200 177 
-45 -73 407 247 203 174 
-44 -73 407 244 200 171 
-44 -73 407 243 193 168 
-43 -73 407 238 188 163 
-59 -73 412 181 148 129 
-58 -73 408 189 156 137 
-57 -73 408 213 160 126 
-56 -73 408 220 167 133 
-56 -73 408 227 173 147 
-55 -72 407 233 179 153 
-54 -72 407 237 186 155 
-53 -72 406 243 192 161 
-53 -72 406 251 195 168 
-52 -72 406 252 196 169 
-51 -72 406 246 196 169 
-51 -72 406 240 190 163 
-50 -72 406 245 199 166 
-49 -72 406 251 205 172 
-49 -72 406 255 199 176 
-48 -72 406 254 198 175 
-47 -72 406 248 196 172 
-47 -72 406 248 196 172 
-46 -72 406 249 197 173 
-46 -72 407 247 195 171 
-45 -72 407 245 198 170 
-44 -73 407 240 193 165 
-44 -73 407 238 188 163 
-43 -73 407 235 185 160 
-58 -72 410 171 147 135 
-58 -72 408 174 150 138 
-57 -72 408 209 156 124 
-56 -72 407 217 164 132 
-55 -72 407 224 170 144 
-55 -72 407 230 176 150 
-54 -72 407 236 183 151 
-53 -72 406 242 189 157 
-53 -72 406 248 194 168 
-52 -72 406 250 196 170 
-51 -72 406 247 196 169 
-51 -72 406 245 194 167 
-50 -72 406 247 197 164 
-49 -72 406 247 197 164 
-49 -72 406 253 195 171 
-48 -72 406 253 195 171 
-47 -72 406 248 194 170 
-47 -72 406 247 193 169 
-46 -72 406 249 194 173 
-46 -72 407 246 191 170 
-45 -72 407 243 192 165 
-44 -72 407 239 188 161 
-44 -72 407 233 183 160 
-43 -72 408 230 180 157 
-58 -72 410 164 149 144 
-58 -71 408 161 146 141 
-57 -71 408 199 150 120 
-56 -71 407 209 160 130 
-55 -71 407 219 165 137 
-55 -71 407 224 170 142 
-54 -71 407 231 176 145 
-53 -71 406 237 182 151 
-53 -71 406 240 188 164 
-52 -71 406 242 190 166 
-51 -71 406 242 188 162 
-51 -71 406 243 189 163 
-50 -71 406 240 190 155 
-49 -71 406 240 190 155 
-49 -71 406 247 191 166 
-48 -71 406 247 191 166 
-47 -71 406 243 188 167 
-47 -71 406 242 187 166 
-46 -71 407 245 188 169 
-46 -71 407 244 187 168 
-45 -71 407 240 186 162 
-44 -71 407 237 183 159 
-44 -71 407 226 178 156 
-43 -71 408 220 172 150 
-58 -71 410 162 152 151 
-58 -71 408 156 146 145 
-57 -71 408 191 144 116 
-56 -70 407 201 154 126 
-55 -70 407 212 158 130 
-55 -70 407 217 163 135 
-54 -70 407 223 168 137 
-53 -70 406 230 175 144 
-53 -70 406 230 182 160 
-52 -70 406 232 184 162 
-51 -70 406 238 182 157 
-51 -70 406 239 183 158 
-50 -70 406 236 183 151 
-49 -70 406 238 185 153 
-49 -70 406 241 185 160 
-48 -70 406 240 184 159 
-47 -70 406 237 185 163 
-47 -70 406 237 185 163 
-46 -71 407 241 184 167 
-46 -71 407 241 184 167 
-45 -71 407 235 180 159 
-44 -71 407 232 177 156 
-44 -71 407 221 173 153 
-43 -71 408 214 166 146 
-58 -70 408 153 153 145 
-57 -70 408 194 135 121 
-56 -70 407 203 144 130 
-55 -70 407 206 156 129 
-55 -70 407 212 162 135 
-54 -70 407 219 169 142 
-53 -70 406 224 174 147 
-53 -70 406 228 177 146 
-52 -70 406 230 179 148 
-51 -70 406 237 181 156 
-51 -70 406 237 181 156 
-50 -70 406 241 179 154 
-49 -70 406 240 178 153 
-49 -70 406 239 178 157 
-48 -70 406 241 180 159 
-47 -70 406 237 181 164 
-47 -70 406 235 179 162 
-46 -70 407 236 180 157 
-46 -70 407 233 177 154 
-45 -70 407 233 176 147 
-44 -70 407 228 171 142 
-44 -70 408 205 170 151 
-43 -70 408 193 158 139 
-58 -69 409 164 165 160 
-57 -69 408 187 131 118 
-56 -69 407 197 141 128 
-55 -69 407 206 155 126 
-55 -69 406 213 162 133 
-54 -69 406 219 165 137 
-53 -69 406 223 169 141 
-53 -69 406 228 173 142 
-52 -69 406 231 176 145 
-51 -69 406 231 180 153 
-51 -69 406 232 181 154 
-50 -69 406 239 179 153 
-49 -69 406 237 177 151 
-49 -69 406 235 174 153 
-48 -69 406 235 174 153 
-47 -69 406 231 175 158 
-47 -69 407 228 172 155 
-46 -69 407 230 173 153 
-46 -69 407 230 173 153 
-45 -69 407 231 175 150 
-44 -69 407 224 168 143 
-44 -69 408 198 165 146 
-43 -70 409 186 153 134 
-58 -69 409 168 168 166 
-57 -69 408 188 139 125 
-56 -69 407 196 147 133 
-55 -69 407 212 161 134 
-49 -69 407 249 191 169 
-47 -69 407 244 188 173 
-46 -69 407 239 183 166 
-46 -69 407 237 181 164 
-45 -69 407 227 176 155 
-44 -69 407 216 165 144 
-44 -69 408 189 160 144 
-43 -69 408 179 150 134 
-58 -68 409 177 169 166 
-58 -68 408 193 185 182 
