ply
format ascii 1.0
comment Created by CloudCompare v2.10.1 (Zephyrus)
comment Created 2020-05-06 8:39 PM
obj_info Generated by CloudCompare!
element vertex 627
property float x
property float y
property float z
property uchar red
property uchar green
property uchar blue
end_header
-155 29 409 156 127 121 
-155 29 409 185 156 150 
-155 29 408 202 164 145 
-157 30 409 205 171 170 
-156 30 408 239 190 173 
-156 30 408 245 196 179 
-155 30 408 241 197 170 
-154 30 407 231 187 160 
-153 30 407 253 207 183 
-153 30 407 251 205 181 
-159 31 411 161 128 123 
-158 31 410 229 188 160 
-157 31 409 235 194 166 
-156 31 408 253 200 166 
-156 31 408 251 198 164 
-155 30 407 246 209 182 
-154 30 407 251 214 187 
-153 30 407 255 220 192 
-153 30 407 252 211 183 
-160 31 410 185 146 129 
-159 31 409 231 192 175 
-158 31 409 239 192 162 
-157 31 408 246 199 169 
-156 31 407 248 195 163 
-155 31 407 253 200 168 
-155 31 407 248 206 181 
-154 31 407 250 208 183 
-153 31 406 255 211 182 
-152 31 406 251 207 178 
-152 31 407 233 184 154 
-151 31 407 207 158 128 
-151 31 407 195 140 109 
-159 32 409 224 179 148 
-158 32 408 233 188 157 
-157 32 408 249 196 162 
-156 32 407 247 194 160 
-156 32 407 251 198 166 
-155 32 406 255 205 173 
-155 32 407 252 206 180 
-154 32 407 253 207 181 
-153 32 406 253 206 176 
-153 32 407 254 207 177 
-152 32 407 250 204 171 
-151 32 407 230 184 151 
-151 32 407 212 162 125 
-150 32 407 193 143 106 
-150 32 408 178 125 93 
-161 33 411 207 166 146 
-160 33 410 224 183 163 
-159 33 409 233 181 144 
-158 32 408 243 191 154 
-157 32 407 252 198 162 
-156 32 407 254 200 164 
-156 32 407 254 201 167 
-155 32 406 255 206 172 
-154 32 406 253 203 176 
-154 32 407 254 204 177 
-153 32 406 255 208 176 
-152 32 406 255 210 178 
-152 32 407 255 211 178 
-151 32 407 243 198 165 
-151 32 407 233 183 148 
-150 32 407 210 160 125 
-150 33 408 193 140 108 
-149 33 408 177 124 92 
-149 33 409 160 107 76 
-149 33 410 156 103 72 
-161 33 410 196 167 153 
-160 33 409 227 176 145 
-160 33 409 228 177 146 
-159 33 408 240 184 149 
-158 33 408 243 187 152 
-157 33 407 254 202 163 
-156 33 407 255 206 167 
-156 33 407 253 203 166 
-155 33 406 254 204 167 
-154 33 406 253 202 171 
-154 33 406 252 201 170 
-153 33 406 255 204 172 
-152 33 406 255 205 173 
-152 33 407 249 203 170 
-151 33 407 245 199 166 
-151 33 407 246 196 163 
-150 33 408 241 191 158 
-150 33 408 228 173 142 
-149 33 409 196 141 110 
-149 33 410 165 112 80 
-149 33 410 147 94 62 
-163 34 410 144 124 126 
-162 34 410 210 170 144 
-161 34 409 212 172 146 
-160 34 408 233 180 138 
-159 34 407 233 180 138 
-158 34 407 241 185 148 
-158 34 407 250 194 157 
-157 34 406 249 200 160 
-156 34 406 255 207 167 
-155 34 406 250 200 163 
-155 34 406 251 201 164 
-154 34 406 255 205 172 
-153 34 406 253 203 170 
-153 34 406 255 201 168 
-152 34 406 254 198 165 
-152 34 407 243 192 161 
-151 34 407 246 195 164 
-151 34 407 248 194 160 
-150 34 408 255 207 173 
-150 34 409 246 192 158 
-149 34 409 200 146 112 
-149 34 410 167 114 80 
-149 34 410 147 94 60 
-162 35 409 192 160 149 
-162 35 409 219 169 136 
-161 34 408 225 175 142 
-160 34 408 229 175 131 
-159 34 407 234 180 136 
-158 34 407 244 191 149 
-158 34 407 253 200 158 
-157 34 406 254 202 163 
-156 34 406 255 203 164 
-155 34 406 246 196 161 
-155 34 406 249 199 164 
-154 34 406 253 203 168 
-153 34 406 252 202 167 
-153 34 406 255 200 161 
-153 34 407 253 198 159 
-152 34 407 249 195 159 
-151 34 407 250 196 160 
-151 34 408 253 197 160 
-150 34 408 251 195 158 
-150 35 409 240 184 147 
-149 35 409 208 152 115 
-149 35 410 175 122 88 
-149 35 411 146 93 59 
-163 35 409 193 152 132 
-162 35 408 209 168 148 
-161 35 408 222 165 135 
-160 35 407 225 168 138 
-160 35 407 234 179 138 
-159 35 406 241 186 145 
-158 35 406 248 195 151 
-157 35 406 255 205 161 
-157 35 406 254 198 163 
-156 35 406 255 199 164 
-155 35 406 249 198 167 
-155 35 406 251 200 169 
-154 35 406 249 199 164 
-153 35 406 247 197 162 
-153 35 406 252 194 154 
-153 35 407 253 195 155 
-152 35 407 255 197 159 
-151 35 407 252 194 156 
-151 35 408 249 190 150 
-151 35 409 238 179 139 
-150 35 409 233 178 139 
-150 35 410 219 164 125 
-150 35 411 190 136 100 
-149 35 411 147 93 57 
-149 36 412 112 101 105 
-163 36 408 209 156 122 
-162 36 407 223 170 136 
-161 36 407 233 171 132 
-160 36 407 234 172 133 
-160 36 407 239 179 143 
-159 36 406 248 188 152 
-158 36 406 253 191 152 
-157 36 406 252 190 151 
-157 36 406 250 192 152 
-156 36 406 254 196 156 
-155 36 406 254 198 161 
-155 36 406 255 199 162 
-154 36 406 254 194 160 
-154 36 407 251 191 157 
-153 36 407 246 192 158 
-153 36 407 251 197 163 
-152 36 408 255 196 166 
-152 36 408 246 187 157 
-151 36 409 247 190 145 
-151 36 409 238 181 136 
-150 36 409 234 177 134 
-150 36 410 226 169 126 
-150 36 411 187 138 97 
-149 36 412 143 94 53 
-165 37 410 171 142 128 
-164 37 410 189 160 146 
-163 36 408 217 163 127 
-162 36 407 226 172 136 
-161 36 407 228 170 130 
-160 36 407 232 174 134 
-160 36 407 239 183 146 
-159 36 406 247 191 154 
-158 36 406 251 191 154 
-157 36 406 250 190 153 
-157 36 406 250 190 153 
-156 36 406 251 191 154 
-155 36 406 255 197 160 
-155 36 406 254 196 159 
-154 36 406 254 191 156 
-153 36 406 253 190 155 
-153 36 407 251 193 156 
-153 36 407 251 193 156 
-152 36 408 250 187 152 
-152 36 408 243 180 145 
-151 37 409 255 197 149 
-151 37 409 252 194 146 
-150 37 410 234 175 133 
-150 37 410 216 157 115 
-150 37 411 175 127 89 
-165 37 410 195 155 130 
-164 37 409 198 158 133 
-163 37 408 214 159 118 
-162 37 407 224 169 128 
-161 37 407 227 174 132 
-160 37 407 233 180 138 
-160 37 407 242 188 150 
-159 37 406 246 192 154 
-158 37 406 250 190 153 
-157 37 406 251 191 154 
-157 37 406 255 194 159 
-156 37 406 255 194 159 
-155 37 406 255 197 161 
-155 37 406 254 194 158 
-155 37 407 255 191 155 
-154 37 407 255 191 155 
-153 37 407 252 193 153 
-153 37 408 247 188 148 
-152 37 408 242 180 141 
-152 37 408 238 176 137 
-151 37 409 245 185 135 
-151 37 409 249 189 139 
-150 37 410 225 168 125 
-150 37 411 202 145 102 
-150 37 411 158 113 84 
-165 38 411 207 159 121 
-164 38 409 210 162 124 
-163 38 408 217 163 116 
-162 38 407 229 175 128 
-161 38 407 232 181 138 
-160 38 407 239 188 145 
-160 38 407 246 193 153 
-159 38 406 245 192 152 
-158 38 406 248 188 151 
-157 38 406 251 191 154 
-157 38 406 255 194 159 
-156 38 406 255 194 159 
-155 38 406 254 194 158 
-155 38 407 253 193 157 
-154 38 407 255 194 157 
-154 38 407 252 190 153 
-153 38 407 244 185 145 
-153 38 408 239 180 140 
-152 38 408 233 174 130 
-152 38 409 233 174 130 
-152 38 410 238 180 130 
-151 38 410 231 173 123 
-150 38 410 205 152 110 
-150 38 411 186 133 91 
-150 38 412 144 107 88 
-166 39 411 209 169 144 
-165 39 410 217 166 119 
-163 38 408 213 162 115 
-162 38 407 223 171 121 
-162 38 407 231 179 129 
-161 38 407 236 182 138 
-160 38 406 243 189 145 
-159 38 406 248 190 152 
-159 38 406 247 189 151 
-158 38 406 250 190 154 
-157 38 406 254 194 158 
-157 38 406 252 194 156 
-156 38 406 249 191 153 
-155 38 406 248 188 151 
-155 38 407 251 191 154 
-154 38 407 254 192 151 
-154 38 407 245 183 142 
-154 38 408 235 174 130 
-153 38 408 230 169 125 
-152 38 408 225 169 120 
-152 39 409 226 170 121 
-152 39 410 232 176 127 
-151 39 410 220 164 115 
-150 39 410 197 148 107 
-150 39 411 171 122 81 
-150 39 412 124 94 83 
-165 39 410 222 177 144 
-164 39 409 227 177 128 
-163 39 408 219 169 120 
-162 39 407 227 177 128 
-162 39 407 240 190 141 
-161 39 407 241 184 141 
-160 39 406 245 188 145 
-159 39 406 247 187 150 
-159 39 406 248 188 151 
-158 39 406 252 196 159 
-157 39 406 255 200 163 
-157 39 407 250 195 154 
-156 39 407 242 187 146 
-156 39 407 248 187 143 
-155 39 407 251 190 146 
-154 39 407 249 188 143 
-154 39 408 236 175 130 
-154 39 408 228 164 120 
-153 39 409 225 161 117 
-153 39 409 222 164 114 
-152 39 410 223 165 115 
-152 39 410 223 165 119 
-151 39 410 214 156 110 
-151 39 411 185 136 95 
-150 39 411 134 85 44 
-150 39 412 72 47 40 
-166 40 411 215 167 129 
-165 40 409 221 173 135 
-164 40 408 230 179 132 
-163 40 407 234 183 136 
-162 39 406 234 183 140 
-161 39 406 242 191 148 
-160 39 406 249 190 150 
-160 39 406 250 191 151 
-159 39 406 247 189 152 
-159 40 406 246 188 151 
-158 40 406 247 195 158 
-157 40 406 250 198 161 
-157 40 406 245 192 148 
-156 40 406 238 185 141 
-156 40 407 247 187 137 
-155 40 407 246 186 136 
-155 40 408 239 177 128 
-154 40 408 229 167 118 
-154 40 408 227 160 117 
-153 40 409 226 159 116 
-153 40 410 221 163 115 
-152 40 410 219 161 113 
-152 40 411 219 157 116 
-151 40 411 206 144 103 
-151 40 411 160 112 74 
-151 40 412 114 66 28 
-167 41 411 208 172 150 
-166 40 409 231 183 143 
-164 40 408 216 168 128 
-164 40 408 232 183 140 
-163 40 407 236 187 144 
-162 40 406 241 192 152 
-161 40 406 244 195 155 
-160 40 406 249 189 152 
-160 40 406 249 189 152 
-159 40 406 244 188 153 
-158 40 405 241 185 150 
-158 40 406 238 190 154 
-157 40 406 241 193 157 
-157 40 406 242 190 143 
-156 40 406 238 186 139 
-156 40 407 243 183 131 
-156 40 408 240 180 128 
-155 40 408 228 168 118 
-155 40 409 223 163 113 
-154 40 409 227 160 118 
-154 41 410 226 159 117 
-153 41 410 218 159 115 
-153 41 411 215 156 112 
-152 41 412 204 144 107 
-152 41 412 189 129 92 
-151 41 412 133 87 51 
-167 41 410 215 170 137 
-166 41 409 223 177 143 
-164 41 408 218 172 138 
-163 41 407 226 178 142 
-163 41 407 235 187 151 
-162 41 406 245 196 156 
-161 41 406 248 199 159 
-160 41 406 247 195 155 
-160 41 406 249 197 157 
-159 41 405 242 189 145 
-158 41 405 238 185 141 
-158 41 405 241 187 141 
-157 41 406 237 183 137 
-157 41 406 234 180 134 
-156 41 406 236 182 136 
-156 41 407 244 180 144 
-156 41 408 235 171 135 
-155 41 408 226 158 109 
-155 41 409 225 157 108 
-154 41 410 228 164 120 
-154 41 410 224 160 116 
-153 41 411 221 159 110 
-153 41 412 211 149 100 
-152 41 412 189 129 92 
-152 42 413 160 100 63 
-152 42 413 112 72 64 
-166 42 409 211 166 133 
-165 42 408 220 174 140 
-164 42 408 219 173 139 
-163 42 407 218 172 136 
-163 42 407 227 181 145 
-162 41 406 243 193 156 
-161 41 406 246 196 159 
-160 41 406 246 194 154 
-160 41 406 252 200 160 
-159 41 406 247 194 152 
-158 41 405 238 185 143 
-158 41 406 235 181 137 
-157 41 406 228 174 130 
-157 42 407 226 172 126 
-156 42 407 232 178 132 
-156 42 407 240 178 129 
-155 42 408 232 170 121 
-155 42 408 223 161 114 
-155 42 409 221 159 112 
-154 42 410 228 163 121 
-154 42 410 220 155 113 
-153 42 411 211 147 103 
-153 42 412 196 132 88 
-153 42 413 167 116 85 
-153 42 414 150 99 68 
-166 42 409 212 167 136 
-165 42 408 220 175 142 
-164 42 408 223 178 145 
-164 42 408 226 180 146 
-163 42 407 228 182 148 
-162 42 407 237 189 153 
-162 42 407 244 196 160 
-161 42 407 243 194 154 
-160 42 406 250 201 161 
-159 42 406 249 197 157 
-159 42 406 237 185 145 
-158 42 406 231 178 136 
-157 42 406 225 172 130 
-157 42 406 223 169 125 
-156 42 407 230 176 132 
-156 42 408 234 174 122 
-155 42 408 222 162 110 
-155 42 409 213 154 110 
-155 42 409 208 149 105 
-154 43 410 217 153 105 
-154 43 411 206 142 94 
-153 43 411 194 132 95 
-153 43 412 180 118 81 
-153 43 413 145 108 100 
-166 43 409 207 164 130 
-165 43 408 222 177 144 
-164 43 408 231 186 153 
-164 43 408 236 192 157 
-163 43 407 234 190 155 
-162 43 407 235 189 153 
-162 43 407 240 194 158 
-161 43 407 241 193 155 
-160 43 407 246 198 160 
-159 43 406 246 197 157 
-159 43 406 237 188 148 
-158 43 406 234 182 142 
-157 43 406 229 177 137 
-157 43 407 222 169 127 
-156 43 407 224 171 129 
-156 43 408 225 168 123 
-156 43 409 212 155 110 
-155 43 409 209 150 108 
-155 43 410 203 144 102 
-155 43 411 208 147 92 
-154 43 411 192 131 76 
-154 43 412 174 124 101 
-153 44 413 166 116 93 
-153 44 413 133 118 141 
-167 44 410 198 153 120 
-166 44 409 217 173 138 
-164 44 408 230 186 151 
-164 44 408 232 188 153 
-163 43 407 238 194 159 
-162 44 407 244 198 162 
-162 44 407 239 193 157 
-161 44 407 236 188 150 
-160 44 407 237 189 151 
-160 44 407 239 191 153 
-159 43 406 237 189 151 
-158 44 407 236 187 147 
-158 44 407 233 184 144 
-157 44 407 223 174 134 
-157 44 408 218 169 129 
-156 44 408 213 155 115 
-156 44 409 207 149 109 
-156 44 410 212 150 111 
-155 44 411 210 148 109 
-155 44 411 203 146 101 
-154 44 412 182 125 80 
-154 44 412 152 121 118 
-153 44 413 150 119 116 
-167 44 410 198 152 116 
-165 44 408 207 161 125 
-164 44 408 215 169 133 
-163 44 407 225 179 143 
-163 44 407 237 191 155 
-162 44 407 247 199 161 
-162 44 407 243 195 157 
-161 44 407 250 202 164 
-160 44 407 247 199 161 
-160 44 407 245 197 159 
-159 44 407 242 194 156 
-158 44 407 238 190 152 
-158 44 407 233 185 147 
-157 44 407 225 177 137 
-157 44 408 219 171 131 
-157 44 409 219 161 121 
-156 44 409 215 157 117 
-156 45 410 213 155 118 
-155 45 411 209 151 114 
-155 45 411 187 140 120 
-154 45 412 168 121 101 
-154 45 413 139 122 140 
-166 45 409 202 150 113 
-165 45 408 199 149 112 
-164 45 408 202 152 115 
-163 45 407 219 169 132 
-163 45 407 231 181 144 
-162 45 407 238 188 151 
-161 45 407 240 190 153 
-161 45 407 238 190 152 
-161 45 408 235 187 149 
-160 45 408 234 186 148 
-159 45 408 234 186 148 
-159 45 408 231 183 145 
-158 45 408 226 178 140 
-157 45 408 222 177 138 
-157 45 408 220 175 136 
-157 45 409 230 177 137 
-156 45 410 226 173 133 
-156 45 411 204 157 127 
-155 45 411 192 145 115 
-155 45 411 158 132 135 
-154 45 412 149 123 126 
-167 46 410 181 127 89 
-166 46 409 195 141 103 
-165 46 408 195 141 103 
-164 46 408 199 145 107 
-164 46 408 209 157 118 
-163 45 407 221 169 130 
-162 45 407 231 179 140 
-161 45 407 231 179 140 
-161 45 407 228 179 139 
-161 46 408 228 179 139 
-160 46 408 228 180 142 
-159 46 408 232 184 146 
-159 46 408 229 181 143 
-158 46 408 221 173 135 
-158 46 409 217 172 133 
-157 46 409 215 170 131 
-156 46 409 219 168 137 
-156 46 410 217 166 135 
-156 46 411 182 148 121 
-155 46 411 168 134 107 
-155 46 412 132 122 133 
-154 46 412 135 125 136 
-167 46 409 186 122 97 
-166 46 409 199 135 110 
-165 46 408 208 148 112 
-164 46 408 200 140 104 
-164 46 408 202 146 99 
-163 46 407 205 149 102 
-162 46 407 218 166 118 
-161 46 407 225 173 125 
-161 46 407 220 173 131 
-161 46 408 219 172 130 
-160 46 408 219 175 140 
-159 46 408 218 174 139 
-159 46 409 219 173 139 
-158 46 409 213 167 133 
-158 46 409 213 165 129 
-158 46 410 206 158 122 
-157 46 410 196 145 114 
-156 47 410 189 138 107 
-156 47 411 154 122 109 
-167 47 410 184 118 94 
-167 47 410 194 128 104 
-165 47 409 204 141 106 
-164 47 408 201 138 103 
-164 47 408 201 147 103 
-163 47 408 200 146 102 
-163 47 408 203 155 109 
-162 47 408 207 159 113 
-161 47 408 210 161 118 
-161 47 408 213 164 121 
-160 47 408 215 163 123 
-160 47 409 213 161 121 
-159 47 409 214 164 127 
-158 47 409 207 157 120 
-158 47 410 198 153 120 
-158 47 410 195 150 117 
-157 47 410 167 128 111 
-157 47 411 150 111 94 
-167 48 410 182 121 92 
-165 48 408 196 134 97 
-164 48 408 196 134 97 
-164 48 408 196 137 97 
-163 48 408 195 136 96 
-163 48 408 197 145 108 
-162 48 408 202 150 113 
-161 48 408 209 155 117 
-161 48 408 208 154 116 
-160 48 408 215 160 119 
-160 48 409 218 163 122 
-159 48 409 210 161 121 
-159 48 410 199 150 110 
-158 48 410 177 138 105 
-158 48 410 157 118 85 
-165 48 409 193 131 94 
-164 48 408 199 137 100 
-164 48 409 201 134 89 
-164 48 409 198 131 86 
-163 48 408 197 138 96 
-162 48 408 202 143 101 
-161 48 408 201 148 108 
-161 48 409 205 152 112 
-160 48 409 205 153 116 
-160 48 409 197 145 108 
-159 48 410 176 135 107 
-165 49 410 180 127 96 
-165 49 410 195 127 78 
-164 49 410 201 133 84 
-163 49 409 200 140 90 
-162 49 409 198 138 88 
-162 49 409 194 146 108 
-161 49 409 187 139 101 
-161 49 410 170 130 105 
-160 49 410 156 116 91 
-165 50 409 154 119 100 
-164 50 409 168 112 85 
-164 50 409 171 115 88 
-163 50 410 171 121 98 
-163 50 410 171 121 98 
-162 50 410 143 109 97 
