ply
format ascii 1.0
comment Created by CloudCompare v2.10.1 (Zephyrus)
comment Created 2020-05-06 8:41 PM
obj_info Generated by CloudCompare!
element vertex 675
property float x
property float y
property float z
property uchar red
property uchar green
property uchar blue
property float scalar_Original_cloud_index
end_header
-71 188 408 187 152 130 0 
-70 187 406 188 151 125 0 
-71 187 406 201 166 144 0 
-70 186 404 208 172 146 0 
-69 186 404 206 170 144 0 
-68 186 404 211 170 140 0 
-68 186 404 215 174 144 0 
-67 187 405 207 163 128 0 
-72 188 407 192 166 151 0 
-71 187 404 203 169 142 0 
-70 187 403 205 171 144 0 
-69 187 403 212 177 149 0 
-69 187 403 211 176 148 0 
-68 187 403 215 176 145 0 
-68 187 403 220 181 150 0 
-67 187 404 222 179 145 0 
-66 187 404 221 178 144 0 
-66 187 404 221 177 142 0 
-65 187 404 218 174 139 0 
-65 188 405 224 184 149 0 
-71 187 403 192 165 144 0 
-71 187 402 202 167 139 0 
-70 187 402 206 171 143 0 
-69 187 402 209 172 143 0 
-69 187 402 211 174 145 0 
-68 187 402 214 175 144 0 
-67 187 402 214 175 144 0 
-67 187 403 218 177 145 0 
-66 187 403 221 180 148 0 
-66 187 403 220 179 147 0 
-65 187 403 217 176 144 0 
-64 188 404 219 178 146 0 
-64 189 406 215 174 142 0 
-63 189 406 213 174 143 0 
-72 188 403 197 165 142 0 
-71 187 401 194 162 139 0 
-70 186 400 204 168 136 0 
-70 186 400 208 172 140 0 
-69 187 401 205 169 135 0 
-68 187 401 211 175 141 0 
-68 187 401 215 176 143 0 
-67 187 402 212 173 140 0 
-67 187 402 217 178 145 0 
-66 187 402 218 179 146 0 
-66 188 403 216 177 144 0 
-65 188 403 215 176 143 0 
-64 188 403 214 175 142 0 
-64 188 404 211 172 139 0 
-63 189 406 213 174 143 0 
-63 190 407 212 173 142 0 
-63 191 409 201 164 135 0 
-72 188 402 198 162 140 0 
-71 187 400 198 161 132 0 
-71 187 399 200 163 134 0 
-70 187 399 206 167 128 0 
-69 187 399 208 169 130 0 
-69 187 400 206 167 126 0 
-68 187 400 210 171 130 0 
-68 187 400 213 174 135 0 
-67 188 401 212 173 134 0 
-67 188 401 213 175 138 0 
-66 188 401 213 175 138 0 
-65 188 402 212 174 138 0 
-65 188 402 211 173 137 0 
-64 189 403 208 168 133 0 
-64 189 404 204 164 129 0 
-63 189 405 205 165 130 0 
-63 190 407 204 164 129 0 
-63 191 409 195 156 123 0 
-73 188 401 202 162 136 0 
-72 187 399 199 159 133 0 
-71 187 398 202 162 127 0 
-70 187 398 206 166 131 0 
-70 187 398 208 165 120 0 
-69 187 398 209 166 121 0 
-69 187 399 212 168 123 0 
-68 187 399 213 169 124 0 
-67 187 399 215 172 129 0 
-67 188 400 218 175 132 0 
-66 188 400 217 175 135 0 
-66 188 400 216 174 134 0 
-65 188 401 212 173 134 0 
-65 189 402 208 169 130 0 
-64 189 402 205 163 125 0 
-64 189 403 199 157 119 0 
-63 190 405 199 157 119 0 
-63 191 406 202 160 122 0 
-62 192 408 197 155 117 0 
-62 193 411 185 143 105 0 
-73 188 400 195 159 133 0 
-72 187 398 199 154 121 0 
-72 187 398 197 152 119 0 
-71 187 397 202 153 113 0 
-70 187 397 208 159 119 0 
-70 187 397 210 159 116 0 
-69 187 397 211 160 117 0 
-69 187 398 214 163 118 0 
-68 187 398 218 167 122 0 
-67 188 399 215 167 121 0 
-67 188 399 217 169 123 0 
-66 188 399 217 174 129 0 
-66 188 400 214 171 126 0 
-65 188 400 214 173 129 0 
-64 188 400 210 169 125 0 
-64 189 402 202 163 122 0 
-63 189 402 196 157 116 0 
-63 190 404 191 153 116 0 
-63 191 405 193 155 118 0 
-62 192 408 189 154 122 0 
-62 193 410 184 149 117 0 
-74 189 401 192 151 121 0 
-73 188 398 191 150 120 0 
-72 187 396 197 149 111 0 
-71 187 396 199 151 113 0 
-71 187 396 203 150 108 0 
-70 187 395 206 153 111 0 
-69 187 396 211 159 112 0 
-69 187 396 210 158 111 0 
-68 188 397 214 162 114 0 
-68 188 397 220 168 120 0 
-67 188 398 218 168 119 0 
-67 188 398 219 169 120 0 
-66 188 398 216 172 125 0 
-66 189 399 213 169 122 0 
-65 189 399 214 171 128 0 
-64 189 400 211 168 125 0 
-64 189 401 203 164 123 0 
-63 190 402 195 156 115 0 
-63 190 403 189 151 114 0 
-63 191 405 189 151 114 0 
-62 192 407 188 152 120 0 
-62 193 409 185 149 117 0 
-75 190 401 194 155 126 0 
-74 189 398 195 149 113 0 
-73 188 396 196 150 114 0 
-72 187 395 202 151 108 0 
-71 187 395 206 155 112 0 
-71 187 395 209 153 106 0 
-70 187 395 213 157 110 0 
-69 187 395 218 162 113 0 
-69 187 395 212 156 107 0 
-68 188 396 214 158 109 0 
-68 188 397 219 163 114 0 
-67 188 397 217 165 115 0 
-66 188 397 219 167 117 0 
-66 189 398 217 169 120 0 
-65 189 398 217 169 120 0 
-65 189 398 214 170 125 0 
-64 189 399 212 168 123 0 
-64 190 400 207 165 123 0 
-63 190 401 198 156 114 0 
-63 191 402 188 148 112 0 
-63 192 404 186 146 110 0 
-62 193 406 186 150 116 0 
-74 189 397 194 151 117 0 
-73 188 396 199 150 109 0 
-72 188 395 200 151 110 0 
-72 187 394 203 149 102 0 
-71 187 394 205 151 104 0 
-70 187 394 210 152 102 0 
-70 187 394 220 162 112 0 
-69 187 394 221 161 109 0 
-69 188 395 212 152 100 0 
-68 188 395 210 153 100 0 
-68 188 396 216 159 106 0 
-67 188 396 216 163 111 0 
-66 189 397 219 166 114 0 
-66 189 397 218 168 117 0 
-65 189 398 220 170 119 0 
-65 189 398 214 170 123 0 
-64 190 399 214 170 123 0 
-64 190 400 209 167 125 0 
-63 191 401 200 158 116 0 
-63 191 402 187 147 111 0 
-63 192 404 184 144 108 0 
-62 193 406 187 148 115 0 
-62 194 408 189 150 117 0 
-75 190 398 197 151 115 0 
-74 188 395 197 151 115 0 
-73 188 394 202 151 106 0 
-72 187 393 202 151 106 0 
-71 187 393 204 148 99 0 
-71 187 393 206 150 101 0 
-70 187 393 210 152 102 0 
-70 187 393 224 166 116 0 
-69 188 394 219 159 105 0 
-68 188 394 211 151 97 0 
-68 188 394 210 153 100 0 
-67 188 395 215 158 105 0 
-67 188 395 215 162 108 0 
-66 189 396 217 164 110 0 
-66 189 397 216 166 113 0 
-65 189 397 219 169 116 0 
-65 189 397 218 172 123 0 
-64 190 398 216 170 121 0 
-64 190 399 210 168 126 0 
-63 191 400 201 159 117 0 
-63 192 402 187 147 111 0 
-62 192 403 185 145 109 0 
-62 193 405 188 150 114 0 
-76 190 398 189 148 116 0 
-74 189 395 202 154 114 0 
-73 188 393 203 155 115 0 
-73 188 393 204 152 105 0 
-72 188 393 207 155 108 0 
-71 188 392 211 155 106 0 
-71 188 392 211 155 106 0 
-70 188 393 210 154 103 0 
-70 188 393 220 164 113 0 
-69 188 393 217 160 107 0 
-68 188 393 211 154 101 0 
-68 188 393 211 156 102 0 
-67 189 394 214 159 105 0 
-67 189 395 213 160 108 0 
-66 189 395 214 161 109 0 
-66 190 396 215 165 112 0 
-65 190 396 218 168 115 0 
-64 190 396 218 172 123 0 
-64 191 398 215 169 120 0 
-64 191 399 209 168 124 0 
-63 191 399 201 160 116 0 
-63 192 401 189 150 111 0 
-62 193 403 187 148 109 0 
-62 194 405 188 150 114 0 
-75 190 395 194 150 115 0 
-74 189 393 201 152 111 0 
-73 188 392 201 152 111 0 
-72 188 392 203 149 102 0 
-72 188 392 210 156 109 0 
-71 188 391 215 159 108 0 
-70 188 391 214 158 107 0 
-70 188 392 209 156 104 0 
-69 188 392 210 157 105 0 
-69 188 392 218 160 110 0 
-68 189 393 216 158 108 0 
-68 189 393 212 159 109 0 
-67 189 393 213 160 110 0 
-67 189 394 212 160 110 0 
-66 189 394 213 161 111 0 
-65 190 395 217 167 116 0 
-65 190 395 218 168 117 0 
-64 190 396 215 169 120 0 
-64 191 397 214 168 119 0 
-63 191 398 209 168 124 0 
-63 192 399 203 162 118 0 
-63 193 401 191 152 113 0 
-62 194 403 189 150 111 0 
-62 195 405 189 149 113 0 
-76 191 397 198 153 114 0 
-75 189 393 194 149 110 0 
-74 189 392 202 151 108 0 
-73 189 392 202 151 108 0 
-72 188 391 205 149 102 0 
-72 188 391 214 158 111 0 
-71 188 391 215 159 108 0 
-70 188 391 215 159 108 0 
-70 188 391 212 159 107 0 
-69 188 391 211 158 106 0 
-69 189 392 216 160 111 0 
-68 189 392 217 161 112 0 
-67 189 392 214 160 113 0 
-67 189 393 217 163 116 0 
-66 189 393 216 164 114 0 
-66 189 393 216 164 114 0 
-65 190 394 218 168 117 0 
-65 190 395 215 165 114 0 
-64 190 395 214 168 119 0 
-64 191 397 214 168 119 0 
-63 192 398 211 168 125 0 
-63 192 399 205 162 119 0 
-63 193 401 194 152 112 0 
-62 194 403 191 149 109 0 
-62 195 404 191 149 111 0 
-75 190 394 197 152 110 0 
-74 189 392 197 152 110 0 
-74 189 391 201 151 102 0 
-73 189 391 200 150 101 0 
-72 189 391 204 151 97 0 
-72 189 391 208 155 101 0 
-71 188 390 212 157 101 0 
-70 188 390 212 157 101 0 
-70 189 391 212 157 101 0 
-69 189 391 213 158 102 0 
-69 189 391 218 166 118 0 
-68 189 391 218 166 118 0 
-67 189 392 218 166 118 0 
-67 189 392 221 169 121 0 
-66 189 392 222 168 121 0 
-66 190 393 220 166 119 0 
-65 190 394 219 167 117 0 
-65 191 395 217 165 115 0 
-64 191 395 215 165 112 0 
-64 191 396 218 168 115 0 
-63 192 397 213 169 120 0 
-63 193 399 207 163 114 0 
-62 193 400 198 156 116 0 
-62 194 402 189 147 107 0 
-62 195 404 180 141 108 0 
-75 190 392 199 154 112 0 
-74 190 391 198 153 111 0 
-73 189 390 206 156 105 0 
-73 189 390 208 158 107 0 
-72 189 390 211 158 104 0 
-71 189 390 212 159 105 0 
-71 189 390 213 158 104 0 
-70 189 390 210 155 101 0 
-70 189 390 208 155 101 0 
-69 189 390 210 157 103 0 
-69 190 391 218 168 119 0 
-68 190 391 220 170 121 0 
-67 190 391 220 168 121 0 
-67 190 391 221 169 122 0 
-66 190 392 223 171 123 0 
-66 190 392 223 171 123 0 
-65 191 393 222 170 120 0 
-65 191 394 219 167 117 0 
-64 192 395 217 170 118 0 
-64 192 396 219 172 120 0 
-63 193 397 214 170 121 0 
-63 193 398 208 164 115 0 
-62 194 400 196 157 118 0 
-62 195 402 186 147 108 0 
-76 192 394 200 156 121 0 
-75 190 391 205 158 114 0 
-74 190 390 204 157 113 0 
-73 189 389 210 158 108 0 
-73 189 389 213 161 111 0 
-72 189 389 216 163 111 0 
-71 189 389 217 164 112 0 
-71 189 389 216 163 111 0 
-70 189 389 213 160 108 0 
-69 189 389 212 159 107 0 
-69 189 389 215 162 110 0 
-68 190 390 221 171 122 0 
-68 190 390 224 174 125 0 
-67 190 390 223 172 125 0 
-67 190 390 223 172 125 0 
-66 190 391 224 173 126 0 
-65 190 391 225 174 127 0 
-65 191 392 224 174 125 0 
-65 191 393 222 172 123 0 
-64 192 394 221 175 125 0 
-64 192 395 218 172 122 0 
-63 193 396 213 171 123 0 
-63 194 398 208 166 118 0 
-62 195 400 197 159 122 0 
-76 191 392 204 160 123 0 
-75 190 390 210 162 116 0 
-74 190 389 210 162 116 0 
-73 190 389 212 162 111 0 
-73 190 389 215 165 114 0 
-72 190 389 217 166 113 0 
-71 189 388 219 168 115 0 
-70 189 388 219 167 117 0 
-70 190 389 218 166 116 0 
-69 189 388 219 167 119 0 
-69 190 389 221 169 121 0 
-68 190 389 221 173 125 0 
-68 190 389 225 177 129 0 
-67 190 389 226 178 132 0 
-67 190 390 226 178 132 0 
-66 190 390 227 176 131 0 
-65 191 391 225 174 129 0 
-65 191 392 224 176 128 0 
-64 191 392 225 177 129 0 
-64 192 393 224 178 128 0 
-64 193 395 215 169 119 0 
-63 193 396 208 167 121 0 
-63 194 398 206 165 119 0 
-62 195 400 196 158 122 0 
-75 191 390 206 162 123 0 
-74 190 389 210 162 116 0 
-74 190 388 213 165 119 0 
-73 190 388 218 168 119 0 
-72 190 388 218 168 119 0 
-72 190 388 219 169 120 0 
-71 190 388 218 168 119 0 
-70 189 387 217 166 119 0 
-70 190 388 220 169 122 0 
-69 190 388 223 172 127 0 
-69 190 388 225 174 129 0 
-68 190 389 224 177 131 0 
-68 190 389 224 177 131 0 
-67 190 389 227 178 135 0 
-66 190 389 231 182 139 0 
-66 191 390 229 180 137 0 
-65 191 391 224 175 132 0 
-65 191 391 225 177 131 0 
-64 192 392 227 179 133 0 
-64 192 393 224 180 131 0 
-64 193 395 210 166 117 0 
-63 194 396 204 163 119 0 
-63 195 398 202 161 117 0 
-62 196 400 190 154 120 0 
-75 191 389 207 163 124 0 
-74 190 388 208 161 115 0 
-74 190 388 211 164 118 0 
-73 190 387 216 168 120 0 
-72 190 387 217 169 121 0 
-72 190 387 219 171 123 0 
-71 190 387 218 170 122 0 
-70 190 387 216 169 125 0 
-70 190 387 220 173 129 0 
-69 190 387 226 179 137 0 
-69 191 388 229 182 140 0 
-68 191 388 229 182 138 0 
-67 191 388 227 180 136 0 
-67 191 389 228 181 139 0 
-66 191 389 232 185 143 0 
-66 191 389 233 184 143 0 
-65 192 390 228 179 138 0 
-65 192 391 226 179 133 0 
-64 193 392 225 178 132 0 
-64 193 393 221 177 130 0 
-63 194 394 210 166 119 0 
-63 195 396 202 163 120 0 
-63 195 398 198 159 116 0 
-62 196 400 188 152 118 0 
-76 193 392 206 164 124 0 
-75 191 388 207 165 125 0 
-74 191 388 209 165 120 0 
-73 191 387 212 168 123 0 
-73 191 387 216 169 123 0 
-72 191 387 218 171 125 0 
-72 191 387 221 174 128 0 
-71 191 387 222 175 129 0 
-70 191 387 220 175 133 0 
-70 191 387 224 179 137 0 
-69 190 386 228 183 144 0 
-68 191 387 229 184 145 0 
-68 191 387 229 184 142 0 
-67 191 387 230 185 143 0 
-67 191 388 230 185 144 0 
-66 192 389 232 187 146 0 
-66 192 389 234 187 145 0 
-65 192 390 231 184 142 0 
-65 193 391 225 181 136 0 
-64 193 391 221 177 132 0 
-64 194 393 215 172 127 0 
-63 194 394 211 168 123 0 
-63 195 396 202 165 123 0 
-63 196 398 195 158 116 0 
-76 193 391 204 165 124 0 
-75 192 388 206 167 126 0 
-74 191 387 214 170 125 0 
-73 191 386 218 174 129 0 
-73 191 386 223 176 130 0 
-72 191 386 224 177 131 0 
-71 191 386 223 179 134 0 
-71 191 386 223 179 134 0 
-70 191 386 223 180 138 0 
-69 191 386 226 183 141 0 
-69 191 386 227 183 146 0 
-68 191 387 225 181 144 0 
-68 191 387 228 185 143 0 
-67 191 387 234 191 149 0 
-67 192 388 235 190 149 0 
-66 192 388 233 188 147 0 
-66 192 389 232 187 146 0 
-65 193 390 229 184 143 0 
-65 193 390 225 180 138 0 
-64 193 391 219 174 132 0 
-64 194 392 211 170 124 0 
-63 195 394 212 171 125 0 
-63 196 396 202 165 123 0 
-63 197 398 192 155 113 0 
-76 193 390 207 164 129 0 
-75 192 387 212 169 134 0 
-74 191 386 221 177 138 0 
-73 191 385 221 177 138 0 
-72 191 385 221 176 135 0 
-72 191 385 222 177 136 0 
-71 191 385 222 177 136 0 
-71 191 385 223 178 137 0 
-70 191 385 224 181 139 0 
-69 191 386 225 182 140 0 
-69 191 386 224 182 142 0 
-68 191 386 224 182 142 0 
-68 192 387 231 191 155 0 
-67 192 387 234 194 158 0 
-67 192 388 238 196 158 0 
-66 192 388 236 194 156 0 
-66 193 389 232 189 147 0 
-65 193 390 228 185 143 0 
-65 193 390 224 181 138 0 
-64 194 391 219 176 133 0 
-64 194 392 211 169 127 0 
-63 195 394 206 164 122 0 
-63 196 396 203 163 127 0 
-63 197 398 193 153 117 0 
-76 193 389 210 167 132 0 
-75 192 387 215 172 137 0 
-74 192 386 222 178 139 0 
-73 191 385 222 178 139 0 
-72 191 385 221 178 136 0 
-72 191 385 222 179 137 0 
-71 191 385 222 179 137 0 
-71 191 385 222 179 137 0 
-70 191 385 221 179 139 0 
-69 191 385 224 182 142 0 
-69 192 386 226 187 146 0 
-68 192 386 229 190 149 0 
-68 192 386 230 192 156 0 
-67 192 387 234 196 160 0 
-67 192 387 237 197 161 0 
-66 193 388 237 197 161 0 
-66 193 389 235 193 153 0 
-65 194 390 229 187 147 0 
-65 194 391 223 182 138 0 
-64 195 392 218 177 133 0 
-64 195 393 209 170 127 0 
-63 196 394 205 166 123 0 
-63 197 396 201 163 126 0 
-63 198 398 189 151 114 0 
-75 193 388 212 169 134 0 
-74 192 386 218 175 140 0 
-74 192 386 223 179 140 0 
-73 192 385 221 177 138 0 
-72 191 384 220 176 137 0 
-72 191 384 221 177 138 0 
-71 191 384 223 181 141 0 
-70 191 384 225 183 143 0 
-70 192 384 222 184 145 0 
-69 192 384 225 187 148 0 
-69 192 385 228 193 155 0 
-68 193 386 231 196 158 0 
-68 193 386 233 197 165 0 
-67 193 386 233 197 165 0 
-67 193 387 236 198 162 0 
-66 194 388 236 198 162 0 
-65 194 388 234 195 156 0 
-65 195 390 228 189 150 0 
-65 195 391 220 181 140 0 
-64 196 392 215 176 135 0 
-64 196 393 209 170 129 0 
-64 197 395 204 165 124 0 
-63 198 397 195 159 123 0 
-75 194 388 212 169 134 0 
-74 193 386 218 175 140 0 
-74 193 386 219 177 139 0 
-73 193 385 218 176 138 0 
-72 192 384 218 176 138 0 
-72 192 384 221 179 141 0 
-71 192 384 224 185 146 0 
-70 192 384 229 190 151 0 
-70 192 384 228 192 156 0 
-69 192 384 229 193 157 0 
-68 192 384 230 196 161 0 
-68 193 385 232 198 163 0 
-68 193 386 236 199 170 0 
-67 193 386 234 197 168 0 
-67 194 387 234 198 164 0 
-66 194 388 233 197 163 0 
-65 194 388 231 193 156 0 
-65 195 390 225 187 150 0 
-65 196 391 219 180 141 0 
-64 196 392 213 174 135 0 
-64 197 393 207 169 130 0 
-64 198 395 198 160 121 0 
-74 194 386 217 174 139 0 
-74 193 385 217 175 137 0 
-73 193 384 218 176 138 0 
-72 193 384 221 179 141 0 
-72 193 384 224 182 144 0 
-71 193 384 226 188 152 0 
-70 193 384 231 193 157 0 
-70 193 384 230 196 161 0 
-69 193 384 231 197 162 0 
-68 193 384 231 198 165 0 
-68 193 385 233 200 167 0 
-68 194 386 236 201 171 0 
-67 194 386 233 198 168 0 
-67 194 387 234 198 166 0 
-66 195 388 234 198 166 0 
-66 195 389 230 192 156 0 
-65 196 390 224 186 150 0 
-65 196 391 218 180 141 0 
-64 197 393 210 172 133 0 
-64 198 394 203 165 128 0 
-74 194 386 215 172 137 0 
-73 193 384 217 174 139 0 
-73 193 384 220 177 142 0 
-72 193 383 223 183 147 0 
-71 193 383 227 187 151 0 
-71 193 383 227 191 157 0 
-70 193 383 230 194 160 0 
-70 193 383 230 197 164 0 
-69 193 384 231 198 165 0 
-68 193 384 230 199 170 0 
-68 194 385 233 202 173 0 
-68 194 386 236 201 173 0 
-67 194 386 233 198 170 0 
-67 195 387 234 199 167 0 
-66 195 388 232 197 165 0 
-66 196 389 226 190 154 0 
-65 196 390 222 186 150 0 
-65 197 391 218 180 143 0 
-64 198 393 207 169 132 0 
-74 195 386 213 170 135 0 
-73 194 384 218 175 140 0 
-73 193 383 221 178 143 0 
-72 193 383 226 186 151 0 
-71 193 383 229 189 154 0 
-71 193 383 229 195 160 0 
-70 193 383 231 197 162 0 
-70 193 383 230 199 168 0 
-69 194 384 231 200 169 0 
-68 194 384 232 203 173 0 
-68 194 385 233 204 174 0 
-67 194 385 236 202 175 0 
-67 195 386 233 199 172 0 
-67 195 387 233 198 168 0 
-66 196 389 230 195 165 0 
-66 197 390 225 189 155 0 
-65 197 391 221 185 151 0 
-65 198 392 211 175 139 0 
-64 198 393 193 157 121 0 
-74 195 386 209 169 133 0 
-74 195 385 217 177 141 0 
-73 194 383 220 180 144 0 
-72 194 383 227 189 153 0 
-71 194 383 229 191 155 0 
-71 194 383 230 195 163 0 
-70 194 383 233 198 166 0 
-69 194 383 232 201 172 0 
-69 194 384 235 204 175 0 
-68 194 384 233 206 177 0 
-68 195 385 232 205 176 0 
-68 196 386 233 202 174 0 
-67 196 387 231 200 172 0 
-67 197 388 231 197 169 0 
-66 197 389 227 193 165 0 
-66 198 391 223 188 156 0 
-74 196 385 218 180 144 0 
-73 195 384 227 189 153 0 
-72 195 383 228 192 160 0 
-71 195 383 228 192 160 0 
-71 195 383 232 199 168 0 
-70 195 383 238 205 174 0 
-69 195 383 235 204 175 0 
-69 195 384 233 202 173 0 
-69 196 385 237 203 175 0 
-68 196 386 239 205 177 0 
-68 196 386 241 207 180 0 
-67 197 387 234 200 173 0 
-67 197 388 229 194 166 0 
-66 198 390 226 191 163 0 
-73 196 385 229 190 157 0 
-72 195 383 227 191 159 0 
-71 195 383 233 197 165 0 
-71 195 383 235 202 171 0 
-70 196 384 235 202 171 0 
-70 196 384 234 203 174 0 
-69 196 384 236 205 176 0 
-69 196 385 235 204 176 0 
-68 197 386 233 202 174 0 
-68 197 387 239 205 180 0 
-67 198 388 233 199 174 0 
-67 198 389 232 198 171 0 
-72 196 384 231 194 165 0 
-71 196 384 238 201 172 0 
-71 196 384 237 203 175 0 
-70 196 384 233 199 171 0 
-70 197 385 231 201 173 0 
-69 197 385 234 204 176 0 
-69 197 386 234 204 178 0 
-68 198 387 233 203 177 0 
-68 198 388 233 201 178 0 
-72 197 385 231 194 165 0 
-72 197 385 236 199 170 0 
-71 197 385 234 203 175 0 
-70 197 385 235 204 176 0 
-70 197 385 232 202 176 0 
-69 198 386 230 200 174 0 
-69 198 387 228 200 176 0 
