ply
format ascii 1.0
comment Created by CloudCompare v2.10.1 (Zephyrus)
comment Created 2020-05-06 8:41 PM
obj_info Generated by CloudCompare!
element vertex 378
property float x
property float y
property float z
property uchar red
property uchar green
property uchar blue
property float scalar_Original_cloud_index
end_header
-66 39 412 150 87 70 0 
-65 39 410 146 91 61 0 
-64 39 409 151 96 66 0 
-64 39 408 155 90 62 0 
-63 39 407 163 98 70 0 
-62 39 407 163 103 75 0 
-61 39 407 170 110 82 0 
-61 39 407 170 113 86 0 
-60 39 407 168 111 84 0 
-59 39 407 166 110 83 0 
-59 39 407 164 108 81 0 
-58 39 407 165 111 83 0 
-58 39 407 163 109 81 0 
-57 39 407 156 105 78 0 
-56 39 407 151 100 73 0 
-56 39 407 150 104 80 0 
-55 39 407 155 109 85 0 
-66 40 411 155 94 75 0 
-65 40 410 147 90 60 0 
-64 40 409 145 88 58 0 
-64 40 408 150 85 57 0 
-63 39 407 157 92 64 0 
-62 39 407 143 85 61 0 
-61 39 407 129 71 47 0 
-61 39 407 155 97 73 0 
-60 39 407 155 97 73 0 
-59 39 407 159 101 77 0 
-59 39 407 156 98 74 0 
-58 40 408 159 103 78 0 
-58 40 408 153 97 72 0 
-57 40 408 150 99 72 0 
-56 40 408 143 92 65 0 
-56 40 408 134 92 68 0 
-55 40 409 136 94 70 0 
-67 40 411 183 123 99 0 
-66 40 410 182 122 98 0 
-65 40 409 178 119 87 0 
-64 40 408 172 113 81 0 
-63 40 407 181 116 88 0 
-63 40 407 183 118 90 0 
-62 40 407 147 91 68 0 
-61 40 407 106 50 27 0 
-61 40 407 171 113 91 0 
-60 40 407 181 123 101 0 
-59 40 407 182 126 103 0 
-59 40 407 181 125 102 0 
-58 40 408 181 129 105 0 
-58 40 408 174 122 98 0 
-57 40 408 172 122 97 0 
-56 40 408 162 112 87 0 
-56 40 408 150 108 84 0 
-55 40 409 143 101 77 0 
-67 41 410 196 136 108 0 
-66 41 409 200 140 112 0 
-65 41 408 203 140 107 0 
-64 41 407 205 142 109 0 
-63 41 407 203 140 109 0 
-63 41 406 208 145 114 0 
-62 41 407 165 109 86 0 
-61 41 407 102 46 23 0 
-61 41 407 194 138 115 0 
-60 41 407 207 151 128 0 
-59 41 407 202 148 124 0 
-59 41 407 200 146 122 0 
-58 41 407 199 149 124 0 
-58 41 407 194 144 119 0 
-57 41 407 192 145 117 0 
-56 41 408 183 136 108 0 
-56 41 408 173 128 105 0 
-55 41 409 161 116 93 0 
-54 41 409 135 102 87 0 
-66 42 409 201 144 115 0 
-66 41 408 208 151 122 0 
-65 41 407 220 155 123 0 
-64 41 407 222 157 125 0 
-63 41 406 217 163 135 0 
-63 41 406 225 171 143 0 
-62 41 406 169 123 99 0 
-61 41 407 101 55 31 0 
-61 41 407 203 151 129 0 
-60 41 407 218 166 144 0 
-59 41 407 221 170 143 0 
-59 41 407 218 167 140 0 
-58 41 407 218 172 146 0 
-57 41 407 217 171 145 0 
-57 41 407 211 163 141 0 
-56 41 407 206 158 136 0 
-56 42 408 196 146 123 0 
-55 42 408 187 137 114 0 
-54 42 409 159 123 101 0 
-54 42 410 136 100 78 0 
-67 42 411 195 139 106 0 
-66 42 409 206 147 117 0 
-66 42 408 215 156 126 0 
-65 42 407 226 163 130 0 
-64 42 406 232 169 136 0 
-63 42 406 234 180 154 0 
-62 42 405 244 190 164 0 
-62 42 406 175 127 104 0 
-61 42 406 111 63 40 0 
-61 42 406 216 165 144 0 
-60 42 406 236 185 164 0 
-59 42 406 237 190 164 0 
-59 42 406 231 184 158 0 
-58 42 406 232 187 158 0 
-57 42 406 229 184 155 0 
-57 42 406 226 178 155 0 
-56 42 407 222 174 151 0 
-56 42 407 207 159 136 0 
-55 42 408 198 150 127 0 
-54 42 409 172 134 113 0 
-54 42 409 147 109 88 0 
-67 43 410 203 144 110 0 
-66 43 408 209 153 120 0 
-65 43 407 219 163 130 0 
-65 43 406 231 171 137 0 
-64 43 406 240 180 146 0 
-63 43 405 246 195 166 0 
-62 43 405 255 204 175 0 
-62 43 405 182 134 111 0 
-61 43 406 122 74 51 0 
-61 43 406 230 183 165 0 
-60 43 406 252 205 187 0 
-59 43 406 252 208 183 0 
-59 43 406 244 200 175 0 
-58 43 406 244 201 169 0 
-57 43 406 239 196 164 0 
-57 43 406 237 191 165 0 
-56 43 406 232 186 160 0 
-56 43 407 225 179 153 0 
-55 43 408 211 165 139 0 
-54 43 409 195 153 131 0 
-54 43 409 162 120 98 0 
-67 44 410 203 148 109 0 
-66 43 408 211 155 120 0 
-65 43 407 223 167 132 0 
-65 43 406 233 179 141 0 
-64 43 406 243 189 151 0 
-63 43 405 252 203 171 0 
-62 43 405 255 209 177 0 
-62 43 405 189 141 118 0 
-61 43 406 134 86 63 0 
-61 43 406 242 195 177 0 
-60 43 406 255 211 193 0 
-59 43 406 255 213 189 0 
-59 43 406 249 207 183 0 
-58 43 406 249 208 176 0 
-57 43 406 244 203 171 0 
-57 43 406 243 199 170 0 
-56 43 406 237 193 164 0 
-56 43 407 232 187 158 0 
-55 44 408 217 172 143 0 
-54 44 408 206 161 138 0 
-54 44 409 172 127 104 0 
-68 44 411 199 140 98 0 
-67 44 409 209 150 108 0 
-66 44 408 218 158 122 0 
-65 44 407 230 170 134 0 
-65 44 406 236 183 143 0 
-64 44 406 245 192 152 0 
-63 44 405 253 203 168 0 
-62 44 405 255 205 170 0 
-62 44 405 191 144 118 0 
-61 44 406 140 93 67 0 
-61 44 406 245 198 178 0 
-60 44 406 255 209 189 0 
-59 44 405 255 211 188 0 
-59 44 406 254 209 186 0 
-58 44 406 254 213 181 0 
-57 44 405 248 207 175 0 
-57 44 406 246 203 171 0 
-56 44 406 242 199 167 0 
-56 44 407 232 187 154 0 
-55 44 407 224 179 146 0 
-54 44 408 213 167 143 0 
-54 44 408 181 135 111 0 
-68 45 410 203 142 97 0 
-67 45 409 213 152 107 0 
-66 45 407 225 161 125 0 
-65 45 407 236 172 136 0 
-65 45 406 236 183 141 0 
-64 45 406 244 191 149 0 
-63 44 405 252 200 163 0 
-62 44 405 253 201 164 0 
-62 44 405 184 137 107 0 
-61 45 406 135 88 58 0 
-61 45 406 244 194 171 0 
-60 45 406 255 207 184 0 
-59 45 405 255 211 188 0 
-59 45 406 255 211 188 0 
-58 45 405 255 213 184 0 
-57 45 405 250 206 177 0 
-57 45 406 245 200 169 0 
-56 45 406 241 196 165 0 
-56 45 407 237 189 153 0 
-55 45 407 233 185 149 0 
-54 45 408 217 171 145 0 
-54 45 408 171 125 99 0 
-68 46 410 202 139 95 0 
-67 46 409 211 148 104 0 
-66 45 408 224 160 124 0 
-65 45 406 235 171 135 0 
-65 45 406 234 181 139 0 
-64 45 406 242 189 147 0 
-63 45 405 251 198 158 0 
-62 45 405 255 202 162 0 
-62 45 405 179 133 100 0 
-61 45 406 128 82 49 0 
-61 45 406 242 188 162 0 
-60 45 405 255 205 179 0 
-59 45 405 255 210 186 0 
-59 45 405 255 208 184 0 
-58 45 405 255 210 186 0 
-57 45 405 250 204 180 0 
-57 45 406 249 202 174 0 
-56 45 406 242 195 167 0 
-55 45 406 239 190 150 0 
-55 45 407 229 180 140 0 
-54 46 408 216 172 143 0 
-54 46 408 169 125 96 0 
-68 46 409 202 141 96 0 
-67 46 408 208 147 102 0 
-66 46 407 223 159 123 0 
-65 46 406 232 168 132 0 
-65 46 406 227 178 135 0 
-64 46 406 235 186 143 0 
-63 46 405 245 193 153 0 
-62 46 405 250 198 158 0 
-62 46 405 179 135 100 0 
-61 46 406 125 81 46 0 
-61 46 406 241 185 158 0 
-60 46 405 255 204 177 0 
-59 46 405 255 208 183 0 
-59 46 406 255 204 179 0 
-58 46 405 255 209 186 0 
-57 46 405 252 206 183 0 
-57 46 405 247 200 172 0 
-56 46 406 245 198 170 0 
-55 46 406 244 193 150 0 
-55 46 407 234 183 140 0 
-54 46 408 215 174 144 0 
-54 46 408 166 125 95 0 
-68 47 409 196 140 93 0 
-67 47 409 201 145 98 0 
-66 47 408 213 158 117 0 
-65 47 407 224 169 128 0 
-65 47 406 225 173 133 0 
-64 47 406 231 179 139 0 
-63 47 406 248 184 146 0 
-62 46 405 252 188 150 0 
-62 46 405 182 127 96 0 
-61 47 406 130 75 44 0 
-61 47 406 236 182 146 0 
-60 47 406 255 201 165 0 
-59 47 406 255 204 175 0 
-59 47 406 251 200 171 0 
-58 47 406 252 204 164 0 
-57 46 405 249 201 161 0 
-57 46 405 243 200 165 0 
-56 47 406 236 193 158 0 
-55 47 406 240 185 154 0 
-55 47 407 232 177 146 0 
-54 47 407 222 168 132 0 
-54 47 408 178 124 88 0 
-67 47 408 203 145 99 0 
-66 47 408 214 155 113 0 
-65 47 407 223 164 122 0 
-65 47 406 226 171 130 0 
-64 47 406 229 174 133 0 
-63 47 406 241 177 139 0 
-62 47 405 248 184 146 0 
-62 47 405 188 132 99 0 
-61 47 406 142 86 53 0 
-61 47 406 232 178 140 0 
-60 47 406 244 190 152 0 
-59 47 406 249 196 165 0 
-59 47 407 248 195 164 0 
-58 47 406 255 204 167 0 
-57 47 406 251 199 162 0 
-57 47 406 243 197 164 0 
-56 47 406 238 192 159 0 
-55 47 407 236 182 148 0 
-55 47 407 227 173 139 0 
-54 47 407 219 167 130 0 
-54 48 408 181 129 92 0 
-67 48 408 208 147 103 0 
-66 48 408 216 153 110 0 
-65 48 407 226 163 120 0 
-65 48 406 231 173 133 0 
-64 48 406 232 174 134 0 
-63 48 406 236 174 135 0 
-62 48 405 244 182 143 0 
-62 48 405 191 137 103 0 
-61 48 405 139 85 51 0 
-60 48 405 229 174 133 0 
-60 48 405 240 185 144 0 
-59 48 405 244 189 158 0 
-59 48 406 247 192 161 0 
-58 48 406 255 202 168 0 
-57 48 405 248 194 160 0 
-57 48 406 241 192 162 0 
-56 48 406 238 189 159 0 
-55 48 406 236 182 148 0 
-55 48 407 230 176 142 0 
-54 48 407 215 169 133 0 
-54 48 408 176 130 94 0 
-67 49 408 209 148 104 0 
-66 49 407 213 150 106 0 
-65 49 407 223 160 116 0 
-65 49 406 232 173 131 0 
-64 48 405 232 173 131 0 
-63 48 405 233 171 132 0 
-62 48 405 241 179 140 0 
-62 48 405 184 131 97 0 
-61 48 405 121 68 34 0 
-60 48 405 220 165 124 0 
-60 48 405 240 185 144 0 
-59 48 405 240 187 153 0 
-59 49 406 248 195 161 0 
-58 48 405 254 199 169 0 
-57 48 405 248 193 163 0 
-57 48 405 243 189 163 0 
-56 49 406 240 186 160 0 
-55 49 406 237 184 150 0 
-55 49 406 234 181 147 0 
-54 49 407 212 169 135 0 
-54 49 408 171 128 94 0 
-67 49 408 216 155 111 0 
-66 49 407 216 155 108 0 
-65 49 407 222 161 114 0 
-65 49 406 231 169 128 0 
-64 49 405 230 168 127 0 
-63 49 405 230 166 128 0 
-62 49 405 237 173 135 0 
-62 49 405 174 121 89 0 
-61 49 405 126 73 41 0 
-60 49 405 216 158 120 0 
-60 49 405 244 186 148 0 
-59 49 405 241 188 156 0 
-59 49 406 246 193 161 0 
-58 49 405 248 192 167 0 
-57 49 405 243 187 162 0 
-57 49 405 240 186 162 0 
-56 49 405 236 182 158 0 
-55 49 406 230 180 147 0 
-55 49 406 225 175 142 0 
-54 49 406 198 154 127 0 
-54 49 407 161 117 90 0 
-65 50 406 230 172 126 0 
-64 50 405 240 177 136 0 
-64 50 405 239 176 135 0 
-63 50 404 239 175 139 0 
-62 50 404 245 181 145 0 
-62 50 404 217 164 133 0 
-61 50 404 196 143 112 0 
-60 50 404 237 176 145 0 
-60 50 404 247 186 155 0 
-59 50 404 243 190 159 0 
-58 50 405 240 187 156 0 
-58 50 405 245 191 167 0 
-57 50 405 242 188 164 0 
-57 50 405 244 190 164 0 
-56 50 405 241 187 161 0 
-65 50 405 241 182 138 0 
-64 50 404 250 188 151 0 
-64 50 404 254 192 155 0 
-63 50 404 253 193 157 0 
-62 50 404 255 196 160 0 
-61 50 403 246 195 166 0 
-61 50 403 247 196 167 0 
-60 50 404 255 196 170 0 
-60 50 404 255 198 172 0 
-59 50 404 255 205 176 0 
-58 50 404 254 203 174 0 
-58 50 404 255 209 182 0 
-57 50 404 255 208 181 0 
-56 50 404 255 207 180 0 
-56 50 405 255 204 177 0 
