ply
format ascii 1.0
comment Created by CloudCompare v2.10.1 (Zephyrus)
comment Created 2020-05-06 8:40 PM
obj_info Generated by CloudCompare!
element vertex 459
property float x
property float y
property float z
property uchar red
property uchar green
property uchar blue
end_header
-77 -60 412 211 174 155 
-77 -60 412 215 178 159 
-76 -60 412 220 177 160 
-75 -60 412 215 172 155 
-75 -60 413 195 168 157 
-74 -60 413 191 164 153 
-74 -60 413 171 162 153 
-73 -60 413 163 154 145 
-80 -59 413 210 182 170 
-79 -59 412 232 191 173 
-78 -59 412 238 197 179 
-77 -59 410 244 199 176 
-76 -59 410 247 202 179 
-76 -59 410 254 204 181 
-75 -59 411 250 200 177 
-75 -59 411 238 196 172 
-74 -59 411 235 193 169 
-73 -59 411 223 191 180 
-73 -59 412 208 176 165 
-72 -59 412 173 164 159 
-72 -59 413 162 153 148 
-79 -59 412 247 201 175 
-78 -58 410 251 200 173 
-78 -58 410 254 203 176 
-77 -58 409 251 205 181 
-76 -58 409 252 206 182 
-76 -58 409 255 203 179 
-75 -58 410 252 200 176 
-74 -58 410 248 197 168 
-74 -58 410 248 197 168 
-73 -58 411 249 198 181 
-73 -58 411 241 190 173 
-72 -58 411 216 188 177 
-71 -59 412 199 171 160 
-71 -59 413 170 155 152 
-70 -59 414 163 149 140 
-81 -58 414 234 195 164 
-80 -58 412 248 198 171 
-79 -58 411 252 202 175 
-78 -57 409 254 204 179 
-78 -57 409 252 202 177 
-77 -57 409 248 203 180 
-76 -57 409 250 205 182 
-76 -57 409 252 204 182 
-75 -57 409 250 202 180 
-74 -57 409 245 199 173 
-74 -58 409 241 195 169 
-73 -58 410 249 199 176 
-72 -58 410 239 189 166 
-72 -58 411 228 185 169 
-71 -58 412 220 177 161 
-71 -58 412 205 167 158 
-70 -58 413 191 153 144 
-70 -58 413 185 151 141 
-81 -57 412 245 196 163 
-80 -57 411 246 200 177 
-79 -57 410 247 201 178 
-78 -57 409 248 201 181 
-78 -57 409 247 200 180 
-77 -57 409 250 204 178 
-76 -57 409 251 205 179 
-75 -57 408 251 199 175 
-75 -57 408 249 197 173 
-74 -57 409 246 200 174 
-74 -57 409 245 199 173 
-73 -57 409 242 197 174 
-72 -57 410 235 190 167 
-72 -57 410 233 185 165 
-71 -57 411 225 177 157 
-71 -57 411 216 167 152 
-70 -57 412 203 154 139 
-81 -57 412 241 188 154 
-81 -56 411 246 193 159 
-80 -56 410 245 200 181 
-79 -56 409 249 204 185 
-78 -56 409 249 202 182 
-77 -56 408 249 202 182 
-77 -56 408 250 203 175 
-76 -56 408 250 203 175 
-75 -56 408 252 201 174 
-75 -56 408 251 200 173 
-74 -56 408 250 199 168 
-74 -56 409 250 199 168 
-73 -56 409 244 199 178 
-72 -56 410 238 193 172 
-72 -56 410 234 186 164 
-71 -56 411 224 176 154 
-71 -56 411 213 166 146 
-70 -56 411 198 151 131 
-70 -57 412 209 160 143 
-82 -56 413 235 184 157 
-81 -56 411 240 187 155 
-80 -56 410 246 193 161 
-80 -56 410 247 200 182 
-79 -55 409 251 204 186 
-78 -55 408 248 202 186 
-77 -55 408 255 214 198 
-77 -55 408 255 224 209 
-76 -55 407 253 221 206 
-75 -55 407 249 215 203 
-75 -55 408 239 205 193 
-74 -55 408 240 198 173 
-74 -56 409 245 203 178 
-73 -56 409 249 200 183 
-72 -56 409 243 194 177 
-72 -56 410 238 186 165 
-71 -56 410 228 176 155 
-70 -56 410 213 167 144 
-70 -56 411 196 150 127 
-82 -55 412 236 180 153 
-81 -55 410 239 188 157 
-80 -55 409 247 196 165 
-80 -55 409 249 202 182 
-79 -55 409 249 202 182 
-78 -55 408 247 207 195 
-77 -55 408 255 231 219 
-77 -55 408 255 249 249 
-76 -55 407 255 248 248 
-75 -55 407 253 242 248 
-75 -55 408 232 221 227 
-74 -55 408 228 202 187 
-74 -55 409 232 206 191 
-73 -55 409 250 202 182 
-72 -55 409 246 198 178 
-72 -55 410 245 186 168 
-71 -55 410 233 174 156 
-70 -55 410 215 162 144 
-70 -55 410 198 145 127 
-83 -55 414 216 168 146 
-82 -54 411 227 179 157 
-81 -54 410 240 184 157 
-80 -54 409 242 186 159 
-79 -54 408 248 197 168 
-79 -54 408 243 192 163 
-78 -54 408 244 232 232 
-77 -54 408 255 251 251 
-77 -54 408 255 245 251 
-76 -54 407 230 219 225 
-75 -54 407 238 224 224 
-75 -54 408 255 243 243 
-74 -54 408 233 224 225 
-73 -54 408 200 191 192 
-73 -54 409 249 198 179 
-72 -54 409 242 191 172 
-72 -54 410 236 180 163 
-71 -54 410 227 171 154 
-70 -54 410 210 153 136 
-70 -54 410 198 141 124 
-83 -54 413 208 158 135 
-82 -54 411 216 166 143 
-81 -54 410 233 178 148 
-80 -53 409 239 184 154 
-79 -53 408 246 193 162 
-79 -53 408 238 185 154 
-78 -53 408 255 245 242 
-77 -53 408 253 238 235 
-77 -53 408 216 206 205 
-76 -53 408 190 180 179 
-75 -53 408 199 188 186 
-75 -53 408 250 239 237 
-74 -53 408 240 235 232 
-73 -53 408 193 188 185 
-73 -54 409 237 186 167 
-72 -54 409 235 184 165 
-72 -54 410 231 175 158 
-71 -54 410 220 164 147 
-71 -54 410 206 149 130 
-70 -54 410 192 135 116 
-84 -54 415 208 147 119 
-83 -53 413 206 152 124 
-82 -53 411 221 167 139 
-81 -53 410 234 179 149 
-80 -53 409 232 177 147 
-80 -53 409 239 185 157 
-79 -53 408 231 177 149 
-78 -53 408 255 242 240 
-77 -53 408 255 249 247 
-77 -53 409 222 214 212 
-76 -53 408 180 172 170 
-75 -53 408 195 187 184 
-75 -53 409 229 221 218 
-74 -53 409 239 231 229 
-74 -53 409 179 171 169 
-73 -53 409 228 175 157 
-72 -53 409 228 175 157 
-72 -53 410 221 164 145 
-71 -53 410 206 149 130 
-71 -53 410 201 142 124 
-70 -53 410 188 129 111 
-84 -53 414 208 145 114 
-83 -53 412 204 149 118 
-82 -52 411 216 161 130 
-81 -52 410 225 172 141 
-80 -52 409 230 177 146 
-80 -52 409 232 182 157 
-79 -52 409 206 156 131 
-78 -52 409 225 209 210 
-78 -52 409 255 250 251 
-77 -52 409 232 226 228 
-76 -52 409 204 198 200 
-75 -52 408 230 224 224 
-75 -52 409 245 239 239 
-74 -52 409 225 211 210 
-74 -52 410 168 154 153 
-73 -52 409 229 177 156 
-72 -52 410 226 174 153 
-72 -52 410 211 154 135 
-71 -52 410 191 134 115 
-71 -52 410 191 133 113 
-70 -52 410 180 122 102 
-84 -52 413 208 148 112 
-83 -52 412 210 152 114 
-82 -52 411 213 155 117 
-81 -52 411 215 162 130 
-80 -52 410 223 170 138 
-80 -52 409 226 178 155 
-79 -52 409 208 160 137 
-78 -52 409 173 155 155 
-78 -52 409 220 202 202 
-77 -52 409 242 230 232 
-76 -52 409 233 221 223 
-76 -52 409 242 228 228 
-75 -52 409 223 209 209 
-74 -52 409 186 158 155 
-74 -52 410 178 150 147 
-73 -52 409 236 181 161 
-72 -52 410 233 178 158 
-72 -52 410 215 158 139 
-71 -52 410 194 137 118 
-71 -52 410 191 133 113 
-70 -52 410 178 120 100 
-85 -52 415 198 142 105 
-84 -51 413 206 150 113 
-83 -51 412 210 151 111 
-82 -51 411 212 153 113 
-81 -51 411 220 166 132 
-80 -51 410 225 171 137 
-80 -51 410 226 176 149 
-79 -51 410 225 175 148 
-78 -51 409 176 146 138 
-78 -51 409 161 131 123 
-77 -51 409 183 154 146 
-76 -51 409 189 160 152 
-76 -51 409 187 156 151 
-75 -51 409 159 128 123 
-74 -51 409 165 125 113 
-74 -51 409 205 165 153 
-73 -51 409 231 176 155 
-73 -51 410 231 176 155 
-72 -51 410 224 167 147 
-71 -51 410 208 151 131 
-71 -51 410 197 139 117 
-70 -51 410 178 120 98 
-84 -51 413 189 139 106 
-83 -51 412 198 148 115 
-83 -51 412 216 156 120 
-82 -50 411 212 152 116 
-81 -50 411 214 157 127 
-80 -50 410 222 165 135 
-80 -50 410 226 172 138 
-79 -50 410 229 175 141 
-78 -50 410 222 176 152 
-78 -50 409 202 156 132 
-77 -50 410 181 129 105 
-76 -50 409 173 121 97 
-76 -50 409 164 117 99 
-75 -50 409 191 144 126 
-74 -50 409 208 161 141 
-74 -50 410 219 172 152 
-73 -50 410 225 169 146 
-73 -50 410 223 167 144 
-72 -50 410 219 161 139 
-71 -50 410 210 152 130 
-71 -50 410 194 134 110 
-70 -50 411 174 114 90 
-84 -50 412 195 150 121 
-83 -50 411 185 140 111 
-83 -50 411 212 153 121 
-82 -50 411 217 158 126 
-81 -50 411 211 156 126 
-80 -50 410 215 160 130 
-80 -50 410 224 166 128 
-79 -50 410 225 167 129 
-78 -50 410 226 168 131 
-78 -50 410 229 171 134 
-77 -50 410 235 167 130 
-76 -50 409 229 161 124 
-76 -50 409 221 165 138 
-75 -50 409 228 172 145 
-74 -50 410 218 171 143 
-74 -50 410 218 171 143 
-73 -50 410 225 169 144 
-73 -50 410 216 160 135 
-72 -50 410 210 152 128 
-71 -50 411 205 147 123 
-71 -50 410 190 130 106 
-70 -50 411 175 115 91 
-83 -49 411 208 162 129 
-83 -49 411 199 144 113 
-82 -49 411 209 154 123 
-81 -49 411 209 153 118 
-81 -49 411 208 152 117 
-80 -49 410 212 158 122 
-79 -49 410 211 157 121 
-78 -49 410 227 168 134 
-78 -49 410 224 165 131 
-77 -49 410 231 166 136 
-76 -49 410 230 165 135 
-76 -49 409 226 165 136 
-75 -49 409 225 164 135 
-74 -49 410 217 163 135 
-74 -49 410 220 166 138 
-73 -49 410 218 160 136 
-73 -49 410 212 154 130 
-72 -49 410 206 149 122 
-71 -49 411 199 142 115 
-71 -49 411 184 124 98 
-70 -49 411 169 109 83 
-82 -48 410 220 171 139 
-82 -48 410 189 140 108 
-81 -48 411 199 146 112 
-81 -48 411 207 154 120 
-80 -48 411 210 156 122 
-79 -48 411 214 160 126 
-78 -48 410 221 165 132 
-78 -48 410 219 163 130 
-77 -48 410 223 162 131 
-76 -48 410 220 159 128 
-76 -48 410 221 160 131 
-75 -48 410 225 164 135 
-74 -48 410 219 162 133 
-74 -48 410 215 158 129 
-73 -48 410 216 156 130 
-73 -48 410 209 149 123 
-72 -48 411 198 140 116 
-71 -48 411 188 130 106 
-71 -48 411 174 116 94 
-70 -48 411 162 104 82 
-70 -49 412 197 141 114 
-82 -48 410 255 216 186 
-82 -48 410 220 179 149 
-81 -48 411 192 143 111 
-81 -48 411 195 146 114 
-80 -48 411 207 152 121 
-79 -48 411 201 146 115 
-79 -48 411 211 155 122 
-78 -48 411 213 157 124 
-77 -48 410 215 159 126 
-76 -48 410 213 157 124 
-76 -48 410 213 154 124 
-75 -48 410 214 155 125 
-75 -48 410 215 151 124 
-74 -48 410 212 148 121 
-73 -48 410 209 147 122 
-73 -48 411 202 140 115 
-72 -48 411 191 133 113 
-71 -48 411 177 119 99 
-71 -48 412 162 107 87 
-70 -48 412 149 94 74 
-70 -48 412 189 137 113 
-80 -47 411 197 144 113 
-79 -47 411 201 148 117 
-79 -47 411 206 147 115 
-78 -47 411 208 149 117 
-77 -47 411 205 149 116 
-77 -47 411 205 149 116 
-76 -47 411 206 147 115 
-75 -47 411 203 144 112 
-75 -47 411 205 140 112 
-74 -47 411 206 141 113 
-73 -47 411 197 136 108 
-73 -47 412 192 131 103 
-72 -47 412 187 126 107 
-72 -47 412 172 111 92 
-71 -47 412 156 99 82 
-70 -47 412 143 86 69 
-70 -47 412 183 131 109 
-80 -46 410 224 185 156 
-80 -46 410 195 144 113 
-79 -46 410 186 135 104 
-79 -46 411 203 142 111 
-78 -46 411 202 141 110 
-77 -46 411 197 136 105 
-76 -46 410 195 134 103 
-76 -46 411 196 135 104 
-75 -46 411 194 133 102 
-75 -46 411 194 129 99 
-74 -46 411 192 127 97 
-74 -47 412 191 127 99 
-73 -47 412 178 114 86 
-72 -47 412 171 109 88 
-72 -47 412 165 103 82 
-71 -47 413 151 89 74 
-70 -47 413 133 71 56 
-70 -47 413 173 116 97 
-80 -46 410 254 214 188 
-80 -46 410 237 186 157 
-79 -46 411 185 134 105 
-79 -46 411 186 125 96 
-78 -46 411 188 127 98 
-77 -46 411 191 128 97 
-77 -46 412 189 126 95 
-76 -46 412 184 121 90 
-76 -46 412 182 119 88 
-75 -46 412 179 116 85 
-74 -46 412 175 112 81 
-74 -46 413 172 109 78 
-73 -46 413 165 102 71 
-72 -46 413 159 98 77 
-72 -46 413 145 84 63 
-71 -46 413 126 68 56 
-71 -46 414 123 65 53 
-70 -46 414 168 112 95 
-79 -45 411 237 186 159 
-79 -45 411 191 134 105 
-78 -45 412 175 118 89 
-78 -45 412 176 115 86 
-77 -45 412 177 116 87 
-76 -45 413 172 108 80 
-76 -45 413 169 105 77 
-75 -45 413 167 103 75 
-74 -45 413 163 99 71 
-74 -45 413 156 94 69 
-73 -45 414 153 91 66 
-73 -45 414 135 86 71 
-72 -45 414 124 75 60 
-71 -45 414 124 83 77 
-71 -45 414 150 109 103 
-70 -46 415 177 137 125 
-78 -45 412 182 127 97 
-78 -45 412 161 101 73 
-77 -45 413 163 103 75 
-76 -45 413 164 100 73 
-76 -45 414 162 98 71 
-75 -45 414 156 95 67 
-75 -45 414 148 87 59 
-74 -45 414 139 84 63 
-73 -45 414 132 77 56 
-73 -45 414 124 86 77 
-72 -45 415 141 103 94 
-71 -45 415 147 126 125 
-71 -45 415 166 145 144 
-77 -44 413 138 80 56 
-76 -44 413 139 86 70 
-76 -44 414 138 85 69 
-75 -44 414 137 91 76 
-75 -44 414 136 90 75 
-74 -44 415 124 104 106 
-73 -44 415 132 112 114 
-73 -44 415 138 132 136 
-72 -44 415 148 142 146 
-76 -43 413 147 117 107 
-75 -44 415 150 131 124 
-75 -44 415 152 133 126 
-74 -44 415 146 142 141 
-74 -44 416 149 145 144 
-73 -44 416 148 152 155 
-72 -44 415 149 153 156 
-76 -43 413 146 134 134 
