ply
format ascii 1.0
comment Created by CloudCompare v2.10.1 (Zephyrus)
comment Created 2020-05-06 8:41 PM
obj_info Generated by CloudCompare!
element vertex 213
property float x
property float y
property float z
property uchar red
property uchar green
property uchar blue
property float scalar_Original_cloud_index
end_header
-67 107 406 228 179 147 0 
-67 107 406 214 165 132 0 
-67 107 405 222 178 143 0 
-66 107 403 233 189 154 0 
-63 107 403 187 142 113 0 
-62 107 403 232 188 159 0 
-62 107 403 235 191 162 0 
-68 108 406 200 150 115 0 
-67 108 405 227 177 142 0 
-66 107 404 240 194 160 0 
-66 107 403 248 202 168 0 
-65 107 402 250 209 181 0 
-64 107 402 255 217 189 0 
-64 107 402 224 180 155 0 
-63 107 402 171 127 102 0 
-62 107 402 242 200 175 0 
-62 107 402 246 204 179 0 
-60 108 404 232 182 147 0 
-68 109 406 225 169 134 0 
-67 108 405 242 186 151 0 
-66 108 403 246 196 161 0 
-66 108 403 252 202 167 0 
-65 108 402 252 208 181 0 
-64 108 402 253 209 182 0 
-64 108 402 195 151 126 0 
-63 108 402 157 113 88 0 
-62 108 402 245 201 176 0 
-62 108 402 253 209 184 0 
-61 108 402 251 204 174 0 
-60 108 403 250 203 173 0 
-60 108 404 246 196 161 0 
-68 109 406 227 177 140 0 
-67 109 405 243 193 156 0 
-66 109 403 246 196 159 0 
-66 109 403 249 199 162 0 
-65 108 402 255 207 171 0 
-64 108 402 255 209 173 0 
-64 108 402 175 133 108 0 
-63 108 402 136 94 69 0 
-62 109 403 250 204 180 0 
-62 108 402 255 210 186 0 
-61 109 403 255 211 180 0 
-60 109 403 255 206 175 0 
-60 109 404 253 205 169 0 
-59 109 404 244 196 160 0 
-59 109 404 224 178 144 0 
-68 110 408 232 180 141 0 
-67 110 405 239 187 148 0 
-66 109 404 242 190 151 0 
-66 109 403 246 194 155 0 
-65 109 403 251 203 167 0 
-64 109 402 250 202 166 0 
-64 109 402 179 135 108 0 
-63 109 403 139 95 68 0 
-62 109 403 244 198 172 0 
-62 109 403 255 210 184 0 
-61 109 403 255 206 175 0 
-61 109 404 254 203 172 0 
-60 109 404 250 202 166 0 
-59 109 404 241 193 157 0 
-59 109 404 221 175 139 0 
-68 111 408 230 178 138 0 
-67 111 406 234 182 142 0 
-66 110 404 237 185 145 0 
-66 110 403 239 187 147 0 
-65 110 403 247 197 160 0 
-64 110 402 247 197 160 0 
-64 110 402 192 148 119 0 
-63 110 403 151 107 78 0 
-62 110 403 238 191 161 0 
-62 110 403 251 204 174 0 
-61 110 403 251 201 168 0 
-61 110 404 247 197 164 0 
-60 110 404 244 196 158 0 
-59 110 404 234 186 148 0 
-59 110 404 216 168 132 0 
-68 112 408 224 173 130 0 
-67 111 406 232 181 138 0 
-66 111 404 233 182 139 0 
-66 110 403 234 183 140 0 
-65 110 402 242 192 155 0 
-64 110 402 244 194 157 0 
-64 110 402 208 163 132 0 
-63 110 402 167 122 91 0 
-62 110 402 232 186 153 0 
-62 110 402 242 196 163 0 
-61 110 403 243 194 161 0 
-61 111 404 237 188 155 0 
-60 111 404 234 186 148 0 
-59 111 404 224 176 138 0 
-59 111 405 202 156 120 0 
-68 112 408 218 167 124 0 
-67 112 406 227 176 133 0 
-66 111 404 229 177 137 0 
-66 111 403 231 179 139 0 
-65 111 403 239 187 148 0 
-64 111 402 242 190 151 0 
-64 111 403 207 162 131 0 
-63 111 403 169 124 93 0 
-62 111 403 228 181 151 0 
-62 111 403 237 190 160 0 
-61 111 403 240 192 156 0 
-61 111 404 230 182 146 0 
-60 112 405 223 178 137 0 
-59 111 404 212 167 126 0 
-59 112 405 192 147 108 0 
-69 113 408 204 151 109 0 
-68 113 407 213 162 119 0 
-67 112 405 223 172 129 0 
-66 112 404 225 174 131 0 
-66 112 403 229 178 135 0 
-65 112 403 237 185 146 0 
-64 112 403 238 186 147 0 
-64 112 403 193 148 117 0 
-63 112 403 160 115 84 0 
-62 112 403 226 179 149 0 
-62 112 403 236 189 159 0 
-61 112 404 239 191 155 0 
-61 112 405 228 180 144 0 
-60 112 405 218 173 132 0 
-59 112 405 207 162 121 0 
-59 112 405 187 142 103 0 
-70 114 408 162 107 68 0 
-69 113 407 194 139 100 0 
-68 113 405 208 155 115 0 
-67 113 404 219 166 126 0 
-66 112 403 221 168 126 0 
-65 112 402 225 172 130 0 
-65 112 402 233 180 140 0 
-64 112 402 236 183 143 0 
-64 112 402 176 130 97 0 
-63 112 402 150 104 71 0 
-62 112 403 226 179 149 0 
-62 112 403 231 184 154 0 
-61 113 404 235 186 153 0 
-61 113 405 223 174 141 0 
-60 113 405 213 165 127 0 
-59 113 405 197 149 111 0 
-59 113 406 174 129 90 0 
-70 114 407 168 113 74 0 
-69 114 406 187 132 93 0 
-68 114 405 203 150 110 0 
-67 113 404 215 162 122 0 
-66 113 403 217 164 122 0 
-65 113 402 218 165 123 0 
-65 113 402 225 172 130 0 
-64 113 402 232 179 137 0 
-64 113 402 165 116 84 0 
-63 113 402 144 95 63 0 
-62 113 402 227 178 148 0 
-62 113 403 225 176 146 0 
-61 113 404 231 181 148 0 
-61 114 405 219 169 136 0 
-60 114 405 204 154 117 0 
-59 114 405 183 133 96 0 
-59 114 406 160 112 74 0 
-69 114 405 170 114 81 0 
-68 114 404 185 127 81 0 
-67 114 403 210 152 106 0 
-66 114 403 216 156 119 0 
-65 113 402 218 158 121 0 
-65 113 402 215 164 121 0 
-64 113 402 227 176 133 0 
-64 113 402 151 96 65 0 
-63 113 402 147 92 61 0 
-62 113 402 220 169 138 0 
-62 113 402 219 168 137 0 
-61 114 403 226 171 140 0 
-61 114 404 209 154 123 0 
-60 114 405 190 137 95 0 
-59 114 405 174 121 79 0 
-59 115 406 163 118 85 0 
-69 115 406 174 120 86 0 
-68 115 404 164 110 76 0 
-68 114 403 168 112 65 0 
-67 114 402 186 130 83 0 
-66 114 402 194 139 100 0 
-65 114 402 196 141 102 0 
-65 114 401 203 152 109 0 
-64 114 401 205 154 111 0 
-64 114 402 132 79 47 0 
-63 114 402 136 83 51 0 
-62 114 402 202 153 121 0 
-62 114 402 201 152 120 0 
-61 114 403 206 151 121 0 
-61 115 404 188 133 103 0 
-60 115 404 165 113 73 0 
-59 115 405 181 129 89 0 
-59 115 406 181 138 106 0 
-68 115 404 198 142 109 0 
-68 115 403 198 139 95 0 
-67 115 402 196 137 93 0 
-66 114 401 195 140 99 0 
-65 114 401 196 141 100 0 
-65 114 401 202 150 110 0 
-64 114 401 194 142 102 0 
-64 115 402 157 103 69 0 
-63 115 402 167 113 79 0 
-62 115 402 199 149 116 0 
-62 115 402 194 144 111 0 
-61 115 403 193 137 110 0 
-61 115 404 175 119 92 0 
-60 115 404 157 107 70 0 
-67 115 402 230 167 124 0 
-66 115 401 230 175 134 0 
-65 115 401 234 179 138 0 
-65 115 401 241 186 147 0 
-64 115 401 237 182 143 0 
-63 115 401 231 175 140 0 
-63 115 401 238 182 147 0 
-62 115 401 238 185 151 0 
-61 115 401 221 168 134 0 
-61 115 402 211 155 128 0 
