ply
format ascii 1.0
comment Created by CloudCompare v2.10.1 (Zephyrus)
comment Created 2020-05-06 8:39 PM
obj_info Generated by CloudCompare!
element vertex 119
property float x
property float y
property float z
property uchar red
property uchar green
property uchar blue
end_header
-152 24 410 242 203 186 
-151 24 408 248 202 179 
-150 24 407 240 194 171 
-149 24 407 198 152 129 
-149 24 407 166 120 97 
-153 25 411 226 181 158 
-152 25 408 242 197 174 
-151 25 407 249 200 170 
-150 25 406 245 196 166 
-149 25 406 175 129 106 
-148 25 406 145 99 76 
-148 25 406 178 130 108 
-153 25 410 223 183 158 
-152 25 408 229 189 164 
-151 25 407 233 183 160 
-150 25 406 199 149 126 
-149 25 406 199 145 119 
-148 25 406 237 183 157 
-148 25 406 224 178 152 
-153 26 410 218 176 151 
-152 26 408 225 183 158 
-151 26 407 205 153 129 
-150 26 407 183 131 107 
-149 26 407 245 191 165 
-149 26 407 255 213 187 
-148 26 407 253 206 180 
-153 27 410 209 164 135 
-152 27 408 198 153 124 
-151 27 408 192 136 109 
-150 27 407 221 165 138 
-149 27 407 254 200 174 
-149 27 407 255 204 178 
-148 27 407 255 208 183 
-147 27 407 255 208 183 
-147 27 407 218 161 132 
-154 27 410 168 122 98 
-154 27 410 178 132 108 
-153 27 409 205 155 128 
-152 27 408 186 136 109 
-151 27 408 201 144 114 
-150 27 408 245 188 158 
-150 27 408 241 187 159 
-149 27 407 247 193 165 
-148 27 407 249 199 172 
-147 27 407 246 196 169 
-147 27 407 247 192 162 
-154 28 410 169 122 102 
-153 28 409 186 139 119 
-152 28 408 204 154 131 
-152 28 408 178 128 105 
-151 28 408 210 154 121 
-150 28 408 235 179 146 
-150 28 408 235 182 150 
-149 28 408 230 177 145 
-148 28 408 225 174 143 
-148 28 408 236 185 154 
-147 28 408 244 191 157 
-147 28 408 240 187 153 
-154 29 409 177 130 112 
-153 29 409 196 149 131 
-152 29 408 194 146 126 
-152 29 408 178 130 110 
-151 29 408 203 147 112 
-151 29 409 219 163 128 
-150 29 409 221 168 134 
-149 29 409 228 175 141 
-148 29 408 224 171 137 
-148 29 408 223 170 136 
-148 29 409 229 179 142 
-147 29 409 233 183 146 
-146 29 409 242 191 162 
-154 29 408 207 169 150 
-154 29 408 204 157 137 
-153 29 408 214 167 147 
-152 29 408 182 135 117 
-152 29 408 174 127 109 
-151 29 408 195 139 102 
-150 29 408 206 150 113 
-150 29 408 200 148 111 
-149 29 409 211 159 122 
-148 29 408 225 169 134 
-148 29 409 218 162 127 
-148 29 409 213 165 129 
-147 29 409 230 182 146 
-146 29 409 210 165 146 
-146 29 409 170 125 106 
-152 30 408 192 147 128 
-152 30 408 165 120 101 
-151 30 408 184 128 91 
-150 30 408 188 132 95 
-150 30 408 186 134 97 
-149 30 409 195 143 106 
-149 30 409 208 149 115 
-148 30 409 210 151 117 
-148 30 410 200 151 118 
-147 30 410 183 134 101 
-147 30 410 123 85 72 
-146 30 410 103 65 52 
-152 30 407 215 164 137 
-151 30 407 182 131 104 
-151 30 407 188 131 102 
-150 30 407 182 125 96 
-150 31 408 180 131 98 
-149 31 409 182 133 100 
-149 31 409 188 133 94 
-148 31 409 169 114 75 
-148 31 410 120 91 77 
-147 31 410 108 79 65 
-150 31 407 183 128 97 
-150 31 408 169 119 86 
-149 31 409 170 120 87 
-149 31 409 174 118 81 
-148 31 409 137 81 44 
-148 31 410 80 55 48 
-147 31 410 96 71 64 
-149 32 408 168 115 83 
-149 32 409 166 111 80 
-149 32 410 151 96 65 
-148 32 410 99 83 83 
