ply
format ascii 1.0
comment Created by CloudCompare v2.10.1 (Zephyrus)
comment Created 2020-05-06 8:40 PM
obj_info Generated by CloudCompare!
element vertex 1518
property float x
property float y
property float z
property uchar red
property uchar green
property uchar blue
end_header
-87 -51 416 219 191 179 
-86 -51 414 214 186 165 
-88 -50 415 203 185 171 
-87 -50 415 233 190 171 
-87 -50 414 242 199 180 
-86 -50 413 251 204 176 
-85 -50 413 240 193 165 
-89 -49 414 218 185 166 
-88 -49 414 229 196 177 
-87 -49 413 240 199 177 
-86 -49 412 244 203 181 
-85 -49 411 252 210 185 
-85 -49 411 255 213 188 
-84 -49 411 249 203 170 
-89 -49 414 213 185 171 
-88 -49 412 234 197 178 
-87 -49 412 241 204 185 
-87 -48 411 247 207 182 
-86 -48 411 250 210 185 
-85 -48 410 255 215 189 
-84 -48 410 255 216 190 
-84 -48 410 255 212 183 
-83 -48 410 255 213 184 
-90 -48 414 228 191 173 
-89 -48 412 237 200 182 
-88 -48 411 244 206 183 
-87 -48 411 248 210 187 
-86 -48 410 250 213 187 
-86 -48 410 253 216 190 
-85 -48 410 255 219 193 
-84 -48 410 255 219 193 
-84 -48 410 255 220 193 
-83 -48 410 255 222 195 
-90 -47 413 239 201 182 
-89 -47 412 241 200 178 
-89 -47 411 246 205 183 
-88 -47 410 247 209 186 
-87 -47 410 250 212 189 
-86 -47 410 251 215 191 
-86 -47 409 255 219 195 
-85 -47 409 255 223 198 
-84 -47 410 255 222 197 
-84 -47 410 255 222 197 
-83 -47 410 255 223 198 
-82 -47 410 255 224 196 
-82 -47 410 255 220 192 
-81 -47 411 225 181 152 
-81 -47 411 188 144 115 
-92 -47 415 230 189 169 
-91 -47 413 238 196 172 
-90 -46 411 247 205 181 
-89 -46 410 246 206 181 
-88 -46 409 250 210 185 
-88 -46 409 250 214 190 
-87 -46 409 253 217 193 
-86 -46 409 255 219 197 
-86 -46 409 255 222 200 
-85 -46 409 255 223 201 
-84 -46 409 255 222 200 
-84 -46 409 255 222 200 
-83 -46 409 255 221 199 
-82 -46 409 255 224 199 
-82 -46 410 254 222 197 
-81 -46 410 253 214 185 
-92 -46 413 241 196 173 
-91 -46 411 244 202 177 
-90 -46 410 251 209 184 
-89 -46 409 247 209 186 
-88 -45 408 252 214 191 
-87 -45 408 252 217 195 
-87 -45 408 254 219 197 
-86 -45 408 255 220 198 
-85 -45 408 255 221 199 
-85 -46 409 255 221 200 
-84 -46 409 255 220 199 
-84 -46 409 255 219 200 
-83 -46 409 255 221 202 
-82 -46 409 255 221 196 
-82 -46 410 255 222 197 
-81 -46 410 255 217 191 
-94 -45 414 203 158 135 
-93 -45 413 232 187 164 
-92 -45 412 241 194 168 
-91 -45 411 248 201 175 
-90 -45 410 254 208 184 
-89 -45 409 255 212 188 
-89 -45 408 253 212 192 
-88 -45 408 255 215 195 
-87 -45 408 254 217 198 
-86 -45 407 255 219 200 
-86 -45 408 255 219 200 
-85 -45 408 255 219 200 
-85 -45 408 255 220 199 
-84 -45 409 255 218 197 
-84 -45 409 255 226 207 
-83 -45 409 254 219 200 
-82 -45 409 255 219 198 
-82 -45 410 254 216 195 
-81 -45 410 255 213 190 
-80 -45 410 255 217 194 
-80 -45 410 255 205 178 
-93 -44 412 234 188 162 
-93 -44 411 239 193 167 
-92 -44 410 248 198 171 
-91 -44 410 255 206 179 
-90 -44 409 255 210 188 
-89 -44 409 255 217 195 
-89 -44 408 255 213 194 
-88 -44 408 255 215 196 
-87 -44 408 255 217 198 
-86 -44 407 255 219 200 
-86 -44 408 255 221 202 
-85 -44 408 255 221 202 
-85 -44 409 255 220 199 
-84 -44 409 255 217 196 
-84 -44 409 250 217 198 
-83 -44 409 254 221 202 
-82 -44 409 255 216 199 
-82 -44 409 255 214 197 
-81 -44 410 255 208 187 
-80 -44 410 254 203 182 
-80 -44 410 255 204 177 
-79 -44 411 253 202 175 
-79 -44 411 234 179 149 
-94 -44 413 231 183 163 
-93 -44 411 240 192 170 
-92 -44 410 242 194 172 
-91 -44 409 248 200 178 
-91 -44 409 253 205 183 
-90 -43 408 252 210 188 
-89 -43 408 255 214 192 
-89 -43 408 255 217 194 
-88 -43 407 255 217 194 
-87 -43 407 253 219 194 
-86 -43 407 254 220 195 
-86 -43 407 255 223 198 
-85 -43 408 255 221 196 
-85 -43 408 250 218 193 
-84 -44 409 252 220 195 
-84 -44 409 255 218 199 
-83 -44 409 254 216 197 
-82 -44 409 255 216 183 
-82 -44 409 254 215 182 
-81 -44 410 251 212 181 
-80 -44 410 246 207 176 
-80 -44 410 254 200 176 
-79 -44 411 250 196 172 
-79 -44 411 243 194 162 
-78 -44 412 219 170 138 
-78 -44 412 175 117 93 
-95 -43 413 228 180 160 
-94 -43 411 241 193 173 
-93 -43 410 246 198 176 
-92 -43 409 248 200 178 
-91 -43 409 252 206 183 
-91 -43 408 255 209 186 
-90 -43 408 254 212 190 
-89 -43 407 255 215 193 
-88 -43 407 255 218 195 
-88 -43 407 255 219 196 
-87 -43 407 255 220 196 
-86 -43 407 255 220 196 
-86 -43 407 255 221 196 
-85 -43 408 253 219 194 
-85 -43 408 250 218 195 
-84 -43 409 251 219 196 
-84 -43 409 255 212 193 
-83 -43 409 255 212 193 
-82 -43 409 255 213 186 
-82 -43 409 255 212 185 
-81 -43 410 252 207 176 
-80 -43 410 247 202 171 
-80 -43 410 248 197 170 
-79 -43 411 242 191 164 
-79 -43 411 234 188 155 
-78 -43 412 220 174 141 
-78 -43 412 196 144 120 
-77 -43 413 163 111 87 
-96 -43 413 237 192 173 
-95 -42 411 239 193 170 
-93 -42 409 245 199 176 
-93 -42 409 248 202 179 
-92 -42 409 252 206 183 
-91 -42 408 255 211 188 
-91 -42 408 255 211 188 
-90 -42 407 255 213 191 
-89 -42 407 255 216 194 
-88 -42 407 255 218 196 
-88 -42 407 255 218 196 
-87 -42 407 255 219 196 
-86 -42 407 255 218 195 
-86 -42 408 253 217 193 
-85 -42 408 253 217 193 
-85 -42 408 251 216 194 
-84 -42 408 251 216 194 
-84 -42 409 255 211 192 
-83 -42 409 255 211 192 
-82 -42 409 254 212 188 
-82 -42 409 252 210 186 
-81 -42 410 253 204 171 
-80 -42 410 247 198 165 
-80 -42 411 243 193 166 
-79 -42 411 235 185 158 
-79 -42 411 226 180 147 
-78 -43 412 210 164 131 
-78 -43 412 198 146 122 
-77 -43 413 170 118 94 
-95 -42 411 244 197 177 
-94 -42 410 244 198 175 
-93 -41 408 250 204 181 
-93 -41 408 251 206 183 
-92 -41 408 253 208 185 
-91 -41 408 254 212 188 
-91 -41 408 253 211 187 
-90 -41 407 253 213 188 
-89 -41 407 255 215 190 
-88 -41 407 255 216 194 
-88 -41 407 255 216 194 
-87 -41 407 255 216 194 
-86 -41 407 255 215 193 
-86 -41 408 253 215 192 
-85 -41 408 253 215 192 
-85 -41 408 251 215 193 
-84 -41 408 250 214 192 
-84 -42 409 253 213 188 
-83 -42 409 252 212 187 
-82 -42 409 249 208 186 
-82 -42 409 246 205 183 
-81 -42 410 247 199 163 
-80 -42 410 243 195 159 
-80 -42 411 239 189 162 
-79 -42 411 231 181 154 
-79 -42 411 223 172 141 
-78 -42 412 204 153 122 
-78 -42 412 187 129 107 
-77 -42 412 167 109 87 
-96 -41 412 245 197 175 
-95 -41 411 248 200 178 
-94 -41 409 246 202 177 
-93 -41 408 253 209 184 
-93 -41 408 253 211 187 
-92 -41 408 252 210 186 
-91 -41 408 253 213 188 
-91 -41 408 254 214 189 
-90 -41 408 255 215 190 
-89 -41 408 255 216 191 
-88 -41 407 255 213 191 
-88 -41 407 255 214 192 
-87 -41 407 255 214 192 
-87 -41 408 255 214 192 
-86 -41 408 254 213 191 
-85 -41 408 254 213 191 
-85 -41 408 251 213 190 
-84 -41 408 249 211 188 
-84 -41 409 254 210 181 
-83 -41 409 251 207 178 
-82 -41 409 246 201 180 
-82 -41 410 242 197 176 
-81 -41 410 242 193 160 
-80 -41 410 239 190 157 
-80 -41 410 232 185 159 
-79 -41 411 222 175 149 
-79 -41 411 212 161 130 
-78 -41 412 194 143 112 
-78 -41 412 175 118 98 
-77 -41 413 166 109 89 
-97 -41 413 231 186 165 
-96 -40 411 253 203 180 
-95 -40 410 253 203 180 
-94 -40 409 245 203 178 
-93 -40 408 253 211 186 
-93 -40 408 254 212 188 
-92 -40 408 253 211 187 
-91 -40 408 254 214 189 
-91 -40 408 255 216 191 
-90 -40 407 255 216 192 
-89 -40 407 255 215 191 
-88 -40 407 254 212 188 
-88 -40 407 255 213 189 
-87 -40 407 255 214 192 
-86 -40 407 255 213 191 
-86 -40 408 253 212 190 
-85 -40 408 252 211 189 
-85 -40 408 250 209 187 
-84 -40 409 249 208 186 
-84 -40 409 255 205 176 
-83 -40 409 252 201 172 
-82 -40 410 249 197 173 
-82 -40 410 246 194 170 
-81 -40 411 240 191 159 
-81 -40 411 236 187 155 
-80 -40 411 227 177 152 
-79 -40 411 213 163 138 
-79 -41 412 200 150 123 
-78 -41 413 181 131 104 
-78 -41 413 156 113 94 
-77 -41 413 162 119 100 
-98 -40 413 234 186 164 
-97 -40 411 246 198 176 
-96 -40 410 255 202 176 
-95 -40 409 255 210 184 
-94 -39 408 249 207 182 
-93 -39 408 253 211 186 
-93 -39 408 253 213 188 
-92 -39 408 254 214 189 
-91 -39 408 255 213 189 
-91 -39 408 255 213 189 
-90 -39 407 255 213 189 
-89 -39 407 253 211 187 
-88 -39 407 254 212 188 
-88 -39 407 253 211 187 
-87 -39 407 253 212 190 
-86 -39 407 252 211 189 
-86 -39 407 251 209 187 
-85 -39 408 250 208 186 
-85 -39 408 251 206 183 
-84 -40 409 250 205 182 
-84 -40 409 251 202 170 
-83 -40 409 248 199 167 
-82 -40 410 249 195 167 
-82 -40 410 246 192 164 
-81 -40 411 233 188 157 
-81 -40 411 226 181 150 
-80 -40 411 219 168 141 
-80 -40 412 204 153 126 
-79 -40 412 194 144 119 
-78 -40 413 169 119 94 
-78 -40 413 148 119 105 
-98 -39 412 228 187 169 
-97 -39 411 247 197 174 
-96 -39 410 252 202 179 
-95 -39 409 255 206 178 
-95 -39 408 255 212 184 
-94 -39 408 250 210 185 
-93 -39 408 251 211 186 
-93 -39 408 253 213 188 
-92 -39 408 255 215 190 
-91 -39 408 255 213 189 
-91 -39 408 255 213 189 
-90 -39 407 255 215 191 
-89 -39 407 255 215 191 
-88 -39 407 253 211 187 
-88 -39 407 251 209 185 
-87 -39 407 250 209 187 
-87 -39 408 250 209 187 
-86 -39 408 249 207 185 
-85 -39 408 249 207 185 
-85 -39 408 251 206 183 
-84 -39 409 248 203 180 
-84 -39 409 242 201 169 
-83 -39 409 239 198 166 
-82 -39 410 243 193 160 
-82 -39 410 238 188 155 
-81 -39 411 220 181 148 
-81 -39 411 212 173 140 
-80 -39 412 214 160 132 
-80 -39 412 201 147 119 
-79 -39 413 187 132 111 
-78 -39 413 164 109 88 
-99 -39 413 228 181 163 
-98 -38 411 235 188 170 
-97 -38 410 242 200 176 
-96 -38 410 245 203 179 
-95 -38 409 248 209 178 
-95 -38 408 245 206 175 
-94 -38 408 250 207 188 
-93 -38 408 252 209 190 
-93 -38 408 255 212 193 
-92 -38 408 255 212 193 
-91 -38 408 255 212 193 
-91 -38 408 255 212 193 
-90 -38 408 255 210 187 
-89 -38 407 253 208 185 
-88 -38 407 255 211 188 
-88 -38 407 255 211 188 
-87 -38 408 254 208 185 
-87 -38 408 253 207 184 
-86 -38 408 252 206 182 
-85 -38 408 250 204 180 
-85 -38 408 247 201 175 
-84 -38 409 246 200 174 
-84 -38 409 250 201 169 
-83 -38 409 245 196 164 
-82 -38 410 239 191 155 
-82 -38 411 233 185 149 
-81 -38 411 224 173 144 
-81 -38 411 216 165 136 
-80 -39 412 204 157 129 
-80 -39 412 187 140 112 
-79 -39 413 168 117 90 
-78 -39 413 165 114 87 
-99 -38 412 227 178 163 
-99 -38 411 237 189 167 
-97 -38 409 239 191 169 
-97 -37 408 245 201 176 
-96 -37 408 248 204 179 
-95 -37 408 250 209 179 
-95 -37 408 246 205 175 
-94 -37 408 252 207 186 
-93 -37 408 254 209 188 
-93 -37 408 255 210 189 
-92 -37 408 255 211 190 
-91 -37 408 255 211 188 
-91 -37 408 255 211 188 
-90 -37 408 254 208 184 
-89 -37 408 252 206 182 
-88 -37 407 252 206 180 
-88 -37 407 253 207 181 
-87 -37 408 252 206 180 
-87 -37 408 251 205 179 
-86 -37 408 250 203 177 
-85 -37 408 247 200 174 
-85 -37 408 244 197 169 
-84 -38 409 243 196 168 
-84 -38 409 243 194 162 
-83 -38 410 239 190 158 
-82 -38 410 233 184 151 
-82 -38 411 226 177 144 
-81 -38 411 217 168 138 
-81 -38 412 209 160 130 
-80 -38 412 192 145 115 
-80 -38 413 172 125 95 
-79 -38 413 155 114 94 
-79 -38 414 167 126 106 
-100 -37 411 219 171 151 
-99 -37 410 233 185 165 
-98 -37 410 237 190 164 
-97 -37 409 241 194 168 
-97 -37 408 246 201 172 
-96 -37 408 251 206 177 
-95 -37 407 254 209 180 
-94 -37 407 250 205 176 
-94 -37 407 252 206 183 
-93 -37 407 253 207 184 
-92 -37 407 253 207 184 
-92 -37 407 254 208 185 
-91 -37 407 254 208 184 
-90 -37 407 252 206 182 
-90 -37 407 249 203 177 
-89 -37 407 248 202 176 
-88 -37 407 248 201 173 
-88 -37 407 248 201 173 
-87 -37 407 247 200 170 
-86 -37 407 245 198 168 
-86 -37 408 244 197 167 
-85 -37 408 241 194 164 
-85 -37 409 241 192 160 
-84 -37 409 240 191 159 
-84 -37 410 239 190 158 
-83 -37 410 232 183 151 
-83 -37 411 223 177 143 
-82 -37 412 216 170 136 
-82 -37 412 212 163 133 
-81 -37 412 201 152 122 
-80 -37 413 178 133 100 
-80 -37 414 159 114 81 
-100 -36 410 229 181 158 
-99 -36 409 235 187 164 
-98 -36 409 243 196 168 
-97 -36 408 247 200 172 
-97 -36 408 249 202 174 
-96 -36 407 253 206 178 
-95 -36 407 254 207 179 
-94 -36 407 253 206 178 
-94 -36 407 250 204 178 
-93 -36 407 253 207 181 
-92 -36 407 255 209 183 
-92 -36 407 255 210 184 
-91 -36 407 255 209 183 
-90 -36 407 251 204 178 
-90 -36 407 247 200 170 
-89 -36 407 245 198 168 
-88 -36 407 245 199 166 
-88 -36 408 242 196 163 
-87 -36 408 240 191 159 
-87 -36 408 239 190 158 
-86 -36 408 239 190 157 
-86 -36 409 239 190 157 
-85 -36 409 236 188 152 
-84 -36 409 234 186 150 
-84 -36 410 233 182 151 
-83 -36 410 224 173 142 
-83 -36 411 217 168 135 
-82 -37 412 213 164 131 
-82 -37 412 206 157 127 
-81 -37 413 190 141 111 
-80 -37 413 164 123 91 
-80 -37 414 156 115 83 
-101 -36 411 231 184 168 
-99 -36 409 235 188 162 
-98 -35 408 239 192 166 
-98 -35 408 248 201 171 
-97 -35 407 250 203 173 
-96 -35 407 248 201 171 
-96 -35 407 251 204 174 
-95 -35 407 255 205 180 
-94 -35 407 255 206 181 
-94 -35 407 239 193 167 
-93 -35 407 242 196 170 
-92 -35 407 249 202 174 
-92 -35 407 253 206 178 
-91 -35 407 252 205 177 
-90 -35 407 248 201 173 
-90 -35 407 244 197 167 
-89 -35 407 242 195 165 
-88 -35 407 243 194 162 
-88 -35 408 239 190 158 
-87 -35 408 235 186 153 
-87 -35 408 235 186 153 
-86 -35 408 236 188 152 
-86 -36 409 235 187 151 
-85 -36 409 232 184 148 
-84 -36 409 227 179 143 
-84 -36 410 224 173 142 
-83 -36 411 216 165 134 
-83 -36 412 213 164 131 
-82 -36 412 210 161 128 
-82 -36 412 197 148 116 
-81 -36 413 174 125 93 
-81 -36 414 150 119 91 
-100 -35 410 234 186 166 
-99 -35 409 236 189 159 
-98 -35 408 240 193 163 
-98 -35 407 249 203 170 
-97 -35 407 249 203 170 
-96 -35 407 250 201 171 
-96 -35 407 254 205 175 
-95 -35 407 254 202 178 
-94 -35 407 254 202 178 
-94 -35 407 240 193 165 
-93 -35 407 240 193 165 
-92 -35 407 242 195 167 
-92 -35 407 243 196 168 
-91 -35 407 243 196 166 
-90 -35 407 241 194 164 
-90 -35 407 243 194 164 
-89 -35 407 242 193 163 
-88 -35 407 238 189 157 
-88 -35 408 234 185 153 
-87 -35 408 233 183 150 
-87 -35 408 234 184 151 
-86 -35 408 234 184 149 
-86 -35 409 231 181 146 
-85 -35 409 225 175 140 
-84 -35 410 219 169 134 
-84 -35 410 216 165 134 
-83 -35 411 210 159 128 
-83 -35 411 209 160 127 
-82 -35 412 203 154 121 
-82 -35 413 184 135 103 
-81 -35 413 164 115 83 
-101 -34 411 237 187 164 
-100 -34 410 241 191 168 
-99 -34 409 242 196 163 
-98 -34 408 244 198 165 
-98 -34 407 250 204 170 
-97 -34 407 250 204 170 
-96 -34 407 253 204 174 
-96 -34 407 255 206 176 
-95 -34 407 255 201 177 
-94 -34 407 254 200 176 
-94 -34 407 253 203 176 
-93 -34 407 250 200 173 
-93 -34 408 247 198 168 
-92 -34 408 244 195 165 
-91 -34 407 241 192 160 
-91 -34 408 240 191 159 
-90 -34 407 239 190 158 
-89 -34 408 239 190 158 
-89 -34 408 237 186 155 
-88 -34 408 233 182 151 
-87 -34 408 230 180 145 
-87 -34 408 228 178 143 
-86 -34 409 228 175 141 
-86 -34 409 225 172 138 
-85 -34 409 219 166 132 
-84 -34 410 213 160 126 
-84 -34 411 210 159 130 
-83 -34 411 204 153 124 
-83 -35 412 198 149 117 
-82 -35 413 189 140 108 
-82 -35 414 170 123 93 
-102 -34 413 229 183 167 
-101 -34 411 245 193 169 
-100 -34 409 250 198 174 
-99 -34 409 247 198 166 
-98 -33 408 247 198 166 
-98 -33 408 247 201 167 
-97 -33 407 247 201 167 
-96 -33 407 251 200 169 
-96 -33 408 252 201 170 
-95 -33 408 254 198 173 
-94 -33 407 255 200 175 
-94 -33 407 248 199 169 
-93 -33 407 247 198 168 
-93 -33 408 245 196 164 
-92 -33 408 242 193 161 
-91 -33 407 242 191 160 
-91 -33 408 240 189 158 
-90 -33 408 238 187 156 
-89 -33 408 237 186 155 
-89 -33 408 238 188 155 
-88 -33 408 232 182 149 
-88 -34 409 228 175 141 
-87 -34 409 223 170 136 
-86 -34 409 220 167 133 
-86 -34 409 217 164 130 
-85 -34 410 213 160 126 
-85 -34 411 208 155 121 
-84 -34 411 202 152 125 
-84 -34 412 194 144 117 
-83 -34 413 186 137 105 
-82 -34 413 175 126 94 
-82 -34 414 161 116 87 
-102 -33 410 235 185 162 
-101 -33 410 241 197 172 
-100 -33 409 241 197 172 
-99 -33 408 247 202 169 
-98 -33 408 248 203 170 
-98 -33 408 250 202 166 
-97 -33 408 250 202 166 
-97 -33 408 252 203 173 
-96 -33 408 251 202 172 
-95 -33 408 250 198 174 
-95 -33 408 249 197 173 
-94 -33 408 248 201 171 
-93 -33 408 245 198 168 
-93 -33 408 241 194 164 
-92 -33 408 240 193 163 
-91 -33 408 244 191 160 
-91 -33 408 241 188 157 
-90 -33 408 238 185 153 
-89 -33 408 238 185 153 
-89 -33 408 232 186 150 
-88 -33 408 228 182 146 
-88 -33 409 227 175 138 
-87 -33 409 221 169 132 
-86 -33 410 221 165 128 
-86 -33 410 218 162 125 
-85 -33 411 204 159 117 
-85 -33 411 197 152 110 
-84 -33 412 192 141 110 
-84 -33 412 187 136 105 
-83 -33 413 171 123 100 
-83 -33 414 164 116 93 
-103 -32 412 237 187 162 
-102 -32 410 239 189 164 
-101 -32 409 240 196 171 
-100 -32 409 246 202 177 
-99 -32 408 248 203 170 
-98 -32 408 249 204 171 
-98 -32 408 252 204 168 
-97 -32 408 252 204 168 
-97 -32 408 252 202 175 
-96 -32 408 251 201 174 
-95 -32 408 251 199 175 
-95 -32 408 251 199 175 
-94 -32 408 250 199 170 
-93 -32 408 246 195 166 
-93 -32 408 240 191 159 
-92 -32 408 239 190 158 
-91 -32 408 242 189 155 
-91 -32 408 239 186 152 
-90 -32 408 236 182 144 
-89 -32 408 235 181 143 
-89 -32 408 230 182 142 
-88 -32 408 223 175 135 
-88 -32 409 220 168 129 
-87 -32 409 217 165 126 
-86 -32 410 212 158 122 
-86 -32 410 207 153 117 
-85 -32 411 196 152 115 
-85 -32 411 192 148 111 
-84 -32 412 187 136 107 
-84 -32 412 177 126 97 
-83 -33 413 155 126 110 
-83 -33 414 159 130 114 
-103 -32 411 241 191 166 
-101 -32 409 243 193 168 
-101 -32 409 241 197 170 
-100 -32 409 249 205 178 
-99 -31 408 251 205 172 
-98 -31 408 251 205 172 
-98 -31 408 253 204 171 
-97 -31 408 252 203 170 
-97 -31 408 250 203 175 
-96 -31 408 249 202 174 
-95 -31 408 251 199 175 
-95 -31 408 252 200 176 
-94 -31 408 253 197 172 
-93 -31 408 249 193 168 
-93 -31 408 237 191 157 
-92 -31 408 235 189 155 
-91 -31 408 238 189 149 
-91 -31 408 235 186 146 
-90 -31 408 233 180 140 
-89 -31 408 230 177 137 
-89 -32 409 224 175 134 
-88 -32 409 216 167 126 
-88 -32 410 214 162 123 
-87 -32 410 211 159 120 
-86 -32 410 205 152 118 
-86 -32 411 202 149 115 
-86 -32 412 192 147 116 
-85 -32 413 185 140 109 
-84 -32 413 179 127 105 
-84 -32 413 172 120 98 
-103 -31 412 233 188 165 
-102 -31 410 241 191 164 
-101 -31 409 247 197 170 
-101 -31 409 245 201 174 
-100 -31 409 249 205 178 
-99 -31 408 251 205 172 
-98 -31 408 251 205 172 
-98 -31 408 253 204 171 
-97 -31 408 252 203 170 
-97 -31 408 249 202 174 
-96 -31 408 248 201 173 
-95 -31 408 249 198 171 
-95 -31 408 249 198 171 
-94 -31 408 250 196 170 
-93 -31 408 247 193 167 
-93 -31 408 236 192 157 
-92 -31 408 232 188 153 
-91 -31 408 232 184 144 
-91 -31 409 229 181 141 
-90 -31 409 227 175 136 
-90 -31 409 223 171 132 
-89 -31 409 217 170 128 
-88 -31 410 212 165 123 
-88 -31 410 209 160 119 
-87 -31 410 204 155 114 
-87 -31 411 201 147 113 
-86 -31 412 198 144 110 
-86 -31 413 187 135 111 
-85 -31 413 174 122 98 
-85 -31 414 166 125 107 
-105 -30 413 214 180 168 
-104 -30 411 232 186 160 
-103 -30 410 236 190 164 
-102 -30 409 246 199 169 
-101 -30 409 250 203 173 
-101 -30 409 249 205 176 
-100 -30 408 249 205 176 
-99 -30 408 252 203 171 
-98 -30 408 252 203 171 
-98 -30 408 252 203 171 
-97 -30 408 251 202 170 
-97 -30 408 248 201 173 
-96 -30 408 246 199 171 
-95 -30 408 248 197 166 
-95 -30 408 246 195 164 
-94 -30 408 242 191 162 
-93 -30 408 241 190 161 
-93 -30 408 234 188 152 
-92 -30 408 229 183 147 
-92 -30 409 228 178 141 
-91 -30 409 223 173 136 
-90 -30 409 218 168 131 
-90 -30 409 213 163 126 
-89 -30 409 208 163 121 
-88 -30 410 204 159 117 
-88 -30 411 204 153 108 
-87 -30 411 200 149 104 
-87 -30 412 197 138 104 
-86 -30 412 190 131 97 
-86 -31 413 177 123 99 
-85 -31 414 169 115 91 
-85 -31 415 155 133 122 
-104 -30 411 227 188 173 
-104 -30 410 234 187 159 
-103 -30 409 242 195 167 
-102 -29 408 250 205 174 
-101 -29 408 248 203 172 
-100 -29 408 250 207 175 
-100 -29 408 253 210 178 
-99 -29 408 251 202 169 
-99 -29 408 251 202 169 
-98 -29 408 253 202 171 
-97 -29 408 252 201 170 
-97 -29 408 247 200 170 
-96 -29 408 245 198 168 
-95 -29 408 246 196 163 
-95 -29 408 245 195 162 
-94 -29 408 239 189 154 
-93 -29 408 237 187 152 
-93 -29 408 234 185 145 
-92 -29 408 230 181 141 
-92 -30 409 227 175 136 
-91 -30 409 221 169 130 
-90 -30 409 215 163 126 
-90 -30 409 209 157 120 
-89 -30 410 204 157 115 
-88 -30 410 197 150 108 
-88 -30 411 198 141 96 
-87 -30 411 195 138 93 
-87 -30 412 186 127 93 
-86 -30 412 177 118 84 
-86 -30 414 168 121 101 
-86 -30 415 173 126 106 
-106 -29 413 203 173 163 
-105 -29 412 230 184 168 
-104 -29 410 235 189 173 
-103 -29 409 243 194 164 
-103 -29 409 247 198 168 
-102 -29 408 249 204 171 
-101 -29 408 250 205 172 
-100 -29 408 251 208 176 
-100 -29 408 254 211 179 
-99 -29 408 253 203 170 
-99 -29 408 252 202 169 
-98 -29 408 252 201 170 
-97 -29 408 251 200 169 
-97 -29 408 247 198 168 
-96 -29 408 244 195 165 
-95 -29 408 246 193 159 
-95 -29 408 244 191 157 
-94 -29 409 238 188 151 
-93 -29 409 234 184 147 
-93 -29 409 232 181 138 
-92 -29 409 228 177 134 
-92 -29 409 224 171 131 
-91 -29 409 218 165 125 
-90 -29 409 208 158 121 
-90 -29 410 201 151 114 
-89 -29 410 202 150 110 
-89 -29 411 193 141 101 
-88 -29 412 193 131 90 
-88 -29 412 185 123 82 
-87 -29 412 167 116 89 
-106 -28 412 221 188 173 
-105 -28 410 234 187 169 
-104 -28 409 240 193 175 
-103 -28 408 253 204 174 
-102 -28 408 251 202 172 
-102 -28 408 247 204 170 
-101 -28 408 255 212 178 
-100 -28 408 252 211 179 
-100 -28 408 251 210 178 
-99 -28 408 254 204 171 
-99 -28 408 252 202 169 
-98 -28 408 251 200 169 
-97 -28 408 249 198 167 
-97 -28 408 245 196 166 
-96 -28 408 242 193 163 
-95 -28 408 243 191 154 
-95 -28 409 241 189 152 
-94 -28 409 236 186 149 
-93 -28 409 231 181 144 
-93 -28 409 228 177 134 
-92 -28 409 223 172 129 
-92 -28 410 219 166 126 
-91 -28 410 212 159 119 
-90 -28 410 201 151 114 
-90 -28 410 194 144 107 
-89 -28 411 191 137 99 
-89 -28 412 185 131 93 
-88 -28 412 185 122 87 
-88 -29 413 174 111 76 
-87 -29 413 151 108 91 
-87 -29 414 163 120 103 
-106 -28 411 231 188 169 
-105 -28 409 241 197 168 
-104 -28 409 247 203 174 
-103 -27 408 251 207 178 
-102 -27 407 250 206 177 
-102 -27 407 250 205 174 
-101 -27 407 249 204 173 
-100 -27 407 250 203 173 
-100 -27 407 252 205 175 
-99 -27 407 254 208 175 
-98 -27 407 249 203 170 
-98 -27 407 248 199 167 
-97 -27 408 247 198 166 
-97 -27 408 244 194 161 
-96 -28 408 242 192 159 
-95 -28 409 240 190 157 
-95 -28 409 237 187 154 
-94 -28 409 238 179 147 
-93 -28 409 237 178 146 
-93 -28 409 226 172 136 
-92 -28 410 220 166 130 
-92 -28 410 217 164 120 
-91 -28 410 209 156 112 
-91 -28 411 202 143 99 
-90 -28 411 198 139 95 
-90 -28 412 189 135 101 
-89 -28 412 175 121 87 
-88 -28 413 165 112 81 
-88 -28 414 166 113 82 
-107 -27 412 234 189 166 
-106 -27 410 242 197 174 
-105 -27 409 244 200 171 
-104 -27 408 248 204 175 
-103 -27 408 252 207 176 
-102 -27 407 252 207 176 
-102 -27 407 252 207 176 
-101 -27 407 251 206 175 
-100 -27 407 251 205 172 
-100 -27 407 251 205 172 
-99 -27 407 252 203 170 
-98 -27 407 248 199 166 
-98 -27 408 247 197 164 
-97 -27 408 245 195 162 
-97 -27 408 240 190 155 
-96 -27 408 237 187 152 
-95 -27 408 234 184 149 
-95 -27 408 229 179 144 
-94 -27 408 232 176 141 
-93 -27 408 225 169 134 
-93 -27 409 220 166 128 
-92 -27 410 217 163 125 
-92 -27 410 209 155 111 
-91 -27 410 200 146 102 
-91 -27 411 192 139 99 
-90 -27 412 188 135 95 
-90 -27 412 181 123 86 
-89 -27 413 172 114 77 
-88 -27 413 155 118 99 
-107 -26 412 229 193 177 
-106 -26 410 241 196 167 
-105 -26 409 248 203 174 
-104 -26 408 251 206 177 
-103 -26 407 251 206 177 
-103 -26 407 252 207 176 
-102 -26 407 253 208 177 
-102 -26 407 253 206 176 
-101 -26 407 252 205 175 
-100 -26 407 252 203 171 
-100 -26 407 251 202 170 
-99 -26 407 250 201 168 
-98 -26 407 247 198 165 
-98 -26 408 246 196 161 
-97 -26 408 242 192 157 
-97 -26 408 238 186 149 
-96 -26 408 234 182 145 
-95 -26 408 230 178 141 
-95 -26 408 225 173 136 
-94 -26 409 224 171 131 
-93 -26 409 220 167 127 
-93 -26 410 211 158 118 
-92 -26 410 207 154 114 
-92 -26 411 206 148 108 
-91 -26 411 196 138 98 
-91 -26 412 183 129 93 
-90 -26 412 180 126 90 
-90 -27 414 166 112 78 
-89 -27 414 168 114 80 
-89 -27 414 145 132 126 
-108 -26 412 225 187 166 
-107 -26 410 235 197 176 
-106 -26 409 248 202 169 
-105 -25 408 253 207 174 
-104 -25 408 254 209 180 
-103 -25 407 253 208 179 
-103 -25 407 252 207 178 
-102 -25 407 252 207 178 
-102 -25 407 252 205 175 
-101 -25 407 250 203 173 
-100 -25 407 249 200 168 
-100 -25 407 247 198 166 
-99 -25 407 248 198 163 
-99 -26 408 245 195 160 
-98 -26 408 244 194 157 
-97 -26 408 240 190 153 
-97 -26 408 236 184 145 
-96 -26 409 231 179 140 
-95 -26 409 225 173 134 
-95 -26 409 219 167 128 
-94 -26 409 217 165 118 
-94 -26 409 210 158 111 
-93 -26 410 205 152 110 
-92 -26 410 201 148 106 
-92 -26 411 200 142 104 
-92 -26 412 192 134 96 
-91 -26 412 180 120 84 
-90 -26 413 168 108 72 
-90 -26 414 154 116 95 
-90 -26 415 165 127 106 
-109 -25 412 226 192 182 
-108 -25 411 236 194 170 
-107 -25 409 242 200 176 
-106 -25 408 253 207 174 
-105 -25 408 255 209 176 
-104 -25 408 253 207 181 
-103 -25 407 252 206 180 
-103 -25 407 253 206 178 
-102 -25 407 254 207 179 
-102 -25 407 252 205 175 
-101 -25 407 248 201 171 
-100 -25 407 246 197 165 
-100 -25 407 244 195 163 
-99 -25 408 242 192 157 
-99 -25 408 241 191 156 
-98 -25 408 243 191 152 
-97 -25 409 240 188 149 
-97 -25 409 233 181 141 
-96 -25 409 226 174 134 
-95 -25 409 219 168 125 
-95 -25 409 211 160 117 
-94 -25 410 208 156 108 
-94 -25 410 203 151 103 
-93 -25 410 199 146 102 
-93 -25 411 196 143 99 
-92 -25 411 188 132 97 
-92 -25 412 177 121 86 
-91 -25 413 171 111 74 
-91 -25 414 166 106 69 
-109 -24 412 224 185 168 
-108 -24 411 234 195 178 
-108 -24 410 244 198 172 
-107 -24 409 252 206 180 
-106 -24 408 254 207 177 
-105 -24 408 255 209 179 
-104 -24 408 252 206 180 
-103 -24 407 252 206 180 
-103 -24 407 253 206 180 
-102 -24 407 253 206 180 
-102 -24 407 252 205 175 
-101 -24 407 248 201 171 
-100 -24 407 245 196 163 
-100 -24 408 243 194 161 
-99 -24 408 240 190 153 
-99 -24 408 237 187 150 
-98 -24 409 239 187 147 
-97 -24 409 235 183 143 
-97 -24 409 228 177 134 
-96 -24 409 221 170 127 
-95 -24 409 215 162 118 
-95 -24 409 207 154 110 
-94 -24 410 203 151 104 
-94 -24 410 198 146 99 
-93 -24 411 191 136 95 
-93 -24 411 185 130 89 
-92 -24 412 174 121 89 
-92 -24 413 162 109 77 
-91 -25 414 158 112 86 
-91 -25 414 173 127 101 
-109 -24 411 234 192 170 
-108 -24 411 238 196 174 
-107 -24 409 250 203 177 
-106 -24 408 255 211 185 
-106 -24 408 255 209 183 
-105 -24 408 255 213 187 
-104 -23 407 255 207 184 
-103 -23 407 253 205 182 
-103 -23 407 252 205 179 
-102 -23 407 251 204 178 
-102 -23 407 251 202 172 
-101 -23 407 248 199 169 
-100 -23 407 246 196 163 
-100 -24 408 242 192 159 
-99 -24 408 239 189 152 
-99 -24 408 234 184 147 
-98 -24 409 233 182 139 
-97 -24 409 229 178 135 
-97 -24 409 222 169 125 
-96 -24 410 214 161 117 
-96 -24 410 208 156 109 
-95 -24 410 201 149 102 
-95 -24 411 198 146 106 
-94 -24 411 186 134 94 
-93 -24 411 182 124 84 
-93 -24 412 176 118 78 
-92 -24 413 158 111 83 
-92 -24 414 160 113 85 
-110 -23 412 224 190 178 
-109 -23 411 240 196 171 
-108 -23 410 246 202 177 
-107 -23 409 255 207 180 
-106 -23 408 255 211 184 
-106 -23 408 255 208 186 
-105 -23 408 255 212 190 
-104 -23 408 255 207 182 
-103 -23 407 255 205 180 
-103 -23 407 254 204 177 
-102 -23 407 253 203 176 
-102 -23 407 250 201 171 
-101 -23 407 247 198 168 
-100 -23 407 244 194 159 
-100 -23 408 239 189 154 
-99 -23 409 237 185 146 
-99 -23 409 231 179 140 
-98 -23 409 228 175 133 
-98 -23 410 224 171 129 
-97 -23 410 215 163 116 
-96 -23 410 207 155 108 
-96 -23 411 201 147 100 
-95 -23 411 195 141 94 
-95 -23 411 182 132 95 
-94 -23 412 176 126 89 
-94 -23 412 172 114 74 
-93 -23 413 166 108 68 
-93 -23 414 159 117 92 
-110 -22 411 239 194 171 
-109 -22 410 248 201 175 
-108 -22 410 249 202 176 
-107 -22 409 249 205 180 
-106 -22 408 251 207 182 
-106 -22 408 248 207 185 
-105 -22 408 249 208 186 
-104 -22 408 255 209 175 
-103 -22 407 254 208 174 
-103 -22 407 254 207 177 
-102 -22 408 252 205 175 
-102 -22 407 248 199 167 
-101 -22 407 243 194 162 
-100 -22 408 240 190 153 
-100 -22 408 237 187 150 
-99 -22 408 239 188 145 
-99 -22 409 230 179 136 
-98 -22 409 227 173 129 
-98 -22 410 218 164 120 
-97 -22 410 214 155 115 
-96 -22 410 207 148 108 
-96 -22 411 202 140 103 
-96 -22 412 194 132 95 
-95 -22 412 181 123 83 
-94 -22 412 172 114 74 
-94 -22 413 153 108 89 
-93 -23 414 157 112 93 
-93 -23 415 148 138 137 
-111 -22 412 236 191 168 
-110 -22 411 244 199 176 
-109 -22 410 252 205 177 
-108 -22 409 253 206 178 
-107 -22 409 251 207 182 
-106 -22 408 252 208 183 
-106 -22 408 250 208 184 
-105 -22 408 249 207 183 
-104 -22 408 252 207 174 
-104 -22 408 250 205 172 
-103 -21 407 250 203 173 
-102 -22 408 247 200 170 
-102 -22 408 244 195 163 
-101 -22 408 240 191 159 
-100 -22 408 236 186 149 
-100 -22 409 232 182 145 
-99 -22 409 234 181 137 
-99 -22 409 225 172 128 
-98 -22 410 222 168 124 
-98 -22 410 212 158 114 
-97 -22 411 206 147 107 
-97 -22 411 198 139 99 
-96 -22 411 191 131 95 
-96 -22 412 181 121 85 
-95 -22 412 169 113 78 
-94 -22 413 161 105 70 
-94 -22 414 143 110 95 
-94 -22 415 153 120 105 
-112 -21 413 234 198 182 
-110 -21 411 244 200 175 
-110 -21 410 249 205 180 
-109 -21 409 255 210 181 
-108 -21 409 255 211 182 
-107 -21 409 254 208 182 
-106 -21 408 254 208 182 
-106 -21 408 252 208 181 
-105 -21 408 250 206 179 
-104 -21 408 251 206 175 
-104 -21 408 249 204 173 
-103 -21 408 246 201 172 
-102 -21 407 242 197 168 
-102 -21 408 241 192 160 
-101 -21 408 236 187 155 
-100 -21 408 234 182 145 
-100 -21 409 229 177 140 
-99 -21 409 227 174 130 
-99 -21 409 217 164 120 
-98 -21 410 215 158 115 
-98 -21 411 206 149 106 
-97 -21 411 198 140 102 
-97 -21 411 188 130 92 
-96 -21 412 181 121 87 
-96 -21 413 170 110 76 
-95 -21 413 157 103 77 
-95 -21 414 149 95 69 
-94 -21 414 131 113 101 
-112 -20 412 235 198 179 
-111 -20 411 242 205 186 
-110 -20 411 248 204 179 
-110 -20 410 251 207 182 
-109 -20 409 255 211 182 
-108 -20 409 255 211 182 
-107 -20 409 255 210 181 
-106 -20 408 254 209 180 
-106 -20 408 253 208 179 
-105 -20 408 251 206 177 
-104 -20 408 248 205 173 
-104 -20 408 246 203 171 
-103 -20 408 244 197 167 
-102 -20 408 240 193 163 
-102 -20 408 237 188 156 
-101 -20 408 232 183 151 
-100 -20 408 228 176 137 
-100 -20 409 223 171 132 
-99 -20 409 220 166 122 
-99 -20 410 210 156 112 
-98 -20 410 205 151 107 
-98 -20 411 196 142 98 
-97 -20 411 189 133 96 
-97 -20 412 179 123 86 
-96 -20 413 169 113 80 
-96 -21 414 157 101 68 
-95 -21 414 142 95 75 
-95 -21 415 138 91 71 
-113 -20 413 230 198 185 
-112 -20 411 246 205 185 
-111 -20 410 247 206 186 
-110 -20 410 248 206 181 
-109 -20 409 251 209 184 
-109 -20 409 255 211 184 
-108 -20 409 255 211 184 
-107 -20 409 255 210 181 
-106 -20 408 254 209 180 
-106 -20 408 252 207 176 
-105 -20 408 251 206 175 
-104 -20 408 247 202 171 
-104 -20 408 244 199 168 
-103 -20 408 242 193 161 
-102 -20 408 237 188 156 
-102 -20 408 236 183 149 
-101 -20 408 230 177 143 
-101 -20 409 223 168 129 
-100 -20 409 216 161 122 
-100 -20 410 212 158 114 
-99 -20 410 204 150 106 
-99 -20 411 199 146 104 
-98 -20 411 189 136 94 
-98 -20 412 179 126 92 
-97 -20 412 166 113 79 
-96 -20 413 153 102 75 
-96 -20 414 143 92 65 
-96 -20 415 131 91 79 
-113 -19 412 241 204 186 
-111 -19 410 250 208 186 
-111 -19 409 253 211 189 
-110 -19 409 253 209 184 
-109 -19 408 255 211 186 
-109 -19 409 255 212 183 
-108 -19 409 255 211 182 
-107 -19 409 255 210 179 
-106 -19 408 254 209 178 
-106 -19 408 251 206 175 
-105 -19 408 249 204 173 
-104 -19 408 247 201 168 
-104 -19 408 242 196 163 
-103 -19 408 239 189 156 
-102 -19 408 234 184 151 
-102 -19 409 233 179 145 
-101 -19 409 226 172 138 
-101 -19 409 216 161 122 
-100 -19 410 209 154 115 
-100 -19 410 202 149 107 
-99 -19 411 199 146 104 
-99 -19 411 194 145 105 
-98 -19 412 182 133 93 
-98 -19 413 165 120 89 
-97 -19 413 149 104 73 
-96 -19 413 135 92 73 
-114 -18 413 240 202 181 
-112 -18 410 248 210 189 
-111 -18 409 252 208 183 
-110 -18 408 255 214 189 
-110 -18 408 255 212 185 
-109 -18 408 255 212 185 
-108 -18 408 255 212 183 
-108 -18 409 255 210 181 
-107 -18 409 254 207 177 
-107 -18 409 253 206 176 
-106 -18 408 250 203 173 
-105 -18 408 246 199 169 
-104 -18 408 245 196 164 
-104 -18 408 240 191 159 
-103 -18 408 233 183 150 
-102 -18 408 228 178 145 
-102 -18 409 227 173 137 
-101 -18 409 218 164 128 
-101 -18 409 209 154 115 
-100 -18 410 202 147 108 
-100 -18 411 194 142 102 
-99 -18 411 190 138 98 
-99 -18 412 180 136 101 
-98 -18 413 166 122 87 
-98 -18 413 145 107 84 
-97 -18 413 131 93 70 
-97 -19 415 123 87 75 
-113 -18 412 242 201 179 
-112 -18 410 251 210 188 
-111 -18 409 255 215 188 
-110 -18 408 255 216 189 
-110 -18 408 255 211 185 
-109 -18 408 255 211 185 
-108 -18 407 255 211 181 
-108 -18 408 255 208 178 
-107 -18 408 251 204 174 
-106 -18 408 250 203 173 
-106 -18 408 248 201 171 
-105 -18 408 243 196 166 
-104 -18 408 240 191 159 
-104 -18 408 235 186 154 
-103 -18 408 230 177 143 
-103 -18 409 224 171 137 
-102 -18 409 220 166 130 
-102 -18 410 210 156 120 
-101 -18 410 200 146 108 
-101 -18 411 195 141 103 
-100 -18 411 187 137 100 
-99 -18 412 178 128 91 
-99 -18 413 164 121 89 
-98 -18 413 148 105 73 
-98 -18 414 127 92 72 
-97 -18 414 119 84 64 
-114 -17 412 235 198 182 
-113 -17 410 244 202 178 
-112 -17 409 249 207 183 
-111 -17 408 253 214 185 
-110 -17 408 253 214 185 
-109 -17 407 254 215 184 
-109 -17 407 254 215 184 
-108 -17 407 255 213 184 
-108 -17 408 255 212 183 
-107 -17 408 254 205 175 
-106 -17 408 248 199 169 
-106 -17 408 244 193 162 
-105 -17 408 241 190 159 
-104 -17 408 247 192 153 
-104 -17 408 240 185 146 
-103 -17 409 230 177 137 
-103 -17 409 222 169 129 
-102 -17 410 213 161 124 
-102 -17 411 205 153 116 
-101 -17 411 193 143 110 
-101 -17 411 184 134 101 
-100 -17 412 177 130 102 
-100 -17 413 168 121 93 
-99 -17 413 142 101 79 
-99 -17 414 126 85 63 
-115 -16 412 240 201 184 
-114 -16 411 244 205 188 
-113 -16 410 252 210 186 
-112 -16 409 251 209 185 
-111 -16 408 253 212 182 
-110 -16 407 251 210 180 
-109 -16 407 254 213 183 
-109 -16 408 255 214 184 
-108 -16 407 255 212 183 
-108 -16 408 253 208 179 
-107 -16 408 250 201 169 
-106 -16 408 244 195 163 
-106 -16 408 240 190 157 
-105 -16 409 238 188 155 
-105 -16 409 241 185 148 
-104 -16 409 232 176 139 
-103 -16 409 223 169 131 
-103 -16 410 216 162 124 
-103 -16 411 204 152 115 
-102 -16 411 194 142 105 
-101 -16 412 182 133 101 
-101 -16 412 175 126 94 
-100 -16 413 160 116 91 
-100 -16 414 145 101 76 
-99 -16 414 124 87 68 
-99 -17 415 119 82 63 
-114 -16 411 240 198 182 
-113 -16 410 247 205 189 
-113 -16 410 249 204 181 
-112 -16 409 255 211 188 
-111 -16 408 251 207 178 
-110 -16 407 255 212 183 
-110 -16 408 253 212 182 
-109 -16 408 253 212 182 
-108 -16 408 253 208 177 
-108 -16 408 248 203 172 
-107 -16 408 246 197 164 
-106 -16 408 239 190 157 
-106 -16 408 236 184 147 
-105 -16 409 234 182 145 
-105 -16 409 234 178 141 
-104 -16 409 224 168 131 
-104 -16 410 214 160 122 
-103 -16 411 205 151 113 
-103 -16 411 194 141 107 
-102 -16 412 186 133 99 
-101 -16 412 171 124 94 
-101 -16 413 160 113 83 
-100 -16 413 138 97 75 
-100 -16 415 123 82 60 
-115 -15 411 195 159 145 
-114 -15 410 210 169 151 
-113 -15 409 246 205 187 
-113 -15 409 255 212 187 
-112 -15 409 253 209 184 
-111 -15 408 255 211 184 
-110 -15 407 253 209 182 
-110 -15 408 253 209 180 
-109 -15 408 252 208 179 
-108 -15 408 248 205 173 
-108 -15 408 242 199 167 
-107 -15 408 241 192 159 
-107 -15 409 235 186 153 
-106 -15 409 230 178 139 
-105 -15 409 225 173 134 
-105 -15 409 225 170 131 
-104 -15 410 216 161 122 
-104 -15 411 204 150 112 
-103 -15 411 195 141 103 
-103 -15 412 184 134 99 
-102 -15 413 177 127 92 
-102 -15 414 157 113 86 
-101 -15 414 138 94 67 
-101 -15 414 117 82 62 
-113 -14 409 218 177 157 
-113 -14 409 249 204 181 
-112 -14 409 255 210 187 
-111 -14 408 253 207 183 
-110 -14 408 254 208 184 
-110 -14 408 252 208 181 
-109 -14 408 249 205 178 
-108 -14 408 244 200 171 
-108 -14 408 239 195 166 
-107 -14 409 237 189 153 
-107 -14 409 229 181 145 
-106 -14 410 223 171 131 
-106 -14 410 215 163 123 
-105 -14 410 214 159 120 
-105 -14 411 206 151 112 
-104 -14 411 196 142 106 
-103 -14 412 187 133 97 
-103 -14 413 172 123 91 
-103 -14 414 158 109 77 
-102 -14 414 133 93 68 
-102 -14 415 117 77 52 
-114 -14 409 229 191 170 
-113 -14 409 197 159 138 
-113 -14 409 216 171 148 
-112 -14 409 248 203 180 
-111 -14 408 255 210 186 
-110 -14 408 253 207 183 
-110 -14 408 251 205 181 
-109 -14 409 247 201 177 
-109 -14 409 241 198 166 
-108 -14 409 235 192 160 
-107 -14 409 230 182 144 
-107 -14 410 220 172 134 
-106 -14 410 213 160 118 
-106 -14 410 205 152 110 
-105 -14 411 204 150 112 
-105 -14 411 195 141 103 
-104 -14 412 184 134 101 
-104 -14 413 174 124 91 
-103 -14 414 152 106 80 
-103 -14 414 131 85 59 
-102 -14 415 112 76 54 
-112 -13 408 212 168 143 
-111 -13 408 246 198 175 
-111 -13 409 250 202 179 
-110 -13 409 246 200 176 
-109 -13 409 241 195 171 
-109 -13 409 234 189 158 
-108 -13 409 227 182 151 
-107 -13 409 222 172 135 
-107 -13 410 210 160 123 
-106 -13 410 203 149 105 
-106 -13 411 196 142 98 
-105 -13 411 193 141 104 
-105 -13 412 183 131 94 
-104 -13 413 166 119 89 
-104 -13 413 151 104 74 
-103 -13 414 125 84 62 
-103 -13 415 111 70 48 
-111 -12 408 206 158 135 
-111 -12 409 239 191 168 
-110 -12 409 243 196 170 
-109 -12 409 237 190 164 
-109 -12 410 228 181 151 
-108 -12 410 221 174 144 
-108 -12 410 215 166 126 
-107 -12 411 203 154 114 
-107 -12 411 198 141 96 
-106 -12 411 192 135 90 
-105 -12 412 180 130 95 
-105 -12 413 170 120 85 
-104 -12 413 150 105 76 
-104 -12 414 129 84 55 
-111 -12 409 211 160 129 
-111 -12 409 194 143 112 
-110 -12 409 225 172 141 
-110 -12 410 238 185 154 
-109 -12 410 229 176 144 
-108 -12 411 216 163 131 
-108 -12 411 209 159 126 
-107 -12 411 199 149 116 
-107 -12 411 186 137 104 
-106 -12 412 178 129 96 
-106 -12 413 167 123 96 
-105 -12 413 157 113 86 
-105 -12 414 132 94 73 
-110 -11 410 182 131 100 
-110 -11 410 191 140 109 
-109 -11 411 214 161 127 
-108 -11 411 213 160 126 
-108 -11 412 200 148 111 
-107 -11 412 192 140 103 
-107 -11 412 178 128 93 
-106 -11 413 172 122 87 
-106 -11 413 155 117 98 
-105 -11 414 145 107 88 
-108 -10 411 187 137 104 
-108 -10 412 189 139 106 
-107 -10 412 178 128 95 
-107 -10 413 165 116 86 
-106 -10 413 168 119 89 
-106 -10 414 147 114 105 
-108 -10 413 155 114 92 
-108 -10 413 157 116 94 
-107 -10 413 150 113 97 
-107 -10 414 154 117 101 
