ply
format ascii 1.0
comment Created by CloudCompare v2.10.1 (Zephyrus)
comment Created 2020-05-06 8:40 PM
obj_info Generated by CloudCompare!
element vertex 1258
property float x
property float y
property float z
property uchar red
property uchar green
property uchar blue
end_header
-122 -10 411 195 179 179 
-122 -10 411 235 215 206 
-123 -9 410 231 222 217 
-122 -9 409 238 217 200 
-121 -9 409 240 219 202 
-120 -9 409 254 223 202 
-120 -9 409 255 225 204 
-119 -9 409 243 210 191 
-124 -8 410 255 251 248 
-123 -8 410 249 235 226 
-122 -8 409 230 216 207 
-122 -8 409 242 220 199 
-121 -8 408 246 224 203 
-120 -8 408 251 223 199 
-119 -8 408 252 224 200 
-119 -8 408 255 230 206 
-118 -8 408 247 217 193 
-118 -8 409 226 189 170 
-123 -8 409 244 222 209 
-122 -8 408 243 221 208 
-121 -8 408 249 224 202 
-121 -8 408 242 217 195 
-120 -8 408 250 224 197 
-119 -8 408 251 225 198 
-119 -8 408 255 225 199 
-118 -8 408 255 232 206 
-118 -8 409 252 216 192 
-125 -7 410 251 246 240 
-124 -7 409 248 230 220 
-124 -7 409 243 225 215 
-123 -7 408 248 221 204 
-122 -7 408 247 220 203 
-121 -7 407 250 224 201 
-120 -7 407 253 227 204 
-120 -7 407 253 227 200 
-119 -7 408 252 226 199 
-119 -7 408 254 224 196 
-118 -7 408 255 225 197 
-117 -7 408 255 228 200 
-117 -7 409 251 216 188 
-125 -6 409 236 222 209 
-124 -6 408 244 222 209 
-123 -6 408 249 227 214 
-123 -6 408 248 219 201 
-122 -6 407 249 220 202 
-121 -6 407 255 228 202 
-120 -6 407 255 226 200 
-120 -6 407 255 228 198 
-119 -6 407 254 227 197 
-118 -6 407 255 227 195 
-118 -6 408 254 225 193 
-117 -6 408 255 222 194 
-117 -6 409 255 221 193 
-116 -6 409 245 204 176 
-116 -6 409 220 179 151 
-125 -6 408 241 222 207 
-124 -6 408 246 223 207 
-123 -6 407 249 226 210 
-122 -6 407 249 221 200 
-122 -6 407 250 222 201 
-121 -6 407 255 226 198 
-120 -6 407 253 223 195 
-120 -6 407 255 229 196 
-119 -6 407 252 226 193 
-118 -6 407 254 223 192 
-118 -6 408 253 222 191 
-117 -6 408 255 217 188 
-117 -6 408 254 215 186 
-116 -6 409 253 208 179 
-116 -6 409 242 197 168 
-126 -5 408 241 226 221 
-125 -5 408 248 222 205 
-124 -5 407 250 224 207 
-124 -5 407 252 225 206 
-123 -5 407 250 223 204 
-122 -5 407 250 222 198 
-122 -5 407 253 225 201 
-121 -5 407 254 227 197 
-120 -5 407 253 226 196 
-120 -5 407 255 227 193 
-119 -5 407 253 224 190 
-118 -5 407 254 219 187 
-118 -5 408 252 217 185 
-117 -5 408 252 209 177 
-117 -5 408 248 205 173 
-116 -5 409 251 200 171 
-116 -5 409 246 195 166 
-115 -5 410 238 185 154 
-115 -5 410 214 161 130 
-128 -4 409 253 238 231 
-127 -4 408 237 222 215 
-127 -4 408 239 217 206 
-126 -4 408 245 223 212 
-125 -4 408 252 221 201 
-124 -4 407 255 225 205 
-124 -4 407 254 226 204 
-123 -4 407 251 223 201 
-122 -4 407 252 226 199 
-122 -4 407 253 227 200 
-121 -4 407 253 228 197 
-120 -4 407 252 227 196 
-120 -4 407 252 223 191 
-119 -4 407 251 222 190 
-118 -4 407 252 216 182 
-118 -4 408 247 211 177 
-117 -4 408 251 202 172 
-117 -4 408 249 200 170 
-116 -4 409 247 192 162 
-116 -4 409 235 180 150 
-115 -4 410 232 178 144 
-115 -4 410 224 170 136 
-114 -4 410 200 146 112 
-114 -4 411 175 121 87 
-127 -4 408 234 216 204 
-127 -4 408 245 217 203 
-126 -4 407 247 219 205 
-125 -4 407 250 220 196 
-124 -4 407 253 223 199 
-124 -4 407 253 225 201 
-123 -4 407 253 225 201 
-122 -4 407 252 228 200 
-122 -4 407 251 227 199 
-121 -4 407 249 224 194 
-120 -4 407 249 224 194 
-120 -4 407 255 224 193 
-119 -4 407 251 220 189 
-118 -4 407 252 211 179 
-118 -4 408 247 206 174 
-117 -4 408 249 198 167 
-117 -4 408 245 194 163 
-116 -4 409 242 185 155 
-116 -4 409 229 172 142 
-115 -4 410 227 169 132 
-115 -4 410 210 152 115 
-114 -4 411 202 143 111 
-114 -4 412 196 137 105 
-129 -3 409 250 236 225 
-128 -3 408 241 218 202 
-127 -3 407 239 216 200 
-126 -3 407 244 217 196 
-126 -3 407 248 221 200 
-125 -3 407 253 223 197 
-124 -3 407 253 223 197 
-123 -3 406 252 226 199 
-123 -3 407 253 227 200 
-122 -3 407 251 227 199 
-122 -3 407 249 225 197 
-121 -3 407 250 223 194 
-120 -3 407 250 223 194 
-120 -3 407 255 219 190 
-119 -3 407 249 212 183 
-118 -3 407 251 205 172 
-118 -3 408 250 204 171 
-117 -3 408 248 194 160 
-117 -3 408 238 184 150 
-116 -3 409 233 177 142 
-116 -3 410 225 169 134 
-115 -3 410 220 160 123 
-115 -3 411 207 147 110 
-114 -3 411 192 131 100 
-114 -3 412 180 119 88 
-114 -3 413 146 124 126 
-129 -2 408 245 223 210 
-128 -2 407 247 225 212 
-128 -2 407 247 222 200 
-127 -2 407 245 220 198 
-126 -2 407 248 224 198 
-126 -2 407 249 225 199 
-125 -2 406 255 230 201 
-124 -2 406 255 228 199 
-123 -2 406 254 229 199 
-123 -2 406 253 228 198 
-122 -2 407 249 224 194 
-122 -2 407 248 223 193 
-121 -2 407 255 221 194 
-120 -2 407 253 219 192 
-120 -2 407 253 208 179 
-119 -2 407 248 203 174 
-119 -2 408 251 196 165 
-118 -2 408 248 193 162 
-117 -2 408 243 185 148 
-117 -2 409 231 173 136 
-117 -2 410 222 167 126 
-116 -2 410 216 161 120 
-115 -2 410 211 151 114 
-115 -2 411 192 132 95 
-115 -2 412 177 116 87 
-114 -2 412 171 110 81 
-114 -2 413 140 124 127 
-129 -2 407 249 223 210 
-128 -2 407 247 221 208 
-127 -2 406 251 225 202 
-127 -2 406 253 227 204 
-126 -2 407 252 228 200 
-125 -2 406 253 229 201 
-125 -2 406 255 232 201 
-124 -2 406 255 230 199 
-123 -2 406 254 229 198 
-123 -2 406 252 227 196 
-122 -2 406 249 222 192 
-121 -2 406 249 222 192 
-121 -2 407 254 217 190 
-120 -2 407 248 211 184 
-120 -2 407 255 205 176 
-119 -2 407 254 203 174 
-119 -2 408 253 194 160 
-118 -2 408 244 185 151 
-117 -2 408 235 176 136 
-117 -2 409 225 166 126 
-117 -2 410 214 157 112 
-116 -2 410 204 147 102 
-116 -2 411 200 140 103 
-115 -2 411 183 123 86 
-115 -2 412 169 109 83 
-114 -2 413 164 104 78 
-131 -1 409 247 238 231 
-130 -1 407 245 229 213 
-129 -1 407 242 226 210 
-129 -1 407 243 225 203 
-128 -1 406 247 229 207 
-127 -1 406 252 232 207 
-127 -1 406 252 232 207 
-126 -1 407 254 230 206 
-126 -1 407 255 231 207 
-125 -1 406 255 232 203 
-124 -1 406 255 230 201 
-123 -1 406 252 227 196 
-123 -1 406 251 226 195 
-122 -1 406 254 223 192 
-121 -1 406 248 217 186 
-121 -1 407 254 210 181 
-120 -1 407 254 210 181 
-120 -1 407 255 206 177 
-119 -1 408 250 199 170 
-119 -1 408 246 193 159 
-118 -1 409 236 183 149 
-118 -1 409 229 176 136 
-117 -1 409 221 168 128 
-117 -1 410 212 155 112 
-116 -1 410 201 144 101 
-116 -1 411 187 127 91 
-115 -1 412 172 112 76 
-115 -1 412 142 115 106 
-132 0 409 253 240 232 
-131 0 408 238 225 217 
-130 0 407 246 227 210 
-129 0 407 245 226 209 
-129 0 406 247 227 203 
-128 0 406 249 229 205 
-127 0 406 253 232 205 
-127 0 406 252 231 204 
-126 0 407 255 229 204 
-126 0 407 255 231 206 
-125 0 407 255 229 200 
-124 0 406 253 226 197 
-123 0 406 249 222 192 
-123 0 406 249 222 192 
-122 0 407 252 217 185 
-122 0 407 248 213 181 
-121 0 407 253 206 176 
-120 0 407 249 202 172 
-120 0 407 254 201 169 
-119 0 408 245 192 160 
-119 0 409 239 185 147 
-118 0 409 232 178 140 
-118 0 409 228 174 130 
-117 0 410 221 167 123 
-117 0 411 208 149 107 
-116 0 411 191 132 90 
-116 0 411 172 116 89 
-115 0 412 162 106 79 
-115 0 413 136 113 107 
-132 0 408 245 225 216 
-131 0 407 244 224 215 
-130 0 407 251 226 206 
-129 0 406 252 227 207 
-129 0 406 250 229 202 
-128 0 406 251 230 203 
-127 0 406 255 231 203 
-127 0 406 254 230 202 
-126 0 407 255 228 199 
-126 0 407 255 229 200 
-125 0 407 255 226 198 
-124 0 406 252 222 194 
-123 0 406 251 220 189 
-123 0 406 249 218 187 
-122 0 406 250 211 178 
-122 0 407 247 208 175 
-121 0 407 255 205 172 
-120 0 407 249 199 166 
-120 0 407 252 196 159 
-119 0 408 241 185 148 
-119 0 409 233 179 135 
-118 0 409 226 172 128 
-118 0 410 225 168 123 
-118 0 411 219 162 117 
-117 0 411 203 141 100 
-117 0 412 184 122 81 
-116 0 412 156 107 92 
-116 0 413 152 103 88 
-115 0 413 132 112 111 
-133 1 409 242 223 217 
-132 1 408 250 224 211 
-131 1 407 250 224 211 
-130 1 407 252 225 204 
-129 1 406 253 226 205 
-129 1 406 252 228 200 
-128 1 406 252 228 200 
-127 1 406 255 230 200 
-127 1 406 255 230 200 
-126 1 406 254 227 197 
-126 1 407 252 225 195 
-125 1 407 252 222 194 
-124 1 407 250 220 192 
-123 1 406 253 218 186 
-123 1 406 251 216 184 
-122 1 406 251 206 173 
-122 1 407 248 203 170 
-121 1 407 255 201 167 
-120 1 407 251 197 163 
-120 1 408 250 192 152 
-120 1 409 239 181 141 
-119 1 409 229 173 126 
-119 1 410 220 164 117 
-118 1 411 217 158 114 
-118 1 411 210 151 107 
-117 1 412 192 132 96 
-117 1 413 176 116 80 
-116 1 413 146 108 99 
-116 1 413 144 106 97 
-134 2 410 239 230 223 
-134 2 410 240 216 206 
-133 2 409 246 222 212 
-132 2 408 255 228 211 
-131 2 407 249 222 205 
-130 2 406 253 227 204 
-129 2 406 253 227 204 
-128 2 405 252 228 200 
-128 2 405 253 229 201 
-127 2 405 254 229 199 
-127 2 406 255 230 200 
-126 2 406 254 227 197 
-125 2 406 250 223 193 
-125 2 406 249 218 189 
-124 2 406 249 218 189 
-123 2 406 253 214 181 
-123 2 406 251 212 179 
-122 2 406 253 205 169 
-122 2 407 249 201 165 
-121 2 407 250 194 157 
-120 2 407 244 188 151 
-120 2 408 242 185 140 
-120 2 409 233 176 131 
-119 2 410 222 166 117 
-119 2 411 212 156 107 
-118 2 411 204 149 108 
-118 2 412 193 138 97 
-118 2 413 175 119 92 
-117 2 414 164 108 81 
-117 2 414 139 111 108 
-134 2 409 234 217 207 
-133 2 409 244 217 200 
-132 2 408 248 221 204 
-132 2 408 249 223 200 
-131 2 407 250 224 201 
-130 2 406 251 227 201 
-129 2 406 251 227 201 
-129 2 406 253 230 199 
-128 2 406 254 231 200 
-127 2 406 255 228 199 
-127 2 406 255 228 199 
-126 2 406 255 226 198 
-125 2 406 252 222 194 
-125 2 406 253 218 188 
-124 2 406 250 215 185 
-123 2 406 252 209 174 
-123 2 406 250 207 172 
-122 2 407 254 202 165 
-122 2 407 249 197 160 
-121 2 407 245 190 151 
-121 2 408 236 181 142 
-120 2 408 232 175 130 
-120 2 410 225 168 123 
-119 2 410 216 160 111 
-119 2 411 206 150 101 
-119 2 412 193 141 104 
-118 2 412 179 127 90 
-118 2 414 157 108 91 
-117 2 414 151 102 85 
-135 3 409 235 212 198 
-134 3 409 241 218 204 
-133 3 408 248 218 194 
-132 3 407 248 218 194 
-131 3 407 250 223 194 
-131 3 407 252 225 196 
-130 3 406 249 228 199 
-129 3 406 249 228 199 
-129 3 406 253 230 199 
-128 3 406 253 230 199 
-127 3 406 255 227 199 
-127 3 406 255 226 198 
-126 3 406 255 222 195 
-125 3 406 252 218 191 
-125 3 406 255 216 185 
-124 3 406 247 208 177 
-123 3 406 248 203 164 
-123 3 407 247 202 163 
-122 3 407 250 195 156 
-122 3 408 246 191 152 
-121 3 408 242 184 144 
-121 3 408 230 172 132 
-120 3 409 225 167 121 
-120 3 410 218 160 114 
-119 3 410 208 152 103 
-119 3 411 197 141 92 
-119 3 412 177 128 95 
-118 3 413 162 113 80 
-118 3 414 144 101 92 
-136 4 410 247 228 222 
-135 4 409 237 218 212 
-134 4 408 240 213 196 
-134 4 408 242 215 198 
-133 4 408 251 217 190 
-132 4 407 255 221 194 
-131 4 407 252 225 195 
-131 4 407 250 223 193 
-130 4 406 249 228 197 
-129 4 406 249 228 197 
-129 4 406 252 227 197 
-128 4 406 253 228 198 
-127 4 406 255 225 197 
-127 4 406 255 224 196 
-126 4 406 255 217 194 
-125 4 406 251 213 190 
-125 4 406 249 209 174 
-124 4 406 241 201 166 
-123 4 406 246 197 157 
-123 4 407 246 197 157 
-122 4 407 243 188 147 
-122 4 408 239 184 143 
-121 4 408 237 178 138 
-121 4 409 224 165 125 
-121 4 410 218 160 112 
-120 4 410 211 153 105 
-120 4 411 202 146 97 
-119 4 412 189 133 84 
-119 4 413 163 116 86 
-118 4 413 147 100 70 
-135 4 408 243 215 191 
-134 4 407 245 217 195 
-133 4 407 248 220 198 
-133 4 407 249 223 198 
-132 4 407 250 224 199 
-131 4 407 252 226 199 
-131 4 407 252 226 199 
-130 4 406 252 227 197 
-129 4 406 254 229 199 
-129 4 406 255 228 202 
-128 4 406 255 228 202 
-127 4 406 255 225 198 
-127 4 406 254 220 193 
-126 4 406 250 215 187 
-125 4 406 247 212 184 
-125 4 406 253 211 173 
-124 4 406 247 205 167 
-124 4 407 252 194 154 
-123 4 407 246 188 148 
-123 4 408 244 186 138 
-122 4 408 238 180 132 
-122 4 409 225 167 127 
-121 4 409 215 157 117 
-121 4 410 214 151 107 
-120 4 410 205 142 98 
-120 4 411 187 134 92 
-119 4 412 177 124 82 
-119 4 413 147 113 101 
-119 4 414 136 102 90 
-135 5 407 246 216 192 
-134 5 407 249 218 197 
-133 5 407 252 221 200 
-133 5 407 251 223 199 
-132 5 406 252 224 200 
-131 5 406 252 225 198 
-130 5 406 253 226 199 
-130 5 406 254 227 198 
-129 5 406 255 228 199 
-129 5 406 255 227 199 
-128 5 406 255 225 197 
-127 5 406 255 222 194 
-127 5 406 252 217 189 
-126 5 406 247 210 181 
-125 5 406 245 208 179 
-125 5 407 249 205 168 
-124 5 407 245 201 164 
-124 5 407 248 190 150 
-123 5 408 241 183 143 
-123 5 408 234 176 130 
-122 5 409 226 168 122 
-122 5 410 216 157 113 
-121 5 410 208 149 105 
-121 5 410 203 142 98 
-120 5 411 194 133 89 
-120 5 412 171 122 90 
-119 5 412 159 110 78 
-138 6 410 242 224 214 
-136 6 408 234 216 206 
-135 6 407 250 215 195 
-135 6 407 251 216 196 
-134 6 406 251 219 198 
-133 6 406 253 221 200 
-132 6 406 253 223 199 
-132 6 406 253 223 199 
-131 6 406 254 224 196 
-130 6 406 254 224 196 
-130 6 406 255 224 195 
-129 6 406 255 225 196 
-129 6 406 255 223 193 
-128 6 406 255 221 191 
-127 6 406 255 217 186 
-127 6 406 250 211 180 
-126 6 406 246 205 173 
-126 6 407 243 202 170 
-125 6 407 246 200 166 
-124 6 407 241 195 161 
-124 6 408 240 186 142 
-123 6 408 233 179 135 
-123 6 409 228 167 123 
-122 6 409 217 156 112 
-122 6 410 210 147 103 
-122 6 411 201 138 94 
-121 6 411 190 132 94 
-121 6 412 181 123 85 
-120 6 412 150 112 93 
-120 6 413 139 101 82 
-138 6 410 240 229 223 
-137 6 409 242 216 199 
-136 6 408 244 218 201 
-135 6 407 253 216 197 
-135 6 407 253 216 197 
-134 6 406 253 218 198 
-133 6 406 255 220 200 
-132 6 406 255 220 198 
-132 6 406 255 220 198 
-131 6 406 255 221 194 
-130 6 406 255 221 194 
-130 6 406 255 220 190 
-129 6 406 255 220 190 
-129 6 406 255 218 187 
-128 6 406 255 216 185 
-127 6 406 253 210 176 
-127 6 406 248 205 171 
-126 6 406 245 201 166 
-126 6 407 242 198 163 
-125 6 407 244 194 157 
-125 6 408 238 188 151 
-124 6 408 232 178 131 
-123 6 408 225 171 124 
-123 6 409 221 158 117 
-123 6 410 209 146 105 
-122 6 410 203 139 93 
-122 6 411 194 130 84 
-121 6 412 177 124 92 
-121 6 412 168 115 83 
-120 6 413 137 107 99 
-138 7 409 239 221 211 
-137 7 408 245 213 192 
-136 7 407 249 217 196 
-135 7 407 253 216 197 
-134 7 406 254 217 198 
-134 7 406 255 219 197 
-133 7 406 255 219 197 
-132 7 406 255 219 195 
-132 7 406 255 219 195 
-131 7 406 254 219 191 
-130 7 406 254 219 191 
-130 7 406 255 218 187 
-129 7 406 254 215 184 
-129 7 406 255 212 178 
-128 7 406 251 208 174 
-127 7 406 249 203 167 
-127 7 406 245 199 163 
-126 7 407 245 195 158 
-126 7 407 242 192 155 
-125 7 408 242 189 147 
-125 7 408 234 181 139 
-124 7 409 222 168 121 
-124 7 409 215 161 114 
-123 7 410 210 147 106 
-123 7 410 199 136 95 
-122 7 411 192 130 89 
-122 7 412 182 120 79 
-121 7 412 160 115 92 
-121 7 413 150 105 82 
-138 8 408 244 221 207 
-138 8 408 241 218 204 
-137 8 407 250 214 190 
-136 8 407 249 213 189 
-135 8 406 253 215 194 
-134 8 406 255 217 196 
-134 8 406 255 217 194 
-133 8 406 254 216 193 
-132 8 405 253 216 189 
-131 8 405 253 216 189 
-131 8 406 255 216 185 
-130 8 406 255 216 185 
-130 8 406 255 214 180 
-129 8 406 252 209 175 
-129 8 406 250 205 166 
-128 8 406 246 201 162 
-127 8 406 248 196 157 
-127 8 407 244 192 153 
-126 8 407 241 186 147 
-126 8 408 236 181 142 
-125 8 408 237 181 134 
-125 8 409 228 172 125 
-125 8 410 217 161 114 
-124 8 410 209 153 106 
-124 8 411 199 137 96 
-123 8 411 188 126 85 
-123 8 412 177 121 88 
-122 8 412 168 112 79 
-122 8 413 141 107 95 
-137 8 407 247 216 196 
-137 8 407 253 216 190 
-136 8 406 251 214 188 
-135 8 406 253 216 190 
-134 8 406 254 217 191 
-134 8 406 253 216 189 
-133 8 406 251 214 187 
-132 8 405 253 214 183 
-131 8 405 252 213 182 
-131 8 406 252 212 177 
-130 8 406 252 212 177 
-130 8 406 250 206 169 
-129 8 406 245 201 164 
-129 8 406 247 195 155 
-128 8 407 243 191 151 
-128 8 407 243 186 143 
-127 8 407 239 182 139 
-127 8 408 232 173 131 
-126 8 408 226 167 125 
-126 8 409 224 166 116 
-125 8 410 217 159 109 
-125 8 410 209 152 109 
-124 8 410 199 142 99 
-124 8 411 185 126 86 
-123 8 412 175 116 76 
-123 8 412 159 111 91 
-122 8 413 151 103 83 
-138 9 407 253 217 193 
-137 9 407 250 214 190 
-137 9 407 250 213 186 
-136 9 406 251 214 187 
-135 9 406 255 215 189 
-134 9 406 255 216 190 
-134 9 406 254 215 184 
-133 9 406 252 213 182 
-132 9 406 252 213 180 
-131 9 405 251 212 179 
-131 9 406 251 208 173 
-130 9 406 248 205 170 
-130 9 406 247 199 159 
-129 9 406 242 194 154 
-129 9 406 241 188 144 
-128 9 406 237 184 140 
-128 9 407 236 177 133 
-127 9 408 231 172 128 
-127 9 408 227 164 120 
-126 9 409 221 158 114 
-126 9 410 212 155 102 
-125 9 410 205 148 95 
-125 9 410 199 141 103 
-124 9 411 189 131 93 
-124 9 412 174 116 78 
-123 9 412 166 108 70 
-141 10 410 235 221 218 
-138 10 407 254 217 188 
-137 9 406 253 216 187 
-136 9 406 253 218 190 
-136 9 406 253 218 190 
-135 9 406 255 219 185 
-134 9 406 254 218 184 
-134 9 406 255 212 181 
-133 9 406 255 210 179 
-132 9 406 255 208 176 
-132 10 406 255 207 175 
-131 10 406 249 203 169 
-130 10 406 243 197 163 
-130 10 406 236 191 152 
-129 10 406 232 187 148 
-129 10 407 237 184 142 
-128 10 407 231 178 136 
-128 10 408 233 170 126 
-127 10 408 229 166 122 
-127 10 409 224 156 111 
-126 10 409 220 152 107 
-126 10 410 208 150 100 
-126 10 411 200 142 92 
-125 10 411 194 135 91 
-125 10 412 179 120 76 
-124 10 413 161 111 88 
-124 10 413 152 102 79 
-138 10 407 252 213 182 
-137 10 406 253 214 183 
-136 10 406 253 217 185 
-136 10 406 252 216 184 
-135 10 406 255 216 181 
-134 10 406 253 213 178 
-134 10 406 255 210 176 
-133 10 406 254 208 174 
-132 10 406 255 204 170 
-132 10 406 255 202 168 
-131 10 406 249 197 158 
-130 10 406 241 189 150 
-130 10 406 237 186 143 
-129 10 407 229 178 135 
-129 10 407 230 173 128 
-128 10 407 229 172 127 
-128 10 408 225 165 115 
-128 10 409 221 161 111 
-127 10 409 220 158 107 
-127 10 410 211 149 98 
-126 10 410 200 140 114 
-126 10 411 193 133 107 
-125 10 412 178 126 112 
-125 10 413 187 135 121 
-141 11 410 238 212 199 
-140 11 408 238 212 199 
-139 11 407 247 211 187 
-139 11 407 247 211 187 
-138 11 406 251 210 178 
-137 11 406 255 214 182 
-136 11 405 255 216 182 
-135 11 405 255 213 179 
-135 11 405 255 213 179 
-134 11 405 252 209 175 
-133 11 405 255 208 172 
-133 11 405 255 207 171 
-132 11 405 254 200 162 
-132 11 406 250 196 158 
-131 11 406 247 189 149 
-130 11 406 239 181 141 
-130 11 407 234 175 131 
-129 11 407 231 172 128 
-129 11 408 226 168 120 
-129 11 408 223 165 117 
-128 11 408 219 161 111 
-128 11 409 214 156 106 
-127 11 409 207 149 99 
-127 11 410 195 137 87 
-126 11 411 199 139 141 
-126 11 412 189 129 131 
-125 11 412 204 163 177 
-142 12 410 235 215 204 
-141 12 408 245 210 191 
-139 11 406 251 211 186 
-138 11 406 250 210 185 
-138 11 406 253 210 178 
-137 11 405 255 213 181 
-136 11 405 255 213 177 
-135 11 405 255 209 173 
-135 11 405 252 209 175 
-134 11 405 249 206 172 
-133 11 405 252 204 164 
-133 11 405 250 202 162 
-132 11 405 247 194 152 
-132 11 406 241 188 146 
-131 11 406 241 182 140 
-130 11 406 235 176 134 
-130 12 407 234 176 130 
-130 12 408 224 166 120 
-129 12 408 217 161 110 
-129 12 409 213 157 106 
-128 12 409 209 151 105 
-128 12 409 204 146 100 
-127 12 410 199 137 98 
-127 12 411 194 132 93 
-126 12 412 181 131 142 
-126 12 412 223 173 184 
-141 12 408 250 209 187 
-140 12 407 249 208 186 
-139 12 406 251 209 184 
-138 12 406 252 210 185 
-138 12 406 252 209 177 
-137 12 406 253 210 178 
-136 12 406 255 209 171 
-136 12 406 253 205 167 
-135 12 406 250 206 169 
-134 12 406 244 200 163 
-134 12 406 246 195 152 
-133 12 406 243 192 149 
-132 12 406 242 185 140 
-132 12 406 236 179 134 
-131 12 406 233 174 130 
-131 12 407 229 170 126 
-130 12 408 226 170 123 
-130 12 408 216 160 113 
-129 12 409 219 161 113 
-129 12 410 211 153 105 
-128 12 410 201 139 102 
-128 12 410 194 132 95 
-127 12 411 188 122 100 
-127 12 412 193 127 105 
-126 12 412 210 181 186 
-143 13 410 232 212 201 
-142 13 409 243 208 188 
-141 13 408 244 209 189 
-141 13 408 253 209 184 
-140 13 407 252 208 183 
-139 13 406 254 210 183 
-138 13 406 255 211 184 
-138 13 406 252 207 174 
-137 13 406 251 206 173 
-136 13 406 254 206 168 
-136 13 406 253 205 167 
-135 13 406 249 202 160 
-134 13 406 241 194 152 
-134 13 406 242 186 139 
-133 13 406 239 183 136 
-132 13 406 239 178 131 
-132 13 407 235 174 127 
-131 13 407 228 169 125 
-131 13 407 222 163 119 
-130 13 408 220 162 116 
-130 13 408 211 153 107 
-129 13 409 212 149 105 
-129 13 410 206 143 99 
-129 13 411 199 133 107 
-128 13 411 185 119 93 
-128 13 412 183 120 115 
-127 13 412 218 155 150 
-144 14 410 240 211 193 
-143 14 409 237 208 190 
-142 13 408 249 207 182 
-141 13 408 248 206 181 
-140 13 407 253 208 179 
-140 13 407 254 209 180 
-139 13 406 255 210 179 
-138 13 406 254 209 178 
-138 13 406 252 206 172 
-137 13 406 252 206 172 
-136 13 406 253 205 167 
-136 13 406 250 202 164 
-135 13 406 247 195 148 
-134 13 406 239 187 140 
-134 13 406 242 180 131 
-133 13 406 239 177 128 
-132 13 406 233 171 122 
-132 13 407 230 168 119 
-131 13 407 219 165 119 
-131 14 408 212 158 112 
-130 14 408 213 154 110 
-130 14 409 205 146 102 
-129 14 409 205 137 98 
-129 14 410 199 131 92 
-129 14 411 181 120 102 
-128 14 412 180 119 101 
-128 14 412 208 165 172 
-142 14 407 250 205 176 
-141 14 407 252 207 178 
-140 14 407 251 206 175 
-139 14 406 253 208 177 
-139 14 406 254 209 176 
-138 14 406 252 207 174 
-138 14 406 252 206 170 
-137 14 406 252 206 170 
-136 14 406 249 201 161 
-136 14 406 243 195 155 
-135 14 406 241 185 138 
-134 14 406 236 180 133 
-134 14 406 239 176 125 
-133 14 406 236 173 122 
-132 14 406 227 165 116 
-132 14 407 222 160 111 
-131 14 407 212 159 115 
-131 14 408 205 152 108 
-131 14 409 208 149 107 
-130 14 409 198 139 97 
-130 14 410 199 129 95 
-129 14 411 190 120 86 
-129 14 412 170 116 104 
-128 14 412 216 162 150 
-144 15 409 242 213 199 
-143 15 408 251 210 182 
-142 15 407 249 208 180 
-142 15 407 250 211 180 
-141 15 406 249 210 179 
-140 15 406 255 213 184 
-139 15 406 254 209 180 
-139 15 406 255 205 170 
-138 15 406 255 205 170 
-138 15 406 255 205 165 
-137 15 406 254 202 162 
-136 15 406 248 195 153 
-136 15 406 241 188 146 
-135 15 406 240 177 134 
-134 15 406 235 172 129 
-134 15 406 238 174 130 
-133 15 407 228 164 120 
-133 15 407 216 155 110 
-132 15 407 218 157 112 
-132 15 408 215 154 109 
-131 15 408 212 151 106 
-131 15 409 204 139 101 
-130 15 410 193 128 90 
-130 15 411 178 117 98 
-130 15 412 172 111 92 
-143 15 408 252 207 176 
-142 15 407 251 206 175 
-141 15 406 252 209 175 
-141 15 406 249 206 172 
-140 15 406 255 209 176 
-139 15 406 253 207 174 
-139 15 406 255 204 167 
-138 15 406 255 203 166 
-138 15 407 252 199 155 
-137 15 407 248 195 151 
-137 15 407 244 187 144 
-136 15 407 238 181 138 
-135 15 407 237 173 129 
-135 15 407 233 169 125 
-134 15 407 220 158 111 
-133 15 407 223 161 114 
-133 15 408 216 158 110 
-132 15 408 205 147 99 
-132 16 409 208 147 102 
-131 16 409 203 142 97 
-131 16 409 192 126 92 
-130 16 410 181 115 81 
-130 16 411 170 122 110 
-145 16 409 244 203 183 
-143 16 407 253 204 171 
-142 16 406 255 207 174 
-141 16 406 254 208 172 
-141 16 406 251 205 169 
-140 16 406 255 207 172 
-139 16 406 254 204 169 
-139 16 406 255 202 161 
-139 16 407 253 198 157 
-138 16 407 246 192 146 
-137 16 407 241 187 141 
-137 16 407 239 180 136 
-136 16 407 234 175 131 
-135 16 407 236 172 124 
-135 16 407 224 160 112 
-134 16 408 217 156 109 
-134 16 408 213 152 105 
-133 16 408 207 149 99 
-133 16 409 205 147 97 
-132 16 409 201 138 97 
-132 16 410 196 133 92 
-131 16 410 176 117 101 
-131 16 411 191 132 116 
-147 17 411 241 213 201 
-144 17 407 249 203 180 
-144 17 407 251 205 182 
-143 17 406 254 204 169 
-142 17 406 255 206 171 
-141 17 406 254 206 166 
-141 17 406 253 205 165 
-140 17 406 255 204 164 
-139 17 406 253 200 160 
-139 17 406 254 197 152 
-139 17 407 249 192 147 
-138 17 407 241 185 136 
-137 17 407 236 180 131 
-137 17 407 236 175 130 
-136 17 407 230 169 124 
-135 17 407 223 160 107 
-135 17 408 215 152 99 
-134 17 408 213 152 107 
-134 17 409 208 147 102 
-133 17 409 202 138 92 
-133 17 409 200 136 90 
-132 17 410 194 129 101 
-132 17 410 185 120 92 
-131 17 411 191 149 153 
-147 18 410 240 204 188 
-145 17 408 239 203 187 
-144 17 407 251 204 178 
-144 17 407 251 204 178 
-143 17 406 254 204 167 
-142 17 406 254 204 167 
-141 17 406 251 204 162 
-141 17 406 250 203 161 
-140 17 406 253 199 155 
-139 17 406 248 194 150 
-139 17 406 247 189 141 
-139 17 407 242 184 136 
-138 17 407 235 179 130 
-137 17 407 230 174 125 
-137 17 408 229 166 122 
-136 17 408 222 159 115 
-136 17 408 220 157 106 
-135 17 408 212 149 98 
-135 17 409 214 154 100 
-134 18 410 203 143 89 
-134 18 410 201 131 95 
-133 18 410 191 121 85 
-133 18 411 174 113 110 
-146 18 409 243 202 182 
-145 18 407 244 203 183 
-144 18 407 253 204 174 
-144 18 407 253 204 174 
-143 18 406 253 205 165 
-142 18 406 252 204 164 
-141 18 406 248 201 157 
-141 18 406 247 200 156 
-140 18 406 250 194 147 
-140 18 407 244 188 141 
-139 18 407 242 182 132 
-139 18 407 237 177 127 
-138 18 407 230 172 122 
-137 18 407 225 167 117 
-137 18 408 221 158 114 
-136 18 408 213 150 106 
-136 18 408 208 144 100 
-135 18 409 207 143 99 
-135 18 410 198 138 84 
-134 18 410 200 140 86 
-134 18 411 186 121 103 
-134 18 412 181 116 98 
-133 18 412 214 170 183 
-147 19 410 245 212 195 
-146 19 408 249 203 179 
-145 19 407 250 204 180 
-144 19 407 253 202 171 
-144 19 407 253 202 171 
-143 19 406 251 203 163 
-142 19 406 249 201 161 
-141 19 406 246 199 153 
-141 19 406 241 194 148 
-140 19 406 245 187 139 
-140 19 407 237 179 131 
-139 19 407 237 175 124 
-139 19 407 233 171 120 
-138 19 408 225 165 115 
-138 19 408 218 158 108 
-137 19 408 215 148 106 
-137 19 409 207 140 98 
-136 19 409 206 139 97 
-136 19 410 200 133 91 
-135 19 410 191 127 99 
-135 19 411 181 117 89 
-134 19 412 176 130 130 
-134 19 412 233 187 187 
-148 19 410 250 209 187 
-145 19 407 250 203 177 
-144 19 407 253 200 168 
-144 19 407 253 200 168 
-143 19 406 247 200 158 
-142 19 406 244 197 155 
-141 19 406 243 195 147 
-141 19 406 236 188 140 
-140 19 406 237 177 127 
-140 19 407 231 171 121 
-139 19 407 232 169 116 
-139 19 407 230 167 114 
-138 19 408 219 157 106 
-138 19 408 211 149 98 
-137 19 409 207 138 97 
-137 19 409 199 130 89 
-136 20 410 197 130 87 
-136 20 410 190 123 80 
-135 20 411 174 105 110 
-149 20 411 251 208 192 
-148 20 409 253 205 183 
-147 20 408 255 208 186 
-146 20 407 252 207 176 
-145 20 407 250 205 174 
-144 20 407 255 200 171 
-144 20 407 255 198 169 
-143 20 406 252 199 149 
-142 20 406 247 194 144 
-142 20 407 240 187 135 
-141 20 407 232 179 127 
-140 20 407 230 166 118 
-140 20 407 225 161 113 
-139 20 407 223 159 111 
-139 20 408 218 154 106 
-138 20 408 208 149 105 
-138 20 409 199 140 96 
-137 20 409 201 138 84 
-137 20 410 191 128 74 
-136 20 410 191 114 104 
-136 20 411 188 111 101 
-136 20 412 184 140 157 
-149 21 410 250 207 188 
-147 21 408 252 205 179 
-146 21 407 250 203 177 
-146 21 407 254 205 173 
-145 21 406 252 203 171 
-144 21 406 252 201 158 
-143 21 406 248 197 154 
-143 21 406 247 194 144 
-142 21 406 242 189 139 
-142 21 407 237 180 127 
-141 21 407 231 174 121 
-140 21 407 223 159 111 
-140 21 408 221 157 109 
-139 21 408 216 156 106 
-139 21 408 208 148 98 
-139 21 409 197 137 87 
-138 21 410 196 136 86 
-138 21 410 194 125 83 
-137 21 410 194 125 83 
-137 21 411 167 105 106 
-149 21 410 250 206 179 
-148 21 409 250 206 179 
-147 21 407 251 206 175 
-146 21 406 253 208 177 
-145 21 406 255 202 172 
-145 21 406 255 201 171 
-144 21 406 249 202 150 
-143 21 406 243 196 144 
-143 21 406 243 189 142 
-142 21 406 236 182 135 
-142 21 407 235 172 121 
-141 21 407 229 166 115 
-141 21 408 227 165 114 
-140 21 408 215 153 102 
-140 21 409 207 149 103 
-139 21 409 201 143 97 
-139 22 410 196 134 87 
-139 22 411 187 125 78 
-138 22 411 192 122 97 
-138 22 412 179 109 84 
-149 22 409 247 202 171 
-148 22 408 249 204 173 
-147 22 407 250 206 171 
-146 22 406 251 207 172 
-145 22 406 255 201 167 
-145 22 406 253 199 165 
-144 22 406 246 199 147 
-143 22 406 239 192 140 
-143 22 406 240 184 135 
-142 22 407 233 177 128 
-142 22 407 230 166 120 
-141 22 407 224 160 114 
-141 22 408 212 150 101 
-140 22 409 208 146 97 
-140 22 409 199 135 89 
-140 22 410 195 131 85 
-139 22 411 187 122 92 
-139 22 411 181 116 86 
-138 22 412 168 113 110 
-148 23 407 245 200 167 
-147 23 407 247 201 167 
-146 23 406 248 202 168 
-145 23 406 252 200 161 
-145 23 406 247 195 156 
-144 23 406 240 189 146 
-143 23 406 234 183 140 
-143 23 406 236 176 126 
-142 23 407 230 170 120 
-142 23 407 224 160 116 
-141 23 408 217 153 109 
-141 23 409 207 145 98 
-140 23 409 202 140 93 
-140 23 410 202 135 93 
-140 23 411 194 127 85 
-139 23 411 174 114 104 
-139 23 412 184 124 114 
-148 23 407 248 203 174 
-148 23 407 251 206 177 
-147 23 407 247 198 165 
-146 23 406 245 196 163 
-146 23 407 248 197 152 
-145 23 406 241 190 145 
-144 23 406 236 181 142 
-144 23 407 232 177 138 
-143 23 407 231 171 119 
-142 23 407 224 164 112 
-142 23 408 216 154 107 
-142 23 409 208 146 99 
-141 23 409 204 141 98 
-141 23 410 197 134 91 
-141 24 411 189 125 97 
-140 24 411 176 112 84 
-140 24 412 168 123 126 
-148 24 407 213 165 142 
-148 24 407 240 192 169 
-146 24 406 251 200 169 
-146 24 406 246 195 164 
-146 24 407 243 187 140 
-145 24 407 238 182 135 
-144 24 406 234 175 133 
-144 24 407 230 171 129 
-143 24 407 223 165 117 
-143 24 408 213 155 107 
-142 24 408 204 144 92 
-142 24 409 197 137 85 
-141 24 410 200 136 101 
-141 24 410 192 128 93 
-141 24 411 164 114 107 
-140 24 412 197 147 140 
-147 25 407 206 158 136 
-147 25 407 243 188 158 
-146 25 407 243 188 158 
-146 25 407 238 175 131 
-145 25 407 236 173 129 
-144 25 407 229 170 126 
-144 25 407 224 165 121 
-143 25 408 212 158 114 
-143 25 409 199 145 101 
-142 25 409 195 134 80 
-142 25 409 191 130 76 
-141 25 410 193 127 101 
-141 25 410 179 113 87 
-140 25 411 196 156 165 
-147 25 407 174 128 102 
-147 25 407 207 148 116 
-146 25 407 229 170 138 
-146 25 407 236 172 136 
-145 25 407 236 172 136 
-145 25 408 223 170 126 
-144 25 408 214 161 117 
-144 25 409 206 152 106 
-143 25 409 198 144 98 
-143 25 410 198 132 80 
-142 25 410 189 123 71 
-141 25 410 174 117 88 
-147 26 407 219 172 146 
-147 26 407 177 118 88 
-146 26 407 184 125 95 
-146 26 408 218 158 124 
-145 26 408 220 160 126 
-145 26 408 218 164 120 
-144 26 409 208 154 110 
-144 26 409 200 142 96 
-143 26 410 193 135 89 
-143 26 411 187 123 75 
-142 26 411 179 115 67 
-142 26 411 166 116 93 
-146 27 407 163 106 77 
-146 27 408 171 112 80 
-145 27 408 189 130 98 
-145 27 408 206 147 105 
-144 27 409 199 140 98 
-144 27 409 193 131 90 
-143 27 410 188 126 85 
-143 27 411 167 112 73 
-146 27 407 223 168 138 
-146 27 408 180 121 89 
-145 27 408 162 103 71 
-145 27 408 163 108 69 
-144 27 409 174 119 80 
-144 27 410 168 115 84 
-143 27 410 165 112 81 
-146 28 408 224 168 135 
-145 28 408 181 125 92 
-145 28 409 147 98 66 
-145 28 410 151 102 70 
-144 28 410 142 105 89 
-144 28 411 140 103 87 
-145 29 408 210 159 130 
-145 29 408 155 117 94 
-145 29 409 133 107 94 
