ply
format ascii 1.0
comment Created by CloudCompare v2.10.1 (Zephyrus)
comment Created 2020-05-06 8:40 PM
obj_info Generated by CloudCompare!
element vertex 146
property float x
property float y
property float z
property uchar red
property uchar green
property uchar blue
end_header
-117 -14 412 249 218 213 
-116 -14 411 252 221 216 
-116 -14 411 254 217 201 
-118 -13 411 253 215 212 
-117 -13 410 254 220 210 
-116 -13 410 255 224 214 
-115 -13 409 255 219 197 
-114 -13 409 255 223 201 
-114 -13 409 252 214 191 
-119 -12 412 244 203 199 
-118 -12 411 249 208 204 
-117 -12 411 255 224 212 
-116 -12 410 255 225 213 
-115 -12 409 255 217 194 
-114 -12 409 253 215 192 
-114 -12 409 255 219 194 
-113 -12 409 252 212 187 
-113 -12 409 231 187 162 
-112 -12 409 202 158 133 
-118 -12 411 239 197 183 
-118 -12 411 246 204 190 
-117 -12 411 254 213 195 
-116 -12 410 254 213 195 
-115 -12 409 255 217 200 
-114 -12 409 255 218 201 
-114 -12 409 255 218 195 
-113 -12 409 255 217 194 
-113 -12 409 255 208 178 
-112 -12 409 236 187 157 
-119 -11 411 220 187 182 
-118 -11 410 236 197 182 
-117 -11 410 247 208 193 
-117 -11 410 245 207 188 
-116 -11 410 250 212 193 
-115 -11 409 253 212 190 
-114 -11 409 255 215 193 
-114 -11 409 255 217 190 
-113 -11 409 255 215 188 
-113 -11 409 255 212 182 
-112 -11 409 252 205 175 
-111 -11 409 233 184 154 
-111 -11 409 208 159 129 
-119 -10 410 208 171 162 
-119 -10 410 218 181 172 
-118 -10 410 231 194 178 
-117 -10 410 238 201 185 
-117 -10 410 242 205 186 
-116 -10 410 243 206 187 
-115 -10 410 254 208 182 
-114 -10 409 255 209 183 
-114 -10 409 255 210 181 
-113 -10 409 250 205 176 
-113 -10 409 250 203 175 
-112 -10 409 253 206 178 
-111 -10 409 240 193 163 
-111 -10 410 217 170 140 
-110 -10 410 201 152 120 
-110 -10 411 170 121 89 
-118 -10 409 206 170 156 
-118 -10 410 225 188 172 
-117 -10 410 234 197 181 
-117 -10 410 239 201 182 
-116 -10 410 240 202 183 
-115 -10 410 252 205 175 
-115 -10 410 248 201 171 
-114 -10 409 246 199 171 
-113 -10 409 242 195 167 
-113 -10 409 241 191 164 
-112 -10 409 241 191 164 
-112 -10 410 237 187 160 
-111 -10 410 227 177 150 
-110 -10 410 214 165 135 
-110 -10 411 190 141 111 
-118 -9 409 214 181 162 
-118 -9 409 215 180 161 
-117 -9 410 230 195 176 
-117 -9 410 234 191 174 
-116 -9 410 235 192 175 
-115 -9 410 242 193 161 
-115 -9 410 240 191 159 
-114 -9 410 238 189 157 
-113 -9 409 236 187 155 
-113 -9 409 233 182 151 
-112 -9 410 231 180 149 
-112 -9 410 229 176 145 
-111 -9 411 224 171 140 
-110 -9 411 213 163 136 
-110 -9 411 194 144 117 
-109 -9 412 152 114 93 
-109 -9 412 141 103 82 
-117 -8 409 217 180 161 
-116 -8 409 226 183 164 
-116 -8 409 227 184 165 
-115 -8 410 229 183 149 
-115 -8 410 229 183 149 
-114 -8 410 232 182 147 
-113 -8 410 230 180 145 
-113 -8 410 231 178 144 
-112 -8 410 229 176 142 
-112 -8 411 223 169 135 
-111 -8 411 213 159 125 
-110 -8 411 202 155 127 
-110 -8 412 174 127 99 
-110 -8 413 153 120 105 
-117 -8 409 224 188 164 
-116 -8 409 221 179 157 
-116 -8 409 222 180 158 
-115 -8 409 222 176 142 
-115 -8 410 221 175 141 
-114 -8 410 223 175 139 
-113 -8 410 221 173 137 
-113 -8 410 221 169 132 
-112 -8 411 221 169 132 
-112 -8 411 214 161 127 
-111 -8 411 200 147 113 
-111 -8 412 177 131 107 
-110 -8 412 175 129 105 
-116 -7 409 222 182 157 
-116 -7 409 206 166 141 
-115 -7 409 217 171 138 
-115 -7 410 212 166 133 
-114 -7 410 213 164 131 
-113 -7 410 210 161 128 
-113 -7 410 204 151 117 
-112 -7 411 200 147 113 
-112 -7 411 191 141 108 
-111 -7 411 178 128 95 
-111 -7 412 176 131 108 
-115 -6 409 211 160 129 
-115 -6 410 207 156 125 
-114 -6 410 202 158 121 
-114 -6 411 192 148 111 
-113 -6 411 188 135 101 
-112 -6 411 175 122 88 
-112 -6 412 174 118 95 
-111 -6 412 180 124 101 
-115 -6 409 217 166 135 
-115 -6 410 201 150 119 
-114 -6 410 188 142 108 
-114 -6 411 172 126 92 
-113 -6 411 162 112 85 
-113 -6 412 166 116 89 
-112 -6 412 173 126 110 
-112 -6 413 169 122 106 
-114 -5 410 178 128 95 
-114 -5 411 159 109 76 
