ply
format ascii 1.0
comment Created by CloudCompare v2.10.1 (Zephyrus)
comment Created 2020-05-06 8:41 PM
obj_info Generated by CloudCompare!
element vertex 1049
property float x
property float y
property float z
property uchar red
property uchar green
property uchar blue
property float scalar_Original_cloud_index
end_header
-62 -14 412 160 121 104 0 
-61 -14 410 182 136 113 0 
-61 -14 409 194 148 125 0 
-60 -14 408 208 153 123 0 
-59 -14 407 217 162 132 0 
-58 -14 407 226 173 142 0 
-57 -14 406 230 177 146 0 
-57 -14 405 229 182 156 0 
-56 -14 404 231 184 158 0 
-55 -14 404 233 189 164 0 
-55 -14 404 236 192 167 0 
-54 -14 403 238 194 167 0 
-53 -14 402 238 194 167 0 
-52 -14 402 241 194 164 0 
-52 -14 402 243 196 166 0 
-51 -14 402 239 197 172 0 
-50 -14 402 241 199 174 0 
-50 -14 402 242 202 177 0 
-49 -14 402 241 201 176 0 
-48 -14 402 239 201 178 0 
-48 -14 402 240 202 179 0 
-47 -14 402 240 202 179 0 
-46 -14 402 239 201 178 0 
-46 -14 402 244 202 178 0 
-45 -14 402 241 199 175 0 
-45 -14 403 243 196 170 0 
-44 -14 403 238 191 165 0 
-43 -14 403 236 180 153 0 
-43 -14 404 231 175 148 0 
-42 -14 404 229 170 140 0 
-41 -14 405 224 165 135 0 
-41 -14 405 218 158 122 0 
-40 -14 406 214 154 118 0 
-40 -14 407 211 146 108 0 
-39 -14 407 201 136 98 0 
-38 -14 408 183 129 101 0 
-62 -14 413 195 156 139 0 
-61 -14 411 216 170 146 0 
-61 -14 409 221 175 151 0 
-60 -14 408 237 184 153 0 
-59 -14 407 244 191 160 0 
-58 -14 406 247 194 162 0 
-57 -14 405 251 198 166 0 
-56 -13 404 249 202 174 0 
-56 -13 404 251 204 176 0 
-55 -13 403 252 210 185 0 
-54 -13 403 255 214 189 0 
-54 -13 402 255 217 192 0 
-53 -13 402 255 219 194 0 
-52 -13 402 255 221 196 0 
-52 -13 402 255 221 196 0 
-51 -13 401 255 224 196 0 
-50 -13 401 255 227 199 0 
-50 -13 401 255 228 203 0 
-49 -13 401 255 227 202 0 
-48 -13 401 255 225 204 0 
-48 -13 401 255 225 204 0 
-47 -13 402 255 228 207 0 
-46 -13 402 255 228 207 0 
-46 -13 402 255 228 207 0 
-45 -13 402 255 225 204 0 
-44 -13 402 255 223 197 0 
-44 -13 403 255 219 193 0 
-43 -13 403 255 208 180 0 
-43 -14 404 249 202 174 0 
-42 -14 404 250 195 165 0 
-41 -14 404 244 189 159 0 
-41 -14 405 244 185 153 0 
-40 -14 406 236 177 145 0 
-40 -14 406 234 170 132 0 
-39 -14 407 233 169 131 0 
-38 -14 408 211 158 127 0 
-62 -13 412 209 168 146 0 
-61 -13 410 221 175 149 0 
-61 -13 409 227 181 155 0 
-60 -13 407 241 188 156 0 
-59 -13 406 249 196 164 0 
-58 -13 406 252 199 165 0 
-57 -13 405 255 205 171 0 
-56 -13 404 253 207 174 0 
-56 -13 403 255 209 176 0 
-55 -13 403 254 213 185 0 
-54 -13 402 255 216 188 0 
-54 -13 402 255 221 195 0 
-53 -13 402 255 224 198 0 
-52 -13 401 255 224 202 0 
-52 -13 401 255 224 202 0 
-51 -13 401 255 223 198 0 
-50 -13 401 255 225 200 0 
-50 -13 401 255 227 203 0 
-49 -13 401 255 226 202 0 
-48 -13 401 251 225 202 0 
-48 -13 401 252 226 203 0 
-47 -13 401 252 228 204 0 
-46 -13 401 252 228 204 0 
-46 -13 402 255 228 204 0 
-45 -13 402 253 225 201 0 
-44 -13 402 255 223 199 0 
-44 -13 403 255 221 197 0 
-43 -13 403 255 212 188 0 
-43 -13 403 254 208 184 0 
-42 -13 404 254 203 176 0 
-41 -13 404 250 199 172 0 
-41 -13 404 250 193 163 0 
-40 -13 405 241 184 154 0 
-40 -13 406 234 176 136 0 
-39 -13 407 226 168 128 0 
-38 -13 407 216 164 127 0 
-38 -13 408 215 163 126 0 
-62 -12 411 209 167 142 0 
-61 -12 409 217 170 140 0 
-60 -12 408 230 183 153 0 
-60 -12 407 238 188 153 0 
-59 -12 406 246 196 161 0 
-58 -12 406 254 204 169 0 
-57 -12 405 255 207 172 0 
-56 -12 404 255 208 175 0 
-56 -12 403 255 210 177 0 
-55 -12 403 255 213 184 0 
-54 -12 402 255 215 186 0 
-54 -12 402 255 220 194 0 
-53 -12 402 255 222 196 0 
-52 -12 401 255 224 203 0 
-52 -12 401 254 223 202 0 
-51 -12 401 254 222 197 0 
-50 -12 401 255 223 198 0 
-50 -12 401 255 226 202 0 
-49 -12 401 255 226 202 0 
-48 -12 401 253 225 201 0 
-48 -12 401 254 226 202 0 
-47 -12 401 255 228 201 0 
-46 -12 401 254 227 200 0 
-46 -12 401 255 227 199 0 
-45 -12 402 255 224 196 0 
-44 -12 402 255 220 195 0 
-44 -12 403 255 218 193 0 
-43 -12 403 255 210 186 0 
-43 -12 403 252 206 182 0 
-42 -12 403 252 202 177 0 
-41 -12 404 249 199 174 0 
-41 -12 404 251 194 165 0 
-40 -12 405 244 187 158 0 
-40 -12 405 239 186 146 0 
-39 -12 406 227 174 134 0 
-38 -12 407 221 169 129 0 
-38 -12 408 218 166 126 0 
-37 -12 409 213 163 136 0 
-37 -12 410 237 187 160 0 
-63 -12 413 204 161 129 0 
-62 -12 409 211 168 136 0 
-61 -12 408 220 175 142 0 
-60 -12 407 226 181 148 0 
-59 -12 406 235 189 155 0 
-59 -12 406 243 197 163 0 
-58 -12 405 247 202 169 0 
-57 -12 404 249 204 171 0 
-56 -12 404 248 205 173 0 
-56 -11 403 252 209 177 0 
-55 -11 402 254 213 185 0 
-54 -11 402 255 215 187 0 
-53 -11 401 254 217 191 0 
-53 -11 401 255 219 193 0 
-52 -11 401 255 221 199 0 
-52 -11 401 255 223 201 0 
-51 -11 401 253 223 195 0 
-50 -11 401 253 223 195 0 
-50 -11 401 252 224 200 0 
-49 -11 401 252 224 200 0 
-48 -11 401 255 224 203 0 
-48 -11 401 253 222 201 0 
-47 -11 401 253 221 200 0 
-46 -11 401 255 223 202 0 
-46 -11 401 255 223 200 0 
-45 -11 402 254 222 199 0 
-44 -11 402 255 219 197 0 
-44 -11 402 254 218 196 0 
-43 -11 402 255 213 189 0 
-43 -12 403 248 206 182 0 
-42 -12 403 247 200 174 0 
-41 -12 404 247 200 174 0 
-41 -12 404 249 200 167 0 
-40 -12 404 246 197 164 0 
-40 -12 405 242 189 155 0 
-39 -12 406 235 182 148 0 
-38 -12 407 234 176 136 0 
-38 -12 408 224 166 126 0 
-37 -12 409 216 166 133 0 
-37 -12 410 227 177 144 0 
-63 -11 412 209 164 131 0 
-62 -11 408 214 169 136 0 
-61 -11 407 221 175 141 0 
-60 -11 406 228 182 148 0 
-59 -11 405 238 189 156 0 
-59 -11 405 243 194 161 0 
-58 -11 404 245 199 166 0 
-57 -11 404 250 204 171 0 
-56 -11 403 251 206 175 0 
-56 -11 402 255 210 179 0 
-55 -11 402 254 213 183 0 
-54 -11 401 255 214 184 0 
-53 -11 401 254 217 191 0 
-53 -11 401 255 219 193 0 
-52 -11 401 255 220 198 0 
-52 -11 401 255 222 200 0 
-51 -11 401 253 222 194 0 
-50 -11 401 253 222 194 0 
-49 -11 400 252 222 196 0 
-49 -11 400 252 222 196 0 
-48 -11 400 253 223 199 0 
-47 -11 400 253 223 199 0 
-47 -11 401 253 221 198 0 
-46 -11 401 254 222 199 0 
-46 -11 401 255 221 199 0 
-45 -11 401 255 221 199 0 
-44 -11 402 255 220 196 0 
-44 -11 402 254 218 194 0 
-43 -11 402 255 213 189 0 
-42 -11 402 250 208 184 0 
-42 -11 403 249 203 177 0 
-41 -11 403 248 202 176 0 
-41 -11 404 250 204 171 0 
-40 -11 404 249 203 170 0 
-39 -11 404 250 197 163 0 
-39 -11 405 244 191 157 0 
-38 -11 406 239 184 143 0 
-38 -11 407 227 172 131 0 
-37 -11 408 217 167 134 0 
-37 -11 409 224 174 141 0 
-63 -10 411 212 166 132 0 
-62 -10 408 216 170 136 0 
-61 -10 407 223 175 139 0 
-60 -10 405 230 182 146 0 
-59 -10 405 237 189 153 0 
-58 -10 404 241 193 157 0 
-58 -10 403 246 197 164 0 
-57 -10 403 252 203 170 0 
-56 -10 403 252 207 174 0 
-56 -10 402 254 209 176 0 
-55 -10 402 254 210 181 0 
-54 -10 401 255 211 182 0 
-53 -10 401 253 216 190 0 
-53 -10 401 254 217 191 0 
-52 -10 401 253 219 194 0 
-52 -10 401 255 222 197 0 
-51 -10 400 254 219 191 0 
-50 -10 400 255 220 192 0 
-49 -10 400 252 221 193 0 
-49 -10 400 252 221 193 0 
-48 -10 400 252 222 198 0 
-47 -10 400 252 222 198 0 
-47 -10 400 252 220 197 0 
-46 -10 401 252 220 197 0 
-46 -10 401 255 221 199 0 
-45 -10 401 255 221 199 0 
-44 -10 401 255 220 196 0 
-44 -10 402 254 218 194 0 
-43 -10 402 255 215 189 0 
-42 -10 402 252 212 186 0 
-42 -10 403 250 209 181 0 
-41 -10 403 249 208 180 0 
-41 -10 403 255 207 175 0 
-40 -10 404 254 205 173 0 
-39 -10 404 253 200 166 0 
-39 -10 405 246 193 159 0 
-38 -10 406 239 186 146 0 
-38 -10 407 228 175 135 0 
-37 -10 408 217 167 134 0 
-37 -10 409 220 170 137 0 
-36 -10 410 203 189 189 0 
-62 -10 409 212 163 130 0 
-62 -10 407 218 169 136 0 
-61 -10 406 223 175 139 0 
-60 -10 405 228 180 144 0 
-59 -10 405 234 186 150 0 
-58 -10 404 238 190 154 0 
-58 -10 403 245 197 161 0 
-57 -10 403 252 204 168 0 
-56 -10 403 250 204 171 0 
-56 -10 402 251 205 172 0 
-55 -10 402 250 209 179 0 
-54 -9 401 252 211 181 0 
-53 -9 401 251 214 188 0 
-53 -9 400 251 214 188 0 
-52 -9 400 251 217 192 0 
-51 -9 400 254 220 195 0 
-51 -9 400 254 217 190 0 
-50 -9 400 255 218 191 0 
-49 -9 400 254 218 192 0 
-49 -9 400 254 218 192 0 
-48 -9 400 251 219 194 0 
-47 -9 400 252 220 195 0 
-47 -9 400 251 219 196 0 
-46 -9 400 251 219 196 0 
-46 -9 401 255 220 198 0 
-45 -9 401 255 220 198 0 
-44 -9 401 255 218 195 0 
-44 -10 402 255 217 194 0 
-43 -10 402 255 216 190 0 
-42 -10 402 255 215 189 0 
-42 -10 402 253 214 185 0 
-41 -10 403 252 213 184 0 
-41 -10 403 255 207 175 0 
-40 -10 404 253 204 172 0 
-39 -10 404 251 197 163 0 
-39 -10 405 243 189 155 0 
-38 -10 406 236 182 144 0 
-38 -10 407 227 173 135 0 
-37 -10 408 217 167 130 0 
-37 -10 409 219 169 132 0 
-36 -10 410 205 182 174 0 
-62 -9 409 207 159 123 0 
-62 -9 407 218 170 134 0 
-61 -9 406 226 178 142 0 
-60 -9 405 226 178 142 0 
-59 -9 405 229 181 145 0 
-58 -9 404 233 185 149 0 
-58 -9 403 241 193 157 0 
-57 -9 403 250 202 166 0 
-56 -9 403 247 201 168 0 
-56 -9 402 248 202 169 0 
-55 -9 401 248 207 177 0 
-54 -9 401 252 211 181 0 
-53 -9 401 250 213 187 0 
-53 -9 400 251 214 188 0 
-52 -9 400 252 216 192 0 
-51 -9 400 253 217 193 0 
-51 -9 400 255 215 189 0 
-50 -9 400 255 215 189 0 
-49 -9 400 252 215 189 0 
-49 -9 400 251 214 188 0 
-48 -9 400 250 216 191 0 
-47 -9 400 253 219 194 0 
-47 -9 400 252 220 197 0 
-46 -9 400 252 220 197 0 
-46 -9 400 255 221 199 0 
-45 -9 401 255 221 199 0 
-44 -9 401 255 219 196 0 
-44 -9 401 255 217 194 0 
-43 -9 402 254 217 190 0 
-42 -9 402 254 217 190 0 
-42 -9 402 254 214 188 0 
-41 -9 402 251 211 185 0 
-41 -9 403 255 205 174 0 
-40 -9 403 254 203 172 0 
-39 -9 404 251 195 160 0 
-39 -9 405 243 187 152 0 
-38 -9 405 236 184 145 0 
-38 -9 407 228 176 137 0 
-37 -9 407 222 169 129 0 
-36 -9 408 221 168 128 0 
-36 -9 410 207 176 158 0 
-62 -8 409 204 156 120 0 
-62 -8 407 218 170 134 0 
-61 -8 406 227 179 143 0 
-60 -8 405 226 178 142 0 
-59 -8 404 226 178 142 0 
-58 -8 404 228 180 144 0 
-58 -8 403 236 188 152 0 
-57 -8 403 245 197 161 0 
-56 -8 402 246 200 166 0 
-56 -8 402 247 201 167 0 
-55 -8 401 250 206 177 0 
-54 -8 401 254 210 181 0 
-53 -8 400 250 213 186 0 
-53 -8 400 251 214 187 0 
-52 -8 400 251 215 191 0 
-51 -8 400 250 214 190 0 
-51 -8 400 253 211 186 0 
-50 -8 400 253 211 186 0 
-49 -8 399 251 211 186 0 
-49 -8 399 252 212 187 0 
-48 -8 399 250 214 190 0 
-47 -8 399 253 217 193 0 
-47 -8 399 255 220 198 0 
-46 -8 400 255 221 199 0 
-46 -8 400 255 222 200 0 
-45 -8 401 255 221 199 0 
-44 -8 401 255 221 195 0 
-44 -8 401 255 219 193 0 
-43 -8 401 254 217 190 0 
-42 -8 402 252 215 188 0 
-42 -8 402 252 213 184 0 
-41 -8 402 249 210 181 0 
-41 -8 403 255 203 172 0 
-40 -8 403 254 201 170 0 
-39 -8 403 251 195 160 0 
-39 -8 404 244 188 153 0 
-38 -8 405 234 185 145 0 
-38 -8 406 227 178 138 0 
-37 -8 407 221 168 126 0 
-36 -8 408 219 166 124 0 
-36 -8 409 210 170 144 0 
-62 -8 409 203 155 119 0 
-62 -8 407 216 168 132 0 
-61 -8 406 225 177 141 0 
-60 -8 405 228 180 144 0 
-59 -8 404 230 180 145 0 
-58 -8 404 228 178 143 0 
-58 -8 403 233 183 146 0 
-57 -8 402 242 192 155 0 
-56 -8 402 245 196 163 0 
-55 -8 401 247 198 165 0 
-55 -8 401 248 205 173 0 
-54 -7 400 252 209 177 0 
-53 -7 400 250 210 184 0 
-53 -7 400 251 211 185 0 
-52 -7 400 249 212 186 0 
-51 -7 400 248 211 185 0 
-51 -7 400 252 210 185 0 
-50 -7 400 251 209 184 0 
-49 -7 399 251 209 184 0 
-49 -7 399 253 211 186 0 
-48 -7 399 253 212 190 0 
-47 -7 399 255 214 192 0 
-47 -7 399 255 219 197 0 
-46 -7 399 255 220 198 0 
-46 -7 400 255 222 200 0 
-45 -8 400 255 221 199 0 
-44 -8 401 255 221 195 0 
-44 -8 401 255 220 194 0 
-43 -8 401 253 216 187 0 
-42 -8 402 250 213 184 0 
-42 -8 402 249 210 181 0 
-41 -8 402 246 207 178 0 
-41 -8 403 255 199 172 0 
-40 -8 403 252 196 169 0 
-39 -8 403 252 193 159 0 
-39 -8 404 245 186 152 0 
-38 -8 405 231 183 145 0 
-38 -8 406 224 176 138 0 
-37 -8 407 221 168 124 0 
-36 -8 408 218 165 121 0 
-36 -8 409 210 165 132 0 
-62 -7 409 204 156 120 0 
-62 -7 407 212 164 128 0 
-61 -7 406 222 174 138 0 
-60 -7 405 230 182 146 0 
-59 -7 404 234 184 147 0 
-58 -7 404 231 181 144 0 
-58 -7 403 234 182 145 0 
-57 -7 402 242 190 153 0 
-56 -7 401 240 192 156 0 
-55 -7 401 245 197 161 0 
-55 -7 400 248 203 172 0 
-54 -7 400 251 206 175 0 
-53 -7 400 248 207 179 0 
-53 -7 399 248 207 179 0 
-52 -7 399 248 208 182 0 
-51 -7 399 249 209 183 0 
-51 -7 399 253 211 186 0 
-50 -7 399 251 209 184 0 
-49 -7 399 251 209 184 0 
-49 -7 399 253 211 186 0 
-48 -7 398 252 212 187 0 
-47 -7 399 254 214 189 0 
-47 -7 399 255 219 197 0 
-46 -7 399 255 220 198 0 
-45 -7 399 255 222 197 0 
-45 -7 399 255 222 197 0 
-44 -7 400 255 222 194 0 
-44 -7 401 255 221 193 0 
-43 -7 401 253 217 185 0 
-42 -7 401 249 213 181 0 
-42 -7 402 249 210 179 0 
-41 -7 402 246 207 176 0 
-41 -7 403 254 200 172 0 
-40 -7 403 251 197 169 0 
-39 -7 404 252 193 159 0 
-39 -7 404 245 186 152 0 
-38 -7 405 228 182 146 0 
-38 -7 405 222 176 140 0 
-37 -7 407 222 169 125 0 
-36 -7 408 220 167 123 0 
-36 -7 409 210 162 126 0 
-62 -6 408 204 156 120 0 
-62 -6 408 214 166 130 0 
-61 -6 406 220 172 136 0 
-60 -6 405 227 179 143 0 
-59 -6 405 234 186 150 0 
-58 -6 404 234 186 150 0 
-58 -6 403 231 185 151 0 
-57 -6 402 233 187 153 0 
-56 -6 402 236 190 156 0 
-55 -6 401 240 194 160 0 
-55 -6 400 246 200 166 0 
-54 -6 400 250 204 170 0 
-53 -6 400 251 205 172 0 
-53 -6 400 251 205 172 0 
-52 -6 399 254 208 175 0 
-51 -6 399 255 209 176 0 
-51 -6 399 252 208 181 0 
-50 -6 399 253 209 182 0 
-49 -6 399 253 212 184 0 
-49 -6 399 255 214 186 0 
-48 -6 399 254 214 189 0 
-47 -6 399 254 214 189 0 
-47 -6 399 253 217 193 0 
-46 -6 399 254 218 194 0 
-45 -6 399 255 222 198 0 
-45 -6 399 255 222 198 0 
-44 -6 400 255 220 194 0 
-44 -6 400 255 218 192 0 
-43 -6 400 255 214 186 0 
-42 -6 401 250 209 181 0 
-42 -6 402 247 206 176 0 
-41 -6 402 247 206 176 0 
-41 -6 402 249 199 164 0 
-40 -6 403 248 198 163 0 
-39 -6 404 249 194 155 0 
-39 -6 404 243 188 149 0 
-38 -6 405 236 181 142 0 
-38 -6 405 231 176 137 0 
-37 -6 407 224 171 129 0 
-36 -6 408 218 165 123 0 
-36 -6 409 207 159 119 0 
-62 -6 409 201 153 115 0 
-62 -6 407 212 164 126 0 
-61 -6 406 217 169 133 0 
-60 -6 405 222 174 138 0 
-59 -6 405 228 180 144 0 
-58 -6 404 229 181 145 0 
-58 -6 403 230 182 146 0 
-57 -6 402 235 187 151 0 
-56 -6 402 236 187 154 0 
-55 -6 401 240 191 158 0 
-55 -6 400 242 196 162 0 
-54 -6 400 247 201 167 0 
-53 -6 400 248 202 169 0 
-53 -6 400 249 203 170 0 
-52 -6 399 252 206 173 0 
-51 -6 399 253 207 174 0 
-51 -6 399 253 208 177 0 
-50 -6 399 255 210 179 0 
-49 -6 398 255 211 182 0 
-49 -6 398 255 211 182 0 
-48 -6 399 253 211 186 0 
-47 -6 399 254 212 187 0 
-47 -6 399 253 216 190 0 
-46 -6 399 254 217 191 0 
-45 -6 399 255 220 194 0 
-45 -6 399 255 221 195 0 
-44 -6 400 255 219 193 0 
-44 -6 400 255 217 191 0 
-43 -6 400 254 213 185 0 
-42 -6 401 249 208 180 0 
-42 -6 401 248 204 175 0 
-41 -6 402 247 203 174 0 
-41 -6 402 248 198 163 0 
-40 -6 403 246 196 161 0 
-39 -6 404 247 192 153 0 
-39 -6 404 242 187 148 0 
-38 -6 405 235 182 142 0 
-38 -6 406 229 176 136 0 
-37 -6 407 223 170 128 0 
-36 -6 408 215 162 120 0 
-36 -6 409 205 157 117 0 
-62 -5 409 198 148 111 0 
-62 -5 407 210 160 123 0 
-61 -5 406 215 165 128 0 
-60 -5 406 219 169 132 0 
-59 -5 405 226 176 139 0 
-58 -5 404 228 178 141 0 
-58 -5 403 229 181 145 0 
-57 -5 402 233 185 149 0 
-56 -5 401 234 185 152 0 
-55 -5 401 237 188 155 0 
-55 -5 400 242 193 160 0 
-54 -5 400 247 198 165 0 
-53 -5 400 247 198 166 0 
-53 -5 400 249 200 168 0 
-52 -5 399 253 204 172 0 
-51 -5 399 253 204 172 0 
-51 -5 399 254 205 173 0 
-50 -5 399 255 207 175 0 
-49 -5 398 254 207 177 0 
-49 -5 398 254 207 177 0 
-48 -5 398 252 208 181 0 
-47 -5 399 253 209 182 0 
-47 -5 399 254 212 187 0 
-46 -5 399 255 213 188 0 
-45 -5 399 255 216 190 0 
-45 -5 399 255 217 191 0 
-44 -5 400 255 217 189 0 
-44 -5 400 255 215 187 0 
-43 -5 400 255 211 182 0 
-42 -5 401 251 207 178 0 
-42 -5 402 247 202 171 0 
-41 -5 402 245 200 169 0 
-41 -5 402 247 197 162 0 
-40 -5 403 243 193 158 0 
-39 -5 404 244 189 150 0 
-39 -5 405 240 185 146 0 
-38 -5 405 234 181 141 0 
-38 -5 406 229 176 136 0 
-37 -5 407 222 169 127 0 
-36 -5 408 214 161 119 0 
-36 -5 409 201 153 113 0 
-62 -4 409 192 143 103 0 
-62 -4 408 204 155 115 0 
-61 -4 406 211 162 122 0 
-60 -4 405 217 168 128 0 
-59 -4 405 224 174 137 0 
-58 -4 404 227 177 140 0 
-58 -4 403 228 178 143 0 
-57 -4 402 229 179 144 0 
-56 -4 401 230 182 146 0 
-55 -4 401 235 187 151 0 
-55 -4 401 240 191 158 0 
-54 -4 400 245 196 163 0 
-53 -4 400 245 196 164 0 
-53 -4 400 246 197 165 0 
-52 -4 399 250 201 169 0 
-51 -4 399 252 203 171 0 
-51 -4 399 252 202 169 0 
-50 -4 399 253 203 170 0 
-49 -4 399 253 204 172 0 
-49 -4 399 253 204 172 0 
-48 -4 399 250 205 176 0 
-47 -4 399 253 208 179 0 
-47 -4 399 255 211 184 0 
-46 -4 399 255 212 185 0 
-46 -4 400 254 213 185 0 
-45 -4 400 255 214 186 0 
-44 -4 400 255 212 183 0 
-44 -4 400 255 211 182 0 
-43 -4 400 255 210 179 0 
-42 -4 401 252 207 176 0 
-42 -4 401 248 202 169 0 
-41 -4 402 244 198 165 0 
-41 -4 402 245 195 160 0 
-40 -4 403 239 189 154 0 
-39 -4 404 238 185 145 0 
-39 -4 404 235 182 142 0 
-38 -4 405 231 178 138 0 
-38 -4 406 228 175 135 0 
-37 -4 407 220 167 125 0 
-36 -4 408 211 158 116 0 
-36 -4 408 197 148 108 0 
-62 -4 409 189 140 100 0 
-62 -4 408 199 150 110 0 
-61 -4 406 208 159 119 0 
-60 -4 405 214 165 125 0 
-59 -4 404 220 170 133 0 
-58 -4 404 223 173 136 0 
-58 -4 403 224 174 137 0 
-57 -4 402 222 172 135 0 
-56 -4 401 225 177 141 0 
-55 -4 401 232 184 148 0 
-55 -4 401 237 188 155 0 
-54 -4 401 241 192 159 0 
-53 -4 400 242 193 160 0 
-53 -4 400 243 194 161 0 
-52 -4 400 246 197 164 0 
-51 -4 399 248 199 166 0 
-51 -4 399 252 199 165 0 
-50 -4 399 253 200 166 0 
-49 -4 399 252 202 169 0 
-49 -4 399 252 202 169 0 
-48 -4 399 249 202 172 0 
-47 -4 399 252 205 175 0 
-47 -4 399 254 209 180 0 
-46 -4 399 255 211 182 0 
-46 -4 400 254 210 181 0 
-45 -4 400 254 210 181 0 
-44 -4 400 255 210 181 0 
-44 -4 400 254 209 180 0 
-43 -4 400 255 208 178 0 
-42 -4 401 253 206 176 0 
-42 -4 401 251 202 170 0 
-41 -4 401 247 198 166 0 
-41 -4 402 246 196 159 0 
-40 -4 403 239 189 152 0 
-39 -4 404 236 183 143 0 
-39 -4 404 232 179 139 0 
-38 -4 405 227 174 132 0 
-38 -4 406 224 171 129 0 
-37 -4 407 217 164 122 0 
-36 -4 408 207 154 112 0 
-36 -4 408 195 146 106 0 
-35 -4 409 183 134 94 0 
-62 -3 409 186 137 97 0 
-62 -3 408 198 149 109 0 
-61 -3 406 209 160 120 0 
-60 -3 405 215 166 126 0 
-59 -3 404 218 169 129 0 
-58 -3 403 218 169 129 0 
-58 -3 403 219 169 132 0 
-57 -3 402 217 167 130 0 
-56 -3 402 221 171 134 0 
-55 -3 401 228 178 141 0 
-55 -3 401 231 183 147 0 
-54 -3 401 236 188 152 0 
-53 -3 401 239 191 155 0 
-53 -3 401 239 191 155 0 
-52 -3 400 241 192 159 0 
-51 -3 400 244 195 162 0 
-51 -3 400 249 195 161 0 
-50 -3 400 250 196 162 0 
-49 -3 399 249 196 164 0 
-49 -3 399 249 196 164 0 
-48 -3 399 246 197 165 0 
-47 -3 399 248 199 167 0 
-47 -3 399 249 202 172 0 
-46 -3 399 251 204 174 0 
-46 -3 400 253 206 176 0 
-45 -3 400 252 205 175 0 
-44 -3 400 252 205 175 0 
-44 -3 400 252 205 175 0 
-43 -3 400 253 204 172 0 
-42 -3 401 252 203 171 0 
-42 -3 401 250 200 167 0 
-41 -3 401 246 196 163 0 
-41 -3 402 250 198 161 0 
-40 -3 403 244 192 155 0 
-39 -3 404 240 185 144 0 
-39 -3 404 234 179 138 0 
-38 -3 405 227 174 132 0 
-38 -3 406 223 170 128 0 
-37 -3 407 217 163 119 0 
-36 -3 408 207 153 109 0 
-36 -3 408 192 143 102 0 
-62 -2 409 185 133 94 0 
-62 -2 408 198 146 107 0 
-61 -2 406 210 158 119 0 
-60 -2 405 216 164 125 0 
-59 -2 404 215 163 124 0 
-58 -2 403 215 163 124 0 
-58 -2 402 215 165 128 0 
-57 -2 402 215 165 128 0 
-56 -2 402 219 169 132 0 
-56 -2 402 225 175 138 0 
-55 -2 402 229 179 144 0 
-54 -2 401 233 183 148 0 
-53 -2 401 236 186 151 0 
-53 -2 400 238 188 153 0 
-52 -2 400 240 190 155 0 
-51 -2 400 242 192 157 0 
-51 -2 400 247 191 156 0 
-50 -2 400 246 190 155 0 
-49 -2 400 244 190 156 0 
-49 -2 399 244 190 156 0 
-48 -2 399 241 191 158 0 
-47 -2 399 242 192 159 0 
-47 -2 399 244 195 163 0 
-46 -2 399 248 199 167 0 
-46 -2 400 250 201 169 0 
-45 -2 400 248 199 167 0 
-44 -2 400 249 198 167 0 
-44 -2 400 250 199 168 0 
-43 -2 401 252 199 165 0 
-42 -2 401 250 197 163 0 
-42 -2 402 248 194 158 0 
-41 -2 402 245 191 155 0 
-41 -2 402 246 194 157 0 
-40 -2 403 241 189 152 0 
-39 -2 404 239 184 143 0 
-39 -2 404 233 178 137 0 
-38 -2 405 226 173 131 0 
-38 -2 406 222 169 127 0 
-37 -2 407 216 162 118 0 
-36 -2 407 204 150 106 0 
-36 -2 408 187 138 97 0 
-35 -2 409 182 133 92 0 
-62 -2 409 183 129 91 0 
-62 -2 408 196 142 104 0 
-61 -2 406 206 154 115 0 
-60 -2 406 210 158 119 0 
-59 -2 404 209 157 118 0 
-58 -2 404 209 157 118 0 
-58 -2 403 213 161 124 0 
-57 -2 403 216 164 127 0 
-56 -2 403 221 169 132 0 
-56 -2 402 226 174 137 0 
-55 -2 402 228 178 141 0 
-54 -2 401 232 182 145 0 
-53 -2 401 235 185 150 0 
-53 -2 401 237 187 152 0 
-52 -2 400 240 190 155 0 
-51 -2 400 242 192 157 0 
-51 -2 400 247 191 154 0 
-50 -2 400 245 189 152 0 
-49 -2 400 243 189 153 0 
-49 -2 400 242 188 152 0 
-48 -2 400 241 188 156 0 
-47 -2 400 242 189 157 0 
-47 -2 400 244 193 162 0 
-46 -2 400 248 197 166 0 
-46 -2 400 248 197 166 0 
-45 -2 400 244 193 162 0 
-44 -2 400 245 192 160 0 
-44 -2 401 247 194 162 0 
-43 -2 401 249 195 159 0 
-42 -2 402 248 194 158 0 
-42 -2 402 245 189 152 0 
-41 -2 402 240 184 147 0 
-41 -2 403 239 185 149 0 
-40 -2 403 235 181 145 0 
-39 -2 404 232 177 136 0 
-39 -2 404 228 173 132 0 
-38 -2 405 224 169 128 0 
-38 -2 406 222 167 126 0 
-37 -2 407 213 159 115 0 
-36 -2 407 199 145 101 0 
-36 -2 408 182 133 92 0 
-35 -2 409 180 131 90 0 
-62 -1 408 177 127 92 0 
-62 -1 407 189 139 104 0 
-61 -1 406 195 145 108 0 
-60 -1 406 202 152 115 0 
-59 -1 405 204 155 115 0 
-58 -1 404 207 158 118 0 
-58 -1 403 211 159 119 0 
-57 -1 403 217 165 125 0 
-56 -1 403 220 168 128 0 
-56 -1 402 223 171 131 0 
-55 -1 402 224 175 135 0 
-54 -1 402 228 179 139 0 
-53 -1 401 232 182 145 0 
-53 -1 401 234 184 147 0 
-52 -1 401 238 185 151 0 
-51 -1 400 240 187 153 0 
-51 -1 400 241 188 154 0 
-50 -1 400 242 189 155 0 
-49 -1 400 243 190 156 0 
-49 -1 400 244 191 157 0 
-48 -1 400 243 190 156 0 
-47 -1 400 241 188 154 0 
-47 -1 400 243 189 155 0 
-46 -1 400 246 192 158 0 
-46 -1 400 248 194 160 0 
-45 -1 400 244 190 156 0 
-44 -1 400 243 189 155 0 
-44 -1 401 244 190 156 0 
-43 -1 401 243 189 155 0 
-42 -1 402 240 186 152 0 
-42 -1 402 237 183 149 0 
-41 -1 402 234 180 146 0 
-41 -1 403 227 182 143 0 
-40 -1 404 223 178 139 0 
-39 -1 404 233 172 125 0 
-39 -1 405 229 168 121 0 
-38 -1 405 219 160 130 0 
-38 -1 406 213 154 124 0 
-37 -1 407 206 147 107 0 
-36 -1 408 194 135 95 0 
-36 -1 409 180 134 101 0 
-35 -1 409 180 134 101 0 
-62 0 408 177 124 90 0 
-62 0 407 191 138 104 0 
-61 0 406 194 144 107 0 
-60 0 406 198 148 111 0 
-59 0 405 201 149 110 0 
-59 0 405 207 155 116 0 
-58 0 404 210 158 118 0 
-57 0 403 213 161 121 0 
-56 0 403 216 164 124 0 
-56 0 403 220 168 128 0 
-55 0 402 224 172 133 0 
-54 0 402 229 177 138 0 
-53 0 401 231 179 142 0 
-53 0 401 232 180 143 0 
-52 0 400 236 182 148 0 
-51 0 400 237 183 149 0 
-51 0 400 237 183 149 0 
-50 0 400 238 184 150 0 
-49 0 400 240 186 152 0 
-49 0 400 241 187 153 0 
-48 0 400 241 187 153 0 
-47 0 400 241 187 153 0 
-47 0 400 242 188 154 0 
-46 0 400 243 189 155 0 
-46 0 400 244 190 156 0 
-45 0 400 240 186 152 0 
-44 0 401 241 187 153 0 
-44 0 401 243 189 155 0 
-43 0 401 241 187 153 0 
-42 0 401 239 185 151 0 
-42 0 402 236 182 148 0 
-41 0 402 231 177 143 0 
-41 0 403 224 176 136 0 
-40 0 404 220 172 132 0 
-39 0 404 228 167 123 0 
-39 0 405 224 163 119 0 
-38 0 406 214 153 124 0 
-38 0 407 209 148 119 0 
-37 0 407 201 142 102 0 
-36 0 408 189 130 90 0 
-36 0 409 172 132 107 0 
-62 0 408 171 116 85 0 
-62 0 407 184 129 98 0 
-61 0 407 190 137 103 0 
-60 0 406 197 144 110 0 
-59 0 405 201 149 110 0 
-59 0 405 209 157 118 0 
-58 0 404 214 161 121 0 
-57 0 404 216 163 123 0 
-56 0 404 218 165 125 0 
-56 0 403 222 169 129 0 
-55 0 402 227 173 135 0 
-54 0 402 232 178 140 0 
-53 0 401 234 180 144 0 
-53 0 401 234 180 144 0 
-52 0 401 237 183 149 0 
-51 0 400 237 183 149 0 
-51 0 400 237 181 148 0 
-50 0 400 238 182 149 0 
-49 0 400 240 184 151 0 
-49 0 400 242 186 153 0 
-48 0 400 242 188 154 0 
-47 0 400 242 188 154 0 
-47 0 400 243 189 155 0 
-46 0 400 243 189 155 0 
-46 0 400 242 188 154 0 
-45 0 400 238 184 150 0 
-44 0 400 239 185 151 0 
-44 0 401 241 187 153 0 
-43 0 401 240 186 152 0 
-42 0 401 240 186 152 0 
-42 0 402 238 184 150 0 
-41 0 402 232 178 144 0 
-41 0 403 226 177 137 0 
-40 0 403 223 174 134 0 
-39 0 404 226 168 128 0 
-39 0 405 220 162 122 0 
-38 0 406 214 153 122 0 
-38 0 406 207 146 115 0 
-37 0 407 195 137 100 0 
-36 0 408 181 123 86 0 
-36 0 409 166 137 119 0 
-62 1 408 165 112 81 0 
-62 1 408 177 124 93 0 
-61 1 407 186 133 101 0 
-60 1 407 195 142 110 0 
-59 1 406 201 149 112 0 
-59 1 405 206 154 117 0 
-58 1 404 211 157 119 0 
-57 1 404 215 161 123 0 
-56 1 404 219 165 127 0 
-56 1 403 223 169 131 0 
-55 1 403 228 174 136 0 
-54 1 402 233 179 141 0 
-53 1 401 236 182 146 0 
-53 1 401 236 182 146 0 
-52 1 401 238 184 150 0 
-51 1 400 237 183 149 0 
-51 1 400 240 184 151 0 
-50 1 400 242 186 153 0 
-49 1 400 244 190 156 0 
-49 1 400 245 191 157 0 
-48 1 400 245 190 159 0 
-47 1 400 245 190 159 0 
-47 1 400 246 191 160 0 
-46 1 400 246 191 160 0 
-46 1 400 247 192 161 0 
-45 1 400 244 189 158 0 
-44 1 400 244 189 158 0 
-44 1 401 244 189 158 0 
-43 1 401 242 187 156 0 
-42 1 401 240 185 154 0 
-42 1 402 237 182 151 0 
-41 1 402 231 176 145 0 
-41 1 403 229 180 140 0 
-40 1 403 225 176 136 0 
-39 1 403 225 171 135 0 
-39 1 404 219 165 129 0 
-38 1 405 216 157 125 0 
-38 1 406 210 151 119 0 
-37 1 406 195 141 107 0 
-36 1 408 182 128 94 0 
-36 1 409 160 142 128 0 
-61 2 407 187 134 103 0 
-60 2 407 195 142 111 0 
-59 2 406 200 147 113 0 
-59 2 405 208 155 121 0 
-58 2 404 212 160 123 0 
-57 2 404 217 165 128 0 
-56 2 403 218 166 129 0 
-56 2 403 222 170 133 0 
-55 2 403 226 174 137 0 
-54 2 402 231 179 142 0 
-53 2 401 235 182 150 0 
-53 2 401 236 183 151 0 
-52 2 401 238 185 153 0 
-51 2 400 238 185 153 0 
-51 2 400 237 184 153 0 
-50 2 400 240 187 156 0 
-49 2 400 243 190 159 0 
-49 2 400 244 191 160 0 
-48 2 400 243 190 159 0 
-47 2 400 244 191 160 0 
-47 2 400 245 192 161 0 
-46 2 400 245 192 161 0 
-46 2 400 246 193 162 0 
-45 2 400 245 192 161 0 
-44 2 400 243 192 161 0 
-44 2 401 243 192 161 0 
-43 2 401 240 189 158 0 
-42 2 401 238 187 156 0 
-42 2 402 233 182 151 0 
-41 2 402 226 175 144 0 
-41 2 403 224 174 137 0 
-40 2 403 221 171 134 0 
-39 2 403 220 167 135 0 
-39 2 404 216 163 131 0 
-38 2 405 214 158 125 0 
-38 2 406 210 154 121 0 
-37 2 406 200 147 116 0 
-36 2 407 190 137 106 0 
-36 2 408 162 143 129 0 
-61 2 407 181 130 99 0 
-60 2 406 188 137 106 0 
-59 2 405 195 145 112 0 
-59 2 405 207 157 124 0 
-58 2 404 213 163 128 0 
-57 2 403 214 164 129 0 
-56 2 403 217 167 132 0 
-56 2 402 223 173 138 0 
-55 2 402 227 177 142 0 
-54 2 402 231 181 146 0 
-53 2 401 234 183 152 0 
-53 2 401 236 185 154 0 
-52 2 401 238 187 156 0 
-51 2 400 240 189 158 0 
-51 2 400 241 191 164 0 
-50 2 400 243 193 166 0 
-49 2 400 245 195 168 0 
-49 2 400 247 197 170 0 
-48 2 400 247 197 170 0 
-47 2 400 248 198 171 0 
-47 2 400 249 199 172 0 
-46 2 400 250 200 173 0 
-46 2 400 248 201 173 0 
-45 2 400 247 200 172 0 
-44 2 400 247 200 172 0 
-44 2 401 248 201 173 0 
-43 2 401 247 200 172 0 
-42 2 401 245 198 170 0 
-42 2 401 241 194 166 0 
-41 2 401 235 188 160 0 
-41 2 402 240 190 157 0 
-40 2 402 238 188 155 0 
-39 2 403 240 183 153 0 
-39 2 403 236 179 149 0 
-38 2 404 229 174 143 0 
-38 2 405 224 169 138 0 
-37 2 406 218 162 135 0 
-36 2 406 212 156 129 0 
-36 2 407 193 162 144 0 
-35 2 408 190 159 141 0 
