ply
format ascii 1.0
comment Created by CloudCompare v2.10.1 (Zephyrus)
comment Created 2020-05-17 12:35 AM
obj_info Generated by CloudCompare!
element vertex 149
property float x
property float y
property float z
property uchar red
property uchar green
property uchar blue
end_header
1 144 352 146 97 67 
-2 144 351 195 143 103 
-2 144 351 190 138 98 
-1 144 351 194 138 103 
0 144 351 185 129 94 
0 144 351 157 112 81 
1 144 352 152 107 76 
-2 144 351 197 144 104 
-2 144 351 189 136 96 
-1 145 352 194 136 98 
0 145 352 193 135 97 
0 145 352 163 118 85 
1 145 352 155 110 77 
1 145 354 134 112 98 
-7 148 359 152 95 68 
-6 146 354 189 130 90 
-5 145 352 195 136 96 
-4 145 351 185 131 93 
-4 145 351 135 81 43 
-3 145 351 95 43 29 
-3 145 351 169 117 103 
-2 145 351 204 151 111 
-2 145 351 194 141 101 
-1 145 351 194 136 96 
0 145 351 194 136 96 
0 145 352 165 119 85 
1 146 353 155 109 75 
1 146 354 138 116 102 
-9 150 363 209 194 197 
-8 149 360 145 89 62 
-7 148 358 157 101 74 
-7 148 357 172 119 77 
-6 147 355 178 125 83 
-6 147 354 192 137 96 
-5 146 352 199 144 103 
-4 146 352 190 138 98 
-4 145 351 127 75 35 
-3 145 351 87 36 32 
-3 145 351 161 110 106 
-2 145 351 201 149 109 
-2 145 351 196 144 104 
-1 145 351 191 137 91 
0 145 351 187 133 87 
0 145 351 161 117 80 
1 146 352 156 112 75 
1 146 353 136 117 103 
-9 151 363 191 170 169 
-9 150 361 134 113 112 
-8 150 360 148 92 65 
-7 149 358 157 101 74 
-7 148 357 171 119 79 
-6 148 356 178 126 86 
-6 147 354 193 138 99 
-5 146 352 203 148 109 
-4 146 352 199 147 107 
-4 146 351 137 85 45 
-3 146 351 84 33 29 
-3 146 351 153 102 98 
-2 145 350 200 148 109 
-2 145 350 200 148 109 
-1 146 351 191 137 91 
0 146 351 183 129 83 
0 146 351 162 118 81 
1 146 351 160 116 79 
1 146 352 136 117 103 
-9 152 364 156 125 120 
-9 151 362 127 96 91 
-8 150 360 146 90 65 
-7 149 358 150 94 69 
-7 149 357 164 112 75 
-6 148 356 174 122 85 
-6 148 355 189 133 96 
-5 147 353 201 145 108 
-4 147 352 198 146 107 
-4 146 351 146 94 55 
-3 146 351 90 41 27 
-3 146 351 151 102 88 
-2 146 350 200 150 113 
-2 146 350 201 151 114 
-1 146 350 191 137 99 
0 146 350 180 126 88 
0 146 350 163 118 85 
1 146 351 153 108 75 
1 146 351 136 114 100 
-9 152 364 140 100 90 
-9 152 362 145 105 95 
-8 151 360 150 95 74 
-7 150 358 147 92 71 
-7 149 357 154 103 72 
-6 149 355 165 114 83 
-6 148 354 180 126 92 
-5 148 353 194 140 106 
-4 147 352 192 142 109 
-4 147 351 157 107 74 
-3 147 350 112 68 43 
-3 147 350 150 106 81 
-2 146 349 192 143 111 
-2 146 349 194 145 113 
-1 146 349 190 139 108 
0 146 349 181 130 99 
0 146 349 165 124 96 
1 147 350 148 107 79 
1 147 350 133 107 94 
-9 154 366 144 98 83 
-9 153 363 148 102 87 
-8 151 360 152 100 79 
-7 150 358 142 90 69 
-7 150 356 140 93 65 
-6 149 355 149 102 74 
-6 149 354 164 113 82 
-5 148 352 182 131 100 
-4 148 352 187 140 112 
-4 147 351 169 122 94 
-3 147 350 146 105 73 
-3 147 350 158 117 85 
-2 147 349 184 139 110 
-2 147 349 188 143 114 
-1 147 349 194 146 123 
0 147 349 189 141 118 
0 147 349 175 137 114 
-9 156 370 143 98 77 
-9 154 365 149 104 83 
-8 152 361 150 107 88 
-7 151 358 149 106 87 
-7 150 356 141 96 73 
-6 149 354 134 89 66 
-6 149 353 140 93 67 
-5 148 352 155 108 82 
-4 148 351 168 119 89 
-4 148 350 178 129 99 
-3 147 349 175 124 93 
-1 146 347 198 158 132 
0 146 347 199 159 133 
0 146 347 181 146 124 
-9 155 367 147 105 83 
-8 153 362 155 114 94 
-7 152 358 159 118 98 
-7 151 356 150 109 87 
-6 150 354 140 99 77 
-6 149 352 140 96 71 
-4 148 350 161 114 86 
-4 148 350 175 128 100 
-3 147 348 192 143 111 
-9 157 370 148 107 87 
-8 155 364 159 121 100 
-7 152 358 172 134 113 
-7 151 355 172 134 113 
-6 149 351 172 132 107 
-7 151 355 186 149 130 
