ply
format ascii 1.0
comment Created by CloudCompare v2.10.1 (Zephyrus)
comment Created 2020-05-17 12:34 AM
obj_info Generated by CloudCompare!
element vertex 1882
property float x
property float y
property float z
property uchar red
property uchar green
property uchar blue
end_header
-25 39 401 168 103 73 
-25 39 401 186 125 96 
-24 39 401 209 148 119 
-23 39 401 219 169 146 
-23 39 401 226 176 153 
-22 39 401 212 178 166 
-21 39 401 191 157 145 
-21 39 401 147 122 117 
-30 40 403 127 58 27 
-29 40 403 134 65 34 
-29 40 403 137 71 39 
-28 40 402 141 75 43 
-27 40 402 145 79 47 
-27 40 401 159 93 61 
-26 40 401 176 108 73 
-25 39 400 187 119 84 
-25 39 400 197 133 98 
-24 39 400 208 144 109 
-23 39 400 212 161 134 
-23 39 400 222 171 144 
-22 39 400 211 174 156 
-21 39 400 207 170 152 
-21 39 400 171 143 132 
-32 41 406 118 53 35 
-32 41 405 136 59 39 
-31 41 404 139 62 42 
-30 40 403 152 82 48 
-29 40 402 165 95 61 
-29 40 402 165 97 62 
-28 40 401 175 107 72 
-27 40 400 179 111 76 
-27 40 400 187 119 84 
-26 40 400 197 128 89 
-25 40 399 199 130 91 
-25 40 399 205 140 100 
-24 40 399 213 148 108 
-23 40 399 207 152 121 
-23 40 398 215 160 129 
-22 40 398 210 169 147 
-21 40 398 214 173 151 
-21 40 398 184 155 139 
-20 40 398 146 117 101 
-33 41 406 124 62 37 
-32 41 405 136 74 49 
-32 41 405 150 85 47 
-31 41 404 161 96 58 
-30 41 402 176 106 72 
-29 41 401 181 111 77 
-29 41 400 187 113 74 
-28 41 400 190 116 77 
-27 41 399 194 121 78 
-27 41 399 201 128 85 
-26 41 399 208 140 95 
-25 41 398 210 142 97 
-25 41 398 209 146 105 
-24 41 398 212 149 108 
-23 40 397 213 160 126 
-23 40 397 211 158 124 
-22 40 397 203 161 136 
-21 40 397 210 168 143 
-21 40 397 202 166 150 
-20 40 397 169 133 117 
-19 40 397 129 108 105 
-19 40 397 137 116 113 
-34 42 406 132 77 70 
-34 42 406 141 86 79 
-33 42 405 151 85 59 
-32 42 404 156 90 64 
-31 42 404 180 112 73 
-31 42 402 188 120 81 
-30 42 401 193 121 83 
-29 41 399 193 121 83 
-28 41 399 196 121 79 
-28 41 398 200 125 83 
-27 41 398 203 129 82 
-26 41 397 207 133 86 
-26 41 397 212 142 93 
-25 41 396 214 144 95 
-24 41 396 211 147 101 
-24 41 396 214 150 104 
-23 41 396 213 158 119 
-22 41 395 214 159 120 
-22 41 395 206 161 132 
-21 41 395 209 164 135 
-20 41 395 205 167 144 
-20 41 396 195 157 134 
-19 41 396 152 127 120 
-19 41 396 134 109 102 
-18 41 397 130 109 108 
-34 43 405 175 115 105 
-34 43 405 160 100 90 
-33 42 404 169 100 71 
-32 42 403 173 104 75 
-31 42 402 188 119 78 
-31 42 401 191 122 81 
-30 42 400 200 127 86 
-29 42 398 196 123 82 
-28 42 397 198 124 79 
-28 42 397 203 129 84 
-27 42 396 206 132 83 
-26 42 396 209 135 86 
-26 42 396 211 141 89 
-25 42 395 217 147 95 
-24 42 395 215 151 103 
-24 42 395 219 155 107 
-23 41 394 217 160 117 
-22 41 394 218 161 118 
-22 41 394 210 162 126 
-21 41 394 209 161 125 
-20 41 394 201 157 128 
-20 42 395 203 159 130 
-19 42 395 183 154 138 
-19 42 396 152 123 107 
-18 42 396 136 112 110 
-34 43 404 188 124 112 
-33 43 403 165 101 89 
-33 43 403 174 103 71 
-32 43 402 180 109 77 
-31 43 401 191 120 78 
-31 43 400 210 139 97 
-30 43 399 204 131 88 
-29 43 398 201 128 85 
-28 42 397 204 131 86 
-28 42 396 206 133 88 
-27 42 396 207 135 85 
-26 42 395 210 138 88 
-26 42 395 211 144 91 
-25 42 395 219 152 99 
-24 42 395 213 151 100 
-24 42 394 221 159 108 
-23 42 394 217 160 115 
-22 42 394 216 159 114 
-22 42 394 212 163 123 
-21 42 394 215 166 126 
-20 42 394 201 155 121 
-20 42 394 200 154 120 
-19 42 395 196 159 133 
-19 42 395 181 144 118 
-18 42 396 145 118 111 
-35 44 404 182 163 165 
-34 44 403 174 108 92 
-33 44 402 166 100 84 
-33 43 401 177 103 68 
-32 43 401 184 110 75 
-31 43 399 194 123 81 
-30 43 399 211 140 98 
-30 43 398 206 133 90 
-29 43 397 206 133 90 
-28 43 396 208 135 90 
-28 43 395 208 135 90 
-27 43 395 210 140 91 
-26 43 394 214 144 95 
-26 43 394 214 148 96 
-25 43 394 219 153 101 
-24 43 394 217 155 104 
-24 43 394 222 160 109 
-23 43 393 216 159 114 
-22 43 393 215 158 113 
-22 43 393 213 161 121 
-21 43 393 219 167 127 
-20 43 393 209 159 122 
-20 43 393 206 156 119 
-19 43 394 197 153 116 
-18 43 394 199 155 118 
-18 43 394 164 132 121 
-17 43 395 147 115 104 
-17 43 394 135 112 118 
-35 44 404 219 199 201 
-35 44 403 155 135 137 
-34 44 402 181 113 94 
-33 44 401 175 107 88 
-32 44 400 185 111 74 
-32 44 399 190 116 79 
-31 44 398 199 127 87 
-30 44 398 204 132 92 
-30 44 397 211 137 92 
-29 44 396 209 135 90 
-28 43 395 207 134 89 
-27 43 394 208 135 90 
-27 43 394 210 142 93 
-26 43 394 215 147 98 
-25 43 393 217 151 99 
-25 43 393 220 154 102 
-24 43 393 222 160 111 
-24 43 393 224 162 113 
-23 43 392 220 164 117 
-22 43 392 219 163 116 
-22 43 392 215 160 119 
-21 43 392 215 160 119 
-20 43 392 210 157 117 
-20 43 393 209 156 116 
-19 43 393 201 153 107 
-18 43 393 202 154 108 
-18 43 393 186 148 129 
-17 43 394 163 125 106 
-17 43 393 135 109 112 
-35 45 403 201 179 181 
-35 45 402 142 120 122 
-34 45 401 186 115 93 
-33 45 400 185 114 92 
-32 45 399 194 119 80 
-32 44 398 194 119 80 
-31 44 397 205 133 95 
-30 44 397 216 144 106 
-30 44 396 221 148 103 
-29 44 395 215 142 97 
-28 44 394 209 138 92 
-27 44 393 212 141 95 
-27 44 393 214 148 100 
-26 44 392 216 150 102 
-25 44 392 219 156 105 
-25 44 392 223 160 109 
-24 44 392 222 161 114 
-24 44 392 225 164 117 
-23 44 391 224 167 122 
-22 44 391 224 167 122 
-22 44 391 220 167 125 
-21 44 391 213 160 118 
-20 44 391 210 157 115 
-20 44 392 209 156 114 
-19 44 392 203 155 106 
-18 44 392 197 149 100 
-18 44 393 192 150 126 
-17 44 393 178 136 112 
-17 44 393 140 111 113 
-16 44 394 131 102 104 
-35 46 402 176 155 154 
-34 45 401 144 123 122 
-34 45 400 188 116 92 
-33 45 399 199 127 103 
-32 45 398 209 131 93 
-32 45 397 208 130 92 
-31 45 396 210 138 100 
-30 45 396 216 144 106 
-29 45 395 222 149 106 
-29 45 394 216 143 100 
-28 45 393 207 139 94 
-27 44 392 213 145 100 
-27 44 392 215 151 105 
-26 44 391 216 152 106 
-25 44 391 220 159 112 
-25 44 391 227 166 119 
-24 44 391 222 166 119 
-23 44 391 227 171 124 
-23 44 390 225 172 128 
-22 44 390 222 169 125 
-21 44 390 225 173 133 
-21 44 390 217 165 125 
-20 44 390 215 162 122 
-20 44 391 210 157 117 
-19 44 391 205 158 104 
-18 44 391 199 152 98 
-18 44 392 193 149 122 
-17 44 392 192 148 121 
-16 44 392 152 122 122 
-16 45 393 128 98 98 
-36 46 403 199 195 192 
-35 46 402 186 130 129 
-34 46 400 177 121 120 
-34 46 399 196 124 86 
-33 46 398 201 129 91 
-32 46 397 202 133 100 
-31 46 396 207 138 105 
-31 46 396 213 141 101 
-30 45 395 218 146 106 
-29 45 394 211 143 94 
-29 45 393 210 142 93 
-28 45 393 209 143 95 
-27 45 392 216 150 102 
-27 45 391 221 159 112 
-26 45 391 222 160 113 
-25 45 390 222 166 119 
-25 45 390 226 170 123 
-24 45 390 224 170 126 
-23 45 390 227 173 129 
-23 45 390 228 175 133 
-22 45 390 229 176 134 
-21 45 390 229 176 136 
-21 45 390 225 172 132 
-20 45 389 220 165 126 
-20 45 389 216 161 122 
-19 45 390 210 162 126 
-18 45 390 201 153 117 
-18 45 390 194 145 113 
-17 45 390 195 146 114 
-16 45 391 179 146 129 
-16 45 391 139 106 89 
-36 47 402 186 178 176 
-35 47 401 188 131 124 
-34 47 400 182 125 118 
-34 47 399 197 124 89 
-33 46 398 200 127 92 
-32 46 397 200 130 94 
-31 46 396 202 132 96 
-31 46 395 206 134 94 
-30 46 395 211 139 99 
-29 46 394 209 141 92 
-29 46 393 210 142 93 
-28 46 392 208 144 96 
-27 46 391 217 153 105 
-27 45 390 225 164 117 
-26 45 390 228 167 120 
-25 45 389 225 171 124 
-25 45 389 228 174 127 
-24 45 389 226 173 129 
-23 45 389 229 176 132 
-23 45 389 230 179 136 
-22 45 389 231 180 137 
-21 45 389 232 180 141 
-21 45 389 230 178 139 
-20 45 389 225 171 133 
-20 45 389 221 167 129 
-19 45 389 214 168 132 
-18 45 389 206 160 124 
-18 45 389 199 150 118 
-17 45 389 199 150 118 
-16 45 390 187 154 137 
-16 45 390 155 122 105 
-15 46 392 112 109 118 
-36 47 401 174 158 158 
-35 47 401 187 128 110 
-34 47 399 186 127 109 
-34 47 398 198 125 90 
-33 47 397 199 126 91 
-32 47 396 197 128 87 
-31 47 396 194 125 84 
-31 47 395 198 126 88 
-30 47 394 204 132 94 
-29 46 393 206 138 89 
-29 46 392 210 142 93 
-28 46 391 209 145 97 
-27 46 390 217 153 105 
-27 46 390 227 166 119 
-26 46 389 230 169 122 
-25 46 389 227 173 127 
-25 46 389 230 176 130 
-24 46 389 228 177 134 
-23 46 388 230 179 136 
-23 46 388 229 180 139 
-22 46 388 229 180 139 
-21 46 388 231 182 142 
-21 46 388 231 182 142 
-20 46 388 228 178 141 
-19 46 388 224 174 137 
-19 46 388 219 175 140 
-18 46 388 213 169 134 
-18 46 388 205 159 125 
-17 46 389 199 153 119 
-16 46 389 192 157 137 
-16 46 390 169 134 114 
-15 46 390 126 117 120 
-15 46 391 118 109 112 
-36 48 401 168 140 139 
-35 48 400 184 123 95 
-34 48 399 187 126 98 
-34 48 398 198 124 89 
-33 48 397 197 123 88 
-32 47 396 193 122 80 
-31 47 395 190 119 77 
-31 47 394 195 123 85 
-30 47 393 202 130 92 
-29 47 392 206 136 87 
-29 47 391 212 142 93 
-28 47 391 214 148 100 
-27 47 390 221 155 107 
-26 47 389 226 165 118 
-26 47 389 229 168 121 
-25 47 388 226 172 126 
-25 47 388 229 175 129 
-24 47 388 226 177 134 
-23 47 388 228 179 136 
-23 46 387 228 181 139 
-22 46 387 227 180 138 
-21 46 387 229 181 143 
-21 46 387 231 183 145 
-20 46 387 230 182 144 
-19 46 387 227 179 141 
-19 46 387 224 178 142 
-18 46 387 221 175 139 
-18 46 387 216 167 134 
-17 47 388 206 157 124 
-16 47 388 193 155 132 
-16 47 388 176 138 115 
-15 47 389 133 115 113 
-36 49 400 173 134 127 
-35 48 399 184 120 84 
-34 48 398 186 122 86 
-33 48 397 192 119 84 
-33 48 397 190 117 82 
-32 48 396 186 115 71 
-31 48 394 186 115 71 
-31 48 393 196 124 86 
-30 48 392 204 132 94 
-29 47 391 207 135 87 
-28 47 390 214 142 94 
-28 47 390 218 150 103 
-27 47 389 224 156 109 
-26 47 389 226 164 117 
-26 47 389 228 166 119 
-25 47 388 225 171 125 
-25 47 388 228 174 128 
-24 47 388 227 176 133 
-23 47 387 230 179 136 
-23 47 387 228 181 139 
-22 47 387 228 181 139 
-21 47 387 230 182 144 
-21 47 386 233 185 147 
-20 47 386 231 183 145 
-19 47 386 227 179 141 
-19 47 387 228 180 142 
-18 47 387 226 178 140 
-18 47 387 225 175 140 
-17 47 387 215 165 130 
-16 47 387 199 157 132 
-16 47 388 184 142 117 
-15 47 388 143 116 107 
-36 49 400 174 122 109 
-35 49 399 185 120 80 
-34 49 397 184 119 79 
-33 49 396 190 117 82 
-33 49 396 188 115 80 
-32 49 395 186 113 72 
-31 48 394 189 116 75 
-31 48 392 197 123 84 
-30 48 391 203 129 90 
-29 48 390 210 133 89 
-28 48 389 215 138 94 
-28 48 389 217 144 99 
-27 48 388 223 150 105 
-26 48 388 223 159 113 
-26 48 388 225 161 115 
-25 48 388 225 168 123 
-24 48 387 230 173 128 
-24 48 387 227 176 133 
-23 48 386 228 177 134 
-23 48 386 228 179 138 
-22 48 386 229 180 139 
-21 48 386 230 182 142 
-21 47 385 232 184 144 
-20 47 385 231 183 145 
-19 47 385 226 178 140 
-19 47 385 227 178 138 
-18 48 386 223 174 134 
-17 48 386 225 175 138 
-17 48 386 218 168 131 
-16 48 386 205 161 134 
-16 48 387 193 149 122 
-15 48 387 154 121 106 
-14 48 389 121 115 125 
-36 50 399 184 123 102 
-35 50 398 189 122 80 
-34 49 397 189 122 80 
-33 49 395 192 123 84 
-33 49 395 189 120 81 
-32 49 394 191 117 78 
-31 49 393 194 120 81 
-31 49 392 197 121 85 
-30 49 391 202 126 90 
-29 49 390 210 131 88 
-28 49 389 212 133 90 
-28 48 388 211 136 94 
-27 48 388 217 142 100 
-26 48 387 220 153 110 
-26 48 387 224 157 114 
-25 48 387 225 166 124 
-24 48 386 233 174 132 
-24 48 386 231 178 136 
-23 48 385 231 178 136 
-22 48 385 230 181 141 
-22 48 385 230 181 141 
-21 48 385 230 182 144 
-21 48 384 231 183 145 
-20 48 385 228 183 144 
-19 48 385 223 178 139 
-19 48 385 226 174 135 
-18 48 385 221 169 130 
-17 48 385 220 170 133 
-17 48 386 213 163 126 
-16 48 386 204 159 130 
-16 48 386 197 152 123 
-15 48 387 165 128 110 
-14 49 389 114 108 118 
-36 50 399 183 119 92 
-35 50 398 193 124 83 
-34 50 397 195 126 85 
-33 50 395 195 127 88 
-33 50 394 192 124 85 
-32 50 393 196 122 87 
-31 50 392 198 124 89 
-30 49 391 197 122 83 
-30 49 390 202 127 88 
-29 49 389 210 131 90 
-28 49 388 211 132 91 
-28 49 387 208 133 93 
-27 49 387 214 139 99 
-26 49 386 219 152 110 
-26 49 386 223 156 114 
-25 49 386 225 166 124 
-24 49 386 235 176 134 
-24 49 385 235 182 142 
-23 49 385 236 183 143 
-22 49 384 235 186 146 
-22 49 384 235 186 146 
-21 49 384 232 184 146 
-21 49 384 232 184 146 
-20 48 383 228 183 144 
-19 49 384 224 179 140 
-19 49 384 226 174 135 
-18 49 384 220 168 129 
-17 49 384 218 168 131 
-17 49 385 208 158 121 
-16 49 386 199 155 128 
-16 49 386 197 153 126 
-15 49 387 173 135 116 
-14 49 387 142 104 85 
-14 49 389 112 109 118 
-36 51 398 182 121 92 
-35 51 398 192 124 87 
-34 51 396 195 127 90 
-33 51 395 199 129 93 
-33 50 394 198 128 92 
-32 50 392 199 121 82 
-31 50 391 197 119 80 
-30 50 391 198 124 79 
-30 50 390 202 128 83 
-29 50 389 211 133 87 
-28 50 388 211 133 87 
-28 50 387 207 133 88 
-27 49 386 211 137 92 
-26 49 386 218 150 105 
-26 49 386 227 159 114 
-25 49 385 229 168 124 
-24 49 385 236 175 131 
-24 49 385 235 180 139 
-23 49 384 234 179 138 
-22 49 383 235 183 143 
-22 49 383 238 186 146 
-21 49 383 236 186 149 
-20 49 382 234 184 147 
-20 49 382 232 182 145 
-19 49 382 226 176 139 
-19 49 383 220 171 138 
-18 49 383 217 168 135 
-17 49 383 214 164 129 
-17 49 384 210 160 125 
-16 49 385 202 153 120 
-16 49 386 199 150 117 
-15 49 386 184 137 107 
-14 50 387 157 110 80 
-14 50 389 114 117 126 
-36 52 398 183 124 94 
-35 51 397 193 125 88 
-34 51 396 196 128 91 
-33 51 395 200 132 95 
-33 51 393 197 129 92 
-32 51 392 194 119 80 
-31 51 391 191 116 77 
-30 51 390 195 122 79 
-30 50 389 198 125 82 
-29 50 388 207 126 81 
-28 50 387 210 129 84 
-28 50 386 205 131 86 
-27 50 385 209 135 90 
-26 50 385 217 149 104 
-26 50 385 225 157 112 
-25 50 385 226 165 121 
-24 50 384 233 172 128 
-24 50 384 235 180 139 
-23 50 383 234 179 138 
-22 50 383 234 182 142 
-22 50 382 239 187 147 
-21 50 382 236 186 149 
-20 50 382 235 185 148 
-20 50 382 232 184 146 
-19 50 382 224 176 138 
-19 50 382 221 171 136 
-18 50 382 218 168 133 
-17 50 383 216 164 125 
-17 50 383 211 159 120 
-16 50 384 203 153 118 
-16 50 385 200 150 115 
-15 50 386 187 138 106 
-14 50 387 162 113 81 
-14 50 388 117 117 127 
-13 51 390 114 114 124 
-36 52 398 181 121 93 
-35 52 397 193 125 90 
-34 52 395 194 126 91 
-33 52 394 198 130 95 
-33 52 393 194 126 91 
-32 51 392 190 115 76 
-31 51 391 188 113 74 
-30 51 389 192 119 76 
-30 51 388 194 121 78 
-29 51 387 202 121 78 
-28 51 387 210 129 86 
-28 51 386 207 133 88 
-27 51 385 210 136 91 
-26 50 384 218 149 107 
-26 50 384 226 157 115 
-25 50 384 226 165 121 
-24 50 383 232 171 127 
-24 50 383 234 181 139 
-23 50 383 232 179 137 
-22 50 382 231 182 142 
-22 50 382 235 186 146 
-21 50 381 234 186 148 
-20 50 381 234 186 148 
-20 50 381 232 184 148 
-19 50 381 224 176 140 
-19 50 382 222 172 135 
-18 50 382 219 169 132 
-17 50 382 216 163 123 
-17 50 383 212 159 119 
-16 50 383 207 153 115 
-16 50 384 203 149 111 
-15 51 385 188 138 105 
-14 51 386 166 116 83 
-14 51 388 116 116 126 
-13 51 389 114 114 124 
-36 53 398 177 116 87 
-35 53 397 191 123 88 
-34 52 395 192 124 89 
-33 52 394 194 126 91 
-32 52 392 192 124 89 
-32 52 391 192 117 78 
-31 52 390 191 116 77 
-30 52 389 193 120 77 
-30 52 388 193 120 77 
-29 51 387 200 119 76 
-28 51 386 210 129 86 
-27 51 385 209 134 92 
-27 51 385 211 136 94 
-26 51 384 218 149 107 
-25 51 383 226 157 115 
-25 51 383 223 164 120 
-24 51 383 229 170 126 
-24 51 382 232 179 137 
-23 51 382 232 179 137 
-22 51 381 231 182 142 
-22 51 381 234 185 145 
-21 51 381 232 184 146 
-20 50 380 232 184 146 
-20 50 380 229 183 147 
-19 51 381 221 175 139 
-18 51 381 224 172 133 
-18 51 381 221 169 130 
-17 51 381 218 163 122 
-17 51 382 214 159 118 
-16 51 383 208 153 114 
-16 51 384 203 148 109 
-15 51 385 189 136 102 
-14 51 386 167 114 80 
-14 51 387 115 115 123 
-13 52 388 113 113 121 
-36 54 399 175 114 85 
-35 53 397 192 124 89 
-34 53 395 193 125 90 
-33 53 394 194 124 88 
-32 53 392 193 123 87 
-32 53 391 198 123 83 
-31 52 390 197 122 82 
-30 52 389 195 122 79 
-29 52 387 195 122 79 
-29 52 386 198 119 76 
-28 52 385 208 129 86 
-27 52 385 208 133 91 
-27 52 385 209 134 92 
-26 52 384 214 147 104 
-25 52 383 223 156 113 
-25 52 383 224 165 123 
-24 51 382 230 171 129 
-24 51 382 230 177 137 
-23 51 381 233 180 140 
-22 51 381 233 184 144 
-22 51 381 235 186 146 
-21 51 381 232 187 148 
-20 51 380 231 186 147 
-20 51 380 228 182 146 
-19 51 380 220 174 138 
-18 51 381 223 171 132 
-18 51 381 219 167 128 
-17 51 381 217 162 121 
-17 51 381 214 159 118 
-16 51 382 209 154 115 
-15 51 382 203 148 109 
-15 52 384 189 136 102 
-14 52 385 168 115 81 
-14 52 386 118 118 126 
-13 52 387 116 116 124 
-36 54 400 176 115 86 
-35 54 398 191 121 87 
-34 54 396 194 124 90 
-33 54 394 193 124 85 
-32 53 392 192 123 84 
-32 53 391 201 124 82 
-31 53 389 200 123 81 
-30 53 388 194 119 77 
-29 53 387 194 119 77 
-29 53 386 197 118 75 
-28 52 385 207 128 85 
-27 52 384 209 134 92 
-27 52 384 212 137 95 
-26 52 383 216 149 106 
-25 52 382 225 158 115 
-25 52 382 226 167 125 
-24 52 382 232 173 131 
-23 52 381 231 178 138 
-23 52 380 235 182 142 
-22 52 380 233 185 145 
-22 52 380 235 187 147 
-21 52 380 235 189 153 
-20 52 379 234 188 152 
-20 52 379 229 183 147 
-19 52 379 221 175 139 
-18 52 380 222 169 129 
-18 52 380 218 165 125 
-17 52 380 214 159 118 
-17 52 381 213 158 117 
-16 52 382 208 153 114 
-15 52 382 203 148 109 
-15 52 383 190 138 101 
-14 52 384 169 117 80 
-14 53 386 120 119 125 
-13 53 386 118 117 123 
-36 55 400 174 113 85 
-35 55 398 188 118 84 
-34 55 396 190 120 86 
-33 54 394 190 121 80 
-32 54 392 191 122 81 
-32 54 390 199 122 80 
-31 54 389 197 120 78 
-30 53 388 191 116 74 
-29 53 386 191 116 74 
-29 53 385 196 119 77 
-28 53 385 207 130 88 
-27 53 384 210 137 94 
-27 53 383 215 142 99 
-26 53 382 222 155 113 
-25 52 381 229 162 120 
-25 52 381 227 168 126 
-24 52 380 234 175 133 
-23 52 380 231 179 139 
-23 52 379 234 182 142 
-22 52 379 234 186 148 
-21 52 379 237 189 151 
-21 52 379 238 190 154 
-20 52 379 238 190 154 
-20 52 378 232 186 152 
-19 52 379 222 176 142 
-18 52 379 223 170 130 
-18 52 379 218 165 125 
-17 52 380 214 156 116 
-17 52 380 211 153 113 
-16 52 381 205 149 112 
-15 52 381 201 145 108 
-15 53 382 189 137 100 
-14 53 384 169 117 80 
-14 53 385 133 131 136 
-13 53 386 133 131 136 
-36 56 400 170 108 83 
-35 55 398 185 117 82 
-34 55 396 186 118 83 
-33 55 394 189 120 79 
-32 55 392 191 122 81 
-32 54 390 198 121 79 
-31 54 389 196 119 77 
-30 54 387 192 117 77 
-29 54 386 191 116 76 
-29 54 385 195 118 76 
-28 53 384 207 130 88 
-27 53 383 210 137 94 
-27 53 382 216 143 100 
-26 53 381 223 158 116 
-25 53 380 229 164 122 
-25 53 380 226 169 126 
-24 53 379 233 176 133 
-23 53 379 229 177 137 
-23 53 378 233 181 141 
-22 53 378 235 187 149 
-21 53 378 238 190 152 
-21 53 378 239 191 155 
-20 53 378 239 191 155 
-20 53 378 232 186 152 
-19 53 378 221 175 141 
-18 53 378 227 172 131 
-18 53 378 221 166 125 
-17 53 379 214 156 116 
-17 53 379 209 151 111 
-16 53 380 203 147 110 
-15 53 380 199 143 106 
-15 53 381 187 133 97 
-14 53 383 168 114 78 
-14 54 384 142 137 141 
-13 54 385 145 140 144 
-36 56 400 149 111 100 
-35 56 398 184 110 75 
-34 56 396 189 115 80 
-33 56 394 187 118 79 
-32 55 392 187 118 79 
-32 55 390 197 117 80 
-31 55 389 197 117 80 
-30 55 387 190 119 77 
-29 54 386 192 121 79 
-29 54 385 195 120 80 
-28 54 384 205 130 90 
-27 54 383 212 140 100 
-27 54 382 213 141 101 
-26 54 380 228 163 123 
-25 54 380 229 164 124 
-25 53 379 227 169 129 
-24 53 378 234 176 136 
-23 53 378 230 178 139 
-23 53 377 234 182 143 
-22 53 377 237 189 153 
-21 53 377 237 189 153 
-21 53 377 234 188 154 
-20 53 377 237 191 157 
-20 53 377 235 189 155 
-19 53 377 229 183 149 
-18 53 377 228 174 136 
-18 53 377 222 168 130 
-17 53 378 214 159 118 
-16 53 378 206 151 110 
-16 53 379 203 145 105 
-15 53 379 197 139 99 
-15 54 380 192 132 95 
-14 54 382 170 110 73 
-14 54 383 142 133 136 
-13 54 384 149 140 143 
-36 57 400 136 109 102 
-35 57 397 177 104 72 
-34 56 396 183 110 78 
-33 56 394 183 115 78 
-32 56 392 184 116 79 
-32 56 390 195 115 78 
-31 55 388 195 115 78 
-30 55 387 191 118 77 
-29 55 385 195 122 81 
-29 55 384 194 119 79 
-28 55 383 202 127 87 
-27 54 382 210 138 98 
-27 54 381 213 141 101 
-26 54 380 226 161 121 
-25 54 379 229 164 124 
-24 54 378 229 171 131 
-24 54 377 234 176 136 
-23 54 377 232 180 141 
-23 54 376 237 185 146 
-22 54 376 237 189 153 
-21 54 376 236 188 152 
-21 54 376 234 188 154 
-20 54 376 237 191 157 
-19 54 376 237 191 157 
-19 54 376 232 186 152 
-18 54 376 232 177 138 
-18 54 376 226 171 132 
-17 54 377 218 160 120 
-16 54 378 208 150 110 
-16 54 379 205 146 106 
-15 54 379 199 140 100 
-15 54 380 190 130 93 
-14 54 381 168 108 71 
-14 54 382 145 134 138 
-13 55 383 153 142 146 
-12 55 385 145 142 151 
-36 58 400 120 109 103 
-35 57 397 174 100 75 
-34 57 395 180 106 81 
-33 57 394 179 113 78 
-32 57 392 182 116 81 
-32 56 389 195 117 79 
-31 56 388 194 116 78 
-30 56 386 194 119 79 
-29 56 385 200 125 85 
-29 55 384 197 122 82 
-28 55 383 202 127 87 
-27 55 381 210 138 98 
-26 55 380 216 144 104 
-26 55 379 223 160 119 
-25 55 378 228 165 124 
-24 54 377 230 172 132 
-24 54 377 234 176 136 
-23 54 376 230 178 138 
-22 54 375 237 185 145 
-22 54 375 236 188 150 
-21 54 375 235 187 149 
-21 54 375 236 188 152 
-20 54 375 238 190 154 
-19 54 375 240 192 156 
-19 54 375 236 188 152 
-18 54 375 232 178 140 
-18 54 376 226 172 134 
-17 54 376 221 163 123 
-16 54 377 209 151 111 
-16 55 378 204 146 106 
-15 55 379 200 142 102 
-15 55 379 190 130 94 
-14 55 380 168 108 72 
-14 55 381 145 136 141 
-13 55 381 153 144 149 
-36 58 400 113 112 107 
-35 58 397 174 99 76 
-34 58 395 178 103 80 
-33 57 394 178 113 75 
-32 57 392 183 118 80 
-32 57 389 193 118 78 
-31 56 387 193 118 78 
-30 56 386 193 119 80 
-29 56 384 200 126 87 
-29 56 383 199 126 85 
-28 56 382 201 128 87 
-27 56 381 208 139 98 
-26 55 380 213 144 103 
-26 55 379 217 154 113 
-25 55 378 222 159 118 
-24 55 377 228 170 130 
-24 55 376 232 174 134 
-23 55 376 228 176 136 
-22 55 375 235 183 143 
-22 55 375 232 182 145 
-21 55 375 231 181 144 
-21 55 375 232 184 148 
-20 55 375 236 188 152 
-19 55 374 239 191 155 
-19 55 374 233 185 149 
-18 55 374 231 181 144 
-18 55 375 227 177 140 
-17 55 375 225 170 131 
-16 55 376 211 156 117 
-16 55 377 203 148 109 
-15 55 378 198 143 104 
-15 55 379 188 132 97 
-14 55 379 166 110 75 
-13 56 381 154 147 154 
-35 59 398 113 114 108 
-35 59 397 169 97 73 
-34 58 395 173 101 77 
-33 58 393 177 107 71 
-32 58 392 183 113 77 
-32 57 389 190 116 77 
-31 57 387 189 115 76 
-30 57 386 191 119 81 
-29 56 383 199 127 89 
-28 56 382 200 127 86 
-28 56 381 200 127 86 
-27 56 380 204 135 94 
-26 56 379 208 139 98 
-26 56 378 209 146 105 
-25 56 377 217 154 113 
-24 56 377 224 166 126 
-24 55 376 231 173 133 
-23 55 376 229 177 137 
-22 55 375 233 181 141 
-22 55 375 228 179 139 
-21 55 375 229 180 140 
-21 55 375 231 183 145 
-20 55 374 233 185 147 
-19 55 374 233 185 149 
-19 55 374 224 176 140 
-18 55 374 230 180 145 
-18 55 374 228 178 143 
-17 55 375 229 176 136 
-16 55 375 216 163 123 
-16 55 376 206 150 113 
-15 56 377 199 143 106 
-15 56 377 188 134 100 
-14 56 378 167 113 79 
-13 56 380 155 150 157 
-35 59 396 159 97 74 
-34 59 395 162 100 77 
-33 59 393 174 104 68 
-32 58 392 181 111 75 
-32 58 389 187 115 75 
-31 58 387 187 115 75 
-30 57 385 189 121 84 
-29 57 384 197 129 92 
-28 57 382 200 125 85 
-28 57 381 200 125 85 
-27 57 380 203 132 90 
-26 56 378 208 137 95 
-26 56 377 209 146 103 
-25 56 377 218 155 112 
-24 56 376 224 166 126 
-24 56 376 232 174 134 
-23 56 375 229 177 137 
-22 56 374 232 180 140 
-22 56 374 229 181 141 
-21 56 374 233 185 145 
-21 56 374 236 188 150 
-20 56 374 234 186 148 
-19 56 373 226 178 142 
-19 56 373 214 166 130 
-18 56 373 218 170 134 
-17 56 373 216 168 132 
-17 56 374 224 169 130 
-16 56 374 219 164 125 
-16 56 375 210 154 117 
-15 56 375 202 146 109 
-15 56 376 190 136 102 
-14 56 377 168 114 80 
-13 57 379 156 153 160 
-35 60 397 148 100 80 
-34 59 395 150 102 82 
-33 59 393 171 100 70 
-32 59 391 178 107 77 
-32 59 389 184 112 72 
-31 58 387 186 114 74 
-30 58 385 186 121 83 
-29 58 384 194 129 91 
-28 58 382 198 123 83 
-28 57 380 201 126 86 
-27 57 379 203 132 90 
-26 57 378 209 138 96 
-26 57 377 214 149 107 
-25 57 376 223 158 116 
-24 57 375 224 166 126 
-24 57 375 231 173 133 
-23 56 374 226 174 135 
-22 56 374 232 180 141 
-22 56 373 233 185 145 
-21 56 373 237 189 149 
-21 56 373 238 192 156 
-20 56 373 235 189 153 
-19 56 373 225 179 145 
-19 56 372 216 170 136 
-18 56 372 216 167 134 
-17 56 373 212 163 130 
-17 56 373 215 161 123 
-16 56 373 215 161 123 
-16 56 374 212 156 121 
-15 57 375 204 148 113 
-15 57 375 192 139 107 
-14 57 376 169 116 84 
-13 57 376 155 152 161 
-13 57 378 163 160 169 
-34 60 396 139 104 85 
-33 60 393 167 97 71 
-32 60 391 173 103 77 
-32 59 389 179 110 71 
-31 59 387 181 112 73 
-30 59 386 183 118 78 
-29 58 384 190 125 85 
-28 58 382 196 121 81 
-28 58 380 202 127 87 
-27 58 378 203 132 88 
-26 57 377 209 138 94 
-26 57 376 214 149 107 
-25 57 375 223 158 116 
-24 57 374 221 163 123 
-24 57 374 229 171 131 
-23 57 374 225 173 134 
-22 57 373 232 180 141 
-22 57 373 234 186 146 
-21 57 372 236 188 148 
-20 57 372 237 191 155 
-20 57 372 237 191 155 
-19 57 372 231 185 151 
-19 57 371 228 182 148 
-18 57 372 228 181 151 
-17 57 372 218 171 141 
-17 57 372 213 160 126 
-16 57 372 211 158 124 
-16 57 373 211 157 123 
-15 57 374 202 148 114 
-15 57 375 190 139 108 
-14 57 375 167 116 85 
-13 57 376 165 163 174 
-33 61 394 163 98 70 
-32 60 391 165 100 72 
-32 60 389 176 107 74 
-31 60 387 181 112 79 
-30 59 385 184 111 78 
-29 59 384 190 117 84 
-28 59 382 196 122 85 
-28 58 380 201 127 90 
-27 58 378 200 133 91 
-26 58 376 203 136 94 
-26 58 375 210 149 105 
-25 58 374 218 157 113 
-24 58 374 218 164 120 
-24 57 373 227 173 129 
-23 57 373 221 169 132 
-22 57 373 235 183 146 
-22 57 372 235 189 156 
-21 57 372 237 191 158 
-20 57 371 242 196 163 
-20 57 371 239 193 160 
-19 57 371 234 188 152 
-19 57 371 235 189 153 
-18 57 371 233 188 147 
-17 57 371 226 181 140 
-17 57 371 223 173 136 
-16 57 372 218 168 131 
-16 57 372 211 162 130 
-15 57 372 205 156 124 
-14 57 373 190 140 115 
-14 57 373 168 118 93 
-13 58 374 157 155 169 
-13 58 376 166 164 178 
-33 61 395 158 96 71 
-32 61 392 162 100 75 
-32 60 389 175 109 75 
-31 60 387 180 114 80 
-30 60 385 183 115 80 
-29 60 383 188 120 85 
-28 59 381 194 120 83 
-28 59 379 201 127 90 
-27 59 377 200 133 91 
-26 58 376 204 137 95 
-26 58 375 209 148 104 
-25 58 373 218 157 113 
-24 58 373 221 166 125 
-24 58 373 228 173 132 
-23 58 372 223 173 136 
-22 58 372 233 183 146 
-22 58 371 237 191 158 
-21 58 371 238 192 159 
-20 58 370 241 195 162 
-20 58 370 240 194 161 
-19 58 370 235 189 153 
-19 58 370 232 186 150 
-18 58 370 235 190 151 
-17 58 370 232 187 148 
-17 58 370 229 181 143 
-16 58 370 223 175 137 
-16 58 371 214 167 137 
-15 58 371 206 159 129 
-14 58 372 190 143 117 
-14 58 372 167 120 94 
-13 58 373 161 159 173 
-13 58 375 170 168 182 
-12 59 377 168 167 185 
-33 62 395 154 99 79 
-32 62 392 157 102 82 
-32 61 389 173 108 76 
-31 61 387 175 110 78 
-30 60 385 180 112 77 
-29 60 383 183 115 80 
-28 60 381 193 119 80 
-28 60 379 199 125 86 
-27 59 377 198 129 88 
-26 59 375 205 136 95 
-26 59 375 209 148 104 
-25 59 373 218 157 113 
-24 58 372 223 168 127 
-23 58 372 229 174 133 
-23 58 371 225 175 140 
-22 58 371 231 181 146 
-22 58 370 238 192 159 
-21 58 370 240 194 161 
-20 58 370 238 193 160 
-20 58 370 240 195 162 
-19 58 369 236 192 157 
-18 58 369 230 186 151 
-18 58 369 233 189 154 
-17 58 369 233 189 154 
-17 58 369 231 185 151 
-16 58 370 226 180 146 
-16 58 370 218 173 144 
-15 58 371 209 164 135 
-14 58 371 191 145 121 
-14 58 371 166 120 96 
-13 58 372 163 162 178 
-13 59 374 171 170 186 
-32 62 393 148 106 92 
-32 62 389 172 109 78 
-31 61 387 173 110 79 
-30 61 385 182 111 79 
-29 61 383 188 117 85 
-28 60 381 192 118 79 
-28 60 379 196 122 83 
-27 60 377 194 127 84 
-26 60 375 206 139 96 
-25 59 374 214 153 109 
-25 59 373 219 158 114 
-24 59 372 221 168 126 
-23 59 371 226 173 131 
-23 59 371 224 176 140 
-22 59 370 227 179 143 
-22 59 370 237 192 161 
-21 59 370 239 194 163 
-20 59 370 237 192 161 
-20 59 370 240 195 164 
-19 59 369 237 193 158 
-18 59 369 230 186 151 
-18 59 369 229 186 152 
-17 59 369 230 187 153 
-17 59 369 230 185 152 
-16 59 369 226 181 148 
-16 59 370 219 175 148 
-15 59 370 213 169 142 
-14 59 371 194 149 126 
-14 59 371 167 122 99 
-13 59 372 163 164 182 
-13 59 373 170 171 189 
-33 63 394 137 108 100 
-32 63 391 166 107 77 
-31 62 387 167 108 78 
-30 62 385 182 109 77 
-29 61 382 187 114 82 
-28 61 380 189 117 79 
-28 61 378 194 122 84 
-27 60 376 196 129 86 
-26 60 374 213 146 103 
-25 60 373 220 159 115 
-25 60 372 219 158 114 
-24 60 372 218 165 123 
-23 60 371 225 172 130 
-23 59 370 224 176 140 
-22 59 370 226 178 142 
-22 59 370 234 189 158 
-21 59 369 238 193 162 
-20 59 369 237 194 162 
-20 59 369 240 197 165 
-19 59 369 236 193 159 
-18 59 369 230 187 153 
-18 59 369 228 188 153 
-17 59 368 227 187 152 
-17 59 368 229 186 154 
-16 59 369 226 183 151 
-15 59 369 219 177 152 
-15 59 369 216 174 149 
-14 59 369 200 155 132 
-14 59 370 171 126 103 
-13 59 370 165 166 184 
-13 60 371 174 175 193 
-32 63 391 165 110 80 
-31 63 389 166 111 81 
-30 62 385 182 107 76 
-29 62 381 186 111 80 
-28 61 379 188 116 78 
-27 61 377 194 122 84 
-27 61 375 199 132 90 
-26 61 374 215 148 106 
-25 60 372 218 159 115 
-25 60 371 217 158 114 
-24 60 371 217 166 123 
-23 60 370 226 175 132 
-23 60 370 223 177 141 
-22 60 369 225 179 143 
-21 60 369 231 186 153 
-21 60 369 235 190 157 
-20 60 368 238 195 161 
-20 60 369 240 197 163 
-19 60 368 235 192 158 
-18 60 368 231 188 154 
-18 60 368 231 188 153 
-17 60 368 230 187 152 
-17 59 367 230 187 153 
-16 59 367 227 184 150 
-15 60 368 218 176 151 
-15 60 368 215 173 148 
-14 60 368 202 157 134 
-14 60 368 174 129 106 
-13 60 370 167 168 186 
-13 60 370 179 180 198 
-32 64 393 158 107 80 
-31 63 388 160 109 82 
-30 63 385 176 105 75 
-29 62 381 182 111 81 
-28 62 379 186 116 80 
-27 62 377 191 121 85 
-27 61 375 196 131 89 
-26 61 374 208 143 101 
-25 61 372 213 154 110 
-25 61 371 217 158 114 
-24 61 370 218 166 126 
-23 61 370 226 174 134 
-23 60 369 222 176 140 
-22 60 369 225 179 143 
-21 60 368 228 183 150 
-21 60 368 233 188 155 
-20 60 368 237 194 160 
-20 60 368 237 194 160 
-19 60 367 234 191 156 
-18 60 367 231 188 153 
-18 60 366 231 189 151 
-17 60 366 230 188 150 
-17 60 366 230 187 153 
-16 60 366 226 183 149 
-15 60 366 218 177 149 
-15 60 367 215 174 146 
-14 60 367 202 157 134 
-14 60 367 175 130 107 
-13 60 369 168 170 185 
-12 61 370 182 187 207 
-31 64 390 157 107 82 
-30 64 385 172 105 76 
-29 63 381 180 113 84 
-28 63 379 183 115 78 
-27 62 377 188 120 83 
-27 62 375 194 129 87 
-26 62 374 202 137 95 
-25 61 372 208 149 105 
-25 61 371 218 159 115 
-24 61 370 219 167 127 
-23 61 369 223 171 131 
-23 61 368 220 174 140 
-22 61 368 224 178 144 
-21 61 367 226 181 148 
-21 61 367 231 186 153 
-20 61 367 237 192 159 
-20 61 367 235 190 157 
-19 60 366 232 189 154 
-18 60 366 232 189 154 
-18 60 365 231 189 151 
-17 60 365 231 189 151 
-17 60 365 230 187 152 
-16 60 365 227 184 149 
-15 60 365 222 178 151 
-15 61 366 218 174 147 
-14 61 366 204 158 134 
-14 61 366 178 132 108 
-13 61 368 167 169 184 
-12 61 368 182 184 199 
-12 61 369 183 188 208 
-31 65 391 142 107 105 
-30 64 385 169 103 69 
-29 63 380 174 108 74 
-28 63 378 179 113 79 
-27 63 377 190 124 90 
-27 63 375 184 121 80 
-26 62 373 196 133 92 
-25 62 372 207 149 103 
-25 62 371 216 158 112 
-24 62 369 215 161 115 
-23 61 368 222 168 122 
-23 61 367 224 172 132 
-22 61 367 229 177 137 
-21 61 367 225 177 139 
-21 61 366 229 181 143 
-20 61 366 232 188 151 
-20 61 366 230 186 149 
-19 61 365 230 188 150 
-18 61 364 230 188 150 
-18 61 364 224 183 151 
-17 61 364 223 182 150 
-16 61 364 229 184 153 
-16 61 364 224 179 148 
-15 61 364 218 181 152 
-15 61 365 211 174 145 
-14 61 365 203 168 136 
-14 61 366 174 139 107 
-13 61 366 180 162 176 
-12 61 368 182 190 211 
-30 65 383 164 101 70 
-29 64 380 167 104 73 
-28 64 378 179 113 79 
-27 64 377 190 124 90 
-27 63 375 187 124 83 
-26 63 373 199 136 95 
-25 63 372 206 148 102 
-25 62 370 214 156 110 
-24 62 368 214 160 116 
-23 62 367 221 167 123 
-23 62 366 221 169 130 
-22 62 366 226 174 135 
-21 62 366 222 174 138 
-21 62 365 226 178 142 
-20 62 365 231 187 152 
-19 62 365 231 187 152 
-19 61 364 228 185 150 
-18 61 363 227 184 149 
-18 61 363 226 183 149 
-17 61 363 224 181 147 
-16 61 363 228 183 150 
-16 61 363 224 179 146 
-15 61 363 219 180 149 
-15 61 363 212 173 142 
-14 61 364 205 169 135 
-14 62 365 181 145 111 
-13 62 366 182 162 174 
-12 62 366 205 185 197 
-12 62 367 186 194 215 
-30 65 384 158 98 72 
-29 65 380 162 102 76 
-28 64 378 180 114 82 
-27 64 377 190 124 92 
-27 64 375 188 124 86 
-26 63 373 198 134 96 
-25 63 371 205 144 100 
-25 63 370 213 152 108 
-24 63 368 212 158 114 
-23 62 367 218 164 120 
-23 62 366 218 166 127 
-22 62 365 224 172 133 
-21 62 365 220 174 140 
-21 62 365 224 178 144 
-20 62 364 232 187 154 
-19 62 364 234 189 156 
-19 62 363 229 186 151 
-18 62 363 228 185 150 
-18 62 363 228 185 153 
-17 62 363 224 181 149 
-16 62 363 226 182 147 
-16 62 363 224 180 145 
-15 62 363 219 179 144 
-15 62 363 211 171 136 
-14 62 363 207 168 135 
-14 62 364 188 149 116 
-13 62 365 184 161 169 
-12 62 366 208 185 193 
-12 62 366 188 196 219 
-11 63 368 193 201 224 
-30 66 385 157 96 77 
-29 65 381 160 99 80 
-28 65 378 179 113 81 
-27 65 376 191 125 93 
-27 64 374 187 123 87 
-26 64 372 195 131 95 
-25 64 370 199 140 98 
-24 63 369 208 149 107 
-24 63 367 209 154 113 
-23 63 366 216 161 120 
-22 63 365 216 166 129 
-22 63 365 222 172 135 
-21 63 364 223 177 143 
-21 63 364 226 180 146 
-20 62 363 231 188 154 
-19 62 363 234 191 157 
-19 62 362 229 189 154 
-18 62 362 229 189 154 
-18 62 362 230 187 155 
-17 62 362 227 184 152 
-16 62 362 225 182 147 
-16 62 362 222 179 144 
-15 62 362 219 176 141 
-15 62 362 213 170 135 
-14 62 363 207 168 135 
-13 62 363 188 149 116 
-13 63 364 183 157 160 
-12 63 365 208 182 185 
-12 63 366 184 194 219 
-29 66 381 163 106 95 
-28 66 379 177 111 79 
-27 65 376 192 126 94 
-27 65 373 187 123 87 
-26 64 371 193 129 93 
-25 64 370 198 139 97 
-24 64 368 206 147 105 
-24 63 366 207 152 111 
-23 63 365 216 161 120 
-22 63 364 218 168 131 
-22 63 364 225 175 138 
-21 63 363 227 181 148 
-20 63 362 228 182 149 
-20 63 362 229 186 152 
-19 63 361 232 189 155 
-19 63 361 229 189 154 
-18 63 361 229 189 154 
-17 63 361 229 188 158 
-17 63 361 229 188 158 
-16 63 361 226 186 150 
-16 63 361 220 180 144 
-15 63 361 218 176 138 
-15 63 361 215 173 135 
-14 63 362 208 167 135 
-13 63 362 189 148 116 
-13 63 363 186 156 154 
-12 63 364 212 182 180 
-12 63 365 184 196 220 
-11 64 368 191 205 231 
-29 67 382 151 110 106 
-28 66 379 175 110 78 
-27 66 376 192 127 95 
-27 65 373 186 124 87 
-26 65 371 191 129 92 
-25 65 369 198 139 97 
-24 64 368 207 148 106 
-24 64 366 207 154 112 
-23 64 364 218 165 123 
-22 64 363 222 172 135 
-22 64 363 228 178 141 
-21 63 362 228 183 150 
-20 63 361 229 184 151 
-20 63 361 230 187 155 
-19 63 360 232 189 157 
-19 63 360 230 190 155 
-18 63 360 228 188 153 
-17 63 360 227 186 158 
-17 63 360 232 191 163 
-16 63 360 226 190 154 
-16 63 360 220 184 148 
-15 63 360 219 175 138 
-15 63 360 216 172 135 
-14 63 361 209 168 138 
-13 63 361 191 150 120 
-13 63 362 188 153 147 
-12 64 363 217 182 176 
-12 64 364 184 199 222 
-11 64 365 190 205 228 
-11 64 367 192 206 233 
-10 65 369 199 213 240 
-29 67 382 137 113 113 
-28 67 380 176 111 81 
-27 66 376 192 127 97 
-27 66 373 186 123 88 
-26 66 371 191 128 93 
-25 65 369 196 138 98 
-24 65 367 207 149 109 
-24 64 365 209 156 114 
-23 64 364 219 166 124 
-22 64 363 222 172 137 
-22 64 362 228 178 143 
-21 64 361 226 179 149 
-20 64 360 229 182 152 
-20 64 360 232 188 159 
-19 63 359 234 190 161 
-19 63 359 232 191 159 
-18 63 359 228 187 155 
-17 63 359 226 185 157 
-17 63 359 232 191 163 
-16 63 359 228 192 156 
-16 63 359 224 188 152 
-15 63 359 222 176 140 
-14 63 359 217 171 135 
-14 63 359 210 166 137 
-13 64 360 196 152 123 
-13 64 361 184 146 135 
-12 64 362 216 178 167 
-12 64 363 184 199 220 
-29 68 381 131 119 121 
-28 68 380 177 112 82 
-27 67 376 190 125 95 
-26 66 372 185 122 89 
-26 66 370 192 129 96 
-25 66 368 197 139 101 
-24 65 367 208 150 112 
-24 65 365 209 156 116 
-23 65 364 216 163 123 
-22 65 362 218 168 133 
-22 64 361 223 173 138 
-21 64 360 219 172 142 
-20 64 359 225 178 148 
-20 64 359 232 188 159 
-19 64 358 235 191 162 
-19 64 358 233 192 160 
-18 64 358 228 187 155 
-17 64 358 228 184 155 
-17 64 358 233 189 160 
-16 64 358 227 191 155 
-16 64 358 226 190 154 
-15 64 358 225 177 141 
-14 64 358 218 170 134 
-14 64 359 209 165 136 
-13 64 359 198 154 125 
-13 64 360 184 145 130 
-12 64 361 218 179 164 
-12 65 362 185 200 219 
-11 65 363 192 207 226 
-11 65 365 197 209 235 
-28 68 379 174 113 92 
-27 67 374 181 120 99 
-26 67 372 184 125 95 
-26 67 370 187 128 98 
-25 66 367 197 134 99 
-24 66 366 212 149 114 
-24 65 364 210 156 109 
-23 65 363 216 162 115 
-22 65 361 212 168 123 
-22 65 360 213 169 124 
-21 65 359 218 173 140 
-20 64 358 223 178 145 
-20 64 358 233 189 152 
-19 64 357 237 193 156 
-18 64 357 237 194 162 
-18 64 357 233 190 158 
-17 64 357 227 184 152 
-17 64 356 227 184 152 
-16 64 357 228 184 157 
-16 64 357 229 185 158 
-15 64 357 220 181 148 
-14 64 357 211 172 139 
-14 64 358 208 164 135 
-13 64 358 200 156 127 
-13 65 359 186 142 117 
-12 65 360 216 172 147 
-12 65 361 188 201 220 
-11 65 364 194 209 238 
-28 69 378 172 115 95 
-27 68 374 177 120 100 
-26 67 371 183 122 91 
-26 67 369 185 124 93 
-25 67 367 195 131 96 
-24 66 365 208 144 109 
-23 66 363 205 151 104 
-23 66 362 211 157 110 
-22 65 360 211 164 118 
-21 65 359 209 162 116 
-21 65 358 216 170 136 
-20 65 357 224 178 144 
-20 65 357 232 186 150 
-19 65 356 236 190 154 
-18 65 356 235 192 160 
-18 65 356 232 189 157 
-17 65 356 225 180 149 
-17 65 356 226 181 150 
-16 65 356 224 179 150 
-16 65 356 226 181 152 
-15 65 357 223 180 146 
-14 65 357 216 173 139 
-14 65 357 211 166 137 
-13 65 358 201 156 127 
-13 65 358 188 142 118 
-12 65 359 213 167 143 
-12 65 360 189 202 221 
-11 66 361 191 204 223 
-28 69 376 169 116 98 
-27 68 374 170 117 99 
-26 68 370 183 118 88 
-26 67 368 187 122 92 
-25 67 366 194 128 94 
-24 67 364 204 138 104 
-23 66 362 203 144 100 
-23 66 361 209 150 106 
-22 66 359 212 159 115 
-21 66 358 209 156 112 
-21 65 357 219 169 136 
-20 65 356 229 179 146 
-20 65 356 234 186 150 
-19 65 355 235 187 151 
-18 65 355 233 189 160 
-18 65 355 232 188 159 
-17 65 355 228 181 153 
-17 65 355 227 180 152 
-16 65 355 222 175 147 
-15 65 355 222 175 147 
-15 65 356 221 177 142 
-14 65 356 218 174 139 
-14 65 356 212 165 135 
-13 65 357 200 153 123 
-13 65 357 192 146 123 
-12 66 358 210 164 141 
-12 66 359 192 204 226 
-11 66 360 194 206 228 
-10 67 364 203 217 246 
-28 69 375 162 116 101 
-27 69 373 160 114 99 
-26 68 369 180 114 82 
-26 68 367 185 119 87 
-25 68 366 194 126 91 
-24 67 363 202 134 99 
-23 67 361 203 142 98 
-23 66 360 209 148 104 
-22 66 358 210 153 108 
-21 66 357 211 154 109 
-21 66 356 221 167 133 
-20 66 355 230 176 142 
-20 66 355 232 182 149 
-19 65 354 233 183 150 
-18 65 354 231 187 158 
-18 65 354 229 185 156 
-17 65 354 228 181 153 
-17 66 355 226 179 151 
-16 66 355 222 173 143 
-15 66 355 220 171 141 
-15 66 355 219 173 137 
-14 66 355 220 174 138 
-14 66 356 218 169 139 
-13 66 356 205 156 126 
-13 66 356 195 147 125 
-12 66 356 206 158 136 
-28 70 374 154 120 111 
-27 69 373 146 112 103 
-26 69 369 177 108 77 
-26 68 367 183 114 83 
-25 68 365 188 120 83 
-24 67 362 197 129 92 
-23 67 360 204 141 100 
-23 67 358 209 146 105 
-22 67 357 209 148 104 
-21 66 356 213 152 108 
-21 66 355 216 160 125 
-20 66 355 223 167 132 
-19 66 354 232 177 146 
-19 66 354 235 180 149 
-18 66 354 231 186 155 
-18 66 354 226 181 150 
-17 66 354 231 181 154 
-17 66 354 229 179 152 
-16 66 355 226 175 146 
-15 66 355 225 174 145 
-15 66 355 222 174 138 
-14 66 355 224 176 140 
-14 66 355 222 173 143 
-13 66 355 210 161 131 
-13 66 355 193 145 123 
-12 66 356 199 151 129 
-27 70 371 132 111 106 
-26 69 368 171 105 73 
-25 69 366 177 111 79 
-25 68 364 184 116 77 
-24 68 362 193 125 86 
-23 67 359 201 138 97 
-23 67 357 206 143 102 
-22 67 356 206 141 99 
-21 67 355 213 148 106 
-21 67 355 211 155 120 
-20 67 354 220 164 129 
-19 67 354 231 174 144 
-19 67 354 233 176 146 
-18 67 354 228 183 150 
-18 67 354 219 174 141 
-17 67 354 227 178 148 
-17 67 354 227 178 148 
-16 67 354 228 177 146 
-15 67 355 230 179 148 
-15 67 355 226 178 140 
-14 67 355 226 178 140 
-14 67 355 224 173 142 
-13 67 355 213 162 131 
-13 67 355 195 145 122 
-12 67 355 196 146 123 
-10 68 360 212 222 249 
-27 70 370 124 114 113 
-26 70 367 168 102 70 
-25 69 365 173 107 75 
-25 69 362 183 116 74 
-24 68 360 191 124 82 
-23 68 358 200 137 96 
-23 68 357 202 139 98 
-22 67 355 203 138 96 
-21 67 355 211 146 104 
-21 67 355 208 152 117 
-20 67 354 216 160 125 
-19 67 354 222 163 133 
-19 67 354 220 161 131 
-18 67 354 221 175 141 
-18 67 354 215 169 135 
-17 67 354 220 170 137 
-17 67 354 220 170 137 
-16 67 355 224 171 139 
-15 67 355 228 175 143 
-15 67 354 225 177 139 
-14 67 354 224 176 138 
-14 67 354 223 172 141 
-13 67 354 214 163 132 
-13 67 355 197 146 119 
-12 67 355 191 140 113 
-9 69 366 224 240 255 
-27 70 368 120 118 119 
-26 70 366 165 100 68 
-25 69 363 170 105 73 
-25 69 361 182 115 72 
-24 68 358 191 124 81 
-23 68 357 200 137 96 
-22 68 356 202 139 98 
-22 68 355 205 138 96 
-21 68 355 213 146 104 
-21 68 355 205 149 114 
-20 68 355 209 153 118 
-20 68 355 205 144 115 
-19 68 354 200 139 110 
-18 68 354 214 165 132 
-18 68 355 217 168 135 
-17 68 355 221 168 134 
-17 68 354 218 165 131 
-16 68 354 217 164 130 
-15 68 355 220 167 133 
-15 68 354 218 170 130 
-14 68 354 217 169 129 
-14 68 354 220 167 135 
-13 68 354 214 161 129 
-13 68 354 197 143 115 
-12 68 355 187 133 105 
-11 68 356 219 223 235 
-9 70 365 226 241 255 
-27 71 367 121 125 134 
-26 70 365 167 104 71 
-25 70 362 168 105 72 
-24 69 360 173 114 74 
-24 69 358 179 120 80 
-23 69 356 196 133 89 
-22 69 356 201 138 94 
-22 68 355 198 139 99 
-21 68 355 205 146 106 
-21 68 355 212 150 113 
-20 68 355 210 148 111 
-20 68 355 168 107 78 
-19 68 355 160 99 70 
-18 68 355 208 158 125 
-18 68 355 216 166 133 
-17 68 355 215 165 130 
-17 68 354 214 164 129 
-16 68 354 214 157 127 
-15 68 354 214 157 127 
-15 68 354 214 157 127 
-14 68 354 213 156 126 
-14 68 354 217 153 128 
-13 68 354 216 152 127 
-13 68 354 200 144 117 
-12 68 354 184 128 101 
-9 70 365 228 248 255 
-26 71 364 164 103 72 
-25 70 361 166 105 74 
-24 70 359 169 107 68 
-24 69 357 176 114 75 
-23 69 356 192 127 85 
-22 69 356 197 132 90 
-22 69 355 196 134 95 
-21 69 355 201 139 100 
-21 69 355 206 144 107 
-20 69 355 207 145 108 
-20 69 355 169 105 77 
-19 69 355 139 75 47 
-18 69 354 189 136 102 
-18 69 354 215 162 128 
-17 69 354 213 164 124 
-17 69 353 213 164 124 
-16 69 354 210 154 121 
-15 69 353 205 149 116 
-15 69 353 206 152 116 
-13 69 354 213 149 122 
-13 69 354 201 146 115 
-12 69 354 181 126 95 
-11 69 355 232 214 228 
-10 70 358 217 242 247 
-26 71 362 158 102 79 
-25 71 360 160 104 81 
-24 70 359 165 101 65 
-24 70 357 172 108 72 
-23 70 356 188 123 83 
-22 70 355 192 127 87 
-22 70 355 194 132 95 
-21 69 354 200 138 101 
-21 69 354 204 144 108 
-20 69 354 205 145 109 
-19 69 354 177 116 87 
-17 69 353 213 161 121 
-11 70 355 232 216 227 
-10 70 357 222 243 248 
-9 71 360 229 246 253 
-26 72 362 149 103 87 
-25 71 360 148 102 86 
-24 71 359 163 98 66 
-24 71 357 172 107 75 
-23 70 356 182 118 83 
-22 70 355 184 120 85 
-22 70 355 188 125 90 
-10 71 357 226 243 250 
-26 72 361 139 102 93 
-25 72 360 134 97 88 
-24 71 358 163 98 68 
-24 71 357 177 112 82 
-23 71 356 181 116 86 
-22 71 356 182 117 87 
-22 71 355 190 127 94 
-10 71 357 231 246 253 
-9 72 359 244 255 255 
-25 72 361 118 90 86 
-24 72 359 160 95 67 
-24 72 358 179 114 86 
-23 72 357 181 116 88 
-23 72 357 183 118 90 
-22 71 356 188 125 90 
-9 72 358 248 255 255 
-25 73 362 108 90 90 
-24 73 360 148 86 61 
-24 72 358 169 107 82 
-23 72 358 172 110 85 
-23 72 357 177 115 90 
-25 74 361 102 90 94 
-24 73 360 137 79 55 
-24 73 359 159 101 77 
-23 73 358 166 108 86 
-23 73 357 173 115 93 
-24 74 360 130 72 50 
-24 74 359 152 94 72 
-23 74 359 166 105 84 
-22 73 357 173 112 91 
-25 75 361 112 68 55 
-24 75 360 126 82 69 
-23 75 360 165 108 88 
-23 74 358 169 112 92 
-24 75 361 104 83 80 
-23 75 360 161 110 89 
-23 75 358 162 111 90 
-24 76 361 102 97 103 
-23 76 360 145 100 79 
-23 75 358 157 112 91 
-23 76 360 144 108 92 
