ply
format ascii 1.0
comment Created by CloudCompare v2.10.1 (Zephyrus)
comment Created 2020-05-17 12:34 AM
obj_info Generated by CloudCompare!
element vertex 1671
property float x
property float y
property float z
property uchar red
property uchar green
property uchar blue
end_header
-20 -51 386 241 187 159 
-19 -51 387 244 190 162 
-19 -51 386 240 190 165 
-18 -51 387 239 189 164 
-18 -51 387 230 178 154 
-17 -51 387 217 165 141 
-16 -51 387 198 150 128 
-20 -51 386 254 200 172 
-19 -51 386 255 201 173 
-19 -51 386 252 200 176 
-18 -51 387 253 201 177 
-18 -51 387 246 194 170 
-17 -51 387 236 184 160 
-16 -51 387 216 168 146 
-16 -51 388 212 164 142 
-25 -50 388 210 153 123 
-25 -50 388 229 172 142 
-24 -50 387 239 183 156 
-23 -50 387 252 196 169 
-23 -50 387 255 201 175 
-22 -50 386 253 199 173 
-21 -50 386 255 201 177 
-21 -50 386 255 202 178 
-20 -50 386 255 201 175 
-19 -50 386 255 201 175 
-19 -50 386 251 199 175 
-18 -50 386 252 200 176 
-17 -50 386 249 197 173 
-17 -50 386 243 191 167 
-16 -50 386 226 176 153 
-16 -50 387 218 168 145 
-15 -50 387 194 165 159 
-25 -50 388 245 188 158 
-24 -50 387 248 191 164 
-23 -50 387 255 200 173 
-23 -50 387 255 201 178 
-22 -49 386 254 198 175 
-21 -49 386 255 201 177 
-21 -49 386 255 202 178 
-20 -49 386 255 202 176 
-19 -49 385 255 201 175 
-19 -49 385 255 205 181 
-18 -49 386 255 204 180 
-17 -49 386 255 203 179 
-17 -49 386 250 198 174 
-16 -49 386 236 186 163 
-16 -49 386 226 176 153 
-15 -50 387 212 170 154 
-14 -49 386 206 164 148 
-27 -49 391 214 155 125 
-26 -49 390 234 175 145 
-25 -49 389 239 182 152 
-25 -49 388 241 184 154 
-24 -49 387 247 191 164 
-23 -49 387 252 196 169 
-23 -49 386 253 197 174 
-22 -49 386 254 198 175 
-21 -49 386 255 202 178 
-21 -49 386 255 203 179 
-20 -49 385 255 205 179 
-19 -49 385 255 206 180 
-19 -49 385 255 204 182 
-18 -49 385 255 203 181 
-17 -49 385 255 203 179 
-17 -49 385 253 201 177 
-16 -49 385 244 194 171 
-16 -49 386 233 183 160 
-15 -49 386 224 176 154 
-14 -49 386 216 168 146 
-14 -49 386 181 170 178 
-27 -49 392 206 146 122 
-27 -49 391 226 169 139 
-26 -49 390 230 173 143 
-25 -49 389 236 181 150 
-25 -48 388 243 188 157 
-24 -48 387 245 189 162 
-23 -48 386 251 195 168 
-23 -48 386 254 200 176 
-22 -48 386 255 204 180 
-21 -48 386 255 203 179 
-21 -48 385 254 200 176 
-20 -48 385 252 201 174 
-19 -48 385 253 202 175 
-19 -48 385 255 203 181 
-18 -48 384 254 202 180 
-17 -48 384 255 203 177 
-17 -48 384 255 203 177 
-16 -48 385 251 201 178 
-16 -48 385 241 191 168 
-15 -48 385 231 183 160 
-14 -48 385 219 171 148 
-14 -48 385 196 172 170 
-28 -48 393 188 130 106 
-27 -48 392 214 156 132 
-27 -48 391 223 168 138 
-26 -48 390 228 173 143 
-25 -48 389 238 185 153 
-25 -48 388 247 194 162 
-24 -48 387 248 194 166 
-23 -48 386 254 200 172 
-22 -47 385 255 202 178 
-22 -47 385 255 203 179 
-21 -47 385 255 203 179 
-21 -47 385 255 202 178 
-20 -47 384 255 205 178 
-19 -47 384 255 206 179 
-19 -47 384 255 204 182 
-18 -47 384 255 203 181 
-17 -47 384 255 204 177 
-17 -47 384 255 202 175 
-16 -47 384 253 203 180 
-16 -47 384 244 194 171 
-15 -47 384 234 186 164 
-14 -47 384 221 173 151 
-14 -47 384 211 175 163 
-13 -47 385 210 174 162 
-29 -48 395 134 79 59 
-29 -48 395 148 93 73 
-28 -48 394 195 139 116 
-27 -48 393 216 160 137 
-27 -48 392 222 167 137 
-26 -47 390 228 173 143 
-25 -47 389 237 184 152 
-25 -47 388 246 193 161 
-24 -47 387 243 192 163 
-23 -47 386 252 201 172 
-22 -47 385 255 203 179 
-22 -47 385 255 204 180 
-21 -47 384 255 206 182 
-21 -47 384 255 207 183 
-20 -47 384 255 207 180 
-19 -47 384 255 205 178 
-19 -47 384 255 203 179 
-18 -47 384 255 204 180 
-17 -47 383 255 206 177 
-17 -47 383 255 203 174 
-16 -47 384 255 206 181 
-16 -47 384 250 200 175 
-15 -47 384 240 193 173 
-14 -47 384 228 181 161 
-14 -47 384 220 175 156 
-13 -47 384 221 176 157 
-29 -47 396 169 119 112 
-28 -47 395 197 141 116 
-27 -47 393 217 161 136 
-27 -47 392 222 165 135 
-26 -47 390 233 176 146 
-25 -47 389 235 182 151 
-25 -47 388 244 191 160 
-24 -46 386 245 192 158 
-23 -46 385 250 197 163 
-22 -46 385 255 199 169 
-22 -46 384 255 201 171 
-21 -46 384 255 204 181 
-20 -46 383 255 204 181 
-20 -46 383 252 206 183 
-19 -46 383 252 206 183 
-19 -46 383 255 203 189 
-18 -46 383 252 199 185 
-17 -46 383 255 201 171 
-17 -46 383 255 203 173 
-16 -46 383 251 204 178 
-15 -46 383 250 203 177 
-15 -46 383 244 196 174 
-14 -46 383 235 187 165 
-14 -46 384 232 181 154 
-13 -46 384 226 175 148 
-29 -47 396 179 129 120 
-28 -47 395 201 147 119 
-27 -47 394 217 163 135 
-27 -46 392 224 168 135 
-26 -46 390 233 177 144 
-25 -46 388 233 183 150 
-24 -46 387 244 194 161 
-24 -46 386 242 192 157 
-23 -46 385 246 196 161 
-22 -46 385 253 198 167 
-22 -45 384 255 201 170 
-21 -45 384 255 204 180 
-20 -45 383 255 205 181 
-20 -45 383 253 208 185 
-19 -45 383 254 209 186 
-19 -45 383 255 202 185 
-18 -45 383 253 197 180 
-17 -45 383 253 199 171 
-17 -45 382 255 202 174 
-16 -45 383 251 203 180 
-15 -45 383 251 203 180 
-15 -45 383 251 199 178 
-14 -45 383 243 191 170 
-14 -45 383 236 185 158 
-13 -45 384 234 183 156 
-12 -45 384 203 182 181 
-12 -45 383 202 181 180 
-29 -46 396 182 129 121 
-28 -46 396 198 143 113 
-27 -46 394 212 157 127 
-27 -46 392 222 166 129 
-26 -45 390 229 173 136 
-25 -45 388 231 178 144 
-24 -45 387 242 189 155 
-24 -45 386 240 190 153 
-23 -45 385 243 193 156 
-22 -45 384 252 197 166 
-22 -45 384 255 202 171 
-21 -45 383 255 204 182 
-20 -45 383 255 205 183 
-20 -45 383 254 209 186 
-19 -45 382 255 210 187 
-19 -45 382 255 203 183 
-18 -45 382 254 197 177 
-17 -45 382 250 199 172 
-17 -45 382 254 203 176 
-16 -45 382 252 204 182 
-15 -45 383 253 205 183 
-15 -45 383 253 201 179 
-14 -45 383 246 194 172 
-14 -45 383 238 190 167 
-13 -45 383 235 187 164 
-12 -45 383 214 182 171 
-12 -45 383 219 187 176 
-29 -46 397 184 130 120 
-28 -46 396 195 138 108 
-27 -45 394 208 151 121 
-27 -45 392 223 165 128 
-26 -45 390 229 171 134 
-25 -45 388 229 175 141 
-24 -45 387 238 184 150 
-24 -44 386 238 186 149 
-23 -44 385 242 190 153 
-22 -44 384 249 194 164 
-22 -44 383 255 200 170 
-21 -44 383 255 204 182 
-20 -44 383 255 205 183 
-20 -44 383 253 209 184 
-19 -44 382 255 211 186 
-19 -44 382 255 206 182 
-18 -44 382 252 200 176 
-17 -44 382 247 201 175 
-17 -44 381 250 204 178 
-16 -44 382 252 206 182 
-15 -44 382 252 206 182 
-15 -44 382 252 202 177 
-14 -44 382 246 196 171 
-14 -44 383 237 195 173 
-13 -44 383 233 191 169 
-12 -44 383 221 180 162 
-12 -44 383 228 187 169 
-29 -45 397 182 128 118 
-28 -45 396 193 136 106 
-27 -45 394 204 147 117 
-27 -44 392 221 163 126 
-26 -44 390 227 169 132 
-25 -44 388 229 175 139 
-24 -44 386 235 181 145 
-24 -44 385 235 183 146 
-23 -44 385 238 186 149 
-22 -44 384 246 191 161 
-22 -43 383 252 197 167 
-21 -43 383 253 201 179 
-20 -43 383 255 204 182 
-20 -43 382 254 208 184 
-19 -43 382 255 211 187 
-19 -43 382 255 209 186 
-18 -43 382 253 203 180 
-17 -43 381 246 205 177 
-17 -43 381 248 207 179 
-16 -43 381 251 207 180 
-15 -43 382 251 207 180 
-15 -43 382 253 203 178 
-14 -43 382 249 199 174 
-14 -43 382 240 197 178 
-13 -43 382 235 192 173 
-12 -43 382 230 181 164 
-12 -43 383 232 183 166 
-29 -44 397 175 123 112 
-28 -44 397 189 134 104 
-28 -44 395 200 145 115 
-27 -44 392 214 158 121 
-26 -44 390 221 165 128 
-25 -43 387 225 173 136 
-24 -43 386 229 177 140 
-24 -43 385 229 177 140 
-23 -43 384 234 182 145 
-22 -43 384 242 187 156 
-22 -43 383 249 194 163 
-21 -43 383 252 200 178 
-20 -43 382 255 203 181 
-20 -43 382 253 209 184 
-19 -43 382 255 212 187 
-19 -43 381 255 207 186 
-18 -43 381 255 204 183 
-17 -43 381 251 207 180 
-17 -43 381 252 208 181 
-16 -43 381 254 209 180 
-15 -43 381 254 209 180 
-15 -43 382 254 207 181 
-14 -43 382 250 203 177 
-14 -43 382 247 200 180 
-13 -43 382 242 195 175 
-12 -43 382 236 187 172 
-12 -43 383 232 183 168 
-28 -44 397 189 136 105 
-28 -43 395 199 146 115 
-27 -43 392 212 156 121 
-26 -43 390 218 162 127 
-25 -43 387 223 169 133 
-24 -43 386 226 172 136 
-24 -42 385 226 174 134 
-23 -42 384 230 178 138 
-22 -42 383 240 186 152 
-22 -42 383 247 193 159 
-21 -42 383 250 199 172 
-20 -42 382 254 203 176 
-20 -42 382 254 208 182 
-19 -42 382 254 208 182 
-19 -42 381 255 207 185 
-18 -42 381 254 206 184 
-17 -42 381 253 209 180 
-17 -42 381 253 209 180 
-16 -42 381 255 210 181 
-15 -42 381 255 211 182 
-15 -42 381 255 208 185 
-14 -42 382 252 204 181 
-14 -42 382 254 204 179 
-13 -42 382 249 199 174 
-12 -42 382 241 194 178 
-12 -42 382 234 187 171 
-11 -42 383 229 191 188 
-28 -43 397 187 132 102 
-27 -43 394 197 142 112 
-27 -43 392 209 153 118 
-26 -42 389 216 160 125 
-25 -42 388 222 168 132 
-24 -42 386 225 171 135 
-24 -42 385 226 173 133 
-23 -42 384 230 177 137 
-22 -42 383 239 183 148 
-22 -42 383 247 191 156 
-21 -42 383 250 194 167 
-20 -41 382 255 199 172 
-20 -41 382 255 206 179 
-19 -41 382 255 206 179 
-19 -41 381 254 208 184 
-18 -41 381 254 208 184 
-17 -41 381 253 209 180 
-17 -41 381 253 209 180 
-16 -41 381 255 208 182 
-15 -41 381 255 209 183 
-15 -41 381 255 210 187 
-14 -41 381 253 207 184 
-14 -41 381 255 206 177 
-13 -41 381 254 203 174 
-12 -41 381 242 199 182 
-12 -41 382 238 195 178 
-11 -41 382 230 187 178 
-28 -43 398 178 131 121 
-28 -42 395 183 136 126 
-27 -42 392 208 149 107 
-26 -42 389 218 159 117 
-25 -41 388 218 163 124 
-24 -41 386 224 169 130 
-24 -41 385 228 169 129 
-23 -41 384 233 174 134 
-22 -41 383 237 181 144 
-22 -41 383 245 189 152 
-21 -41 383 251 195 170 
-20 -41 382 255 199 174 
-20 -41 382 254 205 175 
-19 -41 381 255 209 179 
-19 -41 381 254 206 183 
-18 -41 381 253 205 182 
-17 -41 381 254 206 183 
-17 -41 381 254 206 183 
-16 -41 381 255 205 180 
-15 -41 381 254 204 179 
-15 -41 381 253 207 183 
-14 -41 381 255 210 186 
-14 -41 381 255 210 191 
-13 -41 381 254 209 190 
-12 -41 381 253 202 183 
-12 -41 381 243 192 173 
-11 -41 381 234 197 188 
-28 -42 398 174 130 119 
-28 -42 396 178 134 123 
-27 -41 392 207 148 106 
-26 -41 390 216 157 115 
-25 -41 388 216 161 122 
-24 -41 387 221 166 127 
-24 -41 386 224 165 125 
-23 -40 384 231 172 132 
-22 -40 384 235 179 142 
-22 -40 383 242 186 149 
-21 -40 382 249 193 166 
-20 -40 382 253 197 170 
-20 -40 382 253 204 174 
-19 -40 381 255 208 178 
-19 -40 381 252 206 183 
-18 -40 381 252 206 183 
-17 -40 380 252 206 183 
-17 -40 380 252 206 183 
-16 -40 380 254 204 179 
-15 -40 380 254 204 179 
-15 -40 380 253 207 183 
-14 -40 380 255 210 186 
-14 -40 381 255 211 190 
-13 -40 381 255 211 190 
-12 -40 381 251 203 181 
-12 -40 381 245 197 175 
-11 -40 381 238 202 190 
-28 -41 398 171 133 124 
-28 -41 397 170 132 123 
-27 -41 393 204 146 106 
-26 -41 391 210 152 112 
-25 -40 388 213 158 117 
-24 -40 387 218 163 122 
-24 -40 386 221 163 125 
-23 -40 385 227 169 131 
-22 -40 384 231 175 138 
-22 -40 383 238 182 145 
-21 -40 382 245 189 162 
-20 -40 382 251 195 168 
-20 -40 382 252 203 173 
-19 -40 382 255 207 177 
-19 -39 381 252 206 183 
-18 -39 381 252 206 183 
-17 -39 380 251 204 184 
-17 -39 380 250 203 183 
-16 -39 380 253 203 180 
-15 -39 380 254 204 181 
-15 -39 380 254 206 184 
-14 -39 380 255 208 186 
-14 -39 380 253 208 187 
-13 -39 381 255 210 189 
-12 -39 381 251 203 180 
-12 -39 381 249 201 178 
-11 -39 381 242 204 191 
-28 -41 399 169 136 131 
-28 -41 398 163 130 125 
-27 -40 393 200 142 104 
-26 -40 390 205 147 109 
-25 -40 388 212 154 114 
-24 -39 387 217 159 119 
-24 -39 386 216 160 123 
-23 -39 385 222 166 129 
-22 -39 384 228 172 137 
-22 -39 383 234 178 143 
-21 -39 382 243 188 158 
-20 -39 382 250 195 165 
-20 -39 382 252 201 172 
-19 -39 381 255 205 176 
-19 -39 381 251 205 181 
-18 -39 381 251 205 181 
-17 -39 380 251 204 184 
-17 -39 380 250 203 183 
-16 -39 380 253 202 181 
-15 -39 380 255 204 183 
-15 -39 380 255 207 185 
-14 -39 380 255 208 186 
-14 -39 380 250 205 184 
-13 -39 380 253 208 187 
-12 -39 381 252 206 182 
-12 -39 381 250 204 180 
-11 -39 381 242 203 186 
-10 -39 381 242 203 186 
-10 -39 382 227 207 208 
-28 -40 399 166 138 135 
-28 -40 398 156 128 125 
-27 -40 394 195 137 100 
-26 -39 390 200 142 105 
-25 -39 389 210 151 109 
-24 -39 387 217 158 116 
-24 -39 386 216 160 123 
-23 -39 385 222 166 129 
-22 -39 384 230 171 137 
-22 -38 383 236 177 143 
-21 -38 382 243 188 157 
-20 -38 382 249 194 163 
-20 -38 381 253 198 168 
-19 -38 381 255 202 172 
-19 -38 381 252 205 179 
-18 -38 381 253 206 180 
-17 -38 380 252 205 187 
-17 -38 380 251 204 186 
-16 -38 380 254 203 184 
-15 -38 380 255 205 186 
-15 -38 380 255 207 186 
-14 -38 380 255 207 186 
-14 -38 380 254 209 186 
-13 -38 380 254 209 186 
-12 -38 380 255 209 185 
-12 -38 380 250 204 180 
-11 -38 380 244 201 184 
-10 -38 380 243 200 183 
-10 -38 380 232 202 200 
-27 -39 395 189 131 94 
-26 -39 392 197 139 102 
-25 -38 389 206 147 103 
-25 -38 388 214 155 111 
-24 -38 387 215 162 122 
-23 -38 385 221 168 128 
-22 -38 384 231 171 137 
-22 -38 383 236 176 142 
-21 -38 383 240 186 150 
-20 -38 382 245 191 155 
-20 -38 382 251 195 162 
-19 -38 381 255 201 168 
-19 -38 381 254 204 177 
-18 -38 381 254 204 177 
-17 -38 380 252 205 185 
-17 -38 380 251 204 184 
-16 -38 380 255 202 184 
-15 -37 379 255 203 185 
-15 -37 379 255 206 185 
-14 -38 380 255 207 186 
-14 -38 380 255 210 187 
-13 -38 380 255 209 186 
-12 -38 380 255 211 186 
-12 -38 380 248 204 179 
-11 -38 380 245 200 181 
-10 -38 380 244 199 180 
-10 -38 380 232 197 193 
-27 -38 396 183 124 90 
-26 -38 392 193 134 100 
-25 -38 389 202 144 98 
-25 -38 388 211 153 107 
-24 -38 387 213 159 121 
-23 -37 385 218 164 126 
-22 -37 384 226 166 132 
-22 -37 384 232 172 138 
-21 -37 383 236 182 146 
-20 -37 382 242 188 152 
-20 -37 382 248 192 159 
-19 -37 382 255 200 167 
-19 -37 381 252 203 173 
-18 -37 380 253 204 174 
-17 -37 380 251 204 184 
-17 -37 379 250 203 183 
-16 -37 379 254 201 185 
-15 -37 379 255 203 187 
-15 -37 379 255 206 185 
-14 -37 379 255 209 188 
-14 -37 380 255 210 187 
-13 -37 380 255 210 187 
-12 -37 380 254 210 185 
-12 -37 380 248 204 179 
-11 -37 380 244 199 180 
-10 -37 381 243 198 179 
-10 -37 381 235 196 191 
-9 -37 381 255 217 212 
-9 -37 381 254 254 255 
-27 -38 397 177 120 90 
-26 -37 392 188 131 101 
-25 -37 390 198 139 95 
-25 -37 388 209 150 106 
-24 -37 387 208 156 119 
-23 -37 386 212 160 123 
-22 -37 384 221 160 129 
-22 -37 383 227 166 135 
-21 -37 383 234 180 144 
-20 -36 382 240 186 150 
-20 -36 381 246 189 159 
-19 -36 381 253 196 166 
-18 -36 380 250 201 169 
-18 -36 380 251 202 170 
-17 -36 379 249 202 182 
-17 -36 379 249 202 182 
-16 -36 379 254 201 185 
-15 -36 378 255 202 186 
-15 -36 378 255 207 186 
-14 -36 379 255 210 189 
-13 -36 379 255 210 187 
-13 -36 379 255 212 189 
-12 -36 379 251 209 184 
-12 -36 379 247 205 180 
-11 -36 380 244 199 178 
-10 -36 380 243 198 177 
-10 -36 380 240 199 193 
-9 -36 380 251 210 204 
-9 -36 381 254 254 255 
-26 -37 393 172 125 105 
-25 -37 390 198 136 97 
-25 -36 389 205 143 104 
-24 -36 388 212 150 111 
-23 -36 386 218 156 117 
-22 -36 385 225 158 129 
-22 -36 383 231 164 135 
-21 -36 383 232 179 135 
-20 -36 382 238 185 141 
-20 -36 381 240 190 165 
-19 -36 380 249 199 174 
-18 -36 380 249 195 167 
-18 -36 379 255 203 175 
-17 -36 379 253 203 178 
-17 -36 379 253 203 178 
-16 -35 378 252 205 185 
-15 -35 378 253 206 186 
-15 -35 378 252 210 188 
-14 -35 378 255 213 191 
-13 -35 378 254 213 191 
-13 -36 379 251 210 188 
-12 -36 379 251 210 188 
-12 -36 379 248 207 185 
-11 -36 379 245 202 186 
-10 -36 379 241 198 182 
-10 -36 380 244 197 187 
-9 -36 380 254 207 197 
-9 -36 380 251 252 255 
-26 -36 395 162 126 114 
-25 -36 391 193 133 97 
-25 -36 389 200 140 104 
-24 -36 388 202 146 109 
-23 -36 386 209 153 116 
-22 -35 385 219 158 127 
-22 -35 384 226 165 134 
-21 -35 383 231 178 136 
-20 -35 382 237 184 142 
-20 -35 381 241 187 161 
-19 -35 380 248 194 168 
-18 -35 380 249 195 167 
-18 -35 379 255 202 174 
-17 -35 379 254 204 179 
-17 -35 379 253 203 178 
-16 -35 378 253 206 186 
-15 -35 378 254 207 187 
-15 -35 378 254 209 188 
-14 -35 378 255 211 190 
-13 -35 378 255 213 189 
-13 -35 378 255 213 189 
-12 -35 378 255 213 191 
-12 -35 379 252 210 188 
-11 -35 379 250 204 188 
-10 -35 379 245 199 183 
-10 -35 379 246 199 189 
-9 -35 379 254 207 197 
-9 -35 380 250 254 255 
-26 -36 395 148 127 124 
-25 -36 392 190 129 98 
-25 -35 390 197 136 105 
-24 -35 388 197 143 109 
-23 -35 387 205 151 117 
-22 -35 385 213 157 122 
-22 -35 384 220 164 129 
-21 -35 383 228 174 136 
-20 -35 382 235 181 143 
-20 -35 381 241 184 155 
-19 -34 380 247 190 161 
-18 -34 380 248 194 166 
-18 -34 379 254 200 172 
-17 -34 378 254 204 181 
-17 -34 378 254 204 181 
-16 -34 378 254 206 186 
-15 -34 378 255 208 188 
-15 -34 378 253 208 187 
-14 -34 378 255 211 190 
-13 -34 378 255 213 189 
-13 -34 378 255 215 191 
-12 -34 378 255 213 191 
-12 -34 379 252 210 188 
-11 -34 379 251 205 189 
-10 -34 378 247 201 185 
-10 -34 379 248 200 188 
-9 -34 379 251 203 191 
-9 -34 379 250 252 249 
-26 -35 396 139 131 129 
-25 -35 392 188 125 94 
-25 -35 390 197 134 103 
-24 -35 389 195 139 106 
-23 -34 387 203 147 114 
-22 -34 385 210 156 118 
-22 -34 384 216 162 124 
-21 -34 383 226 172 138 
-20 -34 382 232 178 144 
-20 -34 381 239 183 150 
-19 -34 380 245 189 156 
-18 -34 380 243 192 163 
-18 -34 379 250 199 170 
-17 -34 378 255 205 182 
-17 -34 378 254 204 181 
-16 -34 378 253 206 186 
-15 -34 378 255 208 188 
-15 -34 378 251 209 187 
-14 -34 378 255 213 191 
-13 -34 378 255 213 189 
-13 -34 378 255 215 191 
-12 -34 378 253 211 187 
-12 -34 379 252 210 186 
-11 -34 379 252 206 190 
-10 -34 378 249 203 187 
-10 -34 379 249 201 189 
-9 -34 379 246 198 186 
-9 -34 379 249 240 235 
-26 -35 397 133 132 130 
-26 -34 393 183 122 91 
-25 -34 391 192 131 100 
-24 -34 389 194 134 98 
-23 -34 387 203 143 107 
-23 -34 386 208 155 115 
-22 -34 384 215 162 122 
-21 -33 383 224 170 136 
-20 -33 382 230 176 142 
-20 -33 381 237 181 146 
-19 -33 380 242 186 151 
-18 -33 380 242 191 162 
-18 -33 379 249 198 169 
-17 -33 379 253 206 180 
-17 -33 378 253 206 180 
-16 -33 378 253 206 186 
-15 -33 378 255 208 188 
-15 -33 378 251 209 187 
-14 -33 378 254 212 190 
-13 -33 378 255 216 191 
-13 -33 378 255 216 191 
-12 -33 378 254 212 188 
-12 -33 378 254 212 188 
-11 -33 379 255 210 191 
-10 -33 378 254 209 190 
-10 -33 379 251 205 192 
-9 -33 379 243 197 184 
-9 -33 379 249 226 218 
-8 -33 379 255 249 241 
-25 -34 391 182 128 100 
-24 -33 390 194 130 94 
-23 -33 388 202 138 102 
-23 -33 386 204 150 112 
-22 -33 385 212 158 120 
-21 -33 383 221 167 133 
-20 -33 382 228 174 140 
-20 -33 381 234 180 144 
-19 -33 380 239 185 149 
-18 -33 380 240 191 161 
-18 -32 379 247 198 168 
-17 -32 379 251 204 178 
-17 -32 378 252 205 179 
-16 -32 378 253 208 185 
-15 -32 378 254 209 186 
-15 -32 378 252 210 188 
-14 -32 378 253 211 189 
-13 -32 378 254 214 189 
-13 -32 378 253 213 188 
-12 -32 378 253 213 188 
-12 -32 378 253 213 188 
-11 -32 378 253 210 191 
-10 -32 378 253 210 191 
-10 -32 379 252 206 193 
-9 -32 379 244 198 185 
-9 -32 379 247 213 203 
-8 -32 379 255 243 233 
-25 -33 392 166 124 108 
-24 -33 390 187 127 90 
-23 -33 388 195 135 98 
-23 -33 387 200 146 108 
-22 -32 385 209 155 117 
-21 -32 384 219 165 127 
-20 -32 383 226 172 134 
-20 -32 381 232 178 144 
-19 -32 381 237 183 149 
-18 -32 380 239 188 157 
-18 -32 379 246 195 164 
-17 -32 379 249 199 174 
-17 -32 378 253 203 178 
-16 -32 378 253 207 184 
-15 -32 378 255 209 186 
-15 -32 378 253 211 189 
-14 -32 378 253 211 189 
-13 -32 377 253 213 188 
-13 -32 378 252 212 187 
-12 -32 378 253 213 188 
-12 -32 378 253 213 188 
-11 -32 378 253 210 193 
-10 -32 378 253 210 193 
-10 -32 378 251 205 192 
-9 -32 378 244 198 185 
-9 -32 379 243 207 193 
-8 -32 379 255 237 223 
-25 -32 394 153 123 113 
-24 -32 391 180 124 87 
-23 -32 388 188 132 95 
-23 -32 387 197 145 108 
-22 -32 385 208 156 119 
-21 -32 384 219 166 126 
-20 -32 383 225 172 132 
-20 -31 382 231 176 145 
-19 -31 381 235 180 149 
-18 -31 380 238 185 154 
-18 -31 379 246 193 162 
-17 -31 379 247 197 172 
-17 -31 378 252 202 177 
-16 -31 378 253 207 184 
-15 -31 378 254 208 185 
-15 -31 378 254 212 188 
-14 -31 378 254 212 188 
-13 -31 377 255 215 190 
-13 -31 377 253 213 188 
-12 -31 378 255 215 190 
-12 -31 378 254 214 189 
-11 -31 378 254 211 194 
-10 -31 378 254 211 194 
-10 -31 379 250 204 191 
-9 -31 379 245 199 186 
-9 -31 379 238 205 188 
-8 -31 379 255 233 216 
-25 -32 395 135 124 128 
-24 -32 391 177 120 91 
-23 -31 389 188 131 102 
-23 -31 387 195 142 108 
-22 -31 386 206 153 119 
-21 -31 384 219 159 131 
-20 -31 383 225 165 137 
-20 -31 382 232 176 143 
-19 -31 381 236 180 147 
-18 -31 380 235 180 149 
-18 -31 380 243 188 157 
-17 -31 379 246 195 164 
-17 -31 379 252 201 170 
-16 -31 378 254 207 181 
-15 -31 378 255 209 183 
-15 -31 378 255 211 190 
-14 -31 378 254 209 188 
-13 -30 377 251 210 192 
-13 -30 377 254 213 195 
-12 -30 377 252 214 195 
-12 -31 378 252 214 195 
-11 -31 378 253 215 196 
-10 -31 378 251 213 194 
-10 -31 378 249 206 190 
-9 -31 379 246 203 187 
-9 -31 379 245 201 188 
-8 -31 379 255 211 198 
-24 -31 391 167 113 85 
-23 -31 390 179 125 97 
-23 -31 388 191 137 101 
-22 -31 386 200 146 110 
-21 -30 385 213 152 123 
-21 -30 384 221 160 131 
-20 -30 382 228 172 137 
-19 -30 381 234 178 143 
-18 -30 380 233 176 146 
-18 -30 379 241 184 154 
-17 -30 379 242 191 160 
-17 -30 379 249 198 167 
-16 -30 378 253 206 178 
-15 -30 378 255 210 182 
-15 -30 378 255 211 190 
-14 -30 378 254 209 188 
-13 -30 377 252 209 190 
-13 -30 377 253 210 191 
-12 -30 377 253 212 194 
-12 -30 378 254 213 195 
-11 -30 378 255 214 196 
-10 -30 378 254 213 195 
-10 -30 378 251 208 191 
-9 -30 378 247 204 187 
-9 -30 379 245 202 186 
-8 -30 379 253 210 194 
-24 -30 392 157 112 89 
-23 -30 391 165 120 97 
-23 -30 389 184 130 96 
-22 -30 387 193 139 105 
-21 -30 386 206 145 116 
-21 -30 384 217 156 127 
-20 -30 383 224 168 133 
-19 -30 382 231 175 140 
-19 -30 381 230 174 141 
-18 -29 379 237 181 148 
-17 -29 379 240 187 155 
-17 -29 378 248 195 163 
-16 -29 378 253 203 176 
-15 -29 378 255 207 180 
-15 -29 378 255 209 186 
-14 -29 378 254 208 185 
-13 -29 377 251 208 189 
-13 -29 377 250 207 188 
-12 -29 377 253 210 191 
-12 -29 377 255 213 194 
-11 -29 377 255 214 195 
-10 -29 377 255 213 194 
-10 -29 378 255 210 191 
-9 -29 378 251 206 187 
-9 -29 379 246 203 186 
-8 -29 379 249 206 189 
-7 -29 379 249 237 237 
-7 -29 380 255 249 249 
-24 -30 394 151 118 103 
-24 -30 392 150 117 102 
-23 -30 390 177 122 92 
-22 -29 388 188 133 103 
-21 -29 386 201 142 112 
-21 -29 385 213 154 124 
-20 -29 383 219 163 128 
-19 -29 382 226 170 135 
-19 -29 381 226 170 137 
-18 -29 380 233 177 144 
-17 -29 379 239 184 153 
-17 -29 378 247 192 161 
-16 -29 378 251 201 174 
-15 -29 378 255 205 178 
-15 -29 378 254 208 184 
-14 -29 378 253 207 183 
-13 -29 377 251 206 185 
-13 -29 377 252 207 186 
-12 -29 377 253 211 189 
-12 -29 377 255 214 192 
-11 -29 377 255 214 192 
-10 -29 377 255 213 191 
-10 -29 378 255 210 189 
-9 -29 378 253 208 187 
-9 -29 378 248 205 186 
-8 -29 379 248 205 186 
-7 -29 379 250 231 225 
-7 -29 379 255 250 244 
-23 -29 391 169 115 87 
-22 -29 389 184 130 102 
-21 -29 387 197 138 106 
-21 -29 386 208 149 117 
-20 -29 384 217 159 122 
-19 -28 382 222 164 127 
-19 -28 381 222 166 133 
-18 -28 380 229 173 140 
-17 -28 379 236 181 150 
-17 -28 379 245 190 159 
-16 -28 378 249 198 171 
-15 -28 378 254 203 176 
-15 -28 378 254 208 184 
-14 -28 377 252 206 182 
-13 -28 377 252 207 186 
-13 -28 377 252 207 186 
-12 -28 377 251 208 189 
-12 -28 377 253 210 191 
-11 -28 377 255 211 190 
-10 -28 377 255 211 190 
-10 -28 377 255 210 189 
-9 -28 378 255 210 189 
-9 -28 378 251 209 185 
-8 -28 378 248 206 182 
-7 -28 379 252 225 214 
-7 -28 379 255 248 237 
-23 -28 392 165 111 85 
-22 -28 390 179 125 99 
-21 -28 388 194 135 101 
-21 -28 386 204 145 111 
-20 -28 384 214 155 115 
-19 -28 383 220 161 121 
-19 -28 381 220 161 127 
-18 -28 380 226 167 133 
-17 -28 379 232 177 146 
-17 -28 379 241 186 155 
-16 -27 378 246 195 168 
-15 -27 378 253 202 175 
-15 -27 378 254 208 184 
-14 -27 377 252 206 182 
-13 -27 377 253 208 185 
-13 -27 377 252 207 184 
-12 -27 377 252 207 186 
-12 -27 377 253 208 187 
-11 -27 377 255 211 190 
-10 -27 377 255 211 190 
-10 -27 377 254 209 188 
-9 -27 377 254 209 188 
-9 -27 378 250 208 183 
-8 -27 378 248 206 181 
-7 -27 378 252 219 202 
-7 -28 379 255 242 225 
-23 -28 393 160 109 88 
-22 -28 391 168 117 96 
-21 -28 389 190 131 99 
-21 -27 387 200 141 109 
-20 -27 384 212 150 111 
-19 -27 383 218 156 117 
-19 -27 381 217 159 122 
-18 -27 380 223 165 128 
-17 -27 379 229 173 140 
-17 -27 378 237 181 148 
-16 -27 378 244 190 162 
-15 -27 377 253 199 171 
-15 -27 377 254 207 181 
-14 -27 377 253 206 180 
-13 -27 376 252 207 184 
-13 -27 376 251 206 183 
-12 -27 376 253 206 186 
-12 -27 376 254 207 187 
-11 -27 376 255 210 190 
-10 -27 376 255 210 190 
-10 -27 376 255 209 186 
-9 -27 377 254 208 185 
-8 -27 377 250 208 183 
-8 -27 377 248 206 181 
-7 -27 378 250 212 193 
-7 -27 378 255 234 215 
-23 -27 394 154 105 88 
-22 -27 392 157 108 91 
-22 -27 390 182 127 96 
-21 -27 387 193 138 107 
-20 -27 385 204 145 105 
-19 -27 383 211 152 112 
-19 -27 382 215 155 118 
-18 -26 380 222 162 125 
-17 -26 379 228 169 135 
-17 -26 378 235 176 142 
-16 -26 378 241 186 156 
-15 -26 377 251 196 166 
-15 -26 377 253 206 178 
-14 -26 377 253 206 178 
-13 -26 376 252 206 182 
-13 -26 376 252 206 182 
-12 -26 376 253 206 186 
-12 -26 376 254 207 187 
-11 -26 376 255 208 188 
-10 -26 376 255 209 189 
-10 -26 376 255 210 187 
-9 -26 376 254 208 185 
-8 -26 377 248 208 182 
-8 -26 377 248 208 182 
-7 -26 377 248 207 187 
-7 -26 378 255 227 207 
-23 -27 394 142 121 116 
-22 -27 393 134 113 108 
-22 -26 391 178 115 84 
-21 -26 388 193 130 99 
-20 -26 385 195 139 102 
-19 -26 383 205 149 112 
-19 -26 382 210 152 115 
-18 -26 380 221 163 126 
-17 -26 379 223 167 132 
-17 -26 379 230 174 139 
-16 -26 378 239 184 153 
-15 -26 378 249 194 163 
-15 -26 377 255 204 176 
-14 -25 376 255 204 176 
-13 -25 376 253 203 178 
-13 -25 376 254 204 179 
-12 -25 375 254 206 184 
-12 -25 375 255 208 186 
-11 -25 375 254 209 188 
-10 -25 375 253 208 187 
-10 -25 376 253 208 189 
-9 -25 376 254 209 190 
-8 -25 376 255 204 185 
-8 -25 376 255 205 186 
-7 -25 376 251 204 184 
-7 -26 377 255 214 194 
-22 -26 395 134 116 114 
-22 -26 393 167 110 81 
-21 -26 389 179 122 93 
-20 -26 386 191 135 98 
-19 -25 384 199 143 106 
-19 -25 383 205 147 110 
-18 -25 381 215 157 120 
-17 -25 380 221 162 128 
-17 -25 379 228 169 135 
-16 -25 378 235 181 147 
-15 -25 378 246 192 158 
-15 -25 377 255 202 171 
-14 -25 376 255 205 174 
-13 -25 376 252 202 177 
-13 -25 376 254 204 179 
-12 -25 375 253 205 183 
-12 -25 375 255 207 185 
-11 -25 375 255 210 189 
-10 -25 375 255 210 189 
-10 -25 375 255 210 191 
-9 -25 376 255 211 192 
-8 -25 376 250 203 183 
-8 -25 376 250 203 183 
-7 -25 376 252 204 182 
-7 -25 376 255 207 185 
-6 -25 377 254 235 237 
-22 -25 394 154 108 84 
-21 -25 390 163 117 93 
-20 -25 387 188 132 97 
-19 -25 385 193 137 102 
-19 -25 383 202 142 105 
-18 -25 381 211 151 114 
-17 -25 380 218 160 123 
-17 -24 379 225 167 130 
-16 -24 378 233 177 144 
-15 -24 378 245 189 156 
-15 -24 377 252 199 168 
-14 -24 376 255 204 173 
-13 -24 376 252 202 177 
-13 -24 376 253 203 178 
-12 -24 375 251 205 182 
-12 -24 375 252 206 183 
-11 -24 375 255 210 191 
-10 -24 375 255 211 192 
-10 -24 375 254 211 192 
-9 -24 376 255 212 193 
-8 -24 376 252 210 188 
-8 -24 376 248 206 184 
-7 -24 376 255 207 185 
-7 -24 376 249 201 179 
-6 -24 376 246 220 219 
-22 -25 394 146 113 94 
-21 -25 391 150 117 98 
-20 -24 388 187 128 94 
-19 -24 385 192 133 99 
-19 -24 384 198 138 101 
-18 -24 382 207 147 110 
-17 -24 380 217 157 121 
-17 -24 379 223 163 127 
-16 -24 378 231 175 142 
-15 -24 378 241 185 152 
-15 -24 377 247 194 163 
-14 -24 376 254 201 170 
-13 -24 376 251 201 174 
-13 -24 376 253 203 176 
-12 -24 375 251 203 181 
-12 -24 375 252 204 182 
-11 -24 375 253 208 187 
-10 -24 375 255 210 189 
-10 -24 375 254 211 192 
-9 -24 375 254 211 192 
-8 -24 375 251 210 188 
-8 -24 375 247 206 184 
-7 -24 375 252 206 183 
-7 -24 376 247 201 178 
-6 -24 376 242 209 202 
-21 -24 391 140 121 107 
-20 -24 388 180 121 89 
-19 -24 386 188 129 97 
-19 -24 384 194 132 95 
-18 -23 383 204 142 105 
-17 -23 381 213 153 117 
-17 -23 380 221 161 125 
-16 -23 379 227 171 136 
-15 -23 378 235 179 144 
-15 -23 377 242 187 157 
-14 -23 376 251 196 166 
-13 -23 376 250 199 172 
-13 -23 376 251 200 173 
-12 -23 376 251 203 180 
-12 -23 375 252 204 181 
-11 -23 375 251 206 185 
-10 -23 375 254 209 188 
-10 -23 375 255 211 192 
-9 -23 375 255 211 192 
-8 -23 375 250 209 189 
-8 -23 375 246 205 185 
-7 -23 375 248 203 180 
-7 -23 375 248 203 180 
-6 -23 376 239 203 191 
-21 -23 392 132 123 118 
-20 -23 389 173 113 85 
-19 -23 387 180 120 92 
-19 -23 385 187 125 88 
-18 -23 384 200 138 101 
-17 -23 382 210 150 114 
-17 -23 381 219 159 123 
-16 -23 379 227 168 134 
-15 -23 378 234 175 141 
-15 -22 377 240 185 154 
-14 -22 376 249 194 163 
-13 -22 376 248 197 170 
-13 -22 376 249 198 171 
-12 -22 376 249 201 178 
-12 -22 376 252 204 181 
-11 -22 376 252 205 185 
-10 -22 376 255 208 188 
-10 -22 376 255 212 193 
-9 -22 376 255 212 193 
-8 -22 375 253 212 192 
-8 -22 375 250 209 189 
-7 -22 375 247 205 183 
-7 -22 375 247 205 183 
-6 -22 376 238 199 182 
-21 -23 393 127 129 128 
-20 -23 390 168 110 86 
-20 -23 389 170 112 88 
-19 -22 385 180 120 83 
-18 -22 384 194 134 97 
-17 -22 382 204 144 108 
-17 -22 380 215 155 119 
-16 -22 380 224 165 131 
-15 -22 379 231 172 138 
-15 -22 377 238 183 152 
-14 -22 377 247 192 161 
-13 -22 376 245 194 167 
-13 -22 376 246 195 168 
-12 -22 376 249 199 176 
-12 -22 376 253 203 180 
-11 -22 376 252 206 183 
-10 -22 376 255 209 186 
-10 -22 376 255 210 190 
-9 -22 376 255 210 190 
-8 -22 375 250 212 191 
-8 -22 375 249 211 190 
-7 -22 375 248 206 184 
-7 -22 375 247 205 183 
-6 -22 375 244 197 179 
-20 -22 392 168 110 88 
-20 -22 390 166 108 86 
-19 -22 386 175 115 78 
-18 -22 385 189 129 92 
-17 -22 383 197 137 101 
-17 -21 381 209 149 113 
-16 -21 379 218 162 127 
-15 -21 379 226 170 135 
-15 -21 378 235 180 149 
-14 -21 377 242 187 156 
-13 -21 376 244 193 164 
-13 -21 376 245 194 165 
-12 -21 376 247 197 172 
-12 -21 376 252 202 177 
-11 -21 376 253 205 183 
-10 -21 375 255 207 185 
-10 -21 375 255 208 188 
-9 -21 375 255 209 189 
-8 -21 375 247 211 187 
-8 -21 375 247 211 187 
-7 -21 375 251 208 189 
-7 -21 375 247 204 185 
-6 -21 375 248 195 177 
-5 -21 376 246 193 175 
-5 -21 376 228 226 231 
-20 -21 393 144 126 116 
-20 -21 391 135 117 107 
-19 -21 387 177 106 76 
-18 -21 385 193 122 92 
-17 -21 384 200 136 98 
-17 -21 382 210 146 108 
-16 -21 380 215 163 126 
-15 -21 378 223 171 134 
-15 -21 378 233 177 150 
-14 -21 377 243 187 160 
-13 -21 376 241 190 163 
-13 -21 376 247 196 169 
-12 -21 376 244 199 176 
-12 -21 376 246 201 178 
-11 -21 375 255 204 185 
-10 -21 375 255 208 189 
-10 -21 375 255 214 182 
-9 -21 375 253 212 180 
-8 -21 375 255 211 192 
-8 -21 375 254 209 190 
-7 -21 375 255 208 185 
-7 -21 375 252 204 181 
-6 -21 375 242 201 183 
-5 -21 375 231 190 172 
-5 -21 375 234 205 207 
-20 -21 392 130 120 118 
-19 -21 388 169 104 72 
-18 -20 386 181 116 84 
-17 -20 384 193 129 91 
-17 -20 382 205 141 103 
-16 -20 380 212 158 122 
-15 -20 379 222 168 132 
-15 -20 377 230 174 147 
-14 -20 376 239 183 156 
-13 -20 376 240 189 160 
-13 -20 376 245 194 165 
-12 -20 376 243 197 171 
-12 -20 375 247 201 175 
-11 -20 375 255 206 185 
-10 -20 375 255 208 187 
-10 -20 375 254 213 183 
-9 -20 375 254 213 183 
-8 -20 375 253 211 189 
-8 -20 375 253 211 189 
-7 -20 375 254 208 182 
-7 -20 375 250 204 178 
-6 -20 375 244 199 180 
-5 -20 375 237 192 173 
-5 -20 375 233 199 198 
-19 -20 390 163 107 80 
-18 -20 387 168 112 85 
-17 -20 385 186 123 88 
-17 -20 383 199 136 101 
-16 -20 381 209 153 120 
-15 -19 379 221 165 132 
-15 -19 378 229 172 145 
-14 -19 377 239 182 155 
-13 -19 376 241 188 157 
-13 -19 376 246 193 162 
-12 -19 376 242 197 168 
-12 -19 375 248 203 174 
-11 -19 375 255 208 186 
-10 -19 375 255 209 187 
-10 -19 375 254 210 185 
-9 -19 375 255 213 188 
-8 -19 375 254 213 191 
-8 -19 375 252 211 189 
-7 -19 374 255 209 183 
-7 -19 374 250 204 178 
-6 -19 374 245 199 176 
-5 -19 375 240 194 171 
-5 -19 375 232 193 188 
-4 -19 375 229 190 185 
-4 -19 375 194 190 189 
-19 -20 392 156 113 94 
-18 -19 388 154 111 92 
-18 -19 386 179 120 90 
-17 -19 383 191 132 102 
-16 -19 381 203 147 114 
-15 -19 380 217 161 128 
-15 -19 378 226 170 143 
-14 -19 377 237 181 154 
-13 -19 377 240 186 158 
-13 -19 376 247 193 165 
-12 -19 375 243 199 174 
-12 -19 375 247 203 178 
-11 -19 375 255 207 187 
-10 -19 375 255 207 187 
-10 -19 374 254 209 186 
-9 -19 374 255 211 188 
-8 -19 375 252 211 189 
-8 -19 375 252 211 189 
-7 -19 374 255 210 184 
-7 -19 374 252 206 180 
-6 -19 374 245 199 176 
-5 -19 374 242 196 173 
-5 -19 375 229 189 179 
-4 -19 375 238 198 188 
-4 -19 375 177 170 177 
-19 -19 392 145 118 107 
-18 -19 389 140 113 102 
-18 -19 387 170 114 87 
-17 -18 384 182 126 99 
-16 -18 382 196 140 103 
-15 -18 380 211 155 118 
-15 -18 378 222 167 137 
-14 -18 377 232 177 147 
-13 -18 376 238 184 158 
-13 -18 375 247 193 167 
-12 -18 375 244 199 176 
-12 -18 375 245 200 177 
-11 -18 375 250 203 183 
-10 -18 374 254 207 187 
-10 -18 374 255 210 187 
-9 -18 374 255 210 187 
-8 -18 374 253 210 191 
-8 -18 374 252 209 190 
-7 -18 374 255 210 186 
-7 -18 374 254 208 184 
-6 -18 374 247 200 180 
-5 -18 374 241 194 174 
-5 -18 374 226 187 172 
-4 -18 374 243 204 189 
-4 -18 375 180 172 183 
-18 -18 391 128 119 114 
-18 -18 388 162 112 87 
-17 -18 385 171 121 96 
-16 -18 383 190 135 96 
-15 -18 380 205 150 111 
-15 -18 379 216 163 131 
-14 -18 377 228 175 143 
-13 -17 376 235 181 155 
-13 -17 375 245 191 165 
-12 -17 374 243 197 173 
-11 -17 374 244 198 174 
-11 -17 374 248 200 178 
-10 -17 374 254 206 184 
-10 -17 373 255 209 184 
-9 -17 373 255 208 183 
-8 -17 373 255 211 192 
-8 -17 373 253 208 189 
-7 -17 373 255 209 186 
-7 -17 373 253 207 184 
-6 -17 374 246 201 182 
-5 -17 374 240 195 176 
-5 -17 374 227 186 168 
-4 -17 374 242 201 183 
-4 -17 374 201 190 206 
-18 -18 391 125 127 126 
-18 -17 388 158 111 91 
-17 -17 386 163 116 96 
-16 -17 383 185 129 92 
-15 -17 381 198 142 105 
-15 -17 379 210 157 125 
-14 -17 378 225 172 140 
-13 -17 376 232 176 149 
-13 -17 375 241 185 158 
-12 -17 374 239 193 167 
-11 -17 374 241 195 169 
-11 -17 374 247 199 177 
-10 -17 374 251 203 181 
-10 -17 373 255 204 184 
-9 -17 373 255 205 185 
-8 -17 373 255 211 190 
-8 -17 373 254 209 188 
-7 -17 373 254 209 188 
-7 -17 373 252 207 186 
-6 -17 373 248 201 183 
-5 -17 373 244 197 179 
-5 -17 373 236 189 169 
-4 -17 373 241 194 174 
-4 -17 373 220 203 221 
-18 -17 390 157 111 95 
-17 -17 387 160 114 98 
-16 -17 384 184 125 93 
-15 -17 382 194 135 103 
-15 -16 380 204 151 120 
-14 -16 378 221 168 137 
-13 -16 376 229 173 146 
-13 -16 375 238 182 155 
-12 -16 374 237 190 162 
-11 -16 374 241 194 166 
-11 -16 374 248 197 176 
-10 -16 373 250 199 178 
-10 -16 373 255 198 182 
-9 -16 373 255 203 187 
-8 -16 373 252 210 186 
-8 -16 372 251 209 185 
-7 -16 372 255 211 188 
-7 -16 372 254 209 186 
-6 -16 372 251 202 185 
-5 -16 372 249 200 183 
-5 -16 372 245 195 172 
-4 -16 373 240 190 167 
-4 -16 373 229 206 226 
-3 -16 374 178 155 175 
-17 -16 388 136 121 124 
-16 -16 385 178 117 86 
-16 -16 383 194 133 102 
-15 -16 381 200 146 112 
-14 -16 379 216 162 128 
-13 -16 377 225 172 138 
-13 -16 375 232 179 145 
-12 -16 374 235 186 154 
-11 -16 374 240 191 159 
-11 -16 373 244 195 165 
-10 -16 373 247 198 168 
-10 -16 373 249 203 179 
-9 -16 373 254 208 184 
-8 -16 373 255 212 185 
-8 -15 372 255 212 185 
-7 -15 372 252 212 186 
-7 -15 372 249 209 183 
-6 -15 372 246 204 192 
-5 -15 372 245 203 191 
-5 -16 373 245 197 185 
-4 -16 373 235 187 175 
-4 -16 373 245 201 198 
-3 -16 374 207 163 160 
-17 -16 391 145 130 135 
-16 -15 386 172 115 86 
-16 -15 384 187 130 101 
-15 -15 382 197 141 108 
-14 -15 379 209 153 120 
-13 -15 377 219 165 131 
-13 -15 376 227 173 139 
-12 -15 375 231 180 149 
-11 -15 374 238 187 156 
-11 -15 373 243 192 163 
-10 -15 373 245 194 165 
-10 -15 373 248 200 177 
-9 -15 373 253 205 182 
-8 -15 373 253 209 184 
-8 -15 372 254 210 185 
-7 -15 372 252 212 186 
-7 -15 372 252 212 186 
-6 -15 372 250 207 191 
-5 -15 372 249 206 190 
-5 -15 372 249 202 186 
-4 -15 373 240 193 177 
-4 -15 373 239 199 191 
-3 -15 373 221 181 173 
-16 -15 388 166 115 94 
-16 -15 385 176 125 104 
-15 -15 382 192 135 105 
-14 -15 380 202 145 115 
-13 -15 378 214 158 125 
-13 -14 376 223 167 134 
-12 -14 375 227 176 145 
-11 -14 374 235 184 153 
-11 -14 374 244 190 162 
-10 -14 373 247 193 165 
-10 -14 373 250 200 175 
-9 -14 372 255 206 181 
-8 -14 372 255 209 186 
-8 -14 372 254 208 185 
-7 -14 372 252 212 186 
-7 -14 372 252 212 186 
-6 -14 372 250 205 186 
-5 -14 372 248 203 184 
-5 -14 372 248 201 181 
-4 -14 372 240 193 173 
-4 -14 373 228 188 176 
-3 -14 373 235 195 183 
-16 -14 389 161 121 109 
-16 -14 385 161 121 109 
-15 -14 383 189 129 101 
-14 -14 380 198 138 110 
-13 -14 378 207 151 118 
-13 -14 376 217 161 128 
-12 -14 375 225 172 140 
-11 -14 374 235 182 150 
-11 -14 374 244 191 160 
-10 -14 373 248 195 164 
-10 -14 373 252 200 176 
-9 -14 372 255 206 182 
-8 -14 372 255 209 186 
-8 -14 372 255 209 186 
-7 -14 372 253 213 188 
-7 -14 372 253 213 188 
-6 -14 372 251 206 185 
-5 -14 372 249 204 183 
-5 -14 372 249 204 183 
-4 -14 372 243 198 177 
-4 -14 373 229 190 175 
-3 -14 373 235 196 181 
-16 -14 391 162 134 130 
-16 -14 387 147 119 115 
-15 -13 383 180 123 96 
-14 -13 380 191 134 107 
-13 -13 378 201 142 110 
-13 -13 376 213 154 122 
-12 -13 375 221 168 136 
-12 -13 375 234 181 149 
-11 -13 374 245 190 160 
-10 -13 373 249 194 164 
-10 -13 373 250 198 174 
-9 -13 373 255 203 179 
-8 -13 372 255 207 180 
-8 -13 372 255 208 181 
-7 -13 372 250 213 187 
-7 -13 372 250 213 187 
-6 -13 372 252 205 185 
-5 -13 372 250 203 183 
-5 -13 372 246 203 184 
-4 -13 372 243 200 181 
-4 -13 372 230 190 178 
-3 -13 373 227 187 175 
-2 -13 373 185 172 182 
-2 -13 374 196 183 193 
-15 -13 384 173 116 89 
-14 -13 381 186 129 102 
-13 -13 379 198 137 106 
-13 -13 377 211 150 119 
-12 -13 376 219 164 133 
-12 -13 375 231 176 145 
-11 -13 374 242 189 158 
-10 -12 373 247 194 163 
-10 -12 373 249 197 173 
-9 -12 373 254 202 178 
-8 -12 372 255 204 176 
-8 -12 372 255 207 179 
-7 -12 372 250 212 189 
-7 -12 372 250 212 189 
-6 -12 372 254 206 186 
-5 -12 372 252 204 184 
-5 -12 372 247 204 187 
-4 -12 372 244 201 184 
-4 -12 372 233 191 177 
-3 -12 372 228 186 172 
-2 -12 373 201 182 188 
-2 -12 373 174 155 161 
-15 -12 387 169 111 87 
-14 -12 383 181 123 99 
-14 -12 380 196 131 101 
-13 -12 378 209 144 114 
-12 -12 377 216 157 127 
-12 -12 375 228 169 139 
-11 -12 374 237 182 152 
-10 -12 373 244 189 159 
-10 -12 373 249 197 173 
-9 -12 373 255 203 179 
-8 -12 372 255 204 177 
-8 -12 372 255 207 180 
-7 -12 372 254 213 193 
-7 -12 372 254 213 193 
-6 -12 372 255 208 186 
-5 -12 372 255 207 185 
-5 -12 372 251 208 189 
-4 -12 372 247 204 185 
-4 -12 372 240 195 176 
-3 -12 372 234 189 170 
-2 -12 372 219 193 194 
-2 -12 373 188 162 163 
-15 -12 388 168 110 86 
-14 -12 384 176 118 94 
-14 -12 382 189 122 95 
-13 -11 379 203 136 109 
-12 -11 377 211 150 121 
-12 -11 376 222 161 132 
-11 -11 374 231 176 146 
-10 -11 374 240 185 155 
-10 -11 373 246 194 172 
-9 -11 372 253 201 179 
-8 -11 372 255 200 177 
-8 -11 372 255 203 180 
-7 -11 372 253 212 194 
-7 -11 372 252 211 193 
-6 -11 372 254 203 182 
-5 -11 372 251 200 179 
-5 -11 372 243 201 177 
-4 -11 372 237 195 171 
-4 -11 372 233 187 163 
-3 -11 372 237 191 167 
-2 -11 372 231 201 199 
-2 -11 373 204 174 172 
-14 -11 386 152 117 98 
-14 -11 382 182 120 97 
-13 -11 380 197 135 112 
-12 -11 378 204 148 113 
-12 -11 376 220 164 129 
-11 -11 374 229 170 136 
-10 -11 373 242 183 149 
-10 -11 373 243 194 164 
-9 -11 372 248 199 169 
-8 -11 372 255 199 179 
-8 -11 372 249 192 172 
-7 -11 372 234 189 168 
-7 -11 372 222 177 156 
-6 -11 372 220 167 149 
-5 -11 372 212 159 141 
-5 -11 372 197 152 133 
-4 -11 372 187 142 123 
-4 -11 372 180 132 110 
-3 -11 372 192 144 122 
-2 -11 372 205 165 155 
-2 -11 372 221 181 171 
-14 -10 388 141 117 107 
-14 -10 384 179 118 97 
-13 -10 381 187 126 105 
-12 -10 379 204 147 117 
-12 -10 377 210 153 123 
-11 -10 375 225 166 134 
-10 -10 373 240 181 149 
-10 -10 373 241 190 159 
-9 -10 373 240 189 158 
-8 -10 372 214 156 134 
-8 -10 372 182 124 102 
-7 -10 372 186 140 117 
-7 -10 372 207 161 138 
-6 -10 372 217 165 144 
-5 -10 372 215 163 142 
-5 -10 372 210 163 143 
-4 -10 372 208 161 141 
-4 -10 372 204 153 132 
-3 -10 371 179 128 107 
-2 -10 372 175 135 125 
-2 -10 371 199 159 149 
-14 -10 389 137 125 127 
-14 -10 385 174 116 96 
-13 -10 382 178 120 100 
-12 -10 379 197 140 113 
-12 -10 377 207 150 123 
-11 -10 376 218 157 128 
-10 -9 374 223 162 133 
-10 -9 374 205 148 118 
-9 -9 373 181 124 94 
-8 -9 373 165 105 79 
-8 -9 373 163 103 77 
-13 -9 381 178 121 101 
-12 -9 379 194 132 109 
-12 -9 377 211 149 126 
-11 -9 376 191 131 105 
-10 -9 375 176 116 90 
-10 -9 374 173 114 82 
-9 -9 374 196 137 105 
-8 -9 373 209 149 121 
-8 -9 373 211 151 123 
-7 -9 373 226 175 148 
-7 -9 373 225 174 147 
-12 -8 379 189 127 106 
-12 -8 378 177 115 94 
-11 -8 377 141 83 61 
-10 -8 376 170 112 90 
-12 -8 380 158 97 79 
-12 -8 379 126 65 47 
-11 -8 378 139 84 64 
-10 -8 377 181 126 106 
-10 -8 376 207 147 119 
-12 -7 381 122 66 53 
-12 -7 380 111 55 42 
-11 -7 379 159 108 91 
-10 -7 378 191 140 123 
-12 -7 382 111 58 50 
-12 -7 381 128 75 67 
-11 -7 381 181 132 115 
-11 -6 381 195 143 129 
