ply
format ascii 1.0
comment Created by CloudCompare v2.10.1 (Zephyrus)
comment Created 2020-05-17 12:35 AM
obj_info Generated by CloudCompare!
element vertex 337
property float x
property float y
property float z
property uchar red
property uchar green
property uchar blue
end_header
-14 69 353 208 154 118 
-14 69 353 214 150 123 
-19 69 353 123 62 33 
-18 69 353 170 117 85 
-18 69 353 213 160 128 
-16 69 352 216 164 124 
-16 69 352 210 154 119 
-15 69 352 202 146 111 
-15 69 351 200 146 108 
-14 69 352 203 149 111 
-14 69 352 209 148 117 
-13 69 352 208 147 116 
-13 69 353 199 143 110 
-12 69 353 181 125 92 
-21 70 354 200 137 102 
-21 70 354 199 143 110 
-20 70 354 196 140 107 
-19 70 353 183 123 95 
-19 70 352 120 60 32 
-18 70 352 149 98 67 
-18 70 352 205 154 123 
-17 70 352 211 159 120 
-16 69 351 215 163 124 
-16 69 351 214 158 123 
-15 69 351 205 149 114 
-15 69 350 198 144 106 
-14 69 350 199 145 107 
-14 69 351 205 146 114 
-13 69 351 203 144 112 
-12 70 352 193 134 102 
-12 70 353 182 123 91 
-11 70 353 178 168 177 
-11 70 354 229 219 228 
-21 71 355 202 139 106 
-21 71 354 197 141 106 
-20 70 353 191 135 100 
-19 70 351 188 131 102 
-19 70 351 124 67 38 
-18 70 351 130 81 51 
-18 70 350 202 153 123 
-17 70 350 210 162 126 
-16 70 350 211 163 127 
-16 70 350 216 161 130 
-15 70 350 211 156 125 
-15 70 349 198 149 109 
-14 70 349 197 148 108 
-14 70 350 203 147 114 
-13 70 350 198 142 109 
-12 70 351 188 131 101 
-12 70 352 177 120 90 
-11 70 353 179 176 185 
-11 70 353 227 224 233 
-21 71 355 197 134 99 
-21 71 353 190 136 100 
-20 71 352 189 135 99 
-19 70 350 190 133 104 
-19 70 349 132 75 46 
-18 70 349 105 58 30 
-17 70 349 192 145 117 
-17 70 349 214 169 140 
-16 70 349 213 168 139 
-16 70 349 222 168 140 
-15 70 349 220 166 138 
-15 70 348 207 159 123 
-14 70 348 204 156 120 
-13 70 349 208 155 123 
-13 70 350 198 145 113 
-12 70 350 188 132 105 
-12 70 350 175 119 92 
-11 71 352 183 187 199 
-11 71 353 227 231 243 
-22 72 355 188 125 92 
-21 72 354 195 132 99 
-20 71 352 190 138 101 
-20 71 350 197 145 108 
-19 71 349 201 146 116 
-19 71 349 154 99 69 
-18 71 349 91 47 22 
-17 71 349 182 138 113 
-17 71 349 220 179 157 
-16 71 349 221 180 158 
-16 71 349 230 180 157 
-15 70 348 226 176 153 
-15 70 348 213 167 133 
-14 70 348 212 166 132 
-13 70 348 214 165 133 
-13 71 349 202 153 121 
-12 71 349 187 133 109 
-12 71 350 181 127 103 
-11 71 352 224 236 250 
-22 72 355 180 121 89 
-21 72 353 187 128 96 
-20 72 352 188 138 103 
-20 71 349 200 150 115 
-19 71 348 205 154 127 
-19 71 348 170 119 92 
-18 71 348 80 42 19 
-17 71 348 165 127 104 
-17 71 348 224 186 167 
-16 71 348 228 190 171 
-16 71 348 236 188 166 
-15 71 348 226 178 156 
-15 71 347 214 168 134 
-14 71 347 215 169 135 
-13 71 348 216 169 139 
-13 71 348 205 158 128 
-12 71 349 184 132 110 
-12 71 349 189 137 115 
-22 73 355 179 126 94 
-21 73 353 181 128 96 
-20 72 351 195 135 101 
-20 72 349 208 148 114 
-19 72 348 213 162 133 
-18 71 347 195 144 115 
-18 71 347 84 51 36 
-17 72 348 138 105 90 
-17 71 347 225 187 174 
-16 72 348 229 191 178 
-16 72 348 237 195 179 
-15 72 348 228 186 170 
-15 71 347 212 159 141 
-14 71 347 212 159 141 
-13 72 348 223 174 144 
-13 72 348 214 165 135 
-12 72 349 180 123 103 
-12 72 349 205 148 128 
-22 73 354 177 128 98 
-21 73 352 186 137 107 
-20 73 351 192 135 106 
-20 72 349 203 146 117 
-19 72 347 209 162 134 
-18 72 347 202 155 127 
-18 72 347 107 74 59 
-17 72 347 132 99 84 
-17 72 347 221 181 169 
-16 72 347 226 186 174 
-16 72 348 231 190 172 
-15 72 348 225 184 166 
-15 72 347 216 164 143 
-14 72 347 209 157 136 
-13 72 347 213 162 133 
-13 72 348 206 155 126 
-12 72 348 185 128 109 
-12 72 349 196 139 120 
-11 73 351 219 238 244 
-10 74 355 238 251 255 
-22 74 354 180 130 105 
-21 74 352 195 145 120 
-20 73 349 193 137 112 
-20 73 348 199 143 118 
-19 72 347 206 158 135 
-18 72 347 211 163 140 
-18 72 347 139 103 89 
-17 72 347 130 94 80 
-17 72 347 212 172 162 
-16 72 347 221 181 171 
-16 73 348 225 182 163 
-15 73 348 222 179 160 
-15 73 348 222 167 146 
-14 72 347 210 155 134 
-13 73 348 206 148 124 
-13 73 348 199 141 117 
-12 73 348 186 129 112 
-12 73 349 184 127 110 
-11 73 351 219 238 244 
-22 75 354 178 128 103 
-21 74 351 192 142 117 
-20 74 350 190 134 109 
-20 73 349 196 140 115 
-19 73 348 205 155 132 
-18 73 347 217 167 144 
-18 73 347 169 128 110 
-17 73 347 144 103 85 
-17 73 347 201 161 151 
-16 73 347 212 172 162 
-16 73 348 217 170 150 
-15 73 348 213 166 146 
-15 73 348 216 160 135 
-14 73 347 208 152 127 
-13 73 348 203 141 118 
-13 73 349 192 130 107 
-12 73 349 179 123 108 
-12 73 349 168 112 97 
-11 74 350 194 211 218 
-11 74 351 220 237 244 
-22 75 354 171 119 97 
-21 75 352 177 125 103 
-20 74 350 182 126 101 
-20 74 349 191 135 110 
-19 74 348 202 150 128 
-19 74 348 212 160 138 
-18 74 347 188 142 119 
-17 74 348 164 118 95 
-17 74 348 193 155 144 
-16 74 347 195 157 146 
-16 74 348 197 149 126 
-15 74 348 194 146 123 
-15 74 348 199 143 116 
-14 74 348 196 140 113 
-13 74 348 198 133 111 
-13 74 348 189 124 102 
-12 74 349 173 117 102 
-12 74 349 152 96 81 
-11 74 350 192 206 209 
-11 74 350 226 240 243 
-22 75 353 167 115 94 
-21 75 352 166 114 93 
-20 75 351 175 121 95 
-20 75 349 186 132 106 
-19 75 349 192 141 120 
-19 74 348 197 146 125 
-18 74 347 187 139 117 
-17 74 348 165 117 95 
-17 74 348 180 144 132 
-16 74 348 178 142 130 
-16 74 348 183 133 110 
-15 74 348 183 133 110 
-15 74 348 184 129 99 
-14 74 348 182 127 97 
-13 74 348 189 124 102 
-13 74 348 184 119 97 
-12 75 349 165 112 96 
-12 75 349 144 91 75 
-11 75 349 202 205 210 
-11 75 350 236 239 244 
-22 76 355 123 113 112 
-22 76 353 162 111 92 
-21 76 352 160 109 90 
-20 75 350 170 119 92 
-20 75 349 178 127 100 
-19 75 349 179 131 111 
-19 75 349 179 131 111 
-18 75 348 183 133 110 
-17 75 348 154 104 81 
-17 75 348 149 117 106 
-16 75 348 163 131 120 
-16 75 348 183 131 109 
-15 75 348 180 128 106 
-15 75 349 175 119 92 
-14 75 348 172 116 89 
-13 75 348 178 116 95 
-13 75 348 170 108 87 
-12 75 348 161 108 92 
-12 75 348 157 104 88 
-11 75 349 196 190 194 
-11 75 349 230 224 228 
-22 77 354 121 119 122 
-22 77 353 154 103 84 
-21 76 351 156 105 86 
-20 76 350 167 116 89 
-20 76 349 174 123 96 
-19 75 348 172 124 104 
-19 75 348 171 123 103 
-18 75 348 183 131 109 
-17 75 348 147 95 73 
-17 75 348 120 90 80 
-16 75 348 154 124 114 
-16 75 348 188 136 115 
-15 75 348 179 127 106 
-15 76 349 167 113 87 
-14 75 348 165 111 85 
-13 75 348 169 108 89 
-13 76 348 157 96 77 
-12 76 348 159 106 90 
-12 76 348 175 122 106 
-11 76 349 176 163 170 
-11 76 349 210 197 204 
-22 77 354 142 137 144 
-22 77 352 139 90 73 
-21 77 351 146 97 80 
-20 76 350 159 102 82 
-20 76 349 165 108 88 
-19 76 348 162 111 92 
-19 76 348 163 112 93 
-18 76 348 167 120 100 
-17 76 348 143 96 76 
-17 76 348 99 61 50 
-16 76 348 145 107 96 
-16 76 348 188 143 124 
-15 76 348 172 127 108 
-15 76 348 171 110 89 
-14 76 348 162 101 80 
-13 76 348 165 115 90 
-13 76 348 166 116 91 
-12 76 348 191 145 130 
-12 76 348 202 156 141 
-11 76 348 188 152 128 
-11 76 349 204 168 144 
-22 77 352 135 86 69 
-21 77 350 139 90 73 
-20 77 349 154 97 77 
-20 77 349 162 105 85 
-19 77 348 158 107 88 
-18 76 347 156 105 86 
-18 76 347 160 113 93 
-17 76 347 153 106 86 
-17 77 348 94 57 41 
-16 77 348 131 94 78 
-16 77 348 181 136 117 
-15 77 348 165 120 101 
-15 77 348 158 100 78 
-14 77 348 160 102 80 
-13 77 348 181 134 108 
-13 77 348 206 159 133 
-12 77 348 215 170 151 
-12 77 348 222 177 158 
-21 78 350 142 91 72 
-20 77 349 149 92 72 
-20 77 348 155 98 78 
-19 77 348 154 103 84 
-18 77 347 156 105 86 
-18 77 347 155 108 88 
-17 77 347 160 113 93 
-17 77 347 96 53 36 
-16 77 347 97 54 37 
-16 77 348 153 108 87 
-15 77 348 161 116 95 
-15 77 348 166 112 88 
-14 77 348 189 135 111 
-13 77 348 213 166 140 
-13 77 348 228 181 155 
-12 77 348 227 180 160 
-12 77 348 228 181 161 
-21 78 350 188 137 116 
-20 78 349 193 135 113 
-19 78 348 166 115 94 
-18 78 347 163 112 91 
-18 78 347 158 110 87 
-17 78 347 164 116 93 
-17 78 347 111 66 43 
-15 78 348 186 140 117 
-15 78 348 202 150 126 
-14 78 348 224 172 148 
-18 78 347 198 148 123 
-18 78 347 190 143 115 
-17 78 347 192 145 117 
-17 78 347 178 132 106 
