ply
format ascii 1.0
comment Created by CloudCompare v2.10.1 (Zephyrus)
comment Created 2020-05-17 12:35 AM
obj_info Generated by CloudCompare!
element vertex 1006
property float x
property float y
property float z
property uchar red
property uchar green
property uchar blue
end_header
2 147 355 136 117 103 
2 148 357 135 116 101 
3 148 357 134 115 100 
2 147 354 135 116 102 
2 148 355 134 115 101 
3 148 355 134 115 101 
2 147 352 136 114 100 
2 147 353 137 115 102 
3 147 353 137 115 102 
4 147 353 136 114 101 
2 147 351 133 107 94 
2 147 351 133 110 96 
3 147 351 134 111 97 
4 147 351 133 110 96 
4 147 351 133 110 96 
1 147 349 156 118 95 
1 147 349 132 104 90 
2 147 349 131 103 89 
2 147 349 131 105 92 
3 147 350 131 105 92 
4 147 350 131 105 92 
4 147 349 131 105 92 
-3 148 350 176 125 94 
-2 147 348 180 134 101 
-2 147 348 186 140 107 
1 146 347 162 127 105 
1 146 347 136 109 92 
2 146 347 132 105 88 
2 146 347 133 105 91 
3 147 348 130 102 88 
3 146 347 131 105 92 
4 146 347 127 101 88 
5 147 348 127 101 88 
-5 149 351 149 105 80 
-3 148 349 189 140 108 
-2 147 347 197 152 119 
-2 147 347 205 160 127 
-1 147 347 211 174 147 
0 146 346 210 173 146 
0 146 346 191 160 139 
1 146 346 176 145 124 
1 146 345 140 112 98 
2 146 345 131 103 89 
2 146 346 131 103 89 
3 146 346 131 103 89 
3 146 345 129 103 90 
4 146 345 127 101 88 
5 146 346 130 104 91 
5 147 347 129 103 90 
-6 150 353 171 133 112 
-5 149 350 174 134 109 
-4 149 350 183 139 112 
-4 148 349 195 151 124 
-3 148 348 204 158 125 
-3 147 347 205 159 126 
-2 147 347 208 163 132 
-2 147 347 216 171 140 
-1 147 346 214 177 151 
0 147 345 215 178 152 
0 147 345 197 169 148 
1 147 345 184 156 135 
1 147 345 158 130 116 
2 146 344 135 107 93 
2 146 344 130 102 88 
3 147 345 133 105 91 
3 146 344 131 103 91 
4 146 344 128 100 88 
5 147 345 131 105 92 
5 147 345 130 104 91 
-8 156 366 166 128 107 
-7 154 360 181 143 122 
-6 150 352 194 157 138 
-5 149 350 195 157 136 
-5 149 350 191 153 132 
-4 149 349 196 152 127 
-4 148 347 199 155 130 
-3 148 347 202 153 121 
-3 148 346 202 153 121 
-2 148 346 201 154 124 
-2 147 345 210 163 133 
-1 147 344 204 167 141 
0 147 344 215 178 152 
0 147 344 207 179 158 
1 147 344 194 166 145 
1 146 343 175 147 133 
2 146 343 142 114 100 
2 146 343 130 102 88 
3 146 343 132 104 90 
3 146 343 132 104 90 
4 146 343 129 101 87 
5 146 343 131 105 90 
5 147 344 131 105 90 
6 147 345 131 105 92 
-7 155 361 184 147 128 
-7 152 355 187 152 133 
-6 150 351 195 160 141 
-5 149 349 191 155 133 
-5 149 348 183 147 125 
-4 149 348 184 142 117 
-4 148 346 182 140 115 
-3 148 346 189 143 110 
-3 148 345 188 142 109 
-2 148 345 194 148 115 
-2 147 344 203 157 124 
-1 147 343 194 157 130 
0 147 343 211 174 147 
0 147 343 217 186 165 
1 147 343 206 175 154 
1 146 342 189 162 145 
2 146 342 160 133 116 
2 146 342 141 114 97 
3 146 342 132 105 88 
3 146 341 131 104 87 
4 146 341 131 104 87 
5 146 342 133 107 92 
5 147 343 131 105 90 
6 147 343 131 105 90 
6 148 345 132 106 91 
-7 156 364 186 153 134 
-7 153 355 191 158 139 
-6 150 350 197 164 145 
-5 150 349 191 156 134 
-5 149 347 183 148 126 
-4 149 346 184 143 115 
-4 148 345 184 143 115 
-3 148 345 188 142 108 
-3 148 344 186 140 106 
-2 147 343 192 147 114 
-2 147 343 196 151 118 
-1 147 343 187 148 119 
0 147 343 201 162 133 
0 147 343 211 179 154 
1 147 342 207 175 150 
1 147 341 194 167 148 
2 147 341 180 153 134 
2 147 341 159 132 113 
3 147 341 136 109 90 
3 146 341 130 103 86 
4 146 341 132 105 88 
5 146 341 133 107 90 
5 147 342 130 104 87 
6 147 342 133 107 92 
6 147 343 133 107 92 
7 148 345 133 107 92 
-7 152 353 198 167 149 
-6 151 350 203 172 154 
-5 150 348 199 163 141 
-5 149 346 190 154 132 
-4 149 345 188 147 117 
-4 148 344 189 148 118 
-3 148 344 189 143 109 
-3 148 343 185 139 105 
-2 148 343 192 146 112 
-2 147 342 195 149 115 
-1 147 342 189 148 116 
0 147 342 195 154 122 
0 147 341 204 169 139 
1 147 341 208 173 143 
1 147 340 201 172 154 
2 147 340 196 167 149 
2 147 340 184 156 135 
3 147 340 163 135 114 
3 146 339 153 126 107 
4 147 340 146 119 100 
4 147 340 144 117 100 
5 147 341 144 117 100 
6 147 341 145 117 103 
6 147 342 145 117 103 
7 148 343 143 117 102 
7 149 345 142 116 101 
-7 152 352 201 168 151 
-6 151 348 204 171 154 
-5 150 347 202 164 143 
-5 149 345 193 155 134 
-4 149 344 189 145 116 
-4 148 343 190 146 117 
-3 148 343 191 143 107 
-3 148 342 186 138 102 
-2 148 342 195 147 111 
-2 148 342 201 153 117 
-1 148 341 203 160 126 
0 148 341 200 157 123 
0 147 340 203 164 133 
1 147 340 211 172 141 
1 147 340 201 170 150 
2 147 339 197 166 146 
2 147 339 192 164 143 
3 147 339 183 155 134 
3 147 339 173 144 126 
4 147 339 152 123 105 
4 147 339 142 113 97 
5 147 340 146 117 101 
6 148 341 143 115 101 
6 148 341 143 115 101 
7 148 343 142 116 101 
7 149 344 142 116 101 
8 150 346 142 116 101 
-7 153 352 202 173 155 
-6 151 347 194 165 147 
-5 150 345 194 159 131 
-5 150 345 190 155 127 
-4 149 343 184 140 101 
-4 149 342 185 141 102 
-3 149 342 193 144 103 
-3 148 341 195 146 105 
-2 148 341 199 150 110 
-2 148 341 205 156 116 
-1 148 340 207 158 125 
0 148 340 206 157 124 
0 147 339 207 160 130 
1 147 339 211 164 134 
1 147 339 204 165 134 
2 147 338 208 169 138 
2 147 338 204 169 141 
3 147 338 197 162 134 
3 147 338 191 159 138 
4 147 338 173 141 120 
4 147 338 149 123 106 
5 147 339 137 111 94 
6 147 339 136 113 99 
6 148 340 139 116 102 
7 148 341 138 115 99 
7 149 343 136 113 97 
8 149 344 140 114 99 
-7 153 351 196 165 145 
-6 151 346 188 157 137 
-5 150 344 191 152 123 
-5 150 343 191 152 123 
-4 149 342 187 139 101 
-4 149 342 186 138 100 
-3 149 341 195 144 101 
-3 149 341 196 145 102 
-2 148 340 200 148 109 
-2 148 340 207 155 116 
-1 148 339 206 156 121 
0 148 339 203 153 118 
0 148 339 206 156 123 
1 147 338 210 160 127 
1 147 337 203 162 130 
2 147 337 211 170 138 
2 147 337 211 174 145 
3 147 337 204 167 138 
3 147 337 200 166 141 
4 147 337 191 157 132 
4 147 337 171 144 125 
5 147 338 159 132 113 
6 148 339 137 111 96 
6 148 339 138 112 97 
7 148 340 140 114 99 
7 149 341 140 114 99 
8 150 343 139 113 98 
-7 152 348 190 153 134 
-6 151 345 186 149 130 
-5 150 343 191 147 120 
-5 150 342 192 148 121 
-4 149 341 191 139 102 
-4 149 340 187 135 98 
-3 149 341 195 140 99 
-3 149 340 193 138 97 
-2 148 339 196 141 102 
-2 148 339 205 150 111 
-1 148 338 204 150 112 
0 148 338 200 146 108 
0 148 338 202 150 113 
1 147 337 207 155 118 
1 147 336 198 155 120 
2 147 336 206 163 128 
2 147 336 207 167 132 
3 147 336 202 162 127 
3 147 336 198 163 133 
4 147 336 194 159 129 
4 147 336 186 156 132 
5 147 337 179 149 125 
6 148 338 146 119 100 
6 148 338 136 109 90 
7 148 339 136 110 95 
7 149 340 139 113 98 
8 149 341 136 110 97 
8 150 343 136 110 97 
-7 152 346 184 143 123 
-6 151 344 187 146 126 
-5 150 342 192 145 115 
-5 150 341 191 144 114 
-4 149 340 190 136 98 
-4 149 340 187 133 95 
-3 149 339 192 135 92 
-3 149 339 190 133 90 
-2 148 338 193 136 93 
-2 148 338 203 146 103 
-1 148 338 205 150 109 
0 148 337 201 146 105 
0 148 336 201 148 108 
1 148 336 208 155 115 
1 147 335 198 154 117 
2 147 335 201 157 120 
2 148 336 204 162 124 
3 148 336 202 160 122 
3 148 336 200 161 128 
4 148 336 195 156 123 
4 148 336 191 157 130 
5 148 336 194 160 133 
6 148 337 168 137 117 
6 148 337 148 117 97 
7 148 338 139 111 97 
7 149 339 141 113 99 
8 149 340 137 114 100 
8 150 341 137 114 100 
-7 152 345 181 137 112 
-6 151 343 188 144 119 
-5 150 341 192 141 110 
-5 150 340 187 136 105 
-4 150 340 187 131 94 
-4 149 339 189 133 96 
-3 149 338 192 133 91 
-3 149 338 192 133 91 
-2 148 337 194 135 91 
-1 148 337 206 147 103 
-1 148 337 212 155 110 
0 148 336 207 150 105 
0 148 335 202 149 105 
1 148 335 209 156 112 
1 148 335 199 154 115 
2 147 334 203 158 119 
2 147 334 206 162 123 
3 147 334 205 161 122 
3 147 334 204 164 128 
4 148 335 198 158 122 
4 148 335 195 159 127 
5 148 335 199 163 131 
6 148 335 182 150 127 
6 148 336 159 127 104 
7 148 336 146 119 102 
7 148 337 146 119 102 
8 149 339 140 118 105 
8 150 340 141 119 106 
-6 152 344 181 134 106 
-6 151 342 187 140 112 
-5 150 340 188 133 102 
-5 150 340 183 128 97 
-4 150 339 184 126 88 
-4 149 338 190 132 94 
-3 149 338 194 132 91 
-3 149 337 196 134 93 
-2 149 337 196 138 92 
-1 149 336 206 148 102 
-1 149 336 213 157 110 
0 148 335 207 151 104 
0 148 335 201 149 101 
1 148 334 208 156 108 
1 148 334 199 151 111 
2 147 333 206 158 118 
2 147 333 208 163 122 
3 147 333 203 158 117 
3 147 333 205 161 124 
4 148 334 204 160 123 
4 148 334 201 160 128 
5 148 334 201 160 128 
5 148 334 193 157 131 
6 148 335 179 143 117 
7 149 336 166 137 119 
7 149 336 166 137 119 
8 149 338 157 135 121 
8 150 339 156 134 120 
9 151 341 156 136 125 
-7 156 351 172 126 100 
-6 152 343 183 132 103 
-6 151 341 184 133 104 
-5 151 340 182 126 93 
-5 150 339 183 127 94 
-4 150 338 185 125 88 
-4 150 338 190 130 93 
-3 150 337 192 131 87 
-3 150 337 194 133 89 
-2 149 336 193 135 87 
-1 149 335 203 145 97 
-1 149 335 209 156 104 
0 148 334 204 151 99 
0 148 334 199 149 98 
1 148 334 205 155 104 
1 148 333 202 153 110 
2 148 333 208 159 116 
2 148 333 211 163 123 
3 147 332 207 159 119 
3 148 333 208 163 124 
4 148 333 208 163 124 
4 148 334 208 164 129 
5 148 334 207 163 128 
5 148 334 194 157 128 
6 148 334 185 148 119 
7 149 335 177 146 125 
7 149 336 175 144 123 
8 149 336 166 143 127 
8 150 338 165 142 126 
9 150 339 163 143 132 
-7 155 348 175 128 100 
-6 152 342 185 132 101 
-6 151 340 180 127 96 
-5 151 339 179 120 86 
-5 150 338 187 128 94 
-4 150 337 191 129 92 
-4 150 337 192 130 93 
-3 150 336 190 129 85 
-3 150 336 192 131 87 
-2 149 335 193 132 85 
-1 149 335 204 143 96 
-1 149 335 209 156 104 
0 149 334 206 153 101 
0 149 334 201 151 98 
1 148 333 205 155 102 
1 148 333 203 154 111 
2 148 333 205 156 113 
2 148 333 210 163 121 
3 148 332 212 165 123 
3 148 332 214 166 128 
4 148 333 210 162 124 
4 148 333 208 162 126 
5 148 333 209 163 127 
5 148 333 197 158 125 
6 149 334 188 149 116 
7 149 334 175 145 119 
7 149 335 171 141 115 
8 150 336 165 142 126 
8 150 337 167 144 128 
9 150 338 163 144 130 
-7 155 346 177 128 96 
-6 152 341 186 133 101 
-6 151 339 181 128 96 
-5 151 338 180 124 87 
-5 151 337 185 129 92 
-4 151 337 188 131 88 
-4 151 337 187 130 87 
-3 150 335 189 130 86 
-3 150 335 193 134 90 
-2 150 335 196 138 92 
-1 149 334 202 144 98 
-1 149 334 213 157 110 
0 149 333 214 158 111 
0 149 333 209 155 108 
1 148 332 212 158 111 
1 148 332 204 156 116 
2 148 332 205 157 117 
2 148 332 211 166 124 
3 148 332 212 167 125 
3 148 332 211 167 120 
4 148 332 211 167 120 
4 148 332 202 167 125 
5 149 333 202 167 125 
5 149 333 205 160 121 
6 149 333 191 146 107 
7 149 334 187 143 114 
7 149 334 183 139 110 
8 150 335 158 139 132 
8 150 336 159 140 133 
9 151 338 163 144 130 
9 152 340 161 142 128 
-7 154 344 178 129 97 
-6 153 341 185 132 98 
-6 152 338 181 128 94 
-5 151 337 181 126 87 
-5 151 337 184 129 90 
-4 151 336 187 130 87 
-4 151 336 186 129 86 
-3 150 335 189 131 85 
-3 150 335 193 135 89 
-2 150 335 197 139 93 
-1 150 334 204 146 100 
-1 149 333 215 157 111 
0 149 333 218 160 114 
0 149 332 212 158 111 
1 149 332 215 161 114 
1 148 331 209 160 119 
2 148 331 208 159 118 
2 148 331 212 165 123 
3 148 331 214 167 125 
3 148 331 210 166 119 
4 148 331 213 169 122 
4 148 331 208 171 129 
5 149 332 209 172 130 
5 149 332 205 160 119 
6 149 333 192 147 106 
7 149 333 185 140 109 
7 150 334 179 134 103 
8 150 334 163 141 130 
8 151 336 165 143 132 
9 151 337 161 142 128 
9 152 339 159 140 126 
-7 155 344 179 129 96 
-6 153 341 185 131 95 
-6 152 338 183 129 93 
-5 152 337 184 126 88 
-5 152 337 186 128 90 
-4 151 336 189 130 88 
-4 151 335 188 129 87 
-3 150 334 189 131 85 
-3 150 334 193 135 89 
-2 150 334 200 142 94 
-1 150 333 206 148 100 
-1 150 333 216 160 113 
0 150 333 221 165 118 
0 149 332 213 159 112 
1 149 332 215 161 114 
1 149 331 212 161 118 
2 149 331 209 158 115 
2 149 331 211 164 120 
3 149 331 213 166 122 
3 149 331 210 166 121 
4 149 331 213 169 124 
4 149 331 211 172 131 
5 149 331 212 173 132 
5 149 332 208 161 119 
6 149 332 192 145 103 
7 150 333 188 139 106 
7 150 334 185 136 103 
8 150 334 170 142 128 
8 151 335 169 141 127 
9 151 336 160 140 129 
9 152 338 156 136 125 
-7 155 344 178 128 95 
-6 154 340 182 128 92 
-6 153 338 183 129 93 
-5 152 337 183 128 89 
-5 152 336 185 130 91 
-4 151 335 192 133 91 
-4 151 335 191 132 90 
-3 151 334 190 132 86 
-3 151 334 194 136 90 
-2 151 334 201 143 97 
-1 150 333 206 148 102 
-1 150 333 214 158 111 
0 150 332 221 165 118 
0 149 331 213 159 112 
1 149 331 215 161 114 
1 149 331 210 159 114 
2 149 331 208 157 112 
2 149 331 212 164 118 
3 149 331 214 166 120 
3 149 331 211 166 124 
4 149 331 213 168 126 
4 149 331 213 171 129 
5 149 331 215 173 131 
5 149 331 207 160 118 
6 150 332 188 141 99 
7 150 333 183 135 97 
7 150 333 188 140 102 
8 151 334 169 136 117 
8 151 335 154 121 102 
9 152 336 149 130 123 
9 152 337 147 128 121 
-7 156 344 174 124 91 
-6 154 340 178 126 89 
-6 153 337 181 129 92 
-5 152 336 183 128 89 
-5 152 335 186 131 92 
-4 152 335 195 136 94 
-4 151 334 191 132 90 
-3 151 334 192 134 88 
-3 151 333 195 137 91 
-2 151 333 200 144 97 
-1 151 333 204 148 101 
-1 150 332 208 154 107 
0 150 331 219 165 118 
0 150 331 214 160 114 
1 150 331 216 162 116 
1 150 331 213 161 114 
2 150 330 210 158 111 
2 150 330 215 164 119 
3 150 330 218 167 122 
3 150 330 213 168 126 
4 150 330 214 169 127 
4 150 330 215 170 129 
5 150 330 217 172 131 
5 150 331 209 162 120 
6 150 331 195 148 106 
7 150 332 185 137 99 
7 151 333 191 143 105 
8 151 333 166 128 105 
8 151 334 118 80 57 
9 152 335 96 78 74 
9 153 337 94 76 72 
-7 156 344 172 122 89 
-6 155 340 177 124 90 
-6 153 337 181 128 94 
-5 153 336 184 129 90 
-5 152 335 187 132 93 
-4 152 335 192 135 92 
-4 152 334 188 131 88 
-3 151 333 190 132 86 
-3 151 333 195 137 91 
-2 151 332 198 142 95 
-1 151 332 204 148 101 
-1 151 332 207 153 106 
0 150 331 220 166 119 
0 150 330 216 162 115 
1 150 331 217 163 116 
1 150 331 213 162 115 
2 150 330 209 158 111 
2 150 330 214 164 115 
3 150 330 219 169 120 
3 150 330 215 170 128 
4 150 330 215 170 128 
4 150 330 212 167 125 
5 150 330 213 168 126 
5 150 330 209 164 123 
6 150 331 205 160 119 
7 151 332 191 146 105 
7 151 332 195 150 109 
8 151 333 180 141 112 
8 151 333 116 77 48 
9 152 335 78 62 62 
9 153 336 80 64 64 
-7 157 344 170 120 87 
-6 155 340 178 125 91 
-6 154 337 183 130 96 
-5 153 336 184 129 90 
-5 153 335 186 131 92 
-4 152 334 190 131 89 
-4 152 334 185 126 84 
-3 152 333 189 128 83 
-3 152 333 195 134 89 
-2 151 332 196 138 90 
-1 151 332 203 145 97 
-1 151 331 207 151 102 
0 151 331 222 166 117 
0 151 330 220 164 117 
1 151 330 218 162 115 
1 151 330 213 163 114 
2 151 330 208 158 109 
2 150 329 213 161 111 
3 151 330 219 167 117 
3 151 330 217 170 126 
4 151 330 217 170 126 
4 151 330 214 167 123 
5 151 330 214 167 123 
5 151 330 212 170 128 
6 151 330 205 163 121 
6 151 331 196 154 112 
7 151 332 194 152 110 
8 151 332 184 143 111 
8 152 333 129 88 56 
9 152 334 84 70 70 
9 153 336 80 66 66 
10 154 338 79 70 73 
-7 158 345 170 120 87 
-6 156 341 181 129 92 
-6 154 337 185 133 96 
-5 153 335 185 130 91 
-5 153 334 185 130 91 
-4 152 333 187 128 84 
-4 152 333 184 125 81 
-3 152 333 187 126 79 
-3 152 332 193 132 85 
-2 152 332 192 134 86 
-1 152 331 201 143 95 
-1 152 331 205 149 100 
0 151 330 221 165 116 
0 151 330 220 164 115 
1 151 329 218 162 113 
1 151 329 213 166 114 
2 151 329 206 159 107 
2 151 329 214 163 110 
3 151 329 219 168 115 
3 151 329 217 170 126 
4 151 329 218 171 127 
4 151 329 218 171 125 
5 151 329 219 172 126 
5 151 330 216 177 134 
6 151 330 199 160 117 
6 151 330 199 160 117 
7 152 331 196 157 114 
8 152 332 194 154 118 
8 152 333 168 128 92 
9 153 334 136 124 124 
9 153 335 129 117 117 
10 155 338 129 117 117 
10 156 340 131 119 119 
-6 157 341 181 129 90 
-6 155 337 187 135 96 
-5 154 335 186 128 88 
-5 153 334 185 127 87 
-4 153 333 190 129 85 
-4 152 332 186 125 81 
-3 152 332 187 125 78 
-3 152 331 192 130 83 
-2 152 331 192 134 88 
-1 152 331 198 140 94 
-1 152 330 201 147 100 
0 152 330 218 164 117 
0 151 329 221 171 122 
1 151 329 216 166 117 
1 151 329 211 163 117 
2 151 329 207 159 113 
2 151 329 206 159 107 
3 151 329 214 167 115 
3 151 329 218 175 124 
4 151 329 217 174 123 
4 151 329 217 174 131 
5 151 329 218 175 132 
5 151 329 218 175 133 
6 152 330 206 163 121 
6 152 330 199 157 115 
7 152 331 200 158 116 
8 152 332 187 152 122 
8 152 332 172 137 107 
9 153 334 165 138 121 
9 154 335 164 137 120 
10 155 337 163 141 127 
10 156 340 166 144 130 
-6 158 342 177 127 90 
-6 156 338 181 131 94 
-5 155 336 184 126 86 
-5 154 334 183 125 85 
-4 153 333 187 126 82 
-4 153 332 185 124 80 
-3 153 332 184 122 75 
-3 153 331 189 127 80 
-2 153 331 193 135 89 
-1 152 330 198 140 94 
-1 152 330 200 146 99 
0 152 330 216 162 115 
0 152 329 223 173 124 
1 152 329 219 169 120 
1 152 329 212 163 120 
2 151 328 208 159 116 
2 151 328 206 160 110 
3 151 328 214 168 118 
3 151 328 218 174 125 
4 151 328 217 173 124 
4 151 328 215 172 129 
5 151 328 216 173 130 
5 152 329 216 173 131 
6 152 329 207 164 122 
6 152 329 201 159 119 
7 152 330 197 155 115 
8 153 331 185 150 120 
8 153 332 171 136 106 
9 153 333 164 137 120 
9 154 334 163 136 119 
10 155 337 161 139 125 
10 156 339 164 142 128 
-6 159 344 176 126 89 
-6 157 339 178 128 91 
-5 155 336 184 126 88 
-5 154 334 183 125 87 
-4 154 333 186 125 81 
-4 154 332 187 126 82 
-3 154 332 182 119 75 
-3 153 331 184 121 77 
-2 153 331 195 134 89 
-1 153 330 201 140 95 
-1 152 329 204 148 101 
0 152 329 216 160 113 
0 152 329 224 172 124 
1 152 328 221 169 121 
1 152 328 214 167 125 
2 152 328 212 165 123 
2 151 327 209 165 116 
3 151 327 214 170 121 
3 151 327 219 177 129 
4 152 328 219 177 129 
4 152 328 216 174 132 
5 152 328 216 174 132 
5 152 328 218 174 135 
6 152 329 213 169 130 
6 152 329 205 163 123 
7 153 330 199 157 117 
8 153 331 185 150 120 
8 154 332 173 138 108 
9 154 333 166 137 121 
9 154 334 165 136 120 
10 156 337 161 139 125 
10 157 339 162 140 126 
-6 158 340 177 127 90 
-5 156 336 185 127 89 
-5 155 334 183 125 87 
-4 154 333 184 123 79 
-4 154 332 186 125 81 
-3 154 331 181 118 74 
-3 154 331 182 119 75 
-2 153 330 192 131 84 
-1 153 330 199 138 91 
-1 153 329 206 150 103 
0 153 329 215 159 112 
0 152 328 224 170 123 
1 152 328 222 168 121 
1 152 328 214 169 128 
2 152 327 213 168 127 
2 152 327 211 168 123 
3 152 327 216 173 128 
3 152 327 221 180 134 
4 152 327 221 180 134 
4 152 328 219 177 135 
5 152 328 219 177 135 
5 152 328 221 177 138 
6 152 328 216 172 133 
6 153 329 206 167 126 
7 153 330 199 160 119 
8 154 331 187 152 122 
8 154 331 173 138 108 
9 154 333 166 137 121 
9 155 335 166 137 121 
10 156 337 164 141 127 
10 157 339 163 140 126 
-6 160 344 177 125 88 
-5 157 338 183 125 87 
-5 156 335 181 123 85 
-4 155 333 181 118 77 
-4 155 332 183 120 79 
-3 154 331 182 118 74 
-3 154 331 182 118 74 
-2 154 330 188 127 80 
-1 154 330 194 133 86 
-1 153 329 206 150 103 
0 153 328 215 159 112 
0 153 328 223 169 122 
1 153 328 224 170 123 
1 153 328 214 169 128 
2 152 327 215 170 129 
2 152 327 210 169 125 
3 152 327 214 173 129 
3 152 327 218 180 135 
4 152 327 219 181 136 
4 152 327 220 178 138 
5 152 327 220 178 138 
5 153 328 224 180 141 
6 153 328 216 172 133 
6 153 329 205 166 127 
7 153 329 200 161 122 
8 154 330 187 153 125 
8 154 331 173 139 111 
9 155 333 166 137 121 
9 155 334 165 136 120 
10 157 337 169 142 131 
-5 159 341 182 124 86 
-5 157 336 178 120 82 
-4 156 334 179 116 75 
-4 155 332 180 117 76 
-3 155 331 180 116 72 
-3 155 331 181 117 73 
-2 154 330 185 122 78 
-1 154 330 194 131 87 
-1 154 329 204 148 101 
0 153 328 214 158 111 
0 153 328 221 167 121 
1 153 327 226 172 126 
1 153 327 217 169 129 
2 153 327 218 170 130 
2 153 327 211 170 126 
3 153 327 214 173 129 
3 153 327 219 180 137 
4 153 327 220 181 138 
4 153 327 220 178 138 
5 153 327 221 179 139 
5 153 328 225 183 145 
6 153 328 217 175 137 
6 153 328 205 167 130 
7 154 329 199 161 124 
8 154 330 187 156 128 
8 155 331 173 142 114 
9 156 333 167 139 125 
9 156 335 167 139 125 
-5 159 339 177 118 78 
-4 157 335 178 115 74 
-4 156 333 178 115 74 
-3 155 331 178 113 71 
-3 155 331 179 114 72 
-2 155 330 183 120 76 
-1 155 330 194 131 87 
-1 154 329 202 146 99 
0 154 328 214 158 111 
0 154 328 221 167 121 
1 153 327 227 173 127 
1 153 327 217 170 128 
2 153 326 218 171 129 
2 153 326 211 170 126 
3 153 326 214 173 129 
3 153 326 221 182 139 
4 153 326 221 182 139 
4 153 327 221 179 139 
5 153 327 221 179 139 
5 153 327 224 182 144 
6 154 328 222 180 142 
6 154 328 208 172 138 
7 154 329 197 161 127 
8 155 331 184 154 130 
8 156 332 172 142 118 
9 157 334 169 141 129 
9 157 336 170 142 130 
-5 166 354 174 115 75 
-4 158 337 177 114 73 
-4 157 334 176 113 72 
-3 156 332 178 113 71 
-3 156 331 178 113 71 
-2 155 330 181 118 74 
-1 155 330 195 132 88 
-1 155 329 199 143 96 
0 154 328 213 157 110 
0 154 328 220 167 123 
1 154 327 226 173 129 
1 154 327 215 166 125 
2 153 326 217 168 127 
2 153 326 210 167 124 
3 153 326 214 171 128 
3 153 326 220 181 138 
4 153 326 220 181 138 
4 153 326 219 177 137 
5 154 327 219 177 137 
5 154 327 222 180 142 
6 154 328 225 183 145 
6 155 329 210 176 141 
7 155 330 193 159 124 
8 156 331 177 149 127 
8 156 332 167 139 117 
9 157 334 167 140 129 
9 158 337 169 142 131 
-4 158 335 179 112 70 
-3 157 333 181 113 68 
-3 157 332 181 113 68 
-2 156 331 179 115 69 
-1 156 330 194 130 84 
-1 155 329 200 146 100 
0 155 328 211 157 111 
0 155 328 216 169 127 
1 154 327 222 175 133 
1 154 326 208 171 126 
2 154 326 207 170 125 
2 154 326 208 170 125 
3 154 326 209 171 126 
3 153 325 218 176 134 
4 154 326 223 181 139 
4 154 326 219 180 141 
5 154 326 217 178 139 
5 154 327 215 179 145 
6 155 328 221 185 151 
6 155 329 210 174 148 
7 156 330 198 162 136 
8 157 332 178 146 125 
8 158 334 172 140 119 
-3 159 336 184 117 74 
-3 158 334 181 114 71 
-2 158 333 177 115 68 
-1 157 331 190 128 81 
-1 156 330 196 142 96 
0 156 329 209 155 109 
0 155 328 214 167 123 
1 155 327 222 175 131 
1 154 326 211 170 126 
2 154 326 210 169 125 
2 154 326 211 168 125 
3 154 326 213 170 127 
3 154 325 218 175 133 
4 154 326 222 179 137 
4 154 326 217 178 139 
5 154 326 216 177 138 
5 155 327 211 175 143 
6 155 328 215 179 147 
6 156 330 208 174 147 
7 157 331 188 154 127 
8 158 333 168 137 116 
-3 164 346 181 116 74 
-2 159 335 176 115 70 
-1 159 335 185 124 79 
-1 158 333 191 137 91 
0 157 331 205 151 105 
0 156 329 211 162 119 
1 156 328 223 174 131 
1 155 327 215 172 130 
2 155 327 212 169 127 
2 155 326 214 169 128 
3 155 326 216 171 130 
3 155 326 218 174 135 
4 155 326 221 177 138 
4 155 327 218 175 140 
5 155 327 215 172 137 
5 156 328 210 174 142 
6 156 329 212 176 144 
6 157 330 203 171 146 
7 158 332 166 134 109 
-2 162 340 183 122 78 
-1 161 337 188 131 86 
0 159 334 202 145 100 
0 158 332 210 157 113 
1 157 330 226 173 129 
1 157 329 216 172 133 
2 156 328 212 168 129 
2 156 328 213 169 130 
3 156 328 215 171 132 
3 156 327 217 173 136 
4 156 328 221 177 140 
4 157 329 215 175 140 
5 157 329 210 170 135 
5 157 330 206 169 140 
6 158 331 209 172 143 
7 158 332 192 160 137 
7 159 334 147 115 92 
1 159 333 226 172 126 
1 158 331 215 174 130 
2 158 330 212 171 127 
2 158 330 213 171 129 
3 158 330 215 173 131 
3 158 330 217 175 135 
4 158 330 220 178 138 
4 158 331 217 174 140 
5 158 331 211 168 134 
5 159 332 207 168 139 
6 159 333 206 167 138 
3 159 332 219 176 133 
