ply
format ascii 1.0
comment Created by CloudCompare v2.10.1 (Zephyrus)
comment Created 2020-05-17 12:34 AM
obj_info Generated by CloudCompare!
element vertex 416
property float x
property float y
property float z
property uchar red
property uchar green
property uchar blue
end_header
-26 -62 392 179 157 146 
-25 -62 392 193 162 141 
-25 -62 392 192 161 140 
-24 -62 391 201 157 132 
-23 -62 390 199 155 130 
-23 -62 390 199 151 131 
-27 -62 392 196 176 169 
-27 -61 391 204 175 159 
-26 -61 390 213 184 168 
-25 -61 390 217 183 158 
-25 -61 389 218 184 159 
-24 -61 389 220 178 154 
-23 -61 389 222 180 156 
-23 -61 389 226 177 160 
-22 -61 388 223 174 157 
-21 -61 388 207 168 153 
-21 -61 388 198 159 144 
-20 -61 388 179 155 143 
-20 -61 389 167 143 131 
-29 -61 393 201 178 164 
-28 -61 391 214 181 164 
-27 -61 390 214 181 164 
-26 -61 389 222 186 164 
-26 -61 389 226 190 168 
-25 -61 389 222 186 164 
-25 -60 388 223 187 165 
-24 -60 388 223 182 162 
-23 -60 388 227 186 166 
-23 -60 388 234 185 170 
-22 -60 387 232 183 168 
-21 -60 387 228 179 164 
-21 -60 387 227 178 163 
-20 -60 388 217 176 158 
-20 -61 389 205 164 146 
-29 -61 393 216 185 167 
-29 -60 392 217 186 168 
-28 -60 391 219 182 164 
-27 -60 390 209 172 154 
-27 -60 390 209 172 154 
-26 -60 389 207 170 152 
-25 -60 389 215 180 161 
-25 -60 388 222 187 168 
-24 -60 388 225 186 169 
-23 -60 388 230 191 174 
-23 -60 387 237 190 174 
-22 -60 387 235 188 172 
-21 -59 386 235 186 169 
-21 -60 387 236 187 170 
-20 -60 387 233 188 169 
-19 -60 387 226 181 162 
-19 -60 388 202 173 167 
-18 -60 389 182 153 147 
-18 -60 390 145 131 130 
-30 -60 394 215 186 178 
-29 -60 392 216 185 167 
-29 -60 391 210 179 161 
-28 -59 390 186 152 142 
-27 -59 390 179 145 135 
-26 -59 389 175 142 133 
-26 -59 389 180 147 138 
-25 -59 389 193 161 148 
-25 -59 388 213 181 168 
-24 -59 387 227 190 171 
-23 -59 387 233 196 177 
-23 -59 387 241 194 174 
-22 -59 386 239 192 172 
-21 -59 386 238 191 171 
-21 -59 386 236 189 169 
-20 -59 387 228 187 167 
-19 -59 387 224 183 163 
-19 -59 388 220 184 172 
-18 -59 388 206 170 158 
-18 -59 389 171 152 146 
-17 -59 390 177 158 152 
-31 -59 392 215 183 170 
-30 -59 392 218 186 173 
-29 -59 392 212 180 165 
-28 -59 390 194 162 147 
-28 -59 389 157 127 119 
-27 -59 389 158 128 120 
-26 -59 389 143 114 110 
-26 -59 389 163 134 130 
-25 -59 389 175 145 134 
-25 -58 388 199 169 158 
-24 -58 387 231 193 172 
-23 -58 387 238 200 179 
-23 -58 387 246 200 174 
-22 -58 386 246 200 174 
-21 -58 386 247 201 178 
-21 -58 386 243 197 174 
-20 -58 386 230 192 173 
-19 -58 387 226 188 169 
-19 -58 387 221 182 165 
-18 -58 388 216 177 160 
-18 -59 389 196 169 160 
-17 -59 389 195 168 159 
-31 -58 392 217 185 172 
-31 -58 392 216 185 167 
-30 -58 391 221 190 172 
-29 -58 390 196 168 147 
-28 -58 390 169 141 120 
-28 -58 389 152 124 113 
-27 -58 389 139 111 100 
-26 -58 389 117 89 85 
-26 -58 389 140 112 108 
-25 -58 389 168 140 129 
-25 -58 388 200 172 161 
-24 -58 387 230 194 172 
-23 -58 387 240 204 182 
-23 -58 387 249 203 177 
-22 -58 387 248 202 176 
-21 -58 386 250 202 180 
-21 -58 386 248 200 178 
-20 -58 386 237 194 175 
-19 -58 387 230 187 168 
-19 -58 387 222 184 165 
-18 -58 387 219 181 162 
-18 -58 388 207 175 164 
-17 -58 389 204 172 161 
-31 -58 392 215 183 168 
-30 -58 391 216 189 168 
-30 -58 391 221 194 173 
-29 -58 390 184 158 135 
-28 -58 390 170 144 121 
-28 -57 389 162 134 122 
-27 -57 389 122 94 82 
-26 -57 389 133 105 101 
-26 -58 390 137 109 105 
-25 -58 390 155 127 116 
-25 -57 389 201 173 162 
-24 -57 388 226 191 171 
-23 -57 387 239 204 184 
-23 -57 387 251 206 183 
-22 -57 387 248 203 180 
-21 -57 386 251 203 181 
-21 -57 386 251 203 181 
-20 -57 386 243 194 177 
-19 -57 387 233 184 167 
-19 -57 387 226 188 167 
-18 -57 387 220 182 161 
-18 -57 387 212 176 164 
-17 -57 388 209 173 161 
-31 -57 392 217 179 166 
-30 -57 391 224 184 172 
-30 -57 390 231 191 179 
-29 -57 390 178 146 133 
-28 -57 390 172 140 127 
-28 -57 390 171 144 135 
-27 -57 390 163 136 127 
-27 -57 390 170 145 138 
-26 -57 391 149 124 117 
-25 -57 391 162 130 117 
-25 -57 390 201 169 156 
-24 -57 388 232 190 168 
-23 -56 387 244 202 180 
-23 -56 387 250 202 179 
-22 -56 386 248 200 177 
-21 -56 386 246 200 177 
-21 -56 386 247 201 178 
-20 -56 386 242 200 178 
-19 -56 387 230 188 166 
-19 -56 387 228 182 166 
-18 -56 387 226 180 164 
-18 -57 388 218 175 166 
-17 -57 388 213 170 161 
-16 -57 390 203 168 164 
-32 -56 391 211 169 153 
-31 -57 392 217 178 163 
-30 -56 391 222 183 168 
-30 -56 390 230 191 176 
-29 -56 389 189 155 143 
-28 -56 389 160 126 114 
-28 -56 389 178 150 139 
-27 -56 390 172 144 133 
-27 -56 390 167 138 130 
-26 -56 390 171 142 134 
-25 -56 390 184 148 136 
-25 -56 389 211 175 163 
-24 -56 388 237 194 175 
-23 -56 387 242 199 180 
-23 -56 386 247 199 177 
-22 -56 386 247 199 177 
-21 -56 385 246 200 177 
-21 -56 385 247 201 178 
-20 -56 386 245 200 179 
-19 -56 386 235 190 169 
-19 -56 387 232 185 167 
-18 -56 387 228 181 163 
-18 -56 387 219 175 164 
-17 -56 388 209 165 154 
-16 -56 389 211 174 168 
-16 -56 390 207 170 164 
-15 -56 391 163 165 178 
-32 -56 391 209 166 149 
-32 -56 391 214 172 156 
-31 -56 391 216 174 158 
-30 -56 391 219 177 161 
-30 -56 390 225 183 167 
-29 -55 389 217 181 167 
-28 -55 389 167 131 117 
-28 -55 389 155 121 109 
-27 -55 389 158 124 112 
-26 -55 389 164 128 116 
-26 -55 389 174 138 126 
-25 -55 389 201 162 145 
-25 -55 388 229 190 173 
-24 -55 387 241 196 177 
-23 -55 387 239 194 175 
-23 -55 386 242 194 172 
-22 -55 386 244 196 174 
-21 -55 386 243 195 173 
-21 -55 386 244 196 174 
-20 -55 386 243 195 173 
-19 -55 387 236 188 166 
-19 -55 387 232 184 164 
-18 -55 387 228 180 160 
-18 -55 387 223 175 161 
-17 -55 388 211 163 149 
-16 -55 389 211 172 165 
-16 -55 389 214 175 168 
-15 -56 391 164 164 176 
-32 -55 391 209 163 147 
-32 -55 391 212 166 150 
-31 -55 390 214 168 152 
-30 -55 390 215 169 153 
-30 -55 390 218 172 156 
-29 -55 389 216 177 160 
-28 -55 389 213 174 157 
-28 -55 388 190 151 134 
-27 -55 388 186 147 130 
-26 -55 389 193 152 134 
-26 -55 388 205 164 146 
-25 -55 388 229 186 167 
-25 -55 388 234 191 172 
-24 -55 387 237 192 171 
-23 -54 386 234 189 168 
-23 -54 386 237 191 168 
-22 -54 386 237 191 168 
-21 -54 386 236 188 165 
-21 -54 386 236 188 165 
-20 -54 386 236 186 161 
-19 -55 387 231 181 156 
-19 -55 387 224 172 151 
-18 -55 387 220 168 147 
-18 -55 388 217 165 151 
-17 -55 388 207 155 141 
-16 -55 389 211 168 161 
-16 -55 389 217 174 167 
-15 -55 390 172 170 183 
-32 -54 391 205 158 140 
-32 -54 391 208 161 143 
-31 -54 390 209 162 144 
-30 -54 390 210 163 145 
-30 -54 390 210 163 145 
-29 -54 389 213 172 154 
-28 -54 389 215 174 156 
-28 -54 388 218 173 152 
-27 -54 388 220 175 154 
-26 -54 388 220 174 151 
-26 -54 388 226 180 157 
-25 -54 387 230 184 161 
-24 -54 387 229 183 160 
-24 -54 387 228 182 159 
-23 -54 386 228 182 159 
-23 -54 386 231 185 162 
-22 -54 386 230 184 161 
-21 -54 386 232 182 159 
-21 -54 386 233 183 160 
-20 -54 386 231 180 153 
-19 -54 386 227 176 149 
-19 -54 387 222 167 146 
-18 -54 387 215 160 139 
-18 -54 388 207 154 138 
-17 -54 388 202 149 133 
-16 -54 388 209 165 156 
-16 -54 389 214 170 161 
-15 -54 390 171 169 180 
-32 -54 391 199 151 131 
-32 -54 391 205 154 135 
-31 -54 391 205 154 135 
-30 -54 390 208 157 138 
-30 -54 390 206 155 136 
-29 -54 390 208 163 144 
-28 -54 389 208 163 144 
-28 -53 388 216 168 146 
-27 -53 388 218 170 148 
-26 -53 388 225 173 149 
-26 -53 388 233 181 157 
-25 -53 387 227 177 154 
-24 -53 387 225 175 152 
-24 -53 387 224 176 154 
-23 -53 386 224 176 154 
-23 -53 386 226 178 156 
-22 -53 386 226 178 156 
-21 -53 386 227 175 153 
-21 -53 386 227 175 153 
-20 -53 386 226 172 146 
-19 -53 386 220 166 140 
-19 -53 386 214 158 133 
-18 -53 387 207 151 126 
-18 -53 387 198 141 124 
-17 -53 388 199 142 125 
-16 -53 388 209 162 152 
-16 -53 388 213 166 156 
-15 -54 389 172 170 181 
-32 -53 391 193 142 121 
-32 -53 391 198 146 125 
-31 -53 391 198 146 125 
-30 -53 390 202 150 129 
-30 -53 390 200 148 127 
-29 -53 390 202 155 135 
-28 -53 389 209 162 142 
-28 -53 389 215 163 139 
-27 -53 388 216 164 140 
-26 -53 388 225 169 144 
-26 -53 387 226 170 145 
-25 -53 387 227 173 149 
-24 -53 387 231 177 153 
-24 -53 387 222 172 149 
-23 -53 386 220 170 147 
-23 -53 386 219 169 146 
-22 -53 386 222 172 149 
-21 -53 386 221 167 143 
-21 -53 386 217 163 139 
-20 -53 386 218 161 134 
-19 -53 386 211 154 127 
-19 -53 386 205 148 121 
-18 -53 387 199 142 115 
-18 -53 387 189 131 111 
-17 -53 388 195 137 117 
-16 -53 388 205 157 145 
-16 -53 388 209 161 149 
-15 -53 389 175 172 181 
-32 -53 391 186 134 112 
-32 -53 391 194 139 118 
-31 -53 391 193 138 117 
-30 -53 391 197 145 123 
-30 -52 390 195 143 121 
-29 -52 390 200 152 129 
-28 -52 389 202 154 131 
-28 -52 389 210 156 130 
-27 -52 388 210 156 130 
-26 -52 388 220 163 134 
-26 -52 388 223 166 137 
-25 -52 387 221 165 138 
-24 -52 387 220 164 137 
-24 -52 386 212 160 136 
-23 -52 386 208 156 132 
-23 -52 386 210 156 132 
-22 -52 386 216 162 138 
-21 -52 386 215 159 132 
-21 -52 386 212 156 129 
-20 -52 387 219 159 131 
-19 -52 386 216 156 128 
-19 -52 386 215 158 129 
-18 -52 387 210 153 124 
-18 -52 387 195 134 115 
-17 -52 387 198 137 118 
-16 -52 388 203 154 140 
-16 -52 388 206 157 143 
-15 -52 389 176 173 182 
-14 -52 390 168 171 178 
-31 -52 392 186 134 113 
-30 -52 391 191 139 118 
-30 -52 391 190 138 117 
-29 -52 391 196 137 119 
-28 -52 390 198 139 121 
-28 -52 389 204 148 123 
-27 -52 389 206 150 125 
-26 -52 388 212 157 126 
-26 -52 388 211 156 125 
-25 -51 387 213 158 127 
-24 -51 387 211 156 125 
-16 -52 388 202 154 132 
-15 -52 389 173 165 176 
-14 -52 390 173 167 179 
-31 -51 392 184 132 111 
-31 -51 392 190 135 115 
-30 -51 391 188 133 113 
-29 -51 391 191 133 113 
-29 -51 391 195 137 117 
-28 -51 390 202 144 120 
-27 -51 389 200 142 118 
-26 -51 389 201 146 115 
-26 -51 388 204 149 118 
-25 -51 387 205 150 119 
-24 -51 387 206 151 120 
-24 -51 387 217 161 134 
-31 -51 392 178 123 102 
-31 -51 392 184 129 108 
-30 -51 392 182 127 106 
-29 -51 392 186 125 106 
-29 -51 392 189 128 109 
-28 -51 391 196 136 110 
-27 -51 390 195 135 109 
-27 -51 390 194 137 107 
-26 -50 389 202 145 115 
-30 -50 393 177 122 101 
-29 -50 392 178 115 97 
-29 -50 392 187 124 106 
-28 -50 392 185 125 99 
-27 -50 391 187 127 101 
-27 -50 390 197 138 108 
-26 -50 390 220 161 131 
-25 -50 389 231 174 144 
-30 -50 393 170 115 94 
-29 -50 393 176 115 96 
-29 -50 393 177 116 97 
-28 -50 393 172 112 88 
-27 -50 392 190 130 106 
-29 -49 394 166 105 87 
-29 -49 393 165 104 86 
-28 -49 393 173 113 89 
-30 -49 394 136 84 60 
-29 -49 394 142 85 66 
-29 -49 394 155 98 79 
