ply
format ascii 1.0
comment Created by CloudCompare v2.10.1 (Zephyrus)
comment Created 2020-05-17 12:33 AM
obj_info Generated by CloudCompare!
element vertex 438
property float x
property float y
property float z
property uchar red
property uchar green
property uchar blue
end_header
-54 -77 389 156 104 80 
-53 -77 389 155 99 76 
-56 -77 391 133 76 57 
-56 -77 391 142 80 59 
-55 -77 390 146 84 63 
-54 -77 390 145 83 60 
-54 -77 390 154 92 69 
-53 -77 390 163 101 78 
-52 -77 390 167 105 82 
-52 -77 391 174 114 88 
-51 -77 391 179 119 93 
-51 -77 391 176 119 90 
-50 -77 391 183 126 97 
-49 -77 391 184 126 102 
-49 -77 391 183 125 101 
-48 -77 391 179 125 89 
-48 -77 391 179 125 89 
-47 -77 391 169 124 103 
-46 -77 392 160 115 94 
-46 -77 392 156 105 86 
-45 -77 392 156 105 86 
-56 -77 391 161 99 76 
-55 -77 391 169 107 84 
-54 -77 391 181 119 96 
-54 -77 391 191 129 106 
-53 -77 391 201 141 117 
-53 -77 391 208 148 124 
-52 -77 391 213 156 129 
-51 -77 391 215 158 131 
-51 -77 392 213 156 127 
-50 -77 392 216 159 130 
-50 -77 392 217 159 135 
-49 -77 392 214 156 132 
-48 -77 392 211 158 124 
-48 -77 392 210 157 123 
-47 -77 392 200 155 134 
-46 -77 392 193 148 127 
-46 -77 392 185 134 115 
-45 -77 393 174 123 104 
-45 -77 393 141 127 124 
-44 -77 394 141 127 124 
-60 -76 394 123 81 65 
-59 -76 394 128 86 70 
-59 -76 393 146 95 76 
-58 -76 392 153 102 83 
-57 -76 392 167 107 83 
-57 -76 392 177 117 93 
-56 -76 391 191 130 102 
-55 -76 391 201 140 112 
-54 -76 391 207 147 121 
-54 -76 391 217 157 131 
-53 -76 391 224 166 142 
-53 -76 391 231 173 149 
-52 -76 391 236 179 152 
-51 -76 391 237 180 153 
-51 -76 391 237 180 150 
-50 -76 391 237 180 150 
-49 -76 391 237 181 156 
-49 -76 391 232 176 151 
-48 -76 392 230 177 143 
-48 -76 392 228 175 141 
-47 -76 393 215 170 147 
-46 -76 393 210 165 142 
-46 -76 393 201 153 131 
-45 -76 393 183 135 113 
-45 -77 394 148 131 124 
-44 -77 395 144 127 120 
-44 -77 395 124 129 132 
-60 -76 395 150 107 88 
-59 -76 394 153 110 91 
-59 -76 394 167 115 91 
-58 -76 393 174 122 98 
-57 -75 392 187 128 98 
-57 -75 392 197 138 108 
-56 -75 392 208 149 117 
-55 -75 391 217 158 126 
-54 -75 391 220 163 134 
-54 -75 391 230 173 144 
-53 -75 391 234 180 152 
-53 -75 391 239 185 157 
-52 -75 391 245 190 160 
-51 -75 391 245 190 160 
-51 -75 391 248 192 159 
-50 -75 391 248 192 159 
-49 -75 391 247 194 163 
-49 -75 391 240 187 156 
-48 -76 392 238 188 153 
-48 -76 392 235 185 150 
-47 -76 392 222 177 148 
-46 -76 393 218 173 144 
-46 -76 393 212 165 139 
-45 -76 393 198 151 125 
-45 -76 394 160 136 124 
-44 -76 395 149 125 113 
-44 -76 395 123 131 133 
-60 -76 396 165 119 96 
-60 -75 395 167 121 98 
-59 -75 394 178 127 98 
-58 -75 393 186 135 106 
-57 -75 392 199 143 108 
-57 -75 392 209 153 118 
-56 -75 391 217 161 126 
-55 -75 391 223 167 132 
-54 -75 391 225 172 140 
-54 -75 391 234 181 149 
-53 -75 391 234 185 153 
-53 -75 391 239 190 158 
-52 -75 391 245 192 160 
-51 -75 391 244 191 159 
-51 -75 391 247 191 158 
-50 -75 391 249 193 160 
-49 -75 391 245 194 163 
-49 -75 391 239 188 157 
-48 -75 392 242 189 155 
-48 -75 392 242 189 155 
-47 -75 392 228 181 151 
-46 -75 392 222 175 145 
-46 -75 393 218 171 143 
-45 -75 393 208 161 133 
-45 -75 393 175 146 130 
-44 -75 394 153 124 108 
-44 -75 395 123 132 131 
-60 -75 396 169 119 94 
-60 -75 395 174 124 99 
-59 -75 394 186 133 102 
-58 -74 393 194 141 110 
-57 -74 392 206 150 115 
-57 -74 392 215 159 124 
-56 -74 391 221 167 129 
-55 -74 391 228 174 136 
-54 -74 391 229 179 144 
-54 -74 391 235 185 150 
-53 -74 391 237 188 156 
-53 -74 391 240 191 159 
-52 -74 390 243 193 160 
-51 -74 390 243 193 160 
-51 -74 391 247 193 159 
-50 -74 391 252 198 164 
-49 -74 391 247 196 165 
-49 -74 391 242 191 160 
-48 -74 392 243 192 161 
-48 -74 392 245 194 163 
-47 -74 391 236 190 157 
-46 -74 392 228 182 149 
-46 -74 392 222 177 148 
-45 -74 393 216 171 142 
-45 -74 393 190 155 136 
-44 -75 394 160 125 106 
-60 -74 397 172 121 94 
-60 -74 395 177 126 99 
-59 -74 394 189 136 105 
-58 -74 393 198 145 114 
-57 -74 392 209 155 119 
-57 -74 392 220 166 130 
-56 -73 391 227 173 137 
-55 -73 391 233 179 143 
-54 -73 391 226 176 143 
-54 -73 391 229 179 146 
-53 -73 391 234 185 153 
-53 -73 391 238 189 157 
-52 -73 390 241 190 159 
-51 -73 390 242 191 160 
-51 -73 390 247 190 161 
-50 -73 390 253 196 167 
-49 -73 390 247 196 167 
-49 -73 390 245 194 165 
-48 -73 391 247 193 165 
-48 -73 391 246 192 164 
-47 -73 391 239 190 158 
-46 -73 391 233 184 152 
-46 -74 392 225 180 151 
-45 -74 392 221 176 147 
-45 -74 393 202 163 146 
-44 -74 393 164 125 108 
-43 -74 394 125 134 139 
-43 -74 394 123 132 137 
-60 -74 397 178 122 97 
-60 -73 395 181 125 100 
-59 -73 394 190 135 105 
-58 -73 393 197 142 112 
-57 -73 392 206 152 118 
-57 -73 392 216 162 128 
-56 -73 392 221 167 131 
-55 -73 391 223 169 133 
-54 -73 391 219 169 136 
-54 -73 391 222 172 139 
-53 -73 391 231 182 150 
-52 -73 390 239 190 158 
-52 -73 390 245 191 163 
-51 -73 390 246 192 164 
-51 -73 390 247 190 163 
-50 -73 390 251 194 167 
-49 -73 390 247 196 167 
-49 -73 390 249 198 169 
-48 -73 391 250 196 170 
-48 -73 391 245 191 165 
-47 -73 391 239 190 158 
-46 -73 391 235 186 154 
-46 -73 392 228 183 154 
-45 -73 392 226 181 152 
-44 -73 392 212 171 151 
-44 -73 393 170 129 109 
-43 -73 393 124 135 139 
-43 -73 394 121 132 136 
-60 -73 396 174 121 103 
-59 -73 394 177 124 106 
-59 -73 394 186 133 101 
-58 -72 393 195 142 110 
-57 -72 392 198 144 108 
-57 -72 392 205 151 115 
-56 -72 392 214 160 124 
-55 -72 391 206 152 116 
-54 -72 391 203 151 114 
-54 -72 391 213 161 124 
-53 -72 391 228 174 146 
-53 -72 391 236 182 154 
-52 -72 390 239 183 160 
-51 -72 390 242 186 163 
-51 -72 390 243 190 156 
-50 -72 390 242 189 155 
-49 -72 390 240 191 158 
-49 -72 390 240 191 158 
-48 -72 391 240 189 160 
-48 -72 391 239 188 159 
-47 -72 391 238 184 156 
-46 -72 392 235 181 153 
-46 -72 392 228 181 151 
-45 -72 392 225 178 148 
-44 -72 392 205 175 151 
-44 -72 392 167 137 113 
-43 -73 393 124 131 137 
-43 -73 394 125 132 138 
-60 -72 396 168 122 106 
-59 -72 394 168 122 106 
-59 -72 394 183 128 97 
-58 -72 393 193 138 107 
-57 -72 393 198 142 105 
-57 -72 392 199 143 106 
-56 -72 392 201 149 112 
-55 -72 392 196 144 107 
-54 -71 391 183 131 94 
-54 -71 391 204 152 115 
-53 -72 391 228 173 143 
-53 -72 391 236 181 151 
-52 -72 391 235 179 152 
-51 -71 390 237 181 154 
-51 -71 390 237 184 150 
-50 -71 390 238 185 151 
-49 -71 390 239 186 152 
-49 -71 390 239 186 152 
-48 -72 391 237 186 155 
-48 -72 391 236 185 154 
-47 -72 391 233 182 151 
-46 -72 392 229 178 147 
-46 -72 392 223 177 144 
-45 -72 392 219 173 140 
-45 -72 393 204 172 149 
-44 -72 393 170 138 115 
-43 -72 393 126 133 141 
-43 -72 394 123 130 138 
-60 -72 397 158 126 115 
-59 -71 394 156 124 113 
-59 -71 394 182 127 97 
-58 -71 393 187 132 102 
-57 -71 393 196 138 101 
-57 -71 392 193 135 98 
-56 -71 392 186 140 104 
-55 -71 392 184 138 102 
-54 -71 391 171 118 84 
-54 -71 391 196 143 109 
-53 -71 391 223 166 136 
-53 -71 391 229 172 142 
-52 -71 391 226 173 142 
-51 -71 390 229 176 145 
-51 -71 390 232 178 144 
-50 -71 390 233 179 145 
-49 -71 390 238 179 145 
-49 -71 390 239 180 146 
-48 -71 391 232 182 149 
-48 -71 391 231 181 148 
-47 -71 391 228 178 145 
-46 -71 392 224 174 141 
-46 -71 392 222 171 140 
-45 -71 392 218 167 136 
-45 -71 393 203 166 147 
-44 -71 393 171 134 115 
-43 -71 393 125 132 140 
-43 -71 394 123 130 138 
-60 -71 397 147 130 122 
-60 -71 395 145 128 120 
-59 -71 394 180 126 100 
-58 -71 394 180 126 100 
-57 -71 393 192 134 97 
-57 -70 392 195 137 100 
-56 -70 392 193 149 114 
-55 -70 392 193 149 114 
-55 -70 392 190 135 104 
-54 -70 391 205 150 119 
-53 -70 391 223 164 132 
-53 -70 391 226 167 135 
-52 -70 391 221 171 136 
-51 -70 391 224 174 139 
-51 -70 390 227 173 139 
-50 -70 390 227 173 139 
-49 -70 391 233 173 137 
-49 -70 391 235 175 139 
-48 -70 391 230 176 142 
-48 -70 391 228 174 140 
-47 -70 392 225 171 137 
-46 -70 392 223 169 135 
-46 -70 392 222 167 137 
-45 -70 392 220 165 135 
-44 -70 392 197 160 141 
-44 -71 393 167 130 111 
-43 -71 393 122 131 138 
-43 -71 394 122 131 138 
-60 -71 397 142 134 131 
-60 -70 395 137 129 126 
-59 -70 394 168 117 96 
-58 -70 394 171 120 99 
-57 -70 393 188 128 94 
-57 -70 392 194 134 100 
-56 -70 392 198 149 116 
-55 -70 392 200 151 118 
-55 -70 392 205 149 116 
-54 -70 392 208 152 119 
-53 -70 391 217 157 121 
-53 -70 391 221 161 125 
-52 -70 391 220 168 131 
-51 -70 391 222 170 133 
-51 -70 391 222 168 132 
-50 -70 391 221 167 131 
-49 -70 391 228 170 133 
-49 -70 391 230 172 135 
-48 -70 392 227 171 136 
-48 -70 392 226 170 135 
-47 -70 392 225 166 134 
-46 -70 392 222 163 131 
-46 -70 392 219 162 133 
-45 -70 393 218 161 132 
-45 -70 393 199 162 143 
-44 -70 393 166 129 110 
-43 -70 393 120 131 135 
-43 -70 394 121 132 136 
-60 -70 397 140 136 133 
-60 -70 396 138 134 131 
-59 -70 395 157 112 93 
-58 -69 394 163 118 99 
-57 -69 393 186 122 94 
-57 -69 393 189 125 97 
-56 -69 392 192 138 104 
-55 -69 392 196 142 108 
-55 -69 392 201 143 106 
-54 -69 391 200 142 105 
-53 -69 391 209 147 110 
-53 -69 391 214 152 115 
-52 -69 391 214 158 123 
-51 -69 391 216 160 125 
-51 -69 391 216 162 126 
-50 -69 391 219 165 129 
-49 -69 391 220 166 132 
-49 -69 391 223 169 135 
-48 -69 391 224 168 135 
-48 -69 392 226 170 137 
-47 -69 392 227 168 138 
-46 -69 392 221 162 132 
-46 -69 393 213 159 131 
-45 -69 393 209 155 127 
-45 -69 393 191 156 137 
-44 -69 393 161 126 107 
-43 -70 394 119 128 133 
-43 -70 394 122 131 136 
-59 -69 395 152 116 102 
-58 -69 394 153 117 103 
-57 -69 394 181 119 96 
-57 -69 393 185 123 100 
-56 -69 392 191 130 101 
-55 -69 392 195 134 105 
-55 -69 392 196 138 101 
-54 -68 391 199 141 104 
-53 -68 391 205 145 111 
-53 -68 391 209 149 115 
-52 -68 391 211 152 122 
-51 -68 391 213 154 124 
-51 -68 391 211 158 124 
-50 -68 391 216 163 129 
-49 -68 391 212 161 130 
-49 -68 391 215 164 133 
-48 -68 391 220 165 135 
-48 -69 392 223 168 138 
-47 -69 392 223 168 138 
-46 -69 392 217 162 132 
-46 -69 392 206 159 133 
-45 -69 393 202 155 129 
-45 -69 393 182 149 132 
-44 -69 393 159 126 109 
-43 -69 394 128 131 140 
-43 -69 395 128 131 140 
-59 -68 395 149 120 112 
-58 -68 394 138 109 101 
-57 -68 394 167 108 92 
-57 -68 393 176 117 101 
-56 -68 393 184 122 97 
-55 -68 392 187 125 100 
-55 -68 392 187 133 97 
-54 -68 392 193 139 103 
-53 -68 391 201 144 114 
-53 -68 391 203 146 116 
-52 -68 391 206 148 124 
-51 -68 391 208 150 126 
-51 -68 391 205 156 124 
-50 -68 391 210 161 129 
-49 -68 391 211 160 133 
-49 -68 391 213 162 135 
-48 -68 391 215 161 135 
-48 -68 392 219 165 139 
-47 -68 392 217 166 137 
-46 -68 392 213 162 133 
-46 -68 392 206 162 137 
-45 -68 392 205 161 136 
-45 -68 393 189 157 142 
-44 -68 393 171 139 124 
-43 -68 393 143 141 152 
-43 -68 394 136 134 145 
-59 -68 396 179 151 150 
-58 -68 395 128 100 99 
-57 -68 394 159 107 93 
-53 -67 392 197 141 118 
-53 -67 392 202 146 123 
-52 -67 391 205 153 131 
-51 -67 391 206 154 132 
-51 -67 391 213 155 133 
-50 -67 391 216 158 136 
-49 -67 391 213 171 146 
-49 -67 391 217 175 150 
-48 -67 392 227 183 158 
-53 -67 392 208 154 128 
-53 -67 392 218 164 138 
