ply
format ascii 1.0
comment Created by CloudCompare v2.10.1 (Zephyrus)
comment Created 2020-05-17 12:34 AM
obj_info Generated by CloudCompare!
element vertex 1712
property float x
property float y
property float z
property uchar red
property uchar green
property uchar blue
end_header
-81 -50 402 193 152 130 
-84 -49 401 154 141 132 
-83 -49 400 177 154 148 
-82 -49 400 188 165 159 
-82 -49 400 213 176 158 
-81 -49 400 219 182 164 
-81 -49 401 225 184 156 
-80 -49 402 220 179 151 
-80 -49 402 219 168 121 
-84 -48 400 188 163 143 
-83 -48 399 204 179 159 
-83 -48 399 224 183 165 
-82 -48 399 231 190 172 
-82 -48 399 235 187 164 
-81 -48 399 237 189 166 
-80 -48 399 236 193 161 
-80 -49 401 236 193 161 
-79 -49 401 238 190 144 
-79 -49 401 231 183 137 
-86 -48 401 158 149 134 
-86 -48 400 191 163 139 
-85 -48 399 204 176 152 
-84 -48 398 223 182 152 
-83 -48 398 229 188 158 
-83 -48 398 235 189 156 
-82 -48 398 235 189 156 
-81 -48 398 241 188 157 
-81 -48 398 242 189 158 
-80 -48 399 245 191 163 
-80 -48 400 245 191 163 
-79 -48 400 241 186 156 
-79 -48 401 237 182 152 
-78 -48 401 233 177 142 
-88 -47 400 149 137 123 
-87 -47 399 163 151 137 
-87 -47 399 190 168 145 
-86 -47 398 197 175 152 
-85 -47 398 216 179 150 
-85 -47 398 222 185 156 
-84 -47 397 233 187 154 
-83 -47 397 234 188 155 
-82 -47 397 237 186 155 
-82 -47 397 239 188 157 
-81 -47 397 241 188 157 
-80 -47 397 242 189 158 
-80 -47 398 245 191 163 
-80 -47 399 245 191 163 
-79 -47 399 242 187 157 
-78 -47 400 241 186 156 
-78 -47 401 239 183 148 
-77 -47 401 230 174 139 
-77 -47 401 229 171 131 
-89 -46 399 174 145 129 
-88 -46 398 195 163 140 
-87 -46 398 207 175 152 
-86 -46 396 220 183 154 
-85 -46 396 220 183 154 
-85 -46 396 229 183 150 
-84 -46 396 235 189 156 
-83 -46 396 241 191 158 
-83 -46 396 239 189 156 
-82 -46 396 241 188 156 
-82 -46 396 243 190 158 
-81 -46 397 240 189 158 
-80 -46 397 241 190 159 
-80 -46 398 245 191 163 
-79 -46 398 245 191 163 
-79 -46 399 243 190 159 
-78 -46 399 243 190 159 
-78 -46 400 244 188 153 
-77 -46 400 237 181 146 
-77 -46 400 237 179 139 
-76 -46 400 224 166 126 
-90 -46 398 165 129 115 
-89 -46 398 196 158 137 
-88 -45 397 214 176 155 
-87 -45 395 224 183 155 
-86 -45 395 231 190 162 
-86 -45 395 229 184 151 
-85 -45 395 228 183 150 
-85 -45 395 233 184 151 
-84 -45 395 238 189 156 
-83 -45 395 245 192 160 
-83 -45 395 245 192 160 
-82 -45 396 244 191 159 
-82 -45 396 245 192 160 
-81 -45 396 242 191 160 
-80 -45 396 242 191 160 
-80 -45 397 242 191 160 
-79 -46 398 242 191 160 
-79 -46 398 243 190 159 
-78 -46 399 244 191 160 
-78 -46 399 244 190 154 
-77 -46 400 238 184 148 
-77 -46 400 238 180 140 
-76 -46 400 231 173 133 
-75 -46 400 210 151 111 
-90 -45 396 180 142 123 
-89 -45 396 205 167 148 
-88 -45 395 222 178 153 
-87 -44 394 227 183 158 
-87 -44 394 230 183 153 
-86 -44 394 237 190 160 
-86 -44 394 234 187 157 
-85 -44 394 233 186 156 
-84 -44 394 234 185 155 
-84 -44 394 236 187 157 
-83 -45 395 242 189 158 
-83 -45 395 245 192 161 
-82 -45 395 247 192 161 
-81 -45 395 247 192 161 
-81 -45 396 242 193 160 
-80 -45 396 242 193 160 
-80 -45 397 242 191 160 
-79 -45 397 242 191 160 
-79 -45 397 242 189 157 
-78 -45 398 242 189 157 
-78 -45 399 242 188 152 
-77 -45 400 237 183 147 
-77 -45 400 234 179 140 
-76 -45 400 224 169 130 
-75 -45 401 219 159 122 
-75 -45 401 197 137 100 
-91 -44 397 166 128 107 
-90 -44 396 197 159 138 
-90 -44 396 223 181 156 
-89 -44 395 230 188 163 
-88 -44 394 235 188 158 
-87 -44 393 243 196 166 
-87 -44 393 244 195 163 
-86 -44 393 242 193 161 
-85 -44 393 238 189 159 
-85 -44 394 238 189 159 
-84 -44 394 237 188 158 
-84 -44 394 236 187 157 
-83 -44 394 240 187 156 
-82 -44 394 245 192 161 
-82 -44 395 249 193 160 
-81 -44 395 248 192 159 
-81 -44 395 241 193 157 
-80 -44 396 242 194 158 
-80 -44 396 243 193 160 
-79 -44 397 243 193 160 
-79 -44 397 242 189 157 
-78 -44 397 240 187 155 
-77 -44 398 240 186 150 
-77 -44 399 235 181 145 
-76 -44 399 232 177 138 
-76 -45 400 219 164 125 
-75 -45 400 217 159 121 
-75 -45 401 195 137 99 
-92 -43 397 169 128 106 
-91 -43 395 202 162 136 
-90 -43 394 218 178 152 
-89 -43 394 230 186 157 
-89 -43 393 232 188 159 
-88 -43 392 236 187 154 
-87 -43 392 242 193 160 
-86 -43 392 249 196 164 
-86 -43 392 254 201 169 
-85 -43 392 245 194 165 
-85 -43 393 244 193 164 
-84 -43 393 243 194 164 
-84 -43 394 243 194 164 
-83 -43 394 246 193 162 
-82 -43 394 247 194 163 
-82 -43 394 250 193 163 
-81 -43 395 249 192 162 
-81 -43 395 241 193 155 
-80 -43 395 241 193 155 
-80 -43 396 242 192 157 
-79 -43 396 242 192 157 
-79 -44 397 242 189 157 
-78 -44 397 239 186 154 
-77 -44 397 238 186 149 
-77 -44 398 233 181 144 
-76 -44 399 232 178 140 
-76 -44 399 218 164 126 
-75 -44 400 210 152 115 
-75 -44 401 197 139 102 
-74 -44 402 157 96 67 
-74 -44 402 104 43 14 
-93 -43 397 182 140 116 
-92 -43 396 209 167 143 
-91 -43 394 225 186 157 
-90 -42 393 230 191 162 
-89 -42 392 232 189 157 
-88 -42 392 231 188 156 
-87 -42 391 238 188 153 
-87 -42 391 244 194 159 
-86 -42 391 249 195 161 
-86 -42 391 252 198 164 
-85 -42 391 248 195 164 
-85 -42 392 245 192 161 
-84 -42 393 244 193 164 
-83 -42 393 247 196 167 
-83 -42 393 247 196 167 
-82 -43 394 245 194 165 
-82 -43 394 248 193 163 
-81 -43 394 248 193 163 
-81 -43 395 242 194 156 
-80 -43 395 241 193 155 
-79 -43 395 241 191 156 
-79 -43 396 241 191 156 
-78 -43 396 242 189 155 
-78 -43 397 240 187 153 
-77 -43 397 237 185 148 
-77 -43 398 230 178 141 
-76 -43 398 223 169 131 
-76 -43 399 217 163 125 
-75 -43 400 207 148 114 
-75 -43 401 199 140 106 
-74 -43 402 177 117 89 
-74 -43 402 144 84 56 
-93 -42 394 189 145 120 
-92 -42 394 214 168 134 
-91 -42 394 226 180 146 
-90 -42 393 240 189 160 
-90 -42 392 240 189 160 
-89 -42 391 235 186 154 
-88 -42 391 232 183 151 
-87 -41 390 233 184 152 
-87 -41 390 234 185 153 
-86 -42 391 238 189 157 
-86 -42 391 244 195 163 
-85 -42 391 244 193 162 
-85 -42 392 247 196 165 
-84 -42 392 249 196 164 
-83 -42 393 249 196 164 
-83 -42 393 247 197 164 
-82 -42 393 246 196 163 
-82 -42 394 245 194 163 
-81 -42 394 245 194 163 
-81 -42 394 248 194 158 
-80 -42 395 247 193 157 
-79 -42 395 245 192 158 
-79 -42 396 241 188 154 
-78 -42 396 238 188 153 
-78 -42 397 238 188 153 
-77 -42 397 236 182 144 
-77 -42 398 228 174 136 
-76 -42 399 226 167 127 
-76 -42 399 217 158 118 
-75 -43 400 204 146 108 
-75 -43 401 195 137 99 
-74 -43 402 172 119 87 
-74 -43 403 148 95 63 
-94 -41 394 158 115 96 
-93 -41 393 192 147 118 
-92 -41 392 210 165 136 
-91 -41 392 219 171 135 
-91 -41 392 228 180 144 
-90 -41 392 233 182 151 
-89 -41 391 235 184 153 
-88 -41 390 232 181 150 
-88 -41 390 226 175 144 
-87 -41 390 228 177 146 
-87 -41 390 232 181 150 
-86 -41 390 236 185 154 
-86 -41 391 240 189 158 
-85 -41 391 244 193 162 
-84 -41 391 248 197 166 
-84 -41 392 248 197 166 
-83 -41 392 248 197 166 
-83 -41 393 249 198 167 
-82 -41 393 249 198 167 
-82 -41 393 248 197 166 
-81 -41 394 246 195 164 
-81 -41 394 248 195 161 
-80 -41 395 246 193 159 
-79 -41 395 240 190 153 
-79 -41 395 236 186 149 
-78 -42 396 233 185 147 
-78 -42 397 234 186 148 
-77 -42 397 230 181 141 
-77 -42 398 222 173 133 
-76 -42 399 219 164 123 
-76 -42 400 211 156 115 
-75 -42 401 203 145 105 
-75 -42 401 189 131 91 
-74 -42 402 168 113 82 
-74 -42 403 144 89 58 
-94 -40 392 173 125 102 
-93 -40 392 200 152 129 
-93 -40 392 211 162 130 
-92 -40 391 211 162 130 
-91 -40 391 216 168 130 
-91 -40 391 226 178 140 
-90 -40 391 235 184 153 
-89 -40 390 239 188 157 
-88 -40 390 236 186 153 
-88 -40 390 228 178 145 
-87 -40 390 228 177 146 
-87 -40 390 234 183 152 
-86 -40 390 239 188 157 
-85 -40 390 240 189 158 
-85 -40 391 243 194 162 
-84 -40 391 247 198 166 
-84 -40 391 248 199 167 
-83 -40 392 249 200 168 
-83 -40 392 250 201 171 
-82 -41 393 250 201 171 
-82 -41 393 249 200 170 
-81 -41 393 246 197 167 
-81 -41 394 248 195 163 
-80 -41 394 245 192 160 
-79 -41 395 239 189 152 
-79 -41 395 235 185 148 
-78 -41 395 232 184 144 
-78 -41 396 232 184 144 
-77 -41 397 228 179 138 
-77 -41 398 219 170 129 
-76 -41 398 216 163 119 
-76 -41 399 204 151 107 
-75 -41 401 197 139 99 
-75 -41 401 180 122 82 
-74 -42 402 166 107 75 
-74 -42 403 147 88 56 
-95 -40 392 173 127 104 
-93 -40 390 200 149 122 
-93 -40 390 212 161 134 
-92 -40 390 220 167 133 
-92 -40 390 214 161 127 
-91 -40 390 213 164 124 
-90 -39 389 224 175 135 
-90 -40 390 237 187 154 
-89 -40 390 242 192 159 
-88 -40 390 243 190 158 
-88 -40 390 235 182 150 
-87 -40 390 233 180 149 
-87 -40 390 236 183 152 
-86 -40 390 238 187 156 
-85 -40 390 241 190 159 
-85 -40 391 243 194 164 
-84 -40 391 248 199 169 
-84 -40 391 247 200 170 
-83 -40 392 247 200 170 
-83 -40 392 248 201 171 
-82 -40 393 248 201 171 
-82 -40 393 248 198 171 
-81 -40 393 244 194 167 
-80 -40 393 247 192 162 
-80 -40 394 243 188 158 
-79 -40 395 236 188 150 
-79 -40 395 233 185 147 
-78 -40 395 231 182 141 
-78 -40 396 230 181 140 
-77 -40 397 225 176 135 
-77 -40 398 216 167 126 
-76 -41 399 212 161 118 
-76 -41 400 198 147 104 
-75 -41 400 191 131 94 
-75 -41 401 176 116 79 
-74 -41 402 161 100 72 
-74 -41 403 144 83 55 
-97 -40 396 143 102 82 
-95 -39 393 178 128 103 
-94 -39 390 198 148 123 
-93 -39 389 209 154 124 
-93 -39 389 212 157 127 
-92 -39 389 221 167 131 
-91 -39 389 223 169 133 
-91 -39 389 225 173 134 
-90 -39 389 233 181 142 
-90 -39 389 240 190 157 
-89 -39 389 245 195 162 
-88 -39 389 247 194 163 
-88 -39 389 243 190 159 
-87 -39 390 240 187 156 
-87 -39 390 238 185 154 
-86 -39 390 237 186 155 
-85 -39 390 241 190 159 
-85 -39 391 245 196 166 
-84 -39 391 249 200 170 
-84 -39 391 248 201 171 
-83 -39 391 248 201 171 
-83 -39 392 248 201 173 
-82 -39 392 247 200 172 
-82 -39 393 247 197 170 
-81 -39 393 241 191 164 
-80 -39 393 243 189 161 
-80 -39 394 239 185 157 
-79 -39 395 233 185 147 
-79 -39 395 231 183 145 
-78 -39 395 228 179 136 
-78 -40 396 226 177 134 
-77 -40 397 223 171 131 
-77 -40 398 214 162 122 
-76 -40 399 206 157 116 
-76 -40 400 191 142 101 
-75 -40 401 185 125 89 
-75 -40 401 172 112 76 
-74 -40 402 147 89 67 
-74 -40 403 130 72 50 
-97 -39 395 153 108 85 
-96 -38 392 184 139 116 
-95 -38 390 204 150 124 
-94 -38 388 211 157 131 
-93 -38 388 219 162 132 
-92 -38 388 220 163 133 
-92 -38 388 221 167 131 
-91 -38 388 227 173 137 
-91 -38 388 232 183 143 
-90 -38 388 239 190 150 
-90 -38 389 243 192 161 
-89 -38 389 248 197 166 
-88 -38 389 249 198 169 
-88 -38 389 249 198 169 
-87 -38 389 248 197 168 
-87 -38 390 244 193 164 
-86 -38 390 241 190 161 
-85 -38 390 244 193 164 
-85 -38 391 246 197 167 
-84 -38 391 249 200 170 
-84 -38 391 250 200 173 
-83 -38 391 250 200 173 
-83 -39 392 248 198 171 
-82 -39 392 247 197 170 
-81 -39 392 245 196 166 
-81 -39 393 240 191 161 
-80 -39 393 239 188 159 
-80 -39 394 235 184 155 
-79 -39 394 230 187 145 
-79 -39 395 228 185 143 
-78 -39 395 227 178 135 
-78 -39 396 223 174 131 
-77 -39 397 219 167 128 
-77 -39 398 210 158 119 
-76 -39 399 199 149 112 
-76 -39 400 185 135 98 
-75 -39 400 178 119 87 
-75 -39 401 165 106 74 
-74 -40 402 139 88 69 
-74 -40 404 137 86 67 
-98 -38 394 151 115 93 
-96 -38 392 187 140 114 
-95 -38 390 205 158 132 
-94 -37 388 218 162 135 
-94 -37 388 222 166 139 
-93 -37 387 225 168 138 
-92 -37 387 225 168 138 
-92 -37 387 231 177 141 
-91 -37 387 235 181 145 
-90 -37 387 233 184 144 
-90 -37 387 240 191 151 
-89 -37 388 241 192 162 
-89 -37 388 246 197 167 
-88 -37 388 250 201 171 
-87 -37 388 251 202 172 
-87 -38 389 251 202 172 
-86 -38 389 248 199 169 
-86 -38 389 243 194 164 
-85 -38 390 243 194 164 
-85 -38 390 245 196 166 
-84 -38 390 246 197 167 
-83 -38 390 248 197 168 
-83 -38 391 247 196 167 
-82 -38 391 244 195 165 
-82 -38 392 243 194 164 
-81 -38 392 242 193 163 
-81 -38 392 239 190 160 
-80 -38 393 237 187 154 
-80 -38 394 232 182 149 
-79 -38 394 227 184 141 
-79 -38 394 225 182 139 
-78 -38 395 226 175 130 
-78 -38 397 220 169 124 
-77 -38 397 214 158 121 
-77 -39 398 204 148 111 
-76 -39 399 194 144 107 
-76 -39 400 178 128 91 
-75 -39 400 167 110 81 
-75 -39 401 148 91 62 
-74 -39 402 125 81 68 
-74 -39 404 138 94 81 
-98 -37 393 153 112 90 
-97 -37 391 187 146 124 
-96 -37 389 213 164 134 
-95 -37 388 215 166 136 
-94 -37 387 224 169 139 
-93 -37 387 225 170 140 
-93 -37 387 234 177 147 
-92 -37 386 234 177 147 
-91 -37 386 232 178 142 
-91 -37 387 241 187 151 
-90 -37 387 243 194 154 
-90 -37 387 243 194 154 
-89 -37 387 240 191 161 
-89 -37 388 248 199 169 
-88 -37 388 253 203 176 
-87 -37 388 253 203 176 
-87 -37 388 252 205 177 
-86 -37 389 250 203 175 
-86 -37 389 247 198 168 
-85 -37 389 244 195 165 
-85 -37 389 243 192 163 
-84 -37 390 244 193 164 
-83 -37 390 244 193 164 
-83 -37 390 243 192 163 
-82 -37 391 241 190 161 
-82 -37 392 240 189 160 
-81 -37 392 240 191 159 
-81 -37 392 237 188 156 
-80 -37 393 234 184 149 
-80 -37 394 228 178 143 
-79 -37 394 222 179 134 
-79 -38 395 219 176 131 
-78 -38 396 220 167 123 
-78 -38 397 214 161 117 
-77 -38 397 210 150 114 
-77 -38 398 200 140 104 
-76 -38 399 185 132 98 
-76 -38 400 170 117 83 
-75 -38 401 161 101 75 
-75 -38 402 142 82 56 
-75 -38 403 126 86 76 
-74 -38 403 148 108 98 
-74 -39 405 118 130 126 
-98 -37 392 160 127 110 
-97 -36 390 195 151 116 
-96 -36 388 213 169 134 
-95 -36 387 217 171 137 
-95 -36 387 215 169 135 
-94 -36 387 223 172 141 
-93 -36 386 229 178 147 
-93 -36 386 238 179 147 
-92 -36 386 238 179 147 
-91 -36 386 241 181 145 
-91 -36 386 244 184 148 
-90 -36 386 243 188 157 
-89 -36 386 244 189 158 
-89 -36 386 241 191 164 
-88 -36 387 248 198 171 
-88 -36 387 252 205 179 
-87 -36 388 252 205 179 
-87 -36 388 250 203 175 
-86 -36 388 251 204 176 
-86 -36 389 252 203 173 
-85 -36 389 248 199 169 
-85 -36 389 241 192 162 
-84 -36 389 238 189 159 
-83 -36 390 239 190 160 
-83 -36 390 241 192 162 
-82 -37 391 239 190 158 
-82 -37 391 239 190 158 
-81 -37 392 238 187 156 
-81 -37 393 233 182 151 
-80 -37 393 234 184 147 
-80 -37 394 228 178 141 
-79 -37 394 222 172 135 
-79 -37 395 218 168 131 
-78 -37 396 215 162 122 
-78 -37 397 207 154 114 
-77 -37 397 201 143 103 
-77 -37 398 192 134 94 
-76 -37 399 173 120 88 
-76 -37 400 159 106 74 
-75 -38 401 140 86 58 
-75 -38 402 139 85 57 
-75 -38 403 122 112 111 
-74 -38 404 132 122 121 
-74 -38 405 119 127 130 
-98 -36 389 191 156 137 
-97 -36 388 216 171 138 
-96 -35 387 222 177 144 
-95 -35 386 223 177 143 
-94 -35 386 224 178 144 
-94 -35 386 226 177 147 
-93 -35 386 229 180 150 
-93 -35 386 238 182 149 
-92 -35 386 240 184 151 
-91 -35 386 243 187 154 
-91 -35 386 244 188 155 
-90 -35 386 243 190 159 
-89 -35 386 246 193 162 
-89 -35 386 242 192 165 
-88 -36 387 249 199 172 
-88 -36 387 251 204 176 
-87 -36 388 251 204 176 
-87 -36 388 250 203 175 
-86 -36 388 251 204 176 
-86 -36 388 251 202 172 
-85 -36 389 247 198 168 
-85 -36 390 239 190 158 
-84 -36 390 236 187 155 
-83 -36 390 235 189 156 
-83 -36 391 238 192 159 
-82 -36 391 239 190 158 
-82 -36 392 236 187 155 
-81 -36 392 233 184 151 
-81 -36 393 228 179 146 
-81 -36 394 229 179 144 
-80 -36 394 223 173 138 
-79 -36 395 219 167 127 
-79 -36 395 214 162 122 
-78 -36 396 206 155 112 
-78 -36 397 199 148 105 
-77 -37 398 187 139 103 
-77 -37 398 174 126 90 
-76 -37 399 164 108 73 
-76 -37 400 142 86 51 
-76 -37 402 126 89 71 
-75 -37 402 145 108 90 
-75 -37 403 128 124 125 
-99 -35 390 174 149 145 
-98 -35 389 197 159 138 
-97 -35 388 211 173 152 
-96 -35 386 223 177 144 
-96 -35 386 223 177 144 
-95 -35 385 223 177 144 
-94 -35 385 225 179 146 
-94 -35 385 229 182 152 
-93 -35 385 230 183 153 
-92 -35 385 238 185 153 
-92 -35 385 243 190 158 
-91 -35 385 245 190 159 
-90 -35 385 244 189 158 
-90 -35 386 244 193 164 
-89 -35 386 250 199 170 
-89 -35 386 244 197 169 
-88 -35 386 248 201 173 
-88 -35 387 249 202 174 
-87 -35 388 249 202 174 
-87 -35 388 250 203 173 
-86 -35 388 250 203 173 
-86 -35 388 249 200 168 
-85 -35 389 245 196 164 
-85 -35 389 238 189 156 
-84 -35 390 231 182 149 
-83 -35 390 229 180 147 
-83 -35 391 232 183 150 
-83 -35 392 233 184 151 
-82 -35 392 230 181 148 
-82 -35 393 225 177 141 
-81 -35 393 223 175 139 
-81 -36 394 225 175 142 
-80 -36 394 218 168 135 
-79 -36 395 215 162 118 
-79 -36 396 207 154 110 
-78 -36 396 195 146 105 
-78 -36 397 191 142 101 
-77 -36 398 177 133 104 
-77 -36 399 159 115 86 
-77 -36 400 152 97 66 
-76 -36 400 143 88 57 
-76 -36 402 123 106 99 
-100 -34 389 190 158 147 
-99 -34 388 199 167 156 
-98 -34 387 216 174 150 
-97 -34 386 219 177 153 
-96 -34 386 227 177 144 
-95 -34 385 230 180 147 
-95 -34 385 232 183 150 
-94 -34 385 232 183 150 
-93 -34 384 232 185 155 
-93 -34 385 234 187 157 
-92 -34 385 240 189 158 
-92 -34 385 243 192 161 
-91 -34 385 245 192 161 
-90 -34 385 244 191 160 
-90 -34 386 245 195 170 
-89 -34 386 250 200 175 
-89 -34 386 247 197 170 
-88 -34 386 247 197 170 
-88 -34 387 244 197 167 
-87 -34 388 244 197 167 
-87 -34 388 248 199 169 
-86 -34 388 248 199 169 
-86 -34 389 245 196 164 
-85 -34 389 241 192 160 
-85 -34 389 238 189 156 
-84 -35 390 232 183 150 
-84 -35 391 223 175 139 
-83 -35 391 222 174 138 
-82 -35 391 226 178 142 
-82 -35 392 226 178 142 
-82 -35 393 222 174 136 
-81 -35 394 220 172 134 
-81 -35 394 220 170 135 
-80 -35 395 213 163 128 
-79 -35 395 208 155 113 
-79 -35 396 200 147 105 
-79 -35 397 188 140 102 
-78 -35 397 181 133 95 
-77 -35 398 169 122 94 
-77 -35 399 153 106 78 
-77 -35 400 136 95 73 
-76 -35 400 147 106 84 
-76 -36 402 122 123 125 
-100 -34 388 182 162 153 
-99 -34 387 204 166 147 
-98 -34 386 211 173 154 
-98 -34 386 223 176 148 
-97 -33 385 224 177 149 
-96 -33 385 232 179 147 
-95 -33 384 238 185 153 
-95 -33 384 238 189 156 
-94 -33 384 237 188 155 
-93 -33 384 234 188 155 
-93 -33 384 238 192 159 
-92 -33 385 244 195 163 
-92 -33 385 245 196 164 
-91 -33 385 245 194 165 
-90 -33 385 245 194 165 
-90 -33 385 246 196 171 
-89 -34 386 247 197 172 
-89 -34 386 244 194 167 
-88 -34 386 241 191 164 
-88 -34 387 240 191 161 
-87 -34 387 239 190 160 
-87 -34 388 242 191 162 
-86 -34 388 243 192 163 
-86 -34 389 240 191 159 
-85 -34 389 237 188 156 
-85 -34 389 236 186 153 
-84 -34 390 230 180 147 
-84 -34 391 220 170 135 
-83 -34 391 214 164 129 
-83 -34 392 217 167 132 
-82 -34 392 219 169 134 
-82 -34 393 216 166 129 
-81 -34 394 212 162 125 
-81 -34 394 211 161 124 
-80 -34 395 204 154 117 
-80 -34 396 199 145 107 
-79 -35 397 193 139 101 
-79 -35 397 180 131 101 
-78 -35 398 168 119 89 
-78 -35 398 160 107 76 
-77 -35 399 152 99 68 
-77 -35 400 128 111 104 
-101 -33 389 167 142 137 
-100 -33 387 189 160 144 
-99 -33 386 202 173 157 
-99 -33 386 219 175 150 
-98 -33 385 222 178 153 
-97 -33 385 231 180 151 
-96 -33 384 235 184 155 
-96 -33 384 242 187 156 
-95 -33 384 243 188 157 
-95 -33 384 241 191 158 
-94 -33 384 243 193 160 
-93 -33 384 238 192 159 
-93 -33 384 241 195 162 
-92 -33 384 246 197 165 
-92 -33 385 245 196 164 
-91 -33 385 246 195 166 
-90 -33 385 247 196 167 
-90 -33 385 246 194 170 
-89 -33 385 243 191 167 
-89 -33 386 241 192 162 
-88 -33 386 238 189 159 
-88 -33 387 237 186 155 
-87 -33 387 236 185 154 
-87 -33 388 238 187 156 
-86 -33 388 239 188 157 
-86 -33 389 239 188 157 
-85 -33 389 235 184 153 
-85 -33 389 229 179 146 
-84 -33 390 225 175 142 
-84 -33 391 217 167 132 
-83 -33 392 210 160 125 
-83 -33 392 208 158 121 
-82 -34 393 210 160 123 
-82 -34 394 208 158 121 
-81 -34 394 203 153 116 
-81 -34 394 201 153 115 
-80 -34 395 195 147 109 
-80 -34 396 187 137 104 
-79 -34 397 180 130 97 
-79 -34 397 169 119 94 
-78 -34 398 156 106 81 
-78 -34 399 147 101 77 
-77 -34 399 147 101 77 
-77 -34 400 123 124 128 
-102 -32 388 177 145 132 
-101 -32 386 191 159 146 
-100 -32 385 208 171 145 
-99 -32 384 215 178 152 
-98 -32 384 226 179 151 
-98 -32 384 227 180 152 
-97 -32 384 235 182 151 
-96 -32 384 238 185 154 
-96 -32 384 240 185 155 
-95 -32 384 241 186 156 
-95 -32 384 240 191 159 
-94 -32 384 242 193 161 
-93 -32 384 242 197 164 
-93 -32 384 242 197 164 
-92 -32 384 244 198 165 
-92 -32 385 245 199 166 
-91 -32 385 246 197 167 
-90 -32 385 246 197 167 
-90 -32 385 244 192 168 
-89 -32 385 240 188 164 
-89 -32 386 239 190 158 
-88 -32 386 237 188 156 
-88 -32 387 235 185 152 
-87 -32 387 233 183 150 
-87 -32 388 234 184 151 
-86 -32 388 235 185 152 
-86 -33 389 234 184 151 
-85 -33 389 231 181 148 
-85 -33 389 227 177 142 
-84 -33 390 218 168 133 
-84 -33 391 213 163 126 
-83 -33 391 208 158 121 
-83 -33 392 203 151 114 
-82 -33 393 204 152 115 
-82 -33 394 204 154 117 
-81 -33 394 198 148 111 
-81 -33 395 192 146 112 
-80 -33 396 184 138 104 
-80 -33 396 174 127 99 
-79 -33 397 166 119 91 
-79 -33 398 157 107 82 
-78 -33 399 151 101 76 
-78 -33 399 136 110 97 
-77 -34 400 139 113 100 
-102 -32 386 177 149 146 
-101 -32 385 200 163 145 
-100 -31 384 209 172 154 
-99 -31 383 220 176 147 
-99 -31 383 223 179 150 
-98 -31 383 227 180 150 
-98 -31 384 232 185 155 
-97 -31 384 242 189 158 
-96 -31 384 241 188 157 
-96 -31 384 240 186 158 
-95 -31 384 246 192 164 
-94 -31 383 249 200 168 
-94 -31 383 248 199 167 
-93 -31 384 244 199 166 
-93 -31 384 242 197 164 
-92 -31 384 243 198 165 
-91 -31 384 245 200 167 
-91 -32 385 248 198 171 
-90 -32 385 244 194 167 
-90 -32 385 241 189 167 
-89 -32 385 236 184 162 
-89 -32 386 235 186 153 
-88 -32 386 234 185 152 
-88 -32 387 232 182 149 
-87 -32 387 229 179 146 
-87 -32 388 229 179 144 
-86 -32 388 229 179 144 
-86 -32 389 225 177 141 
-85 -32 389 223 175 139 
-85 -32 390 222 174 138 
-84 -32 391 206 158 122 
-84 -32 391 202 152 115 
-83 -32 391 200 150 113 
-83 -32 392 190 141 101 
-82 -32 393 192 143 103 
-82 -32 394 198 148 111 
-81 -32 394 193 143 106 
-81 -32 395 181 138 104 
-80 -33 396 173 130 96 
-80 -33 397 164 118 94 
-79 -33 398 155 109 85 
-79 -33 399 149 99 72 
-78 -33 399 150 100 73 
-102 -31 386 181 149 136 
-101 -31 384 200 168 155 
-100 -31 383 217 177 152 
-100 -31 382 219 179 154 
-99 -31 382 225 182 150 
-98 -31 382 229 186 154 
-98 -31 382 234 185 153 
-97 -31 383 236 187 155 
-97 -31 383 240 189 160 
-96 -31 384 242 191 162 
-96 -31 384 242 192 165 
-95 -31 384 243 193 166 
-94 -31 383 243 196 170 
-94 -31 383 245 198 172 
-93 -31 384 247 200 174 
-93 -31 384 247 200 174 
-92 -31 384 248 201 173 
-91 -31 384 244 197 169 
-91 -31 385 240 193 163 
-90 -31 385 241 194 164 
-90 -31 385 238 193 160 
-89 -31 386 232 187 154 
-89 -31 386 236 187 146 
-88 -31 386 231 182 141 
-88 -31 387 233 181 141 
-87 -31 387 231 179 139 
-87 -31 388 228 176 137 
-86 -31 388 228 176 137 
-86 -31 389 226 174 137 
-85 -31 389 220 168 131 
-85 -31 390 220 166 130 
-84 -31 391 208 154 118 
-84 -31 391 201 147 109 
-83 -32 392 192 138 100 
-83 -32 393 183 128 97 
-82 -32 393 193 138 107 
-82 -32 394 198 144 118 
-81 -32 395 184 130 104 
-81 -32 395 179 126 92 
-80 -32 396 172 119 85 
-80 -32 397 151 110 92 
-80 -32 399 144 103 85 
-79 -32 399 130 112 108 
-102 -30 383 177 152 148 
-102 -30 383 201 165 149 
-101 -30 382 212 176 160 
-100 -30 381 222 180 155 
-99 -30 381 223 181 156 
-99 -30 381 231 185 152 
-98 -30 382 234 188 155 
-98 -30 382 239 190 158 
-97 -30 382 241 192 160 
-97 -30 383 242 191 162 
-96 -30 383 242 191 162 
-96 -30 383 244 193 166 
-95 -30 383 245 194 167 
-94 -30 383 245 195 170 
-94 -30 383 248 198 173 
-93 -30 383 247 200 174 
-93 -30 384 247 200 174 
-92 -30 384 249 199 172 
-91 -30 384 245 195 168 
-91 -30 385 239 190 158 
-90 -30 385 239 190 158 
-90 -30 385 236 190 156 
-89 -30 386 230 184 150 
-89 -30 386 235 177 139 
-88 -30 387 231 173 135 
-88 -30 387 224 175 135 
-87 -30 387 221 172 132 
-87 -31 388 217 170 128 
-86 -31 389 217 170 128 
-86 -31 389 218 165 123 
-85 -31 390 214 161 119 
-85 -31 390 213 153 117 
-84 -31 391 207 147 111 
-84 -31 392 203 144 112 
-83 -31 392 194 135 103 
-83 -31 393 178 127 96 
-82 -31 394 181 130 99 
-82 -31 395 180 134 101 
-81 -31 395 170 124 91 
-81 -31 396 159 112 82 
-81 -31 397 152 105 75 
-80 -31 398 137 105 90 
-103 -30 383 188 158 150 
-102 -29 382 201 171 163 
-101 -29 382 217 179 160 
-101 -29 381 221 183 164 
-100 -29 381 227 182 153 
-99 -29 381 228 183 154 
-99 -29 381 236 187 155 
-98 -29 381 237 188 156 
-98 -29 382 243 192 161 
-97 -29 382 246 195 164 
-97 -29 382 246 195 166 
-96 -30 383 246 195 166 
-96 -30 383 246 195 168 
-95 -30 383 246 195 168 
-94 -30 383 246 196 171 
-94 -30 383 248 198 173 
-93 -30 383 250 200 173 
-92 -30 383 246 196 169 
-92 -30 384 245 196 166 
-91 -30 384 242 193 163 
-91 -30 385 236 187 154 
-90 -30 385 236 187 154 
-90 -30 385 234 186 150 
-89 -30 386 227 179 143 
-89 -30 387 232 172 136 
-88 -30 387 229 169 133 
-88 -30 387 222 170 131 
-87 -30 388 218 166 127 
-87 -30 388 213 164 121 
-86 -30 389 212 163 120 
-86 -30 390 215 156 112 
-85 -30 390 210 151 107 
-85 -30 391 207 143 107 
-85 -30 392 202 138 102 
-84 -30 392 191 134 104 
-84 -30 393 186 129 99 
-83 -30 394 179 130 100 
-83 -31 395 178 129 99 
-82 -31 395 167 123 88 
-82 -31 396 157 113 78 
-81 -31 397 142 104 83 
-81 -31 398 139 101 80 
-104 -29 384 166 139 132 
-103 -29 382 186 159 152 
-102 -29 381 200 167 152 
-101 -29 380 211 178 163 
-101 -29 380 223 181 157 
-100 -29 380 227 185 161 
-100 -29 380 233 186 158 
-99 -29 380 235 188 160 
-98 -29 380 243 192 161 
-98 -29 380 243 192 161 
-97 -29 381 243 194 164 
-97 -29 381 246 197 167 
-96 -29 381 249 198 169 
-96 -29 382 249 198 169 
-95 -29 382 249 198 171 
-95 -29 383 247 196 169 
-94 -29 383 245 195 168 
-94 -29 383 246 196 169 
-93 -29 383 247 197 170 
-92 -29 383 242 192 165 
-92 -29 383 240 189 158 
-91 -29 384 238 187 156 
-91 -29 385 235 185 150 
-90 -29 385 235 185 150 
-90 -29 386 231 181 144 
-89 -29 386 223 173 136 
-89 -29 387 220 168 129 
-88 -29 387 215 163 124 
-88 -29 388 215 160 119 
-87 -29 388 211 156 115 
-87 -29 389 212 151 107 
-87 -29 390 211 150 106 
-86 -29 390 206 143 100 
-86 -30 391 200 137 94 
-85 -30 392 195 133 96 
-85 -30 392 191 129 92 
-84 -30 393 179 123 90 
-84 -30 394 175 119 86 
-83 -30 395 170 121 91 
-83 -30 395 165 116 86 
-82 -30 396 151 107 80 
-82 -30 397 143 99 72 
-81 -30 397 130 110 101 
-105 -28 384 176 151 147 
-104 -28 382 196 164 153 
-103 -28 381 202 170 159 
-102 -28 380 212 174 153 
-101 -28 379 218 180 159 
-101 -28 379 227 183 158 
-100 -28 379 234 190 165 
-99 -28 379 242 192 165 
-99 -28 379 242 192 165 
-98 -28 380 248 197 168 
-98 -28 380 247 196 167 
-97 -28 380 245 196 166 
-97 -28 381 245 196 166 
-96 -28 381 246 199 169 
-96 -28 381 247 200 170 
-95 -28 381 248 198 171 
-95 -28 382 246 196 169 
-94 -28 382 245 195 168 
-93 -28 382 242 192 165 
-93 -28 383 243 192 163 
-92 -28 383 239 188 159 
-92 -28 383 236 186 153 
-91 -28 384 234 184 151 
-91 -28 385 231 181 144 
-90 -28 385 229 179 142 
-90 -29 386 227 175 135 
-90 -29 387 221 169 129 
-89 -29 388 214 165 125 
-89 -29 388 206 157 117 
-88 -29 388 209 151 105 
-88 -29 389 203 145 99 
-87 -29 389 202 138 92 
-87 -29 390 199 135 89 
-86 -29 391 192 130 91 
-86 -29 392 186 124 85 
-85 -29 392 181 118 83 
-85 -29 393 181 118 83 
-84 -29 394 177 114 81 
-84 -29 395 171 108 75 
-84 -29 396 155 108 80 
-83 -29 397 151 104 76 
-82 -29 397 138 107 89 
-105 -28 382 173 143 133 
-104 -28 382 200 170 160 
-104 -27 381 214 177 158 
-103 -27 380 213 176 157 
-102 -27 379 223 181 156 
-101 -27 379 226 184 159 
-101 -27 379 233 187 161 
-100 -27 379 240 194 168 
-99 -27 379 244 194 169 
-99 -27 379 244 194 169 
-98 -27 380 247 197 170 
-98 -27 380 247 197 170 
-97 -27 380 245 198 168 
-97 -27 380 244 197 167 
-96 -28 381 244 199 170 
-96 -28 381 246 201 172 
-95 -28 381 246 199 171 
-94 -28 381 244 197 169 
-94 -28 382 242 192 165 
-93 -28 382 236 186 159 
-93 -28 383 237 186 155 
-92 -28 383 236 185 154 
-92 -28 383 236 183 149 
-91 -28 384 232 179 145 
-91 -28 385 226 174 134 
-90 -28 385 222 170 130 
-90 -28 386 219 166 124 
-90 -28 387 216 163 121 
-89 -28 387 214 156 116 
-89 -28 388 206 148 108 
-88 -28 388 204 143 96 
-88 -28 389 198 137 90 
-87 -28 390 190 129 84 
-87 -28 391 186 125 80 
-86 -28 392 178 120 83 
-86 -28 392 173 115 78 
-85 -28 393 175 112 81 
-85 -28 394 172 109 78 
-85 -29 395 166 105 77 
-84 -29 396 162 101 73 
-84 -29 397 143 106 87 
-83 -29 398 145 108 89 
-83 -29 398 129 120 111 
-106 -27 383 177 148 142 
-105 -27 381 198 162 148 
-104 -27 380 213 177 163 
-103 -27 379 220 178 154 
-102 -27 379 221 179 155 
-102 -27 378 229 184 155 
-101 -27 378 231 186 157 
-100 -27 378 237 190 164 
-100 -27 378 241 194 168 
-99 -27 379 244 197 171 
-99 -27 379 245 198 172 
-98 -27 379 249 199 174 
-98 -27 380 250 200 175 
-97 -27 380 246 201 172 
-97 -27 380 244 199 170 
-96 -27 380 244 199 170 
-96 -27 381 244 199 170 
-95 -27 381 244 197 169 
-94 -27 381 241 194 166 
-94 -27 381 239 188 159 
-93 -27 382 234 183 154 
-93 -27 382 236 183 152 
-92 -27 383 234 181 150 
-92 -27 383 233 179 143 
-91 -27 384 227 173 137 
-91 -27 385 221 166 125 
-90 -27 385 216 161 120 
-90 -27 386 214 157 114 
-90 -27 387 210 153 110 
-89 -27 388 208 145 104 
-89 -27 388 199 136 95 
-88 -27 389 192 130 89 
-88 -27 389 186 124 83 
-87 -28 390 178 116 75 
-87 -28 391 173 111 70 
-86 -28 392 169 105 69 
-86 -28 393 166 102 66 
-86 -28 394 167 107 79 
-85 -28 395 161 101 73 
-85 -28 396 144 102 86 
-84 -28 397 144 102 86 
-84 -28 398 128 113 106 
-107 -26 383 190 157 150 
-105 -26 381 204 171 164 
-105 -26 380 213 176 158 
-104 -26 379 223 186 168 
-103 -26 379 230 186 157 
-102 -26 378 231 187 158 
-102 -26 378 235 186 156 
-101 -26 378 239 190 160 
-100 -26 378 243 193 166 
-100 -26 378 245 195 168 
-99 -26 378 247 199 176 
-99 -26 378 250 202 179 
-98 -26 379 251 201 176 
-98 -26 379 250 200 175 
-97 -26 380 246 201 172 
-97 -26 380 244 199 170 
-96 -26 380 243 198 169 
-96 -26 381 241 196 167 
-95 -26 381 241 194 166 
-94 -26 381 238 191 163 
-94 -26 382 238 187 158 
-93 -26 382 235 184 155 
-93 -26 382 235 180 149 
-92 -26 383 232 177 146 
-92 -27 384 228 174 138 
-91 -27 384 222 168 132 
-91 -27 385 216 161 120 
-91 -27 386 212 157 116 
-90 -27 386 211 152 108 
-90 -27 387 204 145 101 
-89 -27 388 201 138 95 
-89 -27 389 191 128 85 
-88 -27 389 183 120 85 
-88 -27 390 177 114 79 
-87 -27 391 175 106 73 
-87 -27 391 170 101 68 
-86 -27 392 169 97 59 
-86 -27 394 167 95 57 
-86 -27 394 152 98 70 
-85 -27 396 154 100 72 
-85 -27 397 131 114 106 
-85 -27 398 136 119 111 
-84 -28 399 120 125 128 
-84 -28 400 121 126 129 
-107 -26 382 191 156 150 
-106 -26 381 207 169 156 
-105 -25 379 213 175 162 
-104 -25 378 221 178 159 
-103 -25 378 225 182 163 
-103 -25 378 234 188 162 
-102 -25 378 236 190 164 
-101 -25 377 241 192 162 
-101 -25 377 241 192 162 
-100 -25 377 240 193 163 
-100 -25 378 242 195 165 
-99 -25 378 246 199 171 
-99 -25 378 248 201 173 
-98 -26 379 247 201 178 
-98 -26 379 246 200 177 
-97 -26 379 251 200 171 
-97 -26 380 249 198 169 
-96 -26 380 242 195 165 
-96 -26 381 238 191 161 
-95 -26 381 235 190 157 
-94 -26 381 233 188 155 
-94 -26 382 233 187 153 
-94 -26 383 232 186 152 
-93 -26 383 233 185 147 
-92 -26 383 225 177 139 
-92 -26 384 222 173 132 
-92 -26 385 216 167 126 
-91 -26 386 215 160 119 
-91 -26 386 205 150 109 
-90 -26 387 202 143 101 
-90 -26 388 197 138 96 
-89 -26 388 187 128 86 
-89 -26 389 180 121 79 
-89 -26 390 177 112 72 
-88 -26 391 169 104 64 
-87 -26 391 172 102 68 
-87 -26 392 169 99 65 
-87 -27 393 157 101 76 
-86 -27 394 155 99 74 
-86 -27 395 133 106 97 
-85 -27 396 138 111 102 
-85 -27 398 122 123 127 
-85 -27 398 124 125 129 
-108 -25 382 167 137 135 
-107 -25 381 189 152 143 
-107 -25 381 208 171 162 
-105 -25 379 219 180 165 
-105 -25 378 221 182 167 
-104 -25 378 228 186 164 
-103 -25 377 232 190 168 
-102 -25 377 237 191 165 
-102 -25 377 238 192 166 
-101 -25 377 242 193 163 
-101 -25 377 242 193 163 
-100 -25 377 245 196 166 
-99 -25 377 247 198 168 
-99 -25 378 247 200 172 
-99 -25 378 248 201 173 
-98 -25 378 247 201 177 
-98 -25 379 244 198 174 
-97 -25 379 248 198 171 
-97 -25 380 245 195 168 
-96 -25 380 238 191 161 
-95 -25 380 235 188 158 
-95 -25 381 232 187 154 
-94 -25 381 231 186 153 
-94 -25 382 229 183 149 
-94 -25 383 227 181 147 
-93 -25 383 228 180 142 
-93 -25 384 221 173 135 
-92 -25 385 220 168 128 
-92 -25 386 212 160 120 
-91 -25 386 207 152 111 
-91 -25 387 195 140 99 
-91 -26 388 190 131 89 
-90 -26 388 184 125 83 
-90 -26 389 180 116 80 
-89 -26 390 175 111 75 
-89 -26 391 168 102 67 
-88 -26 391 159 93 58 
-88 -26 392 154 97 68 
-87 -26 393 153 96 67 
-87 -26 394 139 107 92 
-86 -26 395 142 110 95 
-86 -26 396 127 119 116 
-86 -26 397 129 121 118 
-108 -24 381 182 149 144 
-108 -24 380 198 165 160 
-107 -24 379 211 171 159 
-106 -24 379 219 179 167 
-105 -24 378 226 185 167 
-105 -24 378 229 188 170 
-104 -24 378 233 188 165 
-103 -24 377 235 190 167 
-102 -24 377 240 193 165 
-102 -24 377 240 193 165 
-101 -24 377 245 196 166 
-101 -24 377 244 195 165 
-100 -24 377 246 197 167 
-99 -24 377 247 198 168 
-99 -24 377 245 198 172 
-99 -24 378 245 198 172 
-98 -24 378 245 197 174 
-97 -24 378 243 195 172 
-97 -24 379 245 198 170 
-97 -24 380 241 194 166 
-96 -24 381 234 189 158 
-96 -24 381 231 186 155 
-95 -24 381 230 185 152 
-95 -24 382 228 183 150 
-94 -25 383 224 178 142 
-94 -25 383 220 174 138 
-93 -25 384 222 172 135 
-93 -25 384 215 165 128 
-92 -25 385 211 159 119 
-92 -25 386 202 150 110 
-92 -25 387 198 143 104 
-91 -25 388 187 132 93 
-91 -25 388 182 123 83 
-90 -25 389 177 118 78 
-90 -25 390 171 104 77 
-89 -25 391 167 100 73 
-89 -25 391 158 97 69 
-88 -25 392 154 93 65 
-88 -25 393 143 106 87 
-87 -25 393 146 109 90 
-87 -25 394 127 124 119 
-87 -25 396 132 129 124 
-86 -26 398 118 129 133 
-109 -24 380 187 168 170 
-108 -24 380 208 167 161 
-107 -24 379 214 173 167 
-106 -24 378 218 175 158 
-106 -24 377 226 183 166 
-105 -24 377 229 184 163 
-104 -24 377 232 187 166 
-104 -24 377 240 194 170 
-103 -23 376 243 197 173 
-102 -23 376 244 199 170 
-102 -24 377 245 200 171 
-101 -23 376 247 200 172 
-101 -24 377 246 199 171 
-100 -24 377 246 199 171 
-99 -24 377 246 199 171 
-99 -24 377 245 198 172 
-99 -24 378 243 196 170 
-98 -24 378 243 195 173 
-97 -24 378 243 195 173 
-97 -24 379 243 198 169 
-97 -24 380 238 193 164 
-96 -24 381 232 187 156 
-96 -24 381 228 183 152 
-95 -24 382 227 181 147 
-95 -24 382 223 177 143 
-94 -24 383 220 172 134 
-94 -24 383 215 167 129 
-93 -24 384 217 165 126 
-93 -24 385 209 157 118 
-92 -24 385 203 149 111 
-92 -24 386 193 139 101 
-92 -24 387 189 133 96 
-91 -24 388 178 122 85 
-91 -24 388 172 114 77 
-90 -24 389 166 108 71 
-90 -24 390 161 99 76 
-89 -24 391 157 95 72 
-89 -25 392 141 98 79 
-89 -25 393 143 100 81 
-88 -25 393 132 119 110 
-88 -25 394 134 121 112 
-87 -25 395 117 129 129 
-87 -25 397 118 130 130 
-87 -25 398 113 130 137 
-109 -23 379 173 149 147 
-108 -23 378 175 151 149 
-108 -23 378 208 164 153 
-107 -23 378 224 180 169 
-106 -23 378 231 184 164 
-106 -23 377 235 188 168 
-105 -23 377 239 193 170 
-104 -23 376 244 198 175 
-103 -23 376 243 197 173 
-103 -23 376 242 196 172 
-102 -23 376 246 200 174 
-102 -23 376 248 202 176 
-101 -23 376 246 200 174 
-101 -23 377 244 198 172 
-100 -23 377 242 196 170 
-99 -23 377 241 195 169 
-99 -23 377 243 195 172 
-99 -23 378 241 193 170 
-98 -23 378 239 191 168 
-98 -23 379 239 191 168 
-97 -23 379 238 193 162 
-97 -23 380 233 188 157 
-96 -23 380 229 183 150 
-96 -23 381 224 178 145 
-95 -23 382 223 175 139 
-95 -23 383 218 170 134 
-94 -23 383 213 164 124 
-94 -23 384 208 159 119 
-94 -23 385 205 153 114 
-93 -23 385 198 146 107 
-93 -24 386 193 139 103 
-92 -24 387 185 131 95 
-92 -24 387 179 125 91 
-91 -24 388 167 113 79 
-91 -24 389 159 104 73 
-90 -24 390 153 98 67 
-90 -24 391 146 98 78 
-90 -24 392 145 97 77 
-89 -24 393 127 105 94 
-89 -24 394 131 109 98 
-88 -24 394 122 126 125 
-109 -22 378 179 163 164 
-108 -22 377 159 130 124 
-107 -22 377 166 120 104 
-107 -22 377 181 135 119 
-106 -22 376 223 173 150 
-105 -22 376 241 191 168 
-105 -22 376 247 199 176 
-104 -22 376 245 197 174 
-103 -22 376 245 199 175 
-103 -22 376 247 201 177 
-102 -22 376 247 201 175 
-102 -22 376 247 201 175 
-101 -22 376 243 199 172 
-101 -22 377 241 197 170 
-100 -22 377 237 191 165 
-99 -22 377 236 190 164 
-99 -22 378 239 191 168 
-99 -22 378 238 190 167 
-98 -22 378 238 188 163 
-98 -22 379 237 187 162 
-97 -23 380 233 188 157 
-97 -23 380 229 184 153 
-96 -23 381 225 179 145 
-96 -23 382 220 174 140 
-95 -23 382 218 168 131 
-95 -23 383 212 162 125 
-95 -23 384 207 155 116 
-94 -23 385 203 151 112 
-94 -23 385 195 143 106 
-93 -23 386 187 135 98 
-93 -23 387 181 128 96 
-92 -23 387 172 119 87 
-92 -23 388 165 114 87 
-91 -23 389 154 103 76 
-91 -23 390 149 99 74 
-91 -23 391 145 95 70 
-90 -23 391 135 99 85 
-90 -23 393 137 101 87 
-106 -22 376 176 130 106 
-106 -22 376 172 118 94 
-105 -22 376 217 163 139 
-105 -22 376 246 194 170 
-104 -22 376 253 201 177 
-103 -22 376 253 205 182 
-103 -22 376 252 204 181 
-102 -22 376 247 201 175 
-102 -22 376 246 200 174 
-101 -22 376 243 199 172 
-101 -22 377 241 197 170 
-100 -22 377 237 191 165 
-99 -22 377 234 188 162 
-99 -22 378 235 188 162 
-99 -22 378 235 188 162 
-98 -22 378 235 185 158 
-98 -22 379 234 184 157 
-97 -22 380 227 182 149 
-97 -22 381 223 178 145 
-97 -22 382 220 171 138 
-96 -22 382 214 165 132 
-96 -22 383 209 159 122 
-95 -22 383 202 152 115 
-95 -22 384 195 146 106 
-94 -22 385 189 140 100 
-94 -22 386 184 134 99 
-93 -22 387 175 125 90 
-93 -22 387 165 116 86 
-92 -22 388 156 107 77 
-92 -22 389 150 104 81 
-91 -22 389 142 96 73 
-91 -22 390 137 94 77 
-91 -23 392 137 94 77 
-90 -23 393 130 101 93 
-90 -23 393 134 105 97 
-90 -23 395 121 114 108 
-105 -21 376 176 118 94 
-105 -21 376 208 154 130 
-104 -21 376 254 200 176 
-103 -21 376 254 204 179 
-103 -21 376 249 199 174 
-102 -21 376 252 206 180 
-102 -21 376 243 197 171 
-101 -21 376 237 193 166 
-101 -21 377 236 192 165 
-100 -21 377 234 188 162 
-99 -21 377 230 184 158 
-99 -21 378 230 180 153 
-99 -21 378 228 178 151 
-98 -21 379 228 177 148 
-98 -21 379 226 175 146 
-97 -21 380 220 175 142 
-97 -21 381 216 171 138 
-97 -21 382 211 165 131 
-96 -21 383 204 158 124 
-96 -21 383 200 150 113 
-95 -22 384 192 142 105 
-95 -22 384 183 133 96 
-94 -22 386 178 128 91 
-94 -22 387 169 120 87 
-93 -22 387 160 111 78 
-93 -22 388 150 103 77 
-93 -22 389 144 97 71 
-92 -22 390 142 99 82 
-92 -22 390 137 94 77 
-91 -22 391 133 93 81 
-91 -22 392 134 94 82 
-103 -20 376 243 196 170 
-103 -20 376 250 203 177 
-102 -20 376 245 200 171 
-102 -20 376 239 194 165 
-101 -20 376 239 194 161 
-101 -20 377 239 194 161 
-100 -20 377 237 192 159 
-100 -21 378 231 186 153 
-99 -21 378 229 182 152 
-99 -21 379 221 174 144 
-98 -21 379 223 174 142 
-98 -21 380 218 169 137 
-97 -21 381 217 171 137 
-97 -21 381 206 160 126 
-97 -21 382 205 156 123 
-96 -21 383 198 149 116 
-96 -21 384 195 142 111 
-95 -21 384 183 130 99 
-95 -21 385 180 127 96 
-94 -21 386 168 115 84 
-94 -21 387 159 108 81 
-94 -21 388 152 101 74 
-93 -21 389 143 98 75 
-93 -21 389 142 97 74 
-93 -21 391 133 100 81 
-92 -21 392 133 100 81 
-92 -21 392 126 103 87 
-103 -20 376 212 162 137 
-103 -20 376 242 192 167 
-102 -20 376 243 196 166 
-102 -20 377 241 194 164 
-101 -20 377 239 194 161 
-101 -20 377 235 190 157 
-100 -20 378 232 186 153 
-100 -20 378 226 180 147 
-99 -20 379 227 178 146 
-99 -20 379 220 171 139 
-98 -20 380 217 167 134 
-98 -20 381 210 160 127 
-97 -20 381 207 158 125 
-97 -20 382 201 152 119 
-97 -20 383 196 146 113 
-96 -20 384 186 136 103 
-96 -20 384 180 127 96 
-95 -20 385 173 120 89 
-95 -20 386 166 116 89 
-94 -20 386 155 105 78 
-94 -20 388 145 100 77 
-94 -21 389 140 95 72 
-93 -21 389 134 95 78 
-93 -21 390 134 95 78 
-93 -21 391 130 98 83 
-92 -21 392 131 99 84 
-92 -21 393 127 101 86 
-102 -19 376 234 185 155 
-102 -19 376 241 192 162 
-101 -19 377 239 190 158 
-101 -19 377 230 181 149 
-100 -19 378 228 179 147 
-100 -19 378 223 174 142 
-99 -19 379 220 170 137 
-99 -19 379 214 164 131 
-98 -19 380 208 155 121 
-98 -19 381 199 146 112 
-98 -19 381 196 146 113 
-97 -20 382 192 142 109 
-97 -20 383 186 133 102 
-96 -20 384 177 124 93 
-96 -20 385 167 116 89 
-96 -20 386 159 108 81 
-95 -20 387 151 105 82 
-95 -20 388 141 95 72 
-94 -20 388 131 94 78 
-94 -20 389 129 92 76 
-94 -20 390 126 94 81 
-93 -20 391 127 95 82 
-93 -20 392 125 97 85 
-102 -19 376 225 172 141 
-102 -19 377 237 184 153 
-101 -19 377 234 183 152 
-101 -19 377 225 174 143 
-100 -19 378 224 174 141 
-100 -19 379 218 168 135 
-99 -19 379 211 158 124 
-99 -19 380 204 151 117 
-98 -19 380 197 143 107 
-98 -19 381 190 136 100 
-98 -19 382 186 132 98 
-97 -19 383 178 124 90 
-97 -19 384 169 116 85 
-97 -19 385 165 112 81 
-96 -19 386 153 105 82 
-96 -19 387 143 95 72 
-96 -19 388 130 91 74 
-95 -19 389 127 88 71 
-95 -19 390 124 92 79 
-94 -19 390 124 92 79 
-94 -19 391 123 95 84 
-93 -20 394 126 98 87 
-102 -18 377 222 167 136 
-101 -18 377 227 174 142 
-101 -18 378 219 166 134 
-100 -18 378 216 163 131 
-100 -18 379 210 157 125 
-99 -18 379 200 147 113 
-99 -18 380 194 141 107 
-99 -18 381 185 133 96 
-98 -18 382 179 127 90 
-98 -18 383 174 119 88 
-98 -18 384 167 112 81 
-97 -18 385 158 108 83 
-97 -18 386 150 100 75 
-97 -19 387 139 98 80 
-96 -19 388 132 91 73 
-96 -19 389 123 90 75 
-95 -19 390 123 90 75 
-95 -19 391 121 92 78 
-95 -19 392 123 94 80 
-102 -17 377 197 140 110 
-102 -17 378 215 160 130 
-101 -17 378 211 156 126 
-101 -18 379 205 152 121 
-100 -18 380 199 146 115 
-100 -18 380 187 136 105 
-99 -18 380 178 127 96 
-99 -18 381 166 117 85 
-98 -18 382 160 111 79 
-98 -18 383 154 106 83 
-98 -18 384 152 104 81 
-98 -18 386 147 105 83 
-97 -18 387 128 86 64 
-97 -18 388 122 86 70 
-96 -18 389 121 85 69 
-96 -18 390 116 87 73 
-96 -18 391 117 88 74 
-102 -17 377 163 108 78 
-102 -17 378 198 142 115 
-101 -17 379 202 146 119 
-101 -17 380 192 138 110 
-100 -17 380 184 130 102 
-100 -17 380 170 120 93 
-99 -17 381 160 110 83 
-99 -17 382 149 103 77 
-99 -17 383 150 104 78 
-98 -17 384 152 114 101 
-98 -17 385 147 109 96 
-98 -17 386 143 110 95 
-97 -17 387 115 82 67 
-97 -17 389 114 85 69 
-97 -17 390 116 87 71 
-96 -18 392 116 89 72 
-96 -18 394 117 91 76 
-102 -16 378 176 120 93 
-101 -16 379 187 131 104 
-101 -16 380 177 123 97 
-100 -16 380 167 113 87 
-100 -16 382 153 106 80 
-100 -16 382 148 101 75 
-99 -16 383 146 104 80 
-99 -17 384 160 118 94 
-99 -17 385 157 129 125 
-98 -17 386 144 116 112 
-98 -17 387 139 112 101 
-98 -17 389 107 80 69 
-97 -17 390 115 88 71 
-97 -17 391 113 86 69 
-97 -17 392 113 86 69 
-102 -16 378 155 93 72 
-101 -16 379 179 117 96 
-101 -16 380 158 114 87 
-101 -16 381 149 105 78 
-100 -16 382 146 104 90 
-100 -16 383 153 111 97 
-100 -16 384 147 128 124 
-99 -16 385 157 138 134 
-99 -16 386 160 140 142 
-101 -15 379 151 95 80 
-101 -15 380 141 109 94 
-101 -15 382 144 112 97 
-100 -15 383 148 117 112 
-100 -15 384 156 125 120 
-100 -15 385 147 132 135 
-101 -14 378 144 96 82 
-101 -14 380 138 119 113 
-101 -15 381 145 126 120 
-100 -15 383 151 130 135 
-100 -15 384 158 137 142 
-100 -15 385 143 133 141 
-101 -14 379 147 131 131 
-101 -14 381 150 134 134 
