ply
format ascii 1.0
comment Created by CloudCompare v2.10.1 (Zephyrus)
comment Created 2020-05-17 12:34 AM
obj_info Generated by CloudCompare!
element vertex 1201
property float x
property float y
property float z
property uchar red
property uchar green
property uchar blue
end_header
-63 155 358 162 126 100 
-62 155 358 155 119 93 
-62 155 358 107 82 62 
-61 155 358 89 64 44 
-61 155 358 83 69 58 
-64 155 357 174 132 94 
-63 155 357 172 130 92 
-63 155 358 173 135 96 
-62 155 358 175 137 98 
-62 155 358 153 120 87 
-61 155 357 110 77 44 
-60 155 357 79 59 50 
-72 156 360 198 146 107 
-64 155 356 177 135 97 
-64 155 357 184 142 104 
-63 155 357 186 144 106 
-63 155 357 185 150 110 
-62 155 357 185 150 110 
-62 155 357 187 153 118 
-61 155 357 159 125 90 
-60 155 357 92 68 56 
-73 157 361 188 134 96 
-71 155 356 197 143 105 
-69 154 352 198 146 106 
-69 154 352 200 151 108 
-65 155 355 175 132 90 
-65 155 355 181 137 100 
-64 155 356 188 144 107 
-64 156 357 195 151 116 
-63 156 357 198 154 119 
-63 156 357 199 161 122 
-62 156 357 201 163 124 
-62 156 357 208 170 133 
-61 156 357 202 164 127 
-60 156 357 136 107 89 
-60 156 357 112 83 65 
-75 159 363 116 100 87 
-74 158 361 121 105 92 
-73 157 358 144 110 83 
-72 156 356 153 119 92 
-71 155 355 182 128 90 
-70 155 353 192 138 100 
-70 154 352 194 142 102 
-69 154 352 194 142 102 
-68 154 351 195 146 103 
-68 154 351 194 145 102 
-67 155 353 182 137 95 
-66 155 353 182 137 95 
-66 155 354 173 130 88 
-65 155 354 175 132 90 
-65 155 355 189 147 109 
-64 156 356 199 157 119 
-64 156 356 203 160 125 
-63 156 356 207 164 129 
-63 156 356 212 170 130 
-62 156 356 214 172 132 
-62 156 357 211 172 131 
-61 156 357 217 178 137 
-60 156 357 184 152 127 
-60 156 357 157 125 100 
-76 158 359 138 121 111 
-74 156 356 137 120 110 
-74 156 355 141 124 108 
-73 156 354 146 129 113 
-72 155 353 159 127 102 
-71 155 352 157 125 100 
-71 155 352 177 125 86 
-70 155 352 185 133 94 
-70 154 351 190 138 99 
-69 154 351 193 141 102 
-68 154 351 192 143 102 
-68 154 351 189 140 99 
-67 155 352 184 137 95 
-67 155 353 180 135 93 
-66 155 353 180 135 93 
-66 156 354 172 128 89 
-65 156 354 178 134 95 
-65 156 355 198 155 120 
-64 156 355 209 166 131 
-64 157 356 208 168 133 
-63 157 356 211 171 136 
-63 157 356 215 173 131 
-62 157 356 213 171 129 
-61 157 356 213 174 131 
-61 157 356 216 177 134 
-60 157 356 198 168 134 
-60 157 356 176 146 112 
-78 158 359 146 132 119 
-77 157 356 145 131 118 
-76 156 355 149 129 118 
-75 156 353 151 131 120 
-74 155 352 153 133 122 
-74 155 352 156 136 125 
-73 155 351 163 142 123 
-72 155 351 168 147 128 
-72 155 351 172 142 116 
-71 155 351 160 130 104 
-70 154 350 168 118 81 
-70 154 350 170 120 83 
-69 154 350 174 125 85 
-69 155 351 179 130 90 
-68 155 351 182 135 93 
-68 155 351 181 134 92 
-67 155 351 180 135 93 
-67 155 352 182 137 95 
-67 156 353 181 139 97 
-66 156 353 181 139 97 
-65 156 353 177 135 95 
-65 156 354 187 145 105 
-65 157 355 206 166 130 
-64 157 355 215 175 139 
-64 157 355 213 175 139 
-63 157 355 214 176 140 
-62 157 355 218 180 135 
-62 157 355 216 178 133 
-61 157 355 218 181 139 
-61 157 356 217 180 138 
-60 157 356 208 180 143 
-60 157 356 195 167 130 
-59 158 357 156 135 114 
-59 158 357 150 129 108 
-78 157 355 149 133 118 
-77 156 352 152 136 121 
-76 155 351 157 141 125 
-75 155 350 160 144 128 
-75 154 349 173 146 135 
-74 154 349 175 148 137 
-73 154 348 179 153 140 
-73 154 349 183 157 144 
-72 154 348 185 160 138 
-72 154 349 187 162 140 
-71 154 349 191 157 130 
-71 154 349 181 147 120 
-70 154 349 173 128 89 
-70 155 350 169 124 85 
-69 155 350 168 120 80 
-69 155 350 173 125 85 
-68 155 351 176 131 89 
-68 155 351 177 132 90 
-67 155 351 182 139 96 
-67 156 352 188 145 102 
-66 156 352 188 146 104 
-66 156 353 188 146 104 
-65 156 353 188 146 104 
-65 156 353 200 158 116 
-64 157 354 215 176 137 
-64 157 354 223 184 145 
-63 157 354 222 184 148 
-63 157 355 222 184 148 
-62 157 355 218 181 137 
-62 157 355 219 182 138 
-61 157 355 218 180 143 
-61 158 356 218 180 143 
-60 158 356 217 184 149 
-60 158 357 210 177 142 
-59 158 357 167 143 117 
-59 159 358 154 130 104 
-80 158 356 153 133 124 
-79 156 352 159 135 125 
-78 156 351 163 139 129 
-77 155 349 163 144 127 
-76 154 348 168 149 132 
-76 154 348 174 156 136 
-75 154 347 178 160 140 
-74 154 346 188 158 147 
-73 154 346 190 160 149 
-73 154 347 193 164 148 
-73 154 347 195 166 150 
-72 154 347 195 167 143 
-71 154 347 195 167 143 
-71 155 348 204 167 138 
-71 155 348 202 165 136 
-70 155 348 202 157 118 
-70 155 349 194 149 110 
-69 155 350 186 141 100 
-69 155 350 188 143 102 
-68 155 350 191 146 104 
-68 156 351 189 144 102 
-67 156 351 192 151 107 
-67 156 351 202 161 117 
-66 156 352 198 160 115 
-66 156 352 196 158 113 
-65 156 352 197 158 115 
-65 157 353 208 169 126 
-64 157 353 219 180 139 
-64 157 354 225 186 145 
-63 157 354 227 189 152 
-63 157 354 227 189 152 
-62 157 354 225 186 143 
-62 158 355 224 185 142 
-61 158 356 224 181 149 
-61 158 356 226 183 151 
-60 158 356 215 179 147 
-60 159 357 212 176 144 
-59 159 358 178 152 125 
-81 158 354 158 138 131 
-80 157 352 165 145 138 
-79 156 350 171 150 133 
-79 155 349 170 149 132 
-78 155 348 174 150 126 
-77 155 347 175 151 127 
-76 154 346 178 148 120 
-76 154 346 182 152 124 
-75 154 346 191 157 129 
-75 154 346 193 159 131 
-74 154 345 194 160 133 
-73 154 345 195 161 134 
-73 154 346 198 164 139 
-72 154 346 200 166 141 
-72 154 346 199 168 139 
-71 155 347 200 169 140 
-71 155 347 200 170 134 
-70 155 347 199 169 133 
-70 155 348 209 163 129 
-69 155 348 209 163 129 
-69 156 349 208 162 126 
-69 156 350 207 161 125 
-68 156 350 207 164 122 
-68 156 350 208 165 123 
-67 156 351 212 171 127 
-67 156 351 218 177 133 
-66 156 351 212 174 129 
-66 157 352 205 167 122 
-65 157 352 201 162 121 
-65 157 353 210 171 130 
-64 157 353 222 184 147 
-64 157 353 224 186 149 
-63 158 354 222 186 150 
-63 158 354 227 191 155 
-62 158 354 220 189 145 
-62 158 355 221 190 146 
-61 159 356 226 189 145 
-61 159 356 221 184 140 
-60 159 357 211 173 134 
-60 160 358 212 174 135 
-59 160 358 185 153 130 
-82 158 353 182 162 153 
-81 156 349 190 170 161 
-80 155 348 184 166 156 
-79 155 346 181 163 153 
-78 155 346 183 153 129 
-78 155 346 182 152 128 
-77 154 345 184 151 120 
-77 154 345 184 151 120 
-76 154 345 186 151 113 
-75 154 344 188 153 115 
-75 154 344 195 156 117 
-74 154 344 198 159 120 
-74 154 344 199 159 124 
-73 154 345 201 161 126 
-73 154 345 201 162 129 
-72 154 345 202 163 130 
-72 154 345 202 166 130 
-71 155 346 203 167 131 
-71 155 346 204 169 131 
-70 155 347 204 169 131 
-70 155 347 212 168 131 
-69 156 348 213 169 132 
-69 156 348 215 171 132 
-69 156 349 217 173 134 
-68 156 349 220 176 137 
-68 157 350 220 176 137 
-67 157 350 217 178 135 
-67 157 351 219 180 137 
-66 157 351 217 178 137 
-66 157 351 213 174 133 
-65 157 352 208 169 128 
-65 157 352 211 172 131 
-64 158 353 218 180 141 
-64 158 353 223 185 146 
-63 158 354 222 187 149 
-63 159 355 224 189 151 
-62 159 355 224 190 152 
-62 159 356 219 185 147 
-61 159 356 220 183 141 
-61 160 357 218 181 139 
-60 160 357 213 175 138 
-60 160 358 207 169 132 
-60 161 359 179 147 122 
-83 157 351 186 163 157 
-82 156 348 202 179 173 
-81 155 346 208 185 177 
-80 155 345 194 171 163 
-79 154 344 178 157 140 
-79 154 344 176 155 138 
-78 154 344 190 147 115 
-77 154 344 190 147 115 
-77 154 343 191 149 111 
-76 154 343 192 150 112 
-76 154 344 194 151 106 
-75 154 343 196 153 108 
-74 154 343 200 156 109 
-74 154 344 203 159 112 
-74 154 344 205 161 116 
-73 154 344 206 162 117 
-73 155 345 207 162 121 
-72 155 345 207 162 121 
-72 155 345 207 165 125 
-71 155 345 209 167 127 
-71 155 345 208 169 128 
-70 155 346 208 169 128 
-70 156 347 210 167 124 
-69 156 347 211 168 125 
-69 156 348 213 170 128 
-69 157 349 216 173 131 
-68 157 349 219 177 137 
-68 157 350 220 178 138 
-67 157 350 217 178 139 
-67 157 350 216 177 138 
-66 158 351 218 179 140 
-66 158 351 217 178 139 
-65 158 351 213 174 135 
-65 158 352 211 172 133 
-64 158 353 215 177 138 
-64 158 353 222 184 145 
-63 159 354 223 188 146 
-63 159 355 222 187 145 
-62 159 355 224 188 154 
-62 160 356 217 181 147 
-62 160 357 219 181 144 
-61 161 358 213 175 138 
-61 161 359 207 171 135 
-60 162 360 201 165 129 
-82 156 347 197 173 163 
-81 155 345 202 175 166 
-80 154 343 198 171 162 
-80 154 343 195 164 146 
-79 154 342 181 150 132 
-79 154 342 178 143 115 
-78 154 342 180 145 117 
-77 154 342 191 142 101 
-77 154 342 193 144 103 
-76 154 342 195 148 102 
-76 154 342 197 150 104 
-76 154 343 198 152 103 
-75 154 343 199 153 104 
-74 154 342 201 155 106 
-74 154 343 205 159 110 
-73 154 343 207 160 114 
-73 154 343 209 162 116 
-72 155 344 208 163 121 
-72 155 344 209 164 122 
-71 155 344 209 166 124 
-71 155 345 211 168 126 
-70 155 345 211 169 127 
-70 156 346 211 169 127 
-70 156 346 211 169 121 
-69 156 347 212 170 122 
-69 156 347 212 169 126 
-68 157 348 213 170 127 
-68 157 349 214 172 132 
-67 157 349 217 175 135 
-67 158 350 218 175 140 
-67 158 350 218 175 140 
-66 158 350 218 178 142 
-66 158 351 220 180 144 
-65 158 351 218 178 142 
-65 159 352 214 174 138 
-64 159 353 216 177 136 
-64 159 353 222 183 142 
-63 159 354 224 187 143 
-63 160 355 222 185 141 
-63 160 356 221 182 149 
-62 161 357 219 180 147 
-62 161 357 218 180 144 
-61 162 359 218 180 144 
-61 162 360 208 172 140 
-85 158 351 196 171 166 
-83 156 345 203 174 166 
-82 155 343 199 170 162 
-81 154 342 187 152 132 
-80 154 342 179 144 124 
-80 154 342 191 148 114 
-79 154 342 190 147 113 
-79 154 342 195 143 106 
-78 154 342 194 142 105 
-77 154 342 194 142 92 
-77 154 342 197 145 95 
-76 154 342 200 150 101 
-76 154 342 204 154 105 
-75 154 342 202 155 109 
-75 154 342 204 157 111 
-74 154 342 205 161 116 
-74 154 342 207 163 118 
-73 155 343 207 162 120 
-73 155 343 209 164 122 
-72 155 343 210 165 123 
-72 155 344 211 166 124 
-71 155 344 211 168 125 
-71 155 344 212 169 126 
-70 156 345 210 169 125 
-70 156 346 210 169 125 
-70 156 346 212 170 120 
-69 156 346 212 170 120 
-69 157 347 212 169 124 
-68 157 348 213 170 125 
-68 157 348 214 171 129 
-67 158 349 217 174 132 
-67 158 349 219 177 139 
-66 158 350 219 177 139 
-66 159 351 220 177 142 
-66 159 351 220 177 142 
-65 159 351 216 176 140 
-65 159 352 212 172 136 
-64 160 353 212 173 134 
-64 160 354 216 177 138 
-63 160 354 218 179 138 
-63 161 355 218 179 138 
-63 161 357 219 180 147 
-62 162 358 221 182 149 
-62 162 359 212 176 144 
-84 157 346 192 161 156 
-83 155 343 190 159 154 
-82 155 342 192 154 141 
-81 154 341 183 145 132 
-81 154 341 181 136 103 
-80 154 341 183 138 105 
-79 154 340 196 143 99 
-79 154 340 195 142 98 
-78 154 341 201 140 95 
-78 155 341 204 143 98 
-77 155 341 197 145 87 
-77 155 341 200 148 90 
-76 155 341 204 152 102 
-76 155 342 208 156 106 
-75 155 342 209 160 117 
-75 155 342 211 162 119 
-74 155 342 209 164 122 
-74 155 342 209 164 122 
-73 155 342 209 166 123 
-73 155 343 209 166 123 
-72 155 343 211 169 121 
-72 155 343 212 170 122 
-71 155 343 212 170 122 
-71 156 344 211 169 121 
-70 156 344 210 168 120 
-70 156 345 209 167 119 
-70 157 346 209 165 116 
-69 157 346 209 165 116 
-69 157 347 209 167 119 
-68 158 348 210 168 120 
-68 158 348 212 169 126 
-67 158 349 214 171 128 
-67 158 349 216 172 133 
-66 158 349 216 172 133 
-66 159 351 219 177 139 
-66 159 351 218 176 138 
-65 159 351 213 173 137 
-65 160 352 209 169 133 
-64 160 353 208 168 132 
-64 161 354 213 173 137 
-63 161 355 217 177 141 
-63 162 356 219 179 143 
-63 162 358 209 172 145 
-63 163 360 195 158 131 
-84 156 344 180 150 139 
-83 155 342 187 149 130 
-82 155 341 177 139 120 
-81 155 340 184 137 107 
-81 155 340 179 132 102 
-80 155 340 187 134 92 
-79 154 339 194 141 99 
-79 154 339 201 143 93 
-78 154 339 199 141 91 
-78 155 340 201 141 87 
-78 155 340 204 144 90 
-77 155 340 202 150 92 
-77 155 341 207 155 97 
-76 155 341 209 157 107 
-76 155 341 212 160 110 
-75 155 341 211 162 119 
-75 155 341 212 163 120 
-74 156 342 209 164 122 
-74 156 342 208 163 121 
-73 156 342 209 169 120 
-73 156 342 209 169 120 
-72 156 342 209 169 118 
-72 156 343 211 171 120 
-71 156 343 211 169 119 
-71 156 344 210 168 118 
-70 156 344 210 166 119 
-70 157 345 210 166 119 
-69 157 345 208 164 115 
-69 157 346 208 164 115 
-68 157 346 208 166 118 
-68 158 347 209 167 119 
-68 158 348 210 168 120 
-67 158 348 212 170 122 
-67 159 349 214 171 126 
-66 159 349 215 172 127 
-66 160 351 217 175 133 
-66 160 351 217 175 133 
-65 160 352 213 174 135 
-65 161 353 207 168 129 
-64 161 353 203 165 129 
-64 162 355 209 171 135 
-64 162 356 215 174 144 
-84 156 343 178 145 130 
-83 155 340 172 139 124 
-82 155 339 181 138 104 
-82 155 339 183 140 106 
-81 155 339 190 138 91 
-81 155 339 189 137 90 
-80 155 339 200 142 92 
-79 155 339 202 144 94 
-79 155 339 201 144 89 
-78 155 339 203 146 91 
-78 155 339 200 149 86 
-78 155 340 202 151 88 
-77 155 340 205 153 96 
-76 155 340 211 159 102 
-76 155 340 212 162 111 
-75 155 340 212 162 111 
-75 155 340 213 164 121 
-74 155 340 214 165 122 
-74 156 341 211 168 123 
-73 156 341 212 169 124 
-73 156 341 208 171 119 
-73 156 342 207 170 118 
-72 156 342 207 170 117 
-71 156 342 208 171 118 
-71 157 343 211 169 119 
-71 157 344 209 167 117 
-70 157 344 212 165 121 
-70 157 344 214 167 123 
-69 158 345 208 164 117 
-69 158 345 207 163 116 
-68 158 346 207 165 115 
-68 158 347 209 167 117 
-68 158 347 208 166 116 
-67 159 348 209 167 117 
-67 159 349 212 170 122 
-66 159 349 213 171 123 
-66 160 351 210 169 125 
-66 161 352 213 172 128 
-65 161 352 209 171 132 
-65 162 354 201 163 124 
-65 162 355 193 154 121 
-86 159 347 177 137 112 
-85 156 342 174 134 109 
-83 156 340 177 132 93 
-83 155 339 177 132 93 
-82 155 338 186 133 91 
-81 155 338 188 135 93 
-81 155 338 191 133 93 
-80 155 338 195 137 97 
-80 155 338 199 141 95 
-79 155 338 200 142 96 
-79 155 338 199 147 90 
-78 155 338 202 150 93 
-78 155 339 201 153 87 
-77 155 339 202 154 88 
-77 155 339 209 154 97 
-76 156 340 213 158 101 
-76 156 340 213 161 104 
-75 156 340 213 161 104 
-75 156 340 211 164 112 
-74 156 340 213 166 114 
-74 156 340 210 168 120 
-73 156 341 213 171 123 
-73 156 341 212 171 125 
-72 156 341 211 170 124 
-72 157 342 212 169 124 
-71 157 342 211 168 123 
-71 157 342 212 168 121 
-71 157 343 212 168 121 
-70 158 344 213 167 118 
-70 158 344 213 167 118 
-69 158 345 215 168 124 
-69 158 345 210 163 119 
-68 159 346 209 162 118 
-68 159 347 211 164 120 
-68 159 347 209 162 120 
-67 159 348 211 164 122 
-67 160 349 214 165 122 
-66 160 349 214 165 122 
-66 161 351 214 167 123 
-66 161 352 215 168 124 
-65 162 353 211 168 126 
-65 163 355 203 160 118 
-65 163 356 187 149 113 
-88 161 350 172 137 109 
-85 157 341 175 135 99 
-84 156 340 172 132 96 
-83 156 339 180 131 88 
-82 155 338 180 131 88 
-82 155 337 185 131 85 
-81 155 337 188 134 88 
-81 155 337 194 138 91 
-80 155 337 198 142 95 
-80 155 337 201 143 93 
-79 155 337 202 144 94 
-79 155 338 202 150 93 
-78 155 338 206 154 97 
-78 155 338 206 158 96 
-77 155 338 206 158 96 
-77 156 339 209 157 99 
-76 156 339 212 160 102 
-76 156 339 213 162 105 
-75 156 340 214 163 106 
-75 156 340 212 165 111 
-74 156 340 213 166 112 
-74 156 340 213 169 120 
-73 156 340 215 171 122 
-73 157 341 215 173 125 
-72 157 341 214 172 124 
-72 157 341 213 169 120 
-71 157 342 212 168 119 
-71 157 342 214 168 118 
-71 158 343 214 168 118 
-70 158 343 213 167 117 
-70 158 344 212 166 116 
-69 158 344 210 166 119 
-69 159 345 208 164 117 
-68 159 346 208 164 117 
-68 160 347 208 164 117 
-68 160 347 206 162 117 
-67 160 348 206 162 117 
-67 160 349 206 162 117 
-66 161 350 205 161 116 
-66 162 352 207 164 122 
-66 162 353 207 164 122 
-66 163 354 201 163 126 
-87 159 345 173 131 91 
-85 157 341 177 135 95 
-84 156 339 179 135 90 
-84 156 338 178 134 89 
-83 156 338 186 135 88 
-82 155 337 185 134 87 
-82 155 337 185 132 82 
-81 155 337 190 137 87 
-81 155 337 199 144 90 
-80 155 337 204 149 95 
-80 155 337 207 152 96 
-79 155 337 207 152 96 
-78 155 337 206 155 98 
-78 155 337 210 159 102 
-78 156 338 211 162 106 
-77 156 338 210 161 105 
-77 156 338 212 161 104 
-76 156 338 213 162 105 
-75 156 338 215 164 107 
-75 156 339 217 166 109 
-75 156 339 214 167 113 
-74 156 339 214 167 113 
-74 157 340 216 170 120 
-73 157 340 217 171 121 
-73 157 340 217 174 123 
-72 157 341 215 172 121 
-72 157 341 216 170 120 
-71 157 341 215 169 119 
-71 158 342 215 169 117 
-71 158 343 214 168 116 
-70 158 343 212 165 113 
-70 158 343 210 163 111 
-69 159 344 208 166 118 
-69 159 345 205 163 115 
-68 160 346 204 162 114 
-68 160 347 203 161 113 
-68 161 348 201 158 113 
-67 161 348 201 158 113 
-67 161 350 200 158 116 
-67 162 351 199 157 115 
-66 163 353 194 156 120 
-87 158 342 166 135 106 
-86 157 340 177 133 88 
-85 156 338 180 136 91 
-84 156 338 186 138 90 
-83 156 337 187 139 91 
-83 156 337 192 140 90 
-82 156 337 191 139 89 
-81 155 336 191 138 84 
-81 155 336 197 144 90 
-80 155 336 203 150 96 
-80 155 336 208 155 101 
-79 155 336 212 159 105 
-79 155 336 211 158 104 
-78 156 337 209 160 104 
-78 156 337 212 163 107 
-77 156 337 212 165 111 
-77 156 337 212 165 111 
-77 156 338 215 166 110 
-76 156 338 214 165 109 
-75 156 338 215 166 110 
-75 157 339 217 168 112 
-75 157 339 216 169 115 
-74 157 339 216 169 115 
-74 157 340 217 170 118 
-73 157 340 217 170 118 
-73 157 340 218 172 120 
-72 158 341 216 170 118 
-72 158 341 215 169 117 
-71 158 341 215 169 117 
-71 158 342 216 169 117 
-70 158 342 215 168 116 
-70 159 343 212 165 113 
-69 159 343 210 163 111 
-69 159 344 205 163 115 
-69 160 345 202 160 112 
-68 160 346 201 159 111 
-68 161 347 200 158 110 
-68 161 348 197 156 110 
-67 162 349 198 157 111 
-67 162 350 194 156 117 
-67 163 352 190 152 113 
-89 162 350 169 133 97 
-86 157 339 173 137 101 
-85 157 338 185 136 95 
-84 156 337 185 136 95 
-84 156 337 189 141 93 
-83 156 337 191 143 95 
-82 156 336 197 147 94 
-82 156 336 198 148 95 
-81 156 336 199 148 93 
-81 156 336 204 153 98 
-80 156 336 207 156 103 
-80 156 336 211 160 107 
-79 155 335 213 163 112 
-79 156 336 213 163 112 
-78 156 336 211 164 110 
-78 156 336 214 167 113 
-77 156 336 216 170 111 
-77 156 337 216 170 111 
-76 156 337 216 169 115 
-76 157 338 215 168 114 
-75 157 338 215 168 114 
-75 157 338 216 169 115 
-75 157 339 218 171 117 
-74 157 339 218 171 117 
-74 157 339 218 171 117 
-73 158 340 218 171 117 
-73 158 340 220 173 119 
-72 158 340 218 171 117 
-72 158 341 214 168 116 
-71 158 341 213 167 115 
-71 158 341 213 167 117 
-70 159 342 212 166 116 
-70 159 343 209 166 115 
-69 159 343 208 165 114 
-69 160 344 203 161 111 
-69 160 345 200 158 108 
-68 161 346 200 158 110 
-68 161 347 200 158 110 
-68 162 348 195 156 113 
-68 163 350 192 153 110 
-67 163 352 183 149 114 
-89 160 345 167 130 101 
-86 158 339 174 135 94 
-85 157 337 180 141 100 
-85 156 336 188 139 99 
-84 156 336 188 139 99 
-84 156 336 191 143 95 
-83 156 336 196 148 100 
-82 156 336 202 155 99 
-82 156 336 204 157 101 
-81 156 336 206 157 99 
-81 156 335 209 160 102 
-80 156 336 210 160 107 
-80 156 335 212 162 109 
-79 156 335 213 165 116 
-79 156 335 214 166 117 
-78 156 336 215 168 114 
-78 156 336 218 171 117 
-77 156 336 219 173 114 
-77 157 337 218 172 113 
-76 157 337 217 171 119 
-76 157 337 217 171 119 
-75 157 338 216 170 118 
-75 157 338 217 171 119 
-74 157 338 220 173 119 
-74 158 339 220 173 119 
-74 158 339 220 173 119 
-73 158 340 220 173 119 
-73 158 340 220 173 119 
-72 158 340 218 171 117 
-72 159 341 213 170 119 
-71 159 341 211 168 117 
-71 159 341 209 167 117 
-70 159 342 207 165 115 
-70 160 343 205 165 116 
-70 160 344 204 164 115 
-69 161 345 202 160 112 
-69 161 346 198 156 108 
-68 161 346 198 157 111 
-68 162 348 197 156 110 
-68 163 349 188 150 111 
-87 158 339 176 138 102 
-86 157 337 181 140 94 
-85 157 336 185 144 98 
-84 156 335 192 143 100 
-84 156 335 195 146 103 
-83 156 335 196 150 100 
-83 156 335 202 156 106 
-82 156 335 208 163 106 
-82 156 335 210 165 108 
-81 156 335 211 165 106 
-81 156 335 211 165 106 
-80 156 335 213 166 112 
-80 156 335 214 167 113 
-79 156 335 216 170 121 
-78 156 335 217 171 122 
-78 156 335 219 171 122 
-78 157 336 220 172 123 
-77 157 336 221 174 120 
-77 157 336 220 173 119 
-76 157 337 218 175 122 
-76 157 337 217 174 121 
-75 157 337 217 174 121 
-75 158 338 217 174 121 
-74 158 338 221 174 120 
-74 158 338 221 174 120 
-74 158 339 221 174 118 
-73 158 339 219 172 116 
-72 158 339 219 172 118 
-72 159 340 218 171 117 
-72 159 340 212 170 120 
-71 159 341 210 168 118 
-71 160 342 205 167 120 
-70 160 342 203 165 118 
-70 160 343 199 162 117 
-70 161 344 197 160 115 
-69 161 345 199 158 114 
-69 162 346 195 154 110 
-69 162 347 190 152 113 
-68 163 349 185 147 108 
-87 159 339 185 146 107 
-86 158 337 186 147 108 
-86 157 336 189 147 99 
-85 157 335 189 147 99 
-84 157 335 196 148 100 
-84 157 335 202 154 106 
-83 156 334 204 158 106 
-82 156 334 208 162 110 
-82 156 334 210 168 110 
-81 156 334 210 168 110 
-81 156 334 214 169 112 
-80 156 334 215 170 113 
-80 156 334 217 171 119 
-79 156 334 217 171 119 
-79 157 335 220 174 125 
-78 157 335 220 174 125 
-78 157 335 219 171 125 
-77 157 335 220 172 126 
-77 157 335 223 172 125 
-77 157 336 223 172 125 
-76 157 336 222 179 126 
-76 158 337 219 176 123 
-75 158 337 218 175 122 
-75 158 337 218 175 122 
-74 158 338 220 175 120 
-74 158 338 221 176 121 
-73 158 338 221 174 118 
-73 159 339 217 170 114 
-72 159 339 218 173 118 
-72 159 340 216 171 116 
-72 159 340 210 170 119 
-71 160 341 208 168 117 
-71 160 342 203 166 121 
-70 160 342 201 164 119 
-70 161 343 196 162 117 
-70 162 345 194 160 115 
-70 162 346 195 156 115 
-69 163 348 191 152 111 
-88 160 340 177 142 112 
-87 158 337 182 143 102 
-86 158 336 183 144 103 
-85 157 335 189 146 101 
-85 157 334 192 149 104 
-84 157 334 198 151 105 
-84 157 334 203 156 110 
-83 157 334 204 160 113 
-82 157 334 206 162 115 
-82 157 334 209 165 116 
-81 157 334 212 168 119 
-81 157 334 215 169 120 
-80 157 334 216 170 121 
-80 157 334 220 172 123 
-79 157 334 222 174 125 
-79 157 335 224 177 125 
-78 157 335 224 177 125 
-78 158 335 223 176 124 
-77 158 335 221 174 122 
-77 158 335 223 173 120 
-77 158 336 224 174 121 
-76 158 336 223 177 128 
-76 158 337 224 178 129 
-75 158 337 222 174 128 
-75 158 337 220 172 126 
-74 159 338 225 173 126 
-74 159 338 223 171 124 
-73 159 338 221 169 119 
-73 159 339 223 171 121 
-73 160 340 219 172 116 
-72 160 340 220 173 117 
-72 160 341 213 174 119 
-71 161 342 209 170 115 
-71 161 342 203 169 121 
-71 161 343 200 166 118 
-70 162 344 194 161 120 
-70 162 345 187 154 113 
-70 163 347 181 152 110 
-90 162 344 176 140 108 
-87 159 337 178 142 110 
-87 158 336 182 143 100 
-86 158 335 183 144 101 
-85 157 334 190 148 100 
-85 157 334 192 150 102 
-84 157 334 199 155 108 
-84 157 334 202 158 111 
-83 157 333 203 159 112 
-82 157 333 205 161 114 
-82 157 333 210 166 119 
-81 158 334 216 172 125 
-81 158 334 221 175 126 
-80 158 334 222 176 127 
-80 158 334 221 175 126 
-79 158 334 223 177 128 
-79 158 334 225 179 129 
-78 158 334 225 179 129 
-78 158 335 223 177 127 
-77 158 335 221 175 125 
-77 158 335 222 175 123 
-77 159 336 223 176 124 
-76 159 336 221 175 125 
-76 159 336 222 176 126 
-75 159 337 220 174 125 
-75 159 337 219 173 124 
-74 159 337 219 173 124 
-74 160 338 217 171 122 
-73 160 338 216 170 120 
-73 160 339 217 171 121 
-73 160 340 216 173 122 
-72 160 340 216 173 122 
-72 161 341 208 171 118 
-71 161 342 205 168 115 
-71 162 343 202 168 120 
-71 162 344 198 164 116 
-71 163 346 190 156 111 
-88 159 337 178 140 104 
-87 159 336 181 143 107 
-86 158 335 186 144 102 
-86 158 335 189 147 105 
-85 158 334 192 152 103 
-85 158 334 193 153 104 
-84 158 334 201 158 115 
-83 158 333 203 160 117 
-83 158 333 204 161 116 
-82 158 333 206 163 118 
-82 158 333 212 169 124 
-81 158 333 220 177 132 
-81 158 333 224 180 135 
-80 158 333 224 180 135 
-80 158 333 222 178 131 
-79 158 334 223 179 132 
-79 158 334 225 181 134 
-78 158 334 224 180 133 
-78 159 335 223 179 130 
-77 159 335 221 177 128 
-77 159 335 220 176 127 
-77 159 336 220 176 127 
-76 159 336 222 176 126 
-76 159 336 221 175 125 
-75 160 337 217 173 124 
-75 160 337 215 171 122 
-74 160 337 213 171 123 
-74 160 338 213 171 123 
-73 161 339 212 170 122 
-73 161 339 212 170 122 
-73 161 340 213 173 124 
-72 161 341 212 172 123 
-72 162 342 204 168 120 
-72 162 343 202 166 118 
-72 163 345 200 166 120 
-89 160 338 171 136 108 
-88 159 336 179 139 103 
-87 159 335 185 145 109 
-86 158 334 191 150 106 
-86 158 334 195 154 110 
-85 158 334 198 158 109 
-84 158 333 199 159 110 
-84 158 333 202 160 118 
-83 158 333 207 165 123 
-83 158 333 208 169 126 
-82 158 333 209 170 127 
-82 158 333 213 174 131 
-81 158 333 218 179 136 
-81 158 333 222 180 138 
-80 158 333 222 180 138 
-80 158 333 222 181 137 
-79 159 334 222 181 137 
-79 159 334 223 182 138 
-78 159 334 223 182 138 
-78 159 334 222 181 137 
-77 159 335 220 179 135 
-77 159 335 218 177 131 
-76 159 335 217 176 130 
-76 160 336 217 176 124 
-75 160 336 216 175 123 
-75 160 337 214 172 124 
-75 160 337 212 170 122 
-74 160 337 210 169 125 
-74 161 338 209 168 124 
-73 161 339 209 168 124 
-73 162 340 208 167 123 
-73 162 340 207 166 120 
-72 162 341 207 166 120 
-72 163 343 202 164 119 
-72 163 344 200 162 117 
-88 160 336 178 139 110 
-87 159 334 186 143 108 
-86 159 333 191 148 113 
-86 159 333 195 156 113 
-85 159 333 199 160 117 
-85 159 333 200 163 118 
-84 159 333 202 165 120 
-84 159 333 204 166 127 
-83 158 332 208 170 131 
-82 158 332 212 174 135 
-82 158 332 213 175 136 
-82 159 333 215 177 138 
-81 159 333 218 180 141 
-81 159 333 220 182 143 
-80 159 333 219 181 142 
-80 159 333 221 184 142 
-79 159 333 221 184 142 
-79 159 334 221 184 142 
-78 159 334 220 183 141 
-78 159 334 219 182 140 
-77 159 334 217 180 138 
-77 160 335 214 177 133 
-76 160 335 212 175 131 
-76 160 336 212 172 120 
-75 160 336 212 172 120 
-75 161 337 212 171 125 
-75 161 337 211 170 124 
-74 161 338 210 167 125 
-74 162 339 208 165 123 
-73 162 339 208 163 121 
-73 163 341 207 162 120 
-73 163 342 202 160 112 
-73 163 343 200 158 110 
-89 161 337 180 139 107 
-88 159 334 186 145 113 
-87 159 333 192 153 114 
-86 159 333 196 157 118 
-86 159 333 200 163 121 
-85 159 333 203 166 124 
-85 159 333 202 168 123 
-84 159 332 205 171 126 
-84 159 332 207 171 135 
-83 159 332 209 173 137 
-82 159 332 212 177 139 
-82 159 332 212 177 139 
-81 159 332 213 178 140 
-81 159 332 217 182 144 
-80 159 332 220 185 147 
-80 159 332 220 185 147 
-80 159 333 221 186 146 
-79 159 333 220 185 145 
-79 159 333 221 183 144 
-78 159 333 220 182 143 
-78 160 334 219 182 140 
-77 160 334 216 179 137 
-77 160 335 213 176 134 
-77 161 336 210 173 131 
-76 161 336 208 171 116 
-76 161 337 209 172 117 
-75 161 337 213 173 124 
-75 161 337 212 172 123 
-74 162 338 211 166 124 
-74 162 339 208 163 121 
-74 163 341 206 161 119 
-89 160 335 185 145 110 
-87 160 333 191 151 116 
-87 160 333 197 158 119 
-86 159 332 201 162 123 
-86 159 332 202 167 125 
-85 159 332 204 169 127 
-85 159 332 205 172 129 
-84 159 332 207 174 131 
-84 159 332 211 177 140 
-83 159 332 211 177 140 
-82 159 332 213 177 141 
-82 159 332 213 177 141 
-81 159 332 215 180 142 
-81 159 332 218 183 145 
-80 159 332 221 186 148 
-80 159 332 220 185 147 
-80 160 333 221 186 146 
-79 160 333 220 185 145 
-79 160 333 220 182 143 
-78 160 334 220 182 143 
-78 160 334 218 181 139 
-77 161 335 216 179 137 
-77 161 336 212 175 133 
-77 161 336 210 173 131 
-76 162 337 207 170 117 
-76 162 337 207 170 117 
-75 162 338 212 172 123 
-75 163 339 212 172 123 
-75 163 340 208 165 123 
-91 164 341 184 143 113 
-88 161 334 190 147 112 
-87 160 332 195 152 117 
-87 160 332 198 161 119 
-86 160 332 203 166 124 
-86 160 332 205 170 128 
-85 160 332 208 173 131 
-85 160 332 208 177 133 
-84 160 332 209 178 134 
-84 160 332 212 178 141 
-83 160 332 212 178 141 
-82 160 332 215 179 143 
-82 160 332 216 180 144 
-81 160 332 217 182 144 
-81 160 332 219 184 146 
-80 160 332 220 185 147 
-80 160 332 218 183 145 
-80 160 333 221 183 144 
-79 160 333 220 182 143 
-79 161 334 220 181 140 
-78 161 334 219 180 139 
-78 161 335 219 180 139 
-78 162 336 217 178 137 
-77 162 336 213 174 131 
-77 162 337 211 172 129 
-76 163 338 204 167 115 
-76 163 339 203 166 114 
-90 162 337 184 149 111 
-88 161 333 189 155 117 
-87 160 332 194 160 122 
-87 160 332 196 166 128 
-86 160 332 199 169 131 
-86 160 332 204 172 134 
-85 160 332 205 173 135 
-85 160 332 208 174 136 
-84 160 332 213 179 141 
-84 160 332 217 179 143 
-83 160 332 218 180 144 
-82 160 332 219 181 145 
-82 160 332 219 181 145 
-82 161 333 219 181 145 
-81 161 333 219 181 145 
-81 161 333 220 182 145 
-80 161 333 221 183 146 
-80 161 334 222 184 145 
-79 161 334 222 184 145 
-79 162 335 222 184 147 
-78 162 335 221 183 146 
-78 162 336 220 182 143 
-78 163 337 216 178 139 
-78 163 338 212 175 133 
-89 163 336 194 156 119 
-88 161 333 193 159 121 
-87 161 333 197 163 125 
-87 161 332 201 169 131 
-86 161 332 205 173 135 
-86 161 332 207 175 137 
-85 161 332 207 175 137 
-85 161 332 210 176 138 
-84 161 332 213 179 141 
-84 161 332 217 179 143 
-83 161 332 218 180 144 
-82 161 332 220 182 146 
-82 161 333 220 182 146 
-82 161 333 220 182 146 
-81 162 334 219 181 145 
-81 162 334 219 181 144 
-80 162 334 218 180 143 
-80 162 335 224 186 149 
-79 162 335 221 183 146 
-79 163 336 218 180 143 
-79 163 337 216 178 141 
-90 164 338 198 159 120 
-88 162 334 199 164 126 
-88 162 334 202 167 129 
-87 162 334 205 173 135 
-86 162 333 208 176 138 
-86 162 333 209 176 141 
-85 162 333 209 176 141 
-85 162 333 212 178 141 
-84 162 333 213 179 142 
-84 162 333 215 177 141 
-83 162 333 216 178 142 
-83 162 333 215 179 143 
-82 162 334 216 180 144 
-82 162 334 216 180 144 
-82 163 335 216 180 144 
-81 163 335 217 179 142 
-81 163 336 216 178 141 
-80 163 336 220 182 145 
-89 164 337 202 167 129 
-88 163 335 205 170 132 
-87 163 335 207 174 139 
-87 163 335 209 176 141 
-86 163 335 209 176 141 
-86 163 335 210 177 142 
-85 163 335 213 179 144 
-85 163 335 215 181 146 
-84 163 335 217 181 145 
-84 163 335 217 181 145 
