ply
format ascii 1.0
comment Created by CloudCompare v2.10.1 (Zephyrus)
comment Created 2020-05-17 12:33 AM
obj_info Generated by CloudCompare!
element vertex 192
property float x
property float y
property float z
property uchar red
property uchar green
property uchar blue
end_header
-94 12 341 171 121 96 
-94 12 341 116 68 45 
-93 12 341 113 65 42 
-93 12 342 182 135 107 
-92 12 342 209 162 134 
-92 12 342 212 157 126 
-91 12 342 201 146 115 
-91 12 342 188 125 92 
-91 12 343 168 105 72 
-90 12 343 164 101 68 
-89 12 343 172 109 76 
-89 12 344 186 130 95 
-94 12 341 205 154 133 
-94 12 340 142 91 72 
-93 12 340 125 74 55 
-93 12 341 178 137 117 
-92 12 341 211 170 150 
-92 12 341 228 179 138 
-91 12 341 220 171 130 
-91 12 341 210 160 123 
-90 12 342 198 148 111 
-90 12 342 186 127 93 
-89 12 342 167 108 74 
-89 13 343 164 115 75 
-89 13 344 159 110 70 
-89 13 346 47 61 44 
-96 13 341 186 136 111 
-95 13 341 201 151 126 
-95 13 340 212 164 142 
-94 13 340 218 170 148 
-94 13 340 167 118 101 
-93 13 340 144 95 78 
-92 13 340 176 137 120 
-92 13 340 202 163 146 
-91 13 340 228 180 142 
-91 13 340 225 177 139 
-90 13 340 222 174 136 
-90 13 341 215 167 129 
-89 13 341 209 155 119 
-89 13 342 195 141 105 
-89 13 342 174 126 90 
-88 13 343 139 91 55 
-88 13 344 41 54 37 
-98 14 344 156 106 83 
-97 14 341 178 128 105 
-96 14 341 204 154 127 
-95 14 341 213 163 136 
-95 13 340 215 169 143 
-94 13 340 222 176 150 
-93 13 339 186 139 119 
-93 13 339 150 103 83 
-92 13 339 172 136 122 
-92 13 339 201 165 151 
-91 13 339 240 194 160 
-91 13 339 235 189 155 
-90 14 340 227 179 141 
-90 14 340 216 168 130 
-89 14 340 214 162 125 
-89 14 341 212 160 123 
-88 14 341 185 140 107 
-88 14 342 134 89 56 
-88 14 343 42 51 34 
-97 14 342 198 150 128 
-96 14 341 203 154 122 
-95 14 341 213 164 132 
-95 14 340 217 174 140 
-94 14 339 229 186 152 
-93 14 338 210 165 142 
-92 14 338 150 105 82 
-92 14 338 163 129 117 
-91 14 338 192 158 146 
-91 14 339 237 192 159 
-91 14 339 239 194 161 
-90 14 339 229 184 143 
-89 14 339 215 170 129 
-89 14 340 211 162 122 
-89 14 340 209 160 120 
-88 14 340 183 142 110 
-88 14 341 141 100 68 
-88 14 342 53 60 44 
-97 15 343 197 151 128 
-96 15 342 212 166 132 
-95 15 340 215 169 135 
-94 15 339 219 176 141 
-94 15 339 228 185 150 
-93 15 338 229 185 160 
-92 14 337 153 109 84 
-92 14 337 159 125 116 
-91 15 338 183 149 140 
-91 15 338 228 184 155 
-90 15 338 237 193 164 
-90 15 339 230 185 146 
-89 15 339 219 174 135 
-89 15 339 212 163 123 
-88 15 339 206 157 117 
-88 15 340 188 147 117 
-88 15 340 170 129 99 
-98 15 346 195 149 126 
-96 15 342 211 165 131 
-95 15 340 215 169 135 
-94 15 338 220 177 142 
-94 15 338 225 182 147 
-93 15 337 233 188 165 
-92 15 337 167 122 99 
-92 15 337 163 128 122 
-91 15 337 191 156 150 
-91 15 338 228 184 159 
-90 15 338 240 196 171 
-90 15 338 231 185 151 
-89 15 339 218 172 138 
-89 15 339 212 162 127 
-88 15 339 205 155 120 
-88 15 340 192 151 121 
-88 15 340 186 145 115 
-97 16 343 205 161 122 
-95 16 340 212 168 129 
-94 16 338 217 174 140 
-93 16 337 220 177 143 
-93 16 337 227 180 160 
-92 16 337 189 142 122 
-92 16 337 165 131 122 
-91 16 337 198 164 155 
-91 16 338 219 175 150 
-90 16 338 235 191 166 
-90 16 338 229 182 152 
-89 16 338 218 171 141 
-89 16 339 213 160 128 
-88 16 339 206 153 121 
-88 16 339 180 137 103 
-88 16 340 158 115 81 
-97 16 343 198 156 114 
-95 16 340 207 165 123 
-94 16 338 212 169 134 
-93 16 337 219 176 141 
-93 16 337 225 178 158 
-92 16 337 207 160 140 
-91 16 336 149 115 105 
-91 16 336 173 139 129 
-91 16 337 205 161 136 
-90 16 337 222 178 153 
-90 16 338 218 171 143 
-89 16 338 208 161 133 
-89 16 339 205 152 120 
-89 16 340 203 150 118 
-88 16 340 170 127 92 
-88 16 340 130 87 52 
-97 17 344 184 139 110 
-95 17 340 195 150 121 
-94 17 338 206 163 129 
-93 17 337 211 168 134 
-93 17 337 215 176 145 
-92 17 337 211 172 141 
-91 17 336 151 113 92 
-91 17 336 119 81 60 
-91 17 337 178 137 117 
-90 17 337 218 177 157 
-89 17 337 222 177 146 
-89 17 338 212 167 136 
-89 17 338 208 156 119 
-88 17 339 194 142 105 
-88 17 340 179 123 88 
-88 17 340 141 85 50 
-95 17 340 191 145 119 
-94 17 338 199 156 124 
-93 17 337 203 160 128 
-93 17 337 214 171 139 
-92 17 337 224 181 149 
-91 17 336 190 146 117 
-91 17 336 161 117 88 
-90 17 336 195 150 121 
-90 17 336 220 175 146 
-89 17 337 223 174 141 
-89 17 337 218 169 136 
-89 17 338 215 163 126 
-88 17 339 202 150 113 
-88 17 339 187 133 97 
-88 17 340 155 101 65 
-95 18 340 180 135 112 
-94 18 338 199 153 127 
-93 18 337 212 166 140 
-92 18 336 218 172 139 
-92 18 336 219 173 140 
-95 18 340 174 128 104 
-94 18 338 199 153 129 
-93 18 337 212 166 142 
-92 18 336 212 163 131 
-96 19 342 171 123 100 
-94 19 339 197 149 126 
-93 19 337 205 157 134 
-95 20 340 197 150 122 
-93 19 337 202 155 127 
-95 20 343 197 152 119 
