ply
format ascii 1.0
comment Created by CloudCompare v2.10.1 (Zephyrus)
comment Created 2020-05-17 12:34 AM
obj_info Generated by CloudCompare!
element vertex 302
property float x
property float y
property float z
property uchar red
property uchar green
property uchar blue
end_header
-75 -55 404 169 154 149 
-76 -55 404 120 93 86 
-75 -55 404 140 113 106 
-75 -55 404 133 99 89 
-74 -55 404 103 69 59 
-74 -55 405 113 71 57 
-73 -55 405 165 123 109 
-72 -55 405 193 141 119 
-71 -55 404 190 138 116 
-71 -55 405 182 127 107 
-70 -55 405 177 122 102 
-79 -54 406 194 157 149 
-78 -54 405 189 152 144 
-77 -54 404 129 76 68 
-77 -54 404 92 39 31 
-76 -54 404 105 51 39 
-75 -54 403 109 55 43 
-74 -54 403 129 78 61 
-74 -54 403 151 100 83 
-73 -54 404 186 136 113 
-73 -54 404 202 152 129 
-72 -54 404 206 154 133 
-71 -54 403 199 147 126 
-71 -54 404 183 128 108 
-70 -54 404 171 116 96 
-79 -53 404 212 151 123 
-78 -54 404 215 154 126 
-77 -53 403 199 143 108 
-76 -53 403 185 129 94 
-76 -53 403 186 132 96 
-75 -53 403 198 144 108 
-74 -53 402 208 150 126 
-74 -53 403 216 158 134 
-73 -53 403 212 163 133 
-73 -53 403 212 163 133 
-72 -53 403 206 154 133 
-71 -53 403 201 149 128 
-71 -53 403 194 139 118 
-70 -53 403 183 128 107 
-79 -53 404 192 147 118 
-78 -53 403 211 148 115 
-78 -53 402 215 152 119 
-77 -53 402 217 159 122 
-76 -53 402 215 157 120 
-76 -53 402 218 163 124 
-75 -53 402 223 168 129 
-74 -53 402 222 166 139 
-74 -53 402 222 166 139 
-73 -53 402 216 165 134 
-73 -53 403 212 161 130 
-72 -53 403 209 154 133 
-71 -53 403 206 151 130 
-71 -53 403 199 145 121 
-70 -53 403 188 134 110 
-80 -52 404 194 142 105 
-79 -52 403 202 150 113 
-78 -52 403 216 154 115 
-78 -52 402 218 156 117 
-77 -52 402 221 159 122 
-76 -52 402 226 164 127 
-76 -52 402 228 170 130 
-75 -52 402 228 170 130 
-74 -52 402 223 168 137 
-74 -52 402 222 167 136 
-73 -52 402 220 167 136 
-72 -52 402 215 162 131 
-72 -52 402 211 157 133 
-71 -52 402 207 153 129 
-70 -52 402 203 147 122 
-70 -52 402 192 136 111 
-69 -52 403 186 130 103 
-80 -52 404 204 146 106 
-79 -51 402 208 150 110 
-78 -51 402 218 156 115 
-78 -51 402 223 161 120 
-77 -51 402 226 162 127 
-76 -51 402 231 167 132 
-76 -51 402 228 169 129 
-75 -51 401 228 169 129 
-74 -51 401 223 170 138 
-73 -51 401 224 171 139 
-73 -51 401 224 170 142 
-72 -51 402 220 166 138 
-72 -51 402 212 158 134 
-71 -51 402 206 152 128 
-70 -51 402 200 144 119 
-70 -51 402 189 133 108 
-69 -51 402 184 128 101 
-80 -51 403 206 149 104 
-79 -51 402 212 155 110 
-78 -51 401 217 158 116 
-78 -51 402 218 159 117 
-77 -51 402 224 161 126 
-76 -51 402 227 164 129 
-76 -51 402 225 166 126 
-75 -51 401 227 168 128 
-74 -51 401 224 171 139 
-73 -51 401 222 169 137 
-73 -51 401 221 167 139 
-72 -51 402 216 162 134 
-72 -51 402 215 161 137 
-71 -51 402 205 151 127 
-70 -51 402 195 141 117 
-70 -51 402 184 130 106 
-69 -51 402 180 126 100 
-80 -50 402 188 147 125 
-80 -50 402 200 146 99 
-79 -50 402 209 155 108 
-78 -50 401 217 160 117 
-77 -50 401 218 161 118 
-77 -50 402 219 159 123 
-76 -50 402 221 161 125 
-76 -50 402 224 165 125 
-75 -50 401 227 168 128 
-74 -50 401 225 168 138 
-74 -50 402 223 166 136 
-73 -50 401 219 166 135 
-72 -50 402 220 167 136 
-72 -50 402 216 162 138 
-71 -50 402 205 151 127 
-70 -50 402 194 140 116 
-70 -50 402 181 127 103 
-69 -50 403 177 123 99 
-79 -49 402 211 160 113 
-78 -49 401 215 158 115 
-77 -49 401 219 162 119 
-77 -49 402 216 158 120 
-76 -49 401 218 160 122 
-75 -49 401 221 159 120 
-75 -49 401 222 160 121 
-74 -49 401 224 161 130 
-74 -49 402 223 160 129 
-73 -49 401 216 160 127 
-72 -49 402 219 163 130 
-72 -49 402 214 158 135 
-71 -49 402 205 149 126 
-70 -49 402 194 140 116 
-70 -49 402 179 125 101 
-69 -49 403 174 118 93 
-78 -49 401 225 166 126 
-77 -49 401 215 156 116 
-77 -49 402 213 155 117 
-76 -49 402 216 158 120 
-76 -49 402 220 156 118 
-75 -49 402 218 154 116 
-74 -49 401 226 156 130 
-74 -49 402 226 156 130 
-73 -49 401 214 155 123 
-72 -49 401 216 157 125 
-72 -49 402 209 153 130 
-71 -49 402 202 146 123 
-70 -49 402 194 138 115 
-70 -49 402 178 122 99 
-69 -49 402 171 115 90 
-69 -49 403 178 122 97 
-77 -48 401 222 166 131 
-77 -48 402 219 161 121 
-76 -48 402 215 157 117 
-76 -48 402 214 157 114 
-75 -48 402 210 153 110 
-74 -48 402 213 154 114 
-74 -48 402 215 156 116 
-73 -48 401 209 146 113 
-72 -48 401 205 142 109 
-72 -48 402 196 143 112 
-71 -48 402 197 144 113 
-70 -48 402 187 133 107 
-70 -48 403 177 123 97 
-69 -48 403 167 111 88 
-69 -48 403 175 119 96 
-76 -47 401 215 157 117 
-76 -47 402 207 148 106 
-75 -47 402 208 149 107 
-74 -47 402 204 144 107 
-74 -47 402 202 142 105 
-73 -47 402 200 137 104 
-72 -47 402 198 135 102 
-72 -47 402 189 135 107 
-71 -47 402 185 131 103 
-70 -47 402 180 126 102 
-70 -48 403 176 122 98 
-69 -48 403 164 107 87 
-69 -48 403 168 111 91 
-75 -47 401 203 144 102 
-75 -47 401 199 140 98 
-74 -47 401 200 140 103 
-74 -47 401 197 137 100 
-73 -47 401 188 125 92 
-72 -47 402 186 123 90 
-72 -47 402 182 128 104 
-71 -47 402 178 124 100 
-71 -47 403 176 119 99 
-70 -47 403 168 111 91 
-69 -47 403 150 93 74 
-69 -47 404 158 101 82 
-75 -46 401 197 138 98 
-74 -46 401 193 130 95 
-74 -46 401 195 132 97 
-73 -46 401 186 123 92 
-72 -46 402 187 124 93 
-72 -46 402 178 121 101 
-71 -46 402 176 119 99 
-71 -46 403 161 104 85 
-70 -46 403 129 72 53 
-69 -46 404 107 50 31 
-69 -46 404 131 74 55 
-74 -45 402 176 116 82 
-74 -45 402 182 122 88 
-73 -45 402 175 111 83 
-73 -46 403 158 94 66 
-72 -46 403 135 78 59 
-71 -46 403 121 64 45 
-71 -46 404 110 53 36 
-70 -46 404 111 54 37 
-70 -46 405 124 65 49 
-69 -46 405 146 87 71 
-74 -45 402 156 95 64 
-74 -45 402 126 65 34 
-73 -45 403 110 48 23 
-73 -45 404 99 37 12 
-72 -45 404 101 44 27 
-71 -45 404 111 54 37 
-71 -45 405 133 75 61 
-70 -45 405 152 94 80 
-70 -45 405 155 98 81 
-69 -45 406 144 87 70 
-69 -45 406 155 97 77 
-73 -44 403 111 49 26 
-73 -44 404 134 72 49 
-72 -44 405 142 86 71 
-72 -44 405 154 98 83 
-71 -44 405 158 102 89 
-71 -45 406 146 90 77 
-70 -45 406 137 81 66 
-69 -45 406 129 73 58 
-69 -45 406 147 90 71 
-73 -44 403 162 101 80 
-73 -44 404 161 100 79 
-72 -44 405 152 99 85 
-72 -44 405 149 96 82 
-71 -44 406 141 88 74 
-71 -44 406 132 79 65 
-70 -44 406 128 75 61 
-69 -44 406 120 67 53 
-69 -44 406 137 82 62 
-73 -43 404 141 86 65 
-73 -43 405 144 89 68 
-72 -43 405 143 83 73 
-72 -43 406 140 80 70 
-71 -43 407 127 78 71 
-71 -43 407 123 74 67 
-70 -43 406 118 74 49 
-69 -43 406 113 69 44 
-69 -43 406 121 75 59 
-73 -42 404 126 72 48 
-73 -42 405 127 73 49 
-72 -42 405 126 75 54 
-72 -43 406 128 77 56 
-71 -43 407 123 75 63 
-71 -43 407 119 71 59 
-70 -43 407 113 62 41 
-69 -43 407 114 63 42 
-69 -43 407 128 78 67 
-73 -42 404 121 66 45 
-73 -42 405 121 66 45 
-72 -42 406 119 69 46 
-72 -42 406 124 74 51 
-71 -42 407 114 72 60 
-71 -42 407 110 68 56 
-70 -42 407 109 67 53 
-69 -42 407 127 85 71 
-69 -42 407 147 108 103 
-73 -41 404 119 68 49 
-73 -41 405 116 65 46 
-72 -41 406 122 70 57 
-72 -41 406 114 62 49 
-71 -41 407 97 66 61 
-71 -41 408 111 80 75 
-70 -41 407 117 100 93 
-73 -40 404 111 74 58 
-73 -41 406 107 70 54 
-72 -41 406 114 83 80 
-72 -41 407 116 85 82 
-72 -41 408 113 101 101 
-71 -41 408 125 113 113 
-70 -41 408 126 124 125 
-69 -41 408 124 127 132 
-73 -40 404 128 111 101 
-73 -40 405 129 112 102 
-73 -40 407 117 119 116 
-72 -40 408 123 125 122 
-72 -40 408 126 130 129 
-71 -40 409 125 129 128 
-70 -40 409 133 131 136 
-70 -40 409 133 131 136 
-72 -40 409 120 129 126 
-71 -40 410 122 131 128 
-71 -40 411 133 128 132 
-70 -40 410 131 126 130 
-72 -39 409 120 126 122 
-71 -39 410 125 131 127 
-71 -39 411 128 130 127 
