ply
format ascii 1.0
comment Created by CloudCompare v2.10.1 (Zephyrus)
comment Created 2020-05-17 12:34 AM
obj_info Generated by CloudCompare!
element vertex 1061
property float x
property float y
property float z
property uchar red
property uchar green
property uchar blue
end_header
-107 -17 370 218 170 150 
-106 -17 371 221 174 148 
-106 -17 371 222 175 145 
-105 -17 371 224 177 147 
-105 -17 372 226 176 143 
-104 -17 373 223 173 140 
-104 -17 373 227 172 141 
-103 -17 374 234 179 148 
-103 -17 374 223 166 136 
-108 -16 370 209 171 158 
-108 -16 370 218 167 146 
-107 -16 370 217 166 145 
-107 -16 370 215 168 140 
-106 -16 370 214 167 139 
-106 -17 371 214 168 135 
-105 -17 371 216 170 137 
-104 -17 371 219 169 134 
-104 -17 372 217 167 132 
-104 -17 372 213 160 126 
-103 -17 373 210 157 123 
-103 -17 374 215 160 129 
-108 -16 370 206 170 156 
-108 -16 370 215 165 142 
-107 -16 370 215 165 142 
-107 -16 370 215 168 138 
-106 -16 370 214 167 137 
-105 -16 370 214 168 135 
-105 -16 370 218 172 139 
-104 -16 370 215 165 128 
-104 -16 371 215 165 128 
-104 -16 372 210 157 123 
-103 -16 373 216 163 129 
-103 -16 374 213 158 127 
-103 -16 375 200 145 114 
-109 -15 371 208 169 154 
-109 -15 371 205 166 151 
-108 -15 370 205 166 135 
-107 -15 370 205 166 135 
-107 -15 370 217 160 133 
-106 -15 369 219 162 135 
-105 -15 370 219 170 137 
-105 -15 370 219 170 137 
-104 -15 370 223 169 131 
-104 -15 370 221 167 129 
-103 -15 371 221 168 124 
-103 -15 372 216 163 119 
-103 -15 373 209 155 131 
-102 -15 374 203 149 125 
-102 -16 375 181 128 94 
-109 -15 370 210 168 154 
-108 -15 370 208 166 152 
-107 -15 369 205 164 134 
-107 -15 369 205 164 134 
-106 -15 369 217 160 133 
-105 -15 368 219 162 135 
-105 -15 368 220 172 136 
-104 -15 368 222 174 138 
-104 -15 368 221 171 134 
-103 -15 369 220 170 133 
-103 -15 370 224 171 127 
-102 -15 370 219 166 122 
-102 -15 372 214 158 131 
-102 -15 373 211 155 128 
-102 -15 374 190 140 107 
-102 -15 376 149 99 66 
-110 -14 371 193 175 173 
-110 -14 371 192 174 172 
-109 -14 370 210 167 151 
-108 -14 369 210 167 151 
-107 -14 368 210 166 137 
-107 -14 368 212 168 139 
-106 -14 368 222 165 136 
-105 -14 367 223 166 137 
-104 -14 367 222 174 138 
-104 -14 367 224 176 140 
-103 -14 367 222 172 137 
-103 -14 367 220 170 135 
-102 -14 368 228 174 128 
-102 -14 369 221 167 121 
-102 -14 370 218 157 126 
-101 -14 371 218 157 126 
-101 -14 373 202 150 113 
-101 -14 375 172 120 83 
-101 -14 376 134 86 72 
-110 -14 371 194 173 170 
-109 -13 370 193 172 169 
-109 -13 369 211 165 150 
-108 -13 368 212 166 151 
-107 -13 367 214 167 141 
-106 -13 367 216 169 143 
-106 -13 367 223 167 140 
-105 -13 366 223 167 140 
-104 -13 366 222 174 136 
-104 -13 366 225 177 139 
-103 -13 366 225 173 136 
-102 -13 366 222 170 133 
-102 -13 367 229 172 129 
-102 -13 368 223 166 123 
-102 -13 369 220 158 121 
-101 -14 370 218 156 119 
-101 -14 372 207 151 114 
-101 -14 373 191 135 98 
-101 -14 375 168 121 103 
-109 -13 369 197 169 168 
-108 -13 368 212 165 149 
-107 -13 367 211 164 148 
-107 -13 366 212 162 137 
-106 -13 366 213 163 138 
-105 -13 365 219 165 137 
-105 -13 365 222 168 140 
-104 -13 365 223 175 135 
-103 -13 365 225 177 137 
-103 -13 366 227 175 138 
-102 -13 366 221 169 132 
-102 -13 366 225 170 129 
-102 -13 367 221 166 125 
-101 -13 368 220 162 124 
-101 -13 369 214 156 118 
-101 -13 371 208 153 114 
-101 -13 372 201 146 107 
-101 -13 374 190 142 119 
-109 -12 368 201 167 166 
-108 -12 367 210 163 147 
-107 -12 366 209 162 146 
-106 -12 365 210 160 135 
-106 -12 365 213 163 138 
-105 -12 365 220 169 140 
-104 -12 364 224 173 144 
-104 -12 364 225 177 137 
-103 -12 364 223 175 135 
-103 -12 365 226 173 139 
-102 -12 365 220 167 133 
-102 -12 365 218 165 131 
-101 -12 366 216 163 129 
-101 -12 367 218 164 126 
-101 -12 368 211 157 119 
-100 -12 369 207 152 113 
-100 -12 371 203 148 109 
-100 -12 373 193 144 114 
-100 -12 374 194 145 115 
-109 -12 367 200 164 164 
-108 -12 366 207 160 144 
-107 -12 365 209 162 146 
-106 -12 364 213 163 140 
-105 -12 364 217 167 144 
-105 -12 364 224 174 147 
-104 -11 363 227 177 150 
-103 -11 363 225 177 137 
-103 -11 363 221 173 133 
-102 -11 363 226 173 141 
-102 -12 364 223 170 138 
-101 -12 364 217 167 134 
-101 -12 365 214 164 131 
-101 -12 366 217 163 125 
-100 -12 367 211 157 119 
-100 -12 368 208 153 112 
-100 -12 369 200 145 104 
-100 -12 371 189 143 110 
-99 -12 372 198 152 119 
-109 -11 366 211 171 172 
-108 -11 365 199 159 160 
-107 -11 365 206 159 141 
-107 -11 364 210 163 145 
-106 -11 364 213 163 140 
-105 -11 363 216 166 143 
-105 -11 363 221 174 146 
-104 -11 363 224 177 149 
-103 -11 362 224 176 136 
-102 -11 362 221 173 133 
-102 -11 363 226 173 139 
-102 -11 363 229 176 142 
-101 -11 364 226 173 141 
-101 -11 364 220 167 135 
-100 -11 365 219 164 125 
-100 -11 365 213 158 119 
-100 -11 367 211 154 111 
-99 -11 368 200 143 100 
-99 -11 369 186 141 108 
-99 -11 370 200 155 122 
-99 -11 372 162 153 158 
-109 -10 365 206 167 160 
-108 -10 364 205 166 159 
-107 -10 364 212 165 147 
-106 -10 363 215 168 150 
-105 -10 362 216 169 151 
-105 -10 362 214 167 149 
-104 -10 362 220 173 143 
-104 -10 362 226 179 149 
-103 -10 361 230 175 145 
-102 -10 362 227 172 142 
-102 -10 362 221 176 143 
-101 -10 362 226 181 148 
-101 -10 362 234 180 144 
-100 -10 363 230 176 140 
-100 -10 363 224 172 133 
-100 -10 364 215 163 124 
-99 -10 365 207 150 120 
-99 -10 367 200 143 113 
-99 -10 368 200 142 105 
-99 -10 369 198 140 103 
-98 -11 370 189 163 162 
-98 -11 371 162 136 135 
-109 -10 365 207 170 162 
-108 -10 364 206 169 161 
-107 -10 363 217 172 153 
-106 -10 362 217 172 153 
-105 -10 362 215 170 151 
-105 -10 361 213 168 149 
-104 -10 361 219 174 143 
-103 -10 361 224 179 148 
-103 -10 360 231 177 149 
-102 -10 361 233 179 151 
-102 -10 361 229 184 151 
-101 -10 361 233 188 155 
-100 -10 361 238 186 149 
-100 -10 362 233 181 144 
-100 -10 363 226 177 137 
-99 -10 363 217 168 128 
-99 -10 364 211 154 124 
-99 -10 365 205 148 118 
-98 -10 366 200 142 104 
-98 -10 367 195 137 99 
-98 -10 368 194 165 159 
-98 -10 370 184 155 149 
-108 -9 364 208 171 163 
-107 -9 363 207 170 162 
-107 -9 362 216 173 154 
-106 -9 361 215 172 153 
-105 -9 361 214 171 152 
-104 -9 360 215 172 153 
-104 -9 360 223 178 147 
-103 -9 360 226 181 150 
-103 -9 360 231 180 151 
-102 -9 360 236 185 156 
-101 -9 360 231 186 153 
-101 -9 361 234 189 156 
-100 -9 361 238 185 151 
-100 -9 361 232 179 145 
-100 -9 362 226 177 137 
-99 -9 363 219 170 130 
-99 -9 363 212 156 123 
-99 -9 365 206 150 117 
-98 -9 366 206 147 107 
-98 -9 366 196 137 97 
-98 -9 368 197 161 149 
-97 -9 369 206 170 158 
-108 -9 363 206 172 163 
-107 -9 362 206 172 163 
-106 -8 361 214 171 152 
-105 -8 360 215 172 153 
-105 -8 360 217 174 155 
-104 -8 359 219 176 157 
-104 -8 360 224 181 149 
-103 -8 360 227 184 152 
-102 -8 359 231 182 152 
-102 -8 359 233 184 154 
-101 -8 359 233 186 156 
-101 -8 360 234 187 157 
-100 -8 360 237 184 150 
-100 -8 360 232 179 145 
-99 -8 361 229 177 140 
-99 -9 362 224 172 135 
-99 -9 363 221 161 127 
-98 -9 364 215 155 121 
-98 -9 365 216 154 113 
-98 -9 366 206 144 103 
-97 -9 366 197 152 131 
-97 -9 368 222 177 156 
-107 -8 361 210 173 165 
-107 -8 360 211 174 166 
-106 -8 360 217 172 153 
-105 -8 359 217 172 153 
-105 -8 359 218 173 152 
-104 -8 359 217 172 151 
-103 -8 359 218 173 142 
-103 -8 359 223 178 147 
-102 -8 359 229 178 149 
-102 -8 359 227 176 147 
-101 -8 359 228 181 151 
-100 -8 359 228 181 151 
-100 -8 359 232 179 148 
-100 -8 360 228 175 144 
-99 -8 360 225 171 135 
-99 -8 361 223 169 133 
-98 -8 362 226 163 128 
-98 -8 363 222 159 124 
-98 -8 364 222 161 117 
-97 -8 364 216 155 111 
-97 -8 366 199 148 121 
-97 -8 367 227 176 149 
-97 -8 369 182 176 180 
-107 -7 360 213 174 167 
-106 -7 359 214 175 168 
-106 -7 359 217 172 153 
-105 -7 359 215 170 151 
-104 -7 358 214 167 147 
-104 -7 358 210 163 143 
-103 -7 358 211 165 132 
-103 -7 358 218 172 139 
-102 -7 359 225 172 141 
-102 -7 359 221 168 137 
-101 -7 359 218 173 142 
-100 -7 359 218 173 142 
-100 -7 359 225 172 140 
-99 -7 359 222 169 137 
-99 -7 360 217 163 125 
-98 -7 360 216 162 124 
-98 -7 361 221 159 122 
-98 -7 362 218 156 119 
-97 -7 362 216 157 113 
-97 -7 363 215 156 112 
-97 -7 365 200 144 111 
-97 -7 366 223 167 134 
-97 -7 368 199 194 198 
-107 -7 359 211 172 165 
-106 -7 359 208 169 162 
-106 -7 359 213 166 148 
-105 -7 359 208 161 143 
-104 -7 358 206 158 136 
-104 -7 358 205 157 135 
-103 -7 358 211 162 130 
-103 -7 358 219 170 138 
-102 -7 358 223 170 139 
-101 -7 358 219 166 135 
-101 -7 358 218 171 141 
-100 -7 358 218 171 141 
-100 -7 358 225 170 139 
-99 -7 358 223 168 137 
-99 -7 359 220 162 124 
-98 -7 359 218 160 122 
-98 -7 360 221 156 116 
-98 -7 361 217 152 112 
-97 -7 362 213 152 108 
-97 -7 363 209 148 104 
-97 -7 364 199 139 102 
-96 -7 365 209 149 112 
-96 -7 367 203 201 204 
-107 -6 358 185 181 180 
-107 -6 358 208 169 162 
-106 -6 358 202 163 156 
-105 -6 358 208 161 141 
-105 -6 358 200 153 133 
-104 -6 358 198 150 128 
-104 -6 358 201 153 131 
-103 -6 358 212 162 129 
-103 -6 358 221 171 138 
-102 -6 358 226 171 141 
-101 -6 358 223 168 138 
-101 -6 357 224 173 144 
-100 -6 358 223 172 143 
-100 -6 358 228 169 137 
-99 -6 358 225 166 134 
-99 -6 358 224 162 121 
-98 -6 359 221 159 118 
-98 -6 359 222 153 112 
-97 -6 360 216 147 106 
-97 -6 361 212 151 106 
-97 -6 362 202 141 96 
-96 -6 363 198 134 96 
-96 -6 365 202 138 100 
-96 -6 366 206 201 205 
-96 -6 367 186 181 185 
-106 -6 357 207 168 151 
-106 -6 357 199 160 143 
-105 -6 357 203 158 135 
-104 -6 357 199 154 131 
-104 -6 357 201 154 126 
-103 -6 357 198 151 123 
-103 -6 358 209 154 124 
-102 -6 357 225 170 140 
-102 -6 357 219 164 133 
-101 -6 357 224 169 138 
-101 -6 357 229 168 140 
-100 -6 357 231 170 142 
-99 -5 356 225 171 133 
-99 -5 356 221 167 129 
-98 -6 357 222 162 125 
-98 -6 358 221 161 124 
-98 -6 359 215 158 113 
-97 -6 359 209 152 107 
-97 -6 360 211 144 102 
-96 -6 361 205 138 96 
-96 -6 363 195 131 93 
-96 -6 364 193 129 91 
-96 -6 365 213 186 191 
-96 -6 367 220 193 198 
-106 -5 356 205 163 147 
-106 -5 357 197 155 139 
-105 -5 357 198 153 130 
-104 -5 357 199 154 131 
-104 -5 357 207 157 130 
-103 -5 357 207 157 130 
-103 -5 357 217 162 132 
-102 -5 356 224 169 139 
-101 -5 356 218 163 132 
-101 -5 356 226 171 140 
-100 -5 356 229 168 139 
-100 -5 356 232 171 142 
-99 -5 356 227 174 134 
-99 -5 356 220 167 127 
-98 -5 356 220 161 121 
-98 -5 357 220 161 121 
-97 -5 358 217 158 114 
-97 -5 359 211 152 108 
-96 -5 359 213 144 102 
-96 -5 361 207 138 96 
-96 -5 362 199 134 94 
-96 -5 363 197 132 92 
-96 -5 365 210 180 182 
-106 -4 356 200 158 142 
-106 -4 357 193 151 135 
-105 -4 356 199 153 130 
-104 -4 357 202 156 133 
-104 -4 356 212 162 135 
-103 -4 356 215 165 138 
-103 -4 356 226 171 141 
-102 -4 356 224 169 139 
-101 -4 356 221 166 135 
-101 -4 355 229 174 143 
-100 -4 355 230 169 138 
-99 -4 355 231 170 139 
-99 -4 355 225 172 130 
-98 -4 355 217 164 122 
-98 -4 356 216 157 117 
-97 -4 356 218 159 119 
-97 -4 357 220 159 115 
-97 -4 358 215 154 110 
-96 -4 359 214 145 104 
-96 -4 360 209 140 99 
-96 -4 361 205 137 98 
-96 -4 363 202 134 95 
-95 -4 364 204 166 163 
-106 -4 356 196 154 138 
-105 -4 356 191 149 133 
-105 -4 356 196 151 128 
-104 -4 356 201 156 133 
-104 -4 356 209 162 134 
-103 -4 356 210 163 135 
-103 -4 356 223 168 138 
-102 -4 355 219 164 134 
-101 -4 355 222 167 136 
-101 -4 355 227 172 141 
-100 -4 355 228 172 137 
-99 -4 355 227 171 136 
-99 -4 355 225 170 129 
-98 -4 355 219 164 123 
-98 -4 355 218 159 117 
-97 -4 356 219 160 118 
-97 -4 356 222 159 118 
-97 -4 357 218 155 114 
-96 -4 358 216 147 105 
-96 -4 359 212 143 101 
-96 -4 361 208 138 102 
-96 -4 362 203 133 97 
-95 -4 363 193 149 138 
-95 -4 364 241 197 186 
-106 -3 355 175 173 174 
-106 -3 356 193 151 135 
-105 -3 356 190 148 132 
-105 -3 356 199 154 131 
-104 -3 356 205 160 137 
-103 -3 355 211 164 136 
-103 -3 355 209 162 134 
-102 -3 355 217 164 133 
-102 -3 355 217 164 133 
-101 -3 355 225 170 139 
-100 -3 354 226 171 140 
-100 -3 354 222 168 132 
-99 -3 354 220 166 130 
-99 -3 354 223 169 125 
-98 -3 354 221 167 123 
-97 -3 354 218 159 117 
-97 -3 355 214 155 113 
-97 -3 355 217 152 114 
-96 -3 356 214 149 111 
-96 -3 357 216 149 107 
-96 -3 359 213 146 104 
-96 -3 360 212 139 104 
-95 -3 361 204 131 96 
-95 -3 362 188 137 120 
-95 -3 364 242 191 174 
-106 -3 355 191 152 135 
-105 -3 355 188 149 132 
-104 -3 355 200 155 132 
-104 -3 355 210 165 142 
-103 -3 355 215 169 143 
-102 -3 354 213 167 141 
-102 -3 354 218 164 136 
-101 -3 354 220 166 138 
-101 -3 354 226 173 141 
-100 -3 354 224 171 139 
-99 -3 353 216 162 126 
-99 -3 353 218 164 128 
-99 -3 354 223 169 125 
-98 -3 354 221 167 123 
-97 -3 354 215 156 112 
-97 -3 354 210 151 107 
-97 -3 355 216 148 113 
-96 -3 355 213 145 110 
-96 -3 357 212 145 103 
-96 -3 358 212 145 103 
-95 -3 359 213 140 105 
-95 -3 360 206 133 98 
-95 -3 362 188 132 107 
-95 -3 363 238 182 157 
-106 -2 355 193 151 135 
-105 -2 355 188 146 130 
-104 -2 355 197 152 131 
-104 -2 355 210 165 144 
-103 -2 355 214 168 142 
-102 -2 354 214 168 142 
-102 -2 354 217 163 135 
-101 -2 354 219 165 137 
-101 -2 354 223 168 137 
-100 -2 354 223 168 137 
-99 -2 353 217 163 127 
-99 -2 353 221 167 131 
-98 -2 353 229 172 129 
-98 -2 354 224 167 124 
-97 -2 354 218 157 112 
-97 -2 354 217 156 111 
-97 -2 355 222 152 118 
-96 -2 355 215 145 111 
-96 -2 356 208 141 99 
-95 -2 357 209 142 100 
-95 -2 358 214 140 105 
-95 -2 359 208 134 99 
-95 -2 361 191 130 99 
-94 -2 362 233 172 141 
-106 -1 355 162 160 163 
-106 -1 355 192 150 134 
-105 -1 355 187 145 129 
-104 -1 355 199 154 131 
-104 -1 355 211 166 143 
-103 -1 354 214 167 141 
-102 -1 354 214 167 141 
-102 -1 353 216 162 134 
-101 -1 353 219 165 137 
-101 -1 354 222 167 136 
-100 -1 353 225 170 139 
-99 -1 353 215 159 122 
-99 -1 353 220 164 127 
-98 -1 353 227 168 124 
-98 -1 353 221 162 118 
-97 -1 353 216 153 109 
-97 -1 353 220 157 113 
-96 -1 354 225 152 119 
-96 -1 355 213 140 107 
-95 -1 355 207 140 97 
-95 -1 356 208 141 98 
-95 -1 357 214 138 102 
-94 -1 358 206 130 94 
-94 -1 360 190 126 90 
-94 -1 361 228 164 128 
-106 -1 354 175 173 176 
-105 -1 354 190 144 128 
-105 -1 354 191 145 129 
-104 -1 354 190 148 124 
-104 -1 354 203 161 137 
-103 -1 354 211 164 134 
-102 -1 353 212 165 135 
-102 -1 353 211 155 132 
-101 -1 352 215 159 136 
-101 -1 353 219 163 130 
-100 -1 353 222 166 133 
-99 -1 352 221 163 125 
-99 -1 352 223 165 127 
-98 -1 352 225 165 128 
-97 -1 352 220 160 123 
-97 -1 352 218 157 113 
-96 -1 352 218 157 113 
-96 -1 353 220 152 113 
-96 -1 354 214 146 107 
-95 -1 355 215 148 105 
-95 -1 355 210 143 100 
-95 -1 356 205 138 93 
-94 -1 357 195 128 83 
-94 -1 359 198 125 90 
-94 -1 360 226 153 118 
-105 0 354 186 143 127 
-105 0 354 187 144 128 
-104 0 353 188 143 120 
-103 0 353 201 156 133 
-103 0 353 211 162 132 
-102 0 353 211 162 132 
-101 0 352 209 151 129 
-101 0 352 210 152 130 
-100 0 352 214 158 125 
-100 0 352 216 160 127 
-99 0 352 219 159 122 
-98 0 351 223 163 126 
-98 0 351 225 166 126 
-97 0 352 220 161 121 
-97 0 351 219 156 113 
-96 0 352 219 156 113 
-96 0 352 220 152 113 
-95 0 353 215 147 108 
-95 0 354 212 144 99 
-95 0 355 207 139 94 
-94 0 355 200 133 88 
-94 0 357 192 125 80 
-94 0 358 196 123 88 
-94 0 359 221 148 113 
-94 0 361 219 210 213 
-105 0 353 180 140 128 
-104 0 353 184 144 132 
-104 0 353 190 142 122 
-103 0 353 198 150 130 
-102 0 352 211 157 131 
-102 0 352 210 156 130 
-101 0 352 212 150 127 
-101 0 351 211 149 126 
-100 0 351 216 157 125 
-99 0 351 217 158 126 
-99 0 351 219 157 118 
-98 0 351 222 160 121 
-98 0 351 222 163 123 
-97 0 351 218 159 119 
-97 0 351 217 154 111 
-96 0 352 220 157 114 
-96 0 352 224 155 116 
-95 0 353 219 150 111 
-95 0 353 214 146 101 
-95 0 354 209 141 96 
-94 0 355 203 136 91 
-94 0 356 198 131 86 
-94 0 357 200 127 92 
-94 0 359 215 142 107 
-94 0 361 215 206 209 
-104 1 353 178 146 135 
-104 1 353 191 140 121 
-103 1 352 195 144 125 
-102 1 352 205 151 127 
-102 1 351 206 152 128 
-101 1 351 216 152 127 
-101 1 351 216 152 127 
-100 1 351 220 161 129 
-99 1 350 218 159 127 
-99 1 350 221 159 118 
-98 1 350 223 161 120 
-98 1 351 224 162 123 
-97 1 351 218 156 117 
-96 1 350 215 152 108 
-96 1 351 218 155 111 
-96 1 352 221 152 111 
-95 1 352 215 146 105 
-95 1 353 210 142 97 
-95 1 354 208 140 95 
-94 1 355 206 138 93 
-94 1 355 201 133 88 
-94 1 357 199 126 91 
-93 1 358 208 135 100 
-104 1 351 168 143 136 
-103 1 351 187 138 121 
-103 1 351 189 140 123 
-102 1 351 202 147 126 
-102 1 351 204 149 128 
-101 1 350 215 151 124 
-100 1 350 215 151 124 
-100 1 350 219 160 128 
-99 1 350 217 158 126 
-99 1 350 221 158 117 
-98 1 349 224 161 120 
-97 1 350 225 163 122 
-97 1 350 220 158 117 
-96 1 350 216 152 108 
-96 1 351 216 152 108 
-95 1 351 222 150 110 
-95 1 352 217 145 105 
-95 1 352 215 144 98 
-94 1 353 212 141 95 
-94 1 354 208 140 95 
-94 1 355 199 131 86 
-93 1 356 197 124 89 
-93 1 358 204 131 96 
-93 1 359 203 192 196 
-103 2 351 187 138 123 
-103 2 351 190 141 126 
-102 2 351 201 149 128 
-101 2 350 204 152 131 
-101 2 350 210 149 120 
-100 2 350 211 150 121 
-100 2 350 215 161 127 
-99 2 349 214 160 126 
-98 2 349 218 155 114 
-98 2 349 223 160 119 
-97 2 350 226 164 125 
-97 2 350 222 160 121 
-96 2 350 215 151 107 
-96 2 350 215 151 107 
-95 2 351 223 151 111 
-95 2 351 221 149 109 
-95 2 352 217 146 100 
-94 2 352 213 142 96 
-94 2 353 210 142 97 
-93 2 354 199 131 86 
-93 2 355 200 126 91 
-93 2 357 204 130 95 
-93 2 359 197 187 188 
-103 3 351 186 137 122 
-103 3 351 191 142 127 
-102 3 351 201 149 128 
-101 3 350 207 155 134 
-101 3 350 209 148 119 
-100 3 350 213 152 123 
-100 3 350 214 161 127 
-99 3 349 214 161 127 
-98 3 349 221 158 117 
-98 3 349 225 162 121 
-97 3 349 227 165 126 
-97 3 350 223 161 122 
-96 3 349 215 151 107 
-96 3 350 214 150 106 
-95 3 350 221 150 108 
-95 3 350 219 148 106 
-94 3 351 211 138 93 
-94 3 352 207 134 89 
-93 3 352 209 138 92 
-93 3 353 199 128 82 
-93 3 355 198 124 89 
-93 3 356 200 126 91 
-93 3 358 193 181 183 
-104 3 352 182 133 119 
-103 3 351 188 139 125 
-102 3 350 198 145 127 
-101 3 350 207 154 136 
-100 3 349 209 150 118 
-100 3 349 215 156 124 
-99 3 349 215 162 128 
-99 3 349 214 161 127 
-98 3 349 222 159 118 
-97 3 348 224 161 120 
-97 3 349 226 164 125 
-97 3 349 223 161 122 
-96 3 349 218 154 110 
-95 3 349 216 152 108 
-95 3 349 221 148 107 
-94 3 349 217 144 103 
-94 3 350 213 141 93 
-94 3 351 209 137 89 
-93 3 352 213 142 96 
-93 3 353 200 129 83 
-93 3 354 197 123 86 
-93 3 356 196 122 85 
-93 3 357 193 179 179 
-104 4 353 183 130 114 
-103 4 351 191 138 122 
-102 4 350 201 144 124 
-101 4 350 212 155 135 
-100 4 349 207 157 124 
-100 4 349 210 160 127 
-99 4 348 214 159 128 
-99 4 348 212 157 126 
-98 4 348 212 156 123 
-97 4 348 217 161 128 
-97 4 349 227 162 124 
-96 4 348 226 161 123 
-96 4 348 221 158 115 
-95 4 349 219 156 113 
-95 4 349 221 153 114 
-94 4 349 217 149 110 
-94 4 349 215 143 93 
-94 4 350 214 142 92 
-93 4 351 217 138 95 
-93 4 352 213 134 91 
-93 4 353 192 124 87 
-93 4 355 188 120 83 
-93 4 357 198 170 169 
-103 4 351 187 135 121 
-102 4 350 194 137 117 
-101 4 350 206 149 129 
-100 4 349 207 156 125 
-100 4 349 210 159 128 
-99 4 348 212 157 126 
-99 4 348 210 155 124 
-98 4 348 213 157 124 
-97 4 347 216 160 127 
-97 4 348 227 163 125 
-96 4 347 226 162 124 
-95 4 347 220 159 115 
-95 4 348 218 157 113 
-95 4 348 222 155 113 
-94 4 348 221 154 112 
-94 4 349 219 149 98 
-93 4 349 214 144 93 
-93 4 350 217 140 96 
-93 4 351 209 132 88 
-93 4 353 191 123 86 
-92 4 354 188 120 83 
-92 4 356 196 166 164 
-103 5 352 179 132 122 
-102 5 350 186 129 109 
-101 5 350 197 140 120 
-100 5 349 205 152 121 
-100 5 348 209 156 125 
-99 5 348 210 155 124 
-99 5 348 210 155 124 
-98 5 348 211 157 123 
-97 5 347 212 158 124 
-97 5 347 225 163 124 
-96 5 347 224 162 123 
-95 5 347 218 157 113 
-95 5 347 216 155 111 
-94 5 347 218 153 111 
-94 5 348 221 156 114 
-94 5 348 219 151 102 
-93 5 349 210 142 93 
-93 5 350 214 139 97 
-93 5 351 204 129 87 
-92 5 352 193 125 86 
-92 5 354 190 122 83 
-92 5 355 191 158 153 
-102 5 350 184 128 105 
-101 5 349 191 135 112 
-100 5 348 202 147 117 
-100 5 348 207 152 122 
-99 5 347 209 155 121 
-98 5 347 211 157 123 
-98 5 347 209 155 119 
-97 5 346 212 158 122 
-97 5 347 226 164 125 
-96 5 346 223 161 122 
-95 5 346 218 157 112 
-95 5 346 217 156 111 
-94 5 346 218 153 111 
-94 5 347 220 155 113 
-94 5 348 217 149 100 
-93 5 348 210 142 93 
-93 5 349 213 140 99 
-92 5 350 206 133 92 
-92 5 351 199 130 91 
-92 5 353 194 125 86 
-92 5 355 189 151 142 
-102 6 351 186 128 106 
-101 6 349 191 133 111 
-100 6 348 202 142 114 
-100 6 348 210 150 122 
-99 6 347 209 156 122 
-98 6 347 208 155 121 
-97 6 346 210 156 120 
-97 6 346 217 163 127 
-96 6 346 229 167 128 
-96 6 346 223 161 122 
-95 6 346 219 158 113 
-95 6 346 220 159 114 
-94 6 346 220 153 111 
-94 6 346 221 154 112 
-93 6 347 216 150 102 
-93 6 348 212 146 98 
-93 6 349 213 141 101 
-92 6 349 208 136 96 
-92 6 350 203 131 91 
-92 6 352 198 126 86 
-92 6 354 192 146 133 
-102 7 351 187 129 105 
-101 6 349 191 133 109 
-100 6 347 202 142 114 
-99 6 347 211 151 123 
-99 6 346 210 157 123 
-98 6 346 207 154 120 
-97 6 346 211 157 123 
-97 6 346 219 165 131 
-96 6 345 229 167 130 
-95 6 345 221 159 122 
-95 6 345 218 157 112 
-94 6 345 219 158 113 
-94 6 345 219 152 109 
-94 6 346 218 151 108 
-93 6 346 215 149 101 
-93 6 347 214 148 100 
-92 6 348 213 141 101 
-92 7 349 207 135 95 
-92 7 350 200 127 86 
-92 7 351 197 124 83 
-103 7 353 185 127 105 
-101 7 349 192 134 112 
-100 7 347 203 143 117 
-99 7 346 211 151 125 
-99 7 346 208 158 123 
-98 7 346 208 158 123 
-97 7 346 213 159 125 
-97 7 346 219 165 131 
-96 7 345 223 163 126 
-95 7 345 218 158 121 
-95 7 345 217 156 112 
-94 7 345 216 155 111 
-94 7 345 218 151 108 
-93 7 345 219 152 109 
-93 7 346 216 152 104 
-92 7 346 211 147 99 
-92 7 347 212 143 104 
-92 7 349 204 135 96 
-92 7 350 199 126 83 
-92 7 351 197 124 81 
-91 7 352 191 136 115 
-101 8 350 193 137 114 
-100 8 347 204 144 118 
-99 8 346 211 151 125 
-99 8 346 207 158 125 
-98 8 346 210 161 128 
-97 8 345 214 161 127 
-97 8 345 217 164 130 
-96 8 345 220 162 125 
-95 8 345 217 159 122 
-95 8 345 215 156 112 
-94 8 344 213 154 110 
-94 8 344 218 154 110 
-93 8 345 221 157 113 
-93 8 345 221 157 109 
-92 8 346 211 147 99 
-92 8 347 212 144 105 
-92 8 348 204 136 97 
-92 8 349 201 128 83 
-91 8 350 202 129 84 
-102 8 351 195 140 119 
-100 8 348 202 146 123 
-99 8 346 211 155 132 
-98 8 345 210 157 125 
-98 8 345 212 159 127 
-97 8 345 216 167 134 
-96 8 344 219 170 137 
-96 8 344 219 163 130 
-95 8 344 216 160 127 
-95 8 344 217 155 118 
-94 8 344 219 157 120 
-94 8 344 220 157 114 
-93 8 344 219 156 113 
-93 8 345 222 154 107 
-92 8 345 213 145 98 
-92 8 346 216 142 95 
-92 8 347 209 135 88 
-91 8 348 196 129 87 
-91 8 349 196 129 87 
-91 8 351 194 140 102 
-100 9 348 199 142 122 
-99 9 346 206 149 129 
-98 9 344 210 160 127 
-97 9 344 213 163 130 
-97 9 344 216 167 134 
-96 9 344 222 173 140 
-95 9 343 217 163 129 
-95 9 343 208 154 120 
-94 9 343 212 152 116 
-94 9 343 216 156 120 
-93 9 343 216 155 111 
-93 9 343 219 158 114 
-92 9 344 220 152 105 
-92 9 345 209 141 94 
-92 9 346 215 141 96 
-91 9 346 217 143 98 
-91 9 347 200 133 91 
-91 9 348 189 122 80 
-91 9 350 191 135 98 
-100 9 348 198 143 122 
-99 9 346 205 150 129 
-98 9 344 211 162 130 
-97 9 343 213 164 132 
-97 9 343 216 167 134 
-96 9 343 220 171 138 
-95 9 343 219 165 131 
-95 9 343 212 158 124 
-94 9 343 215 156 122 
-94 9 343 218 159 125 
-93 9 343 213 154 112 
-93 9 343 217 158 116 
-92 9 343 219 152 107 
-92 9 344 212 145 100 
-92 9 345 214 141 98 
-91 9 346 212 139 96 
-91 9 346 201 132 93 
-90 9 347 193 124 85 
-90 9 349 197 139 102 
-100 10 347 195 143 122 
-99 10 345 206 154 133 
-98 10 344 208 161 131 
-97 10 343 209 162 132 
-96 10 342 218 169 137 
-96 10 343 216 167 135 
-95 10 342 220 165 135 
-95 10 342 217 162 132 
-94 10 342 215 156 124 
-94 10 342 218 159 127 
-93 10 342 215 157 119 
-92 10 342 218 160 122 
-92 10 343 221 156 114 
-92 10 343 212 147 105 
-91 10 344 210 137 96 
-91 10 345 208 135 94 
-91 10 346 201 131 95 
-90 10 346 196 126 90 
-90 10 348 198 138 104 
-100 10 348 187 136 117 
-98 10 344 205 154 135 
-98 10 343 204 157 129 
-97 10 342 211 164 136 
-96 10 342 221 170 139 
-96 10 342 224 173 142 
-95 10 341 226 170 143 
-95 10 342 223 167 140 
-94 10 342 221 164 137 
-94 10 342 224 167 140 
-93 10 342 220 164 131 
-92 10 342 216 160 127 
-92 10 343 220 156 120 
-92 10 343 214 150 114 
-91 10 344 212 139 104 
-91 10 345 206 133 98 
-91 10 346 201 131 97 
-90 10 346 199 129 95 
-90 10 347 204 141 108 
-99 11 345 198 149 132 
-98 11 343 203 156 130 
-97 11 342 213 166 140 
-96 11 341 218 167 138 
-95 11 341 225 174 145 
-95 11 341 219 165 139 
-94 11 341 206 152 126 
-94 11 341 189 135 111 
-94 11 342 181 127 103 
-93 11 342 176 121 91 
-92 11 342 168 113 83 
-92 11 343 179 119 85 
-92 11 343 188 128 94 
-91 11 343 204 135 102 
-91 11 344 205 136 103 
-91 11 345 203 134 101 
-90 11 346 200 131 98 
-90 11 346 201 140 109 
-90 11 348 179 118 87 
-99 11 345 188 141 123 
-98 11 343 200 153 127 
-97 11 342 206 159 133 
-96 11 341 210 159 130 
-95 11 341 187 136 107 
-95 11 341 161 109 85 
-94 11 341 147 95 71 
-94 11 341 120 68 46 
-93 11 341 124 72 50 
-93 11 342 158 107 78 
-92 11 342 164 113 84 
-92 11 342 157 101 68 
-92 11 343 150 94 61 
-91 11 343 157 92 60 
-91 11 343 169 104 72 
-90 11 344 185 120 88 
-90 11 344 191 126 94 
-89 11 345 196 137 105 
-99 12 347 179 133 117 
-98 12 343 195 148 122 
-97 12 342 193 146 120 
-96 12 341 164 115 85 
-95 12 341 148 99 69 
-95 12 341 160 110 85 
-89 12 345 178 122 87 
-98 12 343 188 134 110 
-97 12 342 164 110 86 
-96 12 341 151 99 75 
-95 12 341 177 125 101 
-95 12 341 202 151 130 
-98 13 344 161 109 85 
-97 13 341 157 105 81 
