ply
format ascii 1.0
comment Created by CloudCompare v2.10.1 (Zephyrus)
comment Created 2020-05-17 12:34 AM
obj_info Generated by CloudCompare!
element vertex 114
property float x
property float y
property float z
property uchar red
property uchar green
property uchar blue
end_header
-109 -22 377 181 152 146 
-110 -22 377 214 184 182 
-109 -22 376 222 192 190 
-108 -22 375 222 186 174 
-107 -22 375 209 173 161 
-107 -22 375 203 157 133 
-111 -21 378 218 189 194 
-110 -21 376 216 187 192 
-109 -21 376 222 181 177 
-109 -21 375 220 179 175 
-108 -21 374 216 174 158 
-107 -21 375 219 177 161 
-107 -21 375 227 182 151 
-106 -21 375 210 165 134 
-106 -21 375 191 133 109 
-111 -20 376 217 180 174 
-109 -20 374 214 177 171 
-109 -20 374 216 179 161 
-108 -20 373 217 180 162 
-107 -20 373 220 175 156 
-107 -20 374 218 173 154 
-106 -20 374 219 167 153 
-106 -20 374 214 162 148 
-105 -20 374 218 158 134 
-105 -20 375 208 148 124 
-104 -20 375 171 117 93 
-104 -20 375 211 157 133 
-111 -20 374 196 193 188 
-110 -20 373 216 179 173 
-109 -20 373 212 175 169 
-109 -20 373 213 174 157 
-108 -20 372 214 175 158 
-107 -20 372 218 173 154 
-107 -20 373 218 173 154 
-106 -20 373 219 168 151 
-106 -20 373 214 163 146 
-105 -20 373 225 167 143 
-105 -20 374 216 158 134 
-104 -20 375 194 140 116 
-104 -20 375 167 113 89 
-112 -19 376 202 195 189 
-110 -19 373 193 186 180 
-109 -19 372 212 175 169 
-109 -19 372 210 173 167 
-108 -19 372 213 171 155 
-107 -19 371 215 173 157 
-107 -19 371 222 175 155 
-106 -19 371 224 177 157 
-106 -19 372 225 174 155 
-105 -19 372 222 171 152 
-105 -19 373 229 173 150 
-104 -19 373 218 162 139 
-104 -19 374 214 160 136 
-104 -19 375 190 136 112 
-103 -19 375 174 123 96 
-103 -19 375 217 166 139 
-111 -18 374 197 182 179 
-110 -18 372 194 179 176 
-109 -18 372 209 172 164 
-109 -18 372 209 172 164 
-108 -18 371 215 172 156 
-107 -18 371 218 175 159 
-107 -18 371 227 181 158 
-106 -18 371 231 185 162 
-106 -18 372 235 185 162 
-105 -18 372 234 184 161 
-105 -18 373 237 183 157 
-104 -18 373 227 173 147 
-104 -18 373 223 169 143 
-103 -18 374 213 159 133 
-103 -19 375 183 130 99 
-103 -19 375 189 136 105 
-111 -18 373 198 177 174 
-110 -18 372 197 176 173 
-109 -18 371 210 173 164 
-109 -18 371 210 173 164 
-108 -18 371 217 171 155 
-107 -18 371 220 174 158 
-107 -18 371 226 178 155 
-106 -18 371 230 182 159 
-106 -18 371 233 186 158 
-105 -18 372 234 187 159 
-105 -18 372 237 186 157 
-104 -18 373 231 180 151 
-104 -18 373 230 175 145 
-103 -18 374 228 173 143 
-103 -18 375 216 159 129 
-103 -18 375 177 120 90 
-102 -18 376 194 139 108 
-111 -17 372 201 173 172 
-110 -17 372 201 173 172 
-109 -17 371 209 173 161 
-109 -17 371 210 174 162 
-108 -17 370 219 171 151 
-107 -17 371 219 172 146 
-103 -17 375 192 135 105 
-102 -17 376 164 107 77 
-111 -17 372 201 167 168 
-110 -17 371 202 168 169 
-109 -17 371 208 170 157 
-103 -17 375 209 154 123 
-102 -17 376 160 105 75 
-111 -16 372 201 165 167 
-110 -16 371 202 166 168 
-109 -16 371 204 168 154 
-102 -16 376 155 99 72 
-102 -16 377 133 77 50 
-111 -15 372 189 175 172 
-110 -15 371 186 172 169 
-102 -16 377 136 83 49 
-111 -15 372 191 176 173 
-110 -15 371 189 174 171 
-101 -15 377 131 75 60 
-101 -14 377 167 120 102 
