ply
format ascii 1.0
comment Created by CloudCompare v2.10.1 (Zephyrus)
comment Created 2020-05-17 12:33 AM
obj_info Generated by CloudCompare!
element vertex 713
property float x
property float y
property float z
property uchar red
property uchar green
property uchar blue
end_header
-91 18 336 214 166 126 
-91 18 336 206 158 118 
-90 18 336 211 162 119 
-90 18 336 217 168 125 
-89 18 336 217 165 125 
-89 18 336 217 165 125 
-88 18 337 213 161 122 
-88 18 338 204 152 113 
-88 18 338 193 139 103 
-87 18 339 173 119 83 
-92 18 335 209 160 128 
-91 18 335 213 165 119 
-91 18 335 212 164 118 
-90 18 335 218 168 117 
-89 18 335 216 166 115 
-89 18 335 217 165 118 
-88 18 335 217 165 118 
-88 18 336 215 162 120 
-88 18 336 209 156 114 
-87 18 337 200 147 107 
-87 18 338 193 140 100 
-92 19 336 205 159 126 
-92 19 335 206 160 127 
-91 19 335 209 163 114 
-91 19 335 208 162 113 
-90 19 335 215 168 114 
-89 19 334 215 168 114 
-89 19 334 220 168 120 
-88 19 334 220 168 120 
-88 19 335 219 165 119 
-87 19 335 214 160 114 
-87 19 336 206 152 106 
-87 19 337 203 149 103 
-86 19 337 169 132 113 
-86 19 338 122 85 66 
-92 19 336 204 158 122 
-92 19 335 208 162 126 
-91 19 334 213 166 120 
-90 19 334 215 168 122 
-90 19 334 218 168 117 
-89 19 333 218 168 117 
-88 19 333 220 168 118 
-88 19 333 219 167 117 
-87 19 333 219 167 117 
-87 19 333 216 164 114 
-87 19 335 210 157 107 
-87 19 336 207 154 104 
-86 19 336 201 155 121 
-85 19 336 184 138 104 
-85 19 337 110 95 76 
-94 20 338 198 153 120 
-92 20 335 203 155 115 
-91 20 334 209 161 121 
-91 20 334 219 168 123 
-90 20 333 219 168 123 
-89 20 333 224 172 124 
-89 20 333 224 172 124 
-88 20 333 223 172 119 
-88 20 333 223 172 119 
-87 20 333 221 170 117 
-87 20 333 220 169 116 
-86 20 333 218 168 115 
-86 20 334 213 163 110 
-86 20 335 210 159 116 
-85 20 335 206 155 112 
-85 20 336 171 136 116 
-85 20 337 135 100 80 
-94 21 338 202 159 124 
-92 20 334 214 165 124 
-91 20 333 211 162 121 
-91 20 333 220 166 120 
-90 20 332 224 170 124 
-89 20 332 227 171 122 
-89 20 332 227 171 122 
-88 20 332 226 173 119 
-88 20 332 229 176 122 
-87 20 332 223 174 118 
-87 20 332 221 172 116 
-86 20 332 220 174 122 
-86 20 333 214 168 116 
-85 20 333 221 169 122 
-85 20 334 214 162 115 
-85 20 335 205 158 138 
-84 20 336 187 140 120 
-93 21 336 197 154 119 
-92 21 333 209 165 120 
-91 21 332 215 171 126 
-90 21 332 217 169 120 
-89 21 331 222 174 125 
-89 21 331 225 173 125 
-88 21 331 227 175 127 
-88 21 331 230 176 129 
-87 21 331 229 175 128 
-87 21 331 228 174 127 
-86 21 331 229 175 128 
-86 21 332 227 175 127 
-85 21 332 223 171 123 
-85 21 332 213 169 120 
-85 21 333 211 167 118 
-84 21 334 200 161 120 
-84 21 335 196 157 116 
-84 21 336 170 141 127 
-84 21 337 100 71 57 
-93 21 335 201 158 123 
-91 21 332 213 166 120 
-91 21 331 220 173 127 
-90 21 331 223 173 124 
-89 21 331 225 175 126 
-89 21 330 227 175 127 
-88 21 330 228 176 128 
-88 21 330 230 176 130 
-87 21 330 230 176 130 
-87 21 330 230 176 130 
-86 21 330 231 177 131 
-86 21 331 230 178 131 
-85 21 331 226 174 127 
-85 21 331 220 172 124 
-84 21 332 216 168 120 
-84 21 333 217 174 132 
-84 21 334 199 156 114 
-84 21 335 201 165 149 
-83 22 336 169 133 117 
-92 22 333 206 162 125 
-91 22 331 214 166 120 
-90 22 330 221 173 127 
-90 22 330 225 175 126 
-89 22 330 225 175 126 
-89 22 330 228 176 129 
-88 22 330 230 178 131 
-88 22 330 231 178 134 
-87 22 330 231 178 134 
-87 22 330 231 178 134 
-86 22 330 233 180 136 
-85 22 330 232 181 136 
-85 22 331 230 179 134 
-85 22 331 227 176 131 
-84 22 331 225 174 129 
-84 22 332 221 172 129 
-84 22 333 210 161 118 
-83 22 334 206 164 142 
-83 22 335 209 167 145 
-83 22 336 138 134 125 
-92 22 332 211 163 125 
-91 22 330 215 167 119 
-90 22 330 220 172 124 
-90 22 330 226 174 126 
-89 22 329 227 175 127 
-89 22 330 229 177 130 
-88 22 330 232 180 133 
-87 22 329 234 181 139 
-87 22 330 234 181 139 
-86 22 329 233 181 141 
-86 22 330 234 182 142 
-85 22 330 232 183 142 
-85 22 330 231 182 141 
-85 22 331 236 187 144 
-84 22 331 227 178 135 
-84 22 331 223 175 129 
-83 22 332 221 173 127 
-83 22 333 205 158 128 
-83 22 334 213 166 136 
-82 23 335 196 172 160 
-93 23 335 201 153 113 
-92 23 331 211 163 123 
-91 23 330 218 167 120 
-90 23 329 223 172 125 
-89 23 329 227 175 125 
-89 23 329 231 179 129 
-88 23 329 230 178 131 
-88 23 329 234 182 135 
-87 23 329 235 183 143 
-87 23 329 235 183 143 
-86 23 329 233 184 144 
-86 23 329 234 185 145 
-85 23 329 233 184 144 
-85 23 329 232 183 143 
-84 23 330 233 185 145 
-84 23 330 227 179 139 
-84 23 331 228 181 137 
-83 23 331 223 176 132 
-83 23 332 211 161 128 
-83 23 333 209 159 126 
-82 23 334 207 168 151 
-82 23 335 194 155 138 
-93 24 334 202 153 113 
-91 23 330 211 162 122 
-90 23 329 221 169 122 
-90 23 329 224 172 125 
-89 23 329 226 173 123 
-89 23 329 230 177 127 
-88 23 329 233 179 133 
-88 23 329 236 182 136 
-87 23 329 235 183 143 
-87 23 329 235 183 143 
-86 23 329 235 186 146 
-86 23 329 236 187 147 
-85 23 329 233 185 145 
-85 23 329 231 183 143 
-84 23 329 234 184 147 
-84 23 330 235 185 148 
-83 23 330 232 182 145 
-83 23 331 229 179 142 
-83 23 331 221 171 136 
-82 23 332 211 161 126 
-82 23 333 214 168 145 
-82 24 334 214 168 145 
-92 24 332 204 152 113 
-91 24 330 212 160 121 
-90 24 329 220 168 121 
-90 24 329 224 172 125 
-89 24 329 225 172 122 
-89 24 329 229 176 126 
-88 24 329 233 179 133 
-88 24 329 236 182 136 
-87 24 329 235 183 143 
-87 24 329 235 183 143 
-86 24 329 234 184 147 
-86 24 329 236 186 149 
-85 24 329 233 185 145 
-85 24 329 231 183 143 
-84 24 329 238 189 148 
-84 24 329 232 183 142 
-83 24 330 231 181 146 
-83 24 330 226 176 141 
-83 24 331 230 176 142 
-82 24 331 219 165 131 
-82 24 332 206 156 129 
-81 24 333 214 164 137 
-92 24 331 205 153 116 
-91 24 329 212 160 123 
-90 24 329 220 168 121 
-90 24 329 224 172 125 
-89 24 329 227 174 124 
-89 24 329 230 177 127 
-88 24 329 232 178 132 
-88 24 329 236 182 136 
-87 24 328 234 182 142 
-87 24 328 234 182 142 
-86 24 328 233 184 144 
-85 24 328 235 186 146 
-85 24 328 233 185 145 
-84 24 328 232 184 144 
-84 24 329 236 189 143 
-84 24 329 236 189 143 
-83 24 329 236 186 151 
-83 24 329 230 180 145 
-82 24 330 233 177 142 
-82 24 330 225 169 134 
-81 24 331 217 164 133 
-81 25 332 208 155 124 
-81 25 333 212 175 157 
-94 25 335 197 145 106 
-92 25 330 207 156 113 
-91 25 329 211 160 117 
-90 25 328 218 164 118 
-90 25 328 225 171 125 
-89 25 329 230 174 127 
-89 25 328 230 174 127 
-88 25 329 230 173 130 
-88 25 328 232 175 132 
-87 25 328 232 179 139 
-87 25 328 234 181 141 
-86 25 328 230 181 140 
-85 25 328 228 179 138 
-85 25 328 229 180 137 
-84 25 328 232 183 140 
-84 25 328 236 180 145 
-83 25 328 235 179 144 
-83 25 329 232 177 138 
-83 25 329 230 175 136 
-82 25 329 228 180 140 
-82 25 330 226 178 138 
-81 25 330 218 167 136 
-81 25 331 210 159 128 
-81 25 333 214 167 147 
-81 25 334 205 158 138 
-94 26 335 196 144 105 
-92 25 329 205 154 111 
-91 25 329 210 159 116 
-90 25 328 218 164 118 
-90 25 328 223 169 123 
-89 25 328 226 170 123 
-89 25 328 229 173 126 
-88 25 328 225 171 127 
-88 25 328 224 170 126 
-87 25 328 225 171 133 
-87 25 328 227 173 135 
-86 25 328 224 175 135 
-85 25 327 225 176 136 
-85 25 327 228 179 138 
-84 25 327 229 180 139 
-84 25 327 231 177 141 
-83 25 327 230 176 140 
-83 25 328 229 176 136 
-82 25 328 229 176 136 
-82 25 328 229 181 141 
-82 25 329 231 183 143 
-81 25 330 224 175 143 
-81 25 330 214 165 133 
-80 26 331 209 164 141 
-93 26 334 196 144 107 
-92 26 329 204 152 112 
-91 26 329 209 157 117 
-90 26 328 217 165 118 
-90 26 328 219 167 120 
-89 26 328 219 165 119 
-89 26 328 223 169 123 
-88 26 328 219 164 123 
-87 26 327 219 164 123 
-87 26 327 221 169 132 
-86 26 327 225 173 136 
-86 26 327 224 176 138 
-85 26 327 225 177 139 
-84 26 326 228 180 140 
-84 26 327 228 180 140 
-84 26 327 228 178 141 
-83 26 327 226 176 139 
-83 26 327 227 178 138 
-82 26 327 227 178 138 
-82 26 328 225 180 139 
-81 26 328 229 184 143 
-81 26 329 230 181 148 
-81 26 330 220 171 138 
-80 26 331 213 169 142 
-80 26 332 218 174 147 
-93 27 334 198 145 111 
-92 26 329 202 150 110 
-91 26 329 207 155 115 
-90 26 328 214 161 117 
-90 26 328 212 159 115 
-89 26 328 212 158 114 
-89 26 328 218 164 120 
-88 26 328 217 164 124 
-87 26 327 220 167 127 
-87 26 327 224 174 139 
-86 26 327 230 180 145 
-85 26 326 232 184 148 
-85 26 326 233 185 149 
-84 26 326 231 186 147 
-84 26 326 231 186 147 
-83 26 326 233 185 149 
-83 26 326 230 182 146 
-82 26 326 231 183 145 
-82 26 327 228 180 142 
-82 26 327 218 174 135 
-81 26 327 223 179 140 
-81 26 328 231 182 149 
-80 26 329 225 176 143 
-80 26 330 216 175 143 
-80 27 331 214 173 141 
-80 27 332 192 144 121 
-92 27 329 204 152 113 
-91 27 329 204 152 113 
-90 27 328 206 153 111 
-89 27 327 204 151 109 
-89 27 327 208 155 113 
-88 27 327 218 165 123 
-88 27 327 224 172 133 
-87 27 327 228 176 137 
-87 27 327 232 182 147 
-86 27 326 236 186 151 
-85 27 326 236 190 156 
-85 27 326 237 191 157 
-84 27 326 236 192 155 
-84 27 326 237 193 156 
-83 27 325 238 192 158 
-83 27 326 234 188 154 
-82 27 326 234 188 154 
-82 27 326 228 182 148 
-82 27 327 217 174 139 
-81 27 327 220 177 142 
-81 27 328 227 181 145 
-80 27 328 223 177 141 
-80 27 329 213 170 135 
-80 27 330 209 166 131 
-80 27 332 197 150 122 
-93 28 334 201 152 120 
-92 27 329 202 152 115 
-91 27 329 201 151 114 
-90 27 328 202 150 110 
-89 27 327 201 149 109 
-89 27 326 214 162 122 
-88 27 326 227 175 135 
-88 27 326 231 181 144 
-87 27 326 235 185 148 
-87 27 326 236 187 154 
-86 27 326 236 187 154 
-85 27 326 237 191 157 
-85 27 325 238 192 158 
-84 27 325 236 193 158 
-84 27 325 238 195 160 
-83 27 325 238 192 159 
-83 27 325 236 190 157 
-82 27 326 236 191 158 
-82 27 326 233 188 155 
-81 27 326 225 182 148 
-81 27 327 223 180 146 
-81 27 328 227 179 143 
-80 27 328 222 174 138 
-80 27 329 215 171 134 
-80 28 330 209 165 128 
-79 28 331 196 147 115 
-93 28 333 200 153 123 
-91 28 328 194 146 110 
-91 28 328 193 145 109 
-90 28 328 202 153 112 
-89 28 327 208 159 118 
-89 28 326 224 175 135 
-88 28 326 233 184 144 
-88 28 326 235 185 150 
-87 28 326 238 188 153 
-87 28 326 238 189 156 
-86 28 326 237 188 155 
-85 28 325 236 190 157 
-85 28 325 237 191 158 
-84 28 325 236 193 158 
-84 28 325 237 194 159 
-83 28 325 237 191 158 
-83 28 325 237 191 158 
-82 28 325 238 193 162 
-82 28 325 237 192 161 
-81 28 325 230 190 155 
-81 28 326 223 183 148 
-80 28 327 224 176 138 
-80 28 328 221 173 135 
-80 28 328 217 172 131 
-79 28 329 209 164 123 
-79 28 330 196 143 109 
-79 28 331 129 76 42 
-92 28 329 182 134 98 
-91 28 328 184 136 100 
-90 28 327 204 155 115 
-89 28 327 216 167 127 
-89 28 326 231 182 142 
-88 28 326 232 183 143 
-88 28 326 234 184 149 
-87 28 325 238 188 153 
-86 28 325 239 190 158 
-86 28 325 239 190 158 
-85 28 325 237 191 158 
-85 28 325 238 192 159 
-84 28 324 237 194 159 
-83 28 324 237 194 159 
-83 28 324 240 191 159 
-82 28 324 242 193 161 
-82 28 325 239 194 163 
-82 28 325 238 193 162 
-81 28 325 230 190 155 
-81 28 326 222 182 147 
-80 28 327 222 174 136 
-80 28 327 223 175 137 
-79 28 327 217 170 128 
-79 29 329 207 160 118 
-92 29 329 179 131 95 
-91 29 328 190 142 106 
-90 29 327 213 161 124 
-89 29 326 222 170 133 
-89 29 326 227 177 144 
-88 29 325 232 182 149 
-87 29 325 224 184 149 
-87 29 325 230 190 155 
-86 29 325 239 189 152 
-85 29 324 240 190 153 
-85 29 324 246 190 155 
-84 29 324 244 188 153 
-84 29 324 237 192 163 
-83 29 324 240 195 166 
-83 29 324 241 198 163 
-82 29 324 239 196 161 
-82 29 324 239 195 160 
-82 29 325 238 194 159 
-81 29 325 233 187 151 
-81 29 326 226 180 144 
-80 29 326 223 175 137 
-80 29 327 221 173 135 
-79 29 327 219 166 132 
-79 29 328 210 157 123 
-79 29 329 193 129 102 
-91 30 329 179 133 99 
-91 29 328 191 145 111 
-90 29 326 210 160 123 
-89 29 326 219 169 132 
-88 29 325 226 178 142 
-88 29 325 229 181 145 
-87 29 325 225 185 149 
-87 29 325 230 190 154 
-86 29 325 238 192 158 
-85 29 324 238 192 158 
-85 29 324 242 191 160 
-84 29 324 244 193 162 
-84 29 324 237 196 168 
-83 29 324 239 198 170 
-83 29 324 241 198 163 
-82 29 324 241 198 163 
-82 29 324 241 197 162 
-82 29 325 237 193 158 
-81 29 325 232 186 150 
-81 29 325 226 180 144 
-80 29 326 224 174 137 
-80 29 326 222 172 135 
-79 29 327 217 161 128 
-91 30 329 181 135 101 
-91 30 328 196 150 116 
-90 30 326 208 160 124 
-89 30 326 216 168 132 
-88 30 325 226 178 142 
-88 30 325 228 180 144 
-87 30 325 227 185 147 
-87 30 325 232 190 152 
-86 30 324 237 194 160 
-85 30 324 236 193 159 
-85 30 324 238 192 166 
-84 30 324 243 197 171 
-84 30 324 240 200 174 
-83 30 324 241 201 175 
-83 30 324 244 201 166 
-82 30 324 244 201 166 
-82 30 324 243 199 164 
-81 30 324 237 193 158 
-81 30 325 231 185 149 
-81 30 325 226 180 144 
-80 30 326 226 173 139 
-80 30 326 223 170 136 
-79 30 326 220 159 128 
-79 30 327 204 143 112 
-91 31 328 198 149 116 
-90 30 326 207 157 122 
-89 30 326 215 165 130 
-88 30 325 225 175 140 
-88 30 325 230 180 145 
-87 30 325 227 182 143 
-86 30 324 233 188 149 
-86 30 324 239 196 164 
-85 30 324 236 193 161 
-85 30 324 237 192 169 
-84 30 324 244 199 176 
-84 30 324 242 200 175 
-83 30 324 243 201 176 
-83 30 324 243 200 166 
-82 30 324 243 200 166 
-82 30 324 243 199 164 
-81 30 324 239 195 160 
-81 30 324 235 186 153 
-81 30 325 228 179 146 
-80 30 325 227 173 139 
-80 30 326 223 169 135 
-79 30 326 223 159 131 
-79 30 327 190 126 98 
-91 31 329 196 147 114 
-90 31 327 207 155 118 
-89 31 326 216 164 127 
-88 31 325 223 173 138 
-88 31 325 229 179 144 
-87 31 325 230 182 142 
-86 31 324 235 187 147 
-86 31 324 240 195 162 
-85 31 324 238 193 160 
-85 31 324 236 194 170 
-84 31 324 243 201 177 
-84 31 324 245 201 174 
-83 31 324 246 202 175 
-83 31 324 244 201 167 
-82 31 324 242 199 165 
-82 31 324 244 200 165 
-81 31 324 242 198 163 
-81 31 324 235 186 153 
-80 31 324 227 178 145 
-80 31 325 231 172 142 
-79 31 325 227 168 138 
-79 31 325 217 150 124 
-92 32 332 190 144 110 
-90 32 328 205 153 114 
-89 32 327 215 163 124 
-88 31 325 216 170 136 
-88 31 325 225 179 145 
-87 31 324 228 183 144 
-86 31 324 232 187 148 
-86 31 324 238 194 159 
-85 31 324 239 195 160 
-85 31 324 238 196 171 
-84 31 324 243 201 176 
-84 31 324 246 202 173 
-83 31 324 246 202 173 
-83 31 324 246 203 171 
-82 31 324 242 199 167 
-82 31 324 243 198 165 
-81 31 324 240 195 162 
-81 31 324 236 183 151 
-80 31 324 231 178 146 
-80 31 324 232 171 142 
-79 31 325 225 164 135 
-79 31 325 191 121 96 
-90 32 329 204 151 111 
-89 32 327 214 161 121 
-89 32 326 211 166 135 
-88 32 325 222 177 146 
-87 32 324 227 183 144 
-86 32 324 229 185 146 
-86 32 324 237 191 155 
-85 32 324 241 195 159 
-85 32 324 240 196 169 
-84 32 324 243 199 172 
-84 32 324 247 202 171 
-83 32 324 248 203 172 
-83 32 323 244 200 171 
-82 32 323 241 197 168 
-82 32 323 242 196 163 
-81 32 324 238 192 159 
-81 32 324 238 181 152 
-80 32 324 231 174 145 
-80 32 324 219 153 127 
-91 33 332 202 147 108 
-90 33 328 212 157 118 
-89 32 326 207 163 134 
-88 32 325 220 176 147 
-87 32 324 225 181 144 
-86 32 324 227 183 146 
-86 32 324 237 189 153 
-85 32 324 242 194 158 
-85 32 324 240 193 165 
-84 32 323 241 194 166 
-84 32 323 248 202 169 
-83 32 324 250 204 171 
-83 32 323 245 201 172 
-82 32 323 244 200 171 
-82 32 323 246 197 167 
-81 32 323 241 192 162 
-81 32 324 240 180 152 
-80 32 324 223 163 135 
-80 32 325 190 120 95 
-90 33 330 201 151 116 
-89 33 327 206 161 130 
-88 33 326 215 170 139 
-87 33 325 226 181 158 
-87 33 325 232 187 164 
-86 33 325 240 190 163 
-85 33 324 245 195 168 
-85 33 324 252 195 166 
-84 33 324 251 194 165 
-84 33 324 246 201 170 
-83 33 324 255 210 179 
-83 33 324 254 200 176 
-82 33 324 250 196 172 
-82 33 324 249 193 168 
-81 33 324 240 184 159 
-81 33 324 220 158 135 
-91 34 333 183 143 118 
-89 34 329 206 157 125 
-88 34 327 217 168 136 
-88 34 326 227 177 144 
-87 33 325 238 188 155 
-86 33 325 242 189 158 
-85 33 324 245 192 161 
-85 33 324 249 194 164 
-84 33 324 250 195 165 
-84 33 324 250 199 170 
-83 33 324 252 201 172 
-83 33 324 252 194 172 
-82 33 324 237 179 157 
-82 33 324 219 158 137 
-81 33 324 191 130 109 
-81 33 325 160 95 75 
-90 35 332 177 135 110 
-89 34 329 187 145 120 
-88 34 327 209 159 124 
-87 34 325 221 171 136 
-86 34 325 229 174 144 
-85 34 324 233 178 148 
-85 34 324 235 181 157 
-84 34 324 233 179 155 
-84 34 324 231 173 149 
-83 34 324 221 163 139 
-83 34 324 199 136 118 
-82 34 325 138 73 55 
-90 35 333 137 114 106 
-88 35 329 139 104 84 
-87 35 327 134 99 79 
-87 35 327 156 99 80 
-86 35 326 158 101 82 
-85 35 326 154 102 81 
-85 35 326 151 99 78 
-84 35 326 144 85 67 
-84 35 326 131 72 54 
-89 36 332 65 54 52 
-88 36 330 106 49 42 
-87 35 329 110 53 46 
-86 35 329 111 54 37 
-85 35 328 114 57 40 
-85 35 328 114 52 39 
-84 35 328 109 47 34 
-84 35 328 120 53 37 
-83 35 328 121 54 38 
-83 35 329 125 53 39 
-83 35 329 125 53 39 
-89 37 334 97 37 37 
-88 37 334 100 40 40 
-88 37 334 101 42 26 
-87 37 334 103 44 28 
-86 36 333 107 41 29 
-86 36 333 109 43 31 
-85 36 333 116 48 35 
-85 36 333 117 49 36 
-84 36 333 119 47 35 
-88 37 335 103 46 29 
-87 37 335 101 44 27 
-86 37 334 108 38 28 
-86 37 334 109 39 29 
-85 37 334 115 47 34 
-85 37 334 115 47 34 
-88 38 334 98 45 29 
-87 38 334 95 42 26 
-86 38 334 108 38 28 
-86 38 334 108 38 28 
