ply
format ascii 1.0
comment Created by CloudCompare v2.10.1 (Zephyrus)
comment Created 2020-05-17 12:34 AM
obj_info Generated by CloudCompare!
element vertex 261
property float x
property float y
property float z
property uchar red
property uchar green
property uchar blue
end_header
-72 75 361 174 133 115 
-71 75 361 211 155 132 
-72 75 360 156 105 88 
-71 75 360 183 121 96 
-70 75 359 200 138 113 
-70 75 359 187 134 102 
-69 75 359 196 143 111 
-68 75 359 195 143 106 
-68 75 359 179 127 90 
-67 75 359 185 133 96 
-71 75 358 183 117 91 
-70 75 358 191 125 99 
-69 75 358 189 136 102 
-69 75 358 205 152 118 
-68 75 359 178 124 86 
-68 75 359 180 126 88 
-67 75 359 198 143 104 
-67 75 359 211 156 117 
-70 75 357 191 127 99 
-70 75 357 194 130 102 
-69 75 357 195 142 108 
-69 75 357 189 136 102 
-68 75 357 166 110 73 
-68 76 358 198 142 105 
-67 76 358 214 156 118 
-67 76 358 218 160 122 
-66 76 358 222 160 113 
-65 76 358 218 156 109 
-65 76 358 217 156 111 
-64 76 358 224 163 118 
-64 76 358 223 166 123 
-70 76 356 193 134 104 
-69 76 355 203 144 114 
-69 76 356 204 154 121 
-68 76 356 174 124 91 
-68 76 357 178 124 88 
-68 76 357 214 160 124 
-67 76 357 224 166 129 
-66 76 357 222 164 127 
-66 76 357 224 163 118 
-65 76 357 217 156 111 
-64 76 356 220 159 115 
-64 76 356 226 165 121 
-71 76 355 180 134 111 
-70 76 354 201 146 115 
-69 76 354 205 150 119 
-69 76 355 203 154 122 
-68 76 355 164 115 83 
-68 76 355 203 150 116 
-67 76 355 219 166 132 
-67 76 355 226 174 137 
-66 76 356 222 170 133 
-66 76 356 220 163 118 
-65 76 355 216 159 114 
-64 76 355 223 161 122 
-64 76 355 220 158 119 
-63 76 356 204 149 108 
-63 77 357 201 146 105 
-63 77 358 201 142 100 
-70 77 354 192 141 120 
-70 76 353 201 148 116 
-69 76 353 215 162 130 
-69 77 354 181 135 102 
-68 77 355 171 125 92 
-68 77 355 218 168 135 
-67 77 355 227 177 144 
-67 77 355 231 183 145 
-66 77 355 228 180 142 
-65 77 355 230 176 132 
-65 77 354 224 170 126 
-64 77 354 223 161 124 
-64 77 355 218 156 119 
-63 77 355 207 145 106 
-63 77 356 198 136 97 
-70 77 353 194 155 126 
-70 77 353 205 149 126 
-69 77 353 212 156 133 
-68 77 353 163 112 91 
-68 77 354 189 138 117 
-68 77 354 231 181 158 
-67 77 354 238 188 165 
-66 77 354 240 186 160 
-66 77 354 234 180 154 
-65 77 354 228 179 139 
-65 77 354 222 173 133 
-64 77 354 215 166 123 
-64 77 354 205 156 113 
-63 77 355 194 139 98 
-63 78 356 185 130 89 
-62 78 356 187 126 97 
-62 78 358 187 126 97 
-70 77 353 195 151 124 
-70 77 353 209 155 131 
-69 77 353 201 147 123 
-68 77 353 147 101 78 
-68 78 354 197 151 128 
-67 78 354 232 184 161 
-67 78 354 237 189 166 
-66 78 354 239 187 163 
-66 78 354 233 181 157 
-65 78 354 230 178 141 
-65 78 354 225 173 136 
-64 78 354 218 165 125 
-64 78 354 209 156 116 
-63 78 355 190 136 98 
-63 78 356 179 125 87 
-62 78 356 151 97 69 
-62 78 357 168 114 86 
-70 78 353 195 148 120 
-69 78 352 209 159 136 
-69 78 353 183 133 110 
-68 78 353 137 95 71 
-68 78 353 206 164 140 
-67 78 353 227 183 158 
-67 78 353 229 185 160 
-66 78 353 230 183 157 
-66 78 353 225 178 152 
-65 78 353 226 173 139 
-64 78 353 221 168 134 
-64 78 354 215 155 121 
-64 78 354 206 146 112 
-63 78 354 192 138 104 
-63 78 355 173 119 85 
-62 79 356 113 69 42 
-62 79 357 133 89 62 
-70 78 352 199 149 122 
-69 78 352 208 160 138 
-69 79 353 174 126 104 
-68 79 353 146 104 80 
-68 79 353 213 171 147 
-67 79 353 224 178 152 
-67 79 353 223 177 151 
-66 79 353 224 177 151 
-66 79 353 220 173 147 
-65 79 353 220 170 137 
-64 79 353 215 165 132 
-64 79 354 211 148 117 
-64 79 354 202 139 108 
-63 79 355 192 136 101 
-63 79 355 179 123 88 
-62 79 356 98 61 35 
-62 80 357 120 83 57 
-70 79 353 202 152 125 
-70 79 353 208 161 141 
-69 79 353 166 119 99 
-69 79 354 155 110 89 
-68 79 354 211 166 145 
-67 79 354 220 170 143 
-67 79 354 217 167 140 
-66 79 354 217 167 140 
-66 79 354 213 163 136 
-65 79 354 210 160 127 
-65 79 354 204 154 121 
-64 79 354 200 139 110 
-64 80 355 193 132 103 
-63 80 355 190 132 95 
-63 80 356 181 123 86 
-62 80 356 132 100 79 
-62 80 357 151 119 98 
-70 80 353 198 148 125 
-70 80 353 204 157 139 
-69 80 353 159 112 94 
-69 80 354 148 103 82 
-68 80 354 198 153 132 
-67 80 354 207 153 125 
-67 80 354 207 153 125 
-66 80 354 209 153 126 
-66 80 354 205 149 122 
-65 80 354 198 144 110 
-65 80 354 190 136 102 
-64 80 354 187 126 95 
-64 80 355 184 123 92 
-63 80 355 189 130 96 
-63 80 356 166 107 73 
-62 80 356 196 167 151 
-62 81 357 211 182 166 
-70 80 352 176 125 104 
-70 80 352 186 135 114 
-70 80 353 195 146 132 
-69 80 353 155 106 92 
-69 81 354 138 93 74 
-68 81 354 185 140 121 
-67 81 354 191 137 109 
-67 81 354 194 140 112 
-67 81 355 200 138 113 
-66 81 355 197 135 110 
-65 81 355 188 127 96 
-65 81 355 180 119 88 
-64 81 355 180 115 85 
-64 81 355 178 113 83 
-63 81 356 172 115 85 
-63 81 356 129 72 42 
-62 81 357 170 136 126 
-62 81 358 214 180 170 
-70 81 352 168 117 98 
-70 81 352 177 126 107 
-70 81 353 186 136 125 
-69 81 353 152 102 91 
-69 81 354 128 85 66 
-68 81 354 168 125 106 
-67 81 354 177 123 95 
-67 81 354 179 125 97 
-67 81 355 187 121 95 
-66 81 355 186 120 94 
-65 81 355 179 113 81 
-65 81 355 172 106 74 
-64 81 355 173 104 75 
-64 82 356 171 102 73 
-63 82 356 175 118 89 
-63 82 357 126 69 40 
-62 82 357 109 71 62 
-62 82 358 187 149 140 
-70 81 352 152 114 101 
-70 81 352 160 122 109 
-70 81 353 178 131 113 
-69 81 353 157 110 92 
-68 81 353 120 70 47 
-68 81 353 163 113 90 
-67 82 354 172 115 88 
-67 82 354 171 114 87 
-66 82 354 179 109 84 
-66 82 354 178 108 83 
-65 82 354 177 103 78 
-65 82 355 167 93 68 
-64 82 355 160 93 67 
-64 82 356 163 96 70 
-63 82 357 158 108 81 
-63 82 357 116 66 39 
-62 82 357 109 69 44 
-62 82 357 204 164 139 
-70 81 351 144 104 96 
-69 82 352 172 123 109 
-69 82 353 156 107 93 
-68 82 353 109 61 41 
-68 82 353 147 99 79 
-67 82 353 167 111 88 
-67 82 353 165 109 86 
-66 82 353 167 101 75 
-66 82 354 161 95 69 
-65 82 354 161 91 66 
-65 82 354 161 91 66 
-64 82 355 151 87 60 
-64 83 356 151 87 60 
-63 83 357 151 101 76 
-63 83 357 131 81 56 
-69 82 352 166 113 95 
-69 82 352 155 102 84 
-68 82 352 113 63 40 
-68 82 352 133 83 60 
-67 82 352 156 100 75 
-67 82 352 155 99 74 
-66 82 352 161 97 72 
-66 83 353 156 92 67 
-65 83 354 151 85 61 
-65 83 354 152 86 62 
-64 83 355 136 78 54 
-64 83 356 143 85 61 
-66 83 353 150 86 61 
-65 83 353 145 80 58 
-65 83 354 145 80 58 
-64 83 354 132 76 53 
