ply
format ascii 1.0
comment Created by CloudCompare v2.10.1 (Zephyrus)
comment Created 2020-05-17 12:35 AM
obj_info Generated by CloudCompare!
element vertex 110
property float x
property float y
property float z
property uchar red
property uchar green
property uchar blue
end_header
-63 152 359 76 65 59 
-62 153 361 76 65 59 
-64 151 355 123 89 64 
-63 151 357 101 67 42 
-63 152 358 83 70 62 
-63 152 359 83 70 62 
-62 153 361 82 69 61 
-62 154 362 79 66 58 
-61 154 362 75 64 58 
-65 151 354 171 129 91 
-64 151 355 142 100 62 
-64 151 355 102 70 49 
-63 152 357 97 65 44 
-63 152 358 81 67 56 
-63 153 360 82 68 57 
-62 154 361 78 64 55 
-62 154 361 81 67 58 
-61 154 361 75 65 56 
-61 154 362 70 60 51 
-72 153 359 189 140 100 
-65 151 353 188 140 92 
-65 151 354 172 133 94 
-64 152 355 131 92 53 
-64 152 356 94 63 43 
-63 152 357 93 62 42 
-63 153 358 85 66 52 
-63 154 360 87 68 54 
-62 154 360 84 68 55 
-62 154 361 82 66 53 
-61 154 360 73 63 54 
-61 154 361 74 64 55 
-70 152 355 180 131 88 
-65 151 352 197 150 104 
-65 151 353 192 145 99 
-65 152 354 173 133 97 
-64 152 355 136 96 60 
-64 153 356 108 78 54 
-63 153 357 102 72 48 
-63 153 358 94 68 51 
-63 154 359 85 59 42 
-62 154 359 85 66 51 
-62 154 360 83 64 49 
-61 154 359 79 66 57 
-60 154 360 79 66 57 
-60 154 360 67 62 58 
-71 154 357 190 142 102 
-67 151 350 198 154 109 
-67 151 351 200 156 111 
-66 151 351 205 161 116 
-66 151 352 204 160 115 
-65 152 353 196 151 109 
-65 152 353 186 141 99 
-65 153 355 171 131 96 
-64 153 355 149 109 74 
-64 153 356 134 103 74 
-63 154 357 131 100 71 
-63 154 358 125 95 71 
-62 154 358 104 74 50 
-62 154 358 86 63 45 
-61 154 358 89 66 48 
-61 154 359 85 72 63 
-60 154 359 74 61 52 
-60 154 359 69 64 60 
-71 154 356 196 148 110 
-69 152 353 197 149 111 
-69 152 352 204 157 115 
-68 152 351 203 156 114 
-67 152 351 200 156 109 
-67 152 351 202 158 111 
-66 152 352 209 165 120 
-66 152 353 203 159 114 
-65 152 353 195 150 111 
-65 153 354 183 138 99 
-65 153 355 170 130 95 
-64 154 356 158 118 83 
-64 154 357 150 117 86 
-63 154 357 152 119 88 
-71 154 356 198 150 110 
-69 153 353 199 151 111 
-69 152 352 199 154 112 
-68 152 351 198 153 111 
-67 152 351 199 155 110 
-67 152 351 201 157 112 
-66 153 352 200 156 111 
-66 153 353 195 151 106 
-66 153 354 186 144 102 
-65 153 354 179 137 95 
-65 154 355 171 129 91 
-64 154 356 170 128 90 
-70 154 355 200 151 111 
-69 153 352 201 152 112 
-69 153 352 203 156 114 
-68 153 351 202 155 113 
-68 153 352 200 153 109 
-67 153 352 200 153 109 
-66 153 352 194 150 105 
-66 153 353 190 146 101 
-66 154 354 181 138 96 
-65 154 355 176 133 91 
-65 154 355 174 132 94 
-70 154 354 198 146 106 
-68 153 351 201 152 109 
-68 154 352 200 151 108 
-67 154 352 199 150 107 
-67 154 353 192 145 101 
-66 154 353 189 142 98 
-66 154 354 177 134 92 
-67 154 352 193 144 101 
-67 154 352 192 143 100 
-67 154 351 186 139 97 
