ply
format ascii 1.0
comment Created by CloudCompare v2.10.1 (Zephyrus)
comment Created 2020-05-17 12:34 AM
obj_info Generated by CloudCompare!
element vertex 1094
property float x
property float y
property float z
property uchar red
property uchar green
property uchar blue
end_header
-36 -14 395 190 135 105 
-35 -14 396 190 135 105 
-35 -14 396 191 134 105 
-34 -14 396 188 131 102 
-34 -14 397 183 122 94 
-33 -14 398 181 120 92 
-32 -14 399 171 110 91 
-32 -14 399 166 105 86 
-31 -14 399 156 103 89 
-31 -14 400 166 113 99 
-30 -14 401 195 182 192 
-29 -14 401 166 153 163 
-29 -14 402 121 132 134 
-42 -13 394 196 145 118 
-42 -13 394 202 151 124 
-41 -13 394 208 157 130 
-40 -13 393 215 164 137 
-40 -13 394 222 170 149 
-39 -13 394 224 172 151 
-38 -13 394 225 171 145 
-38 -13 394 221 167 141 
-37 -13 394 218 163 133 
-37 -13 395 212 157 127 
-36 -13 395 205 150 119 
-35 -13 396 203 148 117 
-35 -13 396 202 145 115 
-34 -13 396 202 145 115 
-34 -13 397 198 138 110 
-33 -13 398 194 134 106 
-32 -13 398 188 126 103 
-32 -13 399 178 116 93 
-31 -13 399 165 103 88 
-31 -13 400 159 97 82 
-30 -13 400 175 150 153 
-29 -13 401 207 182 185 
-29 -13 401 124 134 135 
-42 -13 394 235 181 157 
-42 -13 394 237 183 159 
-41 -13 394 237 185 161 
-40 -13 393 240 188 164 
-40 -13 393 241 189 168 
-39 -13 394 243 191 170 
-38 -13 394 242 188 162 
-38 -13 394 238 184 158 
-37 -13 394 233 180 148 
-37 -13 395 226 173 141 
-36 -13 395 220 166 132 
-35 -13 396 215 161 127 
-35 -13 396 212 156 123 
-34 -13 396 205 149 116 
-34 -13 397 207 148 118 
-33 -13 397 198 139 109 
-32 -13 398 194 130 105 
-32 -13 398 187 123 98 
-31 -13 399 177 112 94 
-30 -13 399 174 109 91 
-30 -13 400 156 123 116 
-29 -13 400 220 187 180 
-29 -13 401 148 157 156 
-52 -12 397 167 108 78 
-51 -12 397 176 117 87 
-50 -12 396 177 124 93 
-50 -12 396 186 133 102 
-49 -12 395 196 141 111 
-48 -12 395 203 148 118 
-47 -12 394 211 156 126 
-47 -12 394 221 166 136 
-46 -12 394 228 174 146 
-45 -12 393 234 180 152 
-45 -12 393 236 182 156 
-44 -12 393 241 187 161 
-43 -12 393 248 194 168 
-43 -12 394 253 199 173 
-42 -12 394 255 201 177 
-42 -12 394 253 199 175 
-41 -12 394 250 198 174 
-40 -12 393 249 197 173 
-40 -12 393 250 198 176 
-39 -12 393 252 200 178 
-38 -12 394 248 197 170 
-38 -12 394 244 193 166 
-37 -12 394 238 185 153 
-37 -12 395 228 175 143 
-36 -12 395 221 167 131 
-35 -12 396 213 159 123 
-35 -12 396 209 153 118 
-34 -12 396 207 151 116 
-34 -12 397 207 146 115 
-33 -12 397 203 142 111 
-32 -12 398 198 134 109 
-32 -12 398 184 120 95 
-31 -12 398 182 115 96 
-30 -12 399 174 107 88 
-30 -12 399 154 115 100 
-29 -12 400 211 172 157 
-29 -12 401 180 185 181 
-28 -12 402 117 122 118 
-55 -11 401 161 109 87 
-54 -11 400 169 117 95 
-53 -11 399 181 123 101 
-52 -11 398 185 127 105 
-52 -11 397 199 142 115 
-51 -11 397 202 145 118 
-50 -11 396 205 151 117 
-50 -11 396 209 155 121 
-49 -11 395 215 162 128 
-48 -11 395 221 168 134 
-47 -11 394 226 173 141 
-47 -11 394 233 180 148 
-46 -11 394 238 187 156 
-45 -11 393 242 191 160 
-45 -11 393 247 196 167 
-44 -11 393 251 200 171 
-43 -11 393 254 204 177 
-43 -11 393 255 206 179 
-42 -11 393 253 206 178 
-42 -11 393 251 204 176 
-41 -11 393 249 202 176 
-40 -11 393 249 202 176 
-40 -11 393 247 200 174 
-39 -11 393 247 200 174 
-38 -11 393 248 198 173 
-38 -11 394 244 194 169 
-37 -11 394 236 185 156 
-37 -11 395 225 174 145 
-36 -11 395 218 165 131 
-35 -11 395 214 161 127 
-35 -11 396 212 158 122 
-34 -11 396 209 155 119 
-33 -11 396 208 149 117 
-33 -11 397 202 143 111 
-32 -11 397 196 135 106 
-32 -11 398 187 126 97 
-31 -11 398 176 117 87 
-30 -11 398 170 111 81 
-30 -11 399 160 103 84 
-29 -11 400 194 137 118 
-29 -11 400 198 205 211 
-28 -11 402 126 133 139 
-55 -11 401 177 125 101 
-54 -11 400 186 134 110 
-53 -11 399 196 140 113 
-52 -11 398 199 143 116 
-52 -11 397 209 152 122 
-51 -11 396 214 157 127 
-50 -11 395 212 160 123 
-49 -11 395 216 164 127 
-49 -11 395 222 170 133 
-48 -11 394 227 175 138 
-47 -11 394 232 179 145 
-47 -11 393 238 185 151 
-46 -11 393 241 191 158 
-45 -11 393 245 195 162 
-45 -11 393 246 197 165 
-44 -11 393 249 200 168 
-43 -11 393 250 201 171 
-43 -11 393 251 202 172 
-42 -11 393 249 202 174 
-42 -11 393 247 200 172 
-41 -11 393 245 198 172 
-40 -11 393 245 198 172 
-40 -11 393 245 198 172 
-39 -11 393 245 198 172 
-38 -11 393 244 194 167 
-38 -11 393 239 189 162 
-37 -11 394 233 182 151 
-37 -11 394 225 174 143 
-36 -11 395 220 167 133 
-35 -11 395 219 166 132 
-35 -11 395 218 164 128 
-34 -11 396 215 161 125 
-33 -11 396 211 152 118 
-33 -11 397 205 146 112 
-32 -11 397 201 140 109 
-32 -11 398 192 131 100 
-31 -11 398 181 122 90 
-30 -11 399 175 116 84 
-30 -11 400 163 106 86 
-29 -11 400 179 122 102 
-29 -11 401 193 194 198 
-28 -11 402 150 151 155 
-55 -10 400 187 134 103 
-54 -10 399 194 141 110 
-53 -10 398 201 146 115 
-52 -10 397 204 149 118 
-52 -10 397 211 155 120 
-51 -10 396 218 162 127 
-50 -10 395 217 165 126 
-49 -10 395 221 169 130 
-49 -10 395 226 174 135 
-48 -10 394 230 178 139 
-47 -10 393 233 183 146 
-47 -10 393 237 187 150 
-46 -10 393 239 189 156 
-45 -10 393 242 192 159 
-45 -10 393 244 195 163 
-44 -10 393 246 197 165 
-43 -10 393 246 197 167 
-43 -10 393 246 197 167 
-42 -10 393 244 197 169 
-42 -10 393 243 196 168 
-41 -10 393 240 193 167 
-40 -10 393 241 194 168 
-40 -10 393 243 193 168 
-39 -10 393 244 194 169 
-38 -10 393 241 191 164 
-38 -10 393 236 186 159 
-37 -10 394 231 180 149 
-37 -10 394 225 174 143 
-36 -10 395 223 171 134 
-35 -10 395 223 171 134 
-35 -10 395 222 168 130 
-34 -10 396 218 164 126 
-33 -10 396 214 156 119 
-33 -10 397 208 150 113 
-32 -10 397 205 145 111 
-32 -10 397 197 137 103 
-31 -10 398 186 126 92 
-30 -10 399 179 119 85 
-30 -10 399 167 109 87 
-29 -10 400 166 108 86 
-29 -10 401 175 170 167 
-28 -10 401 163 158 155 
-55 -9 401 157 133 131 
-55 -9 400 187 134 100 
-54 -9 399 194 141 107 
-53 -9 398 201 147 111 
-52 -9 397 206 152 116 
-52 -9 396 214 156 119 
-51 -9 396 221 163 126 
-50 -9 395 216 164 124 
-49 -9 394 220 168 128 
-49 -9 394 224 172 133 
-48 -9 394 229 177 138 
-47 -9 393 231 181 144 
-47 -9 393 233 183 146 
-46 -9 393 235 185 152 
-45 -9 393 237 187 154 
-45 -9 393 241 190 159 
-44 -9 393 243 192 161 
-43 -9 393 243 193 166 
-43 -9 393 243 193 166 
-42 -9 393 243 193 168 
-42 -9 393 241 191 166 
-41 -9 393 241 191 168 
-40 -9 393 242 192 169 
-40 -9 393 241 191 166 
-39 -9 393 241 191 166 
-38 -9 393 241 190 161 
-38 -9 393 237 186 157 
-37 -9 394 232 182 149 
-37 -9 394 226 176 143 
-36 -9 395 224 172 135 
-35 -9 395 224 172 135 
-35 -9 395 223 167 130 
-34 -9 395 217 161 124 
-33 -9 396 211 153 115 
-33 -9 396 206 148 110 
-32 -9 397 205 145 109 
-32 -9 397 198 138 102 
-31 -9 398 187 127 91 
-30 -9 399 179 119 83 
-30 -9 399 168 110 86 
-29 -9 400 164 106 82 
-29 -9 401 159 142 134 
-28 -9 401 164 147 139 
-55 -9 400 166 132 131 
-54 -9 399 188 132 95 
-54 -9 399 196 140 103 
-53 -9 398 201 149 110 
-52 -9 397 207 155 116 
-52 -9 397 213 155 117 
-51 -9 396 219 161 123 
-50 -9 395 216 165 122 
-49 -9 394 218 167 124 
-49 -9 394 222 170 130 
-48 -9 393 227 175 135 
-47 -9 393 230 178 139 
-47 -9 393 234 182 143 
-46 -9 393 235 185 150 
-45 -9 393 235 185 150 
-45 -9 393 238 187 156 
-44 -9 393 239 188 157 
-43 -9 393 241 190 161 
-43 -9 393 242 191 162 
-42 -9 393 239 189 164 
-42 -9 393 239 189 164 
-41 -9 393 240 190 165 
-40 -9 393 241 191 166 
-40 -9 393 241 191 166 
-39 -9 393 240 190 165 
-38 -9 393 241 190 161 
-38 -9 393 238 187 158 
-37 -9 394 236 183 151 
-37 -9 394 231 178 146 
-36 -9 394 227 173 137 
-35 -9 395 223 169 133 
-35 -9 395 220 164 127 
-34 -9 395 212 156 119 
-33 -9 396 207 149 111 
-33 -9 396 202 144 106 
-32 -9 396 200 140 104 
-32 -9 397 195 135 99 
-31 -9 398 190 127 92 
-30 -9 399 182 119 84 
-30 -9 399 172 112 86 
-29 -9 400 167 107 81 
-29 -9 401 152 123 109 
-28 -9 401 168 139 125 
-27 -9 401 122 127 131 
-27 -9 403 127 132 136 
-55 -8 400 168 126 127 
-54 -8 399 185 130 91 
-54 -8 399 192 137 98 
-53 -8 398 197 145 105 
-52 -8 397 202 150 110 
-52 -8 397 210 152 114 
-51 -8 396 214 156 118 
-50 -8 395 214 161 119 
-49 -8 395 216 163 121 
-49 -8 394 221 168 128 
-48 -8 394 226 173 133 
-47 -8 393 229 177 138 
-47 -8 393 232 180 141 
-46 -8 393 235 183 146 
-45 -8 393 235 183 146 
-45 -8 393 233 183 148 
-44 -8 393 234 184 149 
-43 -8 392 237 186 155 
-43 -8 392 239 188 157 
-42 -8 392 238 187 158 
-41 -8 392 238 187 158 
-41 -8 392 238 189 159 
-40 -8 392 238 189 159 
-40 -8 392 240 189 162 
-39 -8 393 239 188 161 
-38 -8 393 239 188 157 
-38 -8 393 239 188 157 
-37 -8 393 238 185 151 
-37 -8 394 232 179 145 
-36 -8 394 226 172 134 
-35 -8 394 218 164 126 
-35 -8 395 216 161 122 
-34 -8 395 209 154 115 
-33 -8 396 206 148 110 
-33 -8 396 201 143 105 
-32 -8 396 196 136 99 
-32 -8 397 192 132 95 
-31 -8 398 188 125 90 
-30 -8 399 182 119 84 
-30 -8 399 174 114 86 
-29 -8 400 163 103 75 
-29 -8 401 149 111 92 
-28 -8 401 173 135 116 
-27 -8 402 125 130 136 
-27 -8 403 122 127 133 
-55 -7 400 174 126 126 
-54 -7 398 186 131 90 
-54 -7 398 187 132 91 
-53 -7 398 191 142 101 
-52 -7 397 197 148 107 
-52 -7 396 206 151 112 
-51 -7 396 210 155 116 
-50 -7 395 210 157 115 
-49 -7 394 214 161 119 
-49 -7 394 220 167 127 
-48 -7 393 224 171 131 
-47 -7 393 226 174 135 
-47 -7 393 227 175 136 
-46 -7 392 228 176 137 
-45 -7 392 229 177 138 
-45 -7 392 227 177 142 
-44 -7 392 229 179 144 
-43 -7 392 234 184 151 
-43 -7 391 237 187 154 
-42 -7 391 236 187 155 
-41 -7 391 236 187 155 
-41 -7 391 236 187 155 
-40 -7 391 234 185 153 
-40 -7 392 237 186 157 
-39 -7 392 237 186 157 
-38 -7 392 237 187 154 
-38 -7 393 237 187 154 
-37 -7 393 235 183 146 
-37 -7 394 229 177 140 
-36 -7 394 222 166 129 
-35 -7 394 214 158 121 
-35 -7 395 214 156 118 
-34 -7 395 210 152 114 
-33 -7 396 205 147 107 
-33 -7 396 200 142 102 
-32 -7 396 195 135 98 
-32 -7 397 189 129 92 
-31 -7 398 185 122 87 
-30 -7 398 179 116 81 
-30 -7 399 170 113 84 
-29 -7 399 158 101 72 
-29 -8 401 150 104 80 
-28 -8 401 172 126 102 
-27 -8 402 124 131 137 
-27 -8 403 116 123 129 
-55 -7 400 176 126 127 
-54 -7 398 186 132 88 
-54 -7 397 182 128 84 
-53 -7 397 186 139 95 
-52 -7 397 193 146 102 
-52 -7 396 205 150 111 
-51 -7 396 209 154 115 
-50 -7 395 209 156 116 
-49 -7 394 214 161 121 
-49 -7 394 219 165 127 
-48 -7 393 222 168 130 
-47 -7 393 222 170 133 
-47 -7 393 222 170 133 
-46 -7 392 220 170 133 
-45 -7 392 222 172 135 
-45 -7 392 224 174 139 
-44 -7 392 227 177 142 
-43 -7 392 231 182 150 
-43 -7 391 234 185 153 
-42 -7 391 235 186 154 
-41 -7 391 235 186 154 
-41 -7 391 233 187 154 
-40 -7 391 232 186 153 
-40 -7 392 235 184 153 
-39 -7 392 236 185 154 
-38 -7 392 236 186 151 
-38 -7 393 233 183 148 
-37 -7 393 230 178 139 
-36 -7 393 224 172 133 
-36 -7 393 218 163 124 
-35 -7 393 212 157 118 
-35 -7 394 214 156 116 
-34 -7 395 209 151 111 
-33 -7 395 203 146 103 
-33 -7 395 197 140 97 
-32 -7 396 194 135 95 
-32 -7 397 188 129 89 
-31 -7 398 182 120 83 
-30 -7 398 176 114 77 
-30 -7 398 166 109 80 
-29 -7 399 160 103 74 
-29 -7 400 152 102 77 
-28 -7 401 167 117 92 
-27 -7 401 125 134 139 
-27 -7 403 117 126 131 
-55 -6 400 182 123 125 
-54 -6 399 182 130 91 
-54 -6 398 183 131 92 
-53 -6 397 186 132 96 
-52 -6 396 193 139 103 
-52 -6 396 196 144 105 
-51 -6 396 203 151 112 
-50 -6 395 209 156 112 
-49 -6 394 212 159 115 
-49 -6 394 213 162 119 
-48 -6 394 215 164 121 
-47 -6 393 217 165 125 
-47 -6 393 219 167 127 
-46 -6 393 222 170 131 
-45 -6 392 226 174 135 
-45 -6 392 225 175 140 
-44 -6 392 228 178 143 
-43 -6 391 231 182 150 
-43 -6 391 234 185 153 
-42 -6 391 235 188 158 
-41 -6 391 234 187 157 
-41 -6 391 235 186 156 
-40 -6 391 236 187 157 
-40 -6 392 235 187 151 
-39 -6 392 234 186 150 
-38 -6 392 232 183 143 
-38 -6 392 226 177 137 
-37 -6 393 224 171 131 
-36 -6 393 220 167 127 
-36 -6 393 218 160 120 
-35 -6 393 213 155 115 
-35 -6 394 215 153 114 
-34 -6 394 208 146 107 
-33 -6 395 203 141 102 
-33 -6 395 198 136 97 
-32 -6 396 191 131 95 
-32 -6 397 186 126 90 
-31 -6 398 179 119 85 
-30 -6 398 175 115 81 
-30 -6 399 167 108 78 
-29 -6 400 158 99 69 
-29 -6 400 157 99 75 
-28 -6 401 171 113 89 
-27 -6 402 121 135 138 
-27 -6 403 115 129 132 
-55 -6 400 175 121 121 
-54 -6 399 180 128 88 
-54 -6 398 183 131 91 
-53 -5 397 183 129 91 
-52 -5 396 187 133 95 
-52 -5 396 191 139 99 
-51 -5 396 197 145 105 
-50 -5 395 202 149 105 
-49 -5 395 205 152 108 
-49 -5 394 208 157 114 
-48 -5 394 212 161 118 
-47 -5 393 216 164 124 
-47 -5 393 218 166 126 
-46 -5 393 220 168 129 
-45 -5 392 223 171 132 
-45 -5 392 223 173 136 
-44 -5 392 225 175 138 
-43 -5 392 227 178 145 
-43 -5 391 230 181 148 
-42 -5 391 230 184 151 
-41 -5 391 231 185 152 
-41 -5 391 233 184 152 
-40 -5 392 233 184 152 
-40 -5 392 233 185 147 
-39 -5 392 230 182 144 
-38 -5 392 226 177 137 
-38 -5 392 220 171 131 
-37 -5 393 221 166 125 
-36 -5 393 218 163 122 
-36 -5 393 216 157 117 
-35 -5 393 211 152 112 
-35 -5 394 214 152 113 
-34 -5 394 208 146 107 
-33 -5 395 203 141 102 
-33 -5 395 197 135 96 
-32 -5 396 191 129 92 
-32 -6 397 187 125 88 
-31 -6 398 179 119 85 
-30 -6 398 175 115 81 
-30 -6 398 166 107 77 
-29 -6 400 159 100 70 
-29 -6 401 158 98 74 
-28 -6 401 171 111 87 
-27 -6 402 122 136 139 
-27 -6 403 117 131 134 
-55 -5 400 167 117 116 
-54 -5 399 177 124 84 
-54 -5 398 181 128 88 
-53 -5 397 181 125 88 
-52 -5 397 183 127 90 
-52 -5 396 187 135 95 
-51 -5 396 193 141 101 
-50 -5 395 199 144 103 
-49 -5 395 202 147 106 
-49 -5 395 206 153 111 
-48 -5 394 212 159 117 
-47 -5 393 215 163 123 
-47 -5 393 217 165 125 
-46 -5 392 218 166 127 
-45 -5 392 220 168 129 
-45 -5 392 221 171 134 
-44 -5 392 222 172 135 
-43 -5 392 224 176 140 
-43 -5 391 227 179 143 
-42 -5 391 227 181 147 
-41 -5 391 229 183 149 
-41 -5 391 230 184 150 
-40 -5 392 228 182 148 
-40 -5 392 230 182 144 
-39 -5 392 227 179 141 
-38 -5 392 223 174 133 
-38 -5 392 217 168 127 
-37 -5 393 218 163 122 
-36 -5 393 215 160 119 
-36 -5 393 214 155 113 
-35 -5 393 209 150 108 
-35 -5 394 213 150 109 
-34 -5 394 207 144 103 
-33 -5 394 204 140 102 
-33 -5 395 198 134 96 
-32 -5 396 192 128 92 
-32 -5 397 187 123 87 
-31 -5 397 180 117 82 
-30 -5 398 175 112 77 
-30 -5 399 165 104 75 
-29 -5 399 160 99 70 
-29 -5 401 155 95 71 
-28 -5 401 165 105 81 
-27 -5 402 123 134 138 
-27 -5 403 120 131 135 
-55 -4 401 159 115 114 
-54 -4 399 175 121 83 
-54 -4 398 178 124 86 
-53 -4 397 180 122 85 
-52 -4 397 184 126 89 
-52 -4 396 188 135 95 
-51 -4 396 192 139 99 
-50 -4 396 196 141 100 
-49 -4 395 200 145 104 
-49 -4 395 205 152 112 
-48 -4 394 211 158 118 
-47 -4 393 213 161 121 
-47 -4 393 214 162 122 
-46 -4 392 215 163 124 
-45 -4 392 217 165 126 
-45 -4 392 216 167 127 
-44 -4 392 218 169 129 
-43 -4 392 220 172 134 
-43 -4 392 224 176 138 
-42 -4 392 225 179 143 
-41 -4 392 227 181 145 
-41 -4 392 227 181 145 
-40 -4 392 225 179 143 
-40 -4 392 224 176 138 
-39 -4 392 224 176 138 
-38 -4 393 222 173 132 
-38 -4 393 217 168 127 
-37 -4 393 216 161 120 
-36 -4 393 212 157 116 
-36 -4 393 211 152 110 
-35 -4 394 206 147 105 
-35 -4 394 208 145 104 
-34 -4 394 204 141 100 
-33 -4 394 202 138 100 
-33 -4 395 197 133 95 
-32 -4 396 191 127 91 
-32 -4 397 187 123 87 
-31 -4 397 179 115 80 
-30 -4 397 172 108 73 
-30 -4 398 161 100 69 
-29 -4 399 160 99 68 
-29 -4 400 151 91 65 
-28 -4 401 158 98 72 
-27 -4 401 119 130 132 
-27 -4 402 119 130 132 
-55 -4 401 148 113 111 
-54 -4 399 172 119 85 
-54 -4 398 173 120 86 
-53 -4 397 181 118 85 
-52 -4 397 185 122 89 
-52 -4 396 186 133 93 
-51 -4 396 189 136 96 
-50 -4 396 194 139 100 
-49 -4 395 197 142 103 
-49 -4 394 202 149 109 
-48 -4 394 207 154 114 
-47 -4 393 209 156 116 
-47 -4 393 210 157 117 
-46 -4 392 211 159 119 
-45 -4 392 213 161 121 
-45 -4 392 211 162 122 
-44 -4 392 214 165 125 
-43 -4 392 215 167 127 
-43 -4 392 218 170 130 
-42 -4 392 219 174 133 
-41 -4 392 221 176 135 
-41 -4 392 221 176 135 
-40 -4 392 220 175 134 
-40 -4 392 220 172 132 
-39 -4 392 221 173 133 
-38 -4 393 220 171 131 
-38 -4 393 215 166 126 
-37 -4 393 214 159 118 
-36 -4 393 210 155 114 
-36 -4 393 208 149 107 
-35 -4 394 203 144 102 
-35 -4 394 205 142 101 
-34 -4 394 200 137 96 
-33 -4 394 197 133 95 
-33 -4 395 193 129 91 
-32 -4 396 188 124 88 
-32 -4 397 185 121 85 
-31 -4 397 177 113 78 
-30 -4 397 170 106 71 
-30 -4 398 160 100 66 
-29 -4 399 158 98 64 
-29 -4 399 149 89 63 
-28 -4 400 156 96 70 
-27 -4 401 116 130 131 
-27 -4 402 117 131 132 
-55 -3 400 168 118 85 
-54 -3 398 166 116 83 
-53 -3 397 174 113 82 
-52 -3 397 178 117 86 
-52 -3 396 180 126 88 
-51 -3 396 186 132 94 
-50 -3 396 191 136 97 
-49 -3 395 193 138 99 
-49 -3 395 198 143 104 
-48 -3 394 202 147 108 
-47 -3 393 205 150 111 
-47 -3 393 208 153 114 
-46 -3 392 209 157 117 
-45 -3 392 209 157 117 
-45 -3 392 206 157 116 
-44 -3 392 210 161 120 
-43 -3 392 214 165 124 
-43 -3 392 216 167 126 
-42 -3 392 217 170 128 
-41 -3 392 218 171 129 
-41 -3 392 217 170 128 
-40 -3 392 218 171 129 
-40 -3 392 218 170 130 
-39 -3 392 218 170 130 
-38 -3 393 219 167 128 
-38 -3 393 216 164 125 
-37 -3 393 215 160 119 
-36 -3 393 212 157 116 
-36 -3 393 208 149 107 
-35 -3 394 201 142 100 
-35 -3 394 202 139 98 
-34 -3 394 196 133 92 
-33 -3 395 194 130 92 
-33 -3 395 190 126 88 
-32 -3 396 185 121 85 
-32 -3 397 181 117 81 
-31 -3 397 174 111 76 
-30 -3 397 166 103 68 
-30 -3 399 161 101 67 
-29 -3 400 156 96 62 
-29 -3 400 145 88 61 
-28 -3 400 154 97 70 
-27 -3 401 115 129 130 
-27 -3 402 116 130 131 
-55 -2 400 160 114 81 
-54 -2 399 160 114 81 
-53 -2 398 170 109 80 
-52 -2 397 173 112 83 
-52 -2 396 174 120 84 
-51 -2 396 183 129 93 
-50 -2 396 188 130 93 
-50 -2 396 191 133 96 
-49 -2 395 195 137 99 
-48 -2 394 198 140 102 
-47 -2 394 201 143 105 
-47 -2 393 205 147 109 
-46 -2 393 207 152 113 
-45 -2 393 207 152 113 
-45 -2 392 205 152 112 
-44 -2 392 207 154 114 
-43 -2 393 211 158 116 
-43 -2 392 215 162 120 
-42 -2 393 216 165 122 
-42 -2 393 216 165 122 
-41 -2 393 214 165 122 
-40 -2 393 214 165 122 
-40 -2 393 216 167 127 
-39 -2 393 216 167 127 
-38 -2 393 217 165 125 
-38 -2 393 214 162 122 
-37 -2 393 216 158 118 
-36 -2 393 214 156 116 
-36 -2 394 210 149 105 
-35 -2 394 204 143 99 
-35 -2 395 202 139 96 
-34 -2 395 195 132 89 
-33 -2 395 192 129 88 
-33 -2 396 188 125 84 
-32 -2 396 182 118 82 
-32 -2 396 178 114 78 
-31 -2 397 172 110 73 
-30 -2 398 166 104 67 
-30 -2 399 160 99 68 
-29 -2 400 152 91 60 
-29 -2 400 144 87 60 
-28 -2 401 155 98 71 
-27 -2 401 114 128 129 
-27 -2 402 115 129 130 
-55 -2 401 155 112 78 
-54 -2 399 157 114 80 
-53 -2 398 169 110 80 
-52 -2 397 170 111 81 
-52 -2 397 169 117 80 
-51 -2 396 179 127 90 
-50 -2 396 183 123 87 
-50 -2 396 187 127 91 
-49 -2 395 192 132 95 
-48 -2 394 194 134 97 
-47 -2 394 195 135 98 
-47 -2 394 200 140 103 
-46 -2 393 202 147 108 
-45 -2 393 202 147 108 
-45 -2 393 202 147 108 
-44 -2 393 202 147 108 
-43 -2 393 205 151 107 
-43 -2 393 210 156 112 
-42 -2 393 211 158 114 
-42 -2 393 213 160 116 
-41 -2 393 214 161 119 
-40 -2 393 214 161 119 
-40 -2 393 213 161 121 
-39 -2 393 214 162 122 
-38 -2 393 214 161 121 
-38 -2 393 211 158 118 
-37 -2 393 211 154 111 
-36 -2 393 209 152 109 
-36 -2 394 209 148 104 
-35 -2 394 205 144 100 
-35 -2 394 204 141 97 
-34 -2 395 196 133 89 
-33 -2 395 193 128 88 
-33 -2 396 188 123 83 
-32 -2 396 179 115 77 
-32 -2 396 176 112 74 
-31 -2 397 172 108 70 
-30 -2 398 168 104 66 
-30 -2 399 156 95 64 
-29 -2 399 148 87 56 
-29 -2 400 143 85 61 
-28 -2 401 157 99 75 
-27 -2 401 114 128 129 
-27 -2 402 114 128 129 
-55 -1 402 155 98 78 
-54 -1 399 161 104 84 
-53 -1 398 157 107 74 
-52 -1 397 163 113 80 
-52 -1 397 172 116 83 
-51 -1 396 179 123 90 
-50 -1 396 183 124 82 
-49 -1 395 184 125 83 
-49 -1 395 189 130 88 
-48 -1 394 196 137 95 
-47 -1 394 199 142 99 
-47 -1 394 200 143 100 
-46 -1 393 199 141 101 
-45 -1 393 199 141 101 
-45 -1 393 197 142 101 
-44 -1 393 197 142 101 
-43 -1 393 200 145 104 
-43 -1 393 205 150 109 
-42 -1 393 209 156 114 
-42 -1 393 212 159 117 
-41 -1 393 211 158 116 
-40 -1 393 207 154 112 
-40 -1 393 209 154 113 
-39 -1 393 210 155 114 
-38 -1 393 211 153 113 
-38 -1 393 210 152 112 
-37 -1 393 209 151 111 
-36 -1 393 204 146 106 
-36 -1 394 199 140 98 
-35 -1 394 198 139 97 
-35 -1 394 195 133 92 
-34 -1 395 191 129 88 
-33 -1 395 190 126 88 
-33 -1 396 186 122 84 
-32 -1 396 180 116 78 
-32 -1 397 174 110 72 
-31 -1 397 169 104 64 
-30 -1 398 162 97 57 
-30 -1 399 152 95 65 
-29 -1 400 146 89 59 
-29 -1 401 134 89 56 
-28 -1 401 155 110 77 
-27 -1 402 115 124 123 
-27 -1 403 115 124 123 
-55 0 402 154 99 78 
-54 0 399 155 100 79 
-53 0 398 154 105 72 
-52 0 397 156 107 74 
-52 0 397 169 115 81 
-51 0 397 179 125 91 
-50 0 396 182 123 83 
-50 0 396 184 125 85 
-49 0 395 188 129 89 
-48 0 395 194 135 95 
-47 0 394 199 140 100 
-47 0 394 201 142 102 
-46 0 393 201 143 103 
-45 0 393 201 143 103 
-45 0 393 200 142 102 
-44 0 393 200 142 102 
-43 0 393 199 144 103 
-43 0 393 203 148 107 
-42 0 393 208 153 112 
-42 0 393 210 155 114 
-41 0 393 208 153 112 
-40 0 393 205 150 109 
-40 0 393 207 149 109 
-39 0 393 208 150 110 
-38 0 393 208 150 110 
-38 0 393 205 147 107 
-37 0 393 201 143 105 
-36 0 393 196 138 100 
-36 0 394 193 134 94 
-35 0 394 192 133 93 
-35 0 394 193 131 92 
-34 0 395 189 127 88 
-33 0 395 184 122 85 
-33 0 396 179 117 80 
-32 0 396 174 110 74 
-32 0 397 169 105 69 
-31 0 398 163 99 63 
-30 0 398 158 94 58 
-30 0 399 153 94 62 
-29 0 400 149 90 58 
-29 0 401 137 97 72 
-28 0 402 155 115 90 
-27 0 403 117 122 126 
-27 0 404 116 121 125 
-55 0 402 147 96 75 
-54 0 400 151 100 79 
-53 0 399 156 107 77 
-52 0 398 159 110 80 
-52 0 397 171 116 86 
-51 0 397 169 114 84 
-50 0 397 180 121 81 
-50 0 396 182 123 83 
-49 0 396 186 127 87 
-48 0 395 189 130 90 
-48 0 395 193 134 94 
-47 0 394 197 138 98 
-46 0 393 200 141 101 
-45 0 393 201 142 102 
-45 0 393 199 141 101 
-44 0 393 199 141 101 
-43 0 393 199 141 101 
-43 0 393 202 144 104 
-42 0 393 207 149 109 
-42 0 393 207 149 109 
-41 0 393 205 147 107 
-40 0 393 204 146 106 
-40 0 393 205 147 107 
-39 0 393 206 148 108 
-38 0 393 205 147 107 
-38 0 393 202 144 104 
-37 0 393 199 139 102 
-36 0 393 195 135 98 
-36 0 394 192 132 95 
-35 0 394 190 130 93 
-35 0 394 190 127 92 
-34 0 395 187 124 89 
-33 0 395 182 119 86 
-33 0 396 176 113 80 
-32 0 396 171 108 75 
-32 0 396 165 102 69 
-31 0 397 161 98 65 
-30 0 398 158 95 62 
-30 0 399 153 92 63 
-29 0 400 148 87 58 
-29 0 401 131 102 88 
-28 0 402 144 115 101 
-27 0 403 116 123 133 
-27 0 404 114 121 131 
-55 1 403 147 100 80 
-54 1 400 142 95 75 
-53 1 399 155 101 75 
-53 1 399 161 107 81 
-52 1 398 168 112 85 
-51 1 397 169 113 86 
-50 1 397 179 119 82 
-50 1 396 181 121 84 
-49 1 396 184 124 87 
-48 1 395 186 126 89 
-48 1 395 187 127 90 
-47 1 394 191 131 94 
-46 1 394 194 135 95 
-45 1 394 197 138 98 
-45 1 393 196 137 97 
-44 1 393 197 138 98 
-43 1 393 199 141 101 
-43 1 393 203 145 105 
-42 1 393 206 148 108 
-42 1 393 205 147 107 
-41 1 393 202 144 104 
-40 1 393 202 144 104 
-40 1 393 202 143 103 
-39 1 393 203 144 104 
-38 1 393 202 142 105 
-38 1 393 201 141 104 
-37 1 393 199 139 102 
-36 1 393 197 137 100 
-36 1 394 194 134 98 
-35 1 394 190 130 94 
-35 1 394 188 128 94 
-34 1 395 185 125 91 
-33 1 395 180 119 88 
-33 1 396 174 113 82 
-32 1 396 170 106 78 
-32 1 396 165 101 73 
-31 1 397 162 98 70 
-30 1 398 161 97 69 
-30 1 398 158 101 71 
-29 1 400 155 98 68 
-29 1 401 130 112 108 
-28 1 402 132 114 110 
-27 1 403 114 122 133 
-27 1 404 114 122 133 
-55 2 403 143 100 81 
-54 2 401 143 100 81 
-53 2 400 157 101 78 
-53 2 399 159 103 80 
-52 2 398 162 108 80 
-51 2 398 174 120 92 
-50 2 397 180 120 83 
-50 2 396 183 123 86 
-49 2 396 185 125 88 
-48 2 395 186 126 89 
-48 2 395 187 127 90 
-47 2 394 191 131 94 
-46 2 394 194 134 97 
-45 2 394 197 137 100 
-45 2 394 196 138 100 
-44 2 393 197 139 101 
-43 2 393 201 143 105 
-43 2 393 205 147 109 
-42 2 393 206 148 110 
-42 2 393 205 147 109 
-41 2 393 204 146 108 
-40 2 393 203 145 107 
-40 2 393 205 147 109 
-39 2 393 205 147 109 
-38 2 394 205 145 108 
-38 2 393 203 143 106 
-37 2 393 200 140 104 
-36 2 393 197 137 101 
-36 2 394 192 132 98 
-35 2 394 188 128 94 
-35 2 394 192 131 100 
-34 2 395 188 127 96 
-33 2 395 182 121 90 
-33 2 395 176 115 84 
-32 2 396 171 110 81 
-32 2 396 168 107 78 
-31 2 396 167 106 78 
-30 2 397 165 104 76 
-30 2 398 158 104 76 
-29 2 399 167 113 85 
-29 2 400 146 131 128 
-28 2 401 142 127 124 
-55 2 402 141 103 84 
-54 2 400 142 104 85 
-53 2 399 156 99 79 
-53 2 399 164 107 87 
-52 2 398 165 112 81 
-51 2 397 170 117 86 
-50 2 397 182 122 86 
-50 2 396 185 125 89 
-49 2 396 187 129 92 
-48 2 395 189 131 94 
-48 2 395 191 133 96 
-47 2 394 194 136 99 
-46 2 394 198 140 103 
-45 2 394 200 142 105 
-45 2 394 203 145 108 
-44 2 394 202 144 107 
-44 2 394 201 145 108 
-43 2 393 203 147 110 
-42 2 393 204 148 111 
-42 2 393 205 149 112 
-41 2 393 207 151 114 
-40 2 393 207 151 114 
-40 2 393 205 149 114 
-39 2 393 205 149 114 
-38 2 394 203 147 110 
-38 2 394 201 145 108 
-37 2 394 198 142 107 
-37 2 394 194 138 103 
-36 2 394 192 133 101 
-35 2 394 190 131 99 
-35 2 394 190 131 99 
-34 2 394 185 126 94 
-33 2 395 181 122 92 
-33 2 395 178 119 89 
-32 2 395 178 117 88 
-32 2 396 177 116 87 
-31 2 396 176 115 87 
-30 2 397 175 114 86 
-30 2 397 171 120 93 
-29 2 398 192 141 114 
-29 2 399 190 163 154 
-55 3 401 150 113 94 
-54 3 400 136 99 80 
-53 3 399 155 97 75 
-52 3 398 167 109 87 
-52 3 398 166 113 81 
-51 3 397 168 115 83 
-50 3 396 180 121 89 
-50 3 396 183 124 92 
-49 3 395 187 128 96 
-48 3 395 190 131 99 
-47 3 394 192 133 101 
-47 3 394 195 136 104 
-46 3 394 196 140 107 
-45 3 393 199 143 110 
-45 3 393 204 148 115 
-44 3 393 204 148 115 
-43 3 393 203 149 115 
-43 3 393 202 148 114 
-42 3 393 204 150 116 
-41 3 392 206 152 118 
-41 3 392 209 155 121 
-40 3 392 209 155 121 
-40 3 392 208 155 123 
-39 3 393 207 154 122 
-38 3 393 207 154 120 
-38 3 393 206 153 119 
-37 3 393 205 151 117 
-36 3 393 203 149 115 
-36 3 393 202 147 116 
-35 3 393 202 147 116 
-35 3 393 204 147 117 
-34 3 394 201 144 114 
