ply
format ascii 1.0
comment Created by CloudCompare v2.10.1 (Zephyrus)
comment Created 2020-05-17 12:43 AM
obj_info Generated by CloudCompare!
element vertex 421
property float x
property float y
property float z
property uchar red
property uchar green
property uchar blue
end_header
-2 -75 385 226 172 146 
-2 -75 384 230 176 152 
-2 -75 384 232 178 154 
-1 -75 384 237 183 159 
-1 -75 384 242 188 164 
0 -75 383 242 190 166 
0 -75 383 244 192 168 
0 -75 383 247 195 171 
1 -75 383 248 196 172 
1 -75 383 251 200 173 
2 -75 383 251 200 173 
2 -75 383 251 199 175 
3 -75 383 250 198 174 
3 -75 383 248 196 172 
3 -75 383 246 194 170 
4 -75 383 245 195 170 
4 -75 383 245 195 170 
5 -75 383 245 195 170 
5 -75 383 246 196 171 
5 -75 384 245 195 170 
6 -75 384 243 193 168 
6 -75 385 236 189 163 
7 -75 385 234 187 161 
7 -75 385 217 170 144 
8 -75 385 184 137 111 
-4 -75 386 208 152 125 
-4 -75 386 217 161 134 
-3 -75 385 222 166 139 
-3 -75 385 224 170 144 
-2 -75 385 229 175 149 
-2 -75 384 231 179 155 
-2 -75 384 233 181 157 
-1 -75 383 238 186 162 
-1 -75 383 242 190 166 
0 -75 383 243 193 170 
0 -75 383 244 194 171 
0 -75 383 246 196 173 
1 -74 382 247 197 174 
1 -74 382 251 199 175 
2 -74 382 251 199 175 
2 -74 382 252 200 176 
3 -74 382 251 199 175 
3 -74 382 248 198 173 
3 -75 383 247 197 172 
4 -75 383 246 196 171 
4 -75 383 247 197 172 
5 -75 383 246 196 171 
5 -75 383 247 197 172 
5 -75 383 245 198 172 
6 -75 384 243 196 170 
6 -75 384 238 190 167 
7 -75 384 237 189 166 
7 -75 385 227 180 154 
8 -75 385 204 157 131 
-4 -75 386 211 157 129 
-4 -75 386 217 163 135 
-3 -75 385 222 168 140 
-3 -75 385 225 174 147 
-2 -75 385 229 178 151 
-2 -74 384 232 181 154 
-2 -74 384 235 184 157 
-1 -74 383 239 189 164 
-1 -74 383 243 193 168 
0 -74 383 243 195 172 
0 -74 383 244 196 173 
0 -74 383 245 197 174 
1 -74 382 247 199 176 
1 -74 382 249 199 174 
2 -74 382 250 200 175 
2 -74 382 251 201 176 
3 -74 382 250 200 175 
3 -74 382 249 199 174 
3 -74 382 248 198 173 
4 -74 383 247 197 172 
4 -74 383 247 197 172 
5 -74 383 248 200 177 
5 -74 383 247 199 176 
5 -74 383 245 198 172 
6 -74 383 245 198 172 
6 -74 384 240 194 170 
7 -74 384 237 191 167 
7 -74 384 232 186 162 
8 -75 385 218 172 148 
8 -75 385 203 168 146 
8 -75 385 199 164 142 
-4 -74 386 209 158 131 
-4 -74 385 216 165 138 
-3 -74 385 221 170 143 
-3 -74 385 227 176 149 
-2 -74 385 232 181 154 
-2 -74 384 232 182 155 
-2 -74 383 235 185 158 
-1 -74 383 236 189 163 
-1 -74 383 238 191 165 
0 -74 383 242 195 169 
0 -74 382 243 196 170 
0 -74 382 245 198 172 
1 -74 382 247 200 174 
1 -74 382 247 197 174 
2 -74 382 249 199 176 
2 -74 382 250 200 175 
3 -74 382 250 200 175 
3 -74 382 248 198 173 
3 -74 382 247 197 172 
4 -74 382 244 196 173 
4 -74 382 244 196 173 
5 -74 382 248 200 177 
5 -74 383 246 198 175 
5 -74 383 242 196 172 
6 -74 383 243 197 173 
6 -74 383 241 195 171 
7 -74 384 237 191 167 
7 -74 384 234 188 164 
8 -74 384 226 180 156 
8 -74 385 213 181 160 
8 -74 385 213 181 160 
-5 -74 388 194 143 116 
-4 -74 386 211 161 134 
-4 -74 385 218 168 141 
-3 -74 385 223 173 146 
-3 -74 385 228 178 151 
-2 -74 385 233 183 156 
-2 -74 384 234 184 157 
-2 -73 383 236 186 159 
-1 -73 383 236 189 163 
-1 -73 383 238 191 165 
0 -73 383 240 193 167 
0 -73 382 243 196 170 
0 -73 382 246 199 171 
1 -73 382 248 201 173 
1 -73 382 249 199 176 
2 -73 382 250 200 177 
2 -73 382 251 201 176 
3 -73 382 250 200 175 
3 -73 382 247 200 174 
3 -73 382 246 199 173 
4 -73 382 245 197 174 
4 -73 382 246 198 175 
5 -73 382 248 202 178 
5 -73 382 246 200 176 
5 -73 383 243 197 173 
6 -73 383 244 198 174 
6 -73 383 242 196 172 
7 -73 383 240 194 170 
7 -74 384 238 192 169 
8 -74 384 229 183 160 
8 -74 385 209 181 159 
8 -74 385 215 187 165 
-4 -74 386 208 161 135 
-4 -73 385 216 169 143 
-3 -73 385 220 173 147 
-3 -73 385 225 175 148 
-2 -73 385 231 181 154 
-2 -73 384 233 183 156 
-2 -73 383 235 185 158 
-1 -73 383 236 189 163 
-1 -73 383 238 191 165 
0 -73 383 239 192 164 
0 -73 382 241 194 166 
0 -73 382 246 196 169 
1 -73 382 247 197 170 
1 -73 382 247 197 174 
2 -73 382 248 198 175 
2 -73 381 247 200 174 
3 -73 381 246 199 173 
3 -73 381 245 198 172 
3 -73 381 243 196 170 
4 -73 381 244 196 173 
4 -73 382 245 197 174 
5 -73 382 246 200 176 
5 -73 382 246 200 176 
5 -73 382 244 198 174 
6 -73 383 243 197 173 
6 -73 383 240 194 170 
7 -73 383 240 194 170 
7 -73 383 237 192 169 
8 -73 384 227 182 159 
8 -73 384 210 184 161 
8 -73 385 209 183 160 
-5 -73 387 195 145 120 
-5 -73 387 199 149 124 
-5 -73 387 204 154 127 
-4 -73 386 210 160 133 
-4 -73 385 216 167 137 
-3 -73 385 220 171 141 
-3 -73 385 223 176 146 
-2 -73 385 228 181 151 
-2 -73 384 234 187 157 
-2 -73 383 234 187 157 
-1 -73 383 236 190 164 
-1 -73 383 237 191 165 
0 -73 383 236 190 166 
0 -72 382 239 193 169 
0 -72 382 242 196 173 
1 -72 382 241 195 172 
1 -72 382 247 199 176 
2 -72 382 246 198 175 
2 -72 381 251 201 178 
3 -72 381 252 202 179 
3 -72 381 246 196 173 
3 -72 381 244 194 171 
4 -72 381 245 197 174 
4 -72 381 247 199 176 
5 -72 381 242 194 171 
5 -72 381 242 194 171 
5 -72 382 242 194 171 
6 -72 382 243 195 172 
6 -73 383 241 193 170 
7 -73 383 241 193 170 
7 -73 383 237 191 167 
8 -73 383 228 182 158 
8 -73 384 214 183 154 
8 -73 384 210 179 150 
-5 -73 387 194 142 118 
-5 -73 386 199 147 123 
-5 -73 386 206 155 128 
-4 -73 386 212 161 134 
-4 -73 385 217 168 138 
-3 -73 385 219 170 140 
-3 -72 384 224 175 145 
-2 -72 384 229 180 150 
-2 -72 384 231 184 154 
-2 -72 383 233 186 156 
-1 -72 383 237 190 164 
-1 -72 382 239 192 166 
0 -72 382 237 189 166 
0 -72 382 237 189 166 
0 -72 382 238 192 169 
1 -72 382 240 194 171 
1 -72 382 244 193 172 
2 -72 382 246 195 174 
2 -72 381 249 198 177 
3 -72 381 248 197 176 
3 -72 381 243 192 171 
3 -72 381 243 192 171 
4 -72 381 244 196 174 
4 -72 381 244 196 174 
5 -72 381 242 194 171 
5 -72 381 240 192 169 
5 -72 381 241 191 168 
6 -72 382 241 191 168 
6 -72 382 239 191 168 
7 -72 382 240 192 169 
7 -72 383 238 190 167 
8 -72 383 229 181 158 
8 -72 383 209 178 149 
8 -72 383 214 183 154 
-5 -72 387 194 142 118 
-5 -72 386 198 146 122 
-5 -72 386 205 154 127 
-4 -72 386 212 161 134 
-4 -72 385 216 165 136 
-3 -72 385 218 167 138 
-3 -72 384 222 173 143 
-2 -72 384 228 179 149 
-2 -72 384 231 182 152 
-2 -72 383 231 182 152 
-1 -72 383 235 185 158 
-1 -72 383 237 187 160 
0 -72 382 237 187 164 
0 -72 382 237 187 164 
0 -72 382 238 190 168 
1 -72 382 241 193 171 
1 -71 381 245 193 171 
2 -71 381 247 195 173 
2 -71 381 249 197 175 
3 -71 381 246 194 172 
3 -71 381 242 190 168 
3 -71 380 241 189 167 
4 -71 380 241 191 168 
4 -71 380 241 191 168 
5 -71 380 238 188 165 
5 -71 380 236 186 163 
5 -71 381 236 186 161 
6 -71 381 238 188 163 
6 -71 381 238 188 163 
7 -71 381 241 191 166 
7 -71 381 237 190 164 
7 -71 381 226 179 153 
8 -71 381 215 179 155 
8 -71 381 215 179 155 
-5 -72 386 194 142 120 
-5 -72 386 197 145 123 
-5 -72 385 204 152 128 
-4 -72 385 210 158 134 
-4 -72 385 214 163 136 
-3 -72 385 215 164 137 
-3 -71 384 220 169 140 
-2 -71 384 227 176 147 
-2 -71 384 229 178 149 
-2 -71 383 230 179 150 
-1 -71 383 232 181 154 
-1 -71 383 234 183 156 
0 -71 382 233 183 158 
0 -71 382 235 185 160 
0 -71 382 235 185 162 
1 -71 382 233 183 160 
1 -71 381 232 181 154 
2 -71 381 230 179 152 
2 -71 381 232 178 152 
3 -71 381 230 176 150 
3 -71 381 224 173 146 
3 -71 380 223 172 145 
4 -71 379 225 174 147 
4 -71 379 225 174 147 
5 -71 379 226 175 148 
5 -71 379 228 177 150 
5 -71 380 231 180 151 
6 -71 380 235 184 155 
6 -71 380 236 187 157 
7 -71 380 238 189 159 
7 -71 379 236 187 157 
7 -71 379 226 177 147 
8 -71 379 213 175 154 
8 -71 379 215 177 156 
-5 -71 385 194 143 122 
-5 -71 385 196 145 124 
-5 -71 385 201 151 128 
-4 -71 385 208 158 135 
-4 -71 385 210 160 133 
-3 -71 384 212 162 135 
-3 -71 384 217 166 137 
-2 -71 383 223 172 143 
-2 -71 383 223 172 143 
-2 -71 383 226 175 146 
-1 -71 382 231 180 151 
-1 -71 382 231 180 151 
0 -71 382 231 177 153 
0 -71 382 232 178 154 
0 -71 381 227 173 149 
1 -71 381 216 162 138 
1 -71 381 206 152 124 
2 -70 380 199 145 117 
2 -70 380 199 145 117 
3 -70 380 204 150 122 
3 -70 380 203 152 123 
-5 -71 385 192 144 124 
-5 -71 385 193 145 125 
-5 -71 385 199 148 127 
-4 -71 385 204 153 132 
-4 -71 385 206 156 131 
-3 -71 384 209 159 134 
-3 -71 384 215 164 135 
-2 -70 383 221 170 141 
-2 -70 383 223 169 141 
-2 -70 383 226 172 144 
-1 -70 382 229 175 147 
-1 -70 382 224 170 142 
0 -70 382 218 162 137 
0 -70 382 216 160 135 
0 -70 381 207 151 126 
1 -70 381 191 135 110 
1 -70 381 171 115 88 
2 -70 380 163 107 80 
-5 -70 385 191 142 125 
-5 -70 385 191 142 125 
-5 -70 385 195 147 127 
-4 -70 384 198 150 130 
-4 -70 384 202 152 129 
-3 -70 384 206 156 133 
-3 -70 384 213 162 133 
-2 -70 383 218 167 138 
-2 -70 383 222 169 138 
-2 -70 383 217 164 133 
-1 -70 382 214 157 128 
-1 -70 382 206 149 120 
0 -70 382 198 141 114 
0 -70 382 195 138 111 
0 -70 381 190 130 104 
1 -70 381 177 117 91 
1 -70 381 162 106 81 
-5 -70 385 188 139 124 
-5 -70 385 189 140 125 
-5 -70 385 193 145 125 
-4 -70 384 197 149 129 
-4 -70 384 200 150 127 
-3 -70 384 204 154 131 
-3 -70 384 213 159 133 
-2 -70 383 218 164 138 
-2 -70 383 211 156 126 
-2 -70 383 200 145 115 
-5 -70 385 182 136 121 
-5 -70 385 186 140 125 
-5 -70 385 194 145 128 
-4 -69 384 197 148 131 
-4 -69 384 206 154 132 
-3 -69 384 211 159 137 
-3 -69 384 214 158 131 
-2 -69 383 208 152 125 
-2 -69 383 198 141 114 
-2 -69 383 183 126 99 
-5 -69 385 195 149 134 
-5 -69 385 199 153 138 
-5 -69 385 206 157 142 
-4 -69 384 213 164 149 
-4 -69 384 225 170 150 
-3 -69 384 223 168 148 
-3 -69 384 210 152 128 
-2 -69 383 194 136 112 
-2 -69 382 178 117 89 
-2 -69 382 174 113 85 
-5 -69 384 211 165 152 
-5 -69 384 212 166 153 
-5 -69 384 216 167 153 
-4 -69 384 222 173 159 
-4 -69 384 231 175 158 
-3 -69 384 221 165 148 
-3 -69 384 200 140 116 
-5 -68 383 219 173 160 
-5 -68 383 219 173 160 
-5 -68 383 222 173 159 
-4 -68 383 223 174 160 
-4 -68 383 221 165 150 
-3 -68 383 203 147 132 
-3 -68 383 185 123 102 
-5 -68 383 220 176 165 
-5 -68 383 221 177 166 
-5 -68 383 226 178 164 
-4 -68 383 220 172 158 
-4 -68 383 207 151 136 
-3 -68 383 183 127 112 
