ply
format ascii 1.0
comment Created by CloudCompare v2.10.1 (Zephyrus)
comment Created 2020-05-17 12:43 AM
obj_info Generated by CloudCompare!
element vertex 1074
property float x
property float y
property float z
property uchar red
property uchar green
property uchar blue
end_header
3 -70 379 203 152 123 
4 -70 379 207 156 127 
4 -70 378 210 159 130 
5 -70 378 210 159 128 
5 -70 378 213 162 131 
5 -70 378 218 167 136 
6 -70 378 224 173 142 
6 -70 378 227 178 146 
7 -70 378 231 182 150 
7 -70 377 232 181 150 
7 -70 377 226 175 144 
8 -70 377 216 173 154 
8 -70 376 225 182 163 
9 -69 375 203 190 181 
9 -69 375 194 181 172 
9 -69 373 183 178 172 
2 -70 379 166 112 84 
2 -70 379 177 123 95 
3 -70 379 183 129 101 
3 -70 378 188 134 106 
4 -69 377 194 140 112 
4 -69 376 198 144 116 
5 -69 376 198 144 116 
5 -69 376 200 146 118 
5 -69 376 201 150 121 
6 -69 376 206 155 126 
6 -69 375 213 162 133 
7 -69 375 218 167 138 
7 -69 374 221 170 141 
7 -69 374 219 168 139 
8 -68 372 218 173 152 
8 -68 371 251 206 185 
8 -68 370 240 226 217 
2 -69 379 155 99 74 
2 -69 379 156 100 75 
2 -69 378 165 109 84 
3 -69 377 175 119 94 
3 -69 377 184 128 103 
4 -69 376 194 138 113 
4 -69 375 198 142 117 
4 -68 374 196 140 113 
5 -68 374 197 141 114 
5 -68 373 197 143 115 
6 -68 373 201 147 119 
6 -68 372 205 151 123 
6 -68 371 209 155 127 
7 -68 371 213 159 131 
7 -68 369 212 158 130 
8 -67 367 213 165 145 
8 -67 366 249 201 181 
-1 -69 382 190 133 104 
-1 -69 382 184 127 98 
0 -69 382 186 126 98 
0 -69 381 188 128 100 
0 -69 381 188 126 101 
1 -69 380 181 119 94 
1 -69 380 170 112 88 
2 -69 378 161 103 79 
2 -69 377 155 99 74 
2 -68 376 157 101 76 
3 -68 375 167 111 84 
3 -68 374 181 125 98 
4 -68 373 193 137 110 
4 -68 372 199 143 116 
4 -67 371 202 146 119 
5 -67 371 202 146 119 
5 -67 370 203 149 121 
6 -67 369 206 152 124 
6 -67 368 205 151 123 
6 -67 367 205 151 123 
7 -67 366 209 153 126 
7 -66 364 208 152 125 
-1 -69 382 180 120 94 
-1 -69 382 184 124 98 
0 -69 381 190 129 101 
0 -69 380 195 134 106 
0 -69 380 196 135 106 
1 -69 379 192 131 102 
1 -68 378 185 125 101 
2 -68 377 179 119 95 
2 -68 376 167 109 85 
2 -68 375 158 100 76 
3 -67 372 160 104 79 
3 -67 372 173 117 92 
4 -67 370 189 135 109 
4 -67 369 202 148 122 
4 -67 368 210 159 132 
5 -67 368 212 161 134 
5 -66 367 212 158 130 
6 -66 365 211 157 129 
6 -66 364 213 156 129 
6 -66 363 211 154 127 
7 -65 362 210 152 128 
7 -65 360 209 151 127 
7 -65 359 200 149 128 
-1 -69 382 179 118 90 
-1 -68 381 189 128 100 
0 -68 380 195 131 104 
0 -68 380 198 134 107 
0 -68 379 201 137 109 
1 -68 378 199 135 107 
1 -68 376 193 132 111 
2 -67 374 189 128 107 
2 -67 373 177 119 95 
2 -67 371 163 105 81 
3 -66 368 156 100 75 
3 -66 368 166 110 85 
4 -66 367 185 131 107 
4 -66 366 201 147 123 
4 -66 365 213 159 133 
5 -65 364 219 165 139 
5 -65 363 219 165 139 
6 -65 362 216 162 136 
6 -65 361 216 158 134 
6 -65 360 212 154 130 
7 -65 359 211 151 127 
7 -64 357 209 149 125 
7 -64 356 201 149 127 
-2 -68 382 174 108 82 
-2 -68 382 174 108 82 
-1 -68 381 184 117 90 
-1 -68 380 193 126 99 
0 -68 380 193 128 100 
0 -68 379 196 131 103 
0 -68 378 200 135 107 
1 -67 377 201 136 108 
1 -67 374 200 139 120 
2 -66 371 199 138 119 
2 -66 369 190 132 110 
2 -66 367 173 115 93 
3 -65 365 157 101 78 
3 -65 364 158 102 79 
4 -65 363 174 120 96 
4 -65 363 191 137 113 
4 -65 362 206 154 130 
5 -64 361 216 164 140 
5 -64 360 220 166 142 
5 -64 359 218 164 140 
6 -64 358 218 162 139 
6 -64 358 214 158 135 
7 -64 356 211 153 131 
7 -64 356 208 150 128 
7 -63 355 204 150 126 
8 -63 354 205 151 127 
8 -63 354 201 163 152 
8 -63 354 223 185 174 
-2 -68 382 170 108 87 
-2 -68 382 176 109 83 
-2 -68 381 177 110 84 
-1 -67 380 185 116 87 
-1 -67 379 191 122 93 
0 -67 378 192 125 98 
0 -67 377 196 129 102 
0 -67 375 201 136 108 
1 -66 373 204 139 111 
1 -66 370 203 145 125 
2 -65 367 205 147 127 
2 -65 364 202 145 125 
2 -64 362 188 131 111 
3 -64 361 166 111 90 
3 -64 361 153 98 77 
4 -64 360 159 107 85 
4 -64 360 177 125 103 
4 -64 359 199 147 125 
5 -64 359 212 160 138 
5 -64 358 218 166 142 
5 -64 358 216 164 140 
6 -63 357 217 161 138 
6 -63 356 214 158 135 
7 -63 355 211 153 133 
7 -63 354 208 150 130 
7 -63 354 203 149 123 
8 -63 354 203 149 123 
-2 -67 382 171 106 86 
-2 -67 381 177 107 82 
-2 -67 380 179 109 84 
-1 -67 380 185 116 87 
-1 -67 378 191 122 93 
0 -67 377 191 126 98 
0 -66 375 197 132 104 
0 -66 372 202 141 113 
1 -65 369 206 145 117 
1 -65 366 211 154 135 
2 -64 363 213 156 137 
2 -64 360 212 157 137 
2 -63 359 203 148 128 
3 -63 359 179 127 106 
3 -63 358 154 102 81 
4 -63 358 152 102 79 
4 -63 358 168 118 95 
4 -63 358 189 139 116 
5 -63 357 206 156 133 
5 -63 357 216 166 143 
5 -63 356 216 166 143 
6 -63 356 216 161 140 
6 -63 356 214 159 138 
7 -62 354 212 155 135 
7 -62 354 208 151 131 
7 -62 354 207 153 127 
8 -62 353 207 153 127 
8 -62 353 205 159 143 
8 -62 353 216 170 154 
9 -62 353 215 184 179 
9 -62 353 235 204 199 
-3 -67 381 170 113 96 
-3 -67 381 170 105 85 
-2 -67 380 172 107 87 
-2 -67 380 179 108 86 
-2 -66 379 182 111 89 
-1 -66 378 186 119 92 
-1 -66 376 190 123 96 
0 -66 374 189 125 97 
0 -65 370 194 130 102 
0 -65 368 202 142 114 
1 -64 365 210 150 122 
1 -63 362 216 161 141 
2 -63 360 219 164 144 
2 -63 358 217 165 144 
2 -63 358 210 158 137 
3 -63 357 190 139 118 
3 -63 357 161 110 89 
4 -62 356 147 99 77 
4 -62 356 158 110 88 
4 -62 356 177 129 107 
5 -62 356 196 148 126 
5 -62 356 213 162 141 
5 -62 355 216 165 144 
6 -62 355 215 163 142 
6 -62 355 213 161 140 
7 -62 354 214 159 138 
7 -62 353 213 158 137 
7 -62 353 208 158 133 
8 -62 353 210 160 135 
8 -62 353 210 162 142 
8 -62 352 213 165 145 
-3 -66 379 165 106 88 
-3 -66 379 172 105 86 
-2 -66 379 175 108 89 
-2 -66 378 181 110 88 
-2 -66 377 184 113 91 
-1 -65 375 187 120 94 
-1 -65 373 189 122 96 
0 -64 370 187 126 98 
0 -64 366 193 132 104 
0 -63 363 203 146 119 
1 -63 361 215 158 131 
1 -63 359 220 164 147 
2 -62 358 223 167 150 
2 -62 356 221 168 150 
2 -62 356 217 164 146 
3 -62 356 201 150 131 
3 -62 356 173 122 103 
4 -62 356 151 103 83 
4 -62 356 149 101 81 
4 -62 356 167 119 97 
5 -62 356 188 140 118 
5 -62 355 205 157 137 
5 -62 355 211 163 143 
6 -62 355 215 162 144 
6 -62 355 214 161 143 
7 -62 354 216 161 141 
7 -62 353 216 161 141 
7 -62 353 207 159 137 
8 -62 353 209 161 139 
8 -62 353 215 164 145 
8 -61 352 216 165 146 
9 -61 352 222 179 170 
9 -61 352 239 196 187 
-3 -65 378 166 108 88 
-3 -65 378 176 108 89 
-2 -65 377 176 108 89 
-2 -65 376 184 113 93 
-2 -65 374 185 114 94 
-1 -64 371 185 119 95 
-1 -64 369 188 122 98 
0 -63 366 188 128 100 
0 -63 362 195 135 107 
0 -62 360 206 150 123 
1 -62 358 218 162 135 
1 -62 357 223 167 150 
2 -62 356 226 170 153 
2 -61 355 224 171 155 
2 -61 355 222 169 153 
3 -61 355 210 159 142 
3 -61 355 185 134 117 
3 -61 355 157 109 89 
4 -61 355 145 97 77 
4 -61 355 154 106 86 
5 -61 355 176 128 108 
5 -61 355 195 146 129 
5 -61 355 206 157 140 
6 -61 354 216 163 145 
6 -61 354 217 164 146 
7 -61 354 219 163 146 
7 -61 353 220 164 147 
7 -61 353 211 163 143 
8 -61 353 211 163 143 
8 -61 353 217 164 146 
8 -61 352 218 165 147 
9 -61 352 220 173 165 
9 -61 352 224 177 169 
10 -61 353 255 230 233 
10 -61 353 255 251 255 
-3 -65 377 165 109 86 
-3 -65 376 175 113 90 
-2 -65 375 177 115 92 
-2 -64 373 178 114 89 
-2 -64 370 183 119 94 
-1 -63 367 187 123 98 
-1 -63 365 191 127 102 
0 -62 362 192 132 108 
0 -62 359 200 140 116 
0 -62 358 211 155 132 
1 -61 357 221 165 142 
1 -61 355 221 169 148 
2 -61 355 221 169 148 
2 -61 355 223 172 155 
2 -61 355 222 171 154 
3 -61 354 215 168 152 
3 -61 354 195 148 132 
3 -61 354 170 123 107 
4 -61 355 150 103 87 
4 -61 355 145 98 82 
5 -61 355 162 115 99 
5 -61 355 183 134 119 
5 -61 355 201 152 137 
6 -61 355 217 166 149 
6 -61 354 221 170 153 
7 -61 354 222 170 149 
7 -61 353 221 169 148 
7 -61 353 211 166 145 
8 -61 353 213 168 147 
8 -61 352 217 169 149 
8 -61 352 219 171 151 
9 -61 352 220 171 164 
9 -61 352 219 170 163 
10 -61 353 255 244 245 
-3 -64 375 167 109 87 
-3 -64 374 176 114 91 
-2 -64 373 178 116 93 
-2 -63 370 180 116 91 
-2 -63 368 184 120 95 
-1 -62 365 185 123 98 
-1 -62 362 190 128 103 
0 -62 360 193 135 111 
0 -61 358 201 143 119 
0 -61 357 211 155 132 
1 -61 356 219 163 140 
1 -61 355 218 167 146 
2 -61 354 220 169 148 
2 -61 354 220 172 152 
2 -61 354 220 172 152 
3 -61 354 218 171 155 
3 -61 354 203 156 140 
3 -61 354 178 132 116 
4 -61 354 152 106 90 
4 -61 355 141 94 78 
5 -61 355 156 109 93 
5 -61 355 178 129 114 
5 -61 355 197 148 133 
6 -61 355 214 163 144 
6 -61 354 223 172 153 
7 -61 354 225 173 152 
7 -60 353 223 171 150 
7 -60 353 215 167 145 
8 -60 353 216 168 146 
8 -60 352 219 168 149 
8 -60 352 221 170 151 
11 -60 353 255 244 243 
11 -60 353 254 253 248 
-4 -64 374 167 109 87 
-3 -64 374 169 111 89 
-3 -63 372 178 116 93 
-2 -63 370 179 117 94 
-2 -63 368 181 116 94 
-2 -62 365 184 119 97 
-1 -62 362 185 123 100 
-1 -61 360 191 129 106 
0 -61 358 195 137 115 
0 -61 357 202 144 122 
0 -61 357 210 155 134 
1 -61 356 215 160 139 
1 -60 355 215 164 143 
2 -60 354 217 166 145 
2 -60 354 217 169 149 
2 -60 354 218 170 150 
3 -60 353 220 173 157 
3 -60 353 210 163 147 
3 -60 353 190 143 127 
4 -60 354 159 112 96 
4 -60 354 140 93 77 
5 -60 354 147 100 84 
5 -60 354 169 120 105 
5 -60 354 190 141 126 
6 -60 354 209 156 138 
6 -60 354 223 170 152 
7 -60 354 227 172 152 
7 -60 354 222 167 147 
7 -60 353 216 164 142 
8 -60 353 216 164 142 
8 -60 352 217 166 147 
8 -60 352 220 169 150 
11 -60 353 255 238 234 
11 -60 353 255 255 251 
-4 -63 373 167 109 89 
-3 -63 372 168 110 90 
-3 -62 370 177 115 92 
-2 -62 368 180 118 95 
-2 -62 365 181 116 94 
-2 -61 362 183 118 96 
-1 -61 360 183 123 99 
-1 -60 358 190 130 106 
0 -60 356 194 138 115 
0 -60 356 201 145 122 
0 -60 356 206 154 132 
1 -60 355 209 157 135 
1 -60 354 210 159 138 
2 -60 354 213 162 141 
2 -60 354 211 163 143 
2 -60 354 214 166 146 
3 -60 353 218 171 153 
3 -60 353 212 165 147 
3 -60 353 197 151 135 
4 -60 353 168 122 106 
4 -60 354 146 99 83 
5 -60 354 140 93 77 
5 -60 354 158 109 92 
5 -60 354 180 131 114 
6 -60 354 199 146 128 
6 -60 354 215 162 144 
7 -60 354 222 167 147 
7 -60 354 219 164 144 
7 -60 354 215 159 136 
8 -60 353 215 159 136 
10 -60 353 208 158 149 
10 -60 353 197 166 161 
11 -60 353 236 205 200 
11 -60 353 249 244 241 
-4 -63 373 162 109 91 
-4 -63 373 159 106 88 
-3 -62 370 165 107 87 
-3 -62 369 175 113 90 
-2 -61 365 178 116 93 
-2 -61 363 181 116 94 
-2 -60 360 183 118 96 
-1 -60 358 182 121 100 
-1 -60 357 187 126 105 
0 -60 356 192 135 115 
0 -60 355 199 142 122 
0 -60 355 203 151 129 
1 -60 355 205 153 131 
1 -59 354 205 154 133 
2 -59 354 207 156 135 
2 -59 353 206 158 138 
2 -59 353 210 162 142 
3 -59 353 216 169 151 
3 -59 353 213 166 148 
3 -59 353 204 158 142 
4 -59 353 181 135 119 
4 -59 353 156 109 93 
5 -59 353 136 89 73 
5 -59 354 146 97 80 
5 -59 354 168 119 102 
6 -59 354 187 134 116 
6 -59 354 205 152 134 
7 -59 354 217 162 142 
7 -59 354 219 164 144 
7 -59 354 216 160 137 
8 -59 353 213 157 134 
8 -59 353 207 159 139 
10 -59 353 210 158 145 
10 -59 353 193 156 148 
11 -59 353 194 157 149 
11 -59 353 214 204 202 
12 -59 354 253 243 241 
12 -60 356 252 254 253 
-4 -62 371 160 109 90 
-4 -62 371 165 108 89 
-3 -62 369 165 108 89 
-3 -61 367 173 111 90 
-2 -61 364 177 115 94 
-2 -60 362 182 117 95 
-2 -60 359 183 118 96 
-1 -60 358 180 119 98 
-1 -59 356 185 124 103 
0 -59 356 189 132 112 
0 -59 355 195 138 118 
0 -59 354 200 145 124 
1 -59 354 202 147 126 
1 -59 354 201 149 128 
2 -59 354 203 151 130 
2 -59 353 204 153 132 
2 -59 353 209 158 137 
3 -59 353 215 166 149 
3 -59 353 216 167 150 
3 -59 353 210 163 147 
4 -59 353 192 145 129 
4 -59 353 163 114 99 
5 -59 353 136 87 72 
5 -59 353 138 87 70 
5 -59 354 158 107 90 
6 -59 354 179 124 104 
6 -59 354 198 143 123 
7 -59 354 214 157 138 
7 -59 354 220 163 144 
7 -59 354 216 160 137 
8 -59 353 211 155 132 
8 -59 353 204 153 132 
8 -59 353 209 158 137 
10 -59 353 216 160 147 
10 -59 353 199 156 147 
11 -59 353 182 139 130 
11 -59 354 176 157 151 
12 -59 354 216 197 191 
12 -59 355 246 241 238 
12 -59 356 255 254 251 
13 -60 359 255 252 252 
-4 -61 370 160 109 92 
-4 -61 370 164 107 88 
-3 -61 368 165 108 89 
-3 -61 366 171 109 88 
-2 -60 362 174 112 91 
-2 -60 361 180 115 93 
-2 -59 358 181 116 94 
-1 -59 357 180 118 97 
-1 -59 356 183 121 100 
0 -59 356 185 127 107 
0 -59 355 190 132 112 
0 -59 354 193 138 117 
1 -59 354 195 140 119 
1 -59 354 199 142 123 
2 -59 354 202 145 126 
2 -58 353 207 152 132 
2 -58 353 210 155 135 
3 -58 353 213 162 145 
3 -58 353 216 165 148 
3 -58 353 213 161 147 
4 -58 353 195 143 129 
4 -58 353 167 115 101 
5 -58 353 141 89 75 
5 -58 353 134 81 65 
5 -58 353 149 96 80 
6 -59 354 171 114 95 
6 -59 354 191 134 115 
7 -59 354 209 150 132 
7 -59 354 215 156 138 
7 -58 353 210 154 129 
8 -58 353 205 149 124 
8 -58 353 202 148 122 
8 -58 353 206 152 126 
9 -58 353 216 161 140 
10 -58 353 210 153 136 
10 -58 353 198 148 137 
11 -59 354 163 130 121 
12 -59 355 184 151 142 
12 -59 355 225 210 205 
12 -59 356 254 239 234 
13 -59 358 255 245 244 
13 -59 359 255 250 249 
-4 -61 370 154 105 88 
-4 -61 370 153 104 87 
-4 -61 369 159 102 83 
-3 -60 367 163 106 87 
-3 -60 364 167 105 84 
-2 -59 361 172 110 89 
-2 -59 359 177 112 90 
-2 -59 358 180 115 93 
-1 -59 357 180 118 97 
-1 -59 356 182 120 99 
0 -59 356 181 123 103 
0 -58 355 184 126 106 
0 -58 354 189 132 112 
1 -58 354 191 134 114 
1 -58 354 195 136 118 
2 -58 354 201 142 124 
2 -58 353 209 152 133 
2 -58 352 209 152 133 
3 -58 352 211 155 140 
3 -58 352 216 160 145 
3 -58 352 210 157 143 
4 -58 352 190 137 123 
4 -58 352 169 116 102 
5 -58 353 146 93 79 
5 -58 353 134 78 63 
5 -58 353 143 87 72 
6 -58 354 164 107 88 
6 -58 354 184 127 108 
7 -58 354 202 143 125 
7 -58 354 208 149 131 
7 -58 353 204 147 120 
8 -58 353 202 145 118 
8 -58 353 201 146 116 
8 -58 353 201 146 116 
10 -58 353 205 146 128 
10 -58 353 195 136 118 
10 -58 353 193 137 124 
11 -58 354 165 125 113 
12 -58 355 181 141 129 
12 -59 356 207 184 176 
12 -59 356 237 214 206 
13 -59 358 255 241 240 
13 -59 359 255 247 246 
14 -59 361 255 253 250 
14 -60 362 255 254 251 
-4 -60 368 154 102 81 
-3 -60 367 155 103 82 
-3 -60 364 165 108 89 
-2 -59 361 164 107 88 
-2 -59 359 172 114 94 
-2 -59 358 173 115 95 
-1 -58 357 177 116 95 
-1 -58 356 177 116 95 
0 -58 356 179 117 96 
0 -58 355 182 120 99 
0 -58 355 188 123 101 
1 -58 354 191 126 104 
1 -58 354 194 133 114 
2 -58 354 198 137 118 
2 -58 353 205 144 126 
2 -58 352 209 148 130 
3 -58 352 211 152 134 
3 -58 352 214 155 137 
3 -58 352 209 152 132 
4 -58 352 200 143 123 
4 -58 352 173 118 98 
5 -58 352 152 97 77 
5 -58 353 133 78 58 
5 -58 353 135 80 60 
6 -58 354 149 97 76 
6 -58 354 166 114 93 
7 -58 354 181 130 109 
7 -58 354 192 141 120 
7 -58 353 196 144 120 
8 -58 353 193 141 117 
8 -58 353 194 140 116 
8 -58 353 193 139 115 
10 -58 353 187 126 107 
10 -58 353 189 133 116 
11 -58 354 180 136 123 
12 -58 355 199 155 142 
12 -58 356 218 188 177 
12 -58 356 226 196 185 
13 -59 358 233 214 200 
13 -59 360 255 244 230 
14 -59 361 254 248 248 
14 -59 363 255 249 249 
-4 -60 368 151 100 81 
-4 -60 368 151 98 80 
-3 -59 366 152 99 81 
-3 -59 364 160 105 85 
-2 -59 361 161 106 86 
-2 -58 359 167 109 89 
-2 -58 358 169 111 91 
-1 -58 357 171 110 89 
-1 -58 356 171 110 89 
0 -58 356 174 112 91 
0 -58 355 176 114 93 
0 -58 355 181 116 94 
1 -58 355 185 120 98 
1 -57 354 185 124 103 
2 -57 354 193 132 111 
2 -57 353 204 141 123 
2 -57 352 208 145 127 
3 -57 352 206 145 126 
3 -57 351 205 144 125 
3 -57 351 200 143 123 
4 -57 351 195 138 118 
4 -57 351 175 120 99 
5 -57 352 160 105 84 
5 -57 352 138 83 63 
5 -57 353 130 75 55 
6 -57 353 140 88 67 
6 -57 354 159 107 86 
7 -57 354 175 125 102 
7 -57 354 187 137 114 
7 -57 353 195 144 117 
8 -57 353 192 141 114 
8 -57 353 191 135 110 
8 -57 353 186 130 105 
11 -57 354 193 150 134 
12 -58 355 214 171 155 
12 -58 356 225 193 182 
12 -58 357 227 195 184 
13 -58 359 224 202 189 
13 -58 360 241 219 206 
14 -59 362 252 242 241 
14 -59 363 255 248 247 
15 -59 364 255 252 252 
15 -59 366 255 251 251 
-4 -59 367 146 95 76 
-3 -59 365 146 95 76 
-3 -59 363 155 100 80 
-2 -58 361 158 103 83 
-2 -58 359 162 105 85 
-2 -58 357 163 106 86 
-1 -58 357 165 104 83 
-1 -57 356 166 105 84 
0 -57 356 169 107 84 
0 -57 355 171 109 86 
0 -57 354 176 111 89 
1 -57 354 180 115 93 
1 -57 354 185 120 98 
2 -57 353 190 125 103 
2 -57 353 197 132 112 
2 -57 352 199 134 114 
3 -57 352 196 134 113 
3 -57 352 196 134 113 
3 -57 351 195 137 115 
4 -57 351 195 137 115 
4 -57 351 179 123 100 
5 -57 351 164 108 85 
5 -57 352 137 82 61 
5 -57 352 123 68 47 
6 -57 353 133 78 57 
6 -57 353 152 97 76 
7 -57 353 168 116 94 
7 -57 353 182 130 108 
7 -57 353 196 142 114 
8 -57 353 193 139 111 
11 -57 354 188 133 113 
11 -57 355 205 162 146 
12 -57 355 227 184 168 
12 -58 357 232 198 186 
12 -58 358 231 197 185 
13 -58 359 223 197 184 
13 -58 361 228 202 189 
14 -59 363 243 225 223 
14 -59 365 255 242 240 
15 -59 366 255 253 250 
15 -59 366 255 250 247 
16 -59 366 252 254 251 
-4 -59 367 142 93 76 
-4 -59 366 144 93 74 
-3 -58 365 143 92 73 
-3 -58 362 151 96 76 
-2 -58 360 153 98 78 
-2 -58 359 157 100 80 
-2 -57 357 157 100 80 
-1 -57 357 160 99 78 
-1 -57 356 161 100 79 
0 -57 355 165 103 80 
0 -57 355 168 106 83 
0 -57 354 173 108 86 
1 -57 354 178 113 91 
1 -57 354 184 118 96 
2 -57 353 184 118 96 
2 -57 353 185 120 98 
2 -56 352 188 123 101 
3 -56 352 187 125 102 
3 -56 352 189 127 104 
3 -56 351 191 131 107 
4 -56 351 194 134 110 
4 -56 351 182 124 102 
5 -56 351 166 108 86 
5 -56 352 145 89 66 
5 -56 352 140 84 61 
6 -56 352 154 99 78 
6 -57 353 173 118 97 
7 -57 353 188 136 114 
7 -57 353 203 151 129 
7 -57 353 214 161 130 
8 -57 353 212 159 128 
11 -57 354 189 134 114 
11 -57 355 207 164 147 
12 -57 355 231 188 171 
12 -57 357 235 199 185 
12 -57 358 237 201 187 
13 -58 359 228 198 187 
13 -58 361 228 198 187 
14 -58 363 228 204 202 
14 -58 364 252 228 226 
15 -58 365 255 250 245 
15 -59 366 255 250 245 
16 -59 366 250 252 247 
-4 -58 366 143 90 74 
-3 -58 365 143 90 74 
-3 -58 362 149 93 76 
-2 -57 360 149 93 76 
-2 -57 359 153 94 76 
-2 -57 357 151 92 74 
-1 -57 357 154 93 74 
-1 -57 356 156 95 76 
0 -57 355 160 98 77 
0 -57 355 164 102 81 
0 -57 355 171 106 84 
1 -56 354 173 108 86 
1 -56 354 176 110 86 
2 -56 353 176 110 86 
2 -56 353 177 113 88 
2 -56 352 179 115 90 
3 -56 352 178 116 93 
3 -56 352 179 117 94 
3 -56 351 183 123 99 
4 -56 351 189 129 105 
4 -56 351 189 131 109 
5 -56 351 187 129 107 
5 -56 352 187 131 108 
5 -56 352 196 140 117 
6 -56 352 209 155 131 
6 -56 352 221 167 143 
7 -56 352 229 174 153 
7 -56 352 234 179 158 
7 -56 352 235 182 151 
11 -56 354 194 142 120 
11 -57 355 211 165 149 
12 -57 355 233 187 171 
12 -57 357 236 198 185 
12 -57 358 239 201 188 
13 -57 359 234 200 190 
13 -57 361 233 199 189 
14 -58 363 224 196 193 
14 -58 364 238 210 207 
15 -58 365 249 236 230 
15 -58 366 255 248 242 
15 -58 365 252 253 247 
-4 -58 366 142 89 73 
-3 -58 365 142 89 73 
-3 -57 362 147 91 74 
-2 -57 360 146 90 73 
-2 -57 359 150 91 73 
-2 -57 358 147 88 70 
-1 -56 357 150 89 70 
-1 -56 356 153 92 73 
0 -56 355 157 95 74 
0 -56 355 162 100 79 
0 -56 355 168 103 83 
1 -56 355 169 104 84 
1 -56 354 166 102 77 
2 -56 354 169 105 80 
2 -56 353 170 106 81 
2 -56 352 170 106 81 
3 -56 352 168 106 81 
3 -56 352 172 110 85 
3 -56 352 183 123 99 
4 -55 351 196 136 112 
4 -55 351 210 152 128 
5 -55 351 219 161 137 
5 -56 352 225 171 145 
5 -56 352 228 174 148 
6 -56 352 233 179 153 
6 -56 352 242 188 162 
7 -56 352 247 193 169 
7 -56 352 247 193 169 
7 -56 352 243 190 158 
11 -56 354 219 174 155 
12 -56 355 235 190 171 
12 -56 356 236 197 182 
12 -56 357 239 200 185 
13 -57 359 236 200 188 
13 -57 360 236 200 188 
14 -57 362 230 199 196 
14 -57 363 227 196 193 
15 -58 364 236 219 212 
15 -58 365 255 243 236 
15 -58 364 255 254 249 
-4 -57 366 137 88 71 
-4 -57 366 140 87 71 
-3 -57 364 139 86 70 
-3 -57 363 142 86 69 
-2 -57 360 141 85 68 
-2 -56 359 144 87 68 
-2 -56 358 143 86 67 
-1 -56 358 147 86 67 
-1 -56 357 149 88 69 
0 -56 355 154 91 73 
0 -56 355 159 96 78 
0 -56 355 163 101 80 
1 -56 355 162 100 79 
1 -56 355 162 98 73 
2 -56 354 164 100 75 
2 -56 354 163 102 74 
2 -55 353 164 103 75 
3 -55 352 170 110 82 
3 -55 352 183 123 95 
3 -55 352 202 142 116 
4 -55 352 219 159 133 
4 -55 351 234 177 150 
5 -55 351 243 186 159 
5 -55 351 245 191 163 
5 -55 352 244 190 162 
6 -55 352 244 193 164 
11 -56 354 228 183 162 
12 -56 356 237 195 179 
12 -56 357 240 198 182 
13 -56 358 239 201 188 
13 -57 360 239 201 188 
14 -57 361 233 200 193 
14 -57 362 227 194 187 
15 -57 364 229 206 200 
15 -57 364 252 229 223 
15 -57 364 255 249 244 
-4 -57 366 137 88 71 
-4 -57 365 137 86 69 
-3 -57 364 136 85 68 
-3 -57 363 136 83 65 
-2 -56 361 136 83 65 
-2 -56 359 139 82 63 
-2 -56 359 139 82 63 
-1 -56 358 140 81 63 
-1 -56 357 142 83 65 
0 -56 356 149 88 69 
0 -55 355 155 94 75 
0 -55 355 158 97 78 
1 -55 355 157 96 77 
1 -55 355 158 97 69 
2 -55 354 158 97 69 
2 -55 354 158 98 70 
2 -55 353 166 106 78 
3 -55 353 181 124 95 
3 -55 352 202 145 116 
3 -55 352 221 164 135 
4 -55 352 236 179 150 
4 -55 351 241 185 158 
5 -55 351 244 188 161 
5 -55 351 243 190 159 
5 -55 352 245 192 161 
6 -55 352 248 197 166 
12 -55 355 236 195 177 
12 -56 356 239 198 180 
13 -56 358 240 203 187 
13 -56 359 237 200 184 
14 -56 360 232 199 192 
14 -56 361 230 197 190 
15 -56 362 228 201 194 
15 -57 363 242 215 208 
15 -57 363 253 240 234 
16 -57 363 255 251 245 
-4 -57 366 136 91 72 
-4 -57 365 136 87 72 
-3 -56 364 131 82 67 
-3 -56 364 130 77 63 
-2 -56 362 129 76 62 
-2 -56 360 133 75 63 
-2 -56 359 134 76 64 
-1 -55 358 143 81 66 
-1 -55 357 145 83 68 
0 -55 356 148 83 65 
0 -55 356 155 90 72 
0 -55 355 159 94 74 
1 -55 355 157 92 72 
1 -55 355 152 92 64 
2 -55 354 157 97 69 
2 -55 354 169 109 81 
2 -55 353 191 131 103 
3 -55 353 206 149 120 
3 -55 353 224 167 138 
3 -55 352 235 180 150 
4 -55 352 238 183 153 
5 -54 351 241 186 156 
5 -54 351 241 188 157 
5 -54 351 242 189 158 
12 -55 355 236 195 175 
13 -55 357 234 197 178 
13 -55 358 236 199 180 
14 -56 359 230 200 190 
14 -56 360 230 200 190 
15 -56 361 232 203 197 
15 -56 361 236 207 201 
15 -56 362 248 230 228 
16 -56 362 255 250 248 
-4 -56 365 136 87 72 
-3 -56 365 129 80 65 
-3 -56 364 126 74 60 
-2 -56 363 126 74 60 
-2 -55 360 130 74 61 
-2 -55 359 131 75 62 
-1 -55 359 137 78 62 
-1 -55 357 140 81 65 
0 -55 356 147 84 66 
0 -55 356 151 88 70 
0 -55 356 154 89 69 
1 -55 355 155 90 70 
1 -55 355 152 95 66 
2 -54 354 171 114 85 
2 -54 354 192 135 106 
3 -54 353 225 168 139 
3 -54 353 233 176 147 
4 -54 352 236 181 151 
5 -54 351 238 185 154 
5 -54 351 238 187 156 
5 -54 351 240 189 158 
13 -55 355 234 196 175 
13 -55 356 236 198 177 
14 -55 358 229 199 188 
14 -55 359 231 201 190 
14 -55 359 230 201 193 
15 -55 360 230 201 193 
15 -55 360 238 219 215 
16 -56 361 255 242 238 
-4 -56 365 136 87 72 
-3 -56 365 128 79 64 
-3 -56 364 124 72 58 
-2 -55 363 123 71 57 
-2 -55 361 128 72 57 
-2 -55 359 130 74 59 
-1 -55 359 134 75 59 
-1 -55 358 137 78 62 
0 -54 356 144 83 64 
0 -54 356 144 83 64 
0 -54 356 146 84 63 
1 -54 356 156 94 73 
1 -54 355 163 106 77 
2 -54 354 190 133 104 
2 -54 354 208 153 123 
3 -54 353 230 175 145 
3 -54 353 231 176 146 
4 -54 352 233 180 149 
5 -54 351 234 183 152 
5 -54 351 236 186 153 
13 -54 355 237 196 174 
14 -54 356 231 199 184 
14 -55 357 235 203 188 
14 -55 358 234 201 192 
15 -55 358 232 199 190 
15 -55 359 232 208 204 
16 -55 359 255 232 228 
-3 -55 365 128 79 64 
-3 -55 364 124 72 58 
-2 -55 363 122 70 56 
-2 -55 362 126 70 55 
-2 -55 360 130 74 59 
-1 -54 359 133 76 59 
-1 -54 358 133 76 59 
0 -54 357 136 78 58 
0 -54 356 134 76 56 
0 -54 356 144 83 62 
1 -54 355 166 105 84 
1 -54 355 185 130 100 
2 -54 354 207 152 122 
2 -54 354 217 162 131 
2 -54 354 222 167 136 
3 -54 353 227 172 141 
3 -54 353 230 175 144 
14 -54 356 236 202 192 
15 -54 356 236 202 192 
15 -54 357 233 205 201 
16 -54 357 251 223 219 
16 -54 357 255 250 248 
-3 -55 365 129 77 63 
-3 -55 364 125 72 58 
-2 -55 363 122 69 55 
-2 -54 362 125 69 54 
-2 -54 361 130 74 59 
-1 -54 359 132 75 58 
-1 -54 358 130 73 56 
0 -54 357 131 73 53 
0 -54 357 134 76 56 
0 -54 356 152 94 72 
-3 -55 365 130 79 62 
-3 -55 365 125 72 58 
-2 -54 363 122 69 55 
-2 -54 363 124 68 53 
-2 -54 361 127 71 56 
-1 -54 360 128 72 55 
-1 -54 359 126 70 53 
0 -54 358 131 74 54 
-2 -54 364 124 71 57 
-2 -54 363 124 71 55 
-2 -54 362 124 71 55 
-1 -54 361 125 70 50 
0 -53 359 137 82 61 
-2 -54 365 127 74 60 
-2 -54 364 127 74 58 
-1 -53 362 122 70 49 
0 -53 360 141 89 67 
1 -53 357 198 147 120 
-2 -53 365 127 74 58 
-1 -53 362 123 67 50 
0 -53 360 153 98 77 
-2 -53 365 131 78 62 
-1 -53 363 127 72 52 
-1 -53 362 140 85 65 
-2 -53 365 138 82 65 
-2 -53 365 130 74 57 
