ply
format ascii 1.0
comment Created by CloudCompare v2.10.1 (Zephyrus)
comment Created 2020-05-17 12:44 AM
obj_info Generated by CloudCompare!
element vertex 338
property float x
property float y
property float z
property uchar red
property uchar green
property uchar blue
end_header
-6 182 366 156 104 67 
5 182 364 135 98 82 
5 182 362 120 84 68 
5 183 365 131 95 79 
5 182 363 116 83 64 
5 183 365 128 95 76 
5 182 361 101 65 43 
5 183 364 114 81 62 
4 182 360 116 75 55 
5 183 362 104 63 43 
3 181 357 154 112 87 
4 182 360 113 75 54 
5 183 362 103 65 44 
-6 181 358 166 114 75 
3 181 357 150 108 83 
4 182 359 131 89 64 
4 183 361 114 76 55 
-6 182 358 168 116 77 
3 181 356 173 128 95 
3 182 358 147 105 80 
4 183 360 132 90 65 
4 183 361 115 78 59 
-6 182 358 169 117 80 
3 181 355 184 139 106 
3 182 357 172 127 94 
3 182 358 143 101 76 
4 183 360 130 88 63 
-6 182 358 170 118 79 
3 181 356 186 141 108 
3 182 358 172 127 94 
3 183 359 138 96 71 
-6 182 357 172 120 81 
2 181 354 187 142 101 
2 181 355 185 140 99 
3 182 356 184 141 107 
3 183 358 168 125 91 
-6 182 356 174 121 81 
-6 181 354 176 124 84 
2 181 354 185 142 100 
2 182 355 181 138 96 
3 183 357 179 139 104 
-6 183 356 172 119 87 
-6 182 354 176 124 87 
-5 181 352 180 128 91 
2 181 353 187 143 96 
2 182 354 184 139 98 
2 183 356 182 137 96 
-6 183 356 172 119 87 
-6 182 354 177 125 88 
-5 181 352 179 127 90 
1 181 352 187 143 98 
2 181 353 187 143 98 
2 182 355 183 140 98 
2 183 357 180 137 95 
-6 183 356 170 120 87 
-6 182 353 178 125 91 
-5 181 352 179 126 92 
-5 181 351 180 128 89 
-4 181 351 181 129 90 
1 181 351 191 143 97 
1 181 352 188 144 99 
2 182 354 186 142 97 
2 183 355 181 137 98 
-6 183 355 165 116 84 
-6 182 353 176 123 91 
-5 182 352 180 127 95 
-5 181 351 182 130 93 
-4 181 350 183 131 94 
-4 181 350 184 132 95 
-4 181 350 183 131 94 
-3 181 350 184 132 93 
-3 181 350 187 135 96 
0 181 350 195 144 101 
0 181 350 194 143 98 
1 182 352 194 143 98 
1 182 353 190 143 101 
2 183 354 186 139 97 
-6 184 356 151 105 72 
-6 183 354 154 108 75 
-6 182 352 165 114 83 
-5 182 352 174 123 92 
-5 181 351 178 125 91 
-4 181 350 182 129 95 
-4 181 350 184 132 95 
-4 181 350 185 133 96 
-3 181 350 186 134 97 
-3 181 350 188 136 99 
-3 181 350 191 139 100 
0 181 350 193 144 101 
0 181 351 193 144 101 
1 182 352 192 143 100 
1 183 353 190 142 102 
-6 184 355 150 103 73 
-6 183 354 147 100 70 
-6 182 352 150 104 71 
-5 182 351 156 110 77 
-5 182 351 163 113 78 
-4 181 350 170 120 85 
-4 181 350 179 129 94 
-4 181 350 183 133 98 
-3 181 350 185 135 98 
-3 181 350 185 135 98 
-3 181 350 188 138 101 
-2 181 350 191 141 104 
-2 181 349 192 143 103 
-1 181 349 191 142 102 
-1 181 349 193 144 103 
-1 181 349 193 144 103 
0 181 350 193 144 103 
0 181 350 193 144 103 
0 182 351 194 145 104 
1 182 352 193 144 103 
1 183 354 190 142 104 
-6 184 354 154 109 76 
-6 183 353 149 104 71 
-6 183 352 142 97 64 
-5 182 351 134 89 56 
-5 182 351 139 90 57 
-4 182 350 149 100 67 
-4 182 350 163 115 79 
-4 182 350 173 125 89 
-3 182 350 179 131 95 
-3 182 350 183 135 99 
-3 182 350 187 139 103 
-2 182 350 193 145 109 
-2 182 350 193 145 107 
-1 181 349 192 144 106 
-1 181 349 190 145 104 
-1 181 349 190 145 104 
0 182 350 188 143 101 
0 182 351 188 143 101 
0 182 351 188 143 102 
1 183 353 187 142 101 
-6 184 353 160 115 82 
-6 183 352 157 112 79 
-6 183 352 140 95 62 
-5 183 351 120 75 42 
-5 183 351 112 66 33 
-4 182 350 122 76 43 
-4 182 350 137 91 57 
-4 182 350 152 106 72 
-3 182 350 164 118 82 
-3 182 350 172 126 90 
-3 182 350 180 134 100 
-2 182 350 188 142 108 
-2 182 350 191 147 110 
-1 182 349 189 145 108 
-1 182 349 187 143 104 
-1 182 350 185 141 102 
0 182 350 182 139 97 
0 183 351 181 138 96 
0 183 352 181 138 96 
-6 183 352 164 118 85 
-6 183 352 163 117 84 
-6 183 351 143 98 67 
-5 183 351 119 74 43 
-5 182 350 93 56 30 
-4 182 350 92 55 29 
-4 182 350 102 68 43 
-4 182 349 118 84 59 
-3 182 349 131 95 71 
-3 182 349 136 100 76 
-3 182 349 156 117 86 
-2 182 349 167 128 97 
-2 182 349 179 135 98 
-1 182 349 176 132 95 
-1 182 349 179 134 95 
-1 182 350 177 132 93 
0 182 350 179 131 93 
0 183 351 180 132 94 
0 183 351 179 132 90 
-6 184 352 166 121 88 
-6 183 351 166 121 88 
-6 183 351 149 104 71 
-5 183 350 123 78 45 
-5 183 350 88 56 31 
-4 183 350 85 53 28 
-4 183 350 88 57 36 
-4 182 349 92 61 40 
-3 182 349 100 70 46 
-3 182 349 107 77 53 
-3 182 349 126 91 61 
-2 182 349 140 105 75 
-2 182 349 157 117 81 
-1 182 349 162 122 86 
-1 182 349 173 129 90 
-1 182 349 176 132 93 
0 183 350 178 133 94 
0 183 351 180 135 96 
0 183 351 180 137 95 
-6 184 351 168 123 90 
-6 184 351 168 123 90 
-6 183 350 154 109 76 
-5 183 350 127 82 49 
-5 183 349 86 58 36 
-4 183 350 82 54 32 
-4 183 350 85 58 39 
-4 183 349 80 53 34 
-3 183 349 82 55 34 
-3 183 349 87 60 39 
-3 183 349 102 71 43 
-2 183 349 119 88 60 
-2 183 349 143 105 69 
-1 183 349 156 118 82 
-1 183 349 174 130 93 
-1 183 349 181 137 100 
0 183 350 181 137 98 
0 183 350 183 139 100 
0 184 351 184 142 102 
-7 183 350 166 125 93 
-7 183 350 161 118 84 
-7 183 350 163 120 86 
-6 183 350 168 123 90 
-6 183 350 169 124 91 
-6 183 350 160 115 82 
-5 183 349 138 93 60 
-5 183 349 93 65 43 
-4 183 349 84 56 34 
-4 183 349 91 64 45 
-4 183 349 88 61 42 
-3 183 349 85 60 40 
-3 182 348 87 62 42 
-3 182 348 104 72 47 
-2 182 348 127 95 70 
-2 182 348 151 111 76 
-1 182 348 168 128 93 
-1 182 348 186 141 102 
-1 183 349 191 146 107 
0 183 349 187 143 104 
0 183 350 186 142 103 
0 184 351 188 146 108 
-6 184 350 170 125 94 
-6 184 350 170 125 94 
-6 184 350 166 121 88 
-5 183 349 152 107 74 
-5 183 349 110 78 55 
-4 183 349 88 56 33 
-4 183 349 87 59 37 
-4 183 349 88 60 38 
-3 183 349 89 61 39 
-3 183 348 94 66 44 
-3 183 348 118 87 59 
-2 183 348 146 115 87 
-2 183 348 172 132 97 
-1 183 348 185 145 110 
-1 183 348 197 152 111 
-1 183 349 196 151 110 
0 183 349 192 148 109 
0 184 350 190 146 107 
0 184 350 188 148 112 
-6 184 349 170 125 94 
-6 184 349 171 126 95 
-6 184 349 170 125 94 
-5 184 349 167 122 91 
-5 184 349 139 104 76 
-4 184 349 109 74 46 
-4 184 349 100 69 40 
-4 184 349 103 72 43 
-3 184 349 109 78 50 
-3 183 348 119 88 60 
-3 183 348 144 111 80 
-2 183 348 168 135 104 
-2 183 348 186 146 110 
-1 183 348 193 153 117 
-1 183 348 198 155 113 
-1 183 348 195 152 110 
0 184 349 192 150 108 
0 184 349 190 148 106 
0 184 350 187 149 112 
-6 184 349 169 125 96 
-6 184 349 172 128 99 
-6 184 349 175 130 99 
-5 184 349 177 132 101 
-5 184 349 168 129 96 
-4 184 349 150 111 78 
-4 184 349 145 106 73 
-4 184 349 149 110 77 
-3 184 349 154 118 84 
-3 184 348 162 126 92 
-3 184 348 177 141 107 
-2 184 348 185 149 115 
-2 184 348 189 149 113 
-1 184 348 191 151 115 
-1 184 348 194 152 110 
-1 184 348 191 149 107 
0 184 349 188 149 108 
0 184 349 187 148 107 
-6 184 348 169 125 96 
-6 184 348 172 128 99 
-6 184 348 174 129 98 
-5 184 348 177 132 101 
-5 184 348 177 133 98 
-4 184 348 176 132 97 
-4 184 348 177 134 99 
-4 184 348 181 138 103 
-3 184 348 185 145 109 
-3 184 348 187 147 111 
-3 184 348 192 152 117 
-2 184 348 187 147 112 
-2 184 348 188 146 108 
-1 184 348 188 146 108 
-1 184 348 192 149 107 
-1 184 348 191 148 106 
0 184 349 188 146 106 
0 184 349 185 147 110 
-6 184 348 162 119 85 
-6 184 348 165 122 88 
-6 184 348 169 126 92 
-5 184 348 174 131 97 
-5 184 348 179 136 102 
-4 184 348 180 137 103 
-4 184 348 184 141 106 
-4 184 348 188 145 110 
-3 184 348 190 148 110 
-3 184 348 190 148 110 
-3 184 348 187 148 109 
-2 184 348 186 147 108 
-2 184 348 184 144 108 
-1 184 348 184 144 108 
-1 184 348 185 145 110 
-1 184 348 186 146 111 
-6 184 347 153 113 78 
-6 184 347 158 118 83 
-5 184 347 164 124 89 
-5 184 347 169 129 94 
-6 184 347 153 115 79 
-6 184 347 155 117 81 
-5 184 347 160 122 86 
-5 184 347 163 125 89 
-5 184 347 174 130 93 
-3 184 347 180 138 96 
-3 184 347 182 140 98 
-3 184 347 182 140 98 
-2 184 347 183 141 99 
-2 184 347 182 143 102 
-1 184 347 182 143 102 
-1 184 347 183 144 105 
-1 184 347 183 144 105 
