ply
format ascii 1.0
comment Created by CloudCompare v2.10.1 (Zephyrus)
comment Created 2020-05-17 12:43 AM
obj_info Generated by CloudCompare!
element vertex 1217
property float x
property float y
property float z
property uchar red
property uchar green
property uchar blue
end_header
38 35 319 135 108 97 
38 35 317 139 112 101 
38 35 319 141 113 102 
38 35 317 149 121 110 
38 35 315 166 130 108 
38 35 314 176 140 118 
39 35 314 187 150 123 
39 35 313 193 156 129 
39 35 313 201 157 130 
38 36 321 130 114 117 
38 36 319 149 121 110 
38 35 317 159 131 120 
38 35 315 177 141 117 
38 35 314 189 153 129 
39 35 314 199 162 135 
39 35 313 204 167 140 
39 35 313 214 169 140 
39 35 312 219 174 145 
40 35 312 224 179 150 
40 35 312 225 180 151 
40 35 312 224 179 148 
41 35 312 223 178 147 
41 35 311 221 174 144 
41 35 311 216 169 139 
42 35 311 214 165 133 
42 35 311 209 160 128 
42 35 311 204 155 123 
38 36 320 142 122 123 
38 36 318 159 130 116 
38 36 316 169 140 126 
38 35 315 186 149 123 
38 35 314 196 159 133 
39 35 314 205 166 137 
39 35 313 209 170 141 
39 35 313 218 173 144 
39 35 312 222 177 148 
40 35 312 226 181 152 
40 35 312 226 181 152 
40 35 312 225 180 149 
41 35 312 226 181 150 
41 35 311 226 179 149 
41 35 311 223 176 146 
42 35 311 221 172 142 
42 35 311 216 167 137 
42 35 311 212 163 131 
37 36 321 144 123 120 
37 36 319 151 130 127 
38 36 317 171 138 121 
38 36 315 180 147 130 
38 36 314 194 155 126 
38 36 314 201 162 133 
38 36 313 209 166 134 
39 35 312 212 169 137 
39 35 312 217 172 143 
39 35 312 220 175 146 
40 35 312 224 179 150 
40 35 312 224 179 150 
40 35 311 223 178 149 
41 35 311 225 180 151 
41 35 311 228 181 151 
41 35 311 227 180 150 
42 35 311 223 176 146 
42 35 311 219 172 142 
37 37 322 139 121 117 
37 37 319 160 124 108 
37 36 318 169 133 117 
37 36 316 181 141 116 
38 36 315 188 148 123 
38 36 314 197 155 130 
38 36 314 202 160 135 
38 36 313 206 165 135 
39 36 312 212 171 141 
39 36 312 218 171 143 
39 36 312 221 174 146 
40 36 312 222 175 147 
40 36 312 223 176 148 
40 36 311 224 177 149 
41 36 311 226 179 151 
41 36 311 227 180 150 
41 36 311 224 177 147 
42 36 311 223 176 146 
42 36 310 224 177 147 
42 36 310 220 173 143 
42 36 310 215 168 138 
43 36 310 210 164 131 
43 36 310 203 157 124 
37 37 324 138 117 112 
37 37 321 143 122 117 
37 37 318 162 125 107 
37 37 317 170 133 115 
37 36 315 184 140 115 
38 36 315 191 147 122 
38 36 314 199 155 128 
38 36 313 204 160 133 
38 36 313 208 164 135 
39 36 312 213 169 140 
39 36 312 217 172 143 
39 36 312 219 174 145 
40 36 311 220 175 146 
40 36 311 222 177 148 
40 36 311 223 178 149 
41 36 311 224 179 150 
41 36 311 225 180 151 
41 36 311 223 178 149 
41 36 310 224 179 148 
42 36 310 223 178 147 
42 36 310 219 174 143 
42 36 310 214 169 138 
43 36 310 209 164 133 
37 38 323 141 116 111 
37 37 320 144 119 114 
37 37 318 165 122 103 
37 37 316 171 128 109 
37 37 315 182 135 109 
38 37 314 189 142 116 
38 37 313 197 150 120 
38 37 313 204 157 127 
38 36 312 209 163 130 
39 36 311 214 168 135 
39 36 311 216 171 140 
39 36 311 217 172 141 
40 36 311 219 174 143 
40 36 310 221 176 145 
40 36 310 221 176 147 
40 36 310 223 178 149 
41 36 310 225 180 151 
41 36 310 222 177 148 
41 36 310 225 180 151 
42 36 310 222 177 148 
42 36 310 219 174 145 
42 36 310 215 170 141 
37 38 324 120 111 116 
37 38 322 139 110 102 
37 38 319 142 113 105 
37 37 317 160 115 92 
37 37 315 167 122 99 
37 37 314 178 128 101 
37 37 313 185 135 108 
38 37 313 194 145 113 
38 37 312 202 153 121 
38 37 311 208 159 126 
39 37 311 215 166 133 
39 37 311 215 170 137 
39 37 311 217 172 139 
39 37 310 219 174 141 
40 37 310 220 175 142 
40 37 310 221 176 145 
40 37 310 222 177 146 
41 37 310 223 178 149 
41 37 310 221 176 147 
41 37 310 222 177 148 
42 37 310 221 176 147 
42 37 310 219 173 147 
42 37 310 215 169 143 
36 39 325 118 106 108 
36 38 323 119 107 109 
37 38 321 137 105 94 
37 38 319 139 107 96 
37 38 317 154 108 84 
37 37 315 162 116 92 
37 37 314 173 123 96 
37 37 312 181 131 104 
38 37 312 191 142 110 
38 37 311 198 149 117 
38 37 311 205 155 122 
38 37 310 212 162 129 
39 37 310 214 168 134 
39 37 310 219 173 139 
39 37 309 220 174 140 
40 37 309 221 175 141 
40 37 309 222 176 143 
40 37 309 222 176 143 
41 37 309 223 176 146 
41 37 309 222 175 145 
41 37 309 223 176 148 
42 37 309 222 175 147 
42 37 309 220 173 147 
36 39 323 121 106 103 
36 39 321 121 106 103 
37 38 320 139 103 87 
37 38 318 141 105 89 
37 38 317 152 104 81 
37 38 315 160 112 89 
37 38 314 169 119 92 
37 37 312 177 127 100 
37 37 311 187 138 108 
38 37 311 194 145 115 
38 37 310 202 152 117 
38 37 310 210 160 125 
39 37 310 212 166 130 
39 37 309 219 173 137 
39 37 309 221 175 141 
40 37 309 222 176 142 
40 37 309 223 177 144 
40 37 308 223 177 144 
40 37 308 223 176 146 
41 37 308 222 175 145 
41 37 308 224 177 149 
41 37 308 224 177 149 
36 39 323 126 103 97 
36 39 321 127 104 98 
36 39 319 143 102 84 
37 39 318 144 103 85 
37 38 317 153 101 77 
37 38 315 160 108 84 
37 38 314 165 115 88 
37 38 312 173 123 96 
37 38 311 182 133 103 
38 38 311 190 141 111 
38 38 310 202 148 112 
38 37 309 210 156 120 
39 37 309 209 163 127 
39 37 309 218 172 136 
39 37 308 222 176 142 
39 37 308 223 177 143 
40 37 308 223 177 144 
40 37 307 223 177 144 
40 37 307 224 177 147 
41 37 307 223 176 146 
41 37 307 226 179 153 
36 39 323 128 101 92 
36 39 321 130 103 94 
36 39 318 146 101 80 
37 39 318 146 101 80 
37 39 317 153 99 73 
37 38 315 158 104 78 
37 38 314 162 112 85 
37 38 312 170 120 93 
37 38 311 180 129 100 
38 38 311 189 138 109 
38 38 310 201 145 110 
38 38 309 208 152 117 
39 38 309 206 162 127 
39 38 308 216 172 137 
39 38 308 222 178 143 
39 38 308 223 179 144 
40 37 307 222 177 144 
40 37 307 223 178 145 
40 37 307 224 179 150 
41 37 307 222 177 148 
36 40 324 121 105 108 
36 40 322 135 102 95 
36 39 320 135 102 95 
36 39 318 144 101 84 
37 39 318 145 102 85 
37 39 317 148 100 77 
37 39 315 150 102 79 
37 39 314 161 110 83 
37 38 312 170 119 92 
37 38 311 180 127 96 
38 38 311 189 136 105 
38 38 309 199 146 112 
38 38 309 207 154 120 
38 38 308 204 157 127 
39 38 308 215 168 138 
39 38 307 222 175 145 
39 38 307 223 176 146 
40 38 307 223 176 148 
40 38 307 224 177 149 
40 38 306 224 179 150 
41 38 306 226 181 152 
36 40 323 123 104 106 
36 40 321 135 101 92 
36 40 320 136 102 93 
36 40 318 144 101 84 
37 40 318 144 101 84 
37 39 317 146 98 75 
37 39 315 148 100 77 
37 39 314 161 107 83 
37 39 312 171 117 93 
37 39 311 179 125 97 
38 39 310 188 134 106 
38 38 309 197 144 110 
38 38 308 204 151 117 
38 38 308 202 156 123 
39 38 307 213 167 134 
39 38 307 221 174 144 
39 38 307 222 175 145 
40 38 306 224 177 147 
40 38 306 225 178 148 
40 38 306 224 179 150 
36 41 323 124 104 103 
36 40 321 137 100 91 
36 40 320 138 101 92 
36 40 318 144 101 82 
36 40 317 144 101 82 
37 40 316 146 98 75 
37 40 315 146 98 75 
37 39 314 158 104 80 
37 39 312 167 113 89 
37 39 311 175 121 93 
38 39 310 185 131 103 
38 39 309 191 141 108 
38 39 308 199 149 116 
38 38 307 200 154 121 
39 38 307 210 164 131 
39 38 307 218 172 139 
39 38 307 221 175 142 
40 38 306 225 178 148 
40 38 306 225 178 148 
40 38 305 225 178 148 
36 41 324 124 103 100 
36 41 323 124 103 100 
36 41 321 138 100 87 
36 40 320 139 101 88 
36 40 318 146 101 80 
36 40 317 146 101 80 
37 40 316 147 99 76 
37 40 315 146 98 75 
37 40 314 156 101 80 
37 39 312 163 108 87 
37 39 311 172 118 90 
38 39 309 181 127 99 
38 39 308 188 138 105 
38 39 308 196 146 113 
38 39 307 200 151 119 
39 39 307 210 161 129 
39 39 306 215 169 136 
39 39 306 220 174 141 
40 39 306 225 178 148 
40 39 306 225 178 148 
40 39 305 224 177 149 
36 41 324 127 102 97 
36 41 323 127 102 97 
36 41 321 139 100 85 
36 41 320 139 100 85 
36 41 318 145 100 77 
36 40 317 146 101 78 
37 40 316 146 98 75 
37 40 315 146 98 75 
37 40 314 155 101 77 
37 40 312 161 107 83 
37 40 311 169 115 89 
38 39 309 179 125 99 
38 39 308 185 136 104 
38 39 307 194 145 113 
38 39 307 199 150 118 
39 39 307 208 159 127 
39 39 306 214 168 135 
39 39 306 219 173 140 
40 39 306 224 177 147 
40 39 306 225 178 148 
40 39 305 224 177 149 
36 42 324 130 103 96 
36 42 323 129 102 95 
36 41 321 141 99 83 
36 41 320 141 99 83 
36 41 318 146 100 77 
36 41 317 146 100 77 
37 41 316 147 99 76 
37 41 315 146 98 75 
37 40 314 154 98 75 
37 40 312 159 103 80 
37 40 311 166 112 84 
38 40 309 176 122 94 
38 40 308 184 135 103 
38 39 307 193 144 112 
38 39 306 196 150 117 
39 39 306 205 159 126 
39 39 306 212 165 135 
39 39 306 217 170 140 
39 39 305 223 176 146 
40 39 305 225 178 148 
40 39 305 224 177 149 
36 42 324 131 101 93 
36 42 323 131 101 93 
36 42 320 142 99 83 
36 41 319 143 100 84 
36 41 318 147 101 78 
36 41 317 147 101 78 
37 41 316 150 100 75 
37 41 315 148 98 73 
37 41 314 154 98 73 
37 40 312 157 101 76 
37 40 311 164 110 82 
38 40 309 174 120 92 
38 40 308 179 132 102 
38 40 307 190 143 113 
38 40 306 195 149 116 
39 40 306 203 157 124 
39 40 306 210 163 133 
39 40 306 215 168 138 
39 40 305 222 175 145 
40 40 305 225 178 148 
40 40 305 223 178 149 
36 42 324 131 101 93 
36 42 322 131 101 93 
36 42 320 144 98 83 
36 42 318 146 100 85 
36 42 318 148 102 79 
36 41 317 149 103 80 
37 41 315 148 101 75 
37 41 315 147 100 74 
37 41 314 155 99 72 
37 41 312 158 102 75 
37 41 311 164 110 82 
38 40 309 172 118 90 
38 40 307 177 130 100 
38 40 307 188 141 111 
38 40 306 194 148 115 
39 40 306 202 156 123 
39 40 306 209 162 132 
39 40 306 214 167 137 
39 40 305 221 174 144 
40 40 305 224 177 147 
40 40 305 223 178 149 
36 43 324 130 100 89 
36 42 322 130 100 89 
36 42 320 142 99 80 
36 42 318 143 100 81 
36 42 317 147 101 78 
36 42 317 148 102 79 
37 42 315 149 99 76 
37 41 314 150 100 77 
37 41 314 152 101 74 
37 41 312 155 104 77 
37 41 311 162 111 82 
38 41 309 170 119 90 
38 40 307 175 130 101 
38 40 307 185 140 111 
38 40 306 191 144 118 
39 40 306 200 153 127 
39 40 305 209 162 136 
39 40 305 215 168 142 
39 40 305 219 175 148 
40 40 304 222 178 151 
40 40 304 222 178 151 
36 43 327 118 104 101 
36 43 324 130 100 89 
36 43 321 131 101 90 
36 43 320 142 99 80 
36 42 318 143 100 81 
36 42 317 148 100 78 
36 42 316 148 100 78 
37 42 315 148 98 75 
37 42 314 150 100 77 
37 42 313 153 102 75 
37 41 311 155 104 77 
37 41 310 161 110 81 
38 41 309 169 118 89 
38 41 307 176 131 102 
38 41 307 185 140 111 
38 41 306 193 143 118 
39 41 306 202 152 127 
39 41 305 209 162 136 
39 41 305 214 167 141 
39 41 305 219 173 147 
40 40 304 223 177 151 
40 40 304 222 178 149 
35 44 326 118 104 101 
36 43 324 131 101 90 
36 43 321 131 101 90 
36 43 320 142 99 80 
36 43 318 143 100 81 
36 43 317 148 100 78 
36 42 316 148 100 78 
37 42 315 150 100 77 
37 42 314 150 100 77 
37 42 313 153 102 75 
37 42 311 155 104 77 
37 42 310 159 108 79 
38 41 309 168 117 88 
38 41 307 176 131 102 
38 41 307 184 139 110 
38 41 306 192 142 115 
38 41 305 200 150 123 
39 41 305 207 160 132 
39 41 304 213 166 138 
39 41 304 218 173 144 
40 41 304 223 178 149 
40 41 304 223 178 149 
35 44 325 119 104 101 
36 44 324 131 101 90 
36 43 321 131 101 90 
36 43 320 142 99 80 
36 43 318 143 100 81 
36 43 317 148 100 78 
36 43 316 148 100 78 
37 43 315 151 101 78 
37 42 314 151 101 78 
37 42 313 153 102 75 
37 42 311 154 103 76 
37 42 310 158 107 78 
38 42 309 168 117 88 
38 41 307 176 129 101 
38 41 306 183 136 108 
38 41 305 191 141 114 
38 41 305 198 148 121 
39 41 305 205 158 130 
39 41 304 212 165 137 
39 41 304 217 172 143 
40 41 304 222 177 148 
40 41 304 224 179 148 
35 44 325 120 105 102 
35 44 323 131 102 88 
36 44 321 131 102 88 
36 44 320 143 98 77 
36 43 318 145 100 79 
36 43 317 148 100 78 
36 43 315 149 101 79 
37 43 315 151 101 78 
37 43 314 152 102 79 
37 43 312 155 101 75 
37 42 311 155 101 75 
37 42 310 158 107 78 
38 42 309 167 116 87 
38 42 307 175 128 102 
38 42 306 182 135 109 
38 42 305 191 142 112 
38 41 304 198 149 119 
39 41 304 204 157 127 
39 41 304 211 164 134 
39 41 303 215 170 139 
39 41 303 221 176 145 
40 41 303 223 178 147 
35 45 325 120 105 102 
35 44 323 131 102 88 
36 44 321 131 102 88 
36 44 320 144 99 78 
36 44 318 145 100 79 
36 44 317 149 101 79 
36 43 315 150 102 80 
37 43 315 151 100 79 
37 43 314 152 101 80 
37 43 312 156 102 76 
37 43 311 156 102 76 
37 43 310 158 107 78 
38 42 309 167 116 87 
38 42 307 174 127 101 
38 42 306 182 135 109 
38 42 305 190 141 111 
38 42 304 197 148 118 
39 42 304 205 156 126 
39 42 303 212 163 133 
39 42 303 215 168 138 
39 42 303 220 173 143 
40 42 303 222 177 146 
35 45 324 120 105 102 
35 45 323 131 102 88 
36 44 321 132 103 89 
36 44 320 145 100 79 
36 44 318 146 101 80 
36 44 317 149 101 79 
36 44 315 150 102 80 
37 44 315 151 100 79 
37 43 314 152 101 80 
37 43 312 156 102 74 
37 43 311 157 103 75 
37 43 310 157 106 77 
38 43 309 165 114 85 
38 42 307 172 125 99 
38 42 306 179 132 106 
38 42 305 189 138 109 
38 42 304 195 144 115 
39 42 304 204 153 124 
39 42 303 210 159 130 
39 42 302 212 165 135 
39 42 302 218 171 141 
40 42 302 222 175 145 
35 45 324 120 105 102 
35 45 323 132 103 89 
35 45 320 132 103 89 
36 44 319 145 100 79 
36 44 317 146 101 80 
36 44 316 149 101 81 
36 44 315 149 101 81 
36 44 314 153 102 81 
37 44 314 151 100 79 
37 44 312 156 102 74 
37 43 311 157 103 75 
37 43 309 156 105 76 
37 43 308 163 112 83 
38 43 306 170 123 97 
38 43 306 175 128 102 
38 43 305 189 135 107 
38 42 304 194 140 112 
39 42 304 201 150 121 
39 42 303 208 157 128 
39 42 302 213 164 134 
39 42 302 219 170 140 
40 42 301 222 176 143 
35 46 324 123 103 102 
35 45 323 134 102 89 
35 45 320 134 102 89 
36 45 318 143 101 79 
36 45 317 144 102 80 
36 44 316 148 103 82 
36 44 315 149 104 83 
36 44 314 149 103 80 
37 44 314 149 103 80 
37 44 312 153 103 76 
37 44 311 153 103 76 
37 43 309 155 104 77 
37 43 308 160 109 82 
38 43 306 167 119 96 
38 43 305 175 127 104 
38 43 305 180 133 103 
38 43 304 189 142 112 
38 43 303 199 152 122 
39 43 303 206 159 129 
39 42 302 213 164 134 
39 42 302 218 169 139 
35 46 323 123 103 102 
35 46 322 133 101 88 
35 45 320 134 102 89 
36 45 318 143 101 79 
36 45 317 145 103 81 
36 45 316 149 102 82 
36 45 315 150 103 83 
36 44 314 150 104 81 
37 44 314 149 103 80 
37 44 312 154 103 76 
37 44 311 154 103 76 
37 44 309 154 103 76 
37 44 308 159 108 81 
38 43 306 168 118 95 
38 43 305 176 126 103 
38 43 304 180 133 103 
38 43 303 189 142 112 
38 43 303 200 151 121 
39 43 302 207 158 128 
39 43 302 212 163 133 
35 46 323 124 103 102 
35 46 321 134 100 88 
35 46 320 135 101 89 
36 45 318 146 101 80 
36 45 317 147 102 81 
36 45 316 150 104 81 
36 45 315 151 105 82 
36 45 314 151 103 81 
37 45 314 150 102 80 
37 45 312 153 102 75 
37 44 311 153 102 75 
37 44 309 155 101 75 
37 44 308 160 106 80 
38 44 306 167 117 94 
38 44 305 175 125 102 
38 43 304 179 132 102 
38 43 303 188 141 111 
38 43 302 199 149 122 
39 43 302 205 155 128 
39 43 302 210 161 131 
35 46 323 124 103 100 
35 46 321 134 100 88 
35 46 320 135 101 89 
36 46 318 146 101 80 
36 46 317 147 102 81 
36 45 316 150 104 81 
36 45 315 150 104 81 
36 45 314 150 102 80 
37 45 314 149 101 79 
37 45 313 153 102 75 
37 45 311 153 102 75 
37 44 309 156 102 76 
37 44 308 160 106 80 
38 44 306 166 116 91 
38 44 305 174 124 99 
38 44 304 179 129 102 
38 44 303 189 139 112 
38 43 302 198 149 119 
39 43 302 204 155 125 
39 43 301 209 160 130 
35 47 324 123 104 100 
35 47 321 135 101 89 
35 46 320 135 101 89 
36 46 318 146 101 80 
36 46 317 147 102 81 
36 46 317 149 103 80 
36 46 316 150 104 81 
36 45 314 150 102 79 
37 45 314 150 102 79 
37 45 313 153 102 75 
37 45 311 154 103 76 
37 45 309 157 103 77 
37 45 308 159 105 79 
38 44 306 164 114 89 
38 44 305 172 122 97 
38 44 304 177 128 98 
38 44 303 189 140 110 
38 44 302 198 149 119 
39 44 302 203 154 124 
39 44 301 209 160 128 
35 47 323 124 105 101 
35 47 321 134 102 89 
35 47 320 135 103 90 
36 46 318 146 101 80 
36 46 317 147 102 81 
36 46 317 149 103 80 
36 46 316 149 103 80 
37 46 315 149 103 79 
37 46 314 150 104 80 
37 46 313 154 103 76 
37 45 311 155 104 77 
37 45 309 156 105 78 
37 45 308 157 106 79 
38 45 306 162 112 87 
38 45 305 170 120 95 
38 44 304 177 128 98 
38 44 303 189 140 110 
38 44 302 198 149 117 
39 44 302 203 154 122 
39 44 301 209 160 128 
35 48 323 125 104 101 
35 47 321 135 101 89 
35 47 319 136 102 90 
36 47 318 146 101 80 
36 47 317 147 102 81 
36 47 317 149 103 79 
36 46 316 150 104 80 
37 46 315 150 102 79 
37 46 314 151 103 80 
37 46 313 154 103 76 
37 46 311 156 105 78 
37 45 309 158 104 78 
37 45 308 159 105 79 
38 45 306 163 113 88 
38 45 305 171 121 96 
38 45 304 178 129 99 
38 45 303 189 140 110 
38 44 302 197 148 116 
39 44 302 202 153 121 
39 44 301 210 160 127 
35 48 323 125 104 101 
35 48 321 135 101 89 
35 47 319 136 102 90 
36 47 318 145 100 79 
36 47 317 147 102 81 
36 47 317 150 102 79 
36 47 315 151 103 80 
36 47 314 150 102 79 
37 47 314 150 102 79 
37 46 313 156 102 76 
37 46 311 158 104 78 
37 46 309 159 105 79 
37 46 308 160 106 80 
38 45 306 165 113 89 
38 45 305 174 122 98 
38 45 304 179 130 98 
38 45 303 189 140 108 
38 45 302 197 148 115 
39 45 302 202 153 120 
39 45 301 209 159 126 
35 48 323 120 105 98 
35 48 321 137 101 89 
35 48 319 138 102 90 
36 47 318 146 101 82 
36 47 317 146 101 82 
36 47 317 148 102 79 
36 47 315 149 103 80 
36 47 314 158 103 82 
37 47 314 156 101 80 
37 47 313 156 102 76 
37 46 311 156 102 76 
37 46 309 153 103 76 
37 46 308 158 108 81 
38 46 306 166 116 93 
38 45 305 173 123 100 
38 45 304 178 129 97 
38 45 303 189 140 108 
38 45 302 195 149 115 
39 45 301 199 153 119 
39 45 300 208 160 124 
35 49 323 120 105 98 
35 48 321 136 100 88 
35 48 320 137 101 89 
36 48 318 145 100 79 
36 48 317 146 101 80 
36 48 317 148 102 79 
36 47 315 148 102 79 
36 47 314 157 102 81 
37 47 314 155 100 79 
37 47 312 156 100 75 
37 47 311 157 101 76 
37 46 309 153 103 76 
37 46 308 157 107 80 
38 46 306 165 115 90 
38 46 305 171 121 96 
38 46 304 175 126 94 
38 46 303 186 137 105 
38 45 301 194 146 110 
38 45 300 199 151 115 
35 49 323 119 104 99 
35 49 321 136 100 88 
35 48 320 137 101 89 
36 48 318 145 100 79 
36 48 317 146 101 80 
36 48 317 149 101 78 
36 48 315 149 101 78 
36 48 314 157 100 80 
37 48 314 156 99 79 
37 47 313 156 100 75 
37 47 311 157 101 76 
37 47 309 154 103 74 
37 47 308 157 106 77 
38 46 306 163 112 85 
38 46 305 169 118 91 
38 46 304 173 122 91 
38 46 303 183 132 101 
38 46 301 192 142 107 
38 45 300 197 147 112 
35 49 323 119 104 101 
35 49 321 136 100 88 
35 49 320 137 101 89 
36 48 318 145 100 77 
36 48 317 146 101 78 
36 48 317 149 101 78 
36 48 315 149 101 78 
36 48 314 157 100 80 
37 48 314 156 99 79 
37 48 313 157 99 75 
37 47 311 158 100 76 
37 47 309 154 103 74 
37 47 308 155 104 75 
38 47 306 160 109 82 
38 46 305 166 115 88 
38 46 304 174 121 90 
38 46 303 182 129 98 
38 46 301 190 137 105 
38 46 300 196 143 111 
35 50 323 119 105 102 
35 49 322 134 100 88 
35 49 320 135 101 89 
36 49 318 145 100 77 
36 49 317 146 101 78 
36 49 317 148 102 78 
36 48 315 148 102 78 
36 48 314 156 99 80 
37 48 313 155 98 79 
37 48 312 156 100 75 
37 48 311 157 101 76 
37 47 309 154 103 74 
37 47 308 155 104 75 
38 47 306 159 108 81 
38 47 304 164 113 86 
38 47 304 174 119 89 
38 46 302 182 127 97 
38 46 301 189 134 103 
38 46 300 196 141 110 
35 50 323 120 105 102 
35 50 323 137 101 89 
35 49 320 137 101 89 
36 49 318 145 100 77 
36 49 317 145 100 77 
36 49 317 147 101 78 
36 49 315 148 102 79 
36 49 314 153 98 77 
37 48 312 153 98 77 
37 48 312 155 99 74 
37 48 311 156 100 75 
37 48 309 154 103 74 
37 48 308 154 103 74 
38 47 306 158 106 82 
38 47 304 164 112 88 
38 47 303 173 118 88 
38 47 302 181 126 96 
38 47 301 189 134 104 
38 46 300 195 140 110 
35 50 323 120 105 98 
35 50 322 137 101 87 
35 50 320 137 101 87 
36 50 318 146 100 77 
36 49 317 147 101 78 
36 49 316 148 100 78 
36 49 315 149 101 79 
36 49 314 154 97 77 
37 49 312 154 97 77 
37 49 312 154 98 71 
37 48 311 156 100 73 
37 48 309 153 102 73 
37 48 308 153 102 73 
38 48 306 157 105 81 
38 47 304 164 112 88 
38 47 303 172 117 87 
38 47 302 181 126 96 
38 47 301 188 133 103 
38 47 300 194 139 109 
35 51 323 123 106 98 
35 50 321 138 101 85 
35 50 320 139 102 86 
36 50 318 147 101 78 
36 50 317 147 101 78 
36 49 315 149 101 79 
36 49 315 149 101 79 
36 49 314 155 99 76 
37 49 312 155 99 76 
37 49 312 156 99 70 
37 49 310 156 99 70 
37 48 309 152 101 70 
37 48 307 152 101 70 
38 48 306 156 104 80 
38 48 304 162 110 86 
38 47 303 172 117 87 
38 47 301 180 125 95 
38 47 301 188 131 102 
38 47 299 193 136 107 
35 51 324 125 107 103 
35 51 322 140 102 89 
35 51 320 140 102 89 
36 50 318 147 102 79 
36 50 317 147 102 79 
36 50 315 147 102 79 
36 50 315 147 102 79 
36 50 314 152 100 78 
37 49 312 152 100 78 
37 49 311 156 99 72 
37 49 310 157 100 73 
37 49 308 155 102 71 
37 48 307 155 102 71 
37 48 305 159 103 78 
38 48 304 166 110 85 
38 48 303 174 120 82 
38 47 301 181 127 89 
38 47 300 186 131 100 
35 51 324 125 107 103 
35 51 322 140 102 89 
35 51 320 141 103 90 
36 51 318 147 102 79 
36 50 317 147 102 79 
36 50 315 147 102 79 
36 50 315 147 102 79 
36 50 314 152 100 78 
37 50 312 151 99 77 
37 49 311 155 99 72 
37 49 309 156 100 73 
37 49 308 155 102 71 
37 49 306 155 102 71 
37 48 305 160 104 79 
38 48 304 165 109 84 
38 48 303 170 116 78 
38 48 301 178 124 86 
38 47 299 183 128 97 
35 52 324 125 107 103 
35 52 322 139 103 91 
35 51 320 140 104 92 
36 51 318 145 103 81 
36 51 317 146 104 82 
36 50 315 146 104 80 
36 50 314 145 103 79 
36 50 313 151 101 78 
37 50 312 150 100 77 
37 50 311 154 100 72 
37 49 309 155 101 73 
37 49 308 152 101 70 
37 49 306 153 102 71 
37 49 305 159 105 79 
37 48 303 163 109 83 
38 48 302 169 117 80 
38 48 300 176 124 87 
35 52 324 124 106 102 
35 52 321 139 103 91 
35 52 320 139 103 91 
36 51 318 145 103 81 
36 51 317 145 103 81 
36 51 315 146 104 80 
36 51 314 146 104 80 
36 50 313 151 101 78 
37 50 312 151 101 78 
37 50 311 154 100 72 
37 50 309 156 102 74 
37 50 308 153 102 71 
37 49 306 153 102 71 
37 49 304 159 105 79 
37 49 303 164 110 84 
38 48 301 170 118 81 
38 48 299 176 124 87 
35 52 323 124 106 102 
35 52 321 139 103 91 
35 52 320 139 103 91 
36 52 318 144 102 80 
36 51 317 144 102 80 
36 51 315 147 102 79 
36 51 314 147 102 79 
36 51 313 152 100 78 
37 51 312 153 101 79 
37 50 311 155 101 73 
37 50 309 156 102 74 
37 50 308 153 102 73 
37 50 306 153 102 73 
37 49 303 159 105 79 
37 49 302 164 110 84 
37 49 300 168 115 81 
35 53 323 124 106 102 
35 52 321 136 102 90 
35 52 320 137 103 91 
36 52 318 144 102 80 
36 52 317 144 102 80 
36 51 315 146 101 78 
36 51 314 147 102 79 
36 51 313 153 101 79 
37 51 312 154 102 80 
37 51 311 156 102 76 
37 50 309 156 102 76 
37 50 307 154 103 74 
37 50 306 153 102 73 
37 49 303 159 105 79 
37 49 302 165 111 85 
37 49 299 167 114 80 
35 53 323 121 106 101 
35 53 321 136 102 92 
35 53 320 136 102 92 
35 52 317 143 102 82 
36 52 316 144 103 83 
36 52 315 145 103 79 
36 52 314 146 104 80 
36 51 313 153 103 80 
37 51 312 153 103 80 
37 51 311 154 103 76 
37 51 309 155 104 77 
37 50 307 153 104 74 
37 50 305 153 104 74 
37 50 303 160 106 80 
37 50 302 164 110 84 
37 49 299 168 114 80 
35 53 323 120 105 100 
35 53 321 134 102 91 
35 53 320 135 103 92 
35 52 317 144 103 83 
36 52 316 145 104 84 
36 52 315 147 105 81 
36 52 314 147 105 81 
36 52 313 154 104 81 
37 52 312 153 103 80 
37 51 311 155 104 77 
37 51 309 155 104 77 
37 51 307 153 104 74 
37 50 305 154 105 75 
37 50 303 161 107 81 
37 50 301 164 110 84 
37 49 299 168 114 80 
35 54 323 117 107 105 
35 53 321 127 105 94 
35 53 320 127 105 94 
35 53 317 141 102 85 
36 53 316 144 105 88 
36 52 315 152 104 82 
36 52 314 152 104 82 
36 52 313 155 103 79 
37 52 312 155 103 79 
37 52 311 157 103 77 
37 51 309 158 104 78 
37 51 307 160 105 75 
37 51 305 159 104 74 
37 50 303 159 106 75 
37 50 300 163 110 79 
37 50 298 168 115 83 
35 54 321 126 106 97 
35 53 319 126 106 97 
35 53 317 141 104 86 
36 53 315 143 106 88 
36 53 315 152 106 83 
36 53 314 152 106 83 
36 52 313 156 104 80 
37 52 312 155 103 79 
37 52 311 158 104 78 
37 52 309 159 105 79 
37 51 307 159 106 75 
37 51 304 158 105 74 
37 51 302 160 107 76 
37 50 300 163 110 79 
35 54 321 126 106 97 
35 54 319 127 107 98 
35 53 317 140 105 86 
36 53 315 143 108 89 
36 53 314 153 107 84 
36 53 313 154 108 85 
36 53 313 156 106 81 
37 53 312 155 105 80 
37 52 311 157 106 79 
37 52 309 158 107 80 
37 52 307 159 106 75 
37 51 304 158 105 74 
37 51 302 160 107 75 
35 54 319 126 107 100 
35 54 317 140 104 88 
36 53 315 142 106 90 
36 53 314 153 107 84 
36 53 313 154 108 85 
36 53 312 157 107 82 
37 53 312 156 106 81 
37 53 311 157 106 79 
37 52 308 158 107 80 
37 52 307 159 106 75 
37 52 304 158 105 74 
37 51 302 160 107 75 
35 54 319 125 106 99 
35 54 317 138 105 88 
36 54 315 140 107 90 
36 54 314 152 106 83 
36 53 313 154 108 85 
36 53 312 156 106 81 
36 53 311 156 106 81 
37 53 310 157 106 79 
37 53 308 158 107 80 
37 52 306 158 107 78 
37 52 304 157 106 77 
37 52 302 160 107 75 
35 55 319 125 106 99 
35 54 317 138 105 90 
36 54 315 140 107 92 
36 54 314 152 106 83 
36 54 313 154 108 85 
36 54 312 156 106 83 
36 53 311 156 106 83 
37 53 310 156 106 81 
37 53 307 157 107 82 
37 52 305 158 107 80 
37 52 304 157 106 79 
37 52 302 160 107 76 
35 55 319 124 107 99 
35 55 317 138 105 90 
36 54 315 140 107 92 
36 54 314 151 106 83 
36 54 312 152 107 84 
36 54 311 157 107 84 
36 54 311 156 106 83 
37 53 309 156 106 81 
37 53 306 157 107 82 
37 53 305 157 107 80 
37 52 303 155 105 78 
35 56 319 124 107 99 
35 55 317 137 105 90 
36 55 315 138 106 91 
36 55 314 150 105 82 
36 54 312 152 107 84 
36 54 311 155 107 84 
36 54 310 154 106 83 
36 54 308 154 106 83 
36 53 306 156 108 85 
37 53 305 154 107 79 
37 53 302 153 106 78 
35 56 319 124 106 102 
35 56 317 134 104 93 
36 55 315 137 107 96 
36 55 314 145 107 86 
36 55 312 146 108 87 
36 54 311 153 107 81 
36 54 309 154 108 82 
36 54 308 160 107 76 
36 54 306 159 106 75 
37 53 305 161 106 75 
37 53 302 161 106 75 
35 56 317 133 105 93 
36 55 315 135 107 95 
36 55 314 145 107 88 
36 55 312 146 108 89 
36 55 311 151 107 80 
36 54 309 152 108 81 
36 54 308 157 108 76 
36 54 305 156 107 75 
37 54 304 160 107 76 
36 56 318 132 104 93 
36 56 315 134 106 95 
36 56 314 143 106 88 
36 55 312 144 107 89 
36 55 311 148 106 81 
36 55 309 150 108 83 
36 54 307 155 108 78 
36 54 304 155 108 78 
36 54 303 158 107 78 
36 57 318 131 104 95 
36 56 316 132 105 96 
36 56 314 142 105 87 
36 56 312 143 106 88 
36 55 310 147 107 82 
36 55 308 148 108 83 
36 55 306 152 108 79 
36 54 304 152 108 79 
36 57 318 131 104 97 
36 57 317 132 105 98 
36 56 314 142 105 87 
36 56 312 143 106 88 
36 56 310 147 107 82 
36 55 308 148 108 83 
36 55 306 152 108 81 
36 54 303 151 107 80 
36 57 317 130 105 98 
36 57 314 141 105 89 
36 56 311 142 106 90 
36 56 310 147 107 82 
36 55 307 147 107 82 
36 55 305 148 107 79 
36 57 314 137 104 89 
36 56 311 138 105 90 
36 56 309 143 105 82 
36 56 307 143 105 82 
36 55 305 147 105 80 
36 57 314 134 102 87 
36 57 311 135 103 88 
36 56 308 142 104 83 
36 56 307 142 104 83 
36 56 305 145 105 80 
36 58 315 125 106 91 
36 57 312 125 106 91 
36 57 309 136 105 87 
36 56 306 135 104 86 
36 56 305 143 102 84 
36 58 316 124 106 94 
36 58 313 123 105 93 
36 57 310 133 104 86 
36 57 307 133 104 86 
36 59 317 122 105 97 
36 58 313 122 105 97 
36 58 310 132 104 90 
36 57 308 132 104 90 
36 59 314 118 105 97 
36 58 310 131 103 91 
36 58 308 131 103 91 
36 58 311 128 104 94 
36 58 308 128 104 94 
36 58 307 137 101 89 
36 59 314 122 103 97 
36 58 309 123 104 98 
36 58 308 131 102 96 
37 60 313 114 104 102 
37 59 310 118 102 102 
37 60 313 107 103 104 
37 59 310 108 104 105 
