ply
format ascii 1.0
comment Created by CloudCompare v2.10.1 (Zephyrus)
comment Created 2020-05-17 12:44 AM
obj_info Generated by CloudCompare!
element vertex 1100
property float x
property float y
property float z
property uchar red
property uchar green
property uchar blue
end_header
-7 42 369 115 60 39 
-4 40 354 192 138 104 
-4 40 353 199 145 111 
-3 40 353 208 154 120 
-3 40 352 212 158 124 
-3 40 352 212 159 127 
-2 40 352 216 163 131 
-2 40 352 221 168 134 
-2 40 352 222 169 135 
-1 40 352 223 170 138 
-1 40 352 224 171 139 
0 40 351 225 172 140 
0 40 351 225 172 140 
0 40 351 225 175 142 
1 40 352 226 176 143 
1 40 352 226 173 142 
2 40 351 224 171 140 
2 40 351 222 171 140 
2 40 351 222 171 140 
3 40 351 214 167 139 
3 40 352 209 162 134 
3 40 352 200 154 130 
4 40 352 188 142 118 
4 40 352 173 128 107 
5 40 352 162 117 96 
5 40 352 168 126 110 
5 40 353 177 135 119 
6 40 353 135 96 81 
6 40 354 115 76 61 
-9 43 376 103 55 41 
-9 43 375 104 56 42 
-9 43 375 104 53 36 
-8 43 374 107 56 39 
-7 42 369 135 80 59 
-6 42 366 147 92 71 
-6 41 361 163 107 82 
-5 41 358 178 122 97 
-5 40 354 202 148 112 
-4 40 354 209 155 119 
-4 40 353 212 158 122 
-3 40 353 217 163 129 
-3 40 352 220 166 132 
-3 40 352 221 168 134 
-2 40 352 225 172 138 
-2 40 352 228 175 141 
-2 40 352 229 176 142 
-1 40 352 229 179 144 
-1 40 352 230 180 145 
0 40 351 230 180 145 
0 40 351 229 179 144 
0 40 351 229 179 144 
1 40 351 230 180 145 
1 40 352 232 178 150 
2 40 351 229 175 147 
2 40 351 224 174 147 
2 40 351 224 174 147 
3 40 351 219 173 147 
3 40 351 218 172 146 
3 40 352 215 169 146 
4 40 352 207 161 138 
4 40 352 199 154 135 
5 40 352 187 142 123 
5 40 352 174 132 116 
5 40 352 172 130 114 
6 40 353 139 101 88 
6 40 353 124 86 73 
-9 43 376 108 62 46 
-9 43 375 109 63 47 
-9 43 375 108 61 41 
-8 43 374 116 69 49 
-8 43 372 132 82 59 
-7 43 371 147 97 74 
-7 42 368 158 106 82 
-6 42 364 168 116 92 
-6 41 360 177 126 99 
-5 41 357 194 143 116 
-5 41 355 202 148 110 
-5 41 353 209 155 117 
-4 41 353 216 162 124 
-4 41 353 220 166 128 
-3 40 352 222 170 133 
-3 40 352 224 172 135 
-3 40 351 226 173 139 
-2 40 351 229 176 142 
-2 40 351 228 178 145 
-1 40 351 229 179 146 
-1 40 351 229 180 148 
-1 40 351 230 181 149 
0 40 351 230 181 149 
0 40 351 230 181 149 
0 40 351 227 180 150 
1 40 351 227 180 150 
1 40 351 231 180 151 
2 40 351 230 179 150 
2 40 351 229 178 147 
2 40 351 227 176 145 
3 40 351 224 177 147 
3 40 351 224 177 147 
3 40 351 219 175 148 
4 40 352 216 172 145 
4 40 352 207 166 144 
5 40 352 201 160 138 
5 40 352 192 151 133 
5 40 352 182 141 123 
6 40 352 155 117 106 
6 40 352 136 98 87 
-9 44 376 110 63 45 
-9 43 375 111 64 46 
-9 43 375 118 70 48 
-8 43 374 133 85 63 
-8 43 372 150 100 75 
-7 43 370 163 113 88 
-7 42 366 173 122 95 
-6 42 362 181 130 103 
-6 41 358 188 134 106 
-5 41 355 200 146 118 
-5 41 354 207 153 115 
-5 41 353 213 159 121 
-4 41 353 219 165 127 
-4 41 352 223 169 131 
-3 41 352 224 172 135 
-3 41 352 226 174 137 
-3 41 351 226 176 141 
-2 41 351 228 178 143 
-2 41 351 228 179 147 
-1 41 351 229 180 148 
-1 41 351 230 181 149 
-1 41 351 230 181 149 
0 41 351 229 182 152 
0 41 350 229 182 152 
0 41 350 229 182 154 
1 41 350 229 182 154 
1 41 351 230 181 151 
2 41 351 229 180 150 
2 41 351 228 179 147 
2 41 350 227 178 146 
3 41 350 225 178 148 
3 41 350 225 178 148 
3 41 351 221 177 150 
4 41 351 219 175 148 
4 41 351 213 171 147 
5 41 351 209 167 143 
5 41 351 201 160 142 
5 41 351 194 153 135 
6 41 352 174 134 122 
6 41 352 154 114 102 
7 41 352 145 107 98 
7 41 352 141 103 94 
-9 44 376 114 67 47 
-9 44 375 116 69 49 
-9 44 374 134 84 61 
-8 44 373 152 102 79 
-8 43 372 165 114 87 
-7 43 369 175 124 97 
-7 43 365 185 129 102 
-6 42 360 193 137 110 
-6 42 356 199 144 114 
-5 41 354 208 153 123 
-5 41 353 213 159 121 
-5 41 353 217 163 125 
-4 41 352 221 169 130 
-4 41 352 224 172 133 
-3 41 351 226 174 137 
-3 41 351 227 175 138 
-3 41 351 227 177 142 
-2 41 351 229 179 144 
-2 41 351 229 180 148 
-1 41 350 229 180 148 
-1 41 350 229 182 152 
-1 41 350 230 183 153 
0 41 350 230 185 156 
0 41 350 230 185 156 
0 41 350 229 184 155 
1 41 350 229 184 155 
1 41 350 229 182 152 
2 41 350 227 180 150 
2 41 350 226 179 149 
2 41 350 225 178 148 
3 41 350 224 179 148 
3 41 350 223 178 147 
3 41 351 221 177 148 
4 41 351 220 176 147 
4 41 351 218 176 151 
5 41 351 215 173 148 
5 41 351 210 168 146 
5 41 351 202 160 138 
6 41 351 189 147 131 
6 41 351 172 130 114 
7 41 351 153 113 101 
7 41 352 142 102 90 
7 41 352 147 97 90 
-9 44 376 120 72 52 
-9 44 375 129 81 61 
-9 44 374 147 95 71 
-8 44 372 162 110 86 
-8 44 371 170 116 88 
-7 43 368 179 125 97 
-7 43 363 187 132 101 
-6 42 358 196 141 110 
-6 42 355 206 149 119 
-5 42 353 214 157 127 
-5 42 353 216 162 124 
-5 42 352 220 166 128 
-4 41 351 223 171 132 
-4 41 351 225 173 134 
-3 41 351 226 174 137 
-3 41 351 227 175 138 
-3 41 351 227 177 144 
-2 41 350 229 179 146 
-2 41 350 227 181 148 
-1 41 350 228 182 149 
-1 41 350 229 184 153 
-1 41 350 231 186 155 
0 41 350 232 187 158 
0 41 350 231 186 157 
0 41 350 229 185 158 
1 41 350 228 184 157 
1 41 350 229 184 155 
2 41 350 227 182 153 
2 41 350 225 180 149 
2 41 350 224 179 148 
3 41 350 223 178 147 
3 41 350 222 177 146 
3 41 350 220 176 147 
4 41 351 220 176 147 
4 41 351 221 177 150 
5 41 351 218 174 147 
5 41 351 212 170 146 
5 41 351 203 161 137 
6 41 351 193 150 133 
6 41 351 181 138 121 
7 41 351 161 119 105 
7 41 351 146 104 90 
7 42 352 144 94 87 
-9 45 376 126 78 56 
-9 45 375 140 92 70 
-8 44 373 155 103 79 
-8 44 372 165 113 89 
-8 44 370 174 118 91 
-7 44 366 185 129 102 
-7 43 362 192 135 105 
-6 42 356 200 143 113 
-6 42 354 209 153 120 
-5 42 353 216 160 127 
-5 42 352 218 164 126 
-5 42 352 220 166 128 
-4 42 351 223 171 134 
-4 42 351 225 173 136 
-3 42 351 226 173 139 
-3 42 351 226 173 139 
-3 42 351 226 176 143 
-2 42 350 228 178 145 
-2 42 350 227 181 148 
-1 42 350 228 182 149 
-1 42 350 229 184 155 
-1 42 350 231 186 157 
0 42 350 232 186 160 
0 42 350 232 186 160 
0 42 350 230 186 159 
1 42 350 230 186 159 
1 42 350 230 184 158 
2 42 350 228 182 156 
2 42 350 224 180 151 
2 42 350 223 179 150 
3 42 350 222 178 149 
3 42 350 221 177 148 
3 42 350 219 175 146 
4 42 351 219 175 146 
4 42 351 221 177 150 
5 42 351 219 175 148 
5 42 351 218 173 150 
5 42 351 208 163 140 
6 42 351 197 152 133 
6 42 351 188 143 124 
7 42 351 171 125 109 
7 42 351 152 106 90 
7 42 351 145 95 86 
-9 45 376 130 80 57 
-9 45 375 146 96 73 
-8 45 373 162 108 82 
-8 45 371 170 116 90 
-8 44 369 178 123 93 
-7 44 365 189 134 104 
-7 43 360 195 139 106 
-6 43 355 202 146 113 
-6 43 354 211 152 120 
-5 42 353 219 160 128 
-5 42 351 217 165 128 
-5 42 351 220 168 131 
-4 42 351 223 170 136 
-4 42 351 225 172 138 
-3 42 350 223 173 138 
-3 42 350 223 173 138 
-3 42 350 225 176 143 
-2 42 350 227 178 145 
-2 42 350 226 179 149 
-1 42 350 227 180 150 
-1 42 350 229 184 155 
-1 42 350 231 186 157 
0 42 350 233 187 161 
0 42 350 233 187 161 
0 42 349 231 187 160 
1 42 350 231 187 160 
1 42 350 229 185 158 
2 42 350 227 183 156 
2 42 350 225 181 152 
2 42 350 224 180 151 
3 42 350 223 179 150 
3 42 350 221 177 148 
3 42 350 220 177 145 
4 42 350 219 176 144 
4 42 350 220 176 147 
5 42 350 219 175 146 
5 42 351 218 174 149 
5 42 351 210 166 141 
6 42 351 198 153 132 
6 42 350 190 145 124 
6 42 350 177 130 112 
7 42 350 157 110 92 
7 42 350 150 97 89 
-10 46 378 130 79 58 
-10 46 376 128 77 56 
-9 46 376 135 83 59 
-9 45 375 150 98 74 
-8 45 373 166 112 84 
-8 45 371 173 119 91 
-8 45 368 182 125 95 
-7 44 363 190 133 103 
-7 43 357 197 138 106 
-6 43 355 206 147 115 
-6 43 353 212 153 119 
-5 43 352 220 161 127 
-5 43 351 216 166 129 
-5 43 351 218 168 131 
-4 43 351 221 171 136 
-4 43 351 223 173 138 
-3 42 350 220 171 138 
-3 42 350 221 172 139 
-3 42 350 224 175 143 
-2 42 350 226 177 145 
-2 42 350 225 178 148 
-1 42 350 226 179 149 
-1 42 350 228 183 154 
-1 42 350 230 185 156 
0 42 349 230 186 159 
1 42 349 229 185 158 
1 42 350 228 184 155 
2 42 350 226 182 153 
2 42 350 225 181 152 
2 42 350 223 179 150 
3 42 350 223 180 148 
3 42 350 221 178 146 
3 42 350 220 175 144 
4 42 350 218 173 142 
4 42 350 219 174 143 
5 42 350 219 174 143 
5 42 350 215 171 146 
5 43 351 208 164 139 
6 43 351 198 153 132 
6 42 350 191 146 125 
6 42 350 181 134 114 
7 42 350 163 116 96 
7 42 350 153 101 90 
-10 46 378 132 82 59 
-10 46 376 132 82 59 
-9 46 376 142 88 64 
-9 46 375 158 104 80 
-8 46 373 167 111 84 
-8 45 371 176 120 93 
-8 45 368 184 127 97 
-7 44 362 190 133 103 
-7 44 356 198 139 105 
-6 43 354 209 150 116 
-6 43 353 214 154 120 
-5 43 352 220 160 126 
-5 43 351 216 166 131 
-5 43 351 218 168 133 
-4 43 351 220 171 138 
-4 43 351 221 172 139 
-3 43 350 219 170 137 
-3 43 350 220 171 138 
-3 43 350 221 175 142 
-2 43 350 223 177 144 
-2 43 350 225 180 149 
-1 43 350 225 180 149 
-1 43 350 226 181 152 
1 43 349 228 184 157 
2 43 349 226 182 153 
2 43 349 222 181 151 
2 43 349 221 180 150 
3 43 349 222 179 147 
3 43 350 221 178 146 
3 43 350 219 174 141 
4 43 350 216 171 138 
4 43 350 217 172 141 
5 43 350 219 174 143 
5 43 350 213 169 142 
5 43 350 207 163 136 
6 43 350 200 154 131 
6 43 350 192 146 123 
6 43 350 185 139 116 
7 43 350 170 124 101 
7 43 350 155 103 92 
-10 47 378 137 82 61 
-10 46 376 138 83 62 
-9 46 375 147 89 65 
-9 46 375 158 100 76 
-8 46 373 166 109 80 
-8 46 371 174 117 88 
-8 45 367 181 124 94 
-7 44 360 189 132 102 
-7 44 355 198 144 110 
-6 44 354 204 150 116 
-6 44 353 209 155 117 
-5 43 352 215 161 123 
-5 43 351 214 166 130 
-5 43 351 218 170 134 
-4 43 351 220 172 136 
-4 43 351 220 172 136 
-3 43 351 221 172 139 
-3 43 350 221 172 139 
-3 43 350 220 174 141 
-2 43 350 223 177 144 
-2 43 350 226 179 149 
-1 43 350 225 178 148 
-1 43 350 225 180 151 
2 43 349 224 180 153 
2 43 349 223 179 152 
3 43 349 223 180 148 
3 43 350 220 177 145 
3 43 350 216 173 141 
4 43 350 213 170 138 
4 43 350 213 168 137 
5 43 350 212 167 136 
5 43 350 210 165 134 
5 43 350 205 160 129 
6 43 350 199 153 127 
6 43 350 194 148 122 
6 43 350 186 138 115 
7 43 350 171 123 100 
7 43 350 154 106 96 
-10 47 378 139 84 63 
-10 47 376 140 85 64 
-9 47 375 149 91 67 
-9 47 375 158 100 76 
-8 46 373 166 109 80 
-8 46 371 174 117 88 
-8 46 366 182 125 95 
-7 45 359 190 133 103 
-7 44 355 200 146 112 
-6 44 353 207 153 119 
-6 44 352 211 159 120 
-5 44 352 216 164 125 
-5 44 351 214 166 130 
-5 44 351 217 169 133 
-4 44 351 219 171 135 
-4 44 351 220 172 136 
-3 44 351 221 172 139 
-3 44 351 221 172 139 
-3 44 350 219 173 140 
-2 44 350 221 175 142 
-2 44 350 222 176 143 
2 43 349 222 178 149 
2 43 349 222 178 149 
3 43 349 222 177 146 
3 44 350 219 174 143 
3 44 350 215 170 137 
4 44 350 211 166 133 
4 44 350 213 167 134 
5 44 350 211 165 132 
5 44 350 209 162 132 
5 44 350 205 158 128 
6 44 350 198 151 123 
6 44 350 193 146 118 
6 44 350 187 137 112 
7 44 350 173 123 98 
7 44 350 154 106 94 
-10 47 378 140 85 64 
-10 47 376 142 87 66 
-9 47 375 152 94 70 
-9 47 375 160 102 78 
-8 47 373 166 109 80 
-8 46 370 174 117 88 
-8 46 366 183 126 96 
-7 45 359 193 136 106 
-7 45 355 203 149 115 
-6 44 353 210 156 122 
-6 44 352 214 162 125 
-5 44 352 217 165 128 
-5 44 351 214 166 130 
-5 44 351 215 167 131 
-4 44 351 218 169 136 
-4 44 351 219 170 137 
-3 44 351 219 170 137 
-3 44 351 219 170 137 
-3 44 350 218 172 139 
-2 44 350 218 172 139 
2 44 349 223 178 147 
2 44 349 222 177 146 
3 44 349 220 175 142 
3 44 350 217 172 139 
3 44 350 214 168 134 
4 44 350 211 165 131 
4 44 350 211 165 131 
5 44 350 208 162 128 
5 44 350 207 158 126 
5 44 350 204 155 123 
6 44 350 199 148 119 
6 44 350 194 143 114 
6 44 350 186 135 108 
7 44 350 174 123 96 
7 44 350 155 107 95 
-10 48 377 139 85 61 
-10 48 376 143 89 65 
-9 48 375 151 95 70 
-9 48 375 159 103 78 
-8 47 373 167 110 81 
-8 47 370 174 117 88 
-8 46 365 183 128 97 
-7 45 359 194 139 108 
-7 45 355 204 151 117 
-6 45 353 210 157 123 
-6 45 352 212 162 125 
-5 45 352 215 165 128 
-5 44 351 213 165 129 
-5 44 351 215 167 131 
-4 44 351 217 169 133 
-4 44 351 218 170 134 
-3 44 351 218 169 136 
-3 44 351 218 169 136 
-3 44 351 216 170 136 
-2 44 350 217 171 137 
2 44 349 221 176 143 
2 44 349 220 175 142 
3 44 349 219 173 139 
3 44 350 215 169 135 
3 44 350 211 165 129 
4 44 350 208 162 126 
4 44 350 209 161 125 
5 44 350 206 158 122 
5 44 350 204 154 121 
5 44 350 201 151 118 
6 44 350 196 145 114 
6 44 350 191 140 109 
6 44 350 186 132 104 
7 44 350 175 121 93 
7 44 350 156 106 97 
-11 49 381 138 88 65 
-10 48 377 140 86 62 
-10 48 376 143 89 65 
-9 48 375 151 95 70 
-9 48 375 158 102 77 
-8 48 373 165 110 80 
-8 47 371 174 119 89 
-8 47 365 184 129 98 
-7 46 359 195 140 109 
-7 45 355 205 153 116 
-6 45 353 211 159 122 
-6 45 352 212 162 125 
-5 45 352 216 166 129 
-5 45 351 213 165 129 
-5 45 351 214 166 130 
-4 45 351 215 167 131 
-4 45 351 216 168 132 
-3 45 351 217 169 133 
-3 45 350 217 169 133 
-3 45 350 217 168 135 
-2 45 350 218 169 136 
2 45 349 218 172 139 
2 45 350 218 172 139 
3 45 350 216 170 134 
3 45 350 213 167 131 
3 45 350 211 163 125 
4 45 350 208 160 122 
4 45 350 208 158 121 
5 45 350 205 155 118 
5 45 350 202 152 117 
5 45 350 199 149 114 
6 45 350 196 143 112 
6 45 350 190 137 106 
6 45 350 183 130 99 
7 45 350 173 120 89 
7 45 351 159 106 98 
-11 49 381 138 88 65 
-11 49 379 138 88 65 
-10 49 378 137 85 61 
-10 48 376 140 88 64 
-9 48 375 152 96 71 
-9 48 374 159 103 78 
-8 48 373 165 110 80 
-8 48 371 174 119 89 
-8 47 366 184 130 96 
-7 46 359 195 141 107 
-7 46 356 206 154 117 
-6 45 353 211 159 122 
-6 45 352 211 161 124 
-5 45 352 216 166 129 
-5 45 351 213 165 127 
-5 45 351 214 166 128 
-4 45 351 214 166 128 
-4 45 351 214 166 128 
-3 45 351 215 167 131 
-3 45 350 215 167 131 
-3 45 350 217 169 133 
-2 45 350 218 170 134 
2 45 349 218 169 136 
2 45 350 217 168 135 
3 45 350 216 168 132 
3 45 350 214 166 130 
3 45 350 212 163 123 
4 45 350 210 161 121 
4 45 350 207 158 118 
5 45 350 203 154 114 
5 45 350 201 148 114 
5 45 350 199 146 112 
6 45 350 193 140 108 
6 45 350 187 134 102 
6 45 350 180 127 95 
7 45 350 170 117 85 
7 45 350 159 106 100 
-11 50 381 136 88 65 
-11 49 380 135 87 64 
-10 49 378 137 85 61 
-10 49 377 140 88 64 
-9 49 375 152 96 71 
-9 49 374 160 104 79 
-8 48 373 166 111 81 
-8 48 370 174 119 89 
-8 48 366 184 130 96 
-7 47 359 195 141 107 
-7 46 356 204 152 115 
-6 46 354 209 157 120 
-6 46 352 210 161 121 
-5 46 352 215 166 126 
-5 46 352 213 163 126 
-5 46 351 213 163 126 
-4 46 351 213 165 127 
-4 46 351 213 165 127 
-3 46 351 212 164 126 
-3 45 350 213 165 127 
-3 45 350 217 169 133 
-2 45 350 218 170 134 
2 45 350 215 165 130 
3 45 350 214 164 127 
3 45 350 213 163 126 
3 45 350 211 162 121 
4 45 350 210 161 120 
4 45 350 206 154 114 
5 45 350 202 150 110 
5 45 350 197 145 108 
5 45 350 194 142 105 
6 45 350 190 136 102 
6 45 350 184 130 96 
6 45 350 178 124 90 
7 46 351 168 114 80 
7 46 351 158 105 99 
-11 50 382 135 87 64 
-11 50 380 136 88 65 
-10 50 379 137 85 61 
-10 49 377 139 87 63 
-9 49 376 150 96 70 
-9 49 374 159 105 79 
-8 49 373 167 112 82 
-8 48 370 175 120 90 
-8 48 366 185 131 97 
-7 47 359 195 141 107 
-7 47 355 203 151 112 
-6 46 354 207 155 116 
-6 46 353 209 160 120 
-5 46 352 213 164 124 
-5 46 352 212 163 123 
-5 46 351 212 163 123 
-4 46 351 212 164 124 
-4 46 351 212 164 124 
-3 46 351 210 162 124 
-3 46 350 212 164 126 
-3 46 350 216 168 132 
-2 46 350 218 170 134 
2 46 350 215 163 126 
2 46 350 213 161 124 
3 46 350 212 160 121 
3 46 350 211 159 120 
3 46 350 209 158 115 
4 46 350 207 156 113 
4 46 350 203 150 108 
5 46 350 199 146 104 
5 46 350 194 140 102 
5 46 350 190 136 98 
6 46 350 186 132 96 
6 46 350 182 128 92 
6 46 350 175 121 87 
7 46 351 166 112 78 
7 46 351 155 105 96 
-11 51 383 135 88 68 
-11 50 380 134 87 67 
-10 50 379 134 83 62 
-10 50 377 138 87 66 
-9 50 376 151 97 73 
-9 49 374 162 108 84 
-8 49 373 167 111 84 
-8 49 371 176 120 93 
-8 48 367 184 130 96 
-7 48 361 192 138 104 
-7 47 355 200 148 111 
-6 47 354 205 153 116 
-6 47 353 207 158 118 
-5 47 353 210 161 121 
-5 46 352 210 162 126 
-5 46 351 210 162 126 
-4 46 351 208 162 126 
-4 46 351 208 162 126 
-3 46 351 208 162 126 
-3 46 350 209 163 127 
-3 46 350 215 167 131 
-2 46 350 219 171 135 
-2 46 350 219 171 135 
1 46 349 214 168 132 
2 46 349 215 163 126 
2 46 350 214 160 122 
2 46 350 213 159 121 
3 46 350 212 159 117 
3 46 350 211 158 116 
3 46 350 208 155 113 
4 46 350 206 153 111 
4 46 350 202 147 106 
5 46 350 197 142 101 
5 46 350 195 137 99 
5 46 350 191 133 95 
6 46 350 187 129 92 
6 46 351 184 126 89 
7 46 351 178 119 87 
7 46 351 168 109 77 
7 46 351 155 101 89 
-11 51 383 132 87 68 
-11 51 381 131 86 67 
-10 50 379 132 84 62 
-10 50 377 136 88 66 
-9 50 376 148 96 74 
-9 50 375 159 107 85 
-8 50 373 164 110 82 
-8 49 371 172 118 90 
-8 49 367 178 125 93 
-7 48 361 186 133 101 
-7 47 356 195 143 106 
-6 47 354 200 148 111 
-6 47 353 202 152 115 
-5 47 353 206 156 119 
-5 47 352 207 159 123 
-5 47 352 207 159 123 
-4 47 351 208 160 124 
-4 47 351 208 160 124 
-3 47 351 208 160 124 
-3 47 350 210 162 126 
-3 47 350 213 165 129 
-2 47 350 216 168 132 
-2 47 350 216 168 132 
-1 47 350 215 167 131 
-1 47 350 215 167 131 
-1 47 350 215 167 131 
0 46 349 213 165 129 
1 46 349 212 164 128 
1 46 349 216 164 127 
2 46 349 214 162 125 
2 47 350 213 159 121 
2 47 350 211 157 119 
3 47 350 210 157 117 
3 47 350 208 155 115 
3 47 350 206 153 113 
4 47 350 204 151 111 
4 47 350 200 147 107 
5 47 350 195 142 102 
5 47 350 195 137 99 
5 47 350 191 133 95 
6 47 350 186 127 93 
6 47 351 184 125 91 
-11 51 383 126 83 66 
-11 51 381 125 82 65 
-10 51 380 127 80 62 
-10 51 378 131 84 66 
-9 51 377 144 93 72 
-9 50 375 156 105 84 
-9 50 374 164 110 84 
-8 50 371 171 117 91 
-8 49 367 175 122 90 
-7 48 361 183 130 98 
-7 48 357 190 140 105 
-6 48 354 194 144 109 
-6 47 353 198 148 111 
-5 47 353 202 152 115 
-5 47 352 203 153 118 
-5 47 352 204 154 119 
-4 47 352 204 156 120 
-4 47 351 205 157 121 
-3 47 351 206 158 122 
-3 47 350 208 160 124 
-3 47 350 211 161 126 
-2 47 350 213 163 128 
-2 47 350 212 162 127 
-1 47 350 213 165 129 
-1 47 350 214 166 130 
0 47 349 215 165 130 
0 47 349 214 164 129 
0 47 349 212 162 127 
1 47 349 211 161 126 
1 47 349 214 162 125 
2 47 349 212 160 123 
2 47 350 211 159 120 
2 47 350 209 157 118 
3 47 350 208 155 115 
3 47 350 206 153 113 
3 47 350 203 150 110 
4 47 350 201 148 108 
4 47 350 199 146 106 
5 47 350 193 140 100 
5 47 350 192 136 99 
5 47 351 189 133 96 
6 47 351 186 127 95 
6 47 351 184 125 93 
-11 52 383 122 80 64 
-11 52 381 120 78 62 
-10 51 380 123 76 58 
-10 51 378 128 81 63 
-9 51 377 141 90 69 
-9 51 375 153 102 81 
-9 51 374 162 111 84 
-8 50 371 168 117 90 
-8 50 367 172 121 90 
-7 49 361 179 128 97 
-7 48 357 187 137 102 
-6 48 355 191 141 106 
-6 48 353 193 145 107 
-5 48 353 197 149 111 
-5 48 352 199 149 114 
-5 48 352 199 149 114 
-4 48 352 200 152 116 
-4 48 351 202 154 118 
-3 48 351 204 154 119 
-3 47 350 206 156 121 
-3 47 350 209 159 124 
-2 47 350 211 161 126 
-1 47 350 213 163 128 
-1 47 350 214 164 129 
0 47 349 212 162 127 
1 47 349 211 161 126 
1 47 349 212 160 123 
2 47 349 211 159 122 
2 47 350 210 158 119 
2 47 350 209 157 118 
3 47 350 207 155 115 
3 47 350 205 153 113 
3 47 350 202 149 109 
4 47 350 200 147 107 
4 47 350 199 146 106 
5 47 350 193 140 100 
5 47 350 192 136 99 
5 47 350 190 134 97 
-11 52 383 117 75 61 
-11 52 381 117 75 61 
-10 52 380 120 74 58 
-10 52 378 125 79 63 
-9 51 377 139 88 67 
-9 51 375 150 99 78 
-9 51 374 160 109 82 
-8 51 371 166 115 88 
-8 50 367 170 119 88 
-7 49 361 177 126 95 
-7 49 357 184 134 99 
-6 48 355 188 138 103 
-6 48 354 190 142 104 
-5 48 353 194 146 108 
-5 48 352 196 146 109 
-5 48 352 197 147 110 
-4 48 352 199 149 112 
-4 48 351 201 151 114 
-3 48 351 202 152 115 
-3 48 350 205 155 118 
-3 48 350 208 158 123 
-2 48 350 210 160 125 
1 48 349 210 160 125 
1 48 350 211 159 122 
2 48 350 210 158 121 
2 48 350 209 157 118 
2 48 350 208 156 117 
3 48 350 208 155 115 
3 48 350 205 152 112 
3 48 350 201 148 108 
4 48 350 198 145 105 
4 48 350 199 144 105 
5 48 350 193 138 99 
5 48 350 190 134 99 
5 48 350 188 132 97 
-11 53 382 109 65 52 
-11 52 380 109 65 52 
-10 52 379 115 68 52 
-10 52 378 122 75 59 
-9 52 377 135 84 63 
-9 52 375 146 95 74 
-9 51 374 158 106 82 
-8 51 371 165 113 89 
-8 51 368 169 118 89 
-7 50 362 175 124 95 
-7 49 358 182 132 99 
-6 49 355 185 135 102 
-6 49 354 188 140 104 
-5 49 353 192 144 108 
-5 49 353 194 144 107 
-5 48 352 196 146 109 
-4 48 352 198 148 111 
-4 48 351 200 150 113 
-3 48 351 203 151 114 
-3 48 351 205 153 116 
-3 48 350 206 156 119 
-2 48 350 208 158 121 
1 48 349 208 158 123 
1 48 350 210 158 121 
2 48 350 209 157 120 
2 48 350 207 155 118 
2 48 349 206 154 117 
3 48 349 205 153 114 
3 48 350 203 151 112 
3 48 350 200 147 107 
4 48 350 197 144 104 
4 48 350 197 142 103 
5 48 350 192 137 98 
5 48 350 187 131 96 
5 48 350 184 128 93 
-11 53 380 102 55 45 
-10 52 378 109 60 46 
-10 52 378 115 66 52 
-9 52 377 129 76 58 
-9 52 375 142 89 71 
-9 52 374 158 103 82 
-8 51 371 164 109 88 
-8 51 368 167 113 87 
-7 50 363 173 119 93 
-7 50 358 177 126 95 
-6 49 355 181 130 99 
-6 49 354 185 135 102 
-5 49 354 190 140 107 
-5 49 353 192 140 103 
-5 49 352 195 143 106 
-4 49 352 199 145 109 
-4 49 351 201 147 111 
-3 49 350 202 148 112 
-3 49 350 205 151 115 
-3 49 350 206 154 117 
-2 49 350 208 156 119 
-1 49 350 208 155 121 
1 48 349 208 155 121 
1 48 349 209 156 122 
2 48 349 207 154 120 
2 49 350 206 153 119 
2 48 349 205 152 118 
3 48 349 204 152 113 
3 48 349 203 151 112 
3 49 350 201 148 108 
4 49 350 199 146 106 
4 49 350 200 145 106 
-11 53 380 104 57 47 
-11 53 379 101 54 44 
-10 53 378 107 58 44 
-10 53 377 112 63 49 
-9 53 376 125 72 56 
-9 52 375 139 86 70 
-8 52 373 155 100 79 
-8 52 372 160 105 84 
-8 51 368 162 108 84 
-7 51 363 167 113 89 
-7 50 358 172 121 92 
-6 50 355 175 124 95 
-6 49 354 180 129 98 
-5 49 354 184 133 102 
-5 49 353 188 134 98 
-5 49 352 191 137 101 
-4 49 352 196 142 106 
-4 49 351 199 145 109 
-3 49 350 201 147 111 
-3 49 350 204 150 114 
-3 49 350 205 153 116 
-2 49 350 206 154 117 
-2 49 350 205 152 118 
-1 49 350 207 153 119 
-1 49 350 208 154 120 
0 49 350 208 154 120 
0 49 349 208 155 121 
1 49 349 209 156 122 
1 49 349 208 155 123 
2 49 349 207 154 122 
2 49 349 203 153 118 
2 49 349 202 152 117 
3 49 349 204 152 115 
3 49 349 204 152 115 
3 49 349 204 151 111 
4 49 349 203 150 110 
4 49 349 204 150 112 
-11 53 380 120 74 61 
-11 53 378 115 69 56 
-10 53 377 115 68 52 
-10 53 376 117 70 54 
-9 53 375 124 75 58 
-9 53 374 133 84 67 
-8 53 373 146 95 74 
-8 52 371 152 101 80 
-8 52 368 157 106 79 
-7 51 363 162 111 84 
-7 50 358 168 114 86 
-6 50 355 172 118 90 
-6 50 354 178 124 96 
-5 50 353 180 126 98 
-5 50 353 184 128 93 
-5 50 352 189 133 98 
-4 49 351 193 137 102 
-4 49 351 197 141 106 
-3 49 350 200 144 111 
-3 49 350 201 145 112 
-3 49 350 201 147 113 
-2 49 350 202 148 114 
-2 49 350 201 146 115 
-1 49 350 203 148 117 
-1 49 349 204 151 120 
-1 49 349 206 153 122 
0 49 350 206 153 122 
0 49 349 205 152 121 
0 49 349 206 153 122 
1 49 349 207 154 123 
1 49 349 205 153 116 
2 49 349 204 152 115 
2 49 349 203 150 116 
2 49 349 203 150 116 
3 49 348 204 151 117 
3 49 348 206 153 119 
3 49 349 208 155 121 
4 49 349 208 155 121 
4 49 349 208 155 121 
-11 54 379 126 78 66 
-10 53 377 123 74 59 
-10 53 376 123 74 59 
-9 53 375 128 77 60 
-9 53 374 135 84 67 
-8 53 373 139 87 66 
-8 52 370 145 93 72 
-8 52 367 152 98 72 
-7 51 361 158 104 78 
-7 51 357 162 108 80 
-6 50 355 166 112 84 
-6 50 353 173 118 88 
-5 50 353 177 122 92 
-5 50 352 180 124 89 
-5 50 351 184 128 93 
-4 50 351 189 133 98 
-4 50 351 194 138 103 
-3 50 350 196 142 108 
-3 50 350 198 144 110 
-3 50 350 199 145 111 
-2 50 350 199 145 111 
-2 50 350 195 142 110 
-1 50 350 197 144 112 
3 49 348 210 160 127 
3 49 348 211 161 128 
3 49 348 212 162 127 
-10 54 377 121 72 57 
-10 54 375 121 72 57 
-9 54 375 126 75 56 
-9 53 374 132 81 62 
-8 53 372 138 86 64 
-8 53 370 141 89 67 
-8 52 366 148 94 68 
-7 51 360 154 100 74 
-7 51 356 161 106 76 
-6 51 354 165 110 80 
-6 50 353 169 112 83 
-5 50 352 176 119 90 
-5 50 352 176 120 85 
-5 50 351 179 123 88 
-4 50 350 183 129 93 
-4 50 350 188 134 98 
-3 50 350 189 135 101 
-3 50 350 191 137 103 
-3 50 349 191 138 106 
-2 50 349 191 138 106 
-2 50 349 190 139 108 
-10 54 376 120 69 52 
-10 54 375 123 72 55 
-8 53 369 140 86 62 
-7 51 355 158 101 72 
-6 51 354 163 106 77 
-6 51 353 166 109 79 
-4 50 350 183 129 95 
-4 50 350 187 133 99 
-3 50 350 189 135 101 
-3 50 350 191 137 103 
-3 50 349 193 140 108 
-2 50 349 194 141 109 
-2 50 349 196 145 114 
-10 54 375 126 75 58 
-8 53 368 147 93 67 
-7 51 354 162 105 75 
-6 51 353 168 111 81 
-2 50 348 213 160 129 
-2 50 348 212 161 132 
