ply
format ascii 1.0
comment Created by CloudCompare v2.10.1 (Zephyrus)
comment Created 2020-05-17 12:44 AM
obj_info Generated by CloudCompare!
element vertex 407
property float x
property float y
property float z
property uchar red
property uchar green
property uchar blue
end_header
14 106 347 183 128 89 
14 106 346 203 148 109 
14 106 346 208 153 114 
15 106 346 203 149 113 
15 106 346 192 138 102 
15 106 346 165 119 93 
5 110 357 142 91 60 
14 106 346 216 161 122 
14 106 346 215 160 121 
15 106 346 207 153 117 
15 106 346 198 144 108 
15 106 347 174 127 97 
5 110 358 131 81 56 
12 107 347 177 125 85 
12 107 347 186 134 94 
12 107 346 197 145 105 
13 107 346 206 154 114 
13 107 346 213 161 122 
13 107 346 217 165 126 
14 107 346 221 168 128 
14 107 346 216 163 123 
15 107 346 210 156 118 
15 107 346 203 149 111 
15 107 346 184 135 102 
5 111 359 116 71 52 
6 110 355 126 75 48 
9 108 348 151 97 61 
9 108 348 156 102 66 
12 107 347 200 148 108 
12 107 347 206 154 114 
12 107 346 213 161 121 
13 107 346 218 166 126 
13 107 346 218 166 126 
13 107 346 220 168 128 
14 107 346 221 168 128 
14 107 346 216 163 123 
15 107 346 212 159 119 
15 107 346 208 155 115 
15 107 346 190 140 103 
5 112 360 108 68 56 
6 110 356 119 73 50 
6 110 354 122 76 53 
7 109 351 133 84 54 
7 109 351 140 86 52 
9 108 348 164 110 74 
9 108 348 174 120 84 
9 108 347 186 132 96 
10 108 347 195 141 105 
10 108 347 199 145 109 
11 108 347 203 149 113 
11 108 347 210 156 118 
11 108 347 215 161 123 
12 108 347 218 164 126 
12 108 347 221 167 129 
12 108 347 223 169 131 
13 107 346 225 171 133 
13 107 346 220 168 128 
13 107 346 219 167 127 
14 107 346 219 166 126 
14 107 346 216 163 123 
15 107 346 214 159 120 
15 107 346 211 156 117 
15 107 346 197 145 106 
16 108 347 180 128 89 
16 108 347 157 113 84 
16 108 347 144 100 71 
6 111 357 123 78 57 
6 110 354 127 82 61 
7 110 353 137 90 60 
7 109 351 144 97 67 
7 109 351 158 104 70 
8 109 350 164 110 76 
8 109 349 172 118 84 
8 109 349 178 124 90 
9 108 348 186 132 98 
9 108 348 194 140 106 
9 108 347 203 149 115 
10 108 347 209 155 121 
10 108 347 214 160 124 
11 108 347 216 162 126 
11 108 347 220 166 130 
11 108 347 223 169 133 
12 108 347 225 171 135 
12 108 347 225 171 135 
12 108 347 225 171 133 
13 108 347 225 171 133 
13 108 346 221 169 129 
13 108 346 218 166 126 
14 108 346 220 167 127 
14 108 346 217 164 124 
15 108 346 213 158 119 
15 108 346 211 156 117 
15 108 346 201 148 108 
16 108 347 185 132 92 
16 108 347 162 117 86 
16 108 347 147 102 71 
6 111 357 136 84 60 
6 110 354 143 91 67 
7 110 353 155 104 75 
7 110 351 159 108 79 
7 110 351 172 117 87 
8 109 350 180 125 95 
8 109 349 186 133 101 
8 109 349 192 139 107 
9 109 348 200 147 113 
9 109 348 206 153 119 
9 109 348 213 159 123 
10 108 347 217 163 127 
10 108 347 216 162 124 
11 108 347 219 165 127 
11 108 347 221 169 129 
11 108 347 221 169 129 
12 108 347 222 170 130 
12 108 347 223 171 131 
12 108 347 222 171 128 
13 108 347 221 170 127 
13 108 346 218 165 123 
13 108 346 217 164 122 
14 108 346 216 161 122 
14 108 346 214 159 120 
15 108 346 214 156 118 
15 108 346 214 156 118 
15 108 346 202 150 111 
16 108 347 185 133 94 
16 108 347 162 118 89 
16 108 347 146 102 73 
6 112 357 140 86 62 
6 111 354 148 94 70 
7 111 353 158 107 78 
7 110 351 165 114 85 
7 110 351 176 121 90 
8 110 350 185 130 99 
8 110 350 192 137 106 
8 109 349 198 143 112 
9 109 348 204 150 116 
9 109 348 207 153 119 
9 109 347 209 155 119 
10 109 347 213 159 123 
10 109 347 212 158 120 
11 109 347 216 162 124 
11 109 347 218 166 126 
11 109 347 218 166 126 
12 109 347 218 167 124 
12 109 347 219 168 125 
12 109 347 220 167 125 
13 109 347 218 165 123 
13 109 347 213 162 117 
13 108 346 212 161 116 
14 108 346 212 157 116 
14 108 346 210 155 114 
15 108 346 209 154 113 
15 108 346 210 155 114 
15 108 346 202 150 110 
16 109 347 187 135 95 
16 109 347 163 120 88 
5 113 361 122 84 71 
6 112 357 142 86 63 
6 111 354 150 94 71 
7 111 353 155 106 74 
7 111 352 164 115 83 
7 110 351 177 120 90 
8 110 350 186 129 99 
8 110 350 193 139 105 
8 110 349 199 145 111 
9 109 348 204 150 116 
9 109 348 204 150 116 
9 109 348 203 147 110 
10 109 347 206 150 113 
10 109 347 207 154 114 
11 109 347 211 158 118 
11 109 347 214 161 119 
11 109 347 214 161 119 
12 109 347 214 161 119 
12 109 346 215 162 120 
12 109 346 215 162 118 
13 109 346 213 160 116 
13 109 346 211 160 113 
13 109 346 209 158 111 
14 109 346 209 156 112 
14 109 346 208 155 111 
15 109 346 208 153 112 
15 109 346 209 154 113 
15 109 346 203 151 111 
16 109 347 191 139 99 
16 109 347 168 125 93 
17 110 349 137 102 82 
5 113 359 122 84 71 
6 112 354 148 91 71 
6 111 353 150 101 69 
7 111 352 158 109 77 
7 111 351 174 115 83 
8 110 350 182 123 91 
8 110 349 187 131 96 
8 110 349 194 138 103 
9 110 348 199 143 108 
9 110 348 199 143 108 
9 110 348 197 141 104 
10 110 348 200 144 107 
10 109 347 203 148 109 
11 109 347 207 152 113 
11 109 347 211 156 115 
11 109 347 210 155 114 
12 109 347 210 156 112 
12 109 346 211 157 113 
12 109 346 211 157 111 
13 109 346 210 156 110 
13 109 346 208 157 110 
13 109 346 208 157 110 
14 109 346 208 155 111 
14 109 346 208 155 111 
15 109 346 207 153 109 
15 109 346 207 153 109 
15 109 346 200 149 106 
16 109 347 190 139 96 
16 110 348 169 126 92 
17 110 348 157 114 80 
17 110 349 145 108 89 
17 110 349 146 109 90 
6 112 355 139 82 62 
6 112 354 146 89 69 
6 111 352 149 98 67 
7 111 352 155 104 73 
7 111 351 168 109 75 
8 111 350 174 115 81 
8 110 349 181 122 88 
8 110 349 188 129 95 
9 110 348 193 135 98 
9 110 348 194 136 99 
9 110 348 195 137 99 
10 110 348 198 140 102 
10 110 347 203 145 105 
11 110 347 207 149 109 
11 110 347 210 153 110 
11 110 347 209 152 109 
12 110 347 208 151 106 
12 110 347 209 152 107 
12 109 346 207 153 107 
13 109 346 205 151 105 
13 110 347 204 154 105 
13 110 347 205 155 106 
14 109 346 208 154 110 
14 109 346 208 154 110 
15 109 346 207 150 107 
15 110 347 205 148 105 
15 110 347 196 145 102 
16 110 347 186 135 92 
16 110 348 168 125 91 
17 110 348 158 115 81 
17 110 349 147 110 91 
17 110 349 149 112 93 
6 112 354 136 81 60 
6 112 353 142 87 66 
6 112 352 150 95 64 
7 111 351 155 100 69 
7 111 351 166 106 70 
8 111 350 172 112 76 
8 111 349 178 118 82 
8 111 349 183 123 87 
9 110 348 187 127 90 
9 110 348 190 130 93 
9 110 348 194 135 95 
10 110 348 199 140 100 
10 110 347 202 145 102 
11 110 347 205 148 105 
11 110 347 209 150 106 
11 110 347 208 149 105 
12 110 347 207 149 103 
12 110 347 206 148 102 
12 110 347 204 148 101 
13 110 346 203 147 100 
13 110 347 201 149 102 
13 110 347 204 152 105 
14 110 347 207 153 109 
14 110 346 208 154 110 
15 110 346 207 150 107 
15 110 346 204 147 104 
15 110 347 195 142 100 
16 110 347 185 132 90 
16 110 348 169 124 91 
17 111 349 161 116 83 
17 111 349 150 113 94 
17 111 350 152 115 96 
6 112 353 134 79 58 
6 112 353 140 85 64 
6 112 352 152 93 61 
7 112 351 155 96 64 
7 112 351 161 101 65 
8 111 350 168 108 72 
8 111 349 176 114 77 
8 111 349 180 118 81 
9 111 348 185 123 86 
9 111 348 189 127 90 
9 111 348 192 133 93 
10 111 348 197 138 98 
10 111 347 200 141 99 
11 111 347 203 144 102 
11 111 347 205 147 101 
11 111 347 204 146 100 
12 111 347 204 146 100 
12 111 347 203 145 99 
12 111 347 202 144 96 
13 111 347 200 142 94 
13 111 347 198 146 99 
13 111 347 201 149 102 
14 111 347 206 148 108 
14 111 347 207 149 109 
15 111 347 206 148 108 
15 111 347 203 145 105 
15 111 347 194 141 101 
16 111 347 184 131 91 
16 111 348 169 126 94 
17 111 349 161 118 86 
17 111 350 151 114 95 
17 111 350 152 115 96 
6 112 352 141 87 63 
6 112 352 153 93 59 
7 112 351 156 96 62 
7 112 351 159 97 60 
8 112 350 166 104 67 
8 112 349 171 109 72 
8 112 349 176 114 77 
9 111 348 183 121 82 
9 111 348 189 127 88 
9 111 348 190 131 89 
10 111 348 195 136 94 
10 111 347 197 138 94 
11 111 347 200 141 97 
11 111 347 204 143 98 
11 111 347 204 143 98 
12 111 347 203 142 95 
12 111 347 204 143 96 
12 111 347 201 143 95 
13 111 347 198 140 92 
13 111 347 194 141 97 
13 111 347 197 144 100 
14 111 347 200 145 104 
14 111 347 201 146 105 
15 111 347 202 144 104 
15 111 347 200 142 102 
15 111 347 190 138 98 
16 111 347 180 128 88 
16 111 348 165 122 90 
17 111 348 157 114 82 
7 112 350 163 98 60 
8 112 350 166 101 63 
8 112 349 172 107 67 
8 112 349 176 111 71 
9 112 348 181 116 76 
9 112 348 188 123 83 
9 112 348 192 129 88 
10 112 348 193 130 89 
10 111 347 194 133 89 
10 111 347 199 138 94 
11 111 347 202 139 95 
11 111 347 203 140 96 
12 111 347 204 143 98 
12 111 347 202 141 96 
12 111 347 197 139 93 
13 111 347 196 138 92 
13 111 347 197 139 91 
13 111 347 201 143 95 
14 111 347 203 146 101 
14 111 347 203 146 101 
15 111 347 199 146 106 
15 111 347 195 142 102 
15 111 347 183 134 101 
16 111 347 173 124 91 
16 112 348 159 115 88 
7 112 349 162 98 62 
8 112 349 166 102 66 
8 112 349 171 106 68 
8 112 349 175 110 72 
9 112 348 178 115 74 
9 112 348 183 120 79 
9 112 347 188 126 85 
10 112 347 192 130 89 
10 112 347 189 127 86 
10 112 347 193 131 90 
11 112 347 196 135 91 
11 112 347 198 137 93 
12 112 347 199 138 93 
12 112 347 199 138 93 
12 112 347 198 137 93 
13 111 346 197 136 92 
13 112 347 192 136 89 
13 112 347 196 140 93 
16 112 348 156 112 85 
8 112 348 174 110 74 
9 112 348 178 114 76 
9 112 348 181 117 79 
9 112 347 183 121 82 
10 112 347 187 125 86 
10 112 347 186 124 83 
10 112 347 190 128 87 
11 112 347 195 133 92 
11 112 347 196 134 93 
12 112 347 196 135 91 
12 112 347 197 136 92 
12 112 347 197 136 92 
13 112 347 198 141 96 
16 112 348 154 113 85 
9 112 347 177 115 78 
9 112 347 179 117 80 
9 112 347 182 120 81 
12 112 347 195 133 92 
12 112 347 195 133 92 
12 112 347 193 134 92 
