ply
format ascii 1.0
comment Created by CloudCompare v2.10.1 (Zephyrus)
comment Created 2020-05-17 12:43 AM
obj_info Generated by CloudCompare!
element vertex 234
property float x
property float y
property float z
property uchar red
property uchar green
property uchar blue
end_header
42 30 311 212 162 135 
42 30 311 221 171 144 
42 30 311 234 184 159 
42 30 310 233 185 162 
42 30 310 231 183 160 
42 30 311 231 184 158 
42 30 311 231 184 158 
42 30 310 232 186 163 
42 30 310 232 186 163 
43 30 310 231 184 164 
39 31 313 160 100 64 
39 31 313 167 117 84 
39 31 313 181 131 98 
40 31 313 194 144 111 
40 31 312 206 156 123 
40 31 312 217 168 136 
41 31 312 223 174 142 
41 31 312 224 177 149 
41 31 311 228 181 153 
42 31 311 229 183 159 
42 31 311 229 183 159 
42 30 310 230 185 162 
42 30 310 230 185 162 
43 30 310 229 184 163 
43 30 310 229 184 163 
39 31 313 169 112 82 
39 31 313 177 127 94 
39 31 313 192 142 109 
40 31 313 204 155 123 
40 31 312 212 163 131 
40 31 312 219 172 142 
41 31 312 222 175 145 
41 31 311 222 177 148 
41 31 311 226 181 152 
42 31 311 229 185 160 
42 31 311 228 184 159 
42 31 310 227 185 161 
42 31 310 228 186 162 
43 31 310 226 185 163 
43 31 310 226 185 163 
38 32 316 124 76 56 
38 32 315 136 84 60 
38 32 315 148 96 72 
39 32 314 164 110 82 
39 31 313 176 122 94 
39 31 313 186 136 103 
39 31 312 198 148 115 
40 31 312 207 158 126 
40 31 312 213 164 132 
40 31 311 219 172 142 
41 31 311 224 177 147 
41 31 311 225 180 151 
41 31 311 228 183 154 
42 31 311 228 184 157 
42 31 311 227 183 156 
42 31 310 226 184 160 
42 31 310 227 185 161 
43 31 310 227 186 164 
43 31 310 226 185 163 
38 32 315 139 91 69 
38 32 315 152 104 82 
39 32 314 169 119 94 
39 32 313 179 129 104 
39 32 313 189 138 107 
39 32 312 199 148 117 
40 32 312 206 157 125 
40 32 312 211 162 130 
40 32 311 216 169 139 
41 32 311 223 176 146 
41 32 311 225 180 151 
41 32 311 227 182 153 
42 32 311 225 181 154 
42 32 311 224 180 153 
42 31 310 223 181 156 
42 31 310 225 183 158 
43 31 310 225 185 159 
43 31 309 225 185 159 
38 33 318 126 90 76 
38 33 317 134 98 84 
38 32 315 149 104 81 
38 32 314 159 114 91 
39 32 314 172 126 102 
39 32 313 180 134 110 
39 32 313 187 136 107 
39 32 312 196 145 116 
40 32 312 204 153 124 
40 32 312 209 158 129 
40 32 311 214 165 135 
41 32 311 219 170 140 
41 32 311 220 173 145 
41 32 311 221 174 146 
42 32 311 221 177 148 
42 32 311 222 178 149 
42 32 310 222 181 153 
42 32 310 223 182 154 
43 32 310 224 183 155 
43 32 309 224 183 155 
38 33 318 133 101 88 
38 33 317 140 108 95 
38 33 315 153 111 89 
38 33 314 161 119 97 
38 32 313 171 127 102 
39 32 313 177 133 108 
39 32 313 187 136 109 
39 32 312 195 144 117 
40 32 312 202 151 124 
40 32 312 207 156 129 
40 32 311 211 161 134 
41 32 311 215 165 138 
41 32 311 216 169 141 
41 32 311 218 171 143 
42 32 311 219 174 145 
42 32 311 221 176 147 
42 32 310 221 177 148 
42 32 310 222 178 149 
43 32 310 221 180 150 
43 32 309 221 180 150 
38 34 320 122 106 107 
38 33 318 140 108 95 
38 33 317 145 113 100 
38 33 315 157 115 91 
38 33 314 163 121 97 
38 33 313 171 129 104 
39 33 313 176 134 109 
39 33 313 184 132 108 
40 33 312 197 147 122 
40 33 312 202 152 127 
40 33 311 207 157 132 
41 33 311 211 161 136 
41 33 311 212 165 139 
41 33 311 215 168 142 
42 33 311 215 170 141 
42 33 311 217 172 143 
42 33 311 216 172 143 
42 32 310 216 172 143 
43 32 310 218 174 145 
43 32 309 219 175 146 
38 34 318 138 109 95 
38 34 317 142 113 99 
38 33 315 158 113 90 
38 33 315 163 118 95 
39 33 314 169 123 99 
39 33 313 173 127 103 
40 33 312 194 149 120 
40 33 311 199 152 124 
41 33 311 202 155 127 
41 33 311 202 157 126 
41 33 311 203 158 127 
42 33 311 210 163 133 
42 33 311 213 166 136 
42 33 311 216 167 137 
43 33 311 215 166 136 
43 33 310 217 168 138 
43 33 309 218 169 139 
38 34 318 137 109 97 
38 34 317 141 113 101 
38 34 315 155 114 92 
38 34 314 159 118 96 
39 34 314 166 121 98 
39 33 313 169 124 101 
39 33 313 173 129 100 
40 33 312 185 140 111 
40 33 312 189 144 115 
40 33 311 193 148 119 
41 33 311 196 151 122 
41 33 311 197 152 123 
41 33 311 198 153 124 
42 33 311 203 158 127 
42 33 311 206 161 130 
42 33 311 208 161 131 
43 33 311 208 161 131 
43 33 310 211 162 132 
43 33 309 212 163 133 
38 34 319 134 107 96 
38 34 317 137 110 99 
38 34 315 150 112 91 
38 34 314 156 118 97 
39 34 314 163 123 98 
39 34 313 167 127 102 
39 34 313 173 129 102 
39 34 312 179 135 108 
40 34 312 185 141 114 
40 34 312 188 144 117 
40 34 311 192 146 120 
41 34 311 194 148 122 
41 34 311 194 149 120 
41 34 311 194 149 120 
42 34 311 197 152 123 
42 34 311 199 154 125 
42 33 310 201 154 124 
42 33 310 202 155 125 
43 33 310 205 156 126 
43 33 309 205 156 126 
38 34 315 153 117 93 
38 34 314 161 125 101 
39 34 314 170 133 106 
39 34 313 176 139 112 
39 34 313 184 140 113 
39 34 312 190 146 119 
40 34 312 195 151 124 
40 34 312 198 154 127 
40 34 312 200 155 126 
41 34 311 200 155 126 
41 34 311 199 154 125 
41 34 311 197 152 123 
42 34 311 198 151 121 
42 34 311 196 149 119 
42 34 311 198 149 119 
42 34 310 199 150 120 
43 34 310 201 152 120 
43 34 309 201 152 120 
39 34 312 206 162 135 
40 34 312 211 167 138 
40 34 312 213 169 140 
40 34 312 214 169 140 
41 34 312 213 168 139 
41 34 311 211 164 134 
41 34 311 207 160 130 
42 34 311 205 158 128 
42 34 311 200 153 123 
42 34 311 198 149 117 
43 34 311 197 148 116 
43 34 310 197 148 116 
43 34 310 197 148 116 
43 35 311 201 152 120 
43 34 310 198 149 117 
43 34 310 196 147 115 
42 35 310 208 159 127 
43 35 310 204 155 123 
43 35 310 199 150 118 
42 35 310 214 167 137 
42 35 310 211 164 134 
43 35 310 206 159 129 
43 35 310 201 154 124 
