ply
format ascii 1.0
comment Created by CloudCompare v2.10.1 (Zephyrus)
comment Created 2020-05-17 12:43 AM
obj_info Generated by CloudCompare!
element vertex 542
property float x
property float y
property float z
property uchar red
property uchar green
property uchar blue
end_header
25 -18 327 192 149 130 
25 -18 326 193 150 131 
25 -18 326 194 151 134 
26 -18 326 198 155 138 
25 -18 326 208 167 147 
25 -18 326 208 167 147 
25 -18 326 205 164 146 
26 -18 326 204 163 145 
24 -18 326 227 186 166 
25 -18 326 228 187 167 
25 -18 326 228 187 167 
25 -18 326 226 185 167 
26 -18 326 225 184 166 
26 -18 325 220 178 164 
23 -17 329 187 144 125 
23 -17 329 206 163 144 
23 -17 328 222 179 162 
24 -17 327 228 185 168 
24 -17 327 232 191 171 
24 -17 326 234 193 173 
25 -17 326 234 196 175 
25 -17 326 234 196 175 
25 -17 325 234 196 177 
25 -17 325 234 196 177 
26 -17 325 234 192 178 
23 -17 329 204 161 142 
23 -17 328 219 176 159 
24 -17 327 225 182 165 
24 -17 327 229 188 168 
24 -17 326 233 192 172 
25 -17 326 234 196 175 
25 -17 326 234 196 175 
25 -17 325 233 194 177 
25 -17 325 234 195 178 
26 -17 325 234 195 180 
23 -17 329 203 159 148 
23 -17 328 214 171 164 
24 -17 327 225 182 175 
24 -17 327 227 191 175 
24 -16 326 230 194 178 
25 -16 326 232 195 177 
25 -16 326 234 197 179 
25 -16 325 236 198 179 
25 -16 325 235 197 178 
26 -16 324 235 196 179 
26 -16 323 232 193 176 
19 -16 331 186 141 122 
19 -16 331 180 135 114 
19 -16 330 179 134 113 
20 -16 330 181 139 115 
20 -16 330 185 143 119 
20 -16 330 183 142 120 
21 -16 330 177 136 114 
21 -16 330 166 125 105 
22 -16 330 164 123 103 
22 -16 330 163 120 104 
22 -16 330 170 127 111 
23 -16 330 186 144 132 
23 -16 329 202 160 148 
23 -16 328 211 171 163 
24 -16 327 222 182 174 
24 -16 327 225 192 175 
24 -16 326 229 196 179 
25 -16 326 234 197 179 
25 -16 326 235 198 180 
25 -16 325 236 197 180 
25 -16 325 235 196 179 
26 -16 324 234 195 178 
26 -16 323 232 193 176 
19 -16 331 172 127 106 
19 -16 330 176 131 110 
20 -16 330 184 139 118 
20 -16 330 191 146 125 
20 -16 330 190 149 129 
21 -16 330 187 146 126 
21 -16 330 176 138 119 
22 -16 330 174 136 117 
22 -16 330 169 132 116 
22 -16 330 173 136 120 
23 -16 330 187 149 138 
23 -16 329 200 162 151 
23 -16 328 209 170 163 
24 -16 327 220 181 174 
24 -16 326 225 192 177 
24 -16 326 230 197 182 
24 -16 325 235 199 183 
25 -16 325 235 199 183 
25 -16 325 236 197 180 
25 -16 325 235 196 179 
26 -16 324 234 195 178 
26 -16 323 232 193 176 
19 -16 331 171 126 107 
19 -16 330 178 133 114 
20 -16 330 187 142 123 
20 -16 330 195 150 131 
20 -16 330 194 153 133 
21 -16 330 192 151 131 
21 -16 330 186 149 131 
22 -16 330 184 147 129 
22 -16 330 179 143 129 
22 -16 330 180 144 130 
23 -16 330 189 155 145 
23 -16 329 199 165 155 
23 -16 328 207 172 166 
24 -15 327 217 182 176 
24 -15 326 225 191 179 
24 -15 325 230 196 184 
24 -15 325 235 199 185 
25 -15 325 234 198 184 
25 -15 324 234 197 181 
25 -15 324 233 196 180 
26 -15 324 234 195 178 
26 -15 323 231 192 175 
26 -15 323 233 194 177 
18 -15 335 156 134 136 
18 -15 335 171 136 134 
18 -15 334 161 126 124 
18 -15 332 171 124 108 
19 -15 332 167 120 104 
19 -15 332 171 124 106 
19 -15 330 181 134 116 
20 -15 329 188 143 124 
20 -15 329 197 152 133 
20 -15 329 199 158 138 
21 -15 329 197 156 136 
21 -15 330 194 157 139 
22 -15 330 192 155 137 
22 -15 329 187 154 139 
22 -15 329 185 152 137 
23 -15 329 190 158 147 
23 -15 328 198 166 155 
23 -15 328 207 174 167 
24 -15 327 215 182 175 
24 -15 326 223 189 179 
24 -15 325 229 195 185 
24 -15 325 235 199 187 
25 -15 325 234 198 186 
25 -15 324 233 196 180 
25 -15 324 233 196 180 
26 -15 324 234 195 178 
26 -15 323 232 193 176 
26 -15 323 236 197 180 
18 -15 335 149 120 122 
18 -15 334 151 122 124 
19 -15 333 166 117 100 
19 -15 332 164 115 98 
19 -15 332 169 122 104 
19 -15 331 179 132 114 
20 -15 330 187 142 123 
20 -15 329 196 151 132 
20 -15 329 200 159 139 
21 -15 329 201 160 140 
21 -15 329 197 160 141 
22 -15 329 197 160 141 
22 -15 328 193 160 145 
22 -15 329 191 158 143 
23 -15 329 191 159 148 
23 -15 328 198 166 155 
23 -15 328 203 173 163 
24 -15 327 210 180 170 
24 -15 326 218 184 174 
24 -15 326 226 192 182 
25 -15 326 234 198 186 
25 -15 326 234 198 186 
25 -15 325 232 194 181 
25 -15 324 231 193 180 
26 -15 324 234 195 178 
26 -15 323 233 194 177 
26 -15 323 235 196 179 
27 -15 323 232 193 176 
18 -15 335 135 116 120 
19 -15 334 162 111 94 
19 -15 333 164 113 96 
19 -15 332 170 121 104 
19 -15 331 180 131 114 
20 -15 330 184 139 118 
20 -15 329 192 147 126 
20 -15 329 198 156 134 
21 -15 329 199 157 135 
21 -15 329 196 158 139 
22 -15 329 199 161 142 
22 -14 328 197 164 147 
22 -14 328 193 160 143 
23 -15 329 193 161 150 
23 -14 328 198 166 155 
23 -14 328 201 171 161 
24 -14 327 207 177 167 
24 -14 326 212 178 168 
24 -14 326 221 187 177 
25 -14 326 231 194 185 
25 -14 326 233 196 187 
25 -14 325 232 194 181 
25 -14 324 231 193 180 
26 -14 324 233 194 177 
26 -14 323 232 193 176 
26 -14 323 236 198 179 
27 -14 323 232 194 175 
18 -14 336 125 110 115 
19 -14 334 160 107 89 
19 -14 333 165 112 94 
19 -14 333 171 123 103 
19 -14 331 180 132 112 
20 -14 331 182 137 116 
20 -14 330 188 143 122 
20 -14 329 192 150 128 
21 -14 329 195 153 131 
21 -14 328 196 155 135 
21 -14 328 202 161 141 
22 -14 328 199 163 147 
22 -14 328 195 159 143 
23 -14 328 193 161 148 
23 -14 328 198 166 153 
23 -14 328 201 171 160 
24 -14 327 206 176 165 
24 -14 326 211 174 165 
24 -14 326 220 183 174 
25 -14 326 227 190 181 
25 -14 326 231 194 185 
25 -14 325 232 194 181 
25 -14 324 230 192 179 
26 -14 324 231 192 175 
26 -14 323 230 191 174 
26 -14 323 237 199 180 
27 -14 323 232 194 175 
19 -14 335 153 106 88 
19 -14 334 166 119 101 
19 -14 333 170 125 104 
19 -14 331 176 131 110 
20 -14 331 183 137 113 
20 -14 330 190 144 120 
20 -14 329 195 149 123 
21 -14 329 202 156 130 
21 -14 328 203 158 135 
21 -14 328 203 158 135 
22 -14 328 201 162 145 
22 -14 328 201 162 145 
23 -14 328 191 157 147 
23 -14 328 189 155 145 
23 -14 328 194 161 152 
24 -14 328 199 166 157 
24 -14 327 207 164 155 
24 -14 326 218 175 166 
25 -14 326 228 188 176 
25 -14 326 234 194 182 
25 -14 325 234 195 180 
25 -14 324 231 192 177 
26 -14 324 229 192 174 
26 -14 324 229 192 174 
26 -14 323 226 189 171 
27 -14 323 224 187 169 
19 -14 336 153 106 86 
19 -14 335 165 118 98 
19 -14 334 169 122 102 
19 -14 331 175 128 108 
20 -13 330 180 134 110 
20 -13 330 187 141 117 
20 -13 328 192 145 119 
21 -13 328 197 150 124 
21 -13 328 197 153 128 
21 -13 328 200 156 131 
22 -13 328 198 160 141 
22 -13 328 196 158 139 
23 -13 328 186 150 138 
23 -13 328 182 146 134 
23 -13 328 184 150 140 
24 -13 328 190 156 146 
24 -13 327 196 156 144 
24 -13 327 206 166 154 
25 -13 326 218 178 166 
25 -13 326 226 186 174 
25 -13 325 229 190 175 
25 -13 324 228 189 174 
26 -13 324 228 191 172 
26 -13 324 229 192 173 
26 -13 324 225 188 169 
27 -13 323 224 187 168 
27 -13 322 223 187 171 
19 -13 336 154 107 87 
19 -13 335 163 116 96 
19 -13 334 167 121 98 
20 -13 332 173 127 104 
20 -13 330 177 130 104 
20 -13 330 185 138 112 
20 -13 329 189 142 114 
21 -13 328 194 147 119 
21 -13 328 196 150 124 
21 -13 327 199 153 127 
22 -13 328 198 155 136 
22 -13 328 193 150 131 
23 -13 328 182 143 128 
23 -13 328 176 137 122 
23 -13 328 177 139 128 
24 -13 328 182 144 133 
24 -13 327 188 148 136 
24 -13 327 196 156 144 
25 -13 327 209 170 155 
25 -13 326 220 181 166 
25 -13 325 224 185 168 
25 -13 325 224 185 168 
26 -13 324 223 186 167 
26 -13 324 224 187 168 
26 -13 324 224 187 168 
27 -13 323 223 186 167 
27 -13 322 222 185 167 
19 -13 335 159 112 94 
19 -13 334 164 116 94 
20 -13 333 170 122 100 
20 -13 331 174 127 101 
20 -13 330 181 134 108 
20 -13 329 188 138 111 
21 -13 328 193 143 116 
21 -13 328 195 148 122 
21 -13 327 198 151 125 
22 -13 327 196 151 128 
22 -13 328 191 146 123 
23 -13 328 180 138 122 
23 -13 328 173 131 115 
23 -13 328 171 131 119 
24 -13 328 174 134 122 
24 -13 328 177 135 121 
24 -13 327 185 143 129 
25 -13 327 198 159 144 
25 -13 326 212 173 158 
25 -13 325 219 181 162 
25 -13 325 220 182 163 
26 -13 325 221 183 162 
26 -13 324 223 185 164 
26 -12 323 223 185 164 
27 -12 323 223 185 164 
27 -12 322 223 184 167 
19 -13 335 153 107 91 
19 -13 335 160 113 93 
20 -13 333 166 119 99 
20 -12 332 173 123 98 
20 -12 330 179 129 104 
20 -12 329 182 132 105 
21 -12 328 187 137 110 
21 -12 328 192 142 115 
21 -12 327 194 144 117 
22 -12 327 193 145 122 
22 -12 328 190 142 119 
23 -12 328 179 134 115 
23 -12 328 171 126 107 
23 -12 328 167 124 108 
24 -12 328 168 125 109 
24 -12 328 169 125 112 
24 -12 328 177 133 120 
25 -12 327 192 149 133 
25 -12 326 208 165 149 
25 -12 325 216 175 157 
25 -12 324 218 177 159 
26 -12 324 219 178 158 
26 -12 323 222 181 161 
26 -12 323 223 182 164 
27 -12 323 225 184 166 
27 -12 322 226 185 167 
19 -12 336 152 106 90 
19 -12 335 159 111 91 
20 -12 333 166 118 98 
20 -12 331 171 121 96 
20 -12 331 175 125 100 
20 -12 329 177 128 98 
21 -12 328 182 133 103 
21 -12 328 189 138 109 
21 -12 327 190 139 110 
22 -12 327 191 141 116 
22 -12 327 189 139 114 
23 -12 328 179 131 111 
23 -12 328 170 122 102 
23 -12 328 165 119 103 
24 -12 328 166 120 104 
24 -12 328 168 122 109 
24 -12 328 174 128 115 
25 -12 327 188 142 127 
25 -12 326 205 159 144 
25 -12 325 214 171 154 
25 -12 324 217 174 157 
26 -12 323 218 175 156 
26 -12 323 220 177 158 
26 -12 323 223 180 161 
27 -12 323 225 182 163 
27 -12 322 225 184 166 
27 -12 321 226 185 167 
19 -12 336 155 107 85 
20 -12 334 162 114 92 
20 -12 332 167 116 89 
20 -12 331 172 121 94 
21 -12 330 175 124 95 
21 -12 329 178 127 98 
21 -12 328 184 133 104 
21 -12 327 185 134 105 
22 -12 327 186 135 108 
22 -12 327 186 135 108 
23 -12 328 179 129 106 
23 -12 328 171 121 98 
23 -12 328 165 117 97 
24 -12 328 167 119 99 
24 -12 328 164 118 105 
24 -12 328 168 122 109 
25 -12 327 180 134 118 
25 -12 326 197 151 135 
25 -11 325 211 166 147 
25 -11 324 216 171 152 
26 -11 323 216 173 154 
26 -11 323 218 175 156 
26 -11 323 219 176 157 
27 -11 323 221 178 159 
27 -11 322 220 179 159 
27 -11 321 221 180 160 
20 -11 335 157 109 87 
20 -11 333 163 112 85 
20 -11 331 167 116 89 
21 -11 330 172 119 88 
21 -11 329 174 121 90 
21 -11 328 179 126 95 
21 -11 327 181 128 97 
22 -11 327 183 129 101 
22 -11 327 185 131 103 
23 -11 328 180 128 104 
23 -11 328 171 119 95 
23 -11 328 165 114 93 
24 -11 328 167 116 95 
24 -11 328 164 118 103 
24 -11 328 164 118 103 
25 -11 327 172 127 108 
25 -11 326 188 143 124 
25 -11 325 203 158 137 
25 -11 324 209 164 143 
26 -11 324 210 168 146 
26 -11 323 211 169 147 
26 -11 323 213 171 149 
27 -11 323 215 173 151 
27 -11 322 215 174 154 
27 -11 321 216 175 155 
28 -11 321 216 175 157 
20 -11 338 138 98 73 
20 -11 336 147 107 82 
20 -11 333 157 108 76 
20 -11 332 163 114 82 
21 -11 330 171 115 90 
21 -11 329 175 119 94 
21 -11 329 172 116 93 
21 -11 327 176 120 97 
22 -11 327 179 123 98 
22 -11 327 183 127 102 
23 -11 328 182 128 104 
23 -11 328 175 121 97 
23 -11 328 170 114 97 
24 -11 328 171 115 98 
24 -11 328 163 112 93 
24 -11 328 165 114 95 
25 -11 327 166 118 98 
25 -11 326 177 129 109 
25 -11 326 192 144 124 
25 -11 325 201 153 133 
26 -11 324 202 155 137 
26 -11 324 203 156 138 
26 -11 323 206 161 142 
27 -11 323 208 163 144 
27 -11 322 208 165 146 
27 -11 321 212 169 150 
28 -11 321 214 173 153 
20 -11 338 125 87 64 
20 -11 337 135 97 74 
20 -11 335 149 100 70 
20 -11 332 157 108 78 
21 -11 331 165 111 85 
21 -11 329 167 113 87 
21 -11 329 167 111 88 
21 -11 328 170 114 91 
22 -10 327 173 117 92 
22 -10 327 178 122 97 
23 -11 328 180 126 100 
23 -11 328 175 121 95 
23 -11 328 169 114 94 
24 -11 328 168 113 93 
24 -11 328 159 108 89 
24 -11 328 159 108 89 
25 -11 328 155 107 87 
25 -10 327 162 114 94 
25 -10 326 178 130 110 
25 -10 325 189 141 121 
26 -10 324 194 147 127 
26 -10 324 200 153 133 
20 -10 338 125 88 69 
20 -10 336 139 92 66 
20 -10 334 149 102 76 
21 -10 332 159 105 81 
21 -10 330 160 106 82 
21 -10 329 162 108 84 
21 -10 328 164 110 86 
22 -10 327 167 113 87 
22 -10 328 172 118 92 
23 -10 328 177 123 97 
23 -10 328 176 122 96 
23 -10 328 172 115 95 
24 -10 328 172 115 95 
24 -10 328 164 113 94 
24 -10 328 164 113 94 
25 -10 328 159 111 91 
25 -10 327 162 114 94 
25 -10 326 175 127 107 
25 -10 325 187 139 119 
26 -10 324 195 148 128 
26 -10 324 204 157 137 
20 -10 339 115 82 65 
20 -10 337 132 86 62 
20 -10 335 142 96 72 
21 -10 332 151 99 77 
21 -10 331 153 101 79 
21 -10 329 153 101 79 
21 -10 328 157 105 83 
22 -10 328 161 110 83 
22 -10 328 165 114 87 
23 -10 328 173 119 91 
23 -10 328 173 119 91 
23 -10 327 175 117 95 
24 -10 327 177 119 97 
24 -10 327 172 121 100 
24 -10 327 176 125 104 
25 -10 327 175 127 105 
25 -10 327 178 130 108 
25 -10 326 187 139 117 
25 -10 325 195 147 125 
26 -10 324 202 156 133 
26 -10 324 211 165 142 
20 -10 341 103 73 62 
20 -10 338 120 78 56 
21 -10 336 132 90 68 
21 -10 333 143 92 71 
21 -10 332 146 95 74 
21 -10 330 150 98 76 
20 -9 340 111 73 54 
21 -9 337 123 85 66 
21 -9 335 135 87 67 
21 -9 332 139 91 71 
21 -9 338 114 77 61 
21 -9 336 127 80 62 
21 -9 334 131 84 66 
21 -9 340 105 69 55 
21 -9 337 120 75 56 
21 -9 334 125 80 61 
